<svg xmlns="http://www.w3.org/2000/svg" width="65.948" height="66.389" viewBox="0 0 65.948 66.389">
    <defs>
        <clipPath id="prefix__clip-path">
            <path id="prefix__Clip_296" d="M.012 0h.7v.876h-.7z" class="prefix__cls-1" data-name="Clip 296" transform="translate(.711 .484)"/>
        </clipPath>
        <clipPath id="prefix__clip-path-2">
            <path id="prefix__Clip_489" d="M.01 0h.7v.875h-.7z" class="prefix__cls-1" data-name="Clip 489" transform="translate(.713 .332)"/>
        </clipPath>
        <clipPath id="prefix__clip-path-3">
            <path id="prefix__Clip_492" d="M.017 0h.689v1.694H.017z" class="prefix__cls-1" data-name="Clip 492" transform="translate(.706 .361)"/>
        </clipPath>
        <clipPath id="prefix__clip-path-4">
            <path id="prefix__Clip_702" d="M0 0h2.958v7.964H0z" class="prefix__cls-1" data-name="Clip 702" transform="translate(.606 .088)"/>
        </clipPath>
        <clipPath id="prefix__clip-path-5">
            <path id="prefix__Clip_711" d="M0 0h21.145v10.263H0z" class="prefix__cls-1" data-name="Clip 711" transform="translate(.322 .575)"/>
        </clipPath>
        <clipPath id="prefix__clip-path-6">
            <path id="prefix__Clip_724" d="M0 0h26.507v46.359H0z" class="prefix__cls-1" data-name="Clip 724" transform="translate(.421 .103)"/>
        </clipPath>
        <style>
            .prefix__cls-1{fill:none}.prefix__cls-3{fill:#c5eb8c}.prefix__cls-7{fill:#fff}.prefix__cls-8{fill:#2d2d2d}.prefix__cls-9{fill:#93b758}
        </style>
    </defs>
    <g id="prefix__ic_hair_and_scalp_problems" transform="translate(-.723 -.722)">
        <g id="prefix__Group_682" data-name="Group 682" transform="translate(0 3.525)" style="opacity:.5">
            <path id="prefix__Fill_1" d="M.918 1.836A.917.917 0 0 1 .921 0a.918.918 0 1 0 0 1.836" class="prefix__cls-3" data-name="Fill 1" transform="translate(28.911 .225)"/>
            <path id="prefix__Fill_3" d="M.918 1.836A.918.918 0 1 0 0 .918a.918.918 0 0 0 .918.918" class="prefix__cls-3" data-name="Fill 3" transform="translate(32.583 .225)"/>
            <path id="prefix__Fill_5" d="M.918 1.341a.914.914 0 0 0 .91-.88C1.266.289.694.138.118 0A.889.889 0 0 0 0 .423a.918.918 0 0 0 .918.918" class="prefix__cls-3" data-name="Fill 5" transform="translate(36.254 .72)"/>
            <path id="prefix__Fill_7" d="M.918 1.835A.918.918 0 1 0 0 .917a.918.918 0 0 0 .918.918" class="prefix__cls-3" data-name="Fill 7" transform="translate(30.747 2.979)"/>
            <path id="prefix__Fill_9" d="M.918 1.835A.918.918 0 1 0 0 .917a.918.918 0 0 0 .918.918" class="prefix__cls-3" data-name="Fill 9" transform="translate(34.418 2.979)"/>
            <path id="prefix__Fill_11" d="M.918 1.835A.918.918 0 1 0 0 .917a.918.918 0 0 0 .918.918" class="prefix__cls-3" data-name="Fill 11" transform="translate(38.09 2.979)"/>
            <path id="prefix__Fill_13" d="M0 .9a.918.918 0 1 0 1.835 0 .889.889 0 0 0-.13-.444C1.416.3 1.121.149.827 0A.909.909 0 0 0 0 .9" class="prefix__cls-3" data-name="Fill 13" transform="translate(41.761 2.998)"/>
            <path id="prefix__Fill_15" d="M.006.918A.917.917 0 0 1 .921 0a.918.918 0 1 0 0 1.836.918.918 0 0 1-.915-.918" class="prefix__cls-3" data-name="Fill 15" transform="translate(28.911 5.733)"/>
            <path id="prefix__Fill_17" d="M.918 0a.918.918 0 1 0 .918.918A.918.918 0 0 0 .918 0" class="prefix__cls-3" data-name="Fill 17" transform="translate(32.583 5.733)"/>
            <path id="prefix__Fill_19" d="M.918 1.835A.918.918 0 1 0 0 .918a.918.918 0 0 0 .918.918" class="prefix__cls-3" data-name="Fill 19" transform="translate(36.254 5.733)"/>
            <path id="prefix__Fill_21" d="M.918 1.835A.918.918 0 1 0 0 .918a.918.918 0 0 0 .918.918" class="prefix__cls-3" data-name="Fill 21" transform="translate(39.926 5.733)"/>
            <path id="prefix__Fill_23" d="M.918 1.835A.918.918 0 1 0 0 .918a.918.918 0 0 0 .918.918" class="prefix__cls-3" data-name="Fill 23" transform="translate(43.597 5.733)"/>
            <path id="prefix__Fill_25" d="M.918 1.462a.909.909 0 0 0 .671-.3C1.139.759.673.374.2 0a.9.9 0 0 0-.2.544.918.918 0 0 0 .918.918" class="prefix__cls-3" data-name="Fill 25" transform="translate(47.268 6.107)"/>
            <path id="prefix__Fill_27" d="M.918 0a.918.918 0 1 0 .918.918A.918.918 0 0 0 .918 0" class="prefix__cls-3" data-name="Fill 27" transform="translate(30.747 8.486)"/>
            <path id="prefix__Fill_29" d="M.918 0a.918.918 0 1 0 .918.918A.918.918 0 0 0 .918 0" class="prefix__cls-3" data-name="Fill 29" transform="translate(34.418 8.486)"/>
            <path id="prefix__Fill_31" d="M.918 0a.918.918 0 1 0 .918.918A.918.918 0 0 0 .918 0" class="prefix__cls-3" data-name="Fill 31" transform="translate(38.09 8.486)"/>
            <path id="prefix__Fill_33" d="M.918 1.835A.918.918 0 1 0 0 .918a.918.918 0 0 0 .918.918" class="prefix__cls-3" data-name="Fill 33" transform="translate(41.761 8.486)"/>
            <path id="prefix__Fill_35" d="M.918 1.835A.918.918 0 1 0 0 .918a.918.918 0 0 0 .918.918" class="prefix__cls-3" data-name="Fill 35" transform="translate(45.433 8.486)"/>
            <path id="prefix__Fill_37" d="M0 .918a.918.918 0 1 0 1.835 0 .948.948 0 0 0-.02-.1Q1.447.417 1.064.03A.837.837 0 0 0 .918 0 .918.918 0 0 0 0 .918" class="prefix__cls-3" data-name="Fill 37" transform="translate(49.104 8.486)"/>
            <path id="prefix__Fill_39" d="M.006.918A.918.918 0 0 1 .921 0a.918.918 0 0 0 0 1.837.918.918 0 0 1-.915-.919" class="prefix__cls-3" data-name="Fill 39" transform="translate(28.911 11.239)"/>
            <path id="prefix__Fill_41" d="M.918 1.836A.918.918 0 1 0 0 .918a.918.918 0 0 0 .918.918" class="prefix__cls-3" data-name="Fill 41" transform="translate(32.583 11.24)"/>
            <path id="prefix__Fill_43" d="M.918 0a.918.918 0 1 0 .918.918A.919.919 0 0 0 .918 0" class="prefix__cls-3" data-name="Fill 43" transform="translate(36.254 11.24)"/>
            <path id="prefix__Fill_45" d="M.918 0a.918.918 0 1 0 .918.918A.918.918 0 0 0 .918 0" class="prefix__cls-3" data-name="Fill 45" transform="translate(39.926 11.24)"/>
            <path id="prefix__Fill_47" d="M.918 0a.918.918 0 1 0 .918.918A.919.919 0 0 0 .918 0" class="prefix__cls-3" data-name="Fill 47" transform="translate(43.597 11.24)"/>
            <path id="prefix__Fill_49" d="M.918 1.836A.918.918 0 1 0 0 .918a.919.919 0 0 0 .918.918" class="prefix__cls-3" data-name="Fill 49" transform="translate(47.268 11.24)"/>
            <path id="prefix__Fill_51" d="M.918 1.836A.918.918 0 1 0 0 .918a.918.918 0 0 0 .918.918" class="prefix__cls-3" data-name="Fill 51" transform="translate(50.939 11.24)"/>
            <path id="prefix__Fill_53" d="M.918 0a.918.918 0 1 0 .918.918A.918.918 0 0 0 .918 0" class="prefix__cls-3" data-name="Fill 53" transform="translate(30.747 13.994)"/>
            <path id="prefix__Fill_55" d="M.918 0a.918.918 0 1 0 .918.918A.918.918 0 0 0 .918 0" class="prefix__cls-3" data-name="Fill 55" transform="translate(34.418 13.994)"/>
            <path id="prefix__Fill_57" d="M.918 1.835A.918.918 0 1 0 0 .917a.918.918 0 0 0 .918.918" class="prefix__cls-3" data-name="Fill 57" transform="translate(38.09 13.994)"/>
            <path id="prefix__Fill_59" d="M.918 0a.918.918 0 1 0 .918.918A.918.918 0 0 0 .918 0" class="prefix__cls-3" data-name="Fill 59" transform="translate(41.761 13.994)"/>
            <path id="prefix__Fill_61" d="M.918 0a.918.918 0 1 0 .918.918A.918.918 0 0 0 .918 0" class="prefix__cls-3" data-name="Fill 61" transform="translate(45.433 13.994)"/>
            <path id="prefix__Fill_63" d="M.918 1.835A.918.918 0 1 0 0 .917a.918.918 0 0 0 .918.918" class="prefix__cls-3" data-name="Fill 63" transform="translate(49.104 13.994)"/>
            <path id="prefix__Fill_65" d="M.918 1.835A.918.918 0 1 0 0 .917a.918.918 0 0 0 .918.918" class="prefix__cls-3" data-name="Fill 65" transform="translate(52.776 13.994)"/>
            <path id="prefix__Fill_67" d="M.006.918A.918.918 0 0 1 .921 0a.918.918 0 1 0 0 1.836.917.917 0 0 1-.915-.918" class="prefix__cls-3" data-name="Fill 67" transform="translate(28.911 16.747)"/>
            <path id="prefix__Fill_69" d="M.918 0a.918.918 0 1 0 .918.918A.918.918 0 0 0 .918 0" class="prefix__cls-3" data-name="Fill 69" transform="translate(32.583 16.747)"/>
            <path id="prefix__Fill_71" d="M.918 0a.918.918 0 1 0 .918.918A.918.918 0 0 0 .918 0" class="prefix__cls-3" data-name="Fill 71" transform="translate(36.254 16.747)"/>
            <path id="prefix__Fill_73" d="M.918 0a.918.918 0 1 0 .918.918A.918.918 0 0 0 .918 0" class="prefix__cls-3" data-name="Fill 73" transform="translate(39.926 16.747)"/>
            <path id="prefix__Fill_75" d="M.918 1.835A.918.918 0 1 0 0 .917a.918.918 0 0 0 .918.918" class="prefix__cls-3" data-name="Fill 75" transform="translate(43.597 16.747)"/>
            <path id="prefix__Fill_77" d="M.918 0a.918.918 0 1 0 .918.918A.918.918 0 0 0 .918 0" class="prefix__cls-3" data-name="Fill 77" transform="translate(47.268 16.747)"/>
            <path id="prefix__Fill_79" d="M.918 0a.918.918 0 1 0 .918.918A.918.918 0 0 0 .918 0" class="prefix__cls-3" data-name="Fill 79" transform="translate(50.939 16.747)"/>
            <path id="prefix__Fill_81" d="M0 .918a.912.912 0 0 0 1.775.3Q1.541.642 1.283.077A.915.915 0 0 0 0 .918" class="prefix__cls-3" data-name="Fill 81" transform="translate(54.611 16.747)"/>
            <path id="prefix__Fill_83" d="M.918 0a.918.918 0 1 0 .918.918A.918.918 0 0 0 .918 0" class="prefix__cls-3" data-name="Fill 83" transform="translate(30.747 19.501)"/>
            <path id="prefix__Fill_85" d="M.918 1.836A.918.918 0 1 0 0 .918a.918.918 0 0 0 .918.918" class="prefix__cls-3" data-name="Fill 85" transform="translate(34.418 19.501)"/>
            <path id="prefix__Fill_87" d="M.918 0a.918.918 0 1 0 .918.918A.918.918 0 0 0 .918 0" class="prefix__cls-3" data-name="Fill 87" transform="translate(38.09 19.501)"/>
            <path id="prefix__Fill_89" d="M.918 0a.918.918 0 1 0 .918.918A.918.918 0 0 0 .918 0" class="prefix__cls-3" data-name="Fill 89" transform="translate(41.761 19.501)"/>
            <path id="prefix__Fill_91" d="M.918 0a.918.918 0 1 0 .918.918A.918.918 0 0 0 .918 0" class="prefix__cls-3" data-name="Fill 91" transform="translate(45.433 19.501)"/>
            <path id="prefix__Fill_93" d="M.918 0a.918.918 0 1 0 .918.918A.918.918 0 0 0 .918 0" class="prefix__cls-3" data-name="Fill 93" transform="translate(49.104 19.501)"/>
            <path id="prefix__Fill_95" d="M.918 0a.918.918 0 1 0 .918.918A.918.918 0 0 0 .918 0" class="prefix__cls-3" data-name="Fill 95" transform="translate(52.776 19.501)"/>
            <path id="prefix__Fill_97" d="M0 .831a.918.918 0 0 0 .918.918.814.814 0 0 0 .143-.03C.905 1.139.729.566.538 0A.914.914 0 0 0 0 .831" class="prefix__cls-3" data-name="Fill 97" transform="translate(56.447 19.588)"/>
            <path id="prefix__Fill_99" d="M.918 1.836A.917.917 0 0 1 .921 0a.918.918 0 1 0 0 1.836" class="prefix__cls-3" data-name="Fill 99" transform="translate(28.911 22.254)"/>
            <path id="prefix__Fill_101" d="M.918 0a.918.918 0 1 0 .918.918A.918.918 0 0 0 .918 0" class="prefix__cls-3" data-name="Fill 101" transform="translate(32.583 22.254)"/>
            <path id="prefix__Fill_103" d="M.918 0a.918.918 0 1 0 .918.918A.918.918 0 0 0 .918 0" class="prefix__cls-3" data-name="Fill 103" transform="translate(36.254 22.254)"/>
            <path id="prefix__Fill_105" d="M.918 1.836A.918.918 0 1 0 0 .918a.918.918 0 0 0 .918.918" class="prefix__cls-3" data-name="Fill 105" transform="translate(39.926 22.254)"/>
            <path id="prefix__Fill_107" d="M.918 0a.918.918 0 1 0 .918.918A.918.918 0 0 0 .918 0" class="prefix__cls-3" data-name="Fill 107" transform="translate(43.597 22.254)"/>
            <path id="prefix__Fill_109" d="M.918 0a.918.918 0 1 0 .918.918A.918.918 0 0 0 .918 0" class="prefix__cls-3" data-name="Fill 109" transform="translate(47.268 22.254)"/>
            <path id="prefix__Fill_111" d="M.918 1.836A.918.918 0 1 0 0 .918a.918.918 0 0 0 .918.918" class="prefix__cls-3" data-name="Fill 111" transform="translate(50.939 22.254)"/>
            <path id="prefix__Fill_113" d="M.918 1.836A.918.918 0 1 0 0 .918a.919.919 0 0 0 .918.918" class="prefix__cls-3" data-name="Fill 113" transform="translate(54.611 22.254)"/>
            <path id="prefix__Fill_115" d="M.918 0a.918.918 0 1 0 .918.918A.918.918 0 0 0 .918 0" class="prefix__cls-3" data-name="Fill 115" transform="translate(30.747 25.008)"/>
            <path id="prefix__Fill_117" d="M.918 0a.918.918 0 1 0 .918.918A.918.918 0 0 0 .918 0" class="prefix__cls-3" data-name="Fill 117" transform="translate(34.418 25.008)"/>
            <path id="prefix__Fill_119" d="M.918 0a.918.918 0 1 0 .918.918A.918.918 0 0 0 .918 0" class="prefix__cls-3" data-name="Fill 119" transform="translate(38.09 25.008)"/>
            <path id="prefix__Fill_121" d="M.918 1.836A.918.918 0 1 0 0 .918a.918.918 0 0 0 .918.918" class="prefix__cls-3" data-name="Fill 121" transform="translate(41.761 25.008)"/>
            <path id="prefix__Fill_123" d="M.918 1.836A.918.918 0 1 0 0 .918a.918.918 0 0 0 .918.918" class="prefix__cls-3" data-name="Fill 123" transform="translate(45.433 25.008)"/>
            <path id="prefix__Fill_125" d="M.918 0a.918.918 0 1 0 .918.918A.918.918 0 0 0 .918 0" class="prefix__cls-3" data-name="Fill 125" transform="translate(49.104 25.008)"/>
            <path id="prefix__Fill_127" d="M.918 0a.918.918 0 1 0 .918.918A.918.918 0 0 0 .918 0" class="prefix__cls-3" data-name="Fill 127" transform="translate(52.776 25.008)"/>
            <path id="prefix__Fill_129" d="M.918 1.836A.918.918 0 1 0 0 .918a.918.918 0 0 0 .918.918" class="prefix__cls-3" data-name="Fill 129" transform="translate(56.447 25.008)"/>
            <path id="prefix__Fill_131" d="M.006.014C.006.009 0 0 0 0v.014a.919.919 0 0 0 .918.919.918.918 0 0 1-.912-.919" class="prefix__cls-3" data-name="Fill 131" transform="translate(28.911 28.665)"/>
            <path id="prefix__Fill_133" d="M.918.932a.918.918 0 0 0 .918-.918V0a.917.917 0 0 1-.918.9A.917.917 0 0 1 0 0v.014a.918.918 0 0 0 .918.918" class="prefix__cls-3" data-name="Fill 133" transform="translate(32.583 28.665)"/>
            <path id="prefix__Fill_135" d="M.918.9A.916.916 0 0 1 0 0a.106.106 0 0 0 0 .014.918.918 0 0 0 .918.918.918.918 0 0 0 .919-.918V0a.917.917 0 0 1-.919.9" class="prefix__cls-3" data-name="Fill 135" transform="translate(36.254 28.665)"/>
            <path id="prefix__Fill_137" d="M.918.9A.916.916 0 0 1 0 0v.014a.918.918 0 0 0 .918.918.918.918 0 0 0 .918-.918V0a.917.917 0 0 1-.918.9" class="prefix__cls-3" data-name="Fill 137" transform="translate(39.926 28.665)"/>
            <path id="prefix__Fill_139" d="M1.833 0a.917.917 0 0 1-.915.9A.916.916 0 0 1 0 0a.106.106 0 0 0 0 .014.918.918 0 0 0 .918.918.917.917 0 0 0 .918-.918V0" class="prefix__cls-3" data-name="Fill 139" transform="translate(43.597 28.665)"/>
            <path id="prefix__Fill_141" d="M.918.932a.918.918 0 0 0 .919-.918V0a.917.917 0 0 1-.919.9A.916.916 0 0 1 0 0v.014a.918.918 0 0 0 .918.918" class="prefix__cls-3" data-name="Fill 141" transform="translate(47.268 28.665)"/>
            <path id="prefix__Fill_143" d="M1.833 0a.917.917 0 0 1-.915.9A.917.917 0 0 1 0 0v.014a.918.918 0 0 0 .918.918.917.917 0 0 0 .918-.918V0" class="prefix__cls-3" data-name="Fill 143" transform="translate(50.94 28.665)"/>
            <path id="prefix__Fill_145" d="M.918.9A.916.916 0 0 1 0 0a.106.106 0 0 0 0 .014.918.918 0 0 0 1.837 0V0a.917.917 0 0 1-.919.9" class="prefix__cls-3" data-name="Fill 145" transform="translate(54.611 28.665)"/>
            <path id="prefix__Fill_147" d="M.26.093a.9.9 0 0 0 .2.551V.616a.9.9 0 0 1-.2-.538v.014" class="prefix__cls-3" data-name="Fill 147" transform="translate(58.023 28.586)"/>
            <path id="prefix__Fill_149" d="M.778.2C.517.3.257.4 0 .506a.922.922 0 0 0 .091.018A.9.9 0 0 0 .778.2" class="prefix__cls-3" data-name="Fill 149" transform="translate(18.729 1.537)"/>
            <path id="prefix__Fill_151" d="M.918 1.43a.918.918 0 0 0 .919-.918A.89.89 0 0 0 1.659 0Q.83.186.019.421A.909.909 0 0 0 0 .512a.918.918 0 0 0 .918.918" class="prefix__cls-3" data-name="Fill 151" transform="translate(21.573 .631)"/>
            <path id="prefix__Fill_153" d="M.918 1.836A.918.918 0 1 0 0 .918a.918.918 0 0 0 .918.918" class="prefix__cls-3" data-name="Fill 153" transform="translate(25.245 .225)"/>
            <path id="prefix__Fill_155" d="M.916.918A.918.918 0 0 1 0 1.836.919.919 0 0 0 .921.918.919.919 0 0 0 0 0a.918.918 0 0 1 .916.918" class="prefix__cls-3" data-name="Fill 155" transform="translate(29.832 .225)"/>
            <path id="prefix__Fill_157" d="M0 .918A.915.915 0 1 0 .916 0 .918.918 0 0 0 0 .918" class="prefix__cls-3" data-name="Fill 157" transform="translate(28.917 .226)"/>
            <path id="prefix__Fill_159" d="M.552.239L.171.483A.9.9 0 0 0 .552.239" class="prefix__cls-3" data-name="Fill 159" transform="translate(13.433 4.273)"/>
            <path id="prefix__Fill_161" d="M.918 1.835A.918.918 0 1 0 0 .917a.918.918 0 0 0 .918.918" class="prefix__cls-3" data-name="Fill 161" transform="translate(16.067 2.979)"/>
            <path id="prefix__Fill_163" d="M.918 1.835A.918.918 0 1 0 0 .917a.918.918 0 0 0 .918.918" class="prefix__cls-3" data-name="Fill 163" transform="translate(19.738 2.979)"/>
            <path id="prefix__Fill_165" d="M.918 1.835A.918.918 0 1 0 0 .917a.918.918 0 0 0 .918.918" class="prefix__cls-3" data-name="Fill 165" transform="translate(23.409 2.979)"/>
            <path id="prefix__Fill_167" d="M.918 1.835A.918.918 0 1 0 0 .917a.918.918 0 0 0 .918.918" class="prefix__cls-3" data-name="Fill 167" transform="translate(27.081 2.979)"/>
            <path id="prefix__Fill_169" d="M.834 1.654a.918.918 0 0 0 .918-.918A.9.9 0 0 0 1.353 0Q.659.534 0 1.111a.916.916 0 0 0 .834.543" class="prefix__cls-3" data-name="Fill 169" transform="translate(10.643 5.914)"/>
            <path id="prefix__Fill_171" d="M.918 1.835A.918.918 0 1 0 0 .918a.918.918 0 0 0 .918.918" class="prefix__cls-3" data-name="Fill 171" transform="translate(14.23 5.733)"/>
            <path id="prefix__Fill_173" d="M.918 1.835A.918.918 0 1 0 0 .918a.918.918 0 0 0 .918.918" class="prefix__cls-3" data-name="Fill 173" transform="translate(17.902 5.733)"/>
            <path id="prefix__Fill_175" d="M.918 1.835A.918.918 0 1 0 0 .918a.918.918 0 0 0 .918.918" class="prefix__cls-3" data-name="Fill 175" transform="translate(21.573 5.733)"/>
            <path id="prefix__Fill_177" d="M.918 0a.918.918 0 1 0 .918.918A.918.918 0 0 0 .918 0" class="prefix__cls-3" data-name="Fill 177" transform="translate(25.245 5.733)"/>
            <path id="prefix__Fill_179" d="M0 0a.917.917 0 0 1 .916.918.917.917 0 0 1-.916.917.918.918 0 0 0 .921-.917A.918.918 0 0 0 0 0" class="prefix__cls-3" data-name="Fill 179" transform="translate(29.832 5.733)"/>
            <path id="prefix__Fill_181" d="M1.83.918a.915.915 0 1 0-.916.918.917.917 0 0 0 .916-.918" class="prefix__cls-3" data-name="Fill 181" transform="translate(28.917 5.733)"/>
            <path id="prefix__Fill_183" d="M.918 1.835A.918.918 0 1 0 0 .918a.918.918 0 0 0 .918.918" class="prefix__cls-3" data-name="Fill 183" transform="translate(8.724 8.486)"/>
            <path id="prefix__Fill_185" d="M.918 1.835A.918.918 0 1 0 0 .918a.918.918 0 0 0 .918.918" class="prefix__cls-3" data-name="Fill 185" transform="translate(12.395 8.486)"/>
            <path id="prefix__Fill_187" d="M.918 0a.918.918 0 1 0 .918.918A.918.918 0 0 0 .918 0" class="prefix__cls-3" data-name="Fill 187" transform="translate(16.067 8.486)"/>
            <path id="prefix__Fill_189" d="M.918 0a.918.918 0 1 0 .918.918A.918.918 0 0 0 .918 0" class="prefix__cls-3" data-name="Fill 189" transform="translate(19.738 8.486)"/>
            <path id="prefix__Fill_191" d="M.918 0a.918.918 0 1 0 .918.918A.918.918 0 0 0 .918 0" class="prefix__cls-3" data-name="Fill 191" transform="translate(23.409 8.486)"/>
            <path id="prefix__Fill_193" d="M.918 0a.918.918 0 1 0 .918.918A.918.918 0 0 0 .918 0" class="prefix__cls-3" data-name="Fill 193" transform="translate(27.081 8.486)"/>
            <path id="prefix__Fill_195" d="M.918 1.836A.918.918 0 1 0 0 .918a.918.918 0 0 0 .918.918" class="prefix__cls-3" data-name="Fill 195" transform="translate(6.887 11.24)"/>
            <path id="prefix__Fill_197" d="M.918 1.836A.918.918 0 1 0 0 .918a.919.919 0 0 0 .918.918" class="prefix__cls-3" data-name="Fill 197" transform="translate(10.559 11.24)"/>
            <path id="prefix__Fill_199" d="M.918 0a.918.918 0 1 0 .918.918A.919.919 0 0 0 .918 0" class="prefix__cls-3" data-name="Fill 199" transform="translate(14.23 11.24)"/>
            <path id="prefix__Fill_201" d="M.918 0a.918.918 0 1 0 .918.918A.919.919 0 0 0 .918 0" class="prefix__cls-3" data-name="Fill 201" transform="translate(17.902 11.24)"/>
            <path id="prefix__Fill_203" d="M.918 0a.918.918 0 1 0 .918.918A.918.918 0 0 0 .918 0" class="prefix__cls-3" data-name="Fill 203" transform="translate(21.573 11.24)"/>
            <path id="prefix__Fill_205" d="M.918 1.836A.918.918 0 1 0 0 .918a.919.919 0 0 0 .918.918" class="prefix__cls-3" data-name="Fill 205" transform="translate(25.245 11.24)"/>
            <path id="prefix__Fill_207" d="M0 0a.918.918 0 0 1 .916.918.917.917 0 0 1-.916.917.919.919 0 0 0 .921-.917A.919.919 0 0 0 0 0" class="prefix__cls-3" data-name="Fill 207" transform="translate(29.832 11.24)"/>
            <path id="prefix__Fill_209" d="M1.83.918a.915.915 0 1 0-.916.918.918.918 0 0 0 .916-.918" class="prefix__cls-3" data-name="Fill 209" transform="translate(28.917 11.24)"/>
            <path id="prefix__Fill_211" d="M.918 1.835A.918.918 0 1 0 0 .917a.918.918 0 0 0 .918.918" class="prefix__cls-3" data-name="Fill 211" transform="translate(5.052 13.994)"/>
            <path id="prefix__Fill_213" d="M.918 0a.918.918 0 1 0 .918.918A.918.918 0 0 0 .918 0" class="prefix__cls-3" data-name="Fill 213" transform="translate(8.724 13.994)"/>
            <path id="prefix__Fill_215" d="M.918 0a.918.918 0 1 0 .918.918A.918.918 0 0 0 .918 0" class="prefix__cls-3" data-name="Fill 215" transform="translate(12.395 13.994)"/>
            <path id="prefix__Fill_217" d="M.918 1.835A.918.918 0 1 0 0 .917a.918.918 0 0 0 .918.918" class="prefix__cls-3" data-name="Fill 217" transform="translate(16.067 13.994)"/>
            <path id="prefix__Fill_219" d="M.918 1.835A.918.918 0 1 0 0 .917a.918.918 0 0 0 .918.918" class="prefix__cls-3" data-name="Fill 219" transform="translate(19.738 13.994)"/>
            <path id="prefix__Fill_221" d="M.918 1.835A.918.918 0 1 0 0 .917a.918.918 0 0 0 .918.918" class="prefix__cls-3" data-name="Fill 221" transform="translate(23.409 13.994)"/>
            <path id="prefix__Fill_223" d="M.918 0a.918.918 0 1 0 .918.918A.918.918 0 0 0 .918 0" class="prefix__cls-3" data-name="Fill 223" transform="translate(27.081 13.994)"/>
            <path id="prefix__Fill_225" d="M.918 1.835A.918.918 0 1 0 0 .917a.918.918 0 0 0 .918.918" class="prefix__cls-3" data-name="Fill 225" transform="translate(3.216 16.747)"/>
            <path id="prefix__Fill_227" d="M.918 0a.918.918 0 1 0 .918.918A.918.918 0 0 0 .918 0" class="prefix__cls-3" data-name="Fill 227" transform="translate(6.887 16.747)"/>
            <path id="prefix__Fill_229" d="M.918 0a.918.918 0 1 0 .918.918A.918.918 0 0 0 .918 0" class="prefix__cls-3" data-name="Fill 229" transform="translate(10.559 16.747)"/>
            <path id="prefix__Fill_231" d="M.918 1.835A.918.918 0 1 0 0 .917a.918.918 0 0 0 .918.918" class="prefix__cls-3" data-name="Fill 231" transform="translate(14.23 16.747)"/>
            <path id="prefix__Fill_233" d="M.918 0a.918.918 0 1 0 .918.918A.918.918 0 0 0 .918 0" class="prefix__cls-3" data-name="Fill 233" transform="translate(17.902 16.747)"/>
            <path id="prefix__Fill_235" d="M.918 0a.918.918 0 1 0 .918.918A.918.918 0 0 0 .918 0" class="prefix__cls-3" data-name="Fill 235" transform="translate(21.573 16.747)"/>
            <path id="prefix__Fill_237" d="M.918 0a.918.918 0 1 0 .918.918A.918.918 0 0 0 .918 0" class="prefix__cls-3" data-name="Fill 237" transform="translate(25.245 16.747)"/>
            <path id="prefix__Fill_239" d="M0 0a.918.918 0 0 1 .916.918.917.917 0 0 1-.916.917A.918.918 0 1 0 0 0" class="prefix__cls-3" data-name="Fill 239" transform="translate(29.832 16.747)"/>
            <path id="prefix__Fill_241" d="M1.83.918a.915.915 0 1 0-.916.918.918.918 0 0 0 .916-.918" class="prefix__cls-3" data-name="Fill 241" transform="translate(28.917 16.747)"/>
            <path id="prefix__Fill_243" d="M1.459.918A.918.918 0 0 0 .541 0C.527 0 .516.007.5.008Q.228.813 0 1.64a.9.9 0 0 0 .541.2.918.918 0 0 0 .918-.922" class="prefix__cls-3" data-name="Fill 243" transform="translate(1.757 19.5)"/>
            <path id="prefix__Fill_245" d="M.918 0a.918.918 0 1 0 .918.918A.918.918 0 0 0 .918 0" class="prefix__cls-3" data-name="Fill 245" transform="translate(5.052 19.501)"/>
            <path id="prefix__Fill_247" d="M.918 1.836A.918.918 0 1 0 0 .918a.918.918 0 0 0 .918.918" class="prefix__cls-3" data-name="Fill 247" transform="translate(8.724 19.501)"/>
            <path id="prefix__Fill_249" d="M.918 1.836A.918.918 0 1 0 0 .918a.918.918 0 0 0 .918.918" class="prefix__cls-3" data-name="Fill 249" transform="translate(12.395 19.501)"/>
            <path id="prefix__Fill_251" d="M.918 0a.918.918 0 1 0 .918.918A.918.918 0 0 0 .918 0" class="prefix__cls-3" data-name="Fill 251" transform="translate(16.067 19.501)"/>
            <path id="prefix__Fill_253" d="M.918 0a.918.918 0 1 0 .918.918A.918.918 0 0 0 .918 0" class="prefix__cls-3" data-name="Fill 253" transform="translate(19.738 19.501)"/>
            <path id="prefix__Fill_255" d="M.918 0a.918.918 0 1 0 .918.918A.918.918 0 0 0 .918 0" class="prefix__cls-3" data-name="Fill 255" transform="translate(23.409 19.501)"/>
            <path id="prefix__Fill_257" d="M.918 1.836A.918.918 0 1 0 0 .918a.918.918 0 0 0 .918.918" class="prefix__cls-3" data-name="Fill 257" transform="translate(27.081 19.501)"/>
            <path id="prefix__Fill_259" d="M.41 0C.354.271.307.546.259.82a.9.9 0 0 0 .2-.553A.906.906 0 0 0 .41 0" class="prefix__cls-3" data-name="Fill 259" transform="translate(.917 22.906)"/>
            <path id="prefix__Fill_261" d="M.918 1.836A.918.918 0 1 0 0 .918a.919.919 0 0 0 .918.918" class="prefix__cls-3" data-name="Fill 261" transform="translate(3.216 22.254)"/>
            <path id="prefix__Fill_263" d="M.918 1.836A.918.918 0 1 0 0 .918a.918.918 0 0 0 .918.918" class="prefix__cls-3" data-name="Fill 263" transform="translate(6.887 22.254)"/>
            <path id="prefix__Fill_265" d="M.918 0a.918.918 0 1 0 .918.918A.918.918 0 0 0 .918 0" class="prefix__cls-3" data-name="Fill 265" transform="translate(10.559 22.254)"/>
            <path id="prefix__Fill_267" d="M.918 0a.918.918 0 1 0 .918.918A.918.918 0 0 0 .918 0" class="prefix__cls-3" data-name="Fill 267" transform="translate(14.23 22.254)"/>
            <path id="prefix__Fill_269" d="M.918 1.836A.918.918 0 1 0 0 .918a.919.919 0 0 0 .918.918" class="prefix__cls-3" data-name="Fill 269" transform="translate(17.902 22.254)"/>
            <path id="prefix__Fill_271" d="M.918 1.836A.918.918 0 1 0 0 .918a.919.919 0 0 0 .918.918" class="prefix__cls-3" data-name="Fill 271" transform="translate(21.573 22.254)"/>
            <path id="prefix__Fill_273" d="M.918 1.836A.918.918 0 1 0 0 .918a.919.919 0 0 0 .918.918" class="prefix__cls-3" data-name="Fill 273" transform="translate(25.245 22.254)"/>
            <path id="prefix__Fill_275" d="M.916.918A.918.918 0 0 1 0 1.836.919.919 0 0 0 .921.918.919.919 0 0 0 0 0a.918.918 0 0 1 .916.918" class="prefix__cls-3" data-name="Fill 275" transform="translate(29.832 22.254)"/>
            <path id="prefix__Fill_277" d="M0 .918A.915.915 0 1 0 .916 0 .918.918 0 0 0 0 .918" class="prefix__cls-3" data-name="Fill 277" transform="translate(28.917 22.255)"/>
            <path id="prefix__Fill_279" d="M.918 1.836A.918.918 0 1 0 0 .918a.918.918 0 0 0 .918.918" class="prefix__cls-3" data-name="Fill 279" transform="translate(1.381 25.008)"/>
            <path id="prefix__Fill_281" d="M.918 1.836A.918.918 0 1 0 0 .918a.918.918 0 0 0 .918.918" class="prefix__cls-3" data-name="Fill 281" transform="translate(5.052 25.008)"/>
            <path id="prefix__Fill_283" d="M.918 0a.918.918 0 1 0 .918.918A.918.918 0 0 0 .918 0" class="prefix__cls-3" data-name="Fill 283" transform="translate(8.724 25.008)"/>
            <path id="prefix__Fill_285" d="M.918 0a.918.918 0 1 0 .918.918A.918.918 0 0 0 .918 0" class="prefix__cls-3" data-name="Fill 285" transform="translate(12.395 25.008)"/>
            <path id="prefix__Fill_287" d="M.918 1.836A.918.918 0 1 0 0 .918a.918.918 0 0 0 .918.918" class="prefix__cls-3" data-name="Fill 287" transform="translate(16.067 25.008)"/>
            <path id="prefix__Fill_289" d="M.918 1.836A.918.918 0 1 0 0 .918a.918.918 0 0 0 .918.918" class="prefix__cls-3" data-name="Fill 289" transform="translate(19.738 25.008)"/>
            <path id="prefix__Fill_291" d="M.918 0a.918.918 0 1 0 .918.918A.918.918 0 0 0 .918 0" class="prefix__cls-3" data-name="Fill 291" transform="translate(23.409 25.008)"/>
            <path id="prefix__Fill_293" d="M.918 0a.918.918 0 1 0 .918.918A.918.918 0 0 0 .918 0" class="prefix__cls-3" data-name="Fill 293" transform="translate(27.081 25.008)"/>
            <g id="prefix__Group_297" data-name="Group 297" transform="translate(0 28.181)">
                <path id="prefix__Clip_296-2" d="M.012 0h.7v.876h-.7z" class="prefix__cls-1" data-name="Clip 296" transform="translate(.711 .484)"/>
                <g id="prefix__Group_297-2" data-name="Group 297">
                    <path id="prefix__Fill_295" d="M.682.014V0a.908.908 0 0 1-.641.848v.028A.906.906 0 0 0 .682.014" class="prefix__cls-3" data-name="Fill 295" transform="translate(.699 .484)"/>
                </g>
            </g>
            <path id="prefix__Fill_298" d="M.918.932a.918.918 0 0 0 .919-.918V0a.917.917 0 0 1-.919.9A.916.916 0 0 1 0 0v.014a.918.918 0 0 0 .918.918" class="prefix__cls-3" data-name="Fill 298" transform="translate(3.216 28.665)"/>
            <path id="prefix__Fill_300" d="M1.833 0a.917.917 0 0 1-.915.9A.917.917 0 0 1 0 0v.014a.918.918 0 0 0 .918.918.917.917 0 0 0 .918-.918V0" class="prefix__cls-3" data-name="Fill 300" transform="translate(6.888 28.665)"/>
            <path id="prefix__Fill_302" d="M.918.9A.916.916 0 0 1 0 0a.106.106 0 0 0 0 .014.918.918 0 0 0 1.837 0V0a.917.917 0 0 1-.919.9" class="prefix__cls-3" data-name="Fill 302" transform="translate(10.559 28.665)"/>
            <path id="prefix__Fill_304" d="M.918.9A.917.917 0 0 1 0 0v.014a.918.918 0 0 0 1.837 0V0a.917.917 0 0 1-.919.9" class="prefix__cls-3" data-name="Fill 304" transform="translate(14.23 28.665)"/>
            <path id="prefix__Fill_306" d="M.918.932a.918.918 0 0 0 .919-.918.13.13 0 0 0 0-.014.916.916 0 0 1-.919.9A.916.916 0 0 1 0 0a.13.13 0 0 0 0 .014.918.918 0 0 0 .918.918" class="prefix__cls-3" data-name="Fill 306" transform="translate(17.902 28.665)"/>
            <path id="prefix__Fill_308" d="M1.833 0a.917.917 0 0 1-.915.9A.917.917 0 0 1 0 0v.014a.917.917 0 0 0 .918.918.918.918 0 0 0 .918-.918V0" class="prefix__cls-3" data-name="Fill 308" transform="translate(21.574 28.665)"/>
            <path id="prefix__Fill_310" d="M.918.9A.917.917 0 0 1 0 0v.014a.918.918 0 0 0 1.837 0V0a.916.916 0 0 1-.919.9" class="prefix__cls-3" data-name="Fill 310" transform="translate(25.245 28.665)"/>
            <path id="prefix__Fill_312" d="M.916.014A.918.918 0 0 1 0 .932.919.919 0 0 0 .921.014V0a.077.077 0 0 0 0 .014z" class="prefix__cls-3" data-name="Fill 312" transform="translate(29.832 28.665)"/>
            <path id="prefix__Fill_314" d="M1.83 0a.915.915 0 0 1-.912.889H.912A.914.914 0 0 1 0 0a.917.917 0 0 0 .915.918A.918.918 0 0 0 1.83 0" class="prefix__cls-3" data-name="Fill 314" transform="translate(28.917 28.678)"/>
            <path id="prefix__Fill_316" d="M.006.918A.918.918 0 0 1 .921 0 .919.919 0 0 0 0 .918V.919z" class="prefix__cls-3" data-name="Fill 316" transform="translate(28.911 27.732)"/>
            <path id="prefix__Fill_318" d="M.364.361V.347v.014" class="prefix__cls-3" data-name="Fill 318" transform="translate(28.556 28.304)"/>
            <path id="prefix__Fill_320" d="M0 0v.014A.916.916 0 0 0 .913.9.916.916 0 0 1 0 0" class="prefix__cls-3" data-name="Fill 320" transform="translate(28.917 28.665)"/>
            <path id="prefix__Fill_322" d="M.918.03a.917.917 0 0 1 .916.9V.915A.918.918 0 0 0 0 .918v.015A.916.916 0 0 1 .918.03" class="prefix__cls-3" data-name="Fill 322" transform="translate(32.583 27.732)"/>
            <path id="prefix__Fill_324" d="M.915 1.806A.917.917 0 0 0 1.83.9.915.915 0 0 0 0 .9a.917.917 0 0 0 .915.9" class="prefix__cls-3" data-name="Fill 324" transform="translate(32.586 27.762)"/>
            <path id="prefix__Fill_326" d="M0 .933a.915.915 0 0 1 1.83 0V.918a.918.918 0 0 0-1.83 0 .093.093 0 0 0 0 .015" class="prefix__cls-3" data-name="Fill 326" transform="translate(36.254 27.732)"/>
            <path id="prefix__Fill_328" d="M.915 0A.916.916 0 0 0 0 .9a.915.915 0 0 0 1.83 0A.917.917 0 0 0 .915 0" class="prefix__cls-3" data-name="Fill 328" transform="translate(36.257 27.762)"/>
            <path id="prefix__Fill_330" d="M.918 0A.918.918 0 0 0 0 .918v.015a.915.915 0 0 1 1.83 0V.919A.918.918 0 0 0 .918 0" class="prefix__cls-3" data-name="Fill 330" transform="translate(39.926 27.732)"/>
            <path id="prefix__Fill_332" d="M.915 0A.916.916 0 0 0 0 .9a.915.915 0 0 0 1.83 0A.917.917 0 0 0 .915 0" class="prefix__cls-3" data-name="Fill 332" transform="translate(39.929 27.762)"/>
            <path id="prefix__Fill_334" d="M.918.03a.917.917 0 0 1 .916.9V.915A.918.918 0 0 0 0 .918a.093.093 0 0 0 0 .015A.916.916 0 0 1 .918.03" class="prefix__cls-3" data-name="Fill 334" transform="translate(43.597 27.732)"/>
            <path id="prefix__Fill_336" d="M.915 1.806A.917.917 0 0 0 1.83.9.915.915 0 0 0 0 .9a.916.916 0 0 0 .915.9" class="prefix__cls-3" data-name="Fill 336" transform="translate(43.6 27.762)"/>
            <path id="prefix__Fill_338" d="M.918.03a.917.917 0 0 1 .916.9V.915A.918.918 0 0 0 0 .918v.015A.916.916 0 0 1 .918.03" class="prefix__cls-3" data-name="Fill 338" transform="translate(47.268 27.732)"/>
            <path id="prefix__Fill_340" d="M.915 1.806A.917.917 0 0 0 1.83.9.915.915 0 0 0 0 .9a.916.916 0 0 0 .915.9" class="prefix__cls-3" data-name="Fill 340" transform="translate(47.272 27.762)"/>
            <path id="prefix__Fill_342" d="M.918.03a.917.917 0 0 1 .916.9V.915A.918.918 0 0 0 0 .918v.015A.917.917 0 0 1 .918.03" class="prefix__cls-3" data-name="Fill 342" transform="translate(50.939 27.732)"/>
            <path id="prefix__Fill_344" d="M.916 1.806A.917.917 0 0 0 1.831.9.916.916 0 0 0 0 .9a.917.917 0 0 0 .916.9" class="prefix__cls-3" data-name="Fill 344" transform="translate(50.942 27.762)"/>
            <path id="prefix__Fill_346" d="M.918 0A.919.919 0 0 0 0 .918a.106.106 0 0 0 0 .015.915.915 0 0 1 1.83 0V.919A.919.919 0 0 0 .918 0" class="prefix__cls-3" data-name="Fill 346" transform="translate(54.611 27.732)"/>
            <path id="prefix__Fill_348" d="M.915 0A.916.916 0 0 0 0 .9a.915.915 0 0 0 1.83 0A.917.917 0 0 0 .915 0" class="prefix__cls-3" data-name="Fill 348" transform="translate(54.615 27.762)"/>
            <path id="prefix__Fill_350" d="M.266.639A.892.892 0 0 1 .46.112V.083a.894.894 0 0 0-.2.54v.015" class="prefix__cls-3" data-name="Fill 350" transform="translate(58.02 28.026)"/>
            <path id="prefix__Fill_352" d="M.456 1.064C.458.931.467.8.467.665.467.442.455.222.449 0a.9.9 0 0 0-.193.527.9.9 0 0 0 .2.537" class="prefix__cls-3" data-name="Fill 352" transform="translate(58.03 28.138)"/>
            <path id="prefix__Fill_354" d="M.918 1.835A.918.918 0 1 0 0 .917a.918.918 0 0 0 .918.918" class="prefix__cls-3" data-name="Fill 354" transform="translate(30.747 30.486)"/>
            <path id="prefix__Fill_356" d="M.918 1.835A.918.918 0 1 0 0 .917a.918.918 0 0 0 .918.918" class="prefix__cls-3" data-name="Fill 356" transform="translate(34.418 30.486)"/>
            <path id="prefix__Fill_358" d="M.918 0a.918.918 0 1 0 .918.918A.918.918 0 0 0 .918 0" class="prefix__cls-3" data-name="Fill 358" transform="translate(38.09 30.486)"/>
            <path id="prefix__Fill_360" d="M.918 0a.918.918 0 1 0 .918.918A.918.918 0 0 0 .918 0" class="prefix__cls-3" data-name="Fill 360" transform="translate(41.761 30.486)"/>
            <path id="prefix__Fill_362" d="M.918 1.835A.918.918 0 1 0 0 .917a.918.918 0 0 0 .918.918" class="prefix__cls-3" data-name="Fill 362" transform="translate(45.433 30.486)"/>
            <path id="prefix__Fill_364" d="M.918 1.835A.918.918 0 1 0 0 .917a.918.918 0 0 0 .918.918" class="prefix__cls-3" data-name="Fill 364" transform="translate(49.104 30.486)"/>
            <path id="prefix__Fill_366" d="M.918 1.835A.918.918 0 1 0 0 .917a.918.918 0 0 0 .918.918" class="prefix__cls-3" data-name="Fill 366" transform="translate(52.776 30.486)"/>
            <path id="prefix__Fill_368" d="M.918 0a.918.918 0 1 0 .918.918A.918.918 0 0 0 .918 0" class="prefix__cls-3" data-name="Fill 368" transform="translate(56.447 30.486)"/>
            <path id="prefix__Fill_370" d="M.006.918A.919.919 0 0 1 .921 0a.918.918 0 1 0 0 1.836.917.917 0 0 1-.915-.918" class="prefix__cls-3" data-name="Fill 370" transform="translate(28.911 33.239)"/>
            <path id="prefix__Fill_372" d="M.918 0a.918.918 0 1 0 .918.918A.918.918 0 0 0 .918 0" class="prefix__cls-3" data-name="Fill 372" transform="translate(32.583 33.24)"/>
            <path id="prefix__Fill_374" d="M.918 1.835A.918.918 0 1 0 0 .917a.918.918 0 0 0 .918.918" class="prefix__cls-3" data-name="Fill 374" transform="translate(36.254 33.24)"/>
            <path id="prefix__Fill_376" d="M.918 0a.918.918 0 1 0 .918.918A.918.918 0 0 0 .918 0" class="prefix__cls-3" data-name="Fill 376" transform="translate(39.926 33.24)"/>
            <path id="prefix__Fill_378" d="M.918 1.835A.918.918 0 1 0 0 .917a.918.918 0 0 0 .918.918" class="prefix__cls-3" data-name="Fill 378" transform="translate(43.597 33.24)"/>
            <path id="prefix__Fill_380" d="M.918 0a.918.918 0 1 0 .918.918A.918.918 0 0 0 .918 0" class="prefix__cls-3" data-name="Fill 380" transform="translate(47.268 33.24)"/>
            <path id="prefix__Fill_382" d="M.918 0a.918.918 0 1 0 .918.918A.918.918 0 0 0 .918 0" class="prefix__cls-3" data-name="Fill 382" transform="translate(50.939 33.24)"/>
            <path id="prefix__Fill_384" d="M.918 0a.918.918 0 1 0 .918.918A.918.918 0 0 0 .918 0" class="prefix__cls-3" data-name="Fill 384" transform="translate(54.611 33.24)"/>
            <path id="prefix__Fill_386" d="M.918 0a.918.918 0 1 0 .918.918A.918.918 0 0 0 .918 0" class="prefix__cls-3" data-name="Fill 386" transform="translate(30.747 35.993)"/>
            <path id="prefix__Fill_388" d="M.918 1.836A.918.918 0 1 0 0 .918a.918.918 0 0 0 .918.918" class="prefix__cls-3" data-name="Fill 388" transform="translate(34.418 35.993)"/>
            <path id="prefix__Fill_390" d="M.918 1.836A.918.918 0 1 0 0 .918a.919.919 0 0 0 .918.918" class="prefix__cls-3" data-name="Fill 390" transform="translate(38.09 35.993)"/>
            <path id="prefix__Fill_392" d="M.918 1.836A.918.918 0 1 0 0 .918a.918.918 0 0 0 .918.918" class="prefix__cls-3" data-name="Fill 392" transform="translate(41.761 35.993)"/>
            <path id="prefix__Fill_394" d="M.918 0a.918.918 0 1 0 .918.918A.918.918 0 0 0 .918 0" class="prefix__cls-3" data-name="Fill 394" transform="translate(45.433 35.993)"/>
            <path id="prefix__Fill_396" d="M.918 1.836A.918.918 0 1 0 0 .918a.918.918 0 0 0 .918.918" class="prefix__cls-3" data-name="Fill 396" transform="translate(49.104 35.993)"/>
            <path id="prefix__Fill_398" d="M.918 0a.918.918 0 1 0 .918.918A.918.918 0 0 0 .918 0" class="prefix__cls-3" data-name="Fill 398" transform="translate(52.776 35.993)"/>
            <path id="prefix__Fill_400" d="M0 .918a.907.907 0 0 0 .623.858C.809 1.205.984.63 1.135.044A.909.909 0 0 0 .918 0 .918.918 0 0 0 0 .918" class="prefix__cls-3" data-name="Fill 400" transform="translate(56.447 35.993)"/>
            <path id="prefix__Fill_402" d="M.918 1.836A.917.917 0 0 1 .921 0a.918.918 0 1 0 0 1.836" class="prefix__cls-3" data-name="Fill 402" transform="translate(28.911 38.747)"/>
            <path id="prefix__Fill_404" d="M.918 1.836A.918.918 0 1 0 0 .918a.918.918 0 0 0 .918.918" class="prefix__cls-3" data-name="Fill 404" transform="translate(32.583 38.747)"/>
            <path id="prefix__Fill_406" d="M.918 1.836A.918.918 0 1 0 0 .918a.918.918 0 0 0 .918.918" class="prefix__cls-3" data-name="Fill 406" transform="translate(36.254 38.747)"/>
            <path id="prefix__Fill_408" d="M.918 1.836A.918.918 0 1 0 0 .918a.918.918 0 0 0 .918.918" class="prefix__cls-3" data-name="Fill 408" transform="translate(39.926 38.747)"/>
            <path id="prefix__Fill_410" d="M.918 0a.918.918 0 1 0 .918.918A.919.919 0 0 0 .918 0" class="prefix__cls-3" data-name="Fill 410" transform="translate(43.597 38.747)"/>
            <path id="prefix__Fill_412" d="M.918 1.836A.918.918 0 1 0 0 .918a.919.919 0 0 0 .918.918" class="prefix__cls-3" data-name="Fill 412" transform="translate(47.268 38.747)"/>
            <path id="prefix__Fill_414" d="M.918 1.836A.918.918 0 1 0 0 .918a.918.918 0 0 0 .918.918" class="prefix__cls-3" data-name="Fill 414" transform="translate(50.939 38.747)"/>
            <path id="prefix__Fill_416" d="M.918 0a.918.918 0 1 0 0 1.836.9.9 0 0 0 .545-.2c.121-.277.237-.556.349-.837A.906.906 0 0 0 .918 0" class="prefix__cls-3" data-name="Fill 416" transform="translate(54.611 38.747)"/>
            <path id="prefix__Fill_418" d="M.918 1.836A.918.918 0 1 0 0 .918a.918.918 0 0 0 .918.918" class="prefix__cls-3" data-name="Fill 418" transform="translate(30.747 41.5)"/>
            <path id="prefix__Fill_420" d="M.918 0a.918.918 0 1 0 .918.918A.918.918 0 0 0 .918 0" class="prefix__cls-3" data-name="Fill 420" transform="translate(34.418 41.5)"/>
            <path id="prefix__Fill_422" d="M.918 1.836A.918.918 0 1 0 0 .918a.918.918 0 0 0 .918.918" class="prefix__cls-3" data-name="Fill 422" transform="translate(38.09 41.5)"/>
            <path id="prefix__Fill_424" d="M.918 0a.918.918 0 1 0 .918.918A.918.918 0 0 0 .918 0" class="prefix__cls-3" data-name="Fill 424" transform="translate(41.761 41.5)"/>
            <path id="prefix__Fill_426" d="M.918 1.836A.918.918 0 1 0 0 .918a.918.918 0 0 0 .918.918" class="prefix__cls-3" data-name="Fill 426" transform="translate(45.433 41.5)"/>
            <path id="prefix__Fill_428" d="M.918 0a.918.918 0 1 0 .918.918A.918.918 0 0 0 .918 0" class="prefix__cls-3" data-name="Fill 428" transform="translate(49.104 41.5)"/>
            <path id="prefix__Fill_430" d="M.918 0a.918.918 0 1 0 .918.918A.918.918 0 0 0 .918 0" class="prefix__cls-3" data-name="Fill 430" transform="translate(52.776 41.5)"/>
            <path id="prefix__Fill_432" d="M.918 1.835A.917.917 0 0 1 .921 0a.918.918 0 1 0 0 1.835" class="prefix__cls-3" data-name="Fill 432" transform="translate(28.911 44.254)"/>
            <path id="prefix__Fill_434" d="M.918 0a.918.918 0 1 0 .918.918A.918.918 0 0 0 .918 0" class="prefix__cls-3" data-name="Fill 434" transform="translate(32.583 44.254)"/>
            <path id="prefix__Fill_436" d="M.918 1.835A.918.918 0 1 0 0 .918a.918.918 0 0 0 .918.918" class="prefix__cls-3" data-name="Fill 436" transform="translate(36.254 44.254)"/>
            <path id="prefix__Fill_438" d="M.918 1.835A.918.918 0 1 0 0 .918a.918.918 0 0 0 .918.918" class="prefix__cls-3" data-name="Fill 438" transform="translate(39.926 44.254)"/>
            <path id="prefix__Fill_440" d="M.918 1.835A.918.918 0 1 0 0 .918a.918.918 0 0 0 .918.918" class="prefix__cls-3" data-name="Fill 440" transform="translate(43.597 44.254)"/>
            <path id="prefix__Fill_442" d="M.918 0a.918.918 0 1 0 .918.918A.918.918 0 0 0 .918 0" class="prefix__cls-3" data-name="Fill 442" transform="translate(47.268 44.254)"/>
            <path id="prefix__Fill_444" d="M.918 0a.918.918 0 1 0 .918.918A.918.918 0 0 0 .918 0" class="prefix__cls-3" data-name="Fill 444" transform="translate(50.939 44.254)"/>
            <path id="prefix__Fill_446" d="M.918 1.835A.918.918 0 1 0 0 .918a.918.918 0 0 0 .918.918" class="prefix__cls-3" data-name="Fill 446" transform="translate(30.747 47.008)"/>
            <path id="prefix__Fill_448" d="M.918 1.835A.918.918 0 1 0 0 .918a.918.918 0 0 0 .918.918" class="prefix__cls-3" data-name="Fill 448" transform="translate(34.418 47.008)"/>
            <path id="prefix__Fill_450" d="M.918 1.835A.918.918 0 1 0 0 .918a.918.918 0 0 0 .918.918" class="prefix__cls-3" data-name="Fill 450" transform="translate(38.09 47.008)"/>
            <path id="prefix__Fill_452" d="M.918 1.835A.918.918 0 1 0 0 .918a.918.918 0 0 0 .918.918" class="prefix__cls-3" data-name="Fill 452" transform="translate(41.761 47.008)"/>
            <path id="prefix__Fill_454" d="M.918 0a.918.918 0 1 0 .918.918A.918.918 0 0 0 .918 0" class="prefix__cls-3" data-name="Fill 454" transform="translate(45.433 47.007)"/>
            <path id="prefix__Fill_456" d="M.918 0a.918.918 0 1 0 .617 1.588l.059-.062a.905.905 0 0 0 .242-.608A.918.918 0 0 0 .918 0" class="prefix__cls-3" data-name="Fill 456" transform="translate(49.104 47.007)"/>
            <path id="prefix__Fill_458" d="M.918 1.836A.917.917 0 0 1 .921 0a.918.918 0 1 0 0 1.836" class="prefix__cls-3" data-name="Fill 458" transform="translate(28.911 49.761)"/>
            <path id="prefix__Fill_460" d="M.918 1.836A.918.918 0 1 0 0 .918a.918.918 0 0 0 .918.918" class="prefix__cls-3" data-name="Fill 460" transform="translate(32.583 49.761)"/>
            <path id="prefix__Fill_462" d="M.918 0a.918.918 0 1 0 .918.918A.919.919 0 0 0 .918 0" class="prefix__cls-3" data-name="Fill 462" transform="translate(36.254 49.761)"/>
            <path id="prefix__Fill_464" d="M.918 0a.918.918 0 1 0 .918.918A.918.918 0 0 0 .918 0" class="prefix__cls-3" data-name="Fill 464" transform="translate(39.926 49.761)"/>
            <path id="prefix__Fill_466" d="M.918 0a.918.918 0 1 0 .918.918A.919.919 0 0 0 .918 0" class="prefix__cls-3" data-name="Fill 466" transform="translate(43.597 49.761)"/>
            <path id="prefix__Fill_468" d="M.918 0A.919.919 0 0 0 0 .918a.9.9 0 0 0 .35.7c.463-.37.917-.749 1.357-1.146A.907.907 0 0 0 .918 0" class="prefix__cls-3" data-name="Fill 468" transform="translate(47.268 49.761)"/>
            <path id="prefix__Fill_470" d="M.918 0a.918.918 0 1 0 .918.918A.918.918 0 0 0 .918 0" class="prefix__cls-3" data-name="Fill 470" transform="translate(30.747 52.514)"/>
            <path id="prefix__Fill_472" d="M.918 0a.918.918 0 1 0 .918.918A.918.918 0 0 0 .918 0" class="prefix__cls-3" data-name="Fill 472" transform="translate(34.418 52.514)"/>
            <path id="prefix__Fill_474" d="M.918 0a.918.918 0 1 0 .918.918A.918.918 0 0 0 .918 0" class="prefix__cls-3" data-name="Fill 474" transform="translate(38.09 52.514)"/>
            <path id="prefix__Fill_476" d="M.918 0a.918.918 0 1 0 .918.918A.918.918 0 0 0 .918 0" class="prefix__cls-3" data-name="Fill 476" transform="translate(41.761 52.514)"/>
            <path id="prefix__Fill_478" d="M.2.47C.31.4.413.326.518.253A.931.931 0 0 0 .2.47" class="prefix__cls-3" data-name="Fill 478" transform="translate(45.484 52.332)"/>
            <path id="prefix__Fill_480" d="M.006.918A.918.918 0 0 1 .921 0a.918.918 0 1 0 0 1.836.918.918 0 0 1-.915-.918" class="prefix__cls-3" data-name="Fill 480" transform="translate(28.911 55.268)"/>
            <path id="prefix__Fill_482" d="M.918 0a.918.918 0 1 0 .918.918A.918.918 0 0 0 .918 0" class="prefix__cls-3" data-name="Fill 482" transform="translate(32.583 55.269)"/>
            <path id="prefix__Fill_484" d="M.918 0a.914.914 0 0 0-.631 1.579q.758-.186 1.5-.41a.885.885 0 0 0 .05-.251A.918.918 0 0 0 .918 0" class="prefix__cls-3" data-name="Fill 484" transform="translate(36.254 55.269)"/>
            <path id="prefix__Fill_486" d="M0 .593C.343.459.683.323 1.019.178A.885.885 0 0 0 .78.13.9.9 0 0 0 0 .593" class="prefix__cls-3" data-name="Fill 486" transform="translate(40.064 55.139)"/>
            <g id="prefix__Group_490" data-name="Group 490" transform="translate(0 27.458)">
                <path id="prefix__Clip_489-2" d="M.01 0h.7v.875h-.7z" class="prefix__cls-1" data-name="Clip 489" transform="translate(.713 .332)"/>
                <g id="prefix__Group_490-2" data-name="Group 490">
                    <path id="prefix__Fill_488" d="M.675.875V.86A.908.908 0 0 0 .045 0v.029a.907.907 0 0 1 .63.846" class="prefix__cls-3" data-name="Fill 488" transform="translate(.703 .332)"/>
                </g>
            </g>
            <g id="prefix__Group_493" data-name="Group 493" transform="translate(0 27.458)">
                <path id="prefix__Clip_492-2" d="M.017 0h.689v1.694H.017z" class="prefix__cls-1" data-name="Clip 492" transform="translate(.706 .361)"/>
                <g id="prefix__Group_493-2" data-name="Group 493">
                    <path id="prefix__Fill_491" d="M.689.846A.907.907 0 0 0 .058 0C.047.327.034.654.034.984c0 .238.012.473.017.71A.908.908 0 0 0 .689.846" class="prefix__cls-3" data-name="Fill 491" transform="translate(.689 .361)"/>
                </g>
            </g>
            <path id="prefix__Fill_494" d="M.918.03a.917.917 0 0 1 .916.9V.915A.918.918 0 0 0 0 .918v.015A.916.916 0 0 1 .918.03" class="prefix__cls-3" data-name="Fill 494" transform="translate(3.216 27.732)"/>
            <path id="prefix__Fill_496" d="M.915 1.806A.917.917 0 0 0 1.83.9.915.915 0 0 0 0 .9a.916.916 0 0 0 .915.9" class="prefix__cls-3" data-name="Fill 496" transform="translate(3.22 27.762)"/>
            <path id="prefix__Fill_498" d="M.918.03a.917.917 0 0 1 .916.9V.915A.918.918 0 0 0 0 .918v.015A.917.917 0 0 1 .918.03" class="prefix__cls-3" data-name="Fill 498" transform="translate(6.887 27.732)"/>
            <path id="prefix__Fill_500" d="M.916 1.806A.917.917 0 0 0 1.831.9.916.916 0 0 0 0 .9a.917.917 0 0 0 .916.9" class="prefix__cls-3" data-name="Fill 500" transform="translate(6.89 27.762)"/>
            <path id="prefix__Fill_502" d="M0 .933a.915.915 0 0 1 1.83 0V.918a.918.918 0 0 0-1.83 0 .093.093 0 0 0 0 .015" class="prefix__cls-3" data-name="Fill 502" transform="translate(10.559 27.732)"/>
            <path id="prefix__Fill_504" d="M.915 0A.916.916 0 0 0 0 .9a.915.915 0 0 0 1.83 0A.917.917 0 0 0 .915 0" class="prefix__cls-3" data-name="Fill 504" transform="translate(10.563 27.762)"/>
            <path id="prefix__Fill_506" d="M0 .933a.915.915 0 0 1 1.83 0V.918a.918.918 0 0 0-1.83 0v.015" class="prefix__cls-3" data-name="Fill 506" transform="translate(14.231 27.732)"/>
            <path id="prefix__Fill_508" d="M.916 0A.917.917 0 0 0 0 .9a.916.916 0 0 0 1.831 0A.917.917 0 0 0 .916 0" class="prefix__cls-3" data-name="Fill 508" transform="translate(14.233 27.762)"/>
            <path id="prefix__Fill_510" d="M.918.03a.916.916 0 0 1 .915.9.093.093 0 0 0 0-.015A.918.918 0 0 0 0 .918a.093.093 0 0 0 0 .015A.916.916 0 0 1 .918.03" class="prefix__cls-3" data-name="Fill 510" transform="translate(17.902 27.732)"/>
            <path id="prefix__Fill_512" d="M.915 1.806A.916.916 0 0 0 1.83.9.915.915 0 0 0 0 .9a.916.916 0 0 0 .915.9" class="prefix__cls-3" data-name="Fill 512" transform="translate(17.905 27.762)"/>
            <path id="prefix__Fill_514" d="M.918.03a.917.917 0 0 1 .916.9V.915A.918.918 0 0 0 0 .918v.015A.917.917 0 0 1 .918.03" class="prefix__cls-3" data-name="Fill 514" transform="translate(21.573 27.732)"/>
            <path id="prefix__Fill_516" d="M.916 1.806A.917.917 0 0 0 1.831.9.916.916 0 0 0 0 .9a.917.917 0 0 0 .916.9" class="prefix__cls-3" data-name="Fill 516" transform="translate(21.576 27.762)"/>
            <path id="prefix__Fill_518" d="M.918 0A.919.919 0 0 0 0 .918v.015a.915.915 0 0 1 1.83 0V.919A.919.919 0 0 0 .918 0" class="prefix__cls-3" data-name="Fill 518" transform="translate(25.245 27.732)"/>
            <path id="prefix__Fill_520" d="M.916 0A.917.917 0 0 0 0 .9a.915.915 0 0 0 1.83 0A.916.916 0 0 0 .916 0" class="prefix__cls-3" data-name="Fill 520" transform="translate(25.248 27.762)"/>
            <path id="prefix__Fill_522" d="M0 0a.918.918 0 0 1 .916.918.093.093 0 0 0 0 .014V.918A.919.919 0 0 0 0 0" class="prefix__cls-3" data-name="Fill 522" transform="translate(29.832 27.732)"/>
            <path id="prefix__Fill_524" d="M.358.361v.014a.077.077 0 0 1 0-.014.093.093 0 0 1 0-.014v.014" class="prefix__cls-3" data-name="Fill 524" transform="translate(30.386 28.304)"/>
            <path id="prefix__Fill_526" d="M0 .9A.916.916 0 0 0 .916.014V0A.917.917 0 0 1 0 .9" class="prefix__cls-3" data-name="Fill 526" transform="translate(29.832 28.665)"/>
            <path id="prefix__Fill_528" d="M0 .918A.914.914 0 0 1 .913.03h.005a.914.914 0 0 1 .912.889A.915.915 0 1 0 0 .918" class="prefix__cls-3" data-name="Fill 528" transform="translate(28.917 27.733)"/>
            <path id="prefix__Fill_530" d="M.916 0A.916.916 0 0 0 0 .889V.9A.918.918 0 0 1 .916 0" class="prefix__cls-3" data-name="Fill 530" transform="translate(28.916 27.762)"/>
            <path id="prefix__Fill_532" d="M0 0a.918.918 0 0 1 .913.9V.886A.916.916 0 0 0 0 0" class="prefix__cls-3" data-name="Fill 532" transform="translate(29.832 27.762)"/>
            <path id="prefix__Fill_534" d="M.913 0A.918.918 0 0 0 0 .9a.913.913 0 0 0 1.825 0A.918.918 0 0 0 .913 0" class="prefix__cls-3" data-name="Fill 534" transform="translate(28.919 27.762)"/>
            <path id="prefix__Fill_536" d="M.918 0a.918.918 0 1 0 .918.918A.918.918 0 0 0 .918 0" class="prefix__cls-3" data-name="Fill 536" transform="translate(1.381 30.486)"/>
            <path id="prefix__Fill_538" d="M.918 1.835A.918.918 0 1 0 0 .917a.918.918 0 0 0 .918.918" class="prefix__cls-3" data-name="Fill 538" transform="translate(5.052 30.486)"/>
            <path id="prefix__Fill_540" d="M.918 1.835A.918.918 0 1 0 0 .917a.918.918 0 0 0 .918.918" class="prefix__cls-3" data-name="Fill 540" transform="translate(8.724 30.486)"/>
            <path id="prefix__Fill_542" d="M.918 0a.918.918 0 1 0 .918.918A.918.918 0 0 0 .918 0" class="prefix__cls-3" data-name="Fill 542" transform="translate(12.395 30.486)"/>
            <path id="prefix__Fill_544" d="M.918 0a.918.918 0 1 0 .918.918A.918.918 0 0 0 .918 0" class="prefix__cls-3" data-name="Fill 544" transform="translate(16.067 30.486)"/>
            <path id="prefix__Fill_546" d="M.918 1.835A.918.918 0 1 0 0 .917a.918.918 0 0 0 .918.918" class="prefix__cls-3" data-name="Fill 546" transform="translate(19.738 30.486)"/>
            <path id="prefix__Fill_548" d="M.918 1.835A.918.918 0 1 0 0 .917a.918.918 0 0 0 .918.918" class="prefix__cls-3" data-name="Fill 548" transform="translate(23.409 30.486)"/>
            <path id="prefix__Fill_550" d="M.918 1.835A.918.918 0 1 0 0 .917a.918.918 0 0 0 .918.918" class="prefix__cls-3" data-name="Fill 550" transform="translate(27.081 30.486)"/>
            <path id="prefix__Fill_552" d="M.226 0c.056.345.115.689.183 1.03A.9.9 0 0 0 .5.65.913.913 0 0 0 .226 0" class="prefix__cls-3" data-name="Fill 552" transform="translate(.884 33.507)"/>
            <path id="prefix__Fill_554" d="M.918 1.835A.918.918 0 1 0 0 .917a.918.918 0 0 0 .918.918" class="prefix__cls-3" data-name="Fill 554" transform="translate(3.216 33.24)"/>
            <path id="prefix__Fill_556" d="M.918 0a.918.918 0 1 0 .918.918A.918.918 0 0 0 .918 0" class="prefix__cls-3" data-name="Fill 556" transform="translate(6.887 33.24)"/>
            <path id="prefix__Fill_558" d="M.918 1.835A.918.918 0 1 0 0 .917a.918.918 0 0 0 .918.918" class="prefix__cls-3" data-name="Fill 558" transform="translate(10.559 33.24)"/>
            <path id="prefix__Fill_560" d="M.918 0a.918.918 0 1 0 .918.918A.918.918 0 0 0 .918 0" class="prefix__cls-3" data-name="Fill 560" transform="translate(14.23 33.24)"/>
            <path id="prefix__Fill_562" d="M.918 0a.918.918 0 1 0 .918.918A.918.918 0 0 0 .918 0" class="prefix__cls-3" data-name="Fill 562" transform="translate(17.902 33.24)"/>
            <path id="prefix__Fill_564" d="M.918 1.835A.918.918 0 1 0 0 .917a.918.918 0 0 0 .918.918" class="prefix__cls-3" data-name="Fill 564" transform="translate(21.573 33.24)"/>
            <path id="prefix__Fill_566" d="M.918 1.835A.918.918 0 1 0 0 .917a.918.918 0 0 0 .918.918" class="prefix__cls-3" data-name="Fill 566" transform="translate(25.245 33.24)"/>
            <path id="prefix__Fill_568" d="M0 0a.919.919 0 0 1 .916.918.917.917 0 0 1-.916.917A.918.918 0 1 0 0 0" class="prefix__cls-3" data-name="Fill 568" transform="translate(29.832 33.24)"/>
            <path id="prefix__Fill_570" d="M1.83.918a.915.915 0 1 0-.916.918.919.919 0 0 0 .916-.918" class="prefix__cls-3" data-name="Fill 570" transform="translate(28.917 33.239)"/>
            <path id="prefix__Fill_572" d="M1.524.918A.918.918 0 0 0 .606 0 .9.9 0 0 0 0 .241C.14.77.3 1.292.467 1.808a.9.9 0 0 0 .139.029.918.918 0 0 0 .918-.919" class="prefix__cls-3" data-name="Fill 572" transform="translate(1.692 35.993)"/>
            <path id="prefix__Fill_574" d="M.918 1.836A.918.918 0 1 0 0 .918a.918.918 0 0 0 .918.918" class="prefix__cls-3" data-name="Fill 574" transform="translate(5.052 35.993)"/>
            <path id="prefix__Fill_576" d="M.918 0a.918.918 0 1 0 .918.918A.918.918 0 0 0 .918 0" class="prefix__cls-3" data-name="Fill 576" transform="translate(8.724 35.993)"/>
            <path id="prefix__Fill_578" d="M.918 1.836A.918.918 0 1 0 0 .918a.918.918 0 0 0 .918.918" class="prefix__cls-3" data-name="Fill 578" transform="translate(12.395 35.993)"/>
            <path id="prefix__Fill_580" d="M.918 1.836A.918.918 0 1 0 0 .918a.918.918 0 0 0 .918.918" class="prefix__cls-3" data-name="Fill 580" transform="translate(16.067 35.993)"/>
            <path id="prefix__Fill_582" d="M.918 1.836A.918.918 0 1 0 0 .918a.918.918 0 0 0 .918.918" class="prefix__cls-3" data-name="Fill 582" transform="translate(19.738 35.993)"/>
            <path id="prefix__Fill_584" d="M.918 0a.918.918 0 1 0 .918.918A.918.918 0 0 0 .918 0" class="prefix__cls-3" data-name="Fill 584" transform="translate(23.409 35.993)"/>
            <path id="prefix__Fill_586" d="M.918 1.836A.918.918 0 1 0 0 .918a.918.918 0 0 0 .918.918" class="prefix__cls-3" data-name="Fill 586" transform="translate(27.081 35.993)"/>
            <path id="prefix__Fill_588" d="M.918 0a.918.918 0 1 0 .918.918A.919.919 0 0 0 .918 0" class="prefix__cls-3" data-name="Fill 588" transform="translate(3.216 38.747)"/>
            <path id="prefix__Fill_590" d="M.918 1.836A.918.918 0 1 0 0 .918a.918.918 0 0 0 .918.918" class="prefix__cls-3" data-name="Fill 590" transform="translate(6.887 38.747)"/>
            <path id="prefix__Fill_592" d="M.918 1.836A.918.918 0 1 0 0 .918a.919.919 0 0 0 .918.918" class="prefix__cls-3" data-name="Fill 592" transform="translate(10.559 38.747)"/>
            <path id="prefix__Fill_594" d="M.918 1.836A.918.918 0 1 0 0 .918a.919.919 0 0 0 .918.918" class="prefix__cls-3" data-name="Fill 594" transform="translate(14.23 38.747)"/>
            <path id="prefix__Fill_596" d="M.918 1.836A.918.918 0 1 0 0 .918a.919.919 0 0 0 .918.918" class="prefix__cls-3" data-name="Fill 596" transform="translate(17.902 38.747)"/>
            <path id="prefix__Fill_598" d="M.918 1.836A.918.918 0 1 0 0 .918a.919.919 0 0 0 .918.918" class="prefix__cls-3" data-name="Fill 598" transform="translate(21.573 38.747)"/>
            <path id="prefix__Fill_600" d="M.918 1.836A.918.918 0 1 0 0 .918a.919.919 0 0 0 .918.918" class="prefix__cls-3" data-name="Fill 600" transform="translate(25.245 38.747)"/>
            <path id="prefix__Fill_602" d="M.916.918A.918.918 0 0 1 0 1.836.918.918 0 1 0 0 0a.918.918 0 0 1 .916.918" class="prefix__cls-3" data-name="Fill 602" transform="translate(29.832 38.746)"/>
            <path id="prefix__Fill_604" d="M0 .918A.915.915 0 1 0 .916 0 .918.918 0 0 0 0 .918" class="prefix__cls-3" data-name="Fill 604" transform="translate(28.917 38.747)"/>
            <path id="prefix__Fill_606" d="M.918 0a.918.918 0 1 0 .918.918A.918.918 0 0 0 .918 0" class="prefix__cls-3" data-name="Fill 606" transform="translate(5.052 41.5)"/>
            <path id="prefix__Fill_608" d="M.918 1.836A.918.918 0 1 0 0 .918a.918.918 0 0 0 .918.918" class="prefix__cls-3" data-name="Fill 608" transform="translate(8.724 41.5)"/>
            <path id="prefix__Fill_610" d="M.918 1.836A.918.918 0 1 0 0 .918a.918.918 0 0 0 .918.918" class="prefix__cls-3" data-name="Fill 610" transform="translate(12.395 41.5)"/>
            <path id="prefix__Fill_612" d="M.918 0a.918.918 0 1 0 .918.918A.918.918 0 0 0 .918 0" class="prefix__cls-3" data-name="Fill 612" transform="translate(16.067 41.5)"/>
            <path id="prefix__Fill_614" d="M.918 0a.918.918 0 1 0 .918.918A.918.918 0 0 0 .918 0" class="prefix__cls-3" data-name="Fill 614" transform="translate(19.738 41.5)"/>
            <path id="prefix__Fill_616" d="M.918 1.836A.918.918 0 1 0 0 .918a.918.918 0 0 0 .918.918" class="prefix__cls-3" data-name="Fill 616" transform="translate(23.409 41.5)"/>
            <path id="prefix__Fill_618" d="M.918 1.836A.918.918 0 1 0 0 .918a.918.918 0 0 0 .918.918" class="prefix__cls-3" data-name="Fill 618" transform="translate(27.081 41.5)"/>
            <path id="prefix__Fill_620" d="M.918 0a.918.918 0 1 0 .918.918A.918.918 0 0 0 .918 0" class="prefix__cls-3" data-name="Fill 620" transform="translate(6.887 44.254)"/>
            <path id="prefix__Fill_622" d="M.918 0a.918.918 0 1 0 .918.918A.918.918 0 0 0 .918 0" class="prefix__cls-3" data-name="Fill 622" transform="translate(10.559 44.254)"/>
            <path id="prefix__Fill_624" d="M.918 1.835A.918.918 0 1 0 0 .918a.918.918 0 0 0 .918.918" class="prefix__cls-3" data-name="Fill 624" transform="translate(14.23 44.254)"/>
            <path id="prefix__Fill_626" d="M.918 1.835A.918.918 0 1 0 0 .918a.918.918 0 0 0 .918.918" class="prefix__cls-3" data-name="Fill 626" transform="translate(17.902 44.254)"/>
            <path id="prefix__Fill_628" d="M.918 1.835A.918.918 0 1 0 0 .918a.918.918 0 0 0 .918.918" class="prefix__cls-3" data-name="Fill 628" transform="translate(21.573 44.254)"/>
            <path id="prefix__Fill_630" d="M.918 0a.918.918 0 1 0 .918.918A.918.918 0 0 0 .918 0" class="prefix__cls-3" data-name="Fill 630" transform="translate(25.245 44.254)"/>
            <path id="prefix__Fill_632" d="M.916.918A.919.919 0 0 1 0 1.836.919.919 0 0 0 .921.918.919.919 0 0 0 0 0a.917.917 0 0 1 .916.918" class="prefix__cls-3" data-name="Fill 632" transform="translate(29.832 44.254)"/>
            <path id="prefix__Fill_634" d="M0 .918A.915.915 0 1 0 .916 0 .919.919 0 0 0 0 .918" class="prefix__cls-3" data-name="Fill 634" transform="translate(28.917 44.254)"/>
            <path id="prefix__Fill_636" d="M.918 0a.918.918 0 1 0 .918.918A.918.918 0 0 0 .918 0" class="prefix__cls-3" data-name="Fill 636" transform="translate(8.724 47.007)"/>
            <path id="prefix__Fill_638" d="M.918 0a.918.918 0 1 0 .918.918A.918.918 0 0 0 .918 0" class="prefix__cls-3" data-name="Fill 638" transform="translate(12.395 47.007)"/>
            <path id="prefix__Fill_640" d="M.918 1.835A.918.918 0 1 0 0 .918a.918.918 0 0 0 .918.918" class="prefix__cls-3" data-name="Fill 640" transform="translate(16.067 47.008)"/>
            <path id="prefix__Fill_642" d="M.918 1.835A.918.918 0 1 0 0 .918a.918.918 0 0 0 .918.918" class="prefix__cls-3" data-name="Fill 642" transform="translate(19.738 47.008)"/>
            <path id="prefix__Fill_644" d="M.918 1.835A.918.918 0 1 0 0 .918a.918.918 0 0 0 .918.918" class="prefix__cls-3" data-name="Fill 644" transform="translate(23.409 47.008)"/>
            <path id="prefix__Fill_646" d="M.918 1.835A.918.918 0 1 0 0 .918a.918.918 0 0 0 .918.918" class="prefix__cls-3" data-name="Fill 646" transform="translate(27.081 47.008)"/>
            <path id="prefix__Fill_648" d="M1.806.918A.919.919 0 0 0 .888 0 .906.906 0 0 0 0 .773q.589.516 1.2 1a.913.913 0 0 0 .6-.854" class="prefix__cls-3" data-name="Fill 648" transform="translate(10.589 49.761)"/>
            <path id="prefix__Fill_650" d="M.918 0a.918.918 0 1 0 .918.918A.919.919 0 0 0 .918 0" class="prefix__cls-3" data-name="Fill 650" transform="translate(14.23 49.761)"/>
            <path id="prefix__Fill_652" d="M.918 0a.918.918 0 1 0 .918.918A.919.919 0 0 0 .918 0" class="prefix__cls-3" data-name="Fill 652" transform="translate(17.902 49.761)"/>
            <path id="prefix__Fill_654" d="M.918 0a.918.918 0 1 0 .918.918A.918.918 0 0 0 .918 0" class="prefix__cls-3" data-name="Fill 654" transform="translate(21.573 49.761)"/>
            <path id="prefix__Fill_656" d="M.918 1.836A.918.918 0 1 0 0 .918a.919.919 0 0 0 .918.918" class="prefix__cls-3" data-name="Fill 656" transform="translate(25.245 49.761)"/>
            <path id="prefix__Fill_658" d="M.916.918A.918.918 0 0 1 0 1.836.918.918 0 1 0 0 0a.918.918 0 0 1 .916.918" class="prefix__cls-3" data-name="Fill 658" transform="translate(29.832 49.761)"/>
            <path id="prefix__Fill_660" d="M0 .918A.915.915 0 1 0 .916 0 .918.918 0 0 0 0 .918" class="prefix__cls-3" data-name="Fill 660" transform="translate(28.917 49.761)"/>
            <path id="prefix__Fill_662" d="M.152.006A.807.807 0 0 0 0 .037q.505.35 1.028.679a.905.905 0 0 0-.876-.71" class="prefix__cls-3" data-name="Fill 662" transform="translate(13.162 52.508)"/>
            <path id="prefix__Fill_664" d="M.918 0a.918.918 0 1 0 .918.918A.918.918 0 0 0 .918 0" class="prefix__cls-3" data-name="Fill 664" transform="translate(16.067 52.514)"/>
            <path id="prefix__Fill_666" d="M.918 0a.918.918 0 1 0 .918.918A.918.918 0 0 0 .918 0" class="prefix__cls-3" data-name="Fill 666" transform="translate(19.738 52.514)"/>
            <path id="prefix__Fill_668" d="M.918 0a.918.918 0 1 0 .918.918A.918.918 0 0 0 .918 0" class="prefix__cls-3" data-name="Fill 668" transform="translate(23.409 52.514)"/>
            <path id="prefix__Fill_670" d="M.918 0a.918.918 0 1 0 .918.918A.918.918 0 0 0 .918 0" class="prefix__cls-3" data-name="Fill 670" transform="translate(27.081 52.514)"/>
            <path id="prefix__Fill_672" d="M.467.025A.891.891 0 0 0 0 .171Q.659.451 1.335.7A.905.905 0 0 0 .467.025" class="prefix__cls-3" data-name="Fill 672" transform="translate(18.353 55.244)"/>
            <path id="prefix__Fill_674" d="M1.836.918A.918.918 0 0 0 0 .918a.9.9 0 0 0 .094.389q.664.19 1.342.348a.9.9 0 0 0 .4-.738" class="prefix__cls-3" data-name="Fill 674" transform="translate(21.574 55.268)"/>
            <path id="prefix__Fill_676" d="M.918 0a.918.918 0 1 0 .918.918A.918.918 0 0 0 .918 0" class="prefix__cls-3" data-name="Fill 676" transform="translate(25.245 55.269)"/>
            <path id="prefix__Fill_678" d="M0 0a.918.918 0 0 1 .916.918.917.917 0 0 1-.916.917A.918.918 0 1 0 0 0" class="prefix__cls-3" data-name="Fill 678" transform="translate(29.832 55.269)"/>
            <path id="prefix__Fill_680" d="M1.83.918a.915.915 0 1 0-.916.918.918.918 0 0 0 .916-.918" class="prefix__cls-3" data-name="Fill 680" transform="translate(28.917 55.268)"/>
        </g>
        <path id="prefix__Fill_683" d="M3.356 0C3.132.012.822.165.18 1.606-.494 3.12.725 5.942 3.863 7.294A18.416 18.416 0 0 1 3.356 0" class="prefix__cls-7" data-name="Fill 683" transform="translate(12.632 22.277)"/>
        <path id="prefix__Fill_685" d="M4.5 8l-.483-.208A6.8 6.8 0 0 1 .288 4.2 3.176 3.176 0 0 1 .2 1.772C.9.21 3.323.031 3.6.016L3.9 0l-.04.3a18.144 18.144 0 0 0 .5 7.192L4.5 8zM3.321.551C2.678.631 1.133.93.665 1.978a2.729 2.729 0 0 0 .094 2.04A6.078 6.078 0 0 0 3.736 7.1 18.677 18.677 0 0 1 3.321.551z" class="prefix__cls-8" data-name="Fill 685" transform="translate(12.378 22.008)"/>
        <path id="prefix__Fill_687" d="M.507 0C.731.012 3.04.166 3.682 1.607 4.356 3.12 3.137 5.942 0 7.294a18.337 18.337 0 0 0 .615-3.566A18.468 18.468 0 0 0 .507 0" class="prefix__cls-7" data-name="Fill 687" transform="translate(36.802 22.138)"/>
        <path id="prefix__Fill_689" d="M0 8l.141-.507a18.188 18.188 0 0 0 .607-3.514A18.338 18.338 0 0 0 .641.3L.6 0l.3.016c.279.016 2.7.195 3.4 1.756A3.179 3.179 0 0 1 4.214 4.2 6.8 6.8 0 0 1 .485 7.795L0 8zM1.181.551a18.748 18.748 0 0 1 .071 3.465A18.624 18.624 0 0 1 .766 7.1a6.079 6.079 0 0 0 2.977-3.082 2.723 2.723 0 0 0 .093-2.038C3.369.93 1.823.631 1.181.551z" class="prefix__cls-8" data-name="Fill 689" transform="translate(36.417 21.869)"/>
        <path id="prefix__Fill_691" d="M2.186 0a12.716 12.716 0 0 1 .387 7.425A12.055 12.055 0 0 1 0 12.329a8.1 8.1 0 0 0 7.338 5.517 7.968 7.968 0 0 0 7.089-4.38A16.54 16.54 0 0 1 12.36 7.9a16.94 16.94 0 0 1 .258-7.083z" class="prefix__cls-7" data-name="Fill 691" transform="translate(19 34.254)"/>
        <path id="prefix__Fill_693" d="M7.751 18.383h-.129A8.4 8.4 0 0 1 .051 12.7L0 12.559l.1-.113a11.838 11.838 0 0 0 2.519-4.8A12.48 12.48 0 0 0 2.237.369L2.1 0l11.126.871-.073.291a16.744 16.744 0 0 0-.253 6.977 16.236 16.236 0 0 0 2.034 5.48l.073.122-.067.126a8.231 8.231 0 0 1-7.189 4.516zM2.84.565a12.874 12.874 0 0 1 .267 7.205 12.4 12.4 0 0 1-2.529 4.894 7.906 7.906 0 0 0 7.053 5.213h.052a7.778 7.778 0 0 0 6.742-4.122A16.758 16.758 0 0 1 12.4 8.228a17.314 17.314 0 0 1 .191-6.9z" class="prefix__cls-8" data-name="Fill 693" transform="translate(18.711 33.972)"/>
        <path id="prefix__Fill_695" d="M22.274 14.534c0 8.026-4.986 14.533-11.136 14.533S0 22.56 0 14.534 4.986 0 11.137 0s11.137 6.507 11.137 14.534" class="prefix__cls-7" data-name="Fill 695" transform="translate(15.556 13.619)"/>
        <path id="prefix__Fill_697" d="M11.379 29.551C5.1 29.551 0 22.922 0 14.775S5.1 0 11.379 0s11.378 6.628 11.378 14.775-5.105 14.776-11.378 14.776zm0-29.068C5.37.482.482 6.894.482 14.775s4.888 14.293 10.9 14.293 10.895-6.412 10.895-14.293S17.386.482 11.379.482z" class="prefix__cls-8" data-name="Fill 697" transform="translate(15.315 13.377)"/>
        <path id="prefix__Fill_699" d="M5.1 5.416a.234.234 0 0 1-.038 0 6.064 6.064 0 0 1-3.4-1.742A6.082 6.082 0 0 1 0 .288.253.253 0 0 1 .5.219a5.568 5.568 0 0 0 1.517 3.1 5.559 5.559 0 0 0 3.114 1.6.253.253 0 0 1-.038.5" class="prefix__cls-9" data-name="Fill 699" transform="translate(3.128 13.066)"/>
        <g id="prefix__Group_703" data-name="Group 703" transform="translate(22.4 .634)">
            <path id="prefix__Clip_702-2" d="M0 0h2.958v7.964H0z" class="prefix__cls-1" data-name="Clip 702" transform="translate(.606 .088)"/>
            <g id="prefix__Group_703-2" data-name="Group 703">
                <path id="prefix__Fill_701" d="M2.449 7.964a.257.257 0 0 1-.066-.009.252.252 0 0 1-.183-.309 7.209 7.209 0 0 0-.035-3.868A7.207 7.207 0 0 0 .083.441a.253.253 0 1 1 .34-.376 7.714 7.714 0 0 1 2.232 3.573 7.7 7.7 0 0 1 .038 4.139.254.254 0 0 1-.244.187" class="prefix__cls-9" data-name="Fill 701" transform="translate(.606 .088)"/>
            </g>
        </g>
        <path id="prefix__Fill_704" d="M.253 1.206A.253.253 0 0 1 .176.713 14.683 14.683 0 0 1 7.553.279a.253.253 0 1 1-.1.5 14.184 14.184 0 0 0-7.123.415.237.237 0 0 1-.077.012" class="prefix__cls-9" data-name="Fill 704" transform="translate(22.253 15.884)"/>
        <path id="prefix__Fill_706" d="M.253 1.207A.253.253 0 0 1 .176.713 14.674 14.674 0 0 1 7.553.279a.254.254 0 0 1 .2.3.259.259 0 0 1-.3.2 14.175 14.175 0 0 0-7.123.415.237.237 0 0 1-.077.012" class="prefix__cls-9" data-name="Fill 706" transform="translate(24.536 17.085)"/>
        <path id="prefix__Fill_708" d="M3.037 2.019a6.954 6.954 0 0 1-2.891-.64A.253.253 0 1 1 .36.92a6.343 6.343 0 0 0 3.8.489A6.25 6.25 0 0 0 7 .059a.253.253 0 1 1 .324.388 6.749 6.749 0 0 1-3.076 1.46 6.574 6.574 0 0 1-1.214.113" class="prefix__cls-9" data-name="Fill 708" transform="translate(2.406 23.804)"/>
        <g id="prefix__Group_712" data-name="Group 712" transform="translate(17.342 56.273)">
            <path id="prefix__Clip_711-2" d="M0 0h21.145v10.263H0z" class="prefix__cls-1" data-name="Clip 711" transform="translate(.322 .575)"/>
            <g id="prefix__Group_712-2" data-name="Group 712">
                <path id="prefix__Fill_710" d="M1.134 0L0 10.264 21.145 7.7 19.222.973z" class="prefix__cls-7" data-name="Fill 710" transform="translate(.322 .575)"/>
            </g>
        </g>
        <path id="prefix__Fill_713" d="M1.6 13.869c-1-.1-2-3.256-1.437-5.882a9.322 9.322 0 0 1 1.61-3.608A9.114 9.114 0 0 1 3.909 2.4C8.517-.759 14.453.08 14.962.158a9.961 9.961 0 0 1 4.486 1.682 11.049 11.049 0 0 1 1.122.96 12.429 12.429 0 0 1 2.082 2.723 7.8 7.8 0 0 1 1.2 2.8c.241 1.536-.117 3.686-1.042 3.925-.96.247-2.441-1.592-2.963-3.365a15.691 15.691 0 0 1-.24-2.322c-.547-2.5-3.922-4.476-6.969-4.726a9.678 9.678 0 0 0-6.808 2.4 5.165 5.165 0 0 0-2.081 2.492c-.45 1.419.295 2.118.009 3.818-.272 1.616-1.349 3.4-2.16 3.324" class="prefix__cls-3" data-name="Fill 713" transform="translate(14.55 12.077)"/>
        <path id="prefix__Fill_715" d="M1.9 14.379a.64.64 0 0 1-.072 0 1.2 1.2 0 0 1-.818-.565A8.041 8.041 0 0 1 .167 8.19a9.529 9.529 0 0 1 1.66-3.709 9.51 9.51 0 0 1 2.192-2.033A15.651 15.651 0 0 1 12.8 0a16.844 16.844 0 0 1 2.453.165 10.532 10.532 0 0 1 4.6 1.728A10.947 10.947 0 0 1 21 2.876a12.69 12.69 0 0 1 2.125 2.779 7.994 7.994 0 0 1 1.232 2.89c.245 1.561-.1 3.918-1.228 4.208a.948.948 0 0 1-.232.028c-1.137 0-2.541-1.883-3.038-3.566a4.21 4.21 0 0 1-.181-1.459v-.007a3.377 3.377 0 0 0-.063-.873c-.529-2.42-3.913-4.295-6.742-4.527-.218-.018-.438-.026-.654-.026A9.666 9.666 0 0 0 6.241 4.7a4.96 4.96 0 0 0-2 2.36 3.371 3.371 0 0 0-.034 1.764v.008a5.588 5.588 0 0 1 .051 2.012C3.987 12.478 2.9 14.379 1.9 14.379zM12.793.5a15.124 15.124 0 0 0-8.487 2.367 8.968 8.968 0 0 0-2.078 1.922A8.98 8.98 0 0 0 .662 8.3a7.6 7.6 0 0 0 .756 5.216.78.78 0 0 0 .458.362h.031c.581 0 1.585-1.511 1.856-3.115a5.085 5.085 0 0 0-.053-1.855 3.854 3.854 0 0 1 .051-2A5.411 5.411 0 0 1 5.927 4.3a10.27 10.27 0 0 1 6.277-2.485c.234 0 .472.01.706.03 3 .247 6.6 2.2 7.195 4.925a3.81 3.81 0 0 1 .076.992 3.654 3.654 0 0 0 .161 1.312c.477 1.619 1.728 3.207 2.526 3.207a.525.525 0 0 0 .132-.017c.666-.172 1.105-2.044.855-3.641a7.559 7.559 0 0 0-1.171-2.716 12.206 12.206 0 0 0-2.039-2.668 10.518 10.518 0 0 0-1.092-.939A9.859 9.859 0 0 0 15.177.664 16.2 16.2 0 0 0 12.793.5z" class="prefix__cls-8" data-name="Fill 715" transform="translate(14.297 11.821)"/>
        <path id="prefix__Fill_717" d="M12.214 3.333C11.138 2.846 2.594-.987 1.752.241a12.294 12.294 0 0 0-.616 1.3c-.169.418-.274.738-.343.953-.886 2.745-.849 2.989-.733 3.2a1.419 1.419 0 0 0 1.613.606c.595-.282.822-1.453.965-2.2.093-.481.1-.765.322-.894a1.083 1.083 0 0 1 1.252.45C4.78 4.613 2.946 6.1 3.5 6.992a1.238 1.238 0 0 0 1.457.384c.956-.483.36-2.668 1.188-2.965a.9.9 0 0 1 .942.359c.512.765-.9 2.033-.408 2.815a1.064 1.064 0 0 0 1.241.366c.766-.4.169-2.292.863-2.584a.849.849 0 0 1 .894.315c.567.746-.723 2.058-.179 2.823a1.067 1.067 0 0 0 1.206.323c.219-.1.36-.315.623-1.253.4-1.426.351-1.929.666-2.075.189-.088.552-.068 1.315.628a7.574 7.574 0 0 0 .826-.725 7.523 7.523 0 0 0 .725-.856c-.621-.29-1.533-.712-2.639-1.212" class="prefix__cls-7" data-name="Fill 717" transform="translate(28.632 8.909)"/>
        <path id="prefix__Fill_719" d="M10.59 9.383a1.308 1.308 0 0 1-1.049-.5A1.771 1.771 0 0 1 9.6 7.237v-.012c.163-.462.316-.9.116-1.162a.7.7 0 0 0-.5-.252.272.272 0 0 0-.1.017c-.194.082-.222.566-.248.993-.037.614-.079 1.31-.6 1.581a1.014 1.014 0 0 1-.469.106 1.354 1.354 0 0 1-1.1-.56C6.4 7.443 6.666 6.836 6.9 6.3c.206-.46.4-.894.221-1.164a.7.7 0 0 0-.521-.278.35.35 0 0 0-.118.019c-.253.09-.313.625-.372 1.141-.08.7-.171 1.5-.787 1.81a1.267 1.267 0 0 1-.568.126 1.454 1.454 0 0 1-1.218-.6c-.347-.561 0-1.226.345-1.868v-.009c.285-.541.58-1.1.365-1.462a.927.927 0 0 0-.735-.4.351.351 0 0 0-.173.037c-.077.044-.106.193-.155.474l-.045.247c-.156.813-.393 2.041-1.105 2.378a1.108 1.108 0 0 1-.478.1A1.753 1.753 0 0 1 .095 6.04c-.169-.3-.205-.553.713-3.4l.009-.029c.069-.213.174-.535.34-.941A12.685 12.685 0 0 1 1.8.325 1.117 1.117 0 0 1 2.757 0C4.9 0 9.826 2.086 12.574 3.33c.863.391 1.727.788 2.641 1.214l.279.13-.181.248a7.812 7.812 0 0 1-.749.885 7.874 7.874 0 0 1-.854.749l-.168.129-.156-.142c-.57-.52-.852-.6-.969-.6a.167.167 0 0 0-.068.012c-.089.042-.146.3-.232.7-.074.344-.159.721-.3 1.218-.268.957-.432 1.261-.76 1.413a1.1 1.1 0 0 1-.467.097zM9.237 5.3a1.19 1.19 0 0 1 .89.454c.368.484.148 1.1-.046 1.65-.166.466-.322.907-.128 1.181a.814.814 0 0 0 .64.287.615.615 0 0 0 .253-.048c.109-.051.228-.173.484-1.092.141-.5.227-.893.29-1.18v-.008c.127-.581.2-.9.512-1.048a.669.669 0 0 1 .284-.062 1.959 1.959 0 0 1 1.148.59 7.465 7.465 0 0 0 .636-.574 7.54 7.54 0 0 0 .515-.582c-.81-.376-1.58-.729-2.353-1.078C7.893 1.767 4.11.459 2.729.459c-.272 0-.444.051-.514.153a12.906 12.906 0 0 0-.589 1.25c-.167.415-.269.729-.337.937C.549 5.092.452 5.644.536 5.792a1.239 1.239 0 0 0 1.017.555.624.624 0 0 0 .267-.047c.477-.226.7-1.388.824-2.012l.045-.243c.063-.37.113-.662.4-.827a.849.849 0 0 1 .422-.1 1.434 1.434 0 0 1 1.172.643c.362.606-.02 1.328-.356 1.965-.285.539-.554 1.048-.36 1.363a.969.969 0 0 0 .792.361.748.748 0 0 0 .336-.071c.372-.188.444-.813.513-1.417.076-.671.154-1.364.7-1.56a.833.833 0 0 1 .284-.047 1.193 1.193 0 0 1 .953.5c.334.5.062 1.111-.178 1.649v.006c-.2.459-.4.892-.223 1.166A.847.847 0 0 0 7.817 8a.506.506 0 0 0 .234-.051c.264-.138.3-.674.327-1.147v-.011c.035-.6.071-1.226.556-1.429a.776.776 0 0 1 .303-.062z" class="prefix__cls-8" data-name="Fill 719" transform="translate(28.377 8.682)"/>
        <path id="prefix__Fill_721" d="M0 38.739a21.508 21.508 0 0 1 8.36-6.259 22.752 22.752 0 0 0 7.029-3.694 7.522 7.522 0 0 0 2.342-2.586c1.147-2.374.179-4.914-.961-7.93s-3.08-8.145-6.474-8.7a36.568 36.568 0 0 0-3.731-.292 5.509 5.509 0 0 1-2.921-.518 4.1 4.1 0 0 1-1.411-1.54 6.129 6.129 0 0 1-.841-3.295c.01-1.1.035-2.5.961-3.313 1.631-1.426 4.854.039 5.677.413a11.281 11.281 0 0 1 2.838 1.917c.812.718 1 1.128 2.046 2.244a30.982 30.982 0 0 0 2.414 2.3 37.534 37.534 0 0 1 9.382 13.663c.911 2.544 1.689 4.811.951 7.453-.313 1.116-.891 2.281-2.964 4.61a43.535 43.535 0 0 1-8.21 7.193 45.91 45.91 0 0 1-11.292 5.386L0 38.739" class="prefix__cls-7" data-name="Fill 721" transform="translate(40.46 11.834)"/>
        <g id="prefix__Group_725" data-name="Group 725" transform="translate(39.742 11.473)">
            <path id="prefix__Clip_724-2" d="M0 0h26.507v46.359H0z" class="prefix__cls-1" data-name="Clip 724" transform="translate(.421 .103)"/>
            <g id="prefix__Group_725-2" data-name="Group 725">
                <path id="prefix__Fill_723" d="M3.353 46.359L0 38.955l.1-.122A22.087 22.087 0 0 1 8.564 32.5c.242-.1.5-.2.781-.3l.042-.016a20.184 20.184 0 0 0 6.138-3.339 7.235 7.235 0 0 0 2.275-2.5c1.1-2.267.145-4.784-.958-7.7-1.137-3.007-3.041-8.039-6.29-8.569a36.485 36.485 0 0 0-3.7-.289l-.381-.01a4.971 4.971 0 0 1-2.659-.537 4.308 4.308 0 0 1-1.483-1.606 6.391 6.391 0 0 1-.893-3.454c.011-1.1.026-2.608 1.047-3.5A3.015 3.015 0 0 1 4.532 0a9.894 9.894 0 0 1 3.9 1.051 11.572 11.572 0 0 1 2.9 1.959 9.29 9.29 0 0 1 1.088 1.149l.015.018c.248.3.53.633.961 1.1a28.9 28.9 0 0 0 2.167 2.083l.23.2a38.32 38.32 0 0 1 9.452 13.765c.89 2.484 1.732 4.831.956 7.607-.333 1.189-.954 2.392-3.018 4.711a43.781 43.781 0 0 1-8.26 7.236A46.234 46.234 0 0 1 3.569 46.29l-.214.069zM4.542.512a2.541 2.541 0 0 0-1.725.548c-.85.743-.865 2.115-.876 3.117v.008a5.89 5.89 0 0 0 .806 3.162 3.894 3.894 0 0 0 1.324 1.459 4.506 4.506 0 0 0 2.4.472h.012l.384.011a36.706 36.706 0 0 1 3.764.294c3.541.577 5.5 5.761 6.669 8.858 1.151 3.04 2.144 5.665.952 8.13a7.787 7.787 0 0 1-2.41 2.669 20.608 20.608 0 0 1-6.269 3.418h-.011c-.3.112-.566.213-.814.311a21.5 21.5 0 0 0-8.154 6.07l3.034 6.7a45.691 45.691 0 0 0 11.018-5.283 43.264 43.264 0 0 0 8.159-7.15c2-2.247 2.6-3.392 2.91-4.512.73-2.615-.083-4.887-.943-7.293v-.005a37.569 37.569 0 0 0-9.315-13.561l-.227-.2-.021-.018a29.411 29.411 0 0 1-2.182-2.1c-.434-.465-.717-.8-.967-1.1l-.013-.017A9.046 9.046 0 0 0 11 3.388a11.142 11.142 0 0 0-2.777-1.876 9.39 9.39 0 0 0-3.681-1z" class="prefix__cls-8" data-name="Fill 723" transform="translate(.421 .103)"/>
            </g>
        </g>
        <path id="prefix__Fill_726" d="M46.739 20.052a4.291 4.291 0 0 1 .16-2.2c.777-2.135 2.958-2.045 4.485-3.845 2.015-2.374 1.254-6.1.8-8.331-.495-2.433-.932-4.578-2.56-5.4-2.181-1.111-4.355 1.439-8.954 2.415a26.947 26.947 0 0 1-9.237.3 7.663 7.663 0 0 1-5.023 2.861 7.738 7.738 0 0 1-7.244-3.934 28.344 28.344 0 0 0-4.348.664A26.878 26.878 0 0 0 7.9 5.2C1.783 8.783.15 18.718 0 19.7" class="prefix__cls-7" data-name="Fill 726" transform="translate(1.28 42.975)"/>
        <path id="prefix__Fill_728" d="M46.992 20.556a.253.253 0 0 1-.249-.21 4.51 4.51 0 0 1 .172-2.327 4.415 4.415 0 0 1 2.438-2.382 6.82 6.82 0 0 0 2.091-1.537c1.935-2.28 1.191-5.933.746-8.116-.49-2.395-.908-4.461-2.426-5.234-1.15-.583-2.351-.032-4.015.733a21.866 21.866 0 0 1-4.775 1.707 27.183 27.183 0 0 1-9.183.326 7.869 7.869 0 0 1-5.105 2.843 7.95 7.95 0 0 1-7.4-3.921 28.267 28.267 0 0 0-4.156.646A26.766 26.766 0 0 0 8.283 5.67C2.311 9.166.671 18.89.5 19.988a.255.255 0 0 1-.288.212.252.252 0 0 1-.212-.289C.174 18.79 1.854 8.848 8.027 5.235a27.264 27.264 0 0 1 6.985-2.643 28.55 28.55 0 0 1 4.386-.67l.154-.012.081.132a7.434 7.434 0 0 0 7 3.813 7.388 7.388 0 0 0 4.851-2.767l.09-.111.145.023a26.616 26.616 0 0 0 9.151-.3 21.4 21.4 0 0 0 4.669-1.671C47.263.231 48.628-.395 49.992.3c1.738.882 2.181 3.059 2.694 5.579.463 2.274 1.239 6.078-.856 8.545a7.333 7.333 0 0 1-2.23 1.657 3.958 3.958 0 0 0-2.205 2.111 4.006 4.006 0 0 0-.149 2.069.252.252 0 0 1-.207.291.212.212 0 0 1-.043 0" class="prefix__cls-8" data-name="Fill 728" transform="translate(1.028 42.724)"/>
        <path id="prefix__Fill_730" d="M14.756 7.25c.2.91.748 3.36-.689 5.34-1.976 2.721-6.019 2.239-6.56 2.166-3-.4-7.428-2.762-7.506-7.249A7.378 7.378 0 0 1 7.25 0c4.622-.081 6.933 4.676 7.506 7.249" data-name="Fill 730" transform="translate(2.613 12.373)" style="fill:rgba(218,206,253,.5);mix-blend-mode:multiply;isolation:isolate"/>
    </g>
</svg>
