<svg xmlns="http://www.w3.org/2000/svg" width="62.404" height="71.349" viewBox="0 0 62.404 71.349">
    <defs>
        <clipPath id="prefix__clip-path">
            <path id="prefix__Clip_148" d="M.135 0h.511v.78H.135z" class="prefix__cls-1" data-name="Clip 148" transform="translate(.1 .089)"/>
        </clipPath>
        <clipPath id="prefix__clip-path-2">
            <path id="prefix__Clip_297" d="M.012 0h.756v.947H.012z" class="prefix__cls-1" data-name="Clip 297" transform="translate(.768 .174)"/>
        </clipPath>
        <clipPath id="prefix__clip-path-3">
            <path id="prefix__Clip_352" d="M.133 0h.515v.78H.133z" class="prefix__cls-1" data-name="Clip 352" transform="translate(.098 .264)"/>
        </clipPath>
        <clipPath id="prefix__clip-path-4">
            <path id="prefix__Clip_355" d="M.138 0h.5v1.15h-.5z" class="prefix__cls-1" data-name="Clip 355" transform="translate(.103 .385)"/>
        </clipPath>
        <clipPath id="prefix__clip-path-5">
            <path id="prefix__Clip_492" d="M.011 0H.77v.944H.011z" class="prefix__cls-1" data-name="Clip 492" transform="translate(.77 .01)"/>
        </clipPath>
        <clipPath id="prefix__clip-path-6">
            <path id="prefix__Clip_495" d="M.018 0h.744v1.829H.018z" class="prefix__cls-1" data-name="Clip 495" transform="translate(.762 .041)"/>
        </clipPath>
        <clipPath id="prefix__clip-path-7">
            <path id="prefix__Clip_705" d="M0 0h35.118v32.261H0z" class="prefix__cls-2" data-name="Clip 705" transform="translate(.209 .455)"/>
        </clipPath>
        <style>
            .prefix__cls-1{fill:#e8f7d2}.prefix__cls-2{fill:none}.prefix__cls-9{fill:#fff}.prefix__cls-10{fill:#2d2d2d}.prefix__cls-11{fill:#c5eb8c}.prefix__cls-14{fill:#dcccff}
        </style>
    </defs>
    <g id="prefix__Group_75813" data-name="Group 75813" transform="translate(-231.78 -126.78)">
        <g id="prefix__ic_general_physician_big_copy" data-name="ic_general_physician_big copy" transform="translate(231 126)">
            <g id="prefix__Group_685" data-name="Group 685" transform="translate(0 5.789)">
                <path id="prefix__Fill_1" d="M.992 1.982A.991.991 0 0 1 .994 0a.991.991 0 1 0 0 1.982" class="prefix__cls-1" data-name="Fill 1" transform="translate(31.228 .676)"/>
                <path id="prefix__Fill_3" d="M.992 1.982A.991.991 0 1 0 0 .991a.991.991 0 0 0 .992.991" class="prefix__cls-1" data-name="Fill 3" transform="translate(35.194 .676)"/>
                <path id="prefix__Fill_5" d="M.992 1.448A.986.986 0 0 0 1.975.5C1.367.312.749.149.126 0A.969.969 0 0 0 0 .457a.991.991 0 0 0 .992.991" class="prefix__cls-1" data-name="Fill 5" transform="translate(39.159 1.21)"/>
                <path id="prefix__Fill_7" d="M.992 1.983A.992.992 0 1 0 0 .991a.992.992 0 0 0 .992.992" class="prefix__cls-1" data-name="Fill 7" transform="translate(33.211 3.65)"/>
                <path id="prefix__Fill_9" d="M.991 1.983A.992.992 0 1 0 0 .991a.992.992 0 0 0 .991.992" class="prefix__cls-1" data-name="Fill 9" transform="translate(37.177 3.65)"/>
                <path id="prefix__Fill_11" d="M.991 1.983A.992.992 0 1 0 0 .991a.992.992 0 0 0 .991.992" class="prefix__cls-1" data-name="Fill 11" transform="translate(41.143 3.65)"/>
                <path id="prefix__Fill_13" d="M0 .971a.992.992 0 1 0 1.983 0 .966.966 0 0 0-.141-.479C1.53.321 1.211.16.893 0A.981.981 0 0 0 0 .971" class="prefix__cls-1" data-name="Fill 13" transform="translate(45.108 3.67)"/>
                <path id="prefix__Fill_15" d="M.005.991A.992.992 0 0 1 .994 0a.992.992 0 0 0 0 1.983.992.992 0 0 1-.989-.992" class="prefix__cls-1" data-name="Fill 15" transform="translate(31.229 6.624)"/>
                <path id="prefix__Fill_17" d="M.992 0a.991.991 0 1 0 .991.991A.991.991 0 0 0 .992 0" class="prefix__cls-1" data-name="Fill 17" transform="translate(35.194 6.624)"/>
                <path id="prefix__Fill_19" d="M.992 1.982A.991.991 0 1 0 0 .99a.991.991 0 0 0 .992.992" class="prefix__cls-1" data-name="Fill 19" transform="translate(39.159 6.624)"/>
                <path id="prefix__Fill_21" d="M.991 1.982A.991.991 0 1 0 0 .99a.991.991 0 0 0 .991.992" class="prefix__cls-1" data-name="Fill 21" transform="translate(43.125 6.624)"/>
                <path id="prefix__Fill_23" d="M.991 1.982A.991.991 0 1 0 0 .99a.991.991 0 0 0 .991.992" class="prefix__cls-1" data-name="Fill 23" transform="translate(47.091 6.624)"/>
                <path id="prefix__Fill_25" d="M.991 1.58a.982.982 0 0 0 .724-.324C1.229.82.727.4.214 0A.97.97 0 0 0 0 .588a.991.991 0 0 0 .991.992" class="prefix__cls-1" data-name="Fill 25" transform="translate(51.057 7.027)"/>
                <path id="prefix__Fill_27" d="M.992 0a.991.991 0 1 0 .991.991A.991.991 0 0 0 .992 0" class="prefix__cls-1" data-name="Fill 27" transform="translate(33.211 9.598)"/>
                <path id="prefix__Fill_29" d="M.991 0a.991.991 0 1 0 .992.991A.991.991 0 0 0 .991 0" class="prefix__cls-1" data-name="Fill 29" transform="translate(37.177 9.598)"/>
                <path id="prefix__Fill_31" d="M.991 0a.991.991 0 1 0 .992.991A.991.991 0 0 0 .991 0" class="prefix__cls-1" data-name="Fill 31" transform="translate(41.143 9.598)"/>
                <path id="prefix__Fill_33" d="M.991 1.982A.991.991 0 1 0 0 .99a.991.991 0 0 0 .991.992" class="prefix__cls-1" data-name="Fill 33" transform="translate(45.108 9.599)"/>
                <path id="prefix__Fill_35" d="M.991 1.982A.991.991 0 1 0 0 .99a.991.991 0 0 0 .991.992" class="prefix__cls-1" data-name="Fill 35" transform="translate(49.074 9.599)"/>
                <path id="prefix__Fill_37" d="M0 .991a.992.992 0 1 0 1.983 0 1.012 1.012 0 0 0-.022-.107Q1.563.45 1.149.032A.973.973 0 0 0 .991 0 .992.992 0 0 0 0 .991" class="prefix__cls-1" data-name="Fill 37" transform="translate(53.04 9.598)"/>
                <path id="prefix__Fill_39" d="M.005.992A.992.992 0 0 1 .994 0a.992.992 0 0 0 0 1.984.992.992 0 0 1-.989-.992" class="prefix__cls-1" data-name="Fill 39" transform="translate(31.229 12.572)"/>
                <path id="prefix__Fill_41" d="M.992 1.983A.992.992 0 1 0 0 .991a.992.992 0 0 0 .992.992" class="prefix__cls-1" data-name="Fill 41" transform="translate(35.194 12.573)"/>
                <path id="prefix__Fill_43" d="M.992 0a.992.992 0 1 0 .991.992A.991.991 0 0 0 .992 0" class="prefix__cls-1" data-name="Fill 43" transform="translate(39.159 12.573)"/>
                <path id="prefix__Fill_45" d="M.991 0a.992.992 0 1 0 .992.992A.991.991 0 0 0 .991 0" class="prefix__cls-1" data-name="Fill 45" transform="translate(43.125 12.573)"/>
                <path id="prefix__Fill_47" d="M.991 0a.992.992 0 1 0 .992.992A.991.991 0 0 0 .991 0" class="prefix__cls-1" data-name="Fill 47" transform="translate(47.091 12.573)"/>
                <path id="prefix__Fill_49" d="M.991 1.983A.992.992 0 1 0 0 .991a.992.992 0 0 0 .991.992" class="prefix__cls-1" data-name="Fill 49" transform="translate(51.057 12.573)"/>
                <path id="prefix__Fill_51" d="M.991 1.983A.992.992 0 1 0 0 .991a.992.992 0 0 0 .991.992" class="prefix__cls-1" data-name="Fill 51" transform="translate(55.023 12.573)"/>
                <path id="prefix__Fill_53" d="M.992 0a.992.992 0 1 0 .991.992A.991.991 0 0 0 .992 0" class="prefix__cls-1" data-name="Fill 53" transform="translate(33.211 15.547)"/>
                <path id="prefix__Fill_55" d="M.991 0a.992.992 0 1 0 .992.992A.991.991 0 0 0 .991 0" class="prefix__cls-1" data-name="Fill 55" transform="translate(37.177 15.547)"/>
                <path id="prefix__Fill_57" d="M.991 1.983A.992.992 0 1 0 0 .991a.992.992 0 0 0 .991.992" class="prefix__cls-1" data-name="Fill 57" transform="translate(41.143 15.547)"/>
                <path id="prefix__Fill_59" d="M.991 0a.992.992 0 1 0 .992.992A.991.991 0 0 0 .991 0" class="prefix__cls-1" data-name="Fill 59" transform="translate(45.108 15.547)"/>
                <path id="prefix__Fill_61" d="M.991 0a.992.992 0 1 0 .992.992A.991.991 0 0 0 .991 0" class="prefix__cls-1" data-name="Fill 61" transform="translate(49.074 15.547)"/>
                <path id="prefix__Fill_63" d="M.991 1.983A.992.992 0 1 0 0 .991a.992.992 0 0 0 .991.992" class="prefix__cls-1" data-name="Fill 63" transform="translate(53.04 15.547)"/>
                <path id="prefix__Fill_65" d="M.991 1.983A.992.992 0 1 0 0 .991a.992.992 0 0 0 .991.992" class="prefix__cls-1" data-name="Fill 65" transform="translate(57.005 15.547)"/>
                <path id="prefix__Fill_67" d="M.005.992A.992.992 0 0 1 .994 0a.992.992 0 0 0 0 1.984.992.992 0 0 1-.989-.992" class="prefix__cls-1" data-name="Fill 67" transform="translate(31.229 18.52)"/>
                <path id="prefix__Fill_69" d="M.992 0a.992.992 0 1 0 .991.992A.992.992 0 0 0 .992 0" class="prefix__cls-1" data-name="Fill 69" transform="translate(35.194 18.521)"/>
                <path id="prefix__Fill_71" d="M.992 0a.992.992 0 1 0 .991.992A.992.992 0 0 0 .992 0" class="prefix__cls-1" data-name="Fill 71" transform="translate(39.159 18.521)"/>
                <path id="prefix__Fill_73" d="M.991 0a.992.992 0 1 0 .992.992A.992.992 0 0 0 .991 0" class="prefix__cls-1" data-name="Fill 73" transform="translate(43.125 18.521)"/>
                <path id="prefix__Fill_75" d="M.991 1.983A.992.992 0 1 0 0 .991a.991.991 0 0 0 .991.992" class="prefix__cls-1" data-name="Fill 75" transform="translate(47.091 18.521)"/>
                <path id="prefix__Fill_77" d="M.991 0a.992.992 0 1 0 .992.992A.991.991 0 0 0 .991 0" class="prefix__cls-1" data-name="Fill 77" transform="translate(51.057 18.521)"/>
                <path id="prefix__Fill_79" d="M.991 0a.992.992 0 1 0 .992.992A.991.991 0 0 0 .991 0" class="prefix__cls-1" data-name="Fill 79" transform="translate(55.023 18.521)"/>
                <path id="prefix__Fill_81" d="M0 .992a.985.985 0 0 0 1.918.325Q1.665.694 1.385.084A.986.986 0 0 0 0 .992" class="prefix__cls-1" data-name="Fill 81" transform="translate(58.988 18.52)"/>
                <path id="prefix__Fill_83" d="M.992 0a.991.991 0 1 0 .991.991A.991.991 0 0 0 .992 0" class="prefix__cls-1" data-name="Fill 83" transform="translate(33.211 21.496)"/>
                <path id="prefix__Fill_85" d="M.991 1.982A.991.991 0 1 0 0 .99a.991.991 0 0 0 .991.992" class="prefix__cls-1" data-name="Fill 85" transform="translate(37.177 21.496)"/>
                <path id="prefix__Fill_87" d="M.991 0a.991.991 0 1 0 .992.991A.991.991 0 0 0 .991 0" class="prefix__cls-1" data-name="Fill 87" transform="translate(41.143 21.496)"/>
                <path id="prefix__Fill_89" d="M.991 0a.991.991 0 1 0 .992.991A.991.991 0 0 0 .991 0" class="prefix__cls-1" data-name="Fill 89" transform="translate(45.108 21.496)"/>
                <path id="prefix__Fill_91" d="M.991 0a.991.991 0 1 0 .992.991A.991.991 0 0 0 .991 0" class="prefix__cls-1" data-name="Fill 91" transform="translate(49.074 21.496)"/>
                <path id="prefix__Fill_93" d="M.991 0a.991.991 0 1 0 .992.991A.991.991 0 0 0 .991 0" class="prefix__cls-1" data-name="Fill 93" transform="translate(53.04 21.496)"/>
                <path id="prefix__Fill_95" d="M.991 0a.991.991 0 1 0 .992.991A.991.991 0 0 0 .991 0" class="prefix__cls-1" data-name="Fill 95" transform="translate(57.005 21.496)"/>
                <path id="prefix__Fill_97" d="M0 .9a.991.991 0 0 0 .991.992.936.936 0 0 0 .155-.032C.978 1.23.788.611.582 0A.986.986 0 0 0 0 .9" class="prefix__cls-1" data-name="Fill 97" transform="translate(60.971 21.59)"/>
                <path id="prefix__Fill_99" d="M.992 1.982A.991.991 0 0 1 .994 0a.991.991 0 1 0 0 1.982" class="prefix__cls-1" data-name="Fill 99" transform="translate(31.228 24.47)"/>
                <path id="prefix__Fill_101" d="M.992 0a.991.991 0 1 0 .991.992A.991.991 0 0 0 .992 0" class="prefix__cls-1" data-name="Fill 101" transform="translate(35.194 24.47)"/>
                <path id="prefix__Fill_103" d="M.992 0a.991.991 0 1 0 .991.992A.991.991 0 0 0 .992 0" class="prefix__cls-1" data-name="Fill 103" transform="translate(39.159 24.47)"/>
                <path id="prefix__Fill_105" d="M.991 1.982A.991.991 0 1 0 0 .991a.991.991 0 0 0 .991.991" class="prefix__cls-1" data-name="Fill 105" transform="translate(43.125 24.47)"/>
                <path id="prefix__Fill_107" d="M.991 0a.991.991 0 1 0 .992.992A.991.991 0 0 0 .991 0" class="prefix__cls-1" data-name="Fill 107" transform="translate(47.091 24.47)"/>
                <path id="prefix__Fill_109" d="M.991 0a.991.991 0 1 0 .992.992A.991.991 0 0 0 .991 0" class="prefix__cls-1" data-name="Fill 109" transform="translate(51.057 24.47)"/>
                <path id="prefix__Fill_111" d="M.991 1.982A.991.991 0 1 0 0 .991a.991.991 0 0 0 .991.991" class="prefix__cls-1" data-name="Fill 111" transform="translate(55.023 24.47)"/>
                <path id="prefix__Fill_113" d="M.991 1.982A.991.991 0 1 0 0 .991a.991.991 0 0 0 .991.991" class="prefix__cls-1" data-name="Fill 113" transform="translate(58.988 24.47)"/>
                <path id="prefix__Fill_115" d="M.992 0a.991.991 0 1 0 .991.992A.992.992 0 0 0 .992 0" class="prefix__cls-1" data-name="Fill 115" transform="translate(33.211 27.444)"/>
                <path id="prefix__Fill_117" d="M.991 0a.991.991 0 1 0 .992.992A.992.992 0 0 0 .991 0" class="prefix__cls-1" data-name="Fill 117" transform="translate(37.177 27.444)"/>
                <path id="prefix__Fill_119" d="M.991 0a.991.991 0 1 0 .992.992A.992.992 0 0 0 .991 0" class="prefix__cls-1" data-name="Fill 119" transform="translate(41.143 27.444)"/>
                <path id="prefix__Fill_121" d="M.991 1.982A.991.991 0 1 0 0 .991a.991.991 0 0 0 .991.991" class="prefix__cls-1" data-name="Fill 121" transform="translate(45.108 27.444)"/>
                <path id="prefix__Fill_123" d="M.991 1.982A.991.991 0 1 0 0 .991a.991.991 0 0 0 .991.991" class="prefix__cls-1" data-name="Fill 123" transform="translate(49.074 27.444)"/>
                <path id="prefix__Fill_125" d="M.991 0a.991.991 0 1 0 .992.992A.992.992 0 0 0 .991 0" class="prefix__cls-1" data-name="Fill 125" transform="translate(53.04 27.444)"/>
                <path id="prefix__Fill_127" d="M.991 0a.991.991 0 1 0 .992.992A.991.991 0 0 0 .991 0" class="prefix__cls-1" data-name="Fill 127" transform="translate(57.005 27.444)"/>
                <path id="prefix__Fill_129" d="M.991 1.982A.991.991 0 1 0 0 .991a.991.991 0 0 0 .991.991" class="prefix__cls-1" data-name="Fill 129" transform="translate(60.971 27.444)"/>
                <path id="prefix__Fill_131" d="M.005.016S0 .005 0 0v.016a.992.992 0 0 0 .991.992.992.992 0 0 1-.986-.992" class="prefix__cls-1" data-name="Fill 131" transform="translate(31.229 31.393)"/>
                <path id="prefix__Fill_133" d="M.992 1.008a.992.992 0 0 0 .991-.992V0a.99.99 0 0 1-.991.976A.991.991 0 0 1 0 0v.016a.992.992 0 0 0 .992.992" class="prefix__cls-1" data-name="Fill 133" transform="translate(35.194 31.393)"/>
                <path id="prefix__Fill_135" d="M.992.976A.991.991 0 0 1 0 0v.016a.992.992 0 0 0 .992.991.992.992 0 0 0 .991-.991V0a.99.99 0 0 1-.991.976" class="prefix__cls-1" data-name="Fill 135" transform="translate(39.159 31.393)"/>
                <path id="prefix__Fill_137" d="M.991.976A.99.99 0 0 1 0 0v.016a.992.992 0 0 0 .991.991.992.992 0 0 0 .992-.991.163.163 0 0 0 0-.016.989.989 0 0 1-.992.976" class="prefix__cls-1" data-name="Fill 137" transform="translate(43.125 31.393)"/>
                <path id="prefix__Fill_139" d="M1.979 0a.989.989 0 0 1-.988.976A.99.99 0 0 1 0 0v.016a.992.992 0 0 0 .991.991.991.991 0 0 0 .991-.991V0" class="prefix__cls-1" data-name="Fill 139" transform="translate(47.091 31.393)"/>
                <path id="prefix__Fill_141" d="M.991 1.008a.992.992 0 0 0 .992-.992V0a.99.99 0 0 1-.992.976A.99.99 0 0 1 0 0v.016a.991.991 0 0 0 .991.992" class="prefix__cls-1" data-name="Fill 141" transform="translate(51.057 31.393)"/>
                <path id="prefix__Fill_143" d="M1.979 0a.99.99 0 0 1-.988.976A.99.99 0 0 1 0 0v.016a.991.991 0 0 0 1.982 0V0" class="prefix__cls-1" data-name="Fill 143" transform="translate(55.023 31.393)"/>
                <path id="prefix__Fill_145" d="M.991.976A.99.99 0 0 1 0 0v.016a.991.991 0 0 0 .991.991.992.992 0 0 0 .992-.991V0a.99.99 0 0 1-.992.976" class="prefix__cls-1" data-name="Fill 145" transform="translate(58.988 31.393)"/>
                <g id="prefix__Group_149" data-name="Group 149" transform="translate(62.439 31.22)">
                    <path id="prefix__Clip_148-2" d="M.135 0h.511v.78H.135z" class="prefix__cls-1" data-name="Clip 148" transform="translate(.1 .089)"/>
                    <g id="prefix__Group_149-2" data-name="Group 149">
                        <path id="prefix__Fill_147" d="M.281.1A.97.97 0 0 0 .5.7V.67A.974.974 0 0 1 .284.085C.284.091.281.1.281.1" class="prefix__cls-1" data-name="Fill 147" transform="translate(.234 .089)"/>
                    </g>
                </g>
                <path id="prefix__Fill_150" d="M.841.215C.559.32.279.433 0 .546a.856.856 0 0 0 .1.02.976.976 0 0 0 .741-.351" class="prefix__cls-1" data-name="Fill 150" transform="translate(20.23 2.092)"/>
                <path id="prefix__Fill_152" d="M.992 1.545a.991.991 0 0 0 .991-.992.97.97 0 0 0-.19-.553Q.9.2.02.455a.845.845 0 0 0-.02.1.991.991 0 0 0 .992.991" class="prefix__cls-1" data-name="Fill 152" transform="translate(23.302 1.113)"/>
                <path id="prefix__Fill_154" d="M.992 1.982A.991.991 0 1 0 0 .991a.991.991 0 0 0 .992.991" class="prefix__cls-1" data-name="Fill 154" transform="translate(27.268 .676)"/>
                <path id="prefix__Fill_156" d="M.989.992A.992.992 0 0 1 0 1.983.991.991 0 0 0 .994.992.992.992 0 0 0 0 0a.992.992 0 0 1 .989.992" class="prefix__cls-1" data-name="Fill 156" transform="translate(32.222 .675)"/>
                <path id="prefix__Fill_158" d="M0 .991A.988.988 0 1 0 .989 0 .992.992 0 0 0 0 .991" class="prefix__cls-1" data-name="Fill 158" transform="translate(31.234 .676)"/>
                <path id="prefix__Fill_160" d="M.6.259C.459.346.32.432.185.522A.972.972 0 0 0 .6.259" class="prefix__cls-1" data-name="Fill 160" transform="translate(14.51 5.047)"/>
                <path id="prefix__Fill_162" d="M.992 1.983A.992.992 0 1 0 0 .991a.992.992 0 0 0 .992.992" class="prefix__cls-1" data-name="Fill 162" transform="translate(17.354 3.65)"/>
                <path id="prefix__Fill_164" d="M.992 1.983A.992.992 0 1 0 0 .991a.991.991 0 0 0 .992.992" class="prefix__cls-1" data-name="Fill 164" transform="translate(21.319 3.65)"/>
                <path id="prefix__Fill_166" d="M.992 1.983A.992.992 0 1 0 0 .991a.991.991 0 0 0 .992.992" class="prefix__cls-1" data-name="Fill 166" transform="translate(25.285 3.65)"/>
                <path id="prefix__Fill_168" d="M.992 1.983A.992.992 0 1 0 0 .991a.992.992 0 0 0 .992.992" class="prefix__cls-1" data-name="Fill 168" transform="translate(29.251 3.65)"/>
                <path id="prefix__Fill_170" d="M.9 1.787A.991.991 0 0 0 1.893.8a.974.974 0 0 0-.432-.8Q.712.578 0 1.2a.988.988 0 0 0 .9.587" class="prefix__cls-1" data-name="Fill 170" transform="translate(11.496 6.82)"/>
                <path id="prefix__Fill_172" d="M.991 1.982A.991.991 0 1 0 0 .99a.991.991 0 0 0 .991.992" class="prefix__cls-1" data-name="Fill 172" transform="translate(15.372 6.624)"/>
                <path id="prefix__Fill_174" d="M.991 1.982A.991.991 0 1 0 0 .99a.991.991 0 0 0 .991.992" class="prefix__cls-1" data-name="Fill 174" transform="translate(19.337 6.624)"/>
                <path id="prefix__Fill_176" d="M.992 1.982A.991.991 0 1 0 0 .99a.991.991 0 0 0 .992.992" class="prefix__cls-1" data-name="Fill 176" transform="translate(23.302 6.624)"/>
                <path id="prefix__Fill_178" d="M.992 0a.991.991 0 1 0 .991.991A.991.991 0 0 0 .992 0" class="prefix__cls-1" data-name="Fill 178" transform="translate(27.268 6.624)"/>
                <path id="prefix__Fill_180" d="M0 0a.991.991 0 0 1 .989.991.991.991 0 0 1-.989.991A.991.991 0 1 0 0 0" class="prefix__cls-1" data-name="Fill 180" transform="translate(32.223 6.624)"/>
                <path id="prefix__Fill_182" d="M1.977.991a.988.988 0 1 0-.989.991.992.992 0 0 0 .989-.991" class="prefix__cls-1" data-name="Fill 182" transform="translate(31.234 6.624)"/>
                <path id="prefix__Fill_184" d="M.991 1.982A.991.991 0 1 0 0 .99a.991.991 0 0 0 .991.992" class="prefix__cls-1" data-name="Fill 184" transform="translate(9.423 9.599)"/>
                <path id="prefix__Fill_186" d="M.991 1.982A.991.991 0 1 0 0 .99a.991.991 0 0 0 .991.992" class="prefix__cls-1" data-name="Fill 186" transform="translate(13.389 9.599)"/>
                <path id="prefix__Fill_188" d="M.992 0a.991.991 0 1 0 .992.991A.991.991 0 0 0 .992 0" class="prefix__cls-1" data-name="Fill 188" transform="translate(17.354 9.598)"/>
                <path id="prefix__Fill_190" d="M.992 0a.991.991 0 1 0 .991.991A.991.991 0 0 0 .992 0" class="prefix__cls-1" data-name="Fill 190" transform="translate(21.319 9.598)"/>
                <path id="prefix__Fill_192" d="M.992 0a.991.991 0 1 0 .991.991A.991.991 0 0 0 .992 0" class="prefix__cls-1" data-name="Fill 192" transform="translate(25.285 9.598)"/>
                <path id="prefix__Fill_194" d="M.992 0a.991.991 0 1 0 .991.991A.991.991 0 0 0 .992 0" class="prefix__cls-1" data-name="Fill 194" transform="translate(29.251 9.598)"/>
                <path id="prefix__Fill_196" d="M.991 1.983A.992.992 0 1 0 0 .991a.992.992 0 0 0 .991.992" class="prefix__cls-1" data-name="Fill 196" transform="translate(7.44 12.573)"/>
                <path id="prefix__Fill_198" d="M.991 1.983A.992.992 0 1 0 0 .991a.992.992 0 0 0 .991.992" class="prefix__cls-1" data-name="Fill 198" transform="translate(11.406 12.573)"/>
                <path id="prefix__Fill_200" d="M.991 0a.992.992 0 1 0 .991.992A.991.991 0 0 0 .991 0" class="prefix__cls-1" data-name="Fill 200" transform="translate(15.372 12.573)"/>
                <path id="prefix__Fill_202" d="M.991 0a.992.992 0 1 0 .991.992A.991.991 0 0 0 .991 0" class="prefix__cls-1" data-name="Fill 202" transform="translate(19.337 12.573)"/>
                <path id="prefix__Fill_204" d="M.992 0a.992.992 0 1 0 .991.992A.991.991 0 0 0 .992 0" class="prefix__cls-1" data-name="Fill 204" transform="translate(23.302 12.573)"/>
                <path id="prefix__Fill_206" d="M.992 1.983A.992.992 0 1 0 0 .991a.991.991 0 0 0 .992.992" class="prefix__cls-1" data-name="Fill 206" transform="translate(27.268 12.573)"/>
                <path id="prefix__Fill_208" d="M0 0a.991.991 0 0 1 .989.992.991.991 0 0 1-.989.99.991.991 0 0 0 .994-.99A.991.991 0 0 0 0 0" class="prefix__cls-1" data-name="Fill 208" transform="translate(32.223 12.573)"/>
                <path id="prefix__Fill_210" d="M1.977.991a.988.988 0 1 0-.989.991.992.992 0 0 0 .989-.991" class="prefix__cls-1" data-name="Fill 210" transform="translate(31.234 12.573)"/>
                <path id="prefix__Fill_212" d="M.991 1.983A.992.992 0 1 0 0 .991a.992.992 0 0 0 .991.992" class="prefix__cls-1" data-name="Fill 212" transform="translate(5.457 15.547)"/>
                <path id="prefix__Fill_214" d="M.991 0a.992.992 0 1 0 .992.992A.991.991 0 0 0 .991 0" class="prefix__cls-1" data-name="Fill 214" transform="translate(9.423 15.547)"/>
                <path id="prefix__Fill_216" d="M.991 0a.992.992 0 1 0 .992.992A.991.991 0 0 0 .991 0" class="prefix__cls-1" data-name="Fill 216" transform="translate(13.389 15.547)"/>
                <path id="prefix__Fill_218" d="M.992 1.983A.992.992 0 1 0 0 .991a.992.992 0 0 0 .992.992" class="prefix__cls-1" data-name="Fill 218" transform="translate(17.354 15.547)"/>
                <path id="prefix__Fill_220" d="M.992 1.983A.992.992 0 1 0 0 .991a.991.991 0 0 0 .992.992" class="prefix__cls-1" data-name="Fill 220" transform="translate(21.319 15.547)"/>
                <path id="prefix__Fill_222" d="M.992 1.983A.992.992 0 1 0 0 .991a.991.991 0 0 0 .992.992" class="prefix__cls-1" data-name="Fill 222" transform="translate(25.285 15.547)"/>
                <path id="prefix__Fill_224" d="M.992 0a.992.992 0 1 0 .991.992A.991.991 0 0 0 .992 0" class="prefix__cls-1" data-name="Fill 224" transform="translate(29.251 15.547)"/>
                <path id="prefix__Fill_226" d="M.991 1.983A.992.992 0 1 0 0 .991a.991.991 0 0 0 .991.992" class="prefix__cls-1" data-name="Fill 226" transform="translate(3.474 18.521)"/>
                <path id="prefix__Fill_228" d="M.991 0a.992.992 0 1 0 .992.992A.991.991 0 0 0 .991 0" class="prefix__cls-1" data-name="Fill 228" transform="translate(7.44 18.521)"/>
                <path id="prefix__Fill_230" d="M.991 0a.992.992 0 1 0 .992.992A.991.991 0 0 0 .991 0" class="prefix__cls-1" data-name="Fill 230" transform="translate(11.406 18.521)"/>
                <path id="prefix__Fill_232" d="M.991 1.983A.992.992 0 1 0 0 .991a.991.991 0 0 0 .991.992" class="prefix__cls-1" data-name="Fill 232" transform="translate(15.372 18.521)"/>
                <path id="prefix__Fill_234" d="M.991 0a.992.992 0 1 0 .991.992A.991.991 0 0 0 .991 0" class="prefix__cls-1" data-name="Fill 234" transform="translate(19.337 18.521)"/>
                <path id="prefix__Fill_236" d="M.992 0a.992.992 0 1 0 .991.992A.992.992 0 0 0 .992 0" class="prefix__cls-1" data-name="Fill 236" transform="translate(23.302 18.521)"/>
                <path id="prefix__Fill_238" d="M.992 0a.992.992 0 1 0 .991.992A.992.992 0 0 0 .992 0" class="prefix__cls-1" data-name="Fill 238" transform="translate(27.268 18.521)"/>
                <path id="prefix__Fill_240" d="M0 0a.991.991 0 0 1 .989.992.991.991 0 0 1-.989.99.991.991 0 0 0 .994-.99A.991.991 0 0 0 0 0" class="prefix__cls-1" data-name="Fill 240" transform="translate(32.223 18.521)"/>
                <path id="prefix__Fill_242" d="M1.977.991a.988.988 0 1 0-.989.991.992.992 0 0 0 .989-.991" class="prefix__cls-1" data-name="Fill 242" transform="translate(31.234 18.521)"/>
                <path id="prefix__Fill_244" d="M1.576.991A.992.992 0 0 0 .584 0C.569 0 .556.008.542.009.345.588.163 1.176 0 1.771a.966.966 0 0 0 .584.212.992.992 0 0 0 .992-.992" class="prefix__cls-1" data-name="Fill 244" transform="translate(1.899 21.495)"/>
                <path id="prefix__Fill_246" d="M.991 0a.991.991 0 1 0 .992.991A.991.991 0 0 0 .991 0" class="prefix__cls-1" data-name="Fill 246" transform="translate(5.457 21.496)"/>
                <path id="prefix__Fill_248" d="M.991 1.982A.991.991 0 1 0 0 .99a.991.991 0 0 0 .991.992" class="prefix__cls-1" data-name="Fill 248" transform="translate(9.423 21.496)"/>
                <path id="prefix__Fill_250" d="M.991 1.982A.991.991 0 1 0 0 .99a.991.991 0 0 0 .991.992" class="prefix__cls-1" data-name="Fill 250" transform="translate(13.389 21.496)"/>
                <path id="prefix__Fill_252" d="M.992 0a.991.991 0 1 0 .992.991A.991.991 0 0 0 .992 0" class="prefix__cls-1" data-name="Fill 252" transform="translate(17.354 21.496)"/>
                <path id="prefix__Fill_254" d="M.992 0a.991.991 0 1 0 .991.991A.991.991 0 0 0 .992 0" class="prefix__cls-1" data-name="Fill 254" transform="translate(21.319 21.496)"/>
                <path id="prefix__Fill_256" d="M.992 0a.991.991 0 1 0 .991.991A.991.991 0 0 0 .992 0" class="prefix__cls-1" data-name="Fill 256" transform="translate(25.285 21.496)"/>
                <path id="prefix__Fill_258" d="M.992 1.982A.991.991 0 1 0 0 .99a.991.991 0 0 0 .992.992" class="prefix__cls-1" data-name="Fill 258" transform="translate(29.251 21.496)"/>
                <path id="prefix__Fill_260" d="M.442 0C.381.293.332.59.28.886A.971.971 0 0 0 .5.288.955.955 0 0 0 .442 0" class="prefix__cls-1" data-name="Fill 260" transform="translate(.991 25.173)"/>
                <path id="prefix__Fill_262" d="M.991 1.982A.991.991 0 1 0 0 .991a.991.991 0 0 0 .991.991" class="prefix__cls-1" data-name="Fill 262" transform="translate(3.474 24.47)"/>
                <path id="prefix__Fill_264" d="M.991 1.982A.991.991 0 1 0 0 .991a.991.991 0 0 0 .991.991" class="prefix__cls-1" data-name="Fill 264" transform="translate(7.44 24.47)"/>
                <path id="prefix__Fill_266" d="M.991 0a.991.991 0 1 0 .992.992A.991.991 0 0 0 .991 0" class="prefix__cls-1" data-name="Fill 266" transform="translate(11.406 24.47)"/>
                <path id="prefix__Fill_268" d="M.991 0a.991.991 0 1 0 .991.992A.991.991 0 0 0 .991 0" class="prefix__cls-1" data-name="Fill 268" transform="translate(15.372 24.47)"/>
                <path id="prefix__Fill_270" d="M.991 1.982A.991.991 0 1 0 0 .991a.991.991 0 0 0 .991.991" class="prefix__cls-1" data-name="Fill 270" transform="translate(19.337 24.47)"/>
                <path id="prefix__Fill_272" d="M.992 1.982A.991.991 0 1 0 0 .991a.991.991 0 0 0 .992.991" class="prefix__cls-1" data-name="Fill 272" transform="translate(23.302 24.47)"/>
                <path id="prefix__Fill_274" d="M.992 1.982A.991.991 0 1 0 0 .991a.991.991 0 0 0 .992.991" class="prefix__cls-1" data-name="Fill 274" transform="translate(27.268 24.47)"/>
                <path id="prefix__Fill_276" d="M.989.992A.992.992 0 0 1 0 1.983.991.991 0 0 0 .994.992.991.991 0 0 0 0 0a.991.991 0 0 1 .989.992" class="prefix__cls-1" data-name="Fill 276" transform="translate(32.222 24.469)"/>
                <path id="prefix__Fill_278" d="M0 .991A.988.988 0 1 0 .989 0 .992.992 0 0 0 0 .991" class="prefix__cls-1" data-name="Fill 278" transform="translate(31.234 24.47)"/>
                <path id="prefix__Fill_280" d="M.991 1.982A.991.991 0 1 0 0 .991a.991.991 0 0 0 .991.991" class="prefix__cls-1" data-name="Fill 280" transform="translate(1.492 27.444)"/>
                <path id="prefix__Fill_282" d="M.991 1.982A.991.991 0 1 0 0 .991a.991.991 0 0 0 .991.991" class="prefix__cls-1" data-name="Fill 282" transform="translate(5.457 27.444)"/>
                <path id="prefix__Fill_284" d="M.991 0a.991.991 0 1 0 .992.992A.991.991 0 0 0 .991 0" class="prefix__cls-1" data-name="Fill 284" transform="translate(9.423 27.444)"/>
                <path id="prefix__Fill_286" d="M.991 0a.991.991 0 1 0 .992.992A.991.991 0 0 0 .991 0" class="prefix__cls-1" data-name="Fill 286" transform="translate(13.389 27.444)"/>
                <path id="prefix__Fill_288" d="M.992 1.982A.991.991 0 1 0 0 .991a.991.991 0 0 0 .992.991" class="prefix__cls-1" data-name="Fill 288" transform="translate(17.354 27.444)"/>
                <path id="prefix__Fill_290" d="M.992 1.982A.991.991 0 1 0 0 .991a.991.991 0 0 0 .992.991" class="prefix__cls-1" data-name="Fill 290" transform="translate(21.319 27.444)"/>
                <path id="prefix__Fill_292" d="M.992 0a.991.991 0 1 0 .991.992A.992.992 0 0 0 .992 0" class="prefix__cls-1" data-name="Fill 292" transform="translate(25.285 27.444)"/>
                <path id="prefix__Fill_294" d="M.992 0a.991.991 0 1 0 .991.992A.992.992 0 0 0 .992 0" class="prefix__cls-1" data-name="Fill 294" transform="translate(29.251 27.444)"/>
                <g id="prefix__Group_298" data-name="Group 298" transform="translate(0 31.22)">
                    <path id="prefix__Clip_297-2" d="M.012 0h.756v.947H.012z" class="prefix__cls-1" data-name="Clip 297" transform="translate(.768 .174)"/>
                    <g id="prefix__Group_298-2" data-name="Group 298">
                        <path id="prefix__Fill_296" d="M.736.016V0a.978.978 0 0 1-.692.916v.031A.981.981 0 0 0 .736.016" class="prefix__cls-1" data-name="Fill 296" transform="translate(.756 .174)"/>
                    </g>
                </g>
                <path id="prefix__Fill_299" d="M.991 1.008a.992.992 0 0 0 .992-.992V0a.99.99 0 0 1-.992.976A.99.99 0 0 1 0 0v.016a.991.991 0 0 0 .991.992" class="prefix__cls-1" data-name="Fill 299" transform="translate(3.474 31.393)"/>
                <path id="prefix__Fill_301" d="M1.979 0a.99.99 0 0 1-.988.976A.99.99 0 0 1 0 0v.016a.991.991 0 0 0 1.982 0V0" class="prefix__cls-1" data-name="Fill 301" transform="translate(7.44 31.393)"/>
                <path id="prefix__Fill_303" d="M.991.976A.99.99 0 0 1 0 0v.016a.991.991 0 0 0 .991.991.992.992 0 0 0 .992-.991V0a.99.99 0 0 1-.992.976" class="prefix__cls-1" data-name="Fill 303" transform="translate(11.406 31.393)"/>
                <path id="prefix__Fill_305" d="M.991.976A.99.99 0 0 1 0 0v.016a.991.991 0 0 0 1.982 0V0a.99.99 0 0 1-.991.976" class="prefix__cls-1" data-name="Fill 305" transform="translate(15.372 31.393)"/>
                <path id="prefix__Fill_307" d="M.991 1.008a.991.991 0 0 0 .991-.992V0a.99.99 0 0 1-.991.976A.99.99 0 0 1 0 0v.016a.991.991 0 0 0 .991.992" class="prefix__cls-1" data-name="Fill 307" transform="translate(19.337 31.393)"/>
                <path id="prefix__Fill_309" d="M1.98 0a.99.99 0 0 1-.988.976A.99.99 0 0 1 0 0v.016a.992.992 0 0 0 .992.991.991.991 0 0 0 .991-.991V0" class="prefix__cls-1" data-name="Fill 309" transform="translate(23.302 31.393)"/>
                <path id="prefix__Fill_311" d="M.992.976A.99.99 0 0 1 0 0a.163.163 0 0 0 0 .016.992.992 0 0 0 .992.991.991.991 0 0 0 .991-.991V0a.99.99 0 0 1-.991.976" class="prefix__cls-1" data-name="Fill 311" transform="translate(27.268 31.393)"/>
                <path id="prefix__Fill_313" d="M.989.016A.992.992 0 0 1 0 1.008.992.992 0 0 0 .994.016V0v.015" class="prefix__cls-1" data-name="Fill 313" transform="translate(32.222 31.393)"/>
                <path id="prefix__Fill_315" d="M1.977 0a.989.989 0 0 1-.986.962H.986A.989.989 0 0 1 0 0a.991.991 0 0 0 .988.993A.992.992 0 0 0 1.977 0" class="prefix__cls-1" data-name="Fill 315" transform="translate(31.234 31.408)"/>
                <path id="prefix__Fill_317" d="M.005.992A.992.992 0 0 1 .994 0 .992.992 0 0 0 0 .992v.002" class="prefix__cls-1" data-name="Fill 317" transform="translate(31.229 30.386)"/>
                <path id="prefix__Fill_319" d="M.393.39L.39.376a.091.091 0 0 1 0 .014.127.127 0 0 1 0 .01S.393.4.393.39" class="prefix__cls-1" data-name="Fill 319" transform="translate(30.844 31.004)"/>
                <path id="prefix__Fill_321" d="M0 0v.015a.989.989 0 0 0 .986.961A.99.99 0 0 1 0 0" class="prefix__cls-1" data-name="Fill 321" transform="translate(31.234 31.393)"/>
                <path id="prefix__Fill_323" d="M.992.031a.99.99 0 0 1 .988.976V.991a.992.992 0 0 0-1.98 0v.016A.99.99 0 0 1 .992.031" class="prefix__cls-1" data-name="Fill 323" transform="translate(35.194 30.387)"/>
                <path id="prefix__Fill_325" d="M.989 1.952a.99.99 0 0 0 .988-.976.989.989 0 0 0-1.977 0 .991.991 0 0 0 .989.976" class="prefix__cls-1" data-name="Fill 325" transform="translate(35.197 30.418)"/>
                <path id="prefix__Fill_327" d="M0 1.007a.989.989 0 0 1 1.977 0V.991A.992.992 0 0 0 0 .991v.016" class="prefix__cls-1" data-name="Fill 327" transform="translate(39.16 30.387)"/>
                <path id="prefix__Fill_329" d="M.989 0A.99.99 0 0 0 0 .976a.989.989 0 0 0 1.977 0A.99.99 0 0 0 .989 0" class="prefix__cls-1" data-name="Fill 329" transform="translate(39.162 30.418)"/>
                <path id="prefix__Fill_331" d="M.991 0A.991.991 0 0 0 0 .992v.015a.988.988 0 0 1 1.976 0 .141.141 0 0 0 0-.015A.991.991 0 0 0 .991 0" class="prefix__cls-1" data-name="Fill 331" transform="translate(43.125 30.387)"/>
                <path id="prefix__Fill_333" d="M.988 0A.99.99 0 0 0 0 .976a.988.988 0 0 0 1.976 0A.989.989 0 0 0 .988 0" class="prefix__cls-1" data-name="Fill 333" transform="translate(43.129 30.418)"/>
                <path id="prefix__Fill_335" d="M.991.031a.989.989 0 0 1 .988.976.114.114 0 0 0 0-.016.992.992 0 0 0-1.979 0v.016A.99.99 0 0 1 .991.031" class="prefix__cls-1" data-name="Fill 335" transform="translate(47.091 30.387)"/>
                <path id="prefix__Fill_337" d="M.988 1.952a.989.989 0 0 0 .988-.976.988.988 0 0 0-1.976 0 .99.99 0 0 0 .988.976" class="prefix__cls-1" data-name="Fill 337" transform="translate(47.094 30.418)"/>
                <path id="prefix__Fill_339" d="M.991.031a.99.99 0 0 1 .988.976.114.114 0 0 0 0-.016.992.992 0 0 0-1.979 0v.016A.99.99 0 0 1 .991.031" class="prefix__cls-1" data-name="Fill 339" transform="translate(51.057 30.387)"/>
                <path id="prefix__Fill_341" d="M.988 1.952a.99.99 0 0 0 .988-.976.988.988 0 0 0-1.976 0 .99.99 0 0 0 .988.976" class="prefix__cls-1" data-name="Fill 341" transform="translate(51.06 30.418)"/>
                <path id="prefix__Fill_343" d="M.991.031a.99.99 0 0 1 .988.976V.991A.992.992 0 0 0 0 .991v.016A.99.99 0 0 1 .991.031" class="prefix__cls-1" data-name="Fill 343" transform="translate(55.023 30.387)"/>
                <path id="prefix__Fill_345" d="M.988 1.952a.99.99 0 0 0 .988-.976.988.988 0 0 0-1.976 0 .99.99 0 0 0 .988.976" class="prefix__cls-1" data-name="Fill 345" transform="translate(55.026 30.418)"/>
                <path id="prefix__Fill_347" d="M.991 0A.991.991 0 0 0 0 .992v.015a.988.988 0 0 1 1.976 0V.992A.991.991 0 0 0 .991 0" class="prefix__cls-1" data-name="Fill 347" transform="translate(58.988 30.387)"/>
                <path id="prefix__Fill_349" d="M.988 0A.99.99 0 0 0 0 .976a.988.988 0 0 0 1.976 0A.99.99 0 0 0 .988 0" class="prefix__cls-1" data-name="Fill 349" transform="translate(58.991 30.418)"/>
                <g id="prefix__Group_353" data-name="Group 353" transform="translate(62.439 30.439)">
                    <path id="prefix__Clip_352-2" d="M.133 0h.515v.78H.133z" class="prefix__cls-1" data-name="Clip 352" transform="translate(.098 .264)"/>
                    <g id="prefix__Group_353-2" data-name="Group 353">
                        <path id="prefix__Fill_351" d="M.287.69A.965.965 0 0 1 .5.121V.09a.972.972 0 0 0-.216.585v.016" class="prefix__cls-1" data-name="Fill 351" transform="translate(.231 .264)"/>
                    </g>
                </g>
                <g id="prefix__Group_356" data-name="Group 356" transform="translate(62.439 30.439)">
                    <path id="prefix__Clip_355-2" d="M.138 0h.5v1.15h-.5z" class="prefix__cls-1" data-name="Clip 355" transform="translate(.103 .385)"/>
                    <g id="prefix__Group_356-2" data-name="Group 356">
                        <path id="prefix__Fill_354" d="M.493 1.15C.494 1.006.5.864.5.719.5.478.491.24.486 0a.967.967 0 0 0-.209.57.973.973 0 0 0 .216.581" class="prefix__cls-1" data-name="Fill 354" transform="translate(.241 .385)"/>
                    </g>
                </g>
                <path id="prefix__Fill_357" d="M.992 1.983A.992.992 0 1 0 0 .991a.992.992 0 0 0 .992.992" class="prefix__cls-1" data-name="Fill 357" transform="translate(33.211 33.361)"/>
                <path id="prefix__Fill_359" d="M.991 1.983A.992.992 0 1 0 0 .991a.992.992 0 0 0 .991.992" class="prefix__cls-1" data-name="Fill 359" transform="translate(37.177 33.361)"/>
                <path id="prefix__Fill_361" d="M.991 0a.992.992 0 1 0 .992.992A.992.992 0 0 0 .991 0" class="prefix__cls-1" data-name="Fill 361" transform="translate(41.143 33.361)"/>
                <path id="prefix__Fill_363" d="M.991 0a.992.992 0 1 0 .992.992A.992.992 0 0 0 .991 0" class="prefix__cls-1" data-name="Fill 363" transform="translate(45.108 33.361)"/>
                <path id="prefix__Fill_365" d="M.991 1.983A.992.992 0 1 0 0 .991a.992.992 0 0 0 .991.992" class="prefix__cls-1" data-name="Fill 365" transform="translate(49.074 33.361)"/>
                <path id="prefix__Fill_367" d="M.991 1.983A.992.992 0 1 0 0 .991a.992.992 0 0 0 .991.992" class="prefix__cls-1" data-name="Fill 367" transform="translate(53.04 33.361)"/>
                <path id="prefix__Fill_369" d="M.991 1.983A.992.992 0 1 0 0 .991a.992.992 0 0 0 .991.992" class="prefix__cls-1" data-name="Fill 369" transform="translate(57.005 33.361)"/>
                <path id="prefix__Fill_371" d="M.991 0a.992.992 0 1 0 .992.992A.991.991 0 0 0 .991 0" class="prefix__cls-1" data-name="Fill 371" transform="translate(60.971 33.361)"/>
                <path id="prefix__Fill_373" d="M.005.992A.992.992 0 0 1 .994 0a.992.992 0 0 0 0 1.984.992.992 0 0 1-.989-.992" class="prefix__cls-1" data-name="Fill 373" transform="translate(31.229 36.334)"/>
                <path id="prefix__Fill_375" d="M.992 0a.992.992 0 1 0 .991.992A.992.992 0 0 0 .992 0" class="prefix__cls-1" data-name="Fill 375" transform="translate(35.194 36.335)"/>
                <path id="prefix__Fill_377" d="M.992 1.983A.992.992 0 1 0 0 .991a.991.991 0 0 0 .992.992" class="prefix__cls-1" data-name="Fill 377" transform="translate(39.159 36.335)"/>
                <path id="prefix__Fill_379" d="M.991 0a.992.992 0 1 0 .992.992A.992.992 0 0 0 .991 0" class="prefix__cls-1" data-name="Fill 379" transform="translate(43.125 36.335)"/>
                <path id="prefix__Fill_381" d="M.991 1.983A.992.992 0 1 0 0 .991a.991.991 0 0 0 .991.992" class="prefix__cls-1" data-name="Fill 381" transform="translate(47.091 36.335)"/>
                <path id="prefix__Fill_383" d="M.991 0a.992.992 0 1 0 .992.992A.991.991 0 0 0 .991 0" class="prefix__cls-1" data-name="Fill 383" transform="translate(51.057 36.335)"/>
                <path id="prefix__Fill_385" d="M.991 0a.992.992 0 1 0 .992.992A.991.991 0 0 0 .991 0" class="prefix__cls-1" data-name="Fill 385" transform="translate(55.023 36.335)"/>
                <path id="prefix__Fill_387" d="M.991 0a.992.992 0 1 0 .992.992A.991.991 0 0 0 .991 0" class="prefix__cls-1" data-name="Fill 387" transform="translate(58.988 36.335)"/>
                <path id="prefix__Fill_389" d="M.992 0a.991.991 0 1 0 .991.992A.991.991 0 0 0 .992 0" class="prefix__cls-1" data-name="Fill 389" transform="translate(33.211 39.31)"/>
                <path id="prefix__Fill_391" d="M.991 1.982A.991.991 0 1 0 0 .991a.991.991 0 0 0 .991.991" class="prefix__cls-1" data-name="Fill 391" transform="translate(37.177 39.31)"/>
                <path id="prefix__Fill_393" d="M.991 1.982A.991.991 0 1 0 0 .991a.991.991 0 0 0 .991.991" class="prefix__cls-1" data-name="Fill 393" transform="translate(41.143 39.31)"/>
                <path id="prefix__Fill_395" d="M.991 1.982A.991.991 0 1 0 0 .991a.991.991 0 0 0 .991.991" class="prefix__cls-1" data-name="Fill 395" transform="translate(45.108 39.31)"/>
                <path id="prefix__Fill_397" d="M.991 0a.991.991 0 1 0 .992.992A.991.991 0 0 0 .991 0" class="prefix__cls-1" data-name="Fill 397" transform="translate(49.074 39.31)"/>
                <path id="prefix__Fill_399" d="M.991 1.982A.991.991 0 1 0 0 .991a.991.991 0 0 0 .991.991" class="prefix__cls-1" data-name="Fill 399" transform="translate(53.04 39.31)"/>
                <path id="prefix__Fill_401" d="M.991 0a.991.991 0 1 0 .992.992A.991.991 0 0 0 .991 0" class="prefix__cls-1" data-name="Fill 401" transform="translate(57.005 39.31)"/>
                <path id="prefix__Fill_403" d="M0 .992a.981.981 0 0 0 .673.926c.2-.617.39-1.238.553-1.871A.981.981 0 0 0 .991 0 .991.991 0 0 0 0 .992" class="prefix__cls-1" data-name="Fill 403" transform="translate(60.971 39.309)"/>
                <path id="prefix__Fill_405" d="M.992 1.982A.991.991 0 0 1 .994 0a.991.991 0 1 0 0 1.982" class="prefix__cls-1" data-name="Fill 405" transform="translate(31.228 42.284)"/>
                <path id="prefix__Fill_407" d="M.992 1.982A.991.991 0 1 0 0 .991a.991.991 0 0 0 .992.991" class="prefix__cls-1" data-name="Fill 407" transform="translate(35.194 42.284)"/>
                <path id="prefix__Fill_409" d="M.992 1.982A.991.991 0 1 0 0 .991a.991.991 0 0 0 .992.991" class="prefix__cls-1" data-name="Fill 409" transform="translate(39.159 42.284)"/>
                <path id="prefix__Fill_411" d="M.991 1.982A.991.991 0 1 0 0 .991a.991.991 0 0 0 .991.991" class="prefix__cls-1" data-name="Fill 411" transform="translate(43.125 42.284)"/>
                <path id="prefix__Fill_413" d="M.991 0a.991.991 0 1 0 .992.992A.991.991 0 0 0 .991 0" class="prefix__cls-1" data-name="Fill 413" transform="translate(47.091 42.284)"/>
                <path id="prefix__Fill_415" d="M.991 1.982A.991.991 0 1 0 0 .991a.991.991 0 0 0 .991.991" class="prefix__cls-1" data-name="Fill 415" transform="translate(51.057 42.284)"/>
                <path id="prefix__Fill_417" d="M.991 1.982A.991.991 0 1 0 0 .991a.991.991 0 0 0 .991.991" class="prefix__cls-1" data-name="Fill 417" transform="translate(55.023 42.284)"/>
                <path id="prefix__Fill_419" d="M.991 0a.991.991 0 1 0 0 1.982.967.967 0 0 0 .588-.214q.2-.448.377-.9A.979.979 0 0 0 .991 0" class="prefix__cls-1" data-name="Fill 419" transform="translate(58.988 42.284)"/>
                <path id="prefix__Fill_421" d="M.992 1.983A.992.992 0 1 0 0 .991a.992.992 0 0 0 .992.992" class="prefix__cls-1" data-name="Fill 421" transform="translate(33.211 45.258)"/>
                <path id="prefix__Fill_423" d="M.991 0a.992.992 0 1 0 .992.992A.992.992 0 0 0 .991 0" class="prefix__cls-1" data-name="Fill 423" transform="translate(37.177 45.258)"/>
                <path id="prefix__Fill_425" d="M.991 1.983A.992.992 0 1 0 0 .991a.992.992 0 0 0 .991.992" class="prefix__cls-1" data-name="Fill 425" transform="translate(41.143 45.258)"/>
                <path id="prefix__Fill_427" d="M.991 0a.992.992 0 1 0 .992.992A.992.992 0 0 0 .991 0" class="prefix__cls-1" data-name="Fill 427" transform="translate(45.108 45.258)"/>
                <path id="prefix__Fill_429" d="M.991 1.983A.992.992 0 1 0 0 .991a.992.992 0 0 0 .991.992" class="prefix__cls-1" data-name="Fill 429" transform="translate(49.074 45.258)"/>
                <path id="prefix__Fill_431" d="M.991 0a.992.992 0 1 0 .992.992A.992.992 0 0 0 .991 0" class="prefix__cls-1" data-name="Fill 431" transform="translate(53.04 45.258)"/>
                <path id="prefix__Fill_433" d="M.991 0a.992.992 0 1 0 .992.992A.991.991 0 0 0 .991 0" class="prefix__cls-1" data-name="Fill 433" transform="translate(57.005 45.258)"/>
                <path id="prefix__Fill_435" d="M.992 1.983A.991.991 0 0 1 .994 0a.992.992 0 1 0 0 1.983" class="prefix__cls-1" data-name="Fill 435" transform="translate(31.228 48.232)"/>
                <path id="prefix__Fill_437" d="M.992 0a.992.992 0 1 0 .991.992A.992.992 0 0 0 .992 0" class="prefix__cls-1" data-name="Fill 437" transform="translate(35.194 48.232)"/>
                <path id="prefix__Fill_439" d="M.992 1.983A.992.992 0 1 0 0 .991a.992.992 0 0 0 .992.992" class="prefix__cls-1" data-name="Fill 439" transform="translate(39.159 48.232)"/>
                <path id="prefix__Fill_441" d="M.991 1.983A.992.992 0 1 0 0 .991a.992.992 0 0 0 .991.992" class="prefix__cls-1" data-name="Fill 441" transform="translate(43.125 48.232)"/>
                <path id="prefix__Fill_443" d="M.991 1.983A.992.992 0 1 0 0 .991a.992.992 0 0 0 .991.992" class="prefix__cls-1" data-name="Fill 443" transform="translate(47.091 48.232)"/>
                <path id="prefix__Fill_445" d="M.991 0a.992.992 0 1 0 .992.992A.991.991 0 0 0 .991 0" class="prefix__cls-1" data-name="Fill 445" transform="translate(51.057 48.232)"/>
                <path id="prefix__Fill_447" d="M.991 0a.992.992 0 1 0 .992.992A.991.991 0 0 0 .991 0" class="prefix__cls-1" data-name="Fill 447" transform="translate(55.023 48.232)"/>
                <path id="prefix__Fill_449" d="M.992 1.982A.991.991 0 1 0 0 .99a.991.991 0 0 0 .992.992" class="prefix__cls-1" data-name="Fill 449" transform="translate(33.211 51.207)"/>
                <path id="prefix__Fill_451" d="M.991 1.982A.991.991 0 1 0 0 .99a.991.991 0 0 0 .991.992" class="prefix__cls-1" data-name="Fill 451" transform="translate(37.177 51.207)"/>
                <path id="prefix__Fill_453" d="M.991 1.982A.991.991 0 1 0 0 .99a.991.991 0 0 0 .991.992" class="prefix__cls-1" data-name="Fill 453" transform="translate(41.143 51.207)"/>
                <path id="prefix__Fill_455" d="M.991 1.982A.991.991 0 1 0 0 .99a.991.991 0 0 0 .991.992" class="prefix__cls-1" data-name="Fill 455" transform="translate(45.108 51.207)"/>
                <path id="prefix__Fill_457" d="M.991 0a.991.991 0 1 0 .992.991A.991.991 0 0 0 .991 0" class="prefix__cls-1" data-name="Fill 457" transform="translate(49.074 51.207)"/>
                <path id="prefix__Fill_459" d="M.991 0a.991.991 0 0 0 0 1.982.978.978 0 0 0 .667-.268l.064-.067a.975.975 0 0 0 .261-.656A.991.991 0 0 0 .991 0" class="prefix__cls-1" data-name="Fill 459" transform="translate(53.04 51.207)"/>
                <path id="prefix__Fill_461" d="M.992 1.982A.991.991 0 0 1 .994 0a.991.991 0 1 0 0 1.982" class="prefix__cls-1" data-name="Fill 461" transform="translate(31.228 54.181)"/>
                <path id="prefix__Fill_463" d="M.992 1.982A.991.991 0 1 0 0 .99a.991.991 0 0 0 .992.992" class="prefix__cls-1" data-name="Fill 463" transform="translate(35.194 54.181)"/>
                <path id="prefix__Fill_465" d="M.992 0a.991.991 0 1 0 .991.991A.991.991 0 0 0 .992 0" class="prefix__cls-1" data-name="Fill 465" transform="translate(39.159 54.181)"/>
                <path id="prefix__Fill_467" d="M.991 0a.991.991 0 1 0 .992.991A.991.991 0 0 0 .991 0" class="prefix__cls-1" data-name="Fill 467" transform="translate(43.125 54.181)"/>
                <path id="prefix__Fill_469" d="M.991 0a.991.991 0 1 0 .992.991A.991.991 0 0 0 .991 0" class="prefix__cls-1" data-name="Fill 469" transform="translate(47.091 54.181)"/>
                <path id="prefix__Fill_471" d="M.991 0A.991.991 0 0 0 0 .991a.975.975 0 0 0 .376.759c.5-.4.992-.809 1.466-1.238A.976.976 0 0 0 .991 0" class="prefix__cls-1" data-name="Fill 471" transform="translate(51.057 54.181)"/>
                <path id="prefix__Fill_473" d="M.992 0a.992.992 0 1 0 .991.992A.991.991 0 0 0 .992 0" class="prefix__cls-1" data-name="Fill 473" transform="translate(33.211 57.155)"/>
                <path id="prefix__Fill_475" d="M.991 0a.992.992 0 1 0 .992.992A.991.991 0 0 0 .991 0" class="prefix__cls-1" data-name="Fill 475" transform="translate(37.177 57.155)"/>
                <path id="prefix__Fill_477" d="M.991 0a.992.992 0 1 0 .992.992A.991.991 0 0 0 .991 0" class="prefix__cls-1" data-name="Fill 477" transform="translate(41.143 57.155)"/>
                <path id="prefix__Fill_479" d="M.991 0a.992.992 0 1 0 .992.992A.991.991 0 0 0 .991 0" class="prefix__cls-1" data-name="Fill 479" transform="translate(45.108 57.155)"/>
                <path id="prefix__Fill_481" d="M.222.508C.336.431.446.351.559.273a.991.991 0 0 0-.337.235" class="prefix__cls-1" data-name="Fill 481" transform="translate(49.129 56.958)"/>
                <path id="prefix__Fill_483" d="M.005.992A.992.992 0 0 1 .994 0a.992.992 0 0 0 0 1.984.992.992 0 0 1-.989-.992" class="prefix__cls-1" data-name="Fill 483" transform="translate(31.229 60.129)"/>
                <path id="prefix__Fill_485" d="M.992 0a.992.992 0 1 0 .991.992A.992.992 0 0 0 .992 0" class="prefix__cls-1" data-name="Fill 485" transform="translate(35.194 60.129)"/>
                <path id="prefix__Fill_487" d="M.992 0A.988.988 0 0 0 .31 1.706c.545-.135 1.086-.282 1.619-.444a.971.971 0 0 0 .055-.27A.992.992 0 0 0 .992 0" class="prefix__cls-1" data-name="Fill 487" transform="translate(39.159 60.129)"/>
                <path id="prefix__Fill_489" d="M0 .641C.37.5.738.35 1.1.192A.981.981 0 0 0 .843.14.978.978 0 0 0 0 .641" class="prefix__cls-1" data-name="Fill 489" transform="translate(43.274 59.989)"/>
                <g id="prefix__Group_493" data-name="Group 493" transform="translate(0 30.439)">
                    <path id="prefix__Clip_492-2" d="M.011 0H.77v.944H.011z" class="prefix__cls-1" data-name="Clip 492" transform="translate(.77 .01)"/>
                    <g id="prefix__Group_493-2" data-name="Group 493">
                        <path id="prefix__Fill_491" d="M.729.944V.928A.981.981 0 0 0 .049 0v.031a.979.979 0 0 1 .68.913" class="prefix__cls-1" data-name="Fill 491" transform="translate(.759 .01)"/>
                    </g>
                </g>
                <g id="prefix__Group_496" data-name="Group 496" transform="translate(0 30.439)">
                    <path id="prefix__Clip_495-2" d="M.018 0h.744v1.829H.018z" class="prefix__cls-1" data-name="Clip 495" transform="translate(.762 .041)"/>
                    <g id="prefix__Group_496-2" data-name="Group 496">
                        <path id="prefix__Fill_494" d="M.744.913A.979.979 0 0 0 .064 0C.051.354.036.706.036 1.062c0 .258.013.511.02.766A.978.978 0 0 0 .744.913" class="prefix__cls-1" data-name="Fill 494" transform="translate(.744 .041)"/>
                    </g>
                </g>
                <path id="prefix__Fill_497" d="M.991.031a.99.99 0 0 1 .988.976.114.114 0 0 0 0-.016.992.992 0 0 0-1.979 0v.016A.99.99 0 0 1 .991.031" class="prefix__cls-1" data-name="Fill 497" transform="translate(3.474 30.387)"/>
                <path id="prefix__Fill_499" d="M.988 1.952a.99.99 0 0 0 .988-.976.988.988 0 0 0-1.976 0 .99.99 0 0 0 .988.976" class="prefix__cls-1" data-name="Fill 499" transform="translate(3.478 30.418)"/>
                <path id="prefix__Fill_501" d="M.991.031a.99.99 0 0 1 .988.976V.991A.992.992 0 0 0 0 .991v.016A.99.99 0 0 1 .991.031" class="prefix__cls-1" data-name="Fill 501" transform="translate(7.44 30.387)"/>
                <path id="prefix__Fill_503" d="M.988 1.952a.99.99 0 0 0 .988-.976.988.988 0 0 0-1.976 0 .99.99 0 0 0 .988.976" class="prefix__cls-1" data-name="Fill 503" transform="translate(7.443 30.418)"/>
                <path id="prefix__Fill_505" d="M0 1.007a.988.988 0 0 1 1.976 0V.991A.992.992 0 0 0 0 .991v.016" class="prefix__cls-1" data-name="Fill 505" transform="translate(11.406 30.387)"/>
                <path id="prefix__Fill_507" d="M.988 0A.99.99 0 0 0 0 .976a.988.988 0 0 0 1.976 0A.99.99 0 0 0 .988 0" class="prefix__cls-1" data-name="Fill 507" transform="translate(11.409 30.418)"/>
                <path id="prefix__Fill_509" d="M0 1.007a.988.988 0 0 1 1.976 0V.991A.991.991 0 0 0 0 .991v.016" class="prefix__cls-1" data-name="Fill 509" transform="translate(15.371 30.387)"/>
                <path id="prefix__Fill_511" d="M.988 0A.99.99 0 0 0 0 .976a.988.988 0 0 0 1.976 0A.99.99 0 0 0 .988 0" class="prefix__cls-1" data-name="Fill 511" transform="translate(15.375 30.418)"/>
                <path id="prefix__Fill_513" d="M.991.031a.99.99 0 0 1 .988.976V.991A.991.991 0 0 0 0 .991v.016A.99.99 0 0 1 .991.031" class="prefix__cls-1" data-name="Fill 513" transform="translate(19.337 30.387)"/>
                <path id="prefix__Fill_515" d="M.988 1.952a.99.99 0 0 0 .988-.976.988.988 0 0 0-1.976 0 .99.99 0 0 0 .988.976" class="prefix__cls-1" data-name="Fill 515" transform="translate(19.34 30.418)"/>
                <path id="prefix__Fill_517" d="M.992.031a.99.99 0 0 1 .988.976V.991a.992.992 0 0 0-1.98 0v.016A.99.99 0 0 1 .992.031" class="prefix__cls-1" data-name="Fill 517" transform="translate(23.302 30.387)"/>
                <path id="prefix__Fill_519" d="M.988 1.952a.99.99 0 0 0 .988-.976.988.988 0 0 0-1.976 0 .99.99 0 0 0 .988.976" class="prefix__cls-1" data-name="Fill 519" transform="translate(23.306 30.418)"/>
                <path id="prefix__Fill_521" d="M.992 0A.991.991 0 0 0 0 .992a.141.141 0 0 0 0 .015.988.988 0 0 1 1.976 0V.992A.991.991 0 0 0 .992 0" class="prefix__cls-1" data-name="Fill 521" transform="translate(27.268 30.387)"/>
                <path id="prefix__Fill_523" d="M.988 0A.99.99 0 0 0 0 .976a.988.988 0 0 0 1.976 0A.99.99 0 0 0 .988 0" class="prefix__cls-1" data-name="Fill 523" transform="translate(27.272 30.418)"/>
                <path id="prefix__Fill_525" d="M0 0a.991.991 0 0 1 .989.992.091.091 0 0 1 0 .014V.991A.991.991 0 0 0 0 0" class="prefix__cls-1" data-name="Fill 525" transform="translate(32.223 30.387)"/>
                <path id="prefix__Fill_527" d="M.388.39C.388.4.39.4.39.4a.083.083 0 0 0 0-.015.091.091 0 0 0 0-.014v.014" class="prefix__cls-1" data-name="Fill 527" transform="translate(32.821 31.004)"/>
                <path id="prefix__Fill_529" d="M0 .976A.988.988 0 0 0 .988.015V0A.99.99 0 0 1 0 .976" class="prefix__cls-1" data-name="Fill 529" transform="translate(32.223 31.393)"/>
                <path id="prefix__Fill_531" d="M0 .991a.989.989 0 0 1 .986-.96h.006a.988.988 0 0 1 .985.962A.988.988 0 1 0 0 .991" class="prefix__cls-1" data-name="Fill 531" transform="translate(31.234 30.387)"/>
                <path id="prefix__Fill_533" d="M.988 0A.989.989 0 0 0 0 .962a.091.091 0 0 0 0 .014A.989.989 0 0 1 .988 0" class="prefix__cls-1" data-name="Fill 533" transform="translate(31.234 30.418)"/>
                <path id="prefix__Fill_535" d="M0 0a.99.99 0 0 1 .986.976V.962A.988.988 0 0 0 0 0" class="prefix__cls-1" data-name="Fill 535" transform="translate(32.223 30.418)"/>
                <path id="prefix__Fill_537" d="M.985 0A.989.989 0 0 0 0 .975a.985.985 0 0 0 1.971 0A.99.99 0 0 0 .985 0" class="prefix__cls-1" data-name="Fill 537" transform="translate(31.238 30.419)"/>
                <path id="prefix__Fill_539" d="M.991 0a.992.992 0 1 0 .992.992A.992.992 0 0 0 .991 0" class="prefix__cls-1" data-name="Fill 539" transform="translate(1.492 33.361)"/>
                <path id="prefix__Fill_541" d="M.991 1.983A.992.992 0 1 0 0 .991a.992.992 0 0 0 .991.992" class="prefix__cls-1" data-name="Fill 541" transform="translate(5.457 33.361)"/>
                <path id="prefix__Fill_543" d="M.991 1.983A.992.992 0 1 0 0 .991a.992.992 0 0 0 .991.992" class="prefix__cls-1" data-name="Fill 543" transform="translate(9.423 33.361)"/>
                <path id="prefix__Fill_545" d="M.991 0a.992.992 0 1 0 .992.992A.991.991 0 0 0 .991 0" class="prefix__cls-1" data-name="Fill 545" transform="translate(13.389 33.361)"/>
                <path id="prefix__Fill_547" d="M.992 0a.992.992 0 1 0 .992.992A.992.992 0 0 0 .992 0" class="prefix__cls-1" data-name="Fill 547" transform="translate(17.354 33.361)"/>
                <path id="prefix__Fill_549" d="M.992 1.983A.992.992 0 1 0 0 .991a.991.991 0 0 0 .992.992" class="prefix__cls-1" data-name="Fill 549" transform="translate(21.319 33.361)"/>
                <path id="prefix__Fill_551" d="M.992 1.983A.992.992 0 1 0 0 .991a.991.991 0 0 0 .992.992" class="prefix__cls-1" data-name="Fill 551" transform="translate(25.285 33.361)"/>
                <path id="prefix__Fill_553" d="M.992 1.983A.992.992 0 1 0 0 .991a.992.992 0 0 0 .992.992" class="prefix__cls-1" data-name="Fill 553" transform="translate(29.251 33.361)"/>
                <path id="prefix__Fill_555" d="M.244 0c.062.373.125.745.2 1.113A.977.977 0 0 0 .537.7.99.99 0 0 0 .244 0" class="prefix__cls-1" data-name="Fill 555" transform="translate(.955 36.624)"/>
                <path id="prefix__Fill_557" d="M.991 1.983A.992.992 0 1 0 0 .991a.991.991 0 0 0 .991.992" class="prefix__cls-1" data-name="Fill 557" transform="translate(3.474 36.335)"/>
                <path id="prefix__Fill_559" d="M.991 0a.992.992 0 1 0 .992.992A.991.991 0 0 0 .991 0" class="prefix__cls-1" data-name="Fill 559" transform="translate(7.44 36.335)"/>
                <path id="prefix__Fill_561" d="M.991 1.983A.992.992 0 1 0 0 .991a.991.991 0 0 0 .991.992" class="prefix__cls-1" data-name="Fill 561" transform="translate(11.406 36.335)"/>
                <path id="prefix__Fill_563" d="M.991 0a.992.992 0 1 0 .991.992A.991.991 0 0 0 .991 0" class="prefix__cls-1" data-name="Fill 563" transform="translate(15.372 36.335)"/>
                <path id="prefix__Fill_565" d="M.991 0a.992.992 0 1 0 .991.992A.991.991 0 0 0 .991 0" class="prefix__cls-1" data-name="Fill 565" transform="translate(19.337 36.335)"/>
                <path id="prefix__Fill_567" d="M.992 1.983A.992.992 0 1 0 0 .991a.991.991 0 0 0 .992.992" class="prefix__cls-1" data-name="Fill 567" transform="translate(23.302 36.335)"/>
                <path id="prefix__Fill_569" d="M.992 1.983A.992.992 0 1 0 0 .991a.991.991 0 0 0 .992.992" class="prefix__cls-1" data-name="Fill 569" transform="translate(27.268 36.335)"/>
                <path id="prefix__Fill_571" d="M0 0a.991.991 0 0 1 .989.992.991.991 0 0 1-.989.99.991.991 0 0 0 .994-.99A.991.991 0 0 0 0 0" class="prefix__cls-1" data-name="Fill 571" transform="translate(32.223 36.335)"/>
                <path id="prefix__Fill_573" d="M1.977.991a.988.988 0 1 0-.989.991.992.992 0 0 0 .989-.991" class="prefix__cls-1" data-name="Fill 573" transform="translate(31.234 36.335)"/>
                <path id="prefix__Fill_575" d="M1.647.992A.992.992 0 0 0 .655 0 .976.976 0 0 0 0 .26c.151.571.322 1.135.5 1.692a.881.881 0 0 0 .15.031.992.992 0 0 0 .997-.991" class="prefix__cls-1" data-name="Fill 575" transform="translate(1.828 39.309)"/>
                <path id="prefix__Fill_577" d="M.991 1.982A.991.991 0 1 0 0 .991a.991.991 0 0 0 .991.991" class="prefix__cls-1" data-name="Fill 577" transform="translate(5.457 39.31)"/>
                <path id="prefix__Fill_579" d="M.991 0a.991.991 0 1 0 .992.992A.991.991 0 0 0 .991 0" class="prefix__cls-1" data-name="Fill 579" transform="translate(9.423 39.31)"/>
                <path id="prefix__Fill_581" d="M.991 1.982A.991.991 0 1 0 0 .991a.991.991 0 0 0 .991.991" class="prefix__cls-1" data-name="Fill 581" transform="translate(13.389 39.31)"/>
                <path id="prefix__Fill_583" d="M.992 1.982A.991.991 0 1 0 0 .991a.991.991 0 0 0 .992.991" class="prefix__cls-1" data-name="Fill 583" transform="translate(17.354 39.31)"/>
                <path id="prefix__Fill_585" d="M.992 1.982A.991.991 0 1 0 0 .991a.991.991 0 0 0 .992.991" class="prefix__cls-1" data-name="Fill 585" transform="translate(21.319 39.31)"/>
                <path id="prefix__Fill_587" d="M.992 0a.991.991 0 1 0 .991.992A.991.991 0 0 0 .992 0" class="prefix__cls-1" data-name="Fill 587" transform="translate(25.285 39.31)"/>
                <path id="prefix__Fill_589" d="M.992 1.982A.991.991 0 1 0 0 .991a.991.991 0 0 0 .992.991" class="prefix__cls-1" data-name="Fill 589" transform="translate(29.251 39.31)"/>
                <path id="prefix__Fill_591" d="M.991 0a.991.991 0 1 0 .992.992A.991.991 0 0 0 .991 0" class="prefix__cls-1" data-name="Fill 591" transform="translate(3.474 42.284)"/>
                <path id="prefix__Fill_593" d="M.991 1.982A.991.991 0 1 0 0 .991a.991.991 0 0 0 .991.991" class="prefix__cls-1" data-name="Fill 593" transform="translate(7.44 42.284)"/>
                <path id="prefix__Fill_595" d="M.991 1.982A.991.991 0 1 0 0 .991a.991.991 0 0 0 .991.991" class="prefix__cls-1" data-name="Fill 595" transform="translate(11.406 42.284)"/>
                <path id="prefix__Fill_597" d="M.991 1.982A.991.991 0 1 0 0 .991a.991.991 0 0 0 .991.991" class="prefix__cls-1" data-name="Fill 597" transform="translate(15.372 42.284)"/>
                <path id="prefix__Fill_599" d="M.991 1.982A.991.991 0 1 0 0 .991a.991.991 0 0 0 .991.991" class="prefix__cls-1" data-name="Fill 599" transform="translate(19.337 42.284)"/>
                <path id="prefix__Fill_601" d="M.992 1.982A.991.991 0 1 0 0 .991a.991.991 0 0 0 .992.991" class="prefix__cls-1" data-name="Fill 601" transform="translate(23.302 42.284)"/>
                <path id="prefix__Fill_603" d="M.992 1.982A.991.991 0 1 0 0 .991a.991.991 0 0 0 .992.991" class="prefix__cls-1" data-name="Fill 603" transform="translate(27.268 42.284)"/>
                <path id="prefix__Fill_605" d="M.989.992A.992.992 0 0 1 0 1.983.991.991 0 0 0 .994.992.991.991 0 0 0 0 0a.991.991 0 0 1 .989.992" class="prefix__cls-1" data-name="Fill 605" transform="translate(32.222 42.283)"/>
                <path id="prefix__Fill_607" d="M0 .991A.988.988 0 1 0 .989 0 .992.992 0 0 0 0 .991" class="prefix__cls-1" data-name="Fill 607" transform="translate(31.234 42.284)"/>
                <path id="prefix__Fill_609" d="M.991 0a.992.992 0 1 0 .992.992A.992.992 0 0 0 .991 0" class="prefix__cls-1" data-name="Fill 609" transform="translate(5.457 45.258)"/>
                <path id="prefix__Fill_611" d="M.991 1.983A.992.992 0 1 0 0 .991a.992.992 0 0 0 .991.992" class="prefix__cls-1" data-name="Fill 611" transform="translate(9.423 45.258)"/>
                <path id="prefix__Fill_613" d="M.991 1.983A.992.992 0 1 0 0 .991a.992.992 0 0 0 .991.992" class="prefix__cls-1" data-name="Fill 613" transform="translate(13.389 45.258)"/>
                <path id="prefix__Fill_615" d="M.992 0a.992.992 0 1 0 .992.992A.992.992 0 0 0 .992 0" class="prefix__cls-1" data-name="Fill 615" transform="translate(17.354 45.258)"/>
                <path id="prefix__Fill_617" d="M.992 0a.992.992 0 1 0 .991.992A.992.992 0 0 0 .992 0" class="prefix__cls-1" data-name="Fill 617" transform="translate(21.319 45.258)"/>
                <path id="prefix__Fill_619" d="M.992 1.983A.992.992 0 1 0 0 .991a.991.991 0 0 0 .992.992" class="prefix__cls-1" data-name="Fill 619" transform="translate(25.285 45.258)"/>
                <path id="prefix__Fill_621" d="M.992 1.983A.992.992 0 1 0 0 .991a.992.992 0 0 0 .992.992" class="prefix__cls-1" data-name="Fill 621" transform="translate(29.251 45.258)"/>
                <path id="prefix__Fill_623" d="M.991 0a.992.992 0 1 0 .992.992A.991.991 0 0 0 .991 0" class="prefix__cls-1" data-name="Fill 623" transform="translate(7.44 48.232)"/>
                <path id="prefix__Fill_625" d="M.991 0a.992.992 0 1 0 .992.992A.991.991 0 0 0 .991 0" class="prefix__cls-1" data-name="Fill 625" transform="translate(11.406 48.232)"/>
                <path id="prefix__Fill_627" d="M.991 1.983A.992.992 0 1 0 0 .991a.991.991 0 0 0 .991.992" class="prefix__cls-1" data-name="Fill 627" transform="translate(15.372 48.232)"/>
                <path id="prefix__Fill_629" d="M.991 1.983A.992.992 0 1 0 0 .991a.991.991 0 0 0 .991.992" class="prefix__cls-1" data-name="Fill 629" transform="translate(19.337 48.232)"/>
                <path id="prefix__Fill_631" d="M.992 1.983A.992.992 0 1 0 0 .991a.991.991 0 0 0 .992.992" class="prefix__cls-1" data-name="Fill 631" transform="translate(23.302 48.232)"/>
                <path id="prefix__Fill_633" d="M.992 0a.992.992 0 1 0 .991.992A.992.992 0 0 0 .992 0" class="prefix__cls-1" data-name="Fill 633" transform="translate(27.268 48.232)"/>
                <path id="prefix__Fill_635" d="M.989.992A.992.992 0 0 1 0 1.983.992.992 0 0 0 0 0a.992.992 0 0 1 .989.992" class="prefix__cls-1" data-name="Fill 635" transform="translate(32.222 48.231)"/>
                <path id="prefix__Fill_637" d="M0 .991A.988.988 0 1 0 .989 0 .992.992 0 0 0 0 .991" class="prefix__cls-1" data-name="Fill 637" transform="translate(31.234 48.232)"/>
                <path id="prefix__Fill_639" d="M.991 0a.991.991 0 1 0 .992.991A.991.991 0 0 0 .991 0" class="prefix__cls-1" data-name="Fill 639" transform="translate(9.423 51.207)"/>
                <path id="prefix__Fill_641" d="M.991 0a.991.991 0 1 0 .992.991A.991.991 0 0 0 .991 0" class="prefix__cls-1" data-name="Fill 641" transform="translate(13.389 51.207)"/>
                <path id="prefix__Fill_643" d="M.992 1.982A.991.991 0 1 0 0 .99a.991.991 0 0 0 .992.992" class="prefix__cls-1" data-name="Fill 643" transform="translate(17.354 51.207)"/>
                <path id="prefix__Fill_645" d="M.992 1.982A.991.991 0 1 0 0 .99a.991.991 0 0 0 .992.992" class="prefix__cls-1" data-name="Fill 645" transform="translate(21.319 51.207)"/>
                <path id="prefix__Fill_647" d="M.992 1.982A.991.991 0 1 0 0 .99a.991.991 0 0 0 .992.992" class="prefix__cls-1" data-name="Fill 647" transform="translate(25.285 51.207)"/>
                <path id="prefix__Fill_649" d="M.992 1.982A.991.991 0 1 0 0 .99a.991.991 0 0 0 .992.992" class="prefix__cls-1" data-name="Fill 649" transform="translate(29.251 51.207)"/>
                <path id="prefix__Fill_651" d="M1.951.991A.992.992 0 0 0 .959 0 .978.978 0 0 0 0 .835q.636.556 1.3 1.079a.986.986 0 0 0 .65-.923" class="prefix__cls-1" data-name="Fill 651" transform="translate(11.438 54.18)"/>
                <path id="prefix__Fill_653" d="M.991 0a.991.991 0 1 0 .991.991A.991.991 0 0 0 .991 0" class="prefix__cls-1" data-name="Fill 653" transform="translate(15.372 54.181)"/>
                <path id="prefix__Fill_655" d="M.991 0a.991.991 0 1 0 .991.991A.991.991 0 0 0 .991 0" class="prefix__cls-1" data-name="Fill 655" transform="translate(19.337 54.181)"/>
                <path id="prefix__Fill_657" d="M.992 0a.991.991 0 1 0 .991.991A.991.991 0 0 0 .992 0" class="prefix__cls-1" data-name="Fill 657" transform="translate(23.302 54.181)"/>
                <path id="prefix__Fill_659" d="M.992 1.982A.991.991 0 1 0 0 .99a.991.991 0 0 0 .992.992" class="prefix__cls-1" data-name="Fill 659" transform="translate(27.268 54.181)"/>
                <path id="prefix__Fill_661" d="M.989.991A.991.991 0 0 1 0 1.982.991.991 0 0 0 .994.991.991.991 0 0 0 0 0a.993.993 0 0 1 .989.991" class="prefix__cls-1" data-name="Fill 661" transform="translate(32.222 54.18)"/>
                <path id="prefix__Fill_663" d="M0 .991A.988.988 0 1 0 .989 0 .991.991 0 0 0 0 .991" class="prefix__cls-1" data-name="Fill 663" transform="translate(31.234 54.18)"/>
                <path id="prefix__Fill_665" d="M.164.007A.968.968 0 0 0 0 .04q.547.379 1.11.733A.977.977 0 0 0 .164.007" class="prefix__cls-1" data-name="Fill 665" transform="translate(14.216 57.148)"/>
                <path id="prefix__Fill_667" d="M.992 0a.992.992 0 1 0 .992.992A.991.991 0 0 0 .992 0" class="prefix__cls-1" data-name="Fill 667" transform="translate(17.354 57.155)"/>
                <path id="prefix__Fill_669" d="M.992 0a.992.992 0 1 0 .991.992A.991.991 0 0 0 .992 0" class="prefix__cls-1" data-name="Fill 669" transform="translate(21.319 57.155)"/>
                <path id="prefix__Fill_671" d="M.992 0a.992.992 0 1 0 .991.992A.991.991 0 0 0 .992 0" class="prefix__cls-1" data-name="Fill 671" transform="translate(25.285 57.155)"/>
                <path id="prefix__Fill_673" d="M.992 0a.992.992 0 1 0 .991.992A.991.991 0 0 0 .992 0" class="prefix__cls-1" data-name="Fill 673" transform="translate(29.251 57.155)"/>
                <path id="prefix__Fill_675" d="M.5.027a.967.967 0 0 0-.5.157q.712.3 1.442.57A.978.978 0 0 0 .5.027" class="prefix__cls-1" data-name="Fill 675" transform="translate(19.824 60.102)"/>
                <path id="prefix__Fill_677" d="M1.983.992A.992.992 0 1 0 0 .992a.974.974 0 0 0 .1.42q.719.206 1.45.377a.975.975 0 0 0 .432-.8" class="prefix__cls-1" data-name="Fill 677" transform="translate(23.302 60.129)"/>
                <path id="prefix__Fill_679" d="M.992 0a.992.992 0 1 0 .991.992A.992.992 0 0 0 .992 0" class="prefix__cls-1" data-name="Fill 679" transform="translate(27.268 60.129)"/>
                <path id="prefix__Fill_681" d="M0 0a.991.991 0 0 1 .989.992.991.991 0 0 1-.989.99.991.991 0 0 0 .994-.99A.991.991 0 0 0 0 0" class="prefix__cls-1" data-name="Fill 681" transform="translate(32.223 60.129)"/>
                <path id="prefix__Fill_683" d="M1.977.991a.988.988 0 1 0-.989.991.992.992 0 0 0 .989-.991" class="prefix__cls-1" data-name="Fill 683" transform="translate(31.234 60.129)"/>
            </g>
            <path id="prefix__Fill_686" d="M3.806 5.623L0 14.1l4.412 3.03c.038 1.5.02 3.124-.087 4.861-.108 1.768-.293 3.412-.519 4.916a21.079 21.079 0 0 0 12.741 6.7 21.153 21.153 0 0 0 14.6-3.589c-.277-1.378-.588-3.138-.844-5.191a71.087 71.087 0 0 1-.541-7.873q.3-4.715.606-9.431L29.068 0l-8.391 2.9-5.883.994z" class="prefix__cls-9" data-name="Fill 686" transform="translate(15.698 38.348)"/>
            <path id="prefix__Fill_688" d="M0 8.242l.735 1.622 11.953 1.946 8.922.454a7.541 7.541 0 0 0 3.958-.389 7.847 7.847 0 0 0 3.342-2.562 10.514 10.514 0 0 0 1.88-3.927A16.521 16.521 0 0 0 31.472 0l-6.037.174L25.2 3.4l-.735 1.99-1.9.887z" class="prefix__cls-9" data-name="Fill 688" transform="translate(20.694 47.755)"/>
            <path id="prefix__Fill_690" d="M32.508 7.065c-2.22.439-4.228.805-5.98 1.111-1.054.183-3.378.582-6.4 1.038-2.406.363-3.72.56-5.537.778a72.457 72.457 0 0 1-8.392.649c-4.31.031-5.027-.472-5.418-.908C-.257 8.578-.04 6.754.2 4.77A15.105 15.105 0 0 1 1.59 0L8.6.066c-.3.9-.585 1.831-.86 2.806Q7.448 3.908 7.2 4.9" class="prefix__cls-9" data-name="Fill 690" transform="translate(12.033 46.782)"/>
            <path id="prefix__Fill_692" d="M6.1 11.191c-4.007 0-4.793-.493-5.249-1C-.27 8.944-.043 7.035.2 5.012A15.339 15.339 0 0 1 1.617.156L1.692 0l7.556.071-.118.356c-.305.921-.593 1.861-.856 2.793q-.289 1.031-.533 2.02a.273.273 0 1 1-.53-.131q.246-1 .537-2.036c.232-.822.482-1.648.747-2.462L2.035.55a14.791 14.791 0 0 0-1.3 4.526c-.225 1.9-.437 3.687.516 4.75.267.3.768.84 5.214.818A72.728 72.728 0 0 0 14.829 10c1.832-.219 3.145-.418 5.529-.777 2.156-.325 4.368-.684 6.4-1.037 2-.349 4.009-.722 5.974-1.111a.277.277 0 0 1 .321.215.273.273 0 0 1-.215.321c-1.97.389-3.984.763-5.986 1.112-2.032.354-4.248.713-6.409 1.039-2.389.361-3.7.559-5.545.78a73 73 0 0 1-8.422.651h-.375" class="prefix__cls-10" data-name="Fill 692" transform="translate(11.76 46.507)"/>
            <path id="prefix__Fill_694" d="M11.756 19.554a4.186 4.186 0 0 0 .328 3.083 4.363 4.363 0 0 0 2.4 1.85 22.292 22.292 0 0 0-4.808 7.2c-.367.937-.851 2.38-1.6 2.4s-1.307-1.358-1.83-2.467a33.371 33.371 0 0 0-4.332-6.814c-.133.047-.265.1-.406.156a4.987 4.987 0 0 0 2.014-1.42 5.671 5.671 0 0 0 1.233-4.121 13.006 13.006 0 0 1-4.16-5.971 12.168 12.168 0 0 1-.562-4.628A5.872 5.872 0 0 1 .728 5.88c1.428-2.114 4.3-.522 7.618-2.849C10.624 1.424 10.975-.074 12.318 0c2.443.14 3.856 5.222 3.98 5.705a13.5 13.5 0 0 1-.258 7.446 14.173 14.173 0 0 1-4.285 6.4" class="prefix__cls-9" data-name="Fill 694" transform="translate(25.265 7.289)"/>
            <path id="prefix__Fill_696" d="M8.371 34.652h-.029c-.846 0-1.4-1.183-1.93-2.327l-.14-.3a33.312 33.312 0 0 0-4.169-6.6l-.017.007-.062.023-.065.026-.02.008c-.016.007-.033.013-.049.018l-.2-.527.064-.026a4.688 4.688 0 0 0 1.835-1.314 5.411 5.411 0 0 0 1.175-3.794A13.186 13.186 0 0 1 .608 13.82 12.565 12.565 0 0 1 .032 9.1l.01-.1a5.874 5.874 0 0 1 .733-3c.789-1.163 1.957-1.3 3.309-1.465a8.721 8.721 0 0 0 4.381-1.453 12.462 12.462 0 0 0 2.043-1.842C11.155.547 11.667 0 12.5 0h.116c2.674.157 4.084 5.33 4.237 5.919a13.835 13.835 0 0 1-.262 7.6 14.409 14.409 0 0 1-4.3 6.47 3.851 3.851 0 0 0 .322 2.787 4.12 4.12 0 0 0 2.235 1.724l.448.13-.323.337a22.379 22.379 0 0 0-4.749 7.1l-.1.254c-.392 1.027-.883 2.303-1.753 2.331zM12.519.566c-.579 0-.965.383-1.6 1.061a13.041 13.041 0 0 1-2.13 1.917A9.3 9.3 0 0 1 4.152 5.1c-1.265.151-2.263.27-2.908 1.224A5.448 5.448 0 0 0 .6 9.047v.083a12.007 12.007 0 0 0 .55 4.515 12.61 12.61 0 0 0 4.07 5.838l.093.075.01.12a5.975 5.975 0 0 1-1.3 4.33 5.322 5.322 0 0 1-1.4 1.157 33.815 33.815 0 0 1 4.164 6.617l.142.3v.007c.392.842.929 2 1.413 2h.011c.5-.016.965-1.237 1.246-1.966l.1-.258a22.708 22.708 0 0 1 4.566-6.97 4.659 4.659 0 0 1-2.145-1.833 4.471 4.471 0 0 1-.355-3.3l.023-.084.067-.058a13.821 13.821 0 0 0 4.2-6.271 13.276 13.276 0 0 0 .254-7.285C16.294 6.011 14.889.7 12.584.567z" class="prefix__cls-10" data-name="Fill 696" transform="translate(24.983 7.007)"/>
            <path id="prefix__Fill_698" d="M0 11.3c0 6.239 3.768 11.3 8.416 11.3s8.416-5.058 8.416-11.3S13.065 0 8.416 0 0 5.058 0 11.3" class="prefix__cls-9" data-name="Fill 698" transform="translate(25.164 5.024)"/>
            <path id="prefix__Fill_700" d="M8.7 23.161c-4.8 0-8.7-5.194-8.7-11.579S3.9 0 8.7 0s8.7 5.2 8.7 11.581-3.9 11.58-8.7 11.58zM8.7.566C4.215.566.566 5.507.566 11.581S4.215 22.6 8.7 22.6s8.133-4.941 8.133-11.015S13.184.566 8.7.566z" class="prefix__cls-10" data-name="Fill 700" transform="translate(24.881 4.741)"/>
            <path id="prefix__Fill_702" d="M33.782 23.447a13.283 13.283 0 0 1-3.859 5.289 7.66 7.66 0 0 1-4.836 2.087h-.031a2.316 2.316 0 0 1-.617-.1 4.363 4.363 0 0 1-2.4-1.85 4.186 4.186 0 0 1-.328-3.083 14.173 14.173 0 0 0 4.285-6.4 13.5 13.5 0 0 0 .258-7.446c-.125-.483-1.538-5.565-3.98-5.705-1.346-.079-1.697 1.42-3.974 3.027-3.317 2.327-6.189.734-7.618 2.849a5.872 5.872 0 0 0-.695 2.942 12.168 12.168 0 0 0 .562 4.628 13.006 13.006 0 0 0 4.16 5.971 5.671 5.671 0 0 1-1.233 4.121A4.987 4.987 0 0 1 11.46 31.2a.059.059 0 0 0-.031.016 7.966 7.966 0 0 1-1.655.414 8.249 8.249 0 0 1-6.384-1.986 1.547 1.547 0 0 0-.148-.14C.4 26.941.164 23.039.042 21.636c-.508-5.86 3.692-12.33 8-16.258C10.624 3.019 14.2-.245 19.112.015a13.189 13.189 0 0 1 7.613 3.374c5.884 4.66 9.612 13.5 7.057 20.059" class="prefix__cls-11" data-name="Fill 702" transform="translate(15.313 1.054)"/>
            <g id="prefix__Group_706" data-name="Group 706" transform="translate(14.829 .325)">
                <path id="prefix__Clip_705-2" d="M0 0h35.118v32.261H0z" class="prefix__cls-2" data-name="Clip 705" transform="translate(.209 .455)"/>
                <g id="prefix__Group_706-2" data-name="Group 706">
                    <path id="prefix__Fill_704" d="M8.968 32.261a8.907 8.907 0 0 1-5.484-2.137l-.093-.092-.007-.006-.007-.006C.508 27.436.192 23.69.057 22.091l-.013-.157C-.5 15.708 4.061 9.163 8.128 5.45 10.65 3.148 14.1 0 18.828 0c.189 0 .382.005.572.015a13.452 13.452 0 0 1 7.769 3.433c7.213 5.714 9.3 14.845 7.142 20.372a13.552 13.552 0 0 1-3.938 5.4 8.175 8.175 0 0 1-4.826 2.154c-.067 0-.134 0-.2-.005a2.618 2.618 0 0 1-.716-.113 4.57 4.57 0 0 1-2.558-1.976 4.457 4.457 0 0 1-.354-3.289l.022-.081.064-.055a13.829 13.829 0 0 0 4.2-6.276 13.288 13.288 0 0 0 .255-7.291c-.013-.054-1.406-5.371-3.732-5.5h-.1c-.557 0-.9.346-1.575 1.065l-.01.01a12.956 12.956 0 0 1-2.12 1.907 9.3 9.3 0 0 1-4.635 1.551c-1.267.152-2.268.272-2.913 1.228a5.427 5.427 0 0 0-.642 2.73l-.008.085a11.95 11.95 0 0 0 .551 4.518 12.63 12.63 0 0 0 4.072 5.844l.09.072.01.115a5.962 5.962 0 0 1-1.3 4.322 5.251 5.251 0 0 1-2.1 1.489l-.058.027a8.3 8.3 0 0 1-1.69.425h-.019a7.165 7.165 0 0 1-1.113.085zM18.834.547c-4.522 0-7.883 3.068-10.334 5.307C4.522 9.481.066 15.856.588 21.887l.013.156c.13 1.536.433 5.132 3.1 7.532l.03.027c.05.046.09.082.121.116a8.343 8.343 0 0 0 5.12 2 6.551 6.551 0 0 0 1.035-.082h.005a7.794 7.794 0 0 0 1.544-.38l.039-.036.068-.009a4.705 4.705 0 0 0 1.879-1.333 5.338 5.338 0 0 0 1.176-3.806 13.17 13.17 0 0 1-4.156-6.024 12.506 12.506 0 0 1-.576-4.72l.01-.1a5.852 5.852 0 0 1 .733-2.986c.785-1.164 1.951-1.3 3.3-1.464h.008a8.715 8.715 0 0 0 4.378-1.455 12.381 12.381 0 0 0 2.044-1.843c.672-.719 1.157-1.238 1.977-1.238h.124c2.657.153 4.076 5.321 4.229 5.909a13.887 13.887 0 0 1-.262 7.6 14.391 14.391 0 0 1-4.3 6.468 3.916 3.916 0 0 0 .323 2.8 4.092 4.092 0 0 0 2.241 1.722 2.092 2.092 0 0 0 .551.091h.157a7.687 7.687 0 0 0 4.524-2.032 12.96 12.96 0 0 0 3.777-5.179c2.618-6.712-1.58-15.475-6.97-19.744A12.968 12.968 0 0 0 19.372.562c-.179-.01-.36-.015-.538-.015z" class="prefix__cls-10" data-name="Fill 704" transform="translate(.209 .455)"/>
                </g>
            </g>
            <path id="prefix__Fill_707" d="M.273 8.8a.273.273 0 0 1-.263-.345 27.556 27.556 0 0 0 .9-4.739A27.44 27.44 0 0 0 1.038.279.273.273 0 0 1 1.3 0a.294.294 0 0 1 .28.265 28.108 28.108 0 0 1-.131 3.506A28.135 28.135 0 0 1 .536 8.6a.274.274 0 0 1-.263.2" class="prefix__cls-10" data-name="Fill 707" transform="translate(18.939 57.147)"/>
            <path id="prefix__Fill_709" d="M1.177 8.576a49.075 49.075 0 0 1-.866-4.93C.154 2.364.055 1.145 0 0" class="prefix__cls-9" data-name="Fill 709" transform="translate(45.839 59.857)"/>
            <path id="prefix__Fill_711" d="M1.45 9.122a.273.273 0 0 1-.266-.212 49.477 49.477 0 0 1-.87-4.958C.164 2.74.059 1.506 0 .286A.273.273 0 0 1 .26 0a.3.3 0 0 1 .286.261C.6 1.467.708 2.686.856 3.885a48.857 48.857 0 0 0 .861 4.9.273.273 0 0 1-.205.327.241.241 0 0 1-.062.007" class="prefix__cls-10" data-name="Fill 711" transform="translate(45.566 59.583)"/>
            <path id="prefix__Fill_713" d="M0 0q5.85.208 12.027.637 8.094.57 15.6 1.452" data-name="Fill 713" transform="translate(16.974 51.628)" style="fill:#76fa9a"/>
            <path id="prefix__Fill_715" d="M27.9 2.635a.22.22 0 0 1-.032 0c-5.163-.6-10.406-1.087-15.584-1.45C8.291.9 4.248.688.264.546A.274.274 0 0 1 0 .263.281.281 0 0 1 .283 0C4.274.142 8.324.357 12.32.637c5.186.365 10.437.855 15.609 1.454a.273.273 0 0 1-.031.544" class="prefix__cls-10" data-name="Fill 715" transform="translate(16.701 51.355)"/>
            <path id="prefix__Fill_717" d="M.273 4.567a.273.273 0 0 1-.244-.4 9.986 9.986 0 0 0 .859-2.4A9.994 9.994 0 0 0 1.1.257.282.282 0 0 1 1.388 0a.274.274 0 0 1 .256.29 10.5 10.5 0 0 1-.222 1.6 10.551 10.551 0 0 1-.905 2.528.272.272 0 0 1-.244.149" class="prefix__cls-10" data-name="Fill 717" transform="translate(44.285 49.537)"/>
            <path id="prefix__Fill_719" d="M0 5.11c2.182-1.026 3.007-2.955 2.486-4.018C2.065.235.819.04.527 0a14.714 14.714 0 0 1-.009 2.238A14.747 14.747 0 0 1 0 5.11" class="prefix__cls-9" data-name="Fill 719" transform="translate(41.412 15.159)"/>
            <path id="prefix__Fill_721" d="M0 6.043l.187-.657A14.527 14.527 0 0 0 .7 2.574 14.5 14.5 0 0 0 .7.382L.676 0l.379.05a2.89 2.89 0 0 1 2.2 1.264 2.273 2.273 0 0 1 .018 1.75A4.96 4.96 0 0 1 .62 5.751L0 6.042zM1.348.738a14.992 14.992 0 0 1-.033 1.885 15.083 15.083 0 0 1-.347 2.229 4.048 4.048 0 0 0 1.715-1.995 1.659 1.659 0 0 0 .011-1.269 1.972 1.972 0 0 0-1.346-.85z" class="prefix__cls-10" data-name="Fill 721" transform="translate(40.925 14.8)"/>
            <path id="prefix__Fill_723" d="M2.365 5.142C.328 4.109-.383 2.167.193 1.086A2.67 2.67 0 0 1 2.186 0a14.7 14.7 0 0 0 .179 5.142" class="prefix__cls-9" data-name="Fill 723" transform="translate(23.203 14.711)"/>
            <path id="prefix__Fill_725" d="M3.117 6.069l-.579-.293A4.637 4.637 0 0 1 .143 3.15 2.4 2.4 0 0 1 .23 1.294 2.9 2.9 0 0 1 2.462.045L2.863 0l-.056.4a14.391 14.391 0 0 0 .175 5.035l.135.634zM2.137.733a2.009 2.009 0 0 0-1.357.854 1.791 1.791 0 0 0-.044 1.375 3.787 3.787 0 0 0 1.507 1.917A15.018 15.018 0 0 1 2.137.733z" class="prefix__cls-10" data-name="Fill 725" transform="translate(22.891 14.356)"/>
            <path id="prefix__Fill_727" d="M21.555 17.957h-.279a69.04 69.04 0 0 1-7.3-.305C9.538 17.1 4.912 16.416.227 15.617a.273.273 0 0 1 .092-.539c4.677.8 9.294 1.481 13.723 2.03a68.294 68.294 0 0 0 7.235.3c3.392 0 4.556-.178 5.738-.912a8.123 8.123 0 0 0 2.837-3.644C31.879 8.43 31.559 3.6 30.934.323A.273.273 0 0 1 31.151 0a.277.277 0 0 1 .32.217c.639 3.353.965 8.306-1.121 12.861a8.648 8.648 0 0 1-3.05 3.886c-1.354.84-2.828.993-5.749.993" class="prefix__cls-10" data-name="Fill 727" transform="translate(20.226 42.206)"/>
            <path id="prefix__Fill_729" d="M9.089 16.823c-1.106.962-2.814.67-4.455.389-2.221-.38-4.056-.695-4.542-1.882-.349-.852.158-1.757 4.109-6.77C7.81 3.982 8.424 3.422 9.262 2.852A14.389 14.389 0 0 1 15.87.492l.437-.172a29.344 29.344 0 0 1 4.332 6.814c.45 1.007.985 2.219 1.687 2.206.578-.011.84-.849 2.249-3.4a30.574 30.574 0 0 1 2.164-3.526A18.2 18.2 0 0 1 28.88 0c.068.01.169.025.29.045a16.83 16.83 0 0 1 8.684 4.32c.742.715 1.814 2.488 3.959 6.035 2.226 3.682 2.5 4.589 2.185 5.471-.628 1.769-3.2 2.3-4.456 2.553-1.607.329-4.626.51-5.409-.908-.288-.521-.037-.827-.066-2.271a12.26 12.26 0 0 0-.539-3.4" class="prefix__cls-9" data-name="Fill 729" transform="translate(10.872 31.776)"/>
            <path id="prefix__Fill_731" d="M37.553 19.218c-1.413 0-2.843-.3-3.384-1.281a1.754 1.754 0 0 1-.147-1.143 10.835 10.835 0 0 0 .047-1.254 12.061 12.061 0 0 0-.526-3.32.273.273 0 0 1 .521-.163 12.587 12.587 0 0 1 .551 3.472 11.494 11.494 0 0 1-.049 1.311 1.278 1.278 0 0 0 .08.834c.662 1.2 3.423 1.118 5.115.773 1.193-.244 3.677-.752 4.252-2.377.276-.773-.009-1.681-2.16-5.239-2.129-3.521-3.2-5.288-3.913-5.979A16.48 16.48 0 0 0 29.4.6l-.155-.02a17.957 17.957 0 0 0-2.014 2.291 30.708 30.708 0 0 0-2.144 3.5c-.341.616-.614 1.132-.841 1.559C23.487 9.356 23.2 9.892 22.6 9.9h-.016c-.868 0-1.423-1.242-1.913-2.339A29.35 29.35 0 0 0 16.5.936l-.323.117A13.991 13.991 0 0 0 9.69 3.366c-.773.528-1.347 1.019-5 5.654C.81 13.94.336 14.827.617 15.517c.429 1.047 2.238 1.356 4.334 1.716 1.588.272 3.224.551 4.232-.325a.273.273 0 1 1 .359.411c-1.2 1.047-2.971.745-4.679.453-2.263-.387-4.207-.721-4.75-2.048-.413-1.008.169-1.995 4.147-7.043C7.8 4.188 8.478 3.532 9.382 2.915a14.52 14.52 0 0 1 6.7-2.4l.586-.23.126.152a30.009 30.009 0 0 1 4.371 6.876c.393.88.914 2.045 1.428 2.045h.005c.277-.005.556-.532 1.169-1.687.228-.43.5-.949.846-1.569a31.075 31.075 0 0 1 2.182-3.555A18.477 18.477 0 0 1 28.967.091l.1-.091.427.066a17.03 17.03 0 0 1 8.828 4.393c.767.74 1.849 2.527 4 6.09 2.3 3.8 2.558 4.719 2.208 5.7-.679 1.915-3.366 2.465-4.658 2.729a11.962 11.962 0 0 1-2.318.237" class="prefix__cls-10" data-name="Fill 731" transform="translate(10.598 31.486)"/>
            <path id="prefix__Fill_733" d="M0 6.144q.31-1.578.568-3.3Q.786 1.381.933 0" class="prefix__cls-14" data-name="Fill 733" transform="translate(39.659 31.996)"/>
            <path id="prefix__Fill_735" d="M.274 6.692a.312.312 0 0 1-.053 0 .273.273 0 0 1-.215-.321c.212-1.083.4-2.188.566-3.285.138-.94.26-1.894.363-2.841a.265.265 0 0 1 .3-.245.273.273 0 0 1 .243.3c-.1.953-.226 1.915-.367 2.858-.164 1.11-.356 2.223-.57 3.314a.273.273 0 0 1-.268.22" class="prefix__cls-10" data-name="Fill 735" transform="translate(39.386 31.721)"/>
            <path id="prefix__Fill_737" d="M8.986 12.368a3.949 3.949 0 0 1-1.5-.361.273.273 0 1 1 .212-.5c.868.365 1.509.417 1.905.155.867-.578 1.045-2.97.424-5.685C9.448 3.434 8.167.775 6.617.559 5.114.353 3.227 2.39 2.011 4.5.682 6.805.191 9.086.845 9.922a2.178 2.178 0 0 0 1.869.523.273.273 0 1 1 .027.546 2.64 2.64 0 0 1-2.327-.732c-1-1.28-.02-4.048 1.123-6.031C2.75 2.124 4.826-.231 6.693.018c1.932.268 3.291 3.31 3.869 5.833s.6 5.428-.653 6.262a1.626 1.626 0 0 1-.923.254" class="prefix__cls-10" data-name="Fill 737" transform="translate(32.936 37.838)"/>
            <path id="prefix__Fill_739" d="M0 0a41.036 41.036 0 0 0 .519 4.553 40.835 40.835 0 0 0 1.233 5.158" class="prefix__cls-14" data-name="Fill 739" transform="translate(25.108 32.594)"/>
            <path id="prefix__Fill_741" d="M2.025 10.257a.273.273 0 0 1-.261-.192A41.233 41.233 0 0 1 .523 4.873 41.315 41.315 0 0 1 0 .29.274.274 0 0 1 .257 0a.28.28 0 0 1 .289.257 40.542 40.542 0 0 0 .516 4.523A40.818 40.818 0 0 0 2.286 9.9a.272.272 0 0 1-.18.341.262.262 0 0 1-.08.012" class="prefix__cls-10" data-name="Fill 741" transform="translate(24.835 32.321)"/>
            <path id="prefix__Fill_743" d="M3.212 1.606A1.606 1.606 0 1 1 1.605 0a1.606 1.606 0 0 1 1.607 1.606" class="prefix__cls-11" data-name="Fill 743" transform="translate(25.53 41.754)"/>
            <path id="prefix__Fill_745" d="M1.879 3.758a1.879 1.879 0 1 1 1.879-1.88 1.881 1.881 0 0 1-1.879 1.88zm0-3.212a1.333 1.333 0 1 0 1.333 1.332A1.334 1.334 0 0 0 1.879.545z" class="prefix__cls-10" data-name="Fill 745" transform="translate(25.257 41.481)"/>
            <path id="prefix__Fill_747" d="M1.961.98A.98.98 0 1 1 .98 0a.98.98 0 0 1 .98.98" class="prefix__cls-11" data-name="Fill 747" transform="translate(34.483 47.527)"/>
            <path id="prefix__Fill_749" d="M1.254 2.507a1.253 1.253 0 1 1 1.253-1.254 1.255 1.255 0 0 1-1.253 1.254zm0-1.961a.707.707 0 1 0 .706.707.708.708 0 0 0-.706-.708z" class="prefix__cls-10" data-name="Fill 749" transform="translate(34.21 47.254)"/>
            <path id="prefix__Fill_751" d="M1.961.98A.98.98 0 1 1 .98 0a.98.98 0 0 1 .98.98" class="prefix__cls-11" data-name="Fill 751" transform="translate(39.825 48.554)"/>
            <path id="prefix__Fill_753" d="M1.254 2.507a1.253 1.253 0 1 1 1.253-1.254 1.255 1.255 0 0 1-1.253 1.254zm0-1.961a.707.707 0 1 0 .706.707.708.708 0 0 0-.706-.708z" class="prefix__cls-10" data-name="Fill 753" transform="translate(39.552 48.281)"/>
            <path id="prefix__Fill_755" d="M0 7.819L2.4 0" class="prefix__cls-14" data-name="Fill 755" transform="translate(19.917 41.364)"/>
            <path id="prefix__Fill_757" d="M.273 8.363a.29.29 0 0 1-.08-.012.272.272 0 0 1-.18-.341l2.4-7.818a.277.277 0 0 1 .341-.181.273.273 0 0 1 .181.341L.534 8.171a.272.272 0 0 1-.261.193" class="prefix__cls-10" data-name="Fill 757" transform="translate(19.644 41.092)"/>
            <path id="prefix__Fill_759" d="M4.412 1.393l-.791.172a.256.256 0 0 1-.308-.188L3.146.629A.808.808 0 0 0 2.372 0a.8.8 0 0 0-.833.948l.173.777a.258.258 0 0 1-.205.3l-.84.183a.815.815 0 0 0-.65.949.814.814 0 0 0 .99.585l.838-.19a.257.257 0 0 1 .314.186l.168.756a.789.789 0 0 0 .779.617.821.821 0 0 0 .821-.968l-.171-.77a.255.255 0 0 1 .2-.3l.79-.173a.789.789 0 0 0 .613-.925.789.789 0 0 0-.947-.578" class="prefix__cls-11" data-name="Fill 759" transform="translate(47.056 42.713)"/>
            <path id="prefix__Fill_761" d="M3.383 5.657h-.012a1.069 1.069 0 0 1-1.036-.83l-.167-.756-.825.211a1.208 1.208 0 0 1-.252.027 1.131 1.131 0 0 1-.605-.171 1.021 1.021 0 0 1-.319-1.429 1.138 1.138 0 0 1 .716-.493l.84-.183-.175-.752a1.027 1.027 0 0 1 .211-.874A1.12 1.12 0 0 1 2.62 0h.03a1.09 1.09 0 0 1 1.037.842l.166.75.774-.192a1.091 1.091 0 0 1 .238-.026 1.059 1.059 0 0 1 1.035.811 1.062 1.062 0 0 1-.82 1.249l-.789.18.178.743a1.043 1.043 0 0 1-.209.875 1.125 1.125 0 0 1-.877.425zm-1.2-2.112a.541.541 0 0 1 .287.083.515.515 0 0 1 .23.324l.168.756a.518.518 0 0 0 .5.4h.006a.587.587 0 0 0 .454-.218.5.5 0 0 0 .1-.418l-.171-.769a.529.529 0 0 1 .407-.626l.795-.177a.513.513 0 0 0 .406-.6.5.5 0 0 0-.5-.383.559.559 0 0 0-.121.013l-.791.171a.567.567 0 0 1-.115.012.521.521 0 0 1-.517-.406L3.153.961a.536.536 0 0 0-.512-.415.569.569 0 0 0-.458.206.481.481 0 0 0-.1.41l.173.777a.509.509 0 0 1-.07.389.537.537 0 0 1-.343.239L1 2.749A.589.589 0 0 0 .627 3a.48.48 0 0 0-.069.368.485.485 0 0 0 .22.305.579.579 0 0 0 .311.088.615.615 0 0 0 .133-.014l.838-.191a.58.58 0 0 1 .123-.011z" class="prefix__cls-10" data-name="Fill 761" transform="translate(46.782 42.44)"/>
        </g>
        <path id="prefix__Fill_743_Copy" d="M14.444 7.1c.2.892.733 3.289-.675 5.228-1.934 2.663-5.891 2.191-6.421 2.12-2.936-.4-7.271-2.7-7.347-7.1A7.221 7.221 0 0 1 7.1 0c4.523-.079 6.787 4.577 7.347 7.1" data-name="Fill 743 Copy" transform="translate(262 173)" style="fill:rgba(218,206,253,.5);mix-blend-mode:multiply;isolation:isolate"/>
    </g>
</svg>
