<svg xmlns="http://www.w3.org/2000/svg" width="71.354" height="71.103" viewBox="0 0 71.354 71.103">
    <defs>
        <clipPath id="prefix__clip-path">
            <path id="prefix__Clip_706" d="M0 0h26.721v49.092H0z" class="prefix__cls-1" data-name="Clip 706" transform="translate(.633 .372)"/>
        </clipPath>
        <clipPath id="prefix__clip-path-2">
            <path id="prefix__Clip_715" d="M0 0h2.731v13.621H0z" class="prefix__cls-1" data-name="Clip 715" transform="translate(.16 .013)"/>
        </clipPath>
        <clipPath id="prefix__clip-path-3">
            <path id="prefix__Clip_720" d="M0 0h2.73v13.621H0z" class="prefix__cls-1" data-name="Clip 720" transform="translate(.524 .013)"/>
        </clipPath>
        <style>
            .prefix__cls-1{fill:none}.prefix__cls-3{fill:#c5eb8c}.prefix__cls-4{fill:#fff}.prefix__cls-5{fill:#2d2d2d}
        </style>
    </defs>
    <g id="prefix__ic_stress___mental_health" data-name="ic_stress_&amp;_mental_health" transform="translate(0 -.8)">
        <g id="prefix__Group_8" data-name="Group 8" transform="translate(3.166 6.315)" style="opacity:.4">
            <path id="prefix__Fill_1" d="M1.017 2.033A1.016 1.016 0 0 1 1.02 0a1.016 1.016 0 1 0 0 2.033" class="prefix__cls-3" data-name="Fill 1" transform="translate(31.246)"/>
            <path id="prefix__Fill_3" d="M1.017 2.033A1.016 1.016 0 1 0 0 1.016a1.017 1.017 0 0 0 1.017 1.017" class="prefix__cls-3" data-name="Fill 3" transform="translate(35.31)"/>
            <path id="prefix__Fill_5" d="M1.017 1.485A1.012 1.012 0 0 0 2.025.51C1.4.319.768.153.13 0A.982.982 0 0 0 0 .468a1.017 1.017 0 0 0 1.017 1.017" class="prefix__cls-3" data-name="Fill 5" transform="translate(39.375 .548)"/>
            <path id="prefix__Fill_7" d="M1.017 2.033A1.016 1.016 0 1 0 0 1.016a1.016 1.016 0 0 0 1.017 1.017" class="prefix__cls-3" data-name="Fill 7" transform="translate(33.278 3.049)"/>
            <path id="prefix__Fill_9" d="M1.017 2.033A1.016 1.016 0 1 0 0 1.016a1.016 1.016 0 0 0 1.017 1.017" class="prefix__cls-3" data-name="Fill 9" transform="translate(37.343 3.049)"/>
            <path id="prefix__Fill_11" d="M1.017 2.033A1.016 1.016 0 1 0 0 1.016a1.016 1.016 0 0 0 1.017 1.017" class="prefix__cls-3" data-name="Fill 11" transform="translate(41.408 3.049)"/>
            <path id="prefix__Fill_13" d="M0 1a1.016 1.016 0 1 0 2.032 0 .974.974 0 0 0-.145-.5C1.568.33 1.242.165.915 0A1.008 1.008 0 0 0 0 1" class="prefix__cls-3" data-name="Fill 13" transform="translate(45.473 3.069)"/>
            <path id="prefix__Fill_15" d="M.006 1.016A1.016 1.016 0 0 1 1.02 0a1.016 1.016 0 1 0 0 2.033A1.016 1.016 0 0 1 .006 1.016" class="prefix__cls-3" data-name="Fill 15" transform="translate(31.246 6.098)"/>
            <path id="prefix__Fill_17" d="M1.017 0a1.016 1.016 0 1 0 1.017 1.016A1.017 1.017 0 0 0 1.017 0" class="prefix__cls-3" data-name="Fill 17" transform="translate(35.31 6.098)"/>
            <path id="prefix__Fill_19" d="M1.017 2.032A1.016 1.016 0 1 0 0 1.015a1.017 1.017 0 0 0 1.017 1.017" class="prefix__cls-3" data-name="Fill 19" transform="translate(39.375 6.098)"/>
            <path id="prefix__Fill_21" d="M1.017 2.032A1.016 1.016 0 1 0 0 1.015a1.017 1.017 0 0 0 1.017 1.017" class="prefix__cls-3" data-name="Fill 21" transform="translate(43.44 6.098)"/>
            <path id="prefix__Fill_23" d="M1.017 2.032A1.016 1.016 0 1 0 0 1.015a1.017 1.017 0 0 0 1.017 1.017" class="prefix__cls-3" data-name="Fill 23" transform="translate(47.505 6.098)"/>
            <path id="prefix__Fill_25" d="M1.017 1.618a1.006 1.006 0 0 0 .742-.332C1.261.84.746.414.22 0A.991.991 0 0 0 0 .6a1.017 1.017 0 0 0 1.017 1.018" class="prefix__cls-3" data-name="Fill 25" transform="translate(51.57 6.512)"/>
            <path id="prefix__Fill_27" d="M1.017 0a1.016 1.016 0 1 0 1.016 1.017A1.016 1.016 0 0 0 1.017 0" class="prefix__cls-3" data-name="Fill 27" transform="translate(33.278 9.146)"/>
            <path id="prefix__Fill_29" d="M1.017 0a1.016 1.016 0 1 0 1.016 1.017A1.016 1.016 0 0 0 1.017 0" class="prefix__cls-3" data-name="Fill 29" transform="translate(37.343 9.146)"/>
            <path id="prefix__Fill_31" d="M1.017 0a1.016 1.016 0 1 0 1.016 1.017A1.016 1.016 0 0 0 1.017 0" class="prefix__cls-3" data-name="Fill 31" transform="translate(41.408 9.146)"/>
            <path id="prefix__Fill_33" d="M1.017 2.032A1.016 1.016 0 1 0 0 1.016a1.016 1.016 0 0 0 1.017 1.016" class="prefix__cls-3" data-name="Fill 33" transform="translate(45.473 9.146)"/>
            <path id="prefix__Fill_35" d="M1.017 2.032A1.016 1.016 0 1 0 0 1.016a1.016 1.016 0 0 0 1.017 1.016" class="prefix__cls-3" data-name="Fill 35" transform="translate(49.538 9.146)"/>
            <path id="prefix__Fill_37" d="M0 1.017a1.016 1.016 0 0 0 2.032 0A1.049 1.049 0 0 0 2.01.906c-.272-.3-.55-.586-.833-.873A1 1 0 0 0 1.016 0 1.016 1.016 0 0 0 0 1.017" class="prefix__cls-3" data-name="Fill 37" transform="translate(53.603 9.146)"/>
            <path id="prefix__Fill_39" d="M.006 1.017A1.016 1.016 0 0 1 1.02 0a1.016 1.016 0 1 0 0 2.033A1.016 1.016 0 0 1 .006 1.017" class="prefix__cls-3" data-name="Fill 39" transform="translate(31.246 12.194)"/>
            <path id="prefix__Fill_41" d="M1.017 2.032A1.016 1.016 0 1 0 0 1.016a1.016 1.016 0 0 0 1.017 1.016" class="prefix__cls-3" data-name="Fill 41" transform="translate(35.31 12.195)"/>
            <path id="prefix__Fill_43" d="M1.017 0a1.016 1.016 0 1 0 1.017 1.017A1.017 1.017 0 0 0 1.017 0" class="prefix__cls-3" data-name="Fill 43" transform="translate(39.375 12.195)"/>
            <path id="prefix__Fill_45" d="M1.017 0a1.016 1.016 0 1 0 1.017 1.017A1.017 1.017 0 0 0 1.017 0" class="prefix__cls-3" data-name="Fill 45" transform="translate(43.44 12.195)"/>
            <path id="prefix__Fill_47" d="M1.017 0a1.016 1.016 0 1 0 1.017 1.017A1.017 1.017 0 0 0 1.017 0" class="prefix__cls-3" data-name="Fill 47" transform="translate(47.505 12.195)"/>
            <path id="prefix__Fill_49" d="M1.017 2.032A1.016 1.016 0 1 0 0 1.016a1.017 1.017 0 0 0 1.017 1.016" class="prefix__cls-3" data-name="Fill 49" transform="translate(51.57 12.195)"/>
            <path id="prefix__Fill_51" d="M1.017 2.032A1.016 1.016 0 1 0 0 1.016a1.017 1.017 0 0 0 1.017 1.016" class="prefix__cls-3" data-name="Fill 51" transform="translate(55.635 12.195)"/>
            <path id="prefix__Fill_53" d="M1.017 0a1.016 1.016 0 1 0 1.016 1.017A1.017 1.017 0 0 0 1.017 0" class="prefix__cls-3" data-name="Fill 53" transform="translate(33.278 15.243)"/>
            <path id="prefix__Fill_55" d="M1.017 0a1.016 1.016 0 1 0 1.016 1.017A1.017 1.017 0 0 0 1.017 0" class="prefix__cls-3" data-name="Fill 55" transform="translate(37.343 15.243)"/>
            <path id="prefix__Fill_57" d="M1.017 2.033A1.016 1.016 0 1 0 0 1.016a1.017 1.017 0 0 0 1.017 1.017" class="prefix__cls-3" data-name="Fill 57" transform="translate(41.408 15.243)"/>
            <path id="prefix__Fill_59" d="M1.017 0a1.016 1.016 0 1 0 1.016 1.017A1.017 1.017 0 0 0 1.017 0" class="prefix__cls-3" data-name="Fill 59" transform="translate(45.473 15.243)"/>
            <path id="prefix__Fill_61" d="M1.017 0a1.016 1.016 0 1 0 1.016 1.017A1.017 1.017 0 0 0 1.017 0" class="prefix__cls-3" data-name="Fill 61" transform="translate(49.538 15.243)"/>
            <path id="prefix__Fill_63" d="M1.016 2.033A1.016 1.016 0 1 0 0 1.016a1.017 1.017 0 0 0 1.016 1.017" class="prefix__cls-3" data-name="Fill 63" transform="translate(53.603 15.243)"/>
            <path id="prefix__Fill_65" d="M1.016 2.033A1.016 1.016 0 1 0 0 1.016a1.017 1.017 0 0 0 1.016 1.017" class="prefix__cls-3" data-name="Fill 65" transform="translate(57.668 15.243)"/>
            <path id="prefix__Fill_67" d="M.006 1.016A1.016 1.016 0 0 1 1.02 0a1.016 1.016 0 1 0 0 2.033A1.016 1.016 0 0 1 .006 1.016" class="prefix__cls-3" data-name="Fill 67" transform="translate(31.246 18.292)"/>
            <path id="prefix__Fill_69" d="M1.017 0a1.016 1.016 0 1 0 1.017 1.016A1.017 1.017 0 0 0 1.017 0" class="prefix__cls-3" data-name="Fill 69" transform="translate(35.31 18.293)"/>
            <path id="prefix__Fill_71" d="M1.017 0a1.016 1.016 0 1 0 1.017 1.016A1.017 1.017 0 0 0 1.017 0" class="prefix__cls-3" data-name="Fill 71" transform="translate(39.375 18.293)"/>
            <path id="prefix__Fill_73" d="M1.017 0a1.016 1.016 0 1 0 1.017 1.016A1.017 1.017 0 0 0 1.017 0" class="prefix__cls-3" data-name="Fill 73" transform="translate(43.44 18.293)"/>
            <path id="prefix__Fill_75" d="M1.017 2.032A1.016 1.016 0 1 0 0 1.015a1.017 1.017 0 0 0 1.017 1.017" class="prefix__cls-3" data-name="Fill 75" transform="translate(47.505 18.293)"/>
            <path id="prefix__Fill_77" d="M1.017 0a1.016 1.016 0 1 0 1.017 1.016A1.017 1.017 0 0 0 1.017 0" class="prefix__cls-3" data-name="Fill 77" transform="translate(51.57 18.293)"/>
            <path id="prefix__Fill_79" d="M1.017 0a1.016 1.016 0 1 0 1.017 1.016A1.017 1.017 0 0 0 1.017 0" class="prefix__cls-3" data-name="Fill 79" transform="translate(55.635 18.293)"/>
            <path id="prefix__Fill_81" d="M0 1.016a1.01 1.01 0 0 0 1.966.333Q1.706.71 1.42.086a1.013 1.013 0 0 0-1.42.93" class="prefix__cls-3" data-name="Fill 81" transform="translate(59.7 18.292)"/>
            <path id="prefix__Fill_83" d="M1.017 0a1.016 1.016 0 1 0 1.016 1.016A1.016 1.016 0 0 0 1.017 0" class="prefix__cls-3" data-name="Fill 83" transform="translate(33.278 21.341)"/>
            <path id="prefix__Fill_85" d="M1.017 2.032A1.016 1.016 0 1 0 0 1.015a1.016 1.016 0 0 0 1.017 1.017" class="prefix__cls-3" data-name="Fill 85" transform="translate(37.343 21.341)"/>
            <path id="prefix__Fill_87" d="M1.017 0a1.016 1.016 0 1 0 1.016 1.016A1.016 1.016 0 0 0 1.017 0" class="prefix__cls-3" data-name="Fill 87" transform="translate(41.408 21.341)"/>
            <path id="prefix__Fill_89" d="M1.017 0a1.016 1.016 0 1 0 1.016 1.016A1.016 1.016 0 0 0 1.017 0" class="prefix__cls-3" data-name="Fill 89" transform="translate(45.473 21.341)"/>
            <path id="prefix__Fill_91" d="M1.017 0a1.016 1.016 0 1 0 1.016 1.016A1.016 1.016 0 0 0 1.017 0" class="prefix__cls-3" data-name="Fill 91" transform="translate(49.538 21.341)"/>
            <path id="prefix__Fill_93" d="M1.016 0a1.016 1.016 0 1 0 1.017 1.016A1.016 1.016 0 0 0 1.016 0" class="prefix__cls-3" data-name="Fill 93" transform="translate(53.603 21.341)"/>
            <path id="prefix__Fill_95" d="M1.016 0a1.016 1.016 0 1 0 1.017 1.016A1.016 1.016 0 0 0 1.016 0" class="prefix__cls-3" data-name="Fill 95" transform="translate(57.668 21.341)"/>
            <path id="prefix__Fill_97" d="M0 .919a1.016 1.016 0 0 0 1.016 1.017.987.987 0 0 0 .159-.036C1 1.26.807.626.6 0a1.012 1.012 0 0 0-.6.919" class="prefix__cls-3" data-name="Fill 97" transform="translate(61.733 21.437)"/>
            <path id="prefix__Fill_99" d="M1.017 2.033A1.016 1.016 0 0 1 1.02 0a1.016 1.016 0 1 0 0 2.033" class="prefix__cls-3" data-name="Fill 99" transform="translate(31.246 24.389)"/>
            <path id="prefix__Fill_101" d="M1.017 0a1.016 1.016 0 1 0 1.017 1.017A1.017 1.017 0 0 0 1.017 0" class="prefix__cls-3" data-name="Fill 101" transform="translate(35.31 24.389)"/>
            <path id="prefix__Fill_103" d="M1.017 0a1.016 1.016 0 1 0 1.017 1.017A1.017 1.017 0 0 0 1.017 0" class="prefix__cls-3" data-name="Fill 103" transform="translate(39.375 24.389)"/>
            <path id="prefix__Fill_105" d="M1.017 2.033A1.016 1.016 0 1 0 0 1.016a1.017 1.017 0 0 0 1.017 1.017" class="prefix__cls-3" data-name="Fill 105" transform="translate(43.44 24.389)"/>
            <path id="prefix__Fill_107" d="M1.017 0a1.016 1.016 0 1 0 1.017 1.017A1.017 1.017 0 0 0 1.017 0" class="prefix__cls-3" data-name="Fill 107" transform="translate(47.505 24.389)"/>
            <path id="prefix__Fill_109" d="M1.017 0a1.016 1.016 0 1 0 1.017 1.017A1.017 1.017 0 0 0 1.017 0" class="prefix__cls-3" data-name="Fill 109" transform="translate(51.57 24.389)"/>
            <path id="prefix__Fill_111" d="M1.017 2.033A1.016 1.016 0 1 0 0 1.016a1.017 1.017 0 0 0 1.017 1.017" class="prefix__cls-3" data-name="Fill 111" transform="translate(55.635 24.389)"/>
            <path id="prefix__Fill_113" d="M1.017 2.033A1.016 1.016 0 1 0 0 1.016a1.017 1.017 0 0 0 1.017 1.017" class="prefix__cls-3" data-name="Fill 113" transform="translate(59.7 24.389)"/>
            <path id="prefix__Fill_115" d="M1.017 0a1.016 1.016 0 1 0 1.016 1.017A1.016 1.016 0 0 0 1.017 0" class="prefix__cls-3" data-name="Fill 115" transform="translate(33.278 27.438)"/>
            <path id="prefix__Fill_117" d="M1.017 0a1.016 1.016 0 1 0 1.016 1.017A1.016 1.016 0 0 0 1.017 0" class="prefix__cls-3" data-name="Fill 117" transform="translate(37.343 27.438)"/>
            <path id="prefix__Fill_119" d="M1.017 0a1.016 1.016 0 1 0 1.016 1.017A1.016 1.016 0 0 0 1.017 0" class="prefix__cls-3" data-name="Fill 119" transform="translate(41.408 27.438)"/>
            <path id="prefix__Fill_121" d="M1.017 2.033A1.016 1.016 0 1 0 0 1.016a1.017 1.017 0 0 0 1.017 1.017" class="prefix__cls-3" data-name="Fill 121" transform="translate(45.473 27.438)"/>
            <path id="prefix__Fill_123" d="M1.017 2.033A1.016 1.016 0 1 0 0 1.016a1.017 1.017 0 0 0 1.017 1.017" class="prefix__cls-3" data-name="Fill 123" transform="translate(49.538 27.438)"/>
            <path id="prefix__Fill_125" d="M1.016 0a1.016 1.016 0 1 0 1.017 1.017A1.016 1.016 0 0 0 1.016 0" class="prefix__cls-3" data-name="Fill 125" transform="translate(53.603 27.438)"/>
            <path id="prefix__Fill_127" d="M1.016 0a1.016 1.016 0 1 0 1.017 1.017A1.016 1.016 0 0 0 1.016 0" class="prefix__cls-3" data-name="Fill 127" transform="translate(57.668 27.438)"/>
            <path id="prefix__Fill_129" d="M1.016 2.033A1.016 1.016 0 1 0 0 1.016a1.017 1.017 0 0 0 1.016 1.017" class="prefix__cls-3" data-name="Fill 129" transform="translate(61.732 27.438)"/>
            <path id="prefix__Fill_131" d="M.006.017S0 .006 0 0v.017a1.017 1.017 0 0 0 1.017 1.017A1.016 1.016 0 0 1 .006.017" class="prefix__cls-3" data-name="Fill 131" transform="translate(31.246 31.486)"/>
            <path id="prefix__Fill_133" d="M1.017 1.033A1.016 1.016 0 0 0 2.034.016V0a1.016 1.016 0 0 1-1.017 1A1.015 1.015 0 0 1 0 0v.016a1.017 1.017 0 0 0 1.017 1.017" class="prefix__cls-3" data-name="Fill 133" transform="translate(35.31 31.486)"/>
            <path id="prefix__Fill_135" d="M1.017 1A1.015 1.015 0 0 1 0 0a.167.167 0 0 0 0 .017 1.017 1.017 0 0 0 2.034 0V0a1.016 1.016 0 0 1-1.017 1" class="prefix__cls-3" data-name="Fill 135" transform="translate(39.375 31.486)"/>
            <path id="prefix__Fill_137" d="M1.017 1A1.016 1.016 0 0 1 0 0v.017a1.017 1.017 0 0 0 2.034 0V0a1.016 1.016 0 0 1-1.017 1" class="prefix__cls-3" data-name="Fill 137" transform="translate(43.44 31.486)"/>
            <path id="prefix__Fill_139" d="M2.03 0a1.015 1.015 0 0 1-1.014 1A1.014 1.014 0 0 1 0 0a.167.167 0 0 0 0 .017 1.016 1.016 0 0 0 1.016 1.016A1.016 1.016 0 0 0 2.033.017V0" class="prefix__cls-3" data-name="Fill 139" transform="translate(47.506 31.486)"/>
            <path id="prefix__Fill_141" d="M1.017 1.033A1.017 1.017 0 0 0 2.034.016V0a1.016 1.016 0 0 1-1.017 1A1.016 1.016 0 0 1 0 0v.016a1.017 1.017 0 0 0 1.017 1.017" class="prefix__cls-3" data-name="Fill 141" transform="translate(51.57 31.486)"/>
            <path id="prefix__Fill_143" d="M2.029 0a1.014 1.014 0 0 1-1.013 1A1.015 1.015 0 0 1 0 0v.017a1.016 1.016 0 0 0 1.016 1.016A1.016 1.016 0 0 0 2.033.017a.168.168 0 0 0 0-.017" class="prefix__cls-3" data-name="Fill 143" transform="translate(55.635 31.486)"/>
            <path id="prefix__Fill_145" d="M1.017 1A1.016 1.016 0 0 1 0 0v.017a1.017 1.017 0 0 0 2.034 0V0a1.016 1.016 0 0 1-1.017 1" class="prefix__cls-3" data-name="Fill 145" transform="translate(59.7 31.486)"/>
            <path id="prefix__Fill_147" d="M.288.1a1 1 0 0 0 .224.61V.679a1 1 0 0 1-.222-.6C.291.093.288.1.288.1" class="prefix__cls-3" data-name="Fill 147" transform="translate(63.477 31.4)"/>
            <path id="prefix__Fill_149" d="M.862.22C.573.328.286.444 0 .56c.035 0 .066.02.1.02A1 1 0 0 0 .862.22" class="prefix__cls-3" data-name="Fill 149" transform="translate(19.973 1.453)"/>
            <path id="prefix__Fill_151" d="M1.017 1.583A1.017 1.017 0 0 0 2.034.566.985.985 0 0 0 1.837 0Q.919.206.021.466a1.006 1.006 0 0 0-.021.1 1.017 1.017 0 0 0 1.017 1.017" class="prefix__cls-3" data-name="Fill 151" transform="translate(23.122 .45)"/>
            <path id="prefix__Fill_153" d="M1.017 2.033A1.016 1.016 0 1 0 0 1.016a1.017 1.017 0 0 0 1.017 1.017" class="prefix__cls-3" data-name="Fill 153" transform="translate(27.187)"/>
            <path id="prefix__Fill_155" d="M1.014 1.017A1.016 1.016 0 0 1 0 2.033a1.017 1.017 0 0 0 1.019-1.016A1.017 1.017 0 0 0 0 0a1.016 1.016 0 0 1 1.014 1.017" class="prefix__cls-3" data-name="Fill 155" transform="translate(32.265)"/>
            <path id="prefix__Fill_157" d="M0 1.016A1.013 1.013 0 1 0 1.014 0 1.016 1.016 0 0 0 0 1.016" class="prefix__cls-3" data-name="Fill 157" transform="translate(31.252 .001)"/>
            <path id="prefix__Fill_159" d="M.611.265C.47.355.328.443.189.535a1.007 1.007 0 0 0 .422-.27" class="prefix__cls-3" data-name="Fill 159" transform="translate(14.11 4.481)"/>
            <path id="prefix__Fill_161" d="M1.016 2.033A1.016 1.016 0 1 0 0 1.016a1.016 1.016 0 0 0 1.016 1.017" class="prefix__cls-3" data-name="Fill 161" transform="translate(17.025 3.049)"/>
            <path id="prefix__Fill_163" d="M1.016 2.033A1.016 1.016 0 1 0 0 1.016a1.016 1.016 0 0 0 1.016 1.017" class="prefix__cls-3" data-name="Fill 163" transform="translate(21.09 3.049)"/>
            <path id="prefix__Fill_165" d="M1.016 2.033A1.016 1.016 0 1 0 0 1.016a1.016 1.016 0 0 0 1.016 1.017" class="prefix__cls-3" data-name="Fill 165" transform="translate(25.155 3.049)"/>
            <path id="prefix__Fill_167" d="M1.016 2.033A1.016 1.016 0 1 0 0 1.016a1.016 1.016 0 0 0 1.016 1.017" class="prefix__cls-3" data-name="Fill 167" transform="translate(29.22 3.049)"/>
            <path id="prefix__Fill_169" d="M.923 1.832A1.017 1.017 0 0 0 1.94.815 1 1 0 0 0 1.5 0Q.73.593 0 1.23a1.013 1.013 0 0 0 .923.6" class="prefix__cls-3" data-name="Fill 169" transform="translate(11.021 6.298)"/>
            <path id="prefix__Fill_171" d="M1.017 2.032A1.016 1.016 0 1 0 0 1.015a1.017 1.017 0 0 0 1.017 1.017" class="prefix__cls-3" data-name="Fill 171" transform="translate(14.992 6.098)"/>
            <path id="prefix__Fill_173" d="M1.017 2.032A1.016 1.016 0 1 0 0 1.015a1.017 1.017 0 0 0 1.017 1.017" class="prefix__cls-3" data-name="Fill 173" transform="translate(19.057 6.098)"/>
            <path id="prefix__Fill_175" d="M1.017 2.032A1.016 1.016 0 1 0 0 1.015a1.017 1.017 0 0 0 1.017 1.017" class="prefix__cls-3" data-name="Fill 175" transform="translate(23.122 6.098)"/>
            <path id="prefix__Fill_177" d="M1.017 0a1.016 1.016 0 1 0 1.017 1.016A1.016 1.016 0 0 0 1.017 0" class="prefix__cls-3" data-name="Fill 177" transform="translate(27.187 6.098)"/>
            <path id="prefix__Fill_179" d="M0 0a1.016 1.016 0 0 1 1.014 1.016A1.016 1.016 0 0 1 0 2.031 1.016 1.016 0 0 0 0 0" class="prefix__cls-3" data-name="Fill 179" transform="translate(32.265 6.098)"/>
            <path id="prefix__Fill_181" d="M2.026 1.016a1.013 1.013 0 1 0-1.013 1.016 1.016 1.016 0 0 0 1.013-1.016" class="prefix__cls-3" data-name="Fill 181" transform="translate(31.252 6.098)"/>
            <path id="prefix__Fill_183" d="M1.017 2.032A1.016 1.016 0 1 0 0 1.016a1.015 1.015 0 0 0 1.017 1.016" class="prefix__cls-3" data-name="Fill 183" transform="translate(8.895 9.146)"/>
            <path id="prefix__Fill_185" d="M1.016 2.032A1.016 1.016 0 1 0 0 1.016a1.016 1.016 0 0 0 1.016 1.016" class="prefix__cls-3" data-name="Fill 185" transform="translate(12.96 9.146)"/>
            <path id="prefix__Fill_187" d="M1.016 0a1.016 1.016 0 1 0 1.017 1.017A1.016 1.016 0 0 0 1.016 0" class="prefix__cls-3" data-name="Fill 187" transform="translate(17.025 9.146)"/>
            <path id="prefix__Fill_189" d="M1.016 0a1.016 1.016 0 1 0 1.017 1.017A1.016 1.016 0 0 0 1.016 0" class="prefix__cls-3" data-name="Fill 189" transform="translate(21.09 9.146)"/>
            <path id="prefix__Fill_191" d="M1.016 0a1.016 1.016 0 1 0 1.017 1.017A1.016 1.016 0 0 0 1.016 0" class="prefix__cls-3" data-name="Fill 191" transform="translate(25.155 9.146)"/>
            <path id="prefix__Fill_193" d="M1.016 0a1.016 1.016 0 1 0 1.017 1.017A1.016 1.016 0 0 0 1.016 0" class="prefix__cls-3" data-name="Fill 193" transform="translate(29.22 9.146)"/>
            <path id="prefix__Fill_195" d="M1.017 2.032A1.016 1.016 0 1 0 0 1.016a1.015 1.015 0 0 0 1.017 1.016" class="prefix__cls-3" data-name="Fill 195" transform="translate(6.863 12.195)"/>
            <path id="prefix__Fill_197" d="M1.017 2.032A1.016 1.016 0 1 0 0 1.016a1.017 1.017 0 0 0 1.017 1.016" class="prefix__cls-3" data-name="Fill 197" transform="translate(10.928 12.195)"/>
            <path id="prefix__Fill_199" d="M1.017 0a1.016 1.016 0 1 0 1.017 1.017A1.017 1.017 0 0 0 1.017 0" class="prefix__cls-3" data-name="Fill 199" transform="translate(14.992 12.195)"/>
            <path id="prefix__Fill_201" d="M1.017 0a1.016 1.016 0 1 0 1.017 1.017A1.017 1.017 0 0 0 1.017 0" class="prefix__cls-3" data-name="Fill 201" transform="translate(19.057 12.195)"/>
            <path id="prefix__Fill_203" d="M1.017 0a1.016 1.016 0 1 0 1.017 1.017A1.017 1.017 0 0 0 1.017 0" class="prefix__cls-3" data-name="Fill 203" transform="translate(23.122 12.195)"/>
            <path id="prefix__Fill_205" d="M1.017 2.032A1.016 1.016 0 1 0 0 1.016a1.017 1.017 0 0 0 1.017 1.016" class="prefix__cls-3" data-name="Fill 205" transform="translate(27.187 12.195)"/>
            <path id="prefix__Fill_207" d="M0 0a1.016 1.016 0 0 1 1.014 1.017A1.016 1.016 0 0 1 0 2.032a1.016 1.016 0 0 0 1.019-1.015A1.017 1.017 0 0 0 0 0" class="prefix__cls-3" data-name="Fill 207" transform="translate(32.265 12.195)"/>
            <path id="prefix__Fill_209" d="M2.026 1.016a1.013 1.013 0 1 0-1.013 1.016 1.016 1.016 0 0 0 1.013-1.016" class="prefix__cls-3" data-name="Fill 209" transform="translate(31.252 12.195)"/>
            <path id="prefix__Fill_211" d="M1.016 2.033A1.016 1.016 0 1 0 0 1.016a1.016 1.016 0 0 0 1.016 1.017" class="prefix__cls-3" data-name="Fill 211" transform="translate(4.831 15.243)"/>
            <path id="prefix__Fill_213" d="M1.017 0a1.016 1.016 0 1 0 1.016 1.017A1.017 1.017 0 0 0 1.017 0" class="prefix__cls-3" data-name="Fill 213" transform="translate(8.895 15.243)"/>
            <path id="prefix__Fill_215" d="M1.016 0a1.016 1.016 0 1 0 1.017 1.017A1.017 1.017 0 0 0 1.016 0" class="prefix__cls-3" data-name="Fill 215" transform="translate(12.96 15.243)"/>
            <path id="prefix__Fill_217" d="M1.016 2.033A1.016 1.016 0 1 0 0 1.016a1.017 1.017 0 0 0 1.016 1.017" class="prefix__cls-3" data-name="Fill 217" transform="translate(17.025 15.243)"/>
            <path id="prefix__Fill_219" d="M1.016 2.033A1.016 1.016 0 1 0 0 1.016a1.017 1.017 0 0 0 1.016 1.017" class="prefix__cls-3" data-name="Fill 219" transform="translate(21.09 15.243)"/>
            <path id="prefix__Fill_221" d="M1.016 2.033A1.016 1.016 0 1 0 0 1.016a1.017 1.017 0 0 0 1.016 1.017" class="prefix__cls-3" data-name="Fill 221" transform="translate(25.155 15.243)"/>
            <path id="prefix__Fill_223" d="M1.016 0a1.016 1.016 0 1 0 1.017 1.017A1.017 1.017 0 0 0 1.016 0" class="prefix__cls-3" data-name="Fill 223" transform="translate(29.22 15.243)"/>
            <path id="prefix__Fill_225" d="M1.017 2.032A1.016 1.016 0 1 0 0 1.015a1.016 1.016 0 0 0 1.017 1.017" class="prefix__cls-3" data-name="Fill 225" transform="translate(2.798 18.293)"/>
            <path id="prefix__Fill_227" d="M1.017 0a1.016 1.016 0 1 0 1.016 1.016A1.016 1.016 0 0 0 1.017 0" class="prefix__cls-3" data-name="Fill 227" transform="translate(6.863 18.293)"/>
            <path id="prefix__Fill_229" d="M1.017 0a1.016 1.016 0 1 0 1.017 1.016A1.017 1.017 0 0 0 1.017 0" class="prefix__cls-3" data-name="Fill 229" transform="translate(10.928 18.293)"/>
            <path id="prefix__Fill_231" d="M1.017 2.032A1.016 1.016 0 1 0 0 1.015a1.017 1.017 0 0 0 1.017 1.017" class="prefix__cls-3" data-name="Fill 231" transform="translate(14.992 18.293)"/>
            <path id="prefix__Fill_233" d="M1.017 0a1.016 1.016 0 1 0 1.017 1.016A1.016 1.016 0 0 0 1.017 0" class="prefix__cls-3" data-name="Fill 233" transform="translate(19.057 18.293)"/>
            <path id="prefix__Fill_235" d="M1.017 0a1.016 1.016 0 1 0 1.017 1.016A1.016 1.016 0 0 0 1.017 0" class="prefix__cls-3" data-name="Fill 235" transform="translate(23.122 18.293)"/>
            <path id="prefix__Fill_237" d="M1.017 0a1.016 1.016 0 1 0 1.017 1.016A1.016 1.016 0 0 0 1.017 0" class="prefix__cls-3" data-name="Fill 237" transform="translate(27.187 18.293)"/>
            <path id="prefix__Fill_239" d="M0 0a1.016 1.016 0 0 1 1.014 1.016A1.016 1.016 0 0 1 0 2.031 1.016 1.016 0 0 0 0 0" class="prefix__cls-3" data-name="Fill 239" transform="translate(32.265 18.293)"/>
            <path id="prefix__Fill_241" d="M2.026 1.016a1.013 1.013 0 1 0-1.013 1.016 1.016 1.016 0 0 0 1.013-1.016" class="prefix__cls-3" data-name="Fill 241" transform="translate(31.252 18.292)"/>
            <path id="prefix__Fill_243" d="M1.615 1.016A1.016 1.016 0 0 0 .6 0C.584 0 .571.008.556.009Q.252.9 0 1.816a1 1 0 0 0 .6.217 1.016 1.016 0 0 0 1.015-1.017" class="prefix__cls-3" data-name="Fill 243" transform="translate(1.183 21.341)"/>
            <path id="prefix__Fill_245" d="M1.016 0a1.016 1.016 0 1 0 1.016 1.016A1.015 1.015 0 0 0 1.016 0" class="prefix__cls-3" data-name="Fill 245" transform="translate(4.831 21.341)"/>
            <path id="prefix__Fill_247" d="M1.017 2.032A1.016 1.016 0 1 0 0 1.015a1.016 1.016 0 0 0 1.017 1.017" class="prefix__cls-3" data-name="Fill 247" transform="translate(8.895 21.341)"/>
            <path id="prefix__Fill_249" d="M1.016 2.032A1.016 1.016 0 1 0 0 1.015a1.016 1.016 0 0 0 1.016 1.017" class="prefix__cls-3" data-name="Fill 249" transform="translate(12.96 21.341)"/>
            <path id="prefix__Fill_251" d="M1.016 0a1.016 1.016 0 1 0 1.017 1.016A1.016 1.016 0 0 0 1.016 0" class="prefix__cls-3" data-name="Fill 251" transform="translate(17.025 21.341)"/>
            <path id="prefix__Fill_253" d="M1.016 0a1.016 1.016 0 1 0 1.017 1.016A1.016 1.016 0 0 0 1.016 0" class="prefix__cls-3" data-name="Fill 253" transform="translate(21.09 21.341)"/>
            <path id="prefix__Fill_255" d="M1.016 0a1.016 1.016 0 1 0 1.017 1.016A1.016 1.016 0 0 0 1.016 0" class="prefix__cls-3" data-name="Fill 255" transform="translate(25.155 21.341)"/>
            <path id="prefix__Fill_257" d="M1.016 2.032A1.016 1.016 0 1 0 0 1.015a1.016 1.016 0 0 0 1.016 1.017" class="prefix__cls-3" data-name="Fill 257" transform="translate(29.22 21.341)"/>
            <path id="prefix__Fill_259" d="M.453 0C.391.3.34.6.287.909A1 1 0 0 0 .513.3a.984.984 0 0 0-.06-.3" class="prefix__cls-3" data-name="Fill 259" transform="translate(.253 25.11)"/>
            <path id="prefix__Fill_261" d="M1.017 2.033A1.016 1.016 0 1 0 0 1.016a1.017 1.017 0 0 0 1.017 1.017" class="prefix__cls-3" data-name="Fill 261" transform="translate(2.798 24.389)"/>
            <path id="prefix__Fill_263" d="M1.017 2.033A1.016 1.016 0 1 0 0 1.016a1.016 1.016 0 0 0 1.017 1.017" class="prefix__cls-3" data-name="Fill 263" transform="translate(6.863 24.389)"/>
            <path id="prefix__Fill_265" d="M1.017 0a1.016 1.016 0 1 0 1.017 1.017A1.017 1.017 0 0 0 1.017 0" class="prefix__cls-3" data-name="Fill 265" transform="translate(10.928 24.389)"/>
            <path id="prefix__Fill_267" d="M1.017 0a1.016 1.016 0 1 0 1.017 1.017A1.017 1.017 0 0 0 1.017 0" class="prefix__cls-3" data-name="Fill 267" transform="translate(14.992 24.389)"/>
            <path id="prefix__Fill_269" d="M1.017 2.033A1.016 1.016 0 1 0 0 1.016a1.017 1.017 0 0 0 1.017 1.017" class="prefix__cls-3" data-name="Fill 269" transform="translate(19.057 24.389)"/>
            <path id="prefix__Fill_271" d="M1.017 2.033A1.016 1.016 0 1 0 0 1.016a1.017 1.017 0 0 0 1.017 1.017" class="prefix__cls-3" data-name="Fill 271" transform="translate(23.122 24.389)"/>
            <path id="prefix__Fill_273" d="M1.017 2.033A1.016 1.016 0 1 0 0 1.016a1.017 1.017 0 0 0 1.017 1.017" class="prefix__cls-3" data-name="Fill 273" transform="translate(27.187 24.389)"/>
            <path id="prefix__Fill_275" d="M1.014 1.017A1.016 1.016 0 0 1 0 2.033a1.017 1.017 0 0 0 1.019-1.016A1.017 1.017 0 0 0 0 0a1.016 1.016 0 0 1 1.014 1.017" class="prefix__cls-3" data-name="Fill 275" transform="translate(32.265 24.389)"/>
            <path id="prefix__Fill_277" d="M0 1.016A1.013 1.013 0 1 0 1.014 0 1.016 1.016 0 0 0 0 1.016" class="prefix__cls-3" data-name="Fill 277" transform="translate(31.252 24.39)"/>
            <path id="prefix__Fill_279" d="M1.016 2.033A1.016 1.016 0 1 0 0 1.016a1.016 1.016 0 0 0 1.016 1.017" class="prefix__cls-3" data-name="Fill 279" transform="translate(.766 27.438)"/>
            <path id="prefix__Fill_281" d="M1.016 2.033A1.016 1.016 0 1 0 0 1.016a1.016 1.016 0 0 0 1.016 1.017" class="prefix__cls-3" data-name="Fill 281" transform="translate(4.831 27.438)"/>
            <path id="prefix__Fill_283" d="M1.017 0a1.016 1.016 0 1 0 1.016 1.017A1.016 1.016 0 0 0 1.017 0" class="prefix__cls-3" data-name="Fill 283" transform="translate(8.895 27.438)"/>
            <path id="prefix__Fill_285" d="M1.016 0a1.016 1.016 0 1 0 1.017 1.017A1.016 1.016 0 0 0 1.016 0" class="prefix__cls-3" data-name="Fill 285" transform="translate(12.96 27.438)"/>
            <path id="prefix__Fill_287" d="M1.016 2.033A1.016 1.016 0 1 0 0 1.016a1.017 1.017 0 0 0 1.016 1.017" class="prefix__cls-3" data-name="Fill 287" transform="translate(17.025 27.438)"/>
            <path id="prefix__Fill_289" d="M1.016 2.033A1.016 1.016 0 1 0 0 1.016a1.017 1.017 0 0 0 1.016 1.017" class="prefix__cls-3" data-name="Fill 289" transform="translate(21.09 27.438)"/>
            <path id="prefix__Fill_291" d="M1.016 0a1.016 1.016 0 1 0 1.017 1.017A1.016 1.016 0 0 0 1.016 0" class="prefix__cls-3" data-name="Fill 291" transform="translate(25.155 27.438)"/>
            <path id="prefix__Fill_293" d="M1.016 0a1.016 1.016 0 1 0 1.017 1.017A1.016 1.016 0 0 0 1.016 0" class="prefix__cls-3" data-name="Fill 293" transform="translate(29.22 27.438)"/>
            <path id="prefix__Fill_295" d="M.755.017V0a1 1 0 0 1-.71.938V.97a1 1 0 0 0 .71-.953" class="prefix__cls-3" data-name="Fill 295" transform="translate(.012 31.486)"/>
            <path id="prefix__Fill_297" d="M1.017 1.033A1.016 1.016 0 0 0 2.034.016V0a1.015 1.015 0 0 1-1.017 1A1.015 1.015 0 0 1 0 0v.016a1.016 1.016 0 0 0 1.017 1.017" class="prefix__cls-3" data-name="Fill 297" transform="translate(2.798 31.486)"/>
            <path id="prefix__Fill_299" d="M2.03 0a1.015 1.015 0 0 1-1.013 1A1.015 1.015 0 0 1 0 0a.167.167 0 0 0 0 .017 1.016 1.016 0 0 0 1.017 1.016A1.015 1.015 0 0 0 2.033.017V0" class="prefix__cls-3" data-name="Fill 299" transform="translate(6.863 31.486)"/>
            <path id="prefix__Fill_301" d="M1.017 1A1.016 1.016 0 0 1 0 0v.017a1.017 1.017 0 0 0 2.034 0A.167.167 0 0 0 2.03 0a1.015 1.015 0 0 1-1.013 1" class="prefix__cls-3" data-name="Fill 301" transform="translate(10.928 31.486)"/>
            <path id="prefix__Fill_303" d="M1.017 1A1.016 1.016 0 0 1 0 0v.017a1.017 1.017 0 0 0 2.034 0A.167.167 0 0 0 2.03 0a1.015 1.015 0 0 1-1.013 1" class="prefix__cls-3" data-name="Fill 303" transform="translate(14.992 31.486)"/>
            <path id="prefix__Fill_305" d="M1.017 1.033A1.017 1.017 0 0 0 2.034.016V0a1.015 1.015 0 0 1-1.017 1A1.016 1.016 0 0 1 0 0v.016a1.016 1.016 0 0 0 1.017 1.017" class="prefix__cls-3" data-name="Fill 305" transform="translate(19.057 31.486)"/>
            <path id="prefix__Fill_307" d="M2.029 0a1.014 1.014 0 0 1-1.013 1A1.015 1.015 0 0 1 0 0v.017a1.015 1.015 0 0 0 1.016 1.016A1.016 1.016 0 0 0 2.033.017V0" class="prefix__cls-3" data-name="Fill 307" transform="translate(23.123 31.486)"/>
            <path id="prefix__Fill_309" d="M1.017 1A1.016 1.016 0 0 1 0 0v.017a1.016 1.016 0 0 0 1.017 1.016A1.017 1.017 0 0 0 2.034.017V0a1.015 1.015 0 0 1-1.017 1" class="prefix__cls-3" data-name="Fill 309" transform="translate(27.187 31.486)"/>
            <path id="prefix__Fill_311" d="M1.014.017A1.016 1.016 0 0 1 0 1.033 1.017 1.017 0 0 0 1.019.017V0a.1.1 0 0 1 0 .015" class="prefix__cls-3" data-name="Fill 311" transform="translate(32.265 31.486)"/>
            <path id="prefix__Fill_313" d="M2.026 0a1.012 1.012 0 0 1-1.01.986H1.01A1.013 1.013 0 0 1 0 0a1.016 1.016 0 0 0 1.013 1.018A1.016 1.016 0 0 0 2.026 0" class="prefix__cls-3" data-name="Fill 313" transform="translate(31.252 31.501)"/>
            <path id="prefix__Fill_315" d="M.006 1.017A1.016 1.016 0 0 1 1.02 0 1.018 1.018 0 0 0 0 1.017v.002z" class="prefix__cls-3" data-name="Fill 315" transform="translate(31.246 30.454)"/>
            <path id="prefix__Fill_317" d="M.4.4V.385.4" class="prefix__cls-3" data-name="Fill 317" transform="translate(30.853 31.087)"/>
            <path id="prefix__Fill_319" d="M0 0v.015A1.014 1.014 0 0 0 1.01 1 1.015 1.015 0 0 1 0 0" class="prefix__cls-3" data-name="Fill 319" transform="translate(31.252 31.486)"/>
            <path id="prefix__Fill_321" d="M1.017.032a1.016 1.016 0 0 1 1.014 1v-.016a1.017 1.017 0 0 0-2.031 0 .117.117 0 0 0 0 .016 1.014 1.014 0 0 1 1.013-1" class="prefix__cls-3" data-name="Fill 321" transform="translate(35.31 30.454)"/>
            <path id="prefix__Fill_323" d="M1.013 2a1.016 1.016 0 0 0 1.013-1A1.013 1.013 0 0 0 0 1a1.015 1.015 0 0 0 1.013 1" class="prefix__cls-3" data-name="Fill 323" transform="translate(35.314 30.486)"/>
            <path id="prefix__Fill_325" d="M0 1.032a1.013 1.013 0 0 1 2.026 0v-.016a1.016 1.016 0 0 0-2.026 0 .117.117 0 0 0 0 .016" class="prefix__cls-3" data-name="Fill 325" transform="translate(39.376 30.454)"/>
            <path id="prefix__Fill_327" d="M1.013 0A1.014 1.014 0 0 0 0 1a1.013 1.013 0 0 0 2.026 0 1.016 1.016 0 0 0-1.013-1" class="prefix__cls-3" data-name="Fill 327" transform="translate(39.379 30.486)"/>
            <path id="prefix__Fill_329" d="M1.017 0A1.017 1.017 0 0 0 0 1.017v.015a1.014 1.014 0 0 1 2.027 0v-.015A1.017 1.017 0 0 0 1.017 0" class="prefix__cls-3" data-name="Fill 329" transform="translate(43.44 30.454)"/>
            <path id="prefix__Fill_331" d="M1.014 0A1.016 1.016 0 0 0 0 1a1.014 1.014 0 0 0 2.027 0 1.016 1.016 0 0 0-1.013-1" class="prefix__cls-3" data-name="Fill 331" transform="translate(43.443 30.486)"/>
            <path id="prefix__Fill_333" d="M1.017.032a1.016 1.016 0 0 1 1.014 1v-.016a1.017 1.017 0 0 0-2.031 0 .117.117 0 0 0 0 .016 1.014 1.014 0 0 1 1.013-1" class="prefix__cls-3" data-name="Fill 333" transform="translate(47.505 30.454)"/>
            <path id="prefix__Fill_335" d="M1.013 2a1.016 1.016 0 0 0 1.013-1A1.013 1.013 0 0 0 0 1a1.015 1.015 0 0 0 1.013 1" class="prefix__cls-3" data-name="Fill 335" transform="translate(47.509 30.486)"/>
            <path id="prefix__Fill_337" d="M1.017.032a1.016 1.016 0 0 1 1.014 1v-.016a1.017 1.017 0 0 0-2.031 0v.016a1.016 1.016 0 0 1 1.014-1" class="prefix__cls-3" data-name="Fill 337" transform="translate(51.57 30.454)"/>
            <path id="prefix__Fill_339" d="M1.014 2a1.016 1.016 0 0 0 1.013-1A1.014 1.014 0 0 0 0 1a1.016 1.016 0 0 0 1.014 1" class="prefix__cls-3" data-name="Fill 339" transform="translate(51.573 30.486)"/>
            <path id="prefix__Fill_341" d="M1.017.032a1.014 1.014 0 0 1 1.013 1 .117.117 0 0 0 0-.016 1.017 1.017 0 0 0-2.03 0v.016a1.016 1.016 0 0 1 1.014-1" class="prefix__cls-3" data-name="Fill 341" transform="translate(55.635 30.454)"/>
            <path id="prefix__Fill_343" d="M1.014 2a1.015 1.015 0 0 0 1.012-1A1.013 1.013 0 0 0 0 1a1.016 1.016 0 0 0 1.014 1" class="prefix__cls-3" data-name="Fill 343" transform="translate(55.638 30.486)"/>
            <path id="prefix__Fill_345" d="M1.017 0A1.017 1.017 0 0 0 0 1.017v.015a1.014 1.014 0 0 1 2.027 0v-.015A1.017 1.017 0 0 0 1.017 0" class="prefix__cls-3" data-name="Fill 345" transform="translate(59.7 30.454)"/>
            <path id="prefix__Fill_347" d="M1.014 0A1.016 1.016 0 0 0 0 1a1.014 1.014 0 0 0 2.027 0 1.016 1.016 0 0 0-1.013-1" class="prefix__cls-3" data-name="Fill 347" transform="translate(59.703 30.486)"/>
            <path id="prefix__Fill_349" d="M.294.707A.99.99 0 0 1 .509.124V.093a.988.988 0 0 0-.218.6v.016" class="prefix__cls-3" data-name="Fill 349" transform="translate(63.474 30.779)"/>
            <path id="prefix__Fill_351" d="M.5 1.179c0-.148.012-.294.012-.442C.517.49.5.246.5 0a1 1 0 0 0-.217.584 1 1 0 0 0 .222.6" class="prefix__cls-3" data-name="Fill 351" transform="translate(63.485 30.902)"/>
            <path id="prefix__Fill_353" d="M1.017 2.033A1.016 1.016 0 1 0 0 1.016a1.017 1.017 0 0 0 1.017 1.017" class="prefix__cls-3" data-name="Fill 353" transform="translate(33.278 33.503)"/>
            <path id="prefix__Fill_355" d="M1.017 2.033A1.016 1.016 0 1 0 0 1.016a1.017 1.017 0 0 0 1.017 1.017" class="prefix__cls-3" data-name="Fill 355" transform="translate(37.343 33.503)"/>
            <path id="prefix__Fill_357" d="M1.017 0a1.016 1.016 0 1 0 1.016 1.017A1.017 1.017 0 0 0 1.017 0" class="prefix__cls-3" data-name="Fill 357" transform="translate(41.408 33.503)"/>
            <path id="prefix__Fill_359" d="M1.017 0a1.016 1.016 0 1 0 1.016 1.017A1.017 1.017 0 0 0 1.017 0" class="prefix__cls-3" data-name="Fill 359" transform="translate(45.473 33.503)"/>
            <path id="prefix__Fill_361" d="M1.017 2.033A1.016 1.016 0 1 0 0 1.016a1.017 1.017 0 0 0 1.017 1.017" class="prefix__cls-3" data-name="Fill 361" transform="translate(49.538 33.503)"/>
            <path id="prefix__Fill_363" d="M1.016 2.033A1.016 1.016 0 1 0 0 1.016a1.017 1.017 0 0 0 1.016 1.017" class="prefix__cls-3" data-name="Fill 363" transform="translate(53.603 33.503)"/>
            <path id="prefix__Fill_365" d="M1.016 2.033A1.016 1.016 0 1 0 0 1.016a1.017 1.017 0 0 0 1.016 1.017" class="prefix__cls-3" data-name="Fill 365" transform="translate(57.668 33.503)"/>
            <path id="prefix__Fill_367" d="M1.016 0a1.016 1.016 0 1 0 1.017 1.017A1.017 1.017 0 0 0 1.016 0" class="prefix__cls-3" data-name="Fill 367" transform="translate(61.732 33.503)"/>
            <path id="prefix__Fill_369" d="M.006 1.016A1.016 1.016 0 0 1 1.02 0a1.016 1.016 0 1 0 0 2.033A1.016 1.016 0 0 1 .006 1.016" class="prefix__cls-3" data-name="Fill 369" transform="translate(31.246 36.552)"/>
            <path id="prefix__Fill_371" d="M1.017 0a1.016 1.016 0 1 0 1.017 1.016A1.017 1.017 0 0 0 1.017 0" class="prefix__cls-3" data-name="Fill 371" transform="translate(35.31 36.552)"/>
            <path id="prefix__Fill_373" d="M1.017 2.032A1.016 1.016 0 1 0 0 1.015a1.017 1.017 0 0 0 1.017 1.017" class="prefix__cls-3" data-name="Fill 373" transform="translate(39.375 36.552)"/>
            <path id="prefix__Fill_375" d="M1.017 0a1.016 1.016 0 1 0 1.017 1.016A1.017 1.017 0 0 0 1.017 0" class="prefix__cls-3" data-name="Fill 375" transform="translate(43.44 36.552)"/>
            <path id="prefix__Fill_377" d="M1.017 2.032A1.016 1.016 0 1 0 0 1.015a1.017 1.017 0 0 0 1.017 1.017" class="prefix__cls-3" data-name="Fill 377" transform="translate(47.505 36.552)"/>
            <path id="prefix__Fill_379" d="M1.017 0a1.016 1.016 0 1 0 1.017 1.016A1.017 1.017 0 0 0 1.017 0" class="prefix__cls-3" data-name="Fill 379" transform="translate(51.57 36.552)"/>
            <path id="prefix__Fill_381" d="M1.017 0a1.016 1.016 0 1 0 1.017 1.016A1.017 1.017 0 0 0 1.017 0" class="prefix__cls-3" data-name="Fill 381" transform="translate(55.635 36.552)"/>
            <path id="prefix__Fill_383" d="M1.017 0a1.016 1.016 0 1 0 1.017 1.016A1.017 1.017 0 0 0 1.017 0" class="prefix__cls-3" data-name="Fill 383" transform="translate(59.7 36.552)"/>
            <path id="prefix__Fill_385" d="M1.017 0a1.016 1.016 0 1 0 1.016 1.016A1.016 1.016 0 0 0 1.017 0" class="prefix__cls-3" data-name="Fill 385" transform="translate(33.278 39.6)"/>
            <path id="prefix__Fill_387" d="M1.017 2.032A1.016 1.016 0 1 0 0 1.015a1.016 1.016 0 0 0 1.017 1.017" class="prefix__cls-3" data-name="Fill 387" transform="translate(37.343 39.6)"/>
            <path id="prefix__Fill_389" d="M1.017 2.032A1.016 1.016 0 1 0 0 1.015a1.016 1.016 0 0 0 1.017 1.017" class="prefix__cls-3" data-name="Fill 389" transform="translate(41.408 39.6)"/>
            <path id="prefix__Fill_391" d="M1.017 2.032A1.016 1.016 0 1 0 0 1.015a1.016 1.016 0 0 0 1.017 1.017" class="prefix__cls-3" data-name="Fill 391" transform="translate(45.473 39.6)"/>
            <path id="prefix__Fill_393" d="M1.017 0a1.016 1.016 0 1 0 1.016 1.016A1.016 1.016 0 0 0 1.017 0" class="prefix__cls-3" data-name="Fill 393" transform="translate(49.538 39.6)"/>
            <path id="prefix__Fill_395" d="M1.016 2.032A1.016 1.016 0 1 0 0 1.015a1.016 1.016 0 0 0 1.016 1.017" class="prefix__cls-3" data-name="Fill 395" transform="translate(53.603 39.6)"/>
            <path id="prefix__Fill_397" d="M1.016 0a1.016 1.016 0 1 0 1.017 1.016A1.016 1.016 0 0 0 1.016 0" class="prefix__cls-3" data-name="Fill 397" transform="translate(57.668 39.6)"/>
            <path id="prefix__Fill_399" d="M0 1.016a1 1 0 0 0 .69.95C.9 1.334 1.09.7 1.257.049A1 1 0 0 0 1.016 0 1.016 1.016 0 0 0 0 1.016" class="prefix__cls-3" data-name="Fill 399" transform="translate(61.733 39.6)"/>
            <path id="prefix__Fill_401" d="M1.017 2.033A1.016 1.016 0 0 1 1.02 0a1.016 1.016 0 1 0 0 2.033" class="prefix__cls-3" data-name="Fill 401" transform="translate(31.246 42.649)"/>
            <path id="prefix__Fill_403" d="M1.017 2.033A1.016 1.016 0 1 0 0 1.016a1.017 1.017 0 0 0 1.017 1.017" class="prefix__cls-3" data-name="Fill 403" transform="translate(35.31 42.649)"/>
            <path id="prefix__Fill_405" d="M1.017 2.033A1.016 1.016 0 1 0 0 1.016a1.017 1.017 0 0 0 1.017 1.017" class="prefix__cls-3" data-name="Fill 405" transform="translate(39.375 42.649)"/>
            <path id="prefix__Fill_407" d="M1.017 2.033A1.016 1.016 0 1 0 0 1.016a1.017 1.017 0 0 0 1.017 1.017" class="prefix__cls-3" data-name="Fill 407" transform="translate(43.44 42.649)"/>
            <path id="prefix__Fill_409" d="M1.017 0a1.016 1.016 0 1 0 1.017 1.017A1.017 1.017 0 0 0 1.017 0" class="prefix__cls-3" data-name="Fill 409" transform="translate(47.505 42.649)"/>
            <path id="prefix__Fill_411" d="M1.017 2.033A1.016 1.016 0 1 0 0 1.016a1.017 1.017 0 0 0 1.017 1.017" class="prefix__cls-3" data-name="Fill 411" transform="translate(51.57 42.649)"/>
            <path id="prefix__Fill_413" d="M1.017 2.033A1.016 1.016 0 1 0 0 1.016a1.017 1.017 0 0 0 1.017 1.017" class="prefix__cls-3" data-name="Fill 413" transform="translate(55.635 42.649)"/>
            <path id="prefix__Fill_415" d="M1.017 0a1.016 1.016 0 1 0 0 2.033.992.992 0 0 0 .6-.22c.134-.306.262-.616.386-.927A1 1 0 0 0 1.017 0" class="prefix__cls-3" data-name="Fill 415" transform="translate(59.7 42.649)"/>
            <path id="prefix__Fill_417" d="M1.017 2.033A1.016 1.016 0 1 0 0 1.016a1.017 1.017 0 0 0 1.017 1.017" class="prefix__cls-3" data-name="Fill 417" transform="translate(33.278 45.697)"/>
            <path id="prefix__Fill_419" d="M1.017 0a1.016 1.016 0 1 0 1.016 1.017A1.017 1.017 0 0 0 1.017 0" class="prefix__cls-3" data-name="Fill 419" transform="translate(37.343 45.697)"/>
            <path id="prefix__Fill_421" d="M1.017 2.033A1.016 1.016 0 1 0 0 1.016a1.017 1.017 0 0 0 1.017 1.017" class="prefix__cls-3" data-name="Fill 421" transform="translate(41.408 45.697)"/>
            <path id="prefix__Fill_423" d="M1.017 0a1.016 1.016 0 1 0 1.016 1.017A1.017 1.017 0 0 0 1.017 0" class="prefix__cls-3" data-name="Fill 423" transform="translate(45.473 45.697)"/>
            <path id="prefix__Fill_425" d="M1.017 2.033A1.016 1.016 0 1 0 0 1.016a1.017 1.017 0 0 0 1.017 1.017" class="prefix__cls-3" data-name="Fill 425" transform="translate(49.538 45.697)"/>
            <path id="prefix__Fill_427" d="M1.016 0a1.016 1.016 0 1 0 1.017 1.017A1.017 1.017 0 0 0 1.016 0" class="prefix__cls-3" data-name="Fill 427" transform="translate(53.603 45.697)"/>
            <path id="prefix__Fill_429" d="M1.016 0a1.016 1.016 0 1 0 1.017 1.017A1.017 1.017 0 0 0 1.016 0" class="prefix__cls-3" data-name="Fill 429" transform="translate(57.668 45.697)"/>
            <path id="prefix__Fill_431" d="M1.017 2.033A1.016 1.016 0 0 1 1.02 0a1.016 1.016 0 1 0 0 2.033" class="prefix__cls-3" data-name="Fill 431" transform="translate(31.246 48.746)"/>
            <path id="prefix__Fill_433" d="M1.017 0a1.016 1.016 0 1 0 1.017 1.017A1.017 1.017 0 0 0 1.017 0" class="prefix__cls-3" data-name="Fill 433" transform="translate(35.31 48.746)"/>
            <path id="prefix__Fill_435" d="M1.017 2.033A1.016 1.016 0 1 0 0 1.016a1.017 1.017 0 0 0 1.017 1.017" class="prefix__cls-3" data-name="Fill 435" transform="translate(39.375 48.746)"/>
            <path id="prefix__Fill_437" d="M1.017 2.033A1.016 1.016 0 1 0 0 1.016a1.017 1.017 0 0 0 1.017 1.017" class="prefix__cls-3" data-name="Fill 437" transform="translate(43.44 48.746)"/>
            <path id="prefix__Fill_439" d="M1.017 2.033A1.016 1.016 0 1 0 0 1.016a1.017 1.017 0 0 0 1.017 1.017" class="prefix__cls-3" data-name="Fill 439" transform="translate(47.505 48.746)"/>
            <path id="prefix__Fill_441" d="M1.017 0a1.016 1.016 0 1 0 1.017 1.017A1.017 1.017 0 0 0 1.017 0" class="prefix__cls-3" data-name="Fill 441" transform="translate(51.57 48.746)"/>
            <path id="prefix__Fill_443" d="M1.017 0a1.016 1.016 0 1 0 1.017 1.017A1.017 1.017 0 0 0 1.017 0" class="prefix__cls-3" data-name="Fill 443" transform="translate(55.635 48.746)"/>
            <path id="prefix__Fill_445" d="M1.017 2.032A1.016 1.016 0 1 0 0 1.016a1.016 1.016 0 0 0 1.017 1.016" class="prefix__cls-3" data-name="Fill 445" transform="translate(33.278 51.795)"/>
            <path id="prefix__Fill_447" d="M1.017 2.032A1.016 1.016 0 1 0 0 1.016a1.016 1.016 0 0 0 1.017 1.016" class="prefix__cls-3" data-name="Fill 447" transform="translate(37.343 51.795)"/>
            <path id="prefix__Fill_449" d="M1.017 2.032A1.016 1.016 0 1 0 0 1.016a1.016 1.016 0 0 0 1.017 1.016" class="prefix__cls-3" data-name="Fill 449" transform="translate(41.408 51.795)"/>
            <path id="prefix__Fill_451" d="M1.017 2.032A1.016 1.016 0 1 0 0 1.016a1.016 1.016 0 0 0 1.017 1.016" class="prefix__cls-3" data-name="Fill 451" transform="translate(45.473 51.795)"/>
            <path id="prefix__Fill_453" d="M1.017 0a1.016 1.016 0 1 0 1.016 1.017A1.016 1.016 0 0 0 1.017 0" class="prefix__cls-3" data-name="Fill 453" transform="translate(49.538 51.795)"/>
            <path id="prefix__Fill_455" d="M1.016 0a1.016 1.016 0 1 0 0 2.032 1 1 0 0 0 .684-.274l.066-.069a1 1 0 0 0 .267-.673A1.016 1.016 0 0 0 1.016 0" class="prefix__cls-3" data-name="Fill 455" transform="translate(53.603 51.795)"/>
            <path id="prefix__Fill_457" d="M1.017 2.032A1.016 1.016 0 0 1 1.02 0a1.016 1.016 0 1 0 0 2.032" class="prefix__cls-3" data-name="Fill 457" transform="translate(31.246 54.843)"/>
            <path id="prefix__Fill_459" d="M1.017 2.032A1.016 1.016 0 1 0 0 1.016a1.016 1.016 0 0 0 1.017 1.016" class="prefix__cls-3" data-name="Fill 459" transform="translate(35.31 54.843)"/>
            <path id="prefix__Fill_461" d="M1.017 0a1.016 1.016 0 1 0 1.017 1.017A1.017 1.017 0 0 0 1.017 0" class="prefix__cls-3" data-name="Fill 461" transform="translate(39.375 54.843)"/>
            <path id="prefix__Fill_463" d="M1.017 0a1.016 1.016 0 1 0 1.017 1.017A1.017 1.017 0 0 0 1.017 0" class="prefix__cls-3" data-name="Fill 463" transform="translate(43.44 54.843)"/>
            <path id="prefix__Fill_465" d="M1.017 0a1.016 1.016 0 1 0 1.017 1.017A1.017 1.017 0 0 0 1.017 0" class="prefix__cls-3" data-name="Fill 465" transform="translate(47.505 54.843)"/>
            <path id="prefix__Fill_467" d="M1.017 0A1.017 1.017 0 0 0 0 1.017a1 1 0 0 0 .387.778C.9 1.385 1.4.965 1.89.526A1 1 0 0 0 1.017 0" class="prefix__cls-3" data-name="Fill 467" transform="translate(51.57 54.843)"/>
            <path id="prefix__Fill_469" d="M1.017 0a1.016 1.016 0 1 0 1.016 1.017A1.017 1.017 0 0 0 1.017 0" class="prefix__cls-3" data-name="Fill 469" transform="translate(33.278 57.892)"/>
            <path id="prefix__Fill_471" d="M1.017 0a1.016 1.016 0 1 0 1.016 1.017A1.017 1.017 0 0 0 1.017 0" class="prefix__cls-3" data-name="Fill 471" transform="translate(37.343 57.892)"/>
            <path id="prefix__Fill_473" d="M1.017 0a1.016 1.016 0 1 0 1.016 1.017A1.017 1.017 0 0 0 1.017 0" class="prefix__cls-3" data-name="Fill 473" transform="translate(41.408 57.892)"/>
            <path id="prefix__Fill_475" d="M1.017 0a1.016 1.016 0 1 0 1.016 1.017A1.017 1.017 0 0 0 1.017 0" class="prefix__cls-3" data-name="Fill 475" transform="translate(45.473 57.892)"/>
            <path id="prefix__Fill_477" d="M.227.52C.344.441.457.36.573.28a1.016 1.016 0 0 0-.346.24" class="prefix__cls-3" data-name="Fill 477" transform="translate(49.595 57.69)"/>
            <path id="prefix__Fill_479" d="M.006 1.017A1.016 1.016 0 0 1 1.02 0a1.017 1.017 0 0 0 0 2.034A1.016 1.016 0 0 1 .006 1.017" class="prefix__cls-3" data-name="Fill 479" transform="translate(31.246 60.94)"/>
            <path id="prefix__Fill_481" d="M1.017 0a1.016 1.016 0 1 0 1.017 1.017A1.017 1.017 0 0 0 1.017 0" class="prefix__cls-3" data-name="Fill 481" transform="translate(35.31 60.94)"/>
            <path id="prefix__Fill_483" d="M1.017 0a1.012 1.012 0 0 0-.7 1.749c.56-.139 1.113-.289 1.66-.455a.968.968 0 0 0 .057-.277A1.017 1.017 0 0 0 1.017 0" class="prefix__cls-3" data-name="Fill 483" transform="translate(39.375 60.94)"/>
            <path id="prefix__Fill_485" d="M0 .657C.379.509.755.358 1.128.2A.981.981 0 0 0 .863.143 1 1 0 0 0 0 .657" class="prefix__cls-3" data-name="Fill 485" transform="translate(43.594 60.797)"/>
            <path id="prefix__Fill_487" d="M.748.968V.952A1 1 0 0 0 .05 0v.032a1 1 0 0 1 .7.936" class="prefix__cls-3" data-name="Fill 487" transform="translate(.015 30.518)"/>
            <path id="prefix__Fill_489" d="M.763.936A1 1 0 0 0 .064 0C.052.362.037.724.037 1.089c0 .264.014.524.02.786A1 1 0 0 0 .763.936" class="prefix__cls-3" data-name="Fill 489" transform="translate(0 30.55)"/>
            <path id="prefix__Fill_491" d="M1.017.032a1.014 1.014 0 0 1 1.013 1v-.016a1.017 1.017 0 0 0-2.03 0v.016a1.014 1.014 0 0 1 1.013-1" class="prefix__cls-3" data-name="Fill 491" transform="translate(2.798 30.454)"/>
            <path id="prefix__Fill_493" d="M1.013 2a1.015 1.015 0 0 0 1.013-1A1.013 1.013 0 0 0 0 1a1.015 1.015 0 0 0 1.013 1" class="prefix__cls-3" data-name="Fill 493" transform="translate(2.802 30.486)"/>
            <path id="prefix__Fill_495" d="M1.017.032a1.014 1.014 0 0 1 1.013 1v-.016a1.016 1.016 0 0 0-2.03 0 .117.117 0 0 0 0 .016 1.014 1.014 0 0 1 1.013-1" class="prefix__cls-3" data-name="Fill 495" transform="translate(6.863 30.454)"/>
            <path id="prefix__Fill_497" d="M1.013 2a1.015 1.015 0 0 0 1.013-1A1.013 1.013 0 0 0 0 1a1.015 1.015 0 0 0 1.013 1" class="prefix__cls-3" data-name="Fill 497" transform="translate(6.867 30.486)"/>
            <path id="prefix__Fill_499" d="M0 1.032a1.013 1.013 0 0 1 2.026 0 .117.117 0 0 0 0-.016 1.016 1.016 0 0 0-2.026 0v.016" class="prefix__cls-3" data-name="Fill 499" transform="translate(10.928 30.454)"/>
            <path id="prefix__Fill_501" d="M1.014 0A1.016 1.016 0 0 0 0 1a1.013 1.013 0 0 0 2.026 0 1.014 1.014 0 0 0-1.012-1" class="prefix__cls-3" data-name="Fill 501" transform="translate(10.931 30.486)"/>
            <path id="prefix__Fill_503" d="M0 1.032a1.013 1.013 0 0 1 2.026 0 .117.117 0 0 0 0-.016 1.016 1.016 0 0 0-2.026 0v.016" class="prefix__cls-3" data-name="Fill 503" transform="translate(14.993 30.454)"/>
            <path id="prefix__Fill_505" d="M1.014 0A1.016 1.016 0 0 0 0 1a1.013 1.013 0 0 0 2.026 0 1.014 1.014 0 0 0-1.012-1" class="prefix__cls-3" data-name="Fill 505" transform="translate(14.996 30.486)"/>
            <path id="prefix__Fill_507" d="M1.017.032a1.014 1.014 0 0 1 1.013 1 .117.117 0 0 0 0-.016 1.017 1.017 0 0 0-2.03 0v.016a1.016 1.016 0 0 1 1.014-1" class="prefix__cls-3" data-name="Fill 507" transform="translate(19.057 30.454)"/>
            <path id="prefix__Fill_509" d="M1.014 2a1.015 1.015 0 0 0 1.012-1A1.013 1.013 0 0 0 0 1a1.016 1.016 0 0 0 1.014 1" class="prefix__cls-3" data-name="Fill 509" transform="translate(19.061 30.486)"/>
            <path id="prefix__Fill_511" d="M1.017.032a1.014 1.014 0 0 1 1.013 1v-.016a1.017 1.017 0 0 0-2.03 0v.016a1.016 1.016 0 0 1 1.014-1" class="prefix__cls-3" data-name="Fill 511" transform="translate(23.122 30.454)"/>
            <path id="prefix__Fill_513" d="M1.014 2a1.015 1.015 0 0 0 1.012-1A1.013 1.013 0 0 0 0 1a1.016 1.016 0 0 0 1.014 1" class="prefix__cls-3" data-name="Fill 513" transform="translate(23.125 30.486)"/>
            <path id="prefix__Fill_515" d="M1.017 0A1.017 1.017 0 0 0 0 1.017v.015a1.013 1.013 0 0 1 2.026 0v-.015A1.017 1.017 0 0 0 1.017 0" class="prefix__cls-3" data-name="Fill 515" transform="translate(27.187 30.454)"/>
            <path id="prefix__Fill_517" d="M1.014 0A1.016 1.016 0 0 0 0 1a1.013 1.013 0 0 0 2.026 0 1.014 1.014 0 0 0-1.012-1" class="prefix__cls-3" data-name="Fill 517" transform="translate(27.19 30.486)"/>
            <path id="prefix__Fill_519" d="M0 0a1.016 1.016 0 0 1 1.014 1.017.093.093 0 0 1 0 .014v-.015A1.017 1.017 0 0 0 0 0" class="prefix__cls-3" data-name="Fill 519" transform="translate(32.265 30.454)"/>
            <path id="prefix__Fill_521" d="M.4.4v.015A.1.1 0 0 0 .4.4a.093.093 0 0 0 0-.015V.4" class="prefix__cls-3" data-name="Fill 521" transform="translate(32.878 31.087)"/>
            <path id="prefix__Fill_523" d="M0 1A1.013 1.013 0 0 0 1.013.015V0A1.015 1.015 0 0 1 0 1" class="prefix__cls-3" data-name="Fill 523" transform="translate(32.266 31.486)"/>
            <path id="prefix__Fill_525" d="M0 1.016A1.013 1.013 0 0 1 1.01.032h.006a1.011 1.011 0 0 1 1.009.986A1.013 1.013 0 1 0 0 1.016" class="prefix__cls-3" data-name="Fill 525" transform="translate(31.252 30.455)"/>
            <path id="prefix__Fill_527" d="M1.014 0A1.014 1.014 0 0 0 0 .986V1a1.015 1.015 0 0 1 1.01-1" class="prefix__cls-3" data-name="Fill 527" transform="translate(31.252 30.486)"/>
            <path id="prefix__Fill_529" d="M0 0a1.015 1.015 0 0 1 1.01 1V.986A1.013 1.013 0 0 0 0 0" class="prefix__cls-3" data-name="Fill 529" transform="translate(32.265 30.486)"/>
            <path id="prefix__Fill_531" d="M1.01 0A1.015 1.015 0 0 0 0 1a1.01 1.01 0 0 0 2.021 0A1.015 1.015 0 0 0 1.01 0" class="prefix__cls-3" data-name="Fill 531" transform="translate(31.255 30.487)"/>
            <path id="prefix__Fill_533" d="M1.016 0a1.016 1.016 0 1 0 1.016 1.017A1.016 1.016 0 0 0 1.016 0" class="prefix__cls-3" data-name="Fill 533" transform="translate(.766 33.503)"/>
            <path id="prefix__Fill_535" d="M1.016 2.033A1.016 1.016 0 1 0 0 1.016a1.016 1.016 0 0 0 1.016 1.017" class="prefix__cls-3" data-name="Fill 535" transform="translate(4.831 33.503)"/>
            <path id="prefix__Fill_537" d="M1.017 2.033A1.016 1.016 0 1 0 0 1.016a1.016 1.016 0 0 0 1.017 1.017" class="prefix__cls-3" data-name="Fill 537" transform="translate(8.895 33.503)"/>
            <path id="prefix__Fill_539" d="M1.016 0a1.016 1.016 0 1 0 1.017 1.017A1.017 1.017 0 0 0 1.016 0" class="prefix__cls-3" data-name="Fill 539" transform="translate(12.96 33.503)"/>
            <path id="prefix__Fill_541" d="M1.016 0a1.016 1.016 0 1 0 1.017 1.017A1.017 1.017 0 0 0 1.016 0" class="prefix__cls-3" data-name="Fill 541" transform="translate(17.025 33.503)"/>
            <path id="prefix__Fill_543" d="M1.016 2.033A1.016 1.016 0 1 0 0 1.016a1.017 1.017 0 0 0 1.016 1.017" class="prefix__cls-3" data-name="Fill 543" transform="translate(21.09 33.503)"/>
            <path id="prefix__Fill_545" d="M1.016 2.033A1.016 1.016 0 1 0 0 1.016a1.017 1.017 0 0 0 1.016 1.017" class="prefix__cls-3" data-name="Fill 545" transform="translate(25.155 33.503)"/>
            <path id="prefix__Fill_547" d="M1.016 2.033A1.016 1.016 0 1 0 0 1.016a1.017 1.017 0 0 0 1.016 1.017" class="prefix__cls-3" data-name="Fill 547" transform="translate(29.22 33.503)"/>
            <path id="prefix__Fill_549" d="M.25 0c.062.382.128.763.2 1.141A.988.988 0 0 0 .55.72 1.015 1.015 0 0 0 .25 0" class="prefix__cls-3" data-name="Fill 549" transform="translate(.216 36.847)"/>
            <path id="prefix__Fill_551" d="M1.017 2.032A1.016 1.016 0 1 0 0 1.015a1.016 1.016 0 0 0 1.017 1.017" class="prefix__cls-3" data-name="Fill 551" transform="translate(2.798 36.552)"/>
            <path id="prefix__Fill_553" d="M1.017 0a1.016 1.016 0 1 0 1.016 1.016A1.016 1.016 0 0 0 1.017 0" class="prefix__cls-3" data-name="Fill 553" transform="translate(6.863 36.552)"/>
            <path id="prefix__Fill_555" d="M1.017 2.032A1.016 1.016 0 1 0 0 1.015a1.017 1.017 0 0 0 1.017 1.017" class="prefix__cls-3" data-name="Fill 555" transform="translate(10.928 36.552)"/>
            <path id="prefix__Fill_557" d="M1.017 0a1.016 1.016 0 1 0 1.017 1.016A1.017 1.017 0 0 0 1.017 0" class="prefix__cls-3" data-name="Fill 557" transform="translate(14.992 36.552)"/>
            <path id="prefix__Fill_559" d="M1.017 0a1.016 1.016 0 1 0 1.017 1.016A1.016 1.016 0 0 0 1.017 0" class="prefix__cls-3" data-name="Fill 559" transform="translate(19.057 36.552)"/>
            <path id="prefix__Fill_561" d="M1.017 2.032A1.016 1.016 0 1 0 0 1.015a1.017 1.017 0 0 0 1.017 1.017" class="prefix__cls-3" data-name="Fill 561" transform="translate(23.122 36.552)"/>
            <path id="prefix__Fill_563" d="M1.017 2.032A1.016 1.016 0 1 0 0 1.015a1.017 1.017 0 0 0 1.017 1.017" class="prefix__cls-3" data-name="Fill 563" transform="translate(27.187 36.552)"/>
            <path id="prefix__Fill_565" d="M0 0a1.016 1.016 0 0 1 1.014 1.016A1.016 1.016 0 0 1 0 2.031 1.016 1.016 0 0 0 0 0" class="prefix__cls-3" data-name="Fill 565" transform="translate(32.265 36.552)"/>
            <path id="prefix__Fill_567" d="M2.026 1.016a1.013 1.013 0 1 0-1.013 1.016 1.016 1.016 0 0 0 1.013-1.016" class="prefix__cls-3" data-name="Fill 567" transform="translate(31.252 36.552)"/>
            <path id="prefix__Fill_569" d="M1.688 1.016A1.016 1.016 0 0 0 .672 0 1 1 0 0 0 0 .266C.155.852.33 1.43.518 2a.929.929 0 0 0 .154.032 1.016 1.016 0 0 0 1.016-1.016" class="prefix__cls-3" data-name="Fill 569" transform="translate(1.11 39.6)"/>
            <path id="prefix__Fill_571" d="M1.016 2.032A1.016 1.016 0 1 0 0 1.015a1.016 1.016 0 0 0 1.016 1.017" class="prefix__cls-3" data-name="Fill 571" transform="translate(4.831 39.6)"/>
            <path id="prefix__Fill_573" d="M1.017 0a1.016 1.016 0 1 0 1.016 1.016A1.016 1.016 0 0 0 1.017 0" class="prefix__cls-3" data-name="Fill 573" transform="translate(8.895 39.6)"/>
            <path id="prefix__Fill_575" d="M1.016 2.032A1.016 1.016 0 1 0 0 1.015a1.016 1.016 0 0 0 1.016 1.017" class="prefix__cls-3" data-name="Fill 575" transform="translate(12.96 39.6)"/>
            <path id="prefix__Fill_577" d="M1.016 2.032A1.016 1.016 0 1 0 0 1.015a1.016 1.016 0 0 0 1.016 1.017" class="prefix__cls-3" data-name="Fill 577" transform="translate(17.025 39.6)"/>
            <path id="prefix__Fill_579" d="M1.016 2.032A1.016 1.016 0 1 0 0 1.015a1.016 1.016 0 0 0 1.016 1.017" class="prefix__cls-3" data-name="Fill 579" transform="translate(21.09 39.6)"/>
            <path id="prefix__Fill_581" d="M1.016 0a1.016 1.016 0 1 0 1.017 1.016A1.016 1.016 0 0 0 1.016 0" class="prefix__cls-3" data-name="Fill 581" transform="translate(25.155 39.6)"/>
            <path id="prefix__Fill_583" d="M1.016 2.032A1.016 1.016 0 1 0 0 1.015a1.016 1.016 0 0 0 1.016 1.017" class="prefix__cls-3" data-name="Fill 583" transform="translate(29.22 39.6)"/>
            <path id="prefix__Fill_585" d="M1.017 0a1.016 1.016 0 1 0 1.017 1.017A1.016 1.016 0 0 0 1.017 0" class="prefix__cls-3" data-name="Fill 585" transform="translate(2.798 42.649)"/>
            <path id="prefix__Fill_587" d="M1.017 2.033A1.016 1.016 0 1 0 0 1.016a1.016 1.016 0 0 0 1.017 1.017" class="prefix__cls-3" data-name="Fill 587" transform="translate(6.863 42.649)"/>
            <path id="prefix__Fill_589" d="M1.017 2.033A1.016 1.016 0 1 0 0 1.016a1.017 1.017 0 0 0 1.017 1.017" class="prefix__cls-3" data-name="Fill 589" transform="translate(10.928 42.649)"/>
            <path id="prefix__Fill_591" d="M1.017 2.033A1.016 1.016 0 1 0 0 1.016a1.017 1.017 0 0 0 1.017 1.017" class="prefix__cls-3" data-name="Fill 591" transform="translate(14.992 42.649)"/>
            <path id="prefix__Fill_593" d="M1.017 2.033A1.016 1.016 0 1 0 0 1.016a1.017 1.017 0 0 0 1.017 1.017" class="prefix__cls-3" data-name="Fill 593" transform="translate(19.057 42.649)"/>
            <path id="prefix__Fill_595" d="M1.017 2.033A1.016 1.016 0 1 0 0 1.016a1.017 1.017 0 0 0 1.017 1.017" class="prefix__cls-3" data-name="Fill 595" transform="translate(23.122 42.649)"/>
            <path id="prefix__Fill_597" d="M1.017 2.033A1.016 1.016 0 1 0 0 1.016a1.017 1.017 0 0 0 1.017 1.017" class="prefix__cls-3" data-name="Fill 597" transform="translate(27.187 42.649)"/>
            <path id="prefix__Fill_599" d="M1.014 1.017A1.016 1.016 0 0 1 0 2.033a1.017 1.017 0 0 0 1.019-1.016A1.017 1.017 0 0 0 0 0a1.016 1.016 0 0 1 1.014 1.017" class="prefix__cls-3" data-name="Fill 599" transform="translate(32.265 42.648)"/>
            <path id="prefix__Fill_601" d="M0 1.016A1.013 1.013 0 1 0 1.014 0 1.016 1.016 0 0 0 0 1.016" class="prefix__cls-3" data-name="Fill 601" transform="translate(31.252 42.649)"/>
            <path id="prefix__Fill_603" d="M1.016 0a1.016 1.016 0 1 0 1.016 1.017A1.016 1.016 0 0 0 1.016 0" class="prefix__cls-3" data-name="Fill 603" transform="translate(4.831 45.697)"/>
            <path id="prefix__Fill_605" d="M1.017 2.033A1.016 1.016 0 1 0 0 1.016a1.016 1.016 0 0 0 1.017 1.017" class="prefix__cls-3" data-name="Fill 605" transform="translate(8.895 45.697)"/>
            <path id="prefix__Fill_607" d="M1.016 2.033A1.016 1.016 0 1 0 0 1.016a1.017 1.017 0 0 0 1.016 1.017" class="prefix__cls-3" data-name="Fill 607" transform="translate(12.96 45.697)"/>
            <path id="prefix__Fill_609" d="M1.016 0a1.016 1.016 0 1 0 1.017 1.017A1.017 1.017 0 0 0 1.016 0" class="prefix__cls-3" data-name="Fill 609" transform="translate(17.025 45.697)"/>
            <path id="prefix__Fill_611" d="M1.016 0a1.016 1.016 0 1 0 1.017 1.017A1.017 1.017 0 0 0 1.016 0" class="prefix__cls-3" data-name="Fill 611" transform="translate(21.09 45.697)"/>
            <path id="prefix__Fill_613" d="M1.016 2.033A1.016 1.016 0 1 0 0 1.016a1.017 1.017 0 0 0 1.016 1.017" class="prefix__cls-3" data-name="Fill 613" transform="translate(25.155 45.697)"/>
            <path id="prefix__Fill_615" d="M1.016 2.033A1.016 1.016 0 1 0 0 1.016a1.017 1.017 0 0 0 1.016 1.017" class="prefix__cls-3" data-name="Fill 615" transform="translate(29.22 45.697)"/>
            <path id="prefix__Fill_617" d="M1.017 0a1.016 1.016 0 1 0 1.016 1.017A1.017 1.017 0 0 0 1.017 0" class="prefix__cls-3" data-name="Fill 617" transform="translate(6.863 48.746)"/>
            <path id="prefix__Fill_619" d="M1.017 0a1.016 1.016 0 1 0 1.017 1.017A1.017 1.017 0 0 0 1.017 0" class="prefix__cls-3" data-name="Fill 619" transform="translate(10.928 48.746)"/>
            <path id="prefix__Fill_621" d="M1.017 2.033A1.016 1.016 0 1 0 0 1.016a1.017 1.017 0 0 0 1.017 1.017" class="prefix__cls-3" data-name="Fill 621" transform="translate(14.992 48.746)"/>
            <path id="prefix__Fill_623" d="M1.017 2.033A1.016 1.016 0 1 0 0 1.016a1.017 1.017 0 0 0 1.017 1.017" class="prefix__cls-3" data-name="Fill 623" transform="translate(19.057 48.746)"/>
            <path id="prefix__Fill_625" d="M1.017 2.033A1.016 1.016 0 1 0 0 1.016a1.017 1.017 0 0 0 1.017 1.017" class="prefix__cls-3" data-name="Fill 625" transform="translate(23.122 48.746)"/>
            <path id="prefix__Fill_627" d="M1.017 0a1.016 1.016 0 1 0 1.017 1.017A1.017 1.017 0 0 0 1.017 0" class="prefix__cls-3" data-name="Fill 627" transform="translate(27.187 48.746)"/>
            <path id="prefix__Fill_629" d="M1.014 1.017A1.016 1.016 0 0 1 0 2.033a1.017 1.017 0 0 0 1.019-1.016A1.017 1.017 0 0 0 0 0a1.016 1.016 0 0 1 1.014 1.017" class="prefix__cls-3" data-name="Fill 629" transform="translate(32.265 48.745)"/>
            <path id="prefix__Fill_631" d="M0 1.016A1.013 1.013 0 1 0 1.014 0 1.016 1.016 0 0 0 0 1.016" class="prefix__cls-3" data-name="Fill 631" transform="translate(31.252 48.746)"/>
            <path id="prefix__Fill_633" d="M1.017 0a1.016 1.016 0 1 0 1.016 1.017A1.016 1.016 0 0 0 1.017 0" class="prefix__cls-3" data-name="Fill 633" transform="translate(8.895 51.795)"/>
            <path id="prefix__Fill_635" d="M1.016 0a1.016 1.016 0 1 0 1.017 1.017A1.016 1.016 0 0 0 1.016 0" class="prefix__cls-3" data-name="Fill 635" transform="translate(12.96 51.795)"/>
            <path id="prefix__Fill_637" d="M1.016 2.032A1.016 1.016 0 1 0 0 1.016a1.016 1.016 0 0 0 1.016 1.016" class="prefix__cls-3" data-name="Fill 637" transform="translate(17.025 51.795)"/>
            <path id="prefix__Fill_639" d="M1.016 2.032A1.016 1.016 0 1 0 0 1.016a1.016 1.016 0 0 0 1.016 1.016" class="prefix__cls-3" data-name="Fill 639" transform="translate(21.09 51.795)"/>
            <path id="prefix__Fill_641" d="M1.016 2.032A1.016 1.016 0 1 0 0 1.016a1.016 1.016 0 0 0 1.016 1.016" class="prefix__cls-3" data-name="Fill 641" transform="translate(25.155 51.795)"/>
            <path id="prefix__Fill_643" d="M1.016 2.032A1.016 1.016 0 1 0 0 1.016a1.016 1.016 0 0 0 1.016 1.016" class="prefix__cls-3" data-name="Fill 643" transform="translate(29.22 51.795)"/>
            <path id="prefix__Fill_645" d="M2 1.017A1.017 1.017 0 0 0 .983 0 1 1 0 0 0 0 .856q.652.571 1.334 1.106A1.01 1.01 0 0 0 2 1.017" class="prefix__cls-3" data-name="Fill 645" transform="translate(10.961 54.843)"/>
            <path id="prefix__Fill_647" d="M1.017 0a1.016 1.016 0 1 0 1.017 1.017A1.017 1.017 0 0 0 1.017 0" class="prefix__cls-3" data-name="Fill 647" transform="translate(14.992 54.843)"/>
            <path id="prefix__Fill_649" d="M1.017 0a1.016 1.016 0 1 0 1.017 1.017A1.016 1.016 0 0 0 1.017 0" class="prefix__cls-3" data-name="Fill 649" transform="translate(19.057 54.843)"/>
            <path id="prefix__Fill_651" d="M1.017 0a1.016 1.016 0 1 0 1.017 1.017A1.016 1.016 0 0 0 1.017 0" class="prefix__cls-3" data-name="Fill 651" transform="translate(23.122 54.843)"/>
            <path id="prefix__Fill_653" d="M1.017 2.032A1.016 1.016 0 1 0 0 1.016a1.017 1.017 0 0 0 1.017 1.016" class="prefix__cls-3" data-name="Fill 653" transform="translate(27.187 54.843)"/>
            <path id="prefix__Fill_655" d="M1.014 1.017A1.016 1.016 0 0 1 0 2.033a1.016 1.016 0 0 0 1.019-1.016A1.017 1.017 0 0 0 0 0a1.015 1.015 0 0 1 1.014 1.017" class="prefix__cls-3" data-name="Fill 655" transform="translate(32.265 54.843)"/>
            <path id="prefix__Fill_657" d="M0 1.016A1.013 1.013 0 1 0 1.014 0 1.016 1.016 0 0 0 0 1.016" class="prefix__cls-3" data-name="Fill 657" transform="translate(31.252 54.844)"/>
            <path id="prefix__Fill_659" d="M.168.007A.992.992 0 0 0 0 .04q.56.389 1.138.753a1 1 0 0 0-.97-.786" class="prefix__cls-3" data-name="Fill 659" transform="translate(13.808 57.885)"/>
            <path id="prefix__Fill_661" d="M1.016 0a1.016 1.016 0 1 0 1.017 1.017A1.017 1.017 0 0 0 1.016 0" class="prefix__cls-3" data-name="Fill 661" transform="translate(17.025 57.892)"/>
            <path id="prefix__Fill_663" d="M1.016 0a1.016 1.016 0 1 0 1.017 1.017A1.017 1.017 0 0 0 1.016 0" class="prefix__cls-3" data-name="Fill 663" transform="translate(21.09 57.892)"/>
            <path id="prefix__Fill_665" d="M1.016 0a1.016 1.016 0 1 0 1.017 1.017A1.017 1.017 0 0 0 1.016 0" class="prefix__cls-3" data-name="Fill 665" transform="translate(25.155 57.892)"/>
            <path id="prefix__Fill_667" d="M1.016 0a1.016 1.016 0 1 0 1.017 1.017A1.017 1.017 0 0 0 1.016 0" class="prefix__cls-3" data-name="Fill 667" transform="translate(29.22 57.892)"/>
            <path id="prefix__Fill_669" d="M.517.027A.993.993 0 0 0 0 .189Q.73.5 1.478.773A1 1 0 0 0 .517.027" class="prefix__cls-3" data-name="Fill 669" transform="translate(19.557 60.913)"/>
            <path id="prefix__Fill_671" d="M2.033 1.017a1.016 1.016 0 1 0-2.033 0 1 1 0 0 0 .1.431q.736.21 1.486.386a1 1 0 0 0 .443-.817" class="prefix__cls-3" data-name="Fill 671" transform="translate(23.123 60.94)"/>
            <path id="prefix__Fill_673" d="M1.017 0a1.016 1.016 0 1 0 1.017 1.017A1.017 1.017 0 0 0 1.017 0" class="prefix__cls-3" data-name="Fill 673" transform="translate(27.187 60.94)"/>
            <path id="prefix__Fill_675" d="M0 0a1.016 1.016 0 0 1 1.014 1.017A1.016 1.016 0 0 1 0 2.032a1.016 1.016 0 0 0 1.019-1.015A1.017 1.017 0 0 0 0 0" class="prefix__cls-3" data-name="Fill 675" transform="translate(32.265 60.94)"/>
            <path id="prefix__Fill_677" d="M2.026 1.016a1.013 1.013 0 1 0-1.013 1.016 1.016 1.016 0 0 0 1.013-1.016" class="prefix__cls-3" data-name="Fill 677" transform="translate(31.252 60.941)"/>
        </g>
        <path id="prefix__Fill_679" d="M2.8 0C2.616.01.686.133.151 1.286-.414 2.5.606 4.758 3.226 5.842A14.168 14.168 0 0 1 2.8 0" class="prefix__cls-4" data-name="Fill 679" transform="translate(24.174 21.25)"/>
        <path id="prefix__Fill_681" d="M3.943 6.627L3.4 6.4A5.616 5.616 0 0 1 .224 3.431a2.514 2.514 0 0 1-.046-1.963C.763.207 2.69.04 3.07.019L3.412 0l-.047.338a13.882 13.882 0 0 0 .414 5.726l.163.561zM2.762.616C2.138.7 1.04.95.688 1.706A1.991 1.991 0 0 0 .75 3.225a4.91 4.91 0 0 0 2.331 2.406A14.452 14.452 0 0 1 2.762.616z" class="prefix__cls-5" data-name="Fill 681" transform="translate(23.892 20.95)"/>
        <path id="prefix__Fill_683" d="M.423 0C.61.01 2.54.133 3.075 1.286 3.64 2.5 2.62 4.758 0 5.842a14.185 14.185 0 0 0 .514-2.856A14.116 14.116 0 0 0 .423 0" class="prefix__cls-4" data-name="Fill 683" transform="translate(44.366 21.14)"/>
        <path id="prefix__Fill_685" d="M0 6.625l.162-.561a13.821 13.821 0 0 0 .5-2.8A13.911 13.911 0 0 0 .578.337L.531 0l.34.018C1.1.03 3.164.17 3.765 1.465a2.519 2.519 0 0 1-.046 1.964A5.614 5.614 0 0 1 .542 6.4L0 6.624zM1.181.615a14.544 14.544 0 0 1 .049 2.691A14.474 14.474 0 0 1 .861 5.63a4.913 4.913 0 0 0 2.332-2.406A2 2 0 0 0 3.254 1.7C2.9.951 1.8.7 1.181.615z" class="prefix__cls-5" data-name="Fill 685" transform="translate(43.932 20.842)"/>
        <path id="prefix__Fill_687" d="M1.826 0a9.777 9.777 0 0 1 .322 5.946A9.538 9.538 0 0 1 0 9.875a6.743 6.743 0 0 0 6.13 4.418 6.694 6.694 0 0 0 5.922-3.508A12.927 12.927 0 0 1 10.542.654L1.826 0" class="prefix__cls-4" data-name="Fill 687" transform="translate(29.493 32.287)"/>
        <path id="prefix__Fill_689" d="M6.558 14.891H6.45a7.066 7.066 0 0 1-6.389-4.6L0 10.128.116 10A9.267 9.267 0 0 0 2.2 6.188 9.527 9.527 0 0 0 1.888.414L1.731 0l9.495.714-.086.327a12.823 12.823 0 0 0-.21 5.551 12.548 12.548 0 0 0 1.688 4.36l.086.14-.079.144a6.982 6.982 0 0 1-6.067 3.655zM2.561.628a10.011 10.011 0 0 1 .185 5.7 9.865 9.865 0 0 1-2.1 3.915 6.518 6.518 0 0 0 5.814 4.082h.112a6.416 6.416 0 0 0 5.478-3.221 13.2 13.2 0 0 1-1.676-4.411 13.41 13.41 0 0 1 .138-5.468L2.561.628z" class="prefix__cls-5" data-name="Fill 689" transform="translate(29.168 31.973)"/>
        <path id="prefix__Fill_691" d="M18.608 12.786c0 7.061-4.165 12.786-9.3 12.786S0 19.847 0 12.786 4.166 0 9.3 0s9.3 5.725 9.3 12.786" class="prefix__cls-4" data-name="Fill 691" transform="translate(26.616 9.995)"/>
        <path id="prefix__Fill_693" d="M9.586 26.137C4.3 26.137 0 20.275 0 13.069S4.3 0 9.586 0s9.585 5.863 9.585 13.069-4.3 13.068-9.585 13.068zm0-25.573C4.611.564.564 6.174.564 13.069s4.047 12.5 9.022 12.5 9.022-5.609 9.022-12.5S14.56.564 9.586.564z" class="prefix__cls-5" data-name="Fill 693" transform="translate(26.335 9.712)"/>
        <path id="prefix__Fill_695" d="M15.035.53a12.2 12.2 0 0 0-8.173.385A11.07 11.07 0 0 0 .589 7.083c-1.62 4.55.5 9.649 1.616 9.638 1-.009.566-4.088 3.306-5.674 1.856-1.073 2.862.32 6.2-.656 2.582-.755 3.254-1.962 4.749-1.553 1.39.38 2.167 1.8 2.759 2.872 1.528 2.778 1.038 4.982 1.545 5.066.79.13 3.85-4.934 2.256-9.693C21.434 2.349 16.231.87 15.035.53" class="prefix__cls-3" data-name="Fill 695" transform="translate(24.545 4.191)"/>
        <path id="prefix__Fill_697" d="M21.076 17.343a.524.524 0 0 1-.076-.005c-.408-.067-.466-.529-.554-1.23a10.305 10.305 0 0 0-1.194-3.979c-.583-1.063-1.309-2.387-2.585-2.736a1.908 1.908 0 0 0-.51-.073 3.54 3.54 0 0 0-1.6.574 12.422 12.422 0 0 1-2.482 1.05 8.843 8.843 0 0 1-2.5.381 12.026 12.026 0 0 1-1.288-.083c-.314-.032-.61-.062-.888-.062a2.732 2.732 0 0 0-1.457.393c-1.554.9-2.028 2.682-2.375 3.983v.005c-.266 1-.458 1.718-1.068 1.724h-.016c-.33 0-.669-.242-1.008-.72a11.363 11.363 0 0 1-.869-9.292A11 11 0 0 1 7.025.943 11.849 11.849 0 0 1 11.664 0a13.649 13.649 0 0 1 3.731.543c5.405 1.535 7.428 4.509 8.174 6.734a10.978 10.978 0 0 1-1.659 9.512c-.318.373-.59.554-.834.554zM16.16 8.758a2.447 2.447 0 0 1 .654.092c1.5.413 2.329 1.912 2.93 3.006a10.979 10.979 0 0 1 1.261 4.177v.015a4.9 4.9 0 0 0 .117.709A3.309 3.309 0 0 0 22 15.68a10.45 10.45 0 0 0 1.035-8.223c-.7-2.1-2.622-4.9-7.793-6.372a13.107 13.107 0 0 0-3.577-.52 11.272 11.272 0 0 0-4.41.893 10.471 10.471 0 0 0-6.117 6 10.922 10.922 0 0 0 .8 8.778c.272.381.473.482.549.482.183 0 .384-.757.53-1.308.352-1.319.884-3.311 2.638-4.326a3.285 3.285 0 0 1 1.737-.47 9.321 9.321 0 0 1 .937.064h.011a11.65 11.65 0 0 0 1.239.081 8.155 8.155 0 0 0 2.337-.358 11.988 11.988 0 0 0 2.362-1l.011-.006a4.033 4.033 0 0 1 1.871-.637z" class="prefix__cls-5" data-name="Fill 697" transform="translate(24.263 3.908)"/>
        <path id="prefix__Fill_699" d="M23.745 40.488c-3.991-1.551-7.358-2.878-9.922-3.893-4.193-1.66-5.794-2.273-6.026-3.6-.242-1.39 1.417-3.108 4.734-6.546.333-.345 1.437-1.474 2.931-3.108.81-.885.684-.769.942-1.038a13.031 13.031 0 0 1 4.52-3.492c1.5-.592 2.446-.421 3.228-1.418a3.155 3.155 0 0 0 .538-1.093c.986-3.368-1.046-7.961-.215-10.256a15.388 15.388 0 0 1 .77-1.746c.35-.66.5-.806.672-1.162.55-1.136.583-2.822.065-3.093-.754-.4-3.178 1.975-4.57 4.757-1.879 3.751-.418 5.314-1.731 8.361-1.168 2.71-2.666 2.266-9.734 7.57a32.629 32.629 0 0 0-8.282 8.444C.554 30.89-.206 32.491.05 34.3c.106.754.445 1.941 2.475 4.146a25.16 25.16 0 0 0 6.064 4.818 62.005 62.005 0 0 0 12.1 5.2l3.058-7.982" class="prefix__cls-4" data-name="Fill 699" transform="translate(.281 2.02)"/>
        <path id="prefix__Fill_701" d="M21.136 49.1l-.252-.08a62.478 62.478 0 0 1-12.153-5.225A25.615 25.615 0 0 1 2.6 38.922C.566 36.716.17 35.466.052 34.624-.23 32.63.681 30.889 1.708 29.3a32.794 32.794 0 0 1 8.349-8.518 75.162 75.162 0 0 1 6.243-4.234h.005c1.994-1.231 2.74-1.692 3.4-3.214a8.332 8.332 0 0 0 .622-3.47 10.054 10.054 0 0 1 1.113-4.909c1.137-2.27 3.1-4.513 4.29-4.9A1.118 1.118 0 0 1 26.07 0a.689.689 0 0 1 .324.076c.714.374.638 2.271.059 3.467a4.843 4.843 0 0 1-.258.451l-.008.013c-.1.162-.229.364-.41.707a14.883 14.883 0 0 0-.754 1.709c-.366 1.011-.126 2.585.129 4.251v.005a14.436 14.436 0 0 1 .091 5.982 3.435 3.435 0 0 1-.587 1.186 3.216 3.216 0 0 1-2.025 1.1 10.376 10.376 0 0 0-1.32.4 12.885 12.885 0 0 0-4.421 3.425c-.1.107-.143.152-.208.225l-.026.03-.027.03c-.1.117-.276.312-.675.748-1.32 1.443-2.348 2.5-2.787 2.958l-.007.007-.142.148c-3.146 3.259-4.878 5.054-4.66 6.3.2 1.15 1.791 1.78 5.633 3.3h.007l.212.083c3.15 1.249 6.488 2.559 9.921 3.893l.261.1-3.256 8.506zM26.069.563A.545.545 0 0 0 25.9.6c-.928.3-2.818 2.335-3.958 4.612a9.561 9.561 0 0 0-1.057 4.658 8.92 8.92 0 0 1-.669 3.688c-.727 1.688-1.575 2.211-3.623 3.474l-.009.006a74.56 74.56 0 0 0-6.184 4.201 32.2 32.2 0 0 0-8.214 8.372C1.064 31.337.369 32.837.61 34.547c.107.761.477 1.9 2.4 3.994a25.057 25.057 0 0 0 6 4.764A61.942 61.942 0 0 0 20.8 48.4l2.862-7.473C20.36 39.647 17.2 38.406 14 37.139l-.212-.085C9.616 35.4 8.055 34.785 7.8 33.324c-.267-1.53 1.428-3.287 4.807-6.787l.146-.152.007-.007c.438-.452 1.462-1.51 2.776-2.947.4-.433.567-.625.669-.74l.026-.029c.09-.1.129-.146.252-.274A13.32 13.32 0 0 1 21.1 18.83a10.667 10.667 0 0 1 1.363-.42l.022-.006a2.681 2.681 0 0 0 1.724-.9 2.861 2.861 0 0 0 .488-1 14.043 14.043 0 0 0-.106-5.736c-.266-1.742-.517-3.388-.1-4.536a15.593 15.593 0 0 1 .785-1.781c.2-.368.332-.584.432-.743a4.344 4.344 0 0 0 .237-.411c.543-1.119.471-2.572.186-2.721a.124.124 0 0 0-.062-.013z" class="prefix__cls-5" data-name="Fill 701" transform="translate(0 1.739)"/>
        <path id="prefix__Fill_703" d="M2.413 40.484c2.15-.87 5.557-2.253 9.815-4 3.717-1.526 5.58-2.316 5.81-3.6.275-1.54-1.358-3.246-4.626-6.655-.288-.3-1.313-1.356-2.716-2.89-.8-.874-.675-.76-.942-1.038a13.534 13.534 0 0 0-4.52-3.492c-1.772-.73-2.459-.281-3.12-1.091-.553-.678-.521-1.546-.322-3.273.615-5.351 1.384-5.875.861-7.529C2.183 5.436 1.432 5.46.624 3.15.463 2.688-.353.361.176.04.79-.332 3.313 1.933 4.747 4.8c1.879 3.752.418 5.314 1.731 8.362 1.169 2.71 2.666 2.266 9.734 7.57a32.618 32.618 0 0 1 8.282 8.444c1.11 1.714 1.869 3.316 1.614 5.129-.12.848-.5 1.991-2.475 4.146a26.829 26.829 0 0 1-6.24 5.019 52.658 52.658 0 0 1-11.922 5l-3.058-7.983" class="prefix__cls-4" data-name="Fill 703" transform="translate(44.916 2.242)"/>
        <g id="prefix__Group_707" data-name="Group 707" transform="translate(44 1.587)">
            <path id="prefix__Clip_706-2" d="M0 0h26.721v49.092H0z" class="prefix__cls-1" data-name="Clip 706" transform="translate(.633 .372)"/>
            <g id="prefix__Group_707-2" data-name="Group 707">
                <path id="prefix__Fill_705" d="M5.583 49.092l-3.249-8.483.257-.1c2.071-.838 5.455-2.211 9.814-4 3.668-1.506 5.44-2.279 5.639-3.39.25-1.4-1.35-3.067-4.538-6.394l-.016-.025-.124-.13-.019-.019c-.4-.42-1.348-1.4-2.577-2.746-.44-.48-.605-.667-.694-.768s-.121-.136-.244-.265a13.36 13.36 0 0 0-4.423-3.425 7.125 7.125 0 0 0-1.745-.471 2.038 2.038 0 0 1-1.487-.7c-.62-.76-.59-1.689-.384-3.483a46.966 46.966 0 0 1 .771-4.736 4.586 4.586 0 0 0 .1-2.676 4.047 4.047 0 0 0-.744-1.353v-.006A7.738 7.738 0 0 1 .641 3.526C-.293.862-.025.286.312.082A.579.579 0 0 1 .62 0a.964.964 0 0 1 .268.042c1.069.309 3.174 2.474 4.393 4.91A10.027 10.027 0 0 1 6.4 9.855a8.347 8.347 0 0 0 .622 3.474c.657 1.523 1.4 1.984 3.4 3.217l.012.008c1.413.873 3.348 2.068 6.231 4.231a32.764 32.764 0 0 1 8.349 8.515c1.027 1.584 1.938 3.326 1.657 5.321-.128.894-.531 2.1-2.547 4.3a27.124 27.124 0 0 1-6.307 5.071 53.09 53.09 0 0 1-11.985 5.029l-.248.071zM.655.559A.172.172 0 0 0 .6.567c-.036.083-.184.612.574 2.773a7.24 7.24 0 0 0 1.19 2.239v.005A4.6 4.6 0 0 1 3.2 7.112a5.036 5.036 0 0 1-.088 2.961 46.968 46.968 0 0 0-.761 4.685c-.192 1.672-.225 2.467.261 3.062a1.513 1.513 0 0 0 1.138.5h.006a7.679 7.679 0 0 1 1.864.5 13.779 13.779 0 0 1 4.612 3.552c.118.122.161.17.237.257l.024.027c.086.1.247.281.685.76.886.967 1.756 1.894 2.587 2.755l.126.13.009.009c3.323 3.47 4.992 5.212 4.691 6.89-.262 1.463-2.289 2.3-5.971 3.809h-.011c-3.19 1.31-6.316 2.585-9.559 3.9l2.867 7.483a52.51 52.51 0 0 0 11.609-4.9 26.553 26.553 0 0 0 6.173-4.964c1.915-2.085 2.29-3.19 2.4-4a7.326 7.326 0 0 0-1.571-4.936 32.2 32.2 0 0 0-8.215-8.371 74.342 74.342 0 0 0-6.187-4.2l-.013-.008C8.077 15.763 7.23 15.24 6.5 13.552a8.881 8.881 0 0 1-.669-3.684 9.548 9.548 0 0 0-1.055-4.662C3.38 2.411 1.174.559.655.559z" class="prefix__cls-5" data-name="Fill 705" transform="translate(.633 .372)"/>
            </g>
        </g>
        <path id="prefix__Fill_708" d="M37.983 32.77c-1.881-6.4-1.032-12.032.992-14.13a22.64 22.64 0 0 1 4.358-3.054c1.349-.585 1.606-.658 1.606-.658a10.935 10.935 0 0 0 2.038-.759s.22-.169.39-.326c2.042-1.882 1.583-12.389-2.5-13.723-1.71-.56-2.6.966-6.7 2.046a22.493 22.493 0 0 1-7.424.654 6.451 6.451 0 0 1-4.2 2.291 6.537 6.537 0 0 1-6.043-3.15 13.355 13.355 0 0 1-3.631.532c-1.813.01-3.02-.363-5.758-1.091C7.454.43 5.615-.067 5.183.061.63 1.412-.831 10.774.438 11.893a1.127 1.127 0 0 0 .148.114 5.036 5.036 0 0 0 2.407.738 11.345 11.345 0 0 1 6.93 3.055 7.51 7.51 0 0 1 1.291 2.182c1.713 4 1.343 7.88.9 11.266-.15 1.154-.334 2.119-.485 2.823" class="prefix__cls-4" data-name="Fill 708" transform="translate(10.206 38.851)"/>
        <path id="prefix__Fill_710" d="M38.268 33.335a.283.283 0 0 1-.27-.2c-1.969-6.7-.957-12.315 1.059-14.406a22.812 22.812 0 0 1 4.45-3.117c1.327-.576 1.613-.662 1.642-.67.359-.13.67-.227.934-.31a4.014 4.014 0 0 0 1.025-.413s.2-.154.355-.3c1.1-1.012 1.432-5 .7-8.358-.34-1.559-1.194-4.268-3.1-4.89-.845-.275-1.458.018-2.574.551a20.7 20.7 0 0 1-3.964 1.5 22.789 22.789 0 0 1-7.374.673 6.7 6.7 0 0 1-4.292 2.281 6.752 6.752 0 0 1-6.2-3.1 13.631 13.631 0 0 1-3.506.486 17.88 17.88 0 0 1-5.114-.909l-1.082-.29C7.906 1.05 5.889.507 5.549.615 3.084 1.346 1.534 4.655.9 7.511c-.507 2.3-.392 4.1 0 4.454a.933.933 0 0 0 .111.086 4.722 4.722 0 0 0 2.266.7c1.382.048 5.1.908 7.13 3.152a8.213 8.213 0 0 1 1.342 2.26c1.7 3.974 1.391 7.817.926 11.413-.125.955-.289 1.914-.489 2.847a.282.282 0 1 1-.551-.119c.2-.918.358-1.86.48-2.8.456-3.518.762-7.276-.884-11.118A8.006 8.006 0 0 0 10 16.277a11.057 11.057 0 0 0-6.73-2.967 5.311 5.311 0 0 1-2.546-.782 1.348 1.348 0 0 1-.185-.141c-.743-.654-.628-2.982-.183-5 .32-1.46 1.635-6.305 5.031-7.313.471-.143 1.746.186 5.713 1.241l1.084.289a17.882 17.882 0 0 0 4.965.89 13.074 13.074 0 0 0 3.551-.521l.2-.058.114.178A6.233 6.233 0 0 0 26.8 5.114a6.15 6.15 0 0 0 4.008-2.193l.093-.11.145.01a22.183 22.183 0 0 0 7.331-.645A20.094 20.094 0 0 0 42.246.714c1.165-.558 1.936-.926 2.992-.579 1.61.526 2.844 2.411 3.474 5.307.708 3.254.529 7.6-.868 8.891-.18.166-.41.343-.41.343a4.376 4.376 0 0 1-1.184.493c-.258.081-.562.176-.931.309-.027.008-.306.094-1.589.65a22.405 22.405 0 0 0-4.267 2.992c-1.857 1.925-2.812 7.434-.925 13.854a.283.283 0 0 1-.27.362" class="prefix__cls-5" data-name="Fill 710" transform="translate(9.921 38.567)"/>
        <path id="prefix__Fill_712" d="M2.166 0C.473 1.141.11 1.924.2 2.466c.159.94 1.687 1.168 1.683 1.991 0 .875-1.73 1.126-1.777 2.087-.039.862 1.323 1.156 1.311 2.087-.01.887-1.249 1.126-1.4 2.086-.083.524.152 1.278 1.442 2.341" class="prefix__cls-4" data-name="Fill 712" transform="translate(13.242 1.082)"/>
        <g id="prefix__Group_716" data-name="Group 716" transform="translate(12.8 .787)">
            <path id="prefix__Clip_715-2" d="M0 0h2.731v13.621H0z" class="prefix__cls-1" data-name="Clip 715" transform="translate(.16 .013)"/>
            <g id="prefix__Group_716-2" data-name="Group 716">
                <path id="prefix__Fill_714" d="M1.74 13.621a.281.281 0 0 1-.179-.064C.4 12.6-.108 11.747.019 10.954a2.078 2.078 0 0 1 .832-1.223c.349-.308.564-.512.567-.822 0-.343-.268-.586-.584-.867a1.59 1.59 0 0 1-.726-1.23c.031-.63.573-.992 1.05-1.31.374-.249.726-.484.727-.764 0-.245-.248-.434-.658-.718A2.008 2.008 0 0 1 .206 2.8C.069 1.984.75 1.085 2.29.048a.282.282 0 1 1 .316.467C1.306 1.391.668 2.146.762 2.7c.06.353.413.6.787.855.423.292.9.624.9 1.184 0 .581-.522.926-.978 1.23-.4.268-.783.522-.8.868-.013.271.194.477.538.782a1.728 1.728 0 0 1 .773 1.294 1.7 1.7 0 0 1-.759 1.238 1.6 1.6 0 0 0-.647.889c-.091.57.361 1.27 1.343 2.078a.282.282 0 0 1-.179.5" class="prefix__cls-5" data-name="Fill 714" transform="translate(.16 .013)"/>
            </g>
        </g>
        <path id="prefix__Fill_717" d="M0 0c1.694 1.141 2.056 1.924 1.964 2.466C1.8 3.406.277 3.634.281 4.458c0 .875 1.731 1.126 1.777 2.087C2.1 7.406.738 7.7.749 8.631c.01.887 1.249 1.126 1.4 2.086.085.524-.149 1.283-1.44 2.341" class="prefix__cls-4" data-name="Fill 717" transform="translate(55.206 1.082)"/>
        <g id="prefix__Group_721" data-name="Group 721" transform="translate(54.4 .787)">
            <path id="prefix__Clip_720-2" d="M0 0h2.73v13.621H0z" class="prefix__cls-1" data-name="Clip 720" transform="translate(.524 .013)"/>
            <g id="prefix__Group_721-2" data-name="Group 721">
                <path id="prefix__Fill_719" d="M.991 13.621a.282.282 0 0 1-.179-.5c.982-.808 1.434-1.508 1.344-2.079a1.607 1.607 0 0 0-.648-.888 1.7 1.7 0 0 1-.76-1.238 1.728 1.728 0 0 1 .773-1.294c.343-.306.55-.511.538-.782-.018-.346-.4-.6-.8-.868C.8 5.667.283 5.321.28 4.741c0-.56.478-.892.9-1.184.374-.258.727-.5.787-.855.096-.556-.542-1.311-1.843-2.187A.282.282 0 1 1 .44.048C1.98 1.085 2.662 1.984 2.524 2.8A2.008 2.008 0 0 1 1.5 4.02c-.41.284-.66.474-.658.718 0 .28.354.515.727.764.478.318 1.02.68 1.05 1.31a1.589 1.589 0 0 1-.719 1.23c-.316.281-.588.524-.584.867 0 .31.218.514.567.822a2.078 2.078 0 0 1 .832 1.223c.126.794-.378 1.646-1.542 2.6a.281.281 0 0 1-.179.064" class="prefix__cls-5" data-name="Fill 719" transform="translate(.524 .013)"/>
            </g>
        </g>
        <path id="prefix__Fill_722" d="M0 0c1.184.8 1.438 1.346 1.374 1.724C1.262 2.382.193 2.542.2 3.117c0 .612 1.21.787 1.242 1.459.029.6-.922.806-.915 1.458.007.621.874.787.981 1.459.054.366-.108.893-1.008 1.637" class="prefix__cls-4" data-name="Fill 722" transform="translate(59.567 3.046)"/>
        <path id="prefix__Fill_724" d="M.778 9.694a.282.282 0 0 1-.179-.5c.653-.538.967-1.013.91-1.374a1.049 1.049 0 0 0-.425-.572 1.255 1.255 0 0 1-.559-.929 1.289 1.289 0 0 1 .569-.97c.219-.2.354-.324.346-.478-.01-.2-.258-.365-.522-.541C.581 4.107.2 3.851.2 3.4s.354-.682.666-.9c.246-.17.479-.331.515-.542S1.294 1.3.125.515A.282.282 0 1 1 .44.048c1.107.746 1.6 1.4 1.494 2a1.491 1.491 0 0 1-.75.913c-.218.15-.424.293-.423.432s.238.31.469.464c.334.222.75.5.772.982a1.19 1.19 0 0 1-.534.927c-.238.211-.382.354-.379.542s.141.312.368.512a1.546 1.546 0 0 1 .608.906c.1.586-.268 1.207-1.107 1.9a.281.281 0 0 1-.179.064" class="prefix__cls-5" data-name="Fill 724" transform="translate(59.285 2.764)"/>
        <path id="prefix__Fill_726" d="M1.515 0C.331.8.077 1.346.142 1.724c.111.658 1.179.818 1.177 1.393 0 .612-1.21.787-1.242 1.459-.029.6.922.806.915 1.458-.007.621-.874.787-.981 1.459-.058.366.106.893 1.009 1.636" class="prefix__cls-4" data-name="Fill 726" transform="translate(9.613 3.046)"/>
        <path id="prefix__Fill_728" d="M1.3 9.694a.281.281 0 0 1-.179-.064c-.839-.69-1.2-1.312-1.108-1.9a1.55 1.55 0 0 1 .609-.906c.227-.2.366-.331.368-.512s-.142-.33-.38-.542a1.193 1.193 0 0 1-.535-.927c.024-.483.439-.761.773-.982.23-.154.469-.314.47-.464s-.2-.282-.423-.432a1.491 1.491 0 0 1-.75-.913c-.1-.6.386-1.259 1.494-2a.282.282 0 1 1 .314.467C.785 1.3.667 1.758.7 1.959s.268.374.514.543c.314.217.669.462.666.9s-.384.706-.721.93c-.259.175-.509.34-.52.54-.007.154.127.282.347.478a1.291 1.291 0 0 1 .569.97A1.253 1.253 0 0 1 1 7.248a1.049 1.049 0 0 0-.425.572c-.058.362.257.837.91 1.374a.282.282 0 0 1-.179.5" class="prefix__cls-5" data-name="Fill 728" transform="translate(9.331 2.764)"/>
        <path id="prefix__Fill_730" d="M16.336 8.027c.224 1.008.828 3.72-.763 5.912-2.187 3.013-6.663 2.478-7.262 2.4C4.99 15.89.087 13.279 0 8.311A8.169 8.169 0 0 1 8.026 0c5.117-.09 7.676 5.177 8.31 8.026" data-name="Fill 730" transform="translate(28.321 5.602)" style="fill:rgba(218,206,253,.5);mix-blend-mode:multiply;isolation:isolate"/>
    </g>
</svg>
