<svg xmlns="http://www.w3.org/2000/svg" width="66.3" height="72.306" viewBox="0 0 66.3 72.306">
    <defs>
        <clipPath id="prefix__clip-path">
            <path id="prefix__Clip_148" d="M.138 0h.524v.8H.138z" class="prefix__cls-1" data-name="Clip 148" transform="translate(.038 .244)"/>
        </clipPath>
        <clipPath id="prefix__clip-path-2">
            <path id="prefix__Clip_351" d="M.136 0h.528v.8H.136z" class="prefix__cls-1" data-name="Clip 351" transform="translate(.036 .424)"/>
        </clipPath>
        <clipPath id="prefix__clip-path-3">
            <path id="prefix__Clip_354" d="M.142 0h.516v1.179H.142z" class="prefix__cls-1" data-name="Clip 354" transform="translate(.042 .547)"/>
        </clipPath>
        <style>
            .prefix__cls-1{fill:none}.prefix__cls-3{fill:#c5eb8c}.prefix__cls-7{fill:#fff}.prefix__cls-8{fill:#2d2d2d}
        </style>
    </defs>
    <g id="prefix__ic_don_t_know" data-name="ic_don't_know">
        <g id="prefix__Group_682" data-name="Group 682" transform="translate(1.6 5.906)" style="opacity:.5">
            <path id="prefix__Fill_1" d="M1.017 2.033A1.016 1.016 0 0 1 1.02 0a1.016 1.016 0 1 0 0 2.033" class="prefix__cls-3" data-name="Fill 1" transform="translate(31.945 .045)"/>
            <path id="prefix__Fill_3" d="M1.017 2.033A1.016 1.016 0 1 0 0 1.016a1.017 1.017 0 0 0 1.017 1.017" class="prefix__cls-3" data-name="Fill 3" transform="translate(36.01 .045)"/>
            <path id="prefix__Fill_5" d="M1.017 1.485A1.012 1.012 0 0 0 2.025.51C1.4.319.768.153.13 0A.982.982 0 0 0 0 .468a1.017 1.017 0 0 0 1.017 1.017" class="prefix__cls-3" data-name="Fill 5" transform="translate(40.074 .593)"/>
            <path id="prefix__Fill_7" d="M1.016 2.033A1.016 1.016 0 1 0 0 1.016a1.016 1.016 0 0 0 1.016 1.017" class="prefix__cls-3" data-name="Fill 7" transform="translate(33.978 3.094)"/>
            <path id="prefix__Fill_9" d="M1.017 2.033A1.016 1.016 0 1 0 0 1.016a1.016 1.016 0 0 0 1.017 1.017" class="prefix__cls-3" data-name="Fill 9" transform="translate(38.042 3.094)"/>
            <path id="prefix__Fill_11" d="M1.016 2.033A1.016 1.016 0 1 0 0 1.016a1.016 1.016 0 0 0 1.016 1.017" class="prefix__cls-3" data-name="Fill 11" transform="translate(42.107 3.094)"/>
            <path id="prefix__Fill_13" d="M0 1a1.016 1.016 0 1 0 2.032 0 .99.99 0 0 0-.144-.5C1.568.33 1.242.165.915 0A1.008 1.008 0 0 0 0 1" class="prefix__cls-3" data-name="Fill 13" transform="translate(46.172 3.114)"/>
            <path id="prefix__Fill_15" d="M.006 1.016A1.016 1.016 0 0 1 1.02 0a1.016 1.016 0 1 0 0 2.033A1.016 1.016 0 0 1 .006 1.016" class="prefix__cls-3" data-name="Fill 15" transform="translate(31.945 6.143)"/>
            <path id="prefix__Fill_17" d="M1.017 0a1.016 1.016 0 1 0 1.017 1.016A1.017 1.017 0 0 0 1.017 0" class="prefix__cls-3" data-name="Fill 17" transform="translate(36.01 6.143)"/>
            <path id="prefix__Fill_19" d="M1.017 2.032A1.016 1.016 0 1 0 0 1.015a1.016 1.016 0 0 0 1.017 1.017" class="prefix__cls-3" data-name="Fill 19" transform="translate(40.074 6.143)"/>
            <path id="prefix__Fill_21" d="M1.017 2.032A1.016 1.016 0 1 0 0 1.015a1.017 1.017 0 0 0 1.017 1.017" class="prefix__cls-3" data-name="Fill 21" transform="translate(44.139 6.143)"/>
            <path id="prefix__Fill_23" d="M1.017 2.032A1.016 1.016 0 1 0 0 1.015a1.017 1.017 0 0 0 1.017 1.017" class="prefix__cls-3" data-name="Fill 23" transform="translate(48.204 6.143)"/>
            <path id="prefix__Fill_25" d="M1.017 1.618a1.008 1.008 0 0 0 .742-.332C1.261.84.746.414.22 0A.991.991 0 0 0 0 .6a1.017 1.017 0 0 0 1.017 1.018" class="prefix__cls-3" data-name="Fill 25" transform="translate(52.269 6.557)"/>
            <path id="prefix__Fill_27" d="M1.016 0a1.016 1.016 0 1 0 1.017 1.017A1.016 1.016 0 0 0 1.016 0" class="prefix__cls-3" data-name="Fill 27" transform="translate(33.978 9.191)"/>
            <path id="prefix__Fill_29" d="M1.017 0a1.016 1.016 0 1 0 1.016 1.017A1.016 1.016 0 0 0 1.017 0" class="prefix__cls-3" data-name="Fill 29" transform="translate(38.042 9.191)"/>
            <path id="prefix__Fill_31" d="M1.016 0a1.016 1.016 0 1 0 1.017 1.017A1.016 1.016 0 0 0 1.016 0" class="prefix__cls-3" data-name="Fill 31" transform="translate(42.107 9.191)"/>
            <path id="prefix__Fill_33" d="M1.017 2.032A1.016 1.016 0 1 0 0 1.016a1.016 1.016 0 0 0 1.017 1.016" class="prefix__cls-3" data-name="Fill 33" transform="translate(46.172 9.191)"/>
            <path id="prefix__Fill_35" d="M1.016 2.032A1.016 1.016 0 1 0 0 1.016a1.016 1.016 0 0 0 1.016 1.016" class="prefix__cls-3" data-name="Fill 35" transform="translate(50.237 9.191)"/>
            <path id="prefix__Fill_37" d="M0 1.017a1.016 1.016 0 1 0 2.032 0A1.049 1.049 0 0 0 2.01.906c-.272-.3-.55-.586-.833-.873A1.024 1.024 0 0 0 1.017 0 1.016 1.016 0 0 0 0 1.017" class="prefix__cls-3" data-name="Fill 37" transform="translate(54.302 9.191)"/>
            <path id="prefix__Fill_39" d="M.006 1.017A1.016 1.016 0 0 1 1.02 0a1.016 1.016 0 1 0 0 2.033A1.016 1.016 0 0 1 .006 1.017" class="prefix__cls-3" data-name="Fill 39" transform="translate(31.945 12.239)"/>
            <path id="prefix__Fill_41" d="M1.017 2.032A1.016 1.016 0 1 0 0 1.016a1.017 1.017 0 0 0 1.017 1.016" class="prefix__cls-3" data-name="Fill 41" transform="translate(36.01 12.24)"/>
            <path id="prefix__Fill_43" d="M1.017 0a1.016 1.016 0 1 0 1.017 1.017A1.017 1.017 0 0 0 1.017 0" class="prefix__cls-3" data-name="Fill 43" transform="translate(40.074 12.24)"/>
            <path id="prefix__Fill_45" d="M1.017 0a1.016 1.016 0 1 0 1.017 1.017A1.017 1.017 0 0 0 1.017 0" class="prefix__cls-3" data-name="Fill 45" transform="translate(44.139 12.24)"/>
            <path id="prefix__Fill_47" d="M1.017 0a1.016 1.016 0 1 0 1.017 1.017A1.017 1.017 0 0 0 1.017 0" class="prefix__cls-3" data-name="Fill 47" transform="translate(48.204 12.24)"/>
            <path id="prefix__Fill_49" d="M1.017 2.032A1.016 1.016 0 1 0 0 1.016a1.017 1.017 0 0 0 1.017 1.016" class="prefix__cls-3" data-name="Fill 49" transform="translate(52.269 12.24)"/>
            <path id="prefix__Fill_51" d="M1.017 2.032A1.016 1.016 0 1 0 0 1.016a1.017 1.017 0 0 0 1.017 1.016" class="prefix__cls-3" data-name="Fill 51" transform="translate(56.334 12.24)"/>
            <path id="prefix__Fill_53" d="M1.016 0a1.016 1.016 0 1 0 1.017 1.017A1.017 1.017 0 0 0 1.016 0" class="prefix__cls-3" data-name="Fill 53" transform="translate(33.978 15.288)"/>
            <path id="prefix__Fill_55" d="M1.017 0a1.016 1.016 0 1 0 1.016 1.017A1.017 1.017 0 0 0 1.017 0" class="prefix__cls-3" data-name="Fill 55" transform="translate(38.042 15.288)"/>
            <path id="prefix__Fill_57" d="M1.016 2.033A1.016 1.016 0 1 0 0 1.016a1.017 1.017 0 0 0 1.016 1.017" class="prefix__cls-3" data-name="Fill 57" transform="translate(42.107 15.288)"/>
            <path id="prefix__Fill_59" d="M1.017 0a1.016 1.016 0 1 0 1.016 1.017A1.017 1.017 0 0 0 1.017 0" class="prefix__cls-3" data-name="Fill 59" transform="translate(46.172 15.288)"/>
            <path id="prefix__Fill_61" d="M1.016 0a1.016 1.016 0 1 0 1.017 1.017A1.017 1.017 0 0 0 1.016 0" class="prefix__cls-3" data-name="Fill 61" transform="translate(50.237 15.288)"/>
            <path id="prefix__Fill_63" d="M1.017 2.033A1.016 1.016 0 1 0 0 1.016a1.017 1.017 0 0 0 1.017 1.017" class="prefix__cls-3" data-name="Fill 63" transform="translate(54.302 15.288)"/>
            <path id="prefix__Fill_65" d="M1.016 2.033A1.016 1.016 0 1 0 0 1.016a1.017 1.017 0 0 0 1.016 1.017" class="prefix__cls-3" data-name="Fill 65" transform="translate(58.367 15.288)"/>
            <path id="prefix__Fill_67" d="M.006 1.016A1.016 1.016 0 0 1 1.02 0a1.016 1.016 0 1 0 0 2.033A1.016 1.016 0 0 1 .006 1.016" class="prefix__cls-3" data-name="Fill 67" transform="translate(31.945 18.337)"/>
            <path id="prefix__Fill_69" d="M1.017 0a1.016 1.016 0 1 0 1.017 1.016A1.017 1.017 0 0 0 1.017 0" class="prefix__cls-3" data-name="Fill 69" transform="translate(36.01 18.338)"/>
            <path id="prefix__Fill_71" d="M1.017 0a1.016 1.016 0 1 0 1.017 1.016A1.016 1.016 0 0 0 1.017 0" class="prefix__cls-3" data-name="Fill 71" transform="translate(40.074 18.338)"/>
            <path id="prefix__Fill_73" d="M1.017 0a1.016 1.016 0 1 0 1.017 1.016A1.017 1.017 0 0 0 1.017 0" class="prefix__cls-3" data-name="Fill 73" transform="translate(44.139 18.338)"/>
            <path id="prefix__Fill_75" d="M1.017 2.032A1.016 1.016 0 1 0 0 1.015a1.017 1.017 0 0 0 1.017 1.017" class="prefix__cls-3" data-name="Fill 75" transform="translate(48.204 18.338)"/>
            <path id="prefix__Fill_77" d="M1.017 0a1.016 1.016 0 1 0 1.017 1.016A1.017 1.017 0 0 0 1.017 0" class="prefix__cls-3" data-name="Fill 77" transform="translate(52.269 18.338)"/>
            <path id="prefix__Fill_79" d="M1.017 0a1.016 1.016 0 1 0 1.017 1.016A1.016 1.016 0 0 0 1.017 0" class="prefix__cls-3" data-name="Fill 79" transform="translate(56.334 18.338)"/>
            <path id="prefix__Fill_81" d="M0 1.016a1.017 1.017 0 0 0 1.017 1.017 1.006 1.006 0 0 0 .948-.684Q1.707.71 1.42.086a1.013 1.013 0 0 0-1.42.93" class="prefix__cls-3" data-name="Fill 81" transform="translate(60.399 18.337)"/>
            <path id="prefix__Fill_83" d="M1.016 0a1.016 1.016 0 1 0 1.017 1.016A1.016 1.016 0 0 0 1.016 0" class="prefix__cls-3" data-name="Fill 83" transform="translate(33.978 21.386)"/>
            <path id="prefix__Fill_85" d="M1.017 2.032A1.016 1.016 0 1 0 0 1.015a1.016 1.016 0 0 0 1.017 1.017" class="prefix__cls-3" data-name="Fill 85" transform="translate(38.042 21.386)"/>
            <path id="prefix__Fill_87" d="M1.016 0a1.016 1.016 0 1 0 1.017 1.016A1.016 1.016 0 0 0 1.016 0" class="prefix__cls-3" data-name="Fill 87" transform="translate(42.107 21.386)"/>
            <path id="prefix__Fill_89" d="M1.017 0a1.016 1.016 0 1 0 1.016 1.016A1.016 1.016 0 0 0 1.017 0" class="prefix__cls-3" data-name="Fill 89" transform="translate(46.172 21.386)"/>
            <path id="prefix__Fill_91" d="M1.016 0a1.016 1.016 0 1 0 1.017 1.016A1.016 1.016 0 0 0 1.016 0" class="prefix__cls-3" data-name="Fill 91" transform="translate(50.237 21.386)"/>
            <path id="prefix__Fill_93" d="M1.017 0a1.016 1.016 0 1 0 1.016 1.016A1.016 1.016 0 0 0 1.017 0" class="prefix__cls-3" data-name="Fill 93" transform="translate(54.302 21.386)"/>
            <path id="prefix__Fill_95" d="M1.016 0a1.016 1.016 0 1 0 1.017 1.016A1.016 1.016 0 0 0 1.016 0" class="prefix__cls-3" data-name="Fill 95" transform="translate(58.367 21.386)"/>
            <path id="prefix__Fill_97" d="M0 .919a1.017 1.017 0 0 0 1.017 1.017.87.87 0 0 0 .158-.036C1 1.26.808.626.6 0a1.012 1.012 0 0 0-.6.919" class="prefix__cls-3" data-name="Fill 97" transform="translate(62.431 21.482)"/>
            <path id="prefix__Fill_99" d="M1.017 2.033A1.016 1.016 0 0 1 1.02 0a1.016 1.016 0 1 0 0 2.033" class="prefix__cls-3" data-name="Fill 99" transform="translate(31.945 24.434)"/>
            <path id="prefix__Fill_101" d="M1.017 0a1.016 1.016 0 1 0 1.017 1.017A1.017 1.017 0 0 0 1.017 0" class="prefix__cls-3" data-name="Fill 101" transform="translate(36.01 24.434)"/>
            <path id="prefix__Fill_103" d="M1.017 0a1.016 1.016 0 1 0 1.017 1.017A1.016 1.016 0 0 0 1.017 0" class="prefix__cls-3" data-name="Fill 103" transform="translate(40.074 24.434)"/>
            <path id="prefix__Fill_105" d="M1.017 2.033A1.016 1.016 0 1 0 0 1.016a1.017 1.017 0 0 0 1.017 1.017" class="prefix__cls-3" data-name="Fill 105" transform="translate(44.139 24.434)"/>
            <path id="prefix__Fill_107" d="M1.017 0a1.016 1.016 0 1 0 1.017 1.017A1.016 1.016 0 0 0 1.017 0" class="prefix__cls-3" data-name="Fill 107" transform="translate(48.204 24.434)"/>
            <path id="prefix__Fill_109" d="M1.017 0a1.016 1.016 0 1 0 1.017 1.017A1.017 1.017 0 0 0 1.017 0" class="prefix__cls-3" data-name="Fill 109" transform="translate(52.269 24.434)"/>
            <path id="prefix__Fill_111" d="M1.017 2.033A1.016 1.016 0 1 0 0 1.016a1.017 1.017 0 0 0 1.017 1.017" class="prefix__cls-3" data-name="Fill 111" transform="translate(56.334 24.434)"/>
            <path id="prefix__Fill_113" d="M1.017 2.033A1.016 1.016 0 1 0 0 1.016a1.017 1.017 0 0 0 1.017 1.017" class="prefix__cls-3" data-name="Fill 113" transform="translate(60.399 24.434)"/>
            <path id="prefix__Fill_115" d="M1.016 0a1.016 1.016 0 1 0 1.017 1.017A1.016 1.016 0 0 0 1.016 0" class="prefix__cls-3" data-name="Fill 115" transform="translate(33.978 27.483)"/>
            <path id="prefix__Fill_117" d="M1.017 0a1.016 1.016 0 1 0 1.016 1.017A1.016 1.016 0 0 0 1.017 0" class="prefix__cls-3" data-name="Fill 117" transform="translate(38.042 27.483)"/>
            <path id="prefix__Fill_119" d="M1.016 0a1.016 1.016 0 1 0 1.017 1.017A1.016 1.016 0 0 0 1.016 0" class="prefix__cls-3" data-name="Fill 119" transform="translate(42.107 27.483)"/>
            <path id="prefix__Fill_121" d="M1.017 2.033A1.016 1.016 0 1 0 0 1.016a1.017 1.017 0 0 0 1.017 1.017" class="prefix__cls-3" data-name="Fill 121" transform="translate(46.172 27.483)"/>
            <path id="prefix__Fill_123" d="M1.016 2.033A1.016 1.016 0 1 0 0 1.016a1.017 1.017 0 0 0 1.016 1.017" class="prefix__cls-3" data-name="Fill 123" transform="translate(50.237 27.483)"/>
            <path id="prefix__Fill_125" d="M1.017 0a1.016 1.016 0 1 0 1.016 1.017A1.016 1.016 0 0 0 1.017 0" class="prefix__cls-3" data-name="Fill 125" transform="translate(54.302 27.483)"/>
            <path id="prefix__Fill_127" d="M1.016 0a1.016 1.016 0 1 0 1.017 1.017A1.016 1.016 0 0 0 1.016 0" class="prefix__cls-3" data-name="Fill 127" transform="translate(58.367 27.483)"/>
            <path id="prefix__Fill_129" d="M1.017 2.033A1.016 1.016 0 1 0 0 1.016a1.017 1.017 0 0 0 1.017 1.017" class="prefix__cls-3" data-name="Fill 129" transform="translate(62.431 27.483)"/>
            <path id="prefix__Fill_131" d="M.006.017A.13.13 0 0 0 0 0v.017a1.017 1.017 0 0 0 1.017 1.017A1.016 1.016 0 0 1 .006.017" class="prefix__cls-3" data-name="Fill 131" transform="translate(31.945 31.531)"/>
            <path id="prefix__Fill_133" d="M1.017 1.033A1.017 1.017 0 0 0 2.034.016V0a1.015 1.015 0 0 1-1.017 1A1.015 1.015 0 0 1 0 0v.016a1.017 1.017 0 0 0 1.017 1.017" class="prefix__cls-3" data-name="Fill 133" transform="translate(36.01 31.531)"/>
            <path id="prefix__Fill_135" d="M1.017 1A1.016 1.016 0 0 1 0 0v.017a1.017 1.017 0 0 0 2.034 0V0a1.016 1.016 0 0 1-1.017 1" class="prefix__cls-3" data-name="Fill 135" transform="translate(40.074 31.531)"/>
            <path id="prefix__Fill_137" d="M1.017 1A1.015 1.015 0 0 1 0 0a.167.167 0 0 0 0 .017 1.017 1.017 0 0 0 2.034 0A.167.167 0 0 0 2.03 0a1.015 1.015 0 0 1-1.013 1" class="prefix__cls-3" data-name="Fill 137" transform="translate(44.139 31.531)"/>
            <path id="prefix__Fill_139" d="M2.03 0a1.015 1.015 0 0 1-1.014 1A1.015 1.015 0 0 1 0 0v.017a1.015 1.015 0 0 0 1.016 1.016A1.016 1.016 0 0 0 2.033.017V0" class="prefix__cls-3" data-name="Fill 139" transform="translate(48.205 31.531)"/>
            <path id="prefix__Fill_141" d="M1.017 1.033A1.017 1.017 0 0 0 2.034.016V0a1.015 1.015 0 0 1-1.017 1A1.015 1.015 0 0 1 0 0v.016a1.017 1.017 0 0 0 1.017 1.017" class="prefix__cls-3" data-name="Fill 141" transform="translate(52.269 31.531)"/>
            <path id="prefix__Fill_143" d="M2.03 0a1.015 1.015 0 0 1-1.014 1A1.015 1.015 0 0 1 0 0v.017a1.015 1.015 0 0 0 1.016 1.016A1.016 1.016 0 0 0 2.033.017V0" class="prefix__cls-3" data-name="Fill 143" transform="translate(56.334 31.531)"/>
            <path id="prefix__Fill_145" d="M1.017 1A1.016 1.016 0 0 1 0 0v.017a1.017 1.017 0 0 0 1.017 1.016A1.016 1.016 0 0 0 2.033.017V0a1.015 1.015 0 0 1-1.016 1" class="prefix__cls-3" data-name="Fill 145" transform="translate(60.399 31.531)"/>
            <g id="prefix__Group_149" data-name="Group 149" transform="translate(64 31.2)">
                <path id="prefix__Clip_148-2" d="M.138 0h.524v.8H.138z" class="prefix__cls-1" data-name="Clip 148" transform="translate(.038 .244)"/>
                <g id="prefix__Group_149-2" data-name="Group 149">
                    <path id="prefix__Fill_147" d="M.288.1a1 1 0 0 0 .224.61V.679a1 1 0 0 1-.222-.6C.291.093.288.1.288.1" class="prefix__cls-3" data-name="Fill 147" transform="translate(.176 .244)"/>
                </g>
            </g>
            <path id="prefix__Fill_150" d="M.862.22C.572.328.286.444 0 .56c.035 0 .066.02.1.02A1 1 0 0 0 .862.22" class="prefix__cls-3" data-name="Fill 150" transform="translate(20.672 1.498)"/>
            <path id="prefix__Fill_152" d="M1.017 1.583A1.017 1.017 0 0 0 2.034.566.985.985 0 0 0 1.837 0Q.919.206.021.466a1.006 1.006 0 0 0-.021.1 1.017 1.017 0 0 0 1.017 1.017" class="prefix__cls-3" data-name="Fill 152" transform="translate(23.821 .495)"/>
            <path id="prefix__Fill_154" d="M1.017 2.033A1.016 1.016 0 1 0 0 1.016a1.017 1.017 0 0 0 1.017 1.017" class="prefix__cls-3" data-name="Fill 154" transform="translate(27.886 .045)"/>
            <path id="prefix__Fill_156" d="M1.014 1.017A1.016 1.016 0 0 1 0 2.033a1.018 1.018 0 0 0 1.02-1.016A1.017 1.017 0 0 0 0 0a1.016 1.016 0 0 1 1.014 1.017" class="prefix__cls-3" data-name="Fill 156" transform="translate(32.964 .045)"/>
            <path id="prefix__Fill_158" d="M0 1.016A1.013 1.013 0 1 0 1.014 0 1.016 1.016 0 0 0 0 1.016" class="prefix__cls-3" data-name="Fill 158" transform="translate(31.951 .046)"/>
            <path id="prefix__Fill_160" d="M.611.265C.47.355.328.443.189.535a1 1 0 0 0 .422-.27" class="prefix__cls-3" data-name="Fill 160" transform="translate(14.809 4.526)"/>
            <path id="prefix__Fill_162" d="M1.016 2.033A1.016 1.016 0 1 0 0 1.016a1.016 1.016 0 0 0 1.016 1.017" class="prefix__cls-3" data-name="Fill 162" transform="translate(17.724 3.094)"/>
            <path id="prefix__Fill_164" d="M1.017 2.033A1.016 1.016 0 1 0 0 1.016a1.016 1.016 0 0 0 1.017 1.017" class="prefix__cls-3" data-name="Fill 164" transform="translate(21.788 3.094)"/>
            <path id="prefix__Fill_166" d="M1.016 2.033A1.016 1.016 0 1 0 0 1.016a1.017 1.017 0 0 0 1.016 1.017" class="prefix__cls-3" data-name="Fill 166" transform="translate(25.854 3.094)"/>
            <path id="prefix__Fill_168" d="M1.017 2.033A1.016 1.016 0 1 0 0 1.016a1.016 1.016 0 0 0 1.017 1.017" class="prefix__cls-3" data-name="Fill 168" transform="translate(29.918 3.094)"/>
            <path id="prefix__Fill_170" d="M.923 1.832A1.016 1.016 0 0 0 1.939.815 1 1 0 0 0 1.5 0Q.729.593 0 1.23a1.013 1.013 0 0 0 .923.6" class="prefix__cls-3" data-name="Fill 170" transform="translate(11.72 6.343)"/>
            <path id="prefix__Fill_172" d="M1.017 2.032A1.016 1.016 0 1 0 0 1.015a1.017 1.017 0 0 0 1.017 1.017" class="prefix__cls-3" data-name="Fill 172" transform="translate(15.692 6.143)"/>
            <path id="prefix__Fill_174" d="M1.017 2.032A1.016 1.016 0 1 0 0 1.015a1.016 1.016 0 0 0 1.017 1.017" class="prefix__cls-3" data-name="Fill 174" transform="translate(19.756 6.143)"/>
            <path id="prefix__Fill_176" d="M1.017 2.032A1.016 1.016 0 1 0 0 1.015a1.017 1.017 0 0 0 1.017 1.017" class="prefix__cls-3" data-name="Fill 176" transform="translate(23.821 6.143)"/>
            <path id="prefix__Fill_178" d="M1.017 0a1.016 1.016 0 1 0 1.016 1.016A1.016 1.016 0 0 0 1.017 0" class="prefix__cls-3" data-name="Fill 178" transform="translate(27.886 6.143)"/>
            <path id="prefix__Fill_180" d="M0 0a1.016 1.016 0 0 1 1.014 1.016A1.016 1.016 0 0 1 0 2.031 1.016 1.016 0 1 0 0 0" class="prefix__cls-3" data-name="Fill 180" transform="translate(32.965 6.143)"/>
            <path id="prefix__Fill_182" d="M2.026 1.016a1.013 1.013 0 1 0-1.013 1.016 1.016 1.016 0 0 0 1.013-1.016" class="prefix__cls-3" data-name="Fill 182" transform="translate(31.952 6.143)"/>
            <path id="prefix__Fill_184" d="M1.016 2.032A1.016 1.016 0 1 0 0 1.016a1.016 1.016 0 0 0 1.016 1.016" class="prefix__cls-3" data-name="Fill 184" transform="translate(9.595 9.191)"/>
            <path id="prefix__Fill_186" d="M1.017 2.032A1.016 1.016 0 1 0 0 1.016a1.016 1.016 0 0 0 1.017 1.016" class="prefix__cls-3" data-name="Fill 186" transform="translate(13.659 9.191)"/>
            <path id="prefix__Fill_188" d="M1.016 0a1.016 1.016 0 1 0 1.017 1.017A1.016 1.016 0 0 0 1.016 0" class="prefix__cls-3" data-name="Fill 188" transform="translate(17.724 9.191)"/>
            <path id="prefix__Fill_190" d="M1.017 0a1.016 1.016 0 1 0 1.017 1.017A1.017 1.017 0 0 0 1.017 0" class="prefix__cls-3" data-name="Fill 190" transform="translate(21.788 9.191)"/>
            <path id="prefix__Fill_192" d="M1.016 0a1.016 1.016 0 1 0 1.017 1.017A1.016 1.016 0 0 0 1.016 0" class="prefix__cls-3" data-name="Fill 192" transform="translate(25.854 9.191)"/>
            <path id="prefix__Fill_194" d="M1.017 0a1.016 1.016 0 1 0 1.017 1.017A1.017 1.017 0 0 0 1.017 0" class="prefix__cls-3" data-name="Fill 194" transform="translate(29.918 9.191)"/>
            <path id="prefix__Fill_196" d="M1.017 2.032A1.016 1.016 0 1 0 0 1.016a1.017 1.017 0 0 0 1.017 1.016" class="prefix__cls-3" data-name="Fill 196" transform="translate(7.562 12.24)"/>
            <path id="prefix__Fill_198" d="M1.017 2.032A1.016 1.016 0 1 0 0 1.016a1.016 1.016 0 0 0 1.017 1.016" class="prefix__cls-3" data-name="Fill 198" transform="translate(11.627 12.24)"/>
            <path id="prefix__Fill_200" d="M1.017 0a1.016 1.016 0 1 0 1.017 1.017A1.017 1.017 0 0 0 1.017 0" class="prefix__cls-3" data-name="Fill 200" transform="translate(15.692 12.24)"/>
            <path id="prefix__Fill_202" d="M1.017 0a1.016 1.016 0 1 0 1.016 1.017A1.017 1.017 0 0 0 1.017 0" class="prefix__cls-3" data-name="Fill 202" transform="translate(19.756 12.24)"/>
            <path id="prefix__Fill_204" d="M1.017 0a1.016 1.016 0 1 0 1.017 1.017A1.017 1.017 0 0 0 1.017 0" class="prefix__cls-3" data-name="Fill 204" transform="translate(23.821 12.24)"/>
            <path id="prefix__Fill_206" d="M1.017 2.032A1.016 1.016 0 1 0 0 1.016a1.016 1.016 0 0 0 1.017 1.016" class="prefix__cls-3" data-name="Fill 206" transform="translate(27.886 12.24)"/>
            <path id="prefix__Fill_208" d="M0 0a1.016 1.016 0 0 1 1.014 1.017A1.016 1.016 0 0 1 0 2.032a1.016 1.016 0 0 0 1.019-1.015A1.017 1.017 0 0 0 0 0" class="prefix__cls-3" data-name="Fill 208" transform="translate(32.965 12.24)"/>
            <path id="prefix__Fill_210" d="M2.026 1.016a1.013 1.013 0 1 0-1.013 1.016 1.016 1.016 0 0 0 1.013-1.016" class="prefix__cls-3" data-name="Fill 210" transform="translate(31.952 12.24)"/>
            <path id="prefix__Fill_212" d="M1.017 2.033A1.016 1.016 0 1 0 0 1.016a1.017 1.017 0 0 0 1.017 1.017" class="prefix__cls-3" data-name="Fill 212" transform="translate(5.53 15.288)"/>
            <path id="prefix__Fill_214" d="M1.016 0a1.016 1.016 0 1 0 1.017 1.017A1.017 1.017 0 0 0 1.016 0" class="prefix__cls-3" data-name="Fill 214" transform="translate(9.595 15.288)"/>
            <path id="prefix__Fill_216" d="M1.017 0a1.016 1.016 0 1 0 1.017 1.017A1.017 1.017 0 0 0 1.017 0" class="prefix__cls-3" data-name="Fill 216" transform="translate(13.659 15.288)"/>
            <path id="prefix__Fill_218" d="M1.016 2.033A1.016 1.016 0 1 0 0 1.016a1.017 1.017 0 0 0 1.016 1.017" class="prefix__cls-3" data-name="Fill 218" transform="translate(17.724 15.288)"/>
            <path id="prefix__Fill_220" d="M1.017 2.033A1.016 1.016 0 1 0 0 1.016a1.017 1.017 0 0 0 1.017 1.017" class="prefix__cls-3" data-name="Fill 220" transform="translate(21.788 15.288)"/>
            <path id="prefix__Fill_222" d="M1.016 2.033A1.016 1.016 0 1 0 0 1.016a1.017 1.017 0 0 0 1.016 1.017" class="prefix__cls-3" data-name="Fill 222" transform="translate(25.854 15.288)"/>
            <path id="prefix__Fill_224" d="M1.017 0a1.016 1.016 0 1 0 1.017 1.017A1.017 1.017 0 0 0 1.017 0" class="prefix__cls-3" data-name="Fill 224" transform="translate(29.918 15.288)"/>
            <path id="prefix__Fill_226" d="M1.017 2.032A1.016 1.016 0 1 0 0 1.015a1.016 1.016 0 0 0 1.017 1.017" class="prefix__cls-3" data-name="Fill 226" transform="translate(3.497 18.338)"/>
            <path id="prefix__Fill_228" d="M1.017 0a1.016 1.016 0 1 0 1.017 1.016A1.016 1.016 0 0 0 1.017 0" class="prefix__cls-3" data-name="Fill 228" transform="translate(7.562 18.338)"/>
            <path id="prefix__Fill_230" d="M1.017 0a1.016 1.016 0 1 0 1.016 1.016A1.017 1.017 0 0 0 1.017 0" class="prefix__cls-3" data-name="Fill 230" transform="translate(11.627 18.338)"/>
            <path id="prefix__Fill_232" d="M1.017 2.032A1.016 1.016 0 1 0 0 1.015a1.017 1.017 0 0 0 1.017 1.017" class="prefix__cls-3" data-name="Fill 232" transform="translate(15.692 18.338)"/>
            <path id="prefix__Fill_234" d="M1.017 0a1.016 1.016 0 1 0 1.016 1.016A1.017 1.017 0 0 0 1.017 0" class="prefix__cls-3" data-name="Fill 234" transform="translate(19.756 18.338)"/>
            <path id="prefix__Fill_236" d="M1.017 0a1.016 1.016 0 1 0 1.017 1.016A1.016 1.016 0 0 0 1.017 0" class="prefix__cls-3" data-name="Fill 236" transform="translate(23.821 18.338)"/>
            <path id="prefix__Fill_238" d="M1.017 0a1.016 1.016 0 1 0 1.016 1.016A1.016 1.016 0 0 0 1.017 0" class="prefix__cls-3" data-name="Fill 238" transform="translate(27.886 18.338)"/>
            <path id="prefix__Fill_240" d="M0 0a1.016 1.016 0 0 1 1.014 1.016A1.016 1.016 0 0 1 0 2.031 1.016 1.016 0 1 0 0 0" class="prefix__cls-3" data-name="Fill 240" transform="translate(32.965 18.338)"/>
            <path id="prefix__Fill_242" d="M2.026 1.016a1.013 1.013 0 1 0-1.013 1.016 1.016 1.016 0 0 0 1.013-1.016" class="prefix__cls-3" data-name="Fill 242" transform="translate(31.952 18.337)"/>
            <path id="prefix__Fill_244" d="M1.615 1.016A1.016 1.016 0 0 0 .6 0C.584 0 .57.008.556.009Q.252.9 0 1.816a1 1 0 0 0 .6.217 1.016 1.016 0 0 0 1.015-1.017" class="prefix__cls-3" data-name="Fill 244" transform="translate(1.882 21.386)"/>
            <path id="prefix__Fill_246" d="M1.017 0a1.016 1.016 0 1 0 1.016 1.016A1.016 1.016 0 0 0 1.017 0" class="prefix__cls-3" data-name="Fill 246" transform="translate(5.53 21.386)"/>
            <path id="prefix__Fill_248" d="M1.016 2.032A1.016 1.016 0 1 0 0 1.015a1.016 1.016 0 0 0 1.016 1.017" class="prefix__cls-3" data-name="Fill 248" transform="translate(9.595 21.386)"/>
            <path id="prefix__Fill_250" d="M1.017 2.032A1.016 1.016 0 1 0 0 1.015a1.016 1.016 0 0 0 1.017 1.017" class="prefix__cls-3" data-name="Fill 250" transform="translate(13.659 21.386)"/>
            <path id="prefix__Fill_252" d="M1.016 0a1.016 1.016 0 1 0 1.017 1.016A1.016 1.016 0 0 0 1.016 0" class="prefix__cls-3" data-name="Fill 252" transform="translate(17.724 21.386)"/>
            <path id="prefix__Fill_254" d="M1.017 0a1.016 1.016 0 1 0 1.017 1.016A1.017 1.017 0 0 0 1.017 0" class="prefix__cls-3" data-name="Fill 254" transform="translate(21.788 21.386)"/>
            <path id="prefix__Fill_256" d="M1.016 0a1.016 1.016 0 1 0 1.017 1.016A1.016 1.016 0 0 0 1.016 0" class="prefix__cls-3" data-name="Fill 256" transform="translate(25.854 21.386)"/>
            <path id="prefix__Fill_258" d="M1.017 2.032A1.016 1.016 0 1 0 0 1.015a1.016 1.016 0 0 0 1.017 1.017" class="prefix__cls-3" data-name="Fill 258" transform="translate(29.918 21.386)"/>
            <path id="prefix__Fill_260" d="M.453 0C.392.3.34.6.287.909A1 1 0 0 0 .513.3a.984.984 0 0 0-.06-.3" class="prefix__cls-3" data-name="Fill 260" transform="translate(.952 25.155)"/>
            <path id="prefix__Fill_262" d="M1.017 2.033A1.016 1.016 0 1 0 0 1.016a1.017 1.017 0 0 0 1.017 1.017" class="prefix__cls-3" data-name="Fill 262" transform="translate(3.497 24.434)"/>
            <path id="prefix__Fill_264" d="M1.017 2.033A1.016 1.016 0 1 0 0 1.016a1.017 1.017 0 0 0 1.017 1.017" class="prefix__cls-3" data-name="Fill 264" transform="translate(7.562 24.434)"/>
            <path id="prefix__Fill_266" d="M1.017 0a1.016 1.016 0 1 0 1.016 1.017A1.017 1.017 0 0 0 1.017 0" class="prefix__cls-3" data-name="Fill 266" transform="translate(11.627 24.434)"/>
            <path id="prefix__Fill_268" d="M1.017 0a1.016 1.016 0 1 0 1.017 1.017A1.016 1.016 0 0 0 1.017 0" class="prefix__cls-3" data-name="Fill 268" transform="translate(15.692 24.434)"/>
            <path id="prefix__Fill_270" d="M1.017 2.033A1.016 1.016 0 1 0 0 1.016a1.017 1.017 0 0 0 1.017 1.017" class="prefix__cls-3" data-name="Fill 270" transform="translate(19.756 24.434)"/>
            <path id="prefix__Fill_272" d="M1.017 2.033A1.016 1.016 0 1 0 0 1.016a1.017 1.017 0 0 0 1.017 1.017" class="prefix__cls-3" data-name="Fill 272" transform="translate(23.821 24.434)"/>
            <path id="prefix__Fill_274" d="M1.017 2.033A1.016 1.016 0 1 0 0 1.016a1.017 1.017 0 0 0 1.017 1.017" class="prefix__cls-3" data-name="Fill 274" transform="translate(27.886 24.434)"/>
            <path id="prefix__Fill_276" d="M1.014 1.017A1.016 1.016 0 0 1 0 2.033a1.018 1.018 0 0 0 1.02-1.016A1.017 1.017 0 0 0 0 0a1.016 1.016 0 0 1 1.014 1.017" class="prefix__cls-3" data-name="Fill 276" transform="translate(32.964 24.434)"/>
            <path id="prefix__Fill_278" d="M0 1.016A1.013 1.013 0 1 0 1.014 0 1.016 1.016 0 0 0 0 1.016" class="prefix__cls-3" data-name="Fill 278" transform="translate(31.951 24.435)"/>
            <path id="prefix__Fill_280" d="M1.016 2.033A1.016 1.016 0 1 0 0 1.016a1.017 1.017 0 0 0 1.016 1.017" class="prefix__cls-3" data-name="Fill 280" transform="translate(1.465 27.483)"/>
            <path id="prefix__Fill_282" d="M1.017 2.033A1.016 1.016 0 1 0 0 1.016a1.017 1.017 0 0 0 1.017 1.017" class="prefix__cls-3" data-name="Fill 282" transform="translate(5.53 27.483)"/>
            <path id="prefix__Fill_284" d="M1.016 0a1.016 1.016 0 1 0 1.017 1.017A1.016 1.016 0 0 0 1.016 0" class="prefix__cls-3" data-name="Fill 284" transform="translate(9.595 27.483)"/>
            <path id="prefix__Fill_286" d="M1.017 0a1.016 1.016 0 1 0 1.017 1.017A1.017 1.017 0 0 0 1.017 0" class="prefix__cls-3" data-name="Fill 286" transform="translate(13.659 27.483)"/>
            <path id="prefix__Fill_288" d="M1.016 2.033A1.016 1.016 0 1 0 0 1.016a1.017 1.017 0 0 0 1.016 1.017" class="prefix__cls-3" data-name="Fill 288" transform="translate(17.724 27.483)"/>
            <path id="prefix__Fill_290" d="M1.017 2.033A1.016 1.016 0 1 0 0 1.016a1.017 1.017 0 0 0 1.017 1.017" class="prefix__cls-3" data-name="Fill 290" transform="translate(21.788 27.483)"/>
            <path id="prefix__Fill_292" d="M1.016 0a1.016 1.016 0 1 0 1.017 1.017A1.016 1.016 0 0 0 1.016 0" class="prefix__cls-3" data-name="Fill 292" transform="translate(25.854 27.483)"/>
            <path id="prefix__Fill_294" d="M1.017 0a1.016 1.016 0 1 0 1.017 1.017A1.017 1.017 0 0 0 1.017 0" class="prefix__cls-3" data-name="Fill 294" transform="translate(29.918 27.483)"/>
            <path id="prefix__Fill_296" d="M.755.017V0a1 1 0 0 1-.71.938V.97a1 1 0 0 0 .71-.953" class="prefix__cls-3" data-name="Fill 296" transform="translate(.711 31.531)"/>
            <path id="prefix__Fill_298" d="M1.017 1.033A1.016 1.016 0 0 0 2.033.016V0a1.015 1.015 0 0 1-1.016 1A1.015 1.015 0 0 1 0 0v.016a1.017 1.017 0 0 0 1.017 1.017" class="prefix__cls-3" data-name="Fill 298" transform="translate(3.497 31.531)"/>
            <path id="prefix__Fill_300" d="M2.03 0a1.015 1.015 0 0 1-1.014 1A1.015 1.015 0 0 1 0 0v.017a1.015 1.015 0 0 0 1.016 1.016A1.016 1.016 0 0 0 2.033.017V0" class="prefix__cls-3" data-name="Fill 300" transform="translate(7.562 31.531)"/>
            <path id="prefix__Fill_302" d="M1.017 1A1.016 1.016 0 0 1 0 0v.017a1.017 1.017 0 0 0 1.017 1.016A1.016 1.016 0 0 0 2.033.017V0a1.015 1.015 0 0 1-1.016 1" class="prefix__cls-3" data-name="Fill 302" transform="translate(11.627 31.531)"/>
            <path id="prefix__Fill_304" d="M1.017 1A1.016 1.016 0 0 1 0 0v.017a1.016 1.016 0 0 0 1.017 1.016A1.017 1.017 0 0 0 2.034.017V0a1.016 1.016 0 0 1-1.017 1" class="prefix__cls-3" data-name="Fill 304" transform="translate(15.692 31.531)"/>
            <path id="prefix__Fill_306" d="M1.017 1.033A1.016 1.016 0 0 0 2.033.016V0a1.015 1.015 0 0 1-1.016 1A1.016 1.016 0 0 1 0 0v.016a1.017 1.017 0 0 0 1.017 1.017" class="prefix__cls-3" data-name="Fill 306" transform="translate(19.756 31.531)"/>
            <path id="prefix__Fill_308" d="M2.029 0a1.014 1.014 0 0 1-1.013 1A1.015 1.015 0 0 1 0 0v.017a1.015 1.015 0 0 0 1.016 1.016A1.016 1.016 0 0 0 2.033.017a.168.168 0 0 0 0-.017" class="prefix__cls-3" data-name="Fill 308" transform="translate(23.822 31.531)"/>
            <path id="prefix__Fill_310" d="M1.017 1A1.015 1.015 0 0 1 0 0v.017a1.016 1.016 0 0 0 1.017 1.016A1.016 1.016 0 0 0 2.033.017V0a1.015 1.015 0 0 1-1.016 1" class="prefix__cls-3" data-name="Fill 310" transform="translate(27.886 31.531)"/>
            <path id="prefix__Fill_312" d="M1.014.017A1.016 1.016 0 0 1 0 1.033 1.017 1.017 0 0 0 1.02.017V0v.015z" class="prefix__cls-3" data-name="Fill 312" transform="translate(32.964 31.531)"/>
            <path id="prefix__Fill_314" d="M2.026 0a1.013 1.013 0 0 1-1.011.986H1.01A1.013 1.013 0 0 1 0 0a1.016 1.016 0 0 0 1.013 1.018A1.016 1.016 0 0 0 2.026 0" class="prefix__cls-3" data-name="Fill 314" transform="translate(31.952 31.546)"/>
            <path id="prefix__Fill_316" d="M.006 1.017A1.016 1.016 0 0 1 1.02 0 1.018 1.018 0 0 0 0 1.017v.016a.093.093 0 0 0 0-.014z" class="prefix__cls-3" data-name="Fill 316" transform="translate(31.945 30.499)"/>
            <path id="prefix__Fill_318" d="M.4.4V.385A.093.093 0 0 1 .4.4a.13.13 0 0 1 0 .015V.4" class="prefix__cls-3" data-name="Fill 318" transform="translate(31.551 31.132)"/>
            <path id="prefix__Fill_320" d="M0 0v.015A1.014 1.014 0 0 0 1.01 1 1.015 1.015 0 0 1 0 0" class="prefix__cls-3" data-name="Fill 320" transform="translate(31.951 31.531)"/>
            <path id="prefix__Fill_322" d="M1.017.032a1.014 1.014 0 0 1 1.013 1 .117.117 0 0 0 0-.016 1.017 1.017 0 0 0-2.03 0v.016a1.014 1.014 0 0 1 1.013-1" class="prefix__cls-3" data-name="Fill 322" transform="translate(36.01 30.499)"/>
            <path id="prefix__Fill_324" d="M1.013 2a1.015 1.015 0 0 0 1.013-1A1.013 1.013 0 0 0 0 1a1.015 1.015 0 0 0 1.013 1" class="prefix__cls-3" data-name="Fill 324" transform="translate(36.014 30.531)"/>
            <path id="prefix__Fill_326" d="M0 1.032a1.013 1.013 0 0 1 2.026 0v-.016a1.016 1.016 0 0 0-2.026 0v.016" class="prefix__cls-3" data-name="Fill 326" transform="translate(40.075 30.499)"/>
            <path id="prefix__Fill_328" d="M1.014 0A1.016 1.016 0 0 0 0 1a1.014 1.014 0 0 0 2.027 0 1.016 1.016 0 0 0-1.013-1" class="prefix__cls-3" data-name="Fill 328" transform="translate(40.078 30.531)"/>
            <path id="prefix__Fill_330" d="M1.017 0A1.017 1.017 0 0 0 0 1.017a.144.144 0 0 0 0 .015 1.013 1.013 0 0 1 2.026 0 .144.144 0 0 0 0-.015A1.017 1.017 0 0 0 1.017 0" class="prefix__cls-3" data-name="Fill 330" transform="translate(44.139 30.499)"/>
            <path id="prefix__Fill_332" d="M1.013 0A1.014 1.014 0 0 0 0 1a1.013 1.013 0 0 0 2.026 0 1.014 1.014 0 0 0-1.013-1" class="prefix__cls-3" data-name="Fill 332" transform="translate(44.143 30.531)"/>
            <path id="prefix__Fill_334" d="M1.017.032a1.016 1.016 0 0 1 1.014 1v-.016a1.017 1.017 0 0 0-2.031 0v.016a1.016 1.016 0 0 1 1.014-1" class="prefix__cls-3" data-name="Fill 334" transform="translate(48.204 30.499)"/>
            <path id="prefix__Fill_336" d="M1.014 2a1.016 1.016 0 0 0 1.013-1A1.014 1.014 0 0 0 0 1a1.016 1.016 0 0 0 1.014 1" class="prefix__cls-3" data-name="Fill 336" transform="translate(48.207 30.531)"/>
            <path id="prefix__Fill_338" d="M1.017.032a1.014 1.014 0 0 1 1.013 1v-.016a1.017 1.017 0 0 0-2.03 0 .117.117 0 0 0 0 .016 1.014 1.014 0 0 1 1.013-1" class="prefix__cls-3" data-name="Fill 338" transform="translate(52.269 30.499)"/>
            <path id="prefix__Fill_340" d="M1.013 2a1.015 1.015 0 0 0 1.013-1A1.013 1.013 0 0 0 0 1a1.015 1.015 0 0 0 1.013 1" class="prefix__cls-3" data-name="Fill 340" transform="translate(52.273 30.531)"/>
            <path id="prefix__Fill_342" d="M1.017.032a1.016 1.016 0 0 1 1.014 1v-.016a1.017 1.017 0 0 0-2.031 0v.016a1.016 1.016 0 0 1 1.014-1" class="prefix__cls-3" data-name="Fill 342" transform="translate(56.334 30.499)"/>
            <path id="prefix__Fill_344" d="M1.014 2a1.016 1.016 0 0 0 1.013-1A1.014 1.014 0 0 0 0 1a1.016 1.016 0 0 0 1.014 1" class="prefix__cls-3" data-name="Fill 344" transform="translate(56.337 30.531)"/>
            <path id="prefix__Fill_346" d="M1.017 0A1.017 1.017 0 0 0 0 1.017v.015a1.013 1.013 0 0 1 2.026 0v-.015A1.017 1.017 0 0 0 1.017 0" class="prefix__cls-3" data-name="Fill 346" transform="translate(60.399 30.499)"/>
            <path id="prefix__Fill_348" d="M1.014 0A1.016 1.016 0 0 0 0 1a1.013 1.013 0 0 0 2.026 0 1.014 1.014 0 0 0-1.012-1" class="prefix__cls-3" data-name="Fill 348" transform="translate(60.402 30.531)"/>
            <g id="prefix__Group_352" data-name="Group 352" transform="translate(64 30.4)">
                <path id="prefix__Clip_351-2" d="M.136 0h.528v.8H.136z" class="prefix__cls-1" data-name="Clip 351" transform="translate(.036 .424)"/>
                <g id="prefix__Group_352-2" data-name="Group 352">
                    <path id="prefix__Fill_350" d="M.294.707A1 1 0 0 1 .509.124V.093a.983.983 0 0 0-.218.6v.016" class="prefix__cls-3" data-name="Fill 350" transform="translate(.173 .424)"/>
                </g>
            </g>
            <g id="prefix__Group_355" data-name="Group 355" transform="translate(64 30.4)">
                <path id="prefix__Clip_354-2" d="M.142 0h.516v1.179H.142z" class="prefix__cls-1" data-name="Clip 354" transform="translate(.042 .547)"/>
                <g id="prefix__Group_355-2" data-name="Group 355">
                    <path id="prefix__Fill_353" d="M.505 1.179c0-.148.011-.294.011-.442C.516.49.5.246.5 0a1 1 0 0 0-.216.584 1 1 0 0 0 .222.6" class="prefix__cls-3" data-name="Fill 353" transform="translate(.184 .547)"/>
                </g>
            </g>
            <path id="prefix__Fill_356" d="M1.016 2.033A1.016 1.016 0 1 0 0 1.016a1.017 1.017 0 0 0 1.016 1.017" class="prefix__cls-3" data-name="Fill 356" transform="translate(33.978 33.548)"/>
            <path id="prefix__Fill_358" d="M1.017 2.033A1.016 1.016 0 1 0 0 1.016a1.017 1.017 0 0 0 1.017 1.017" class="prefix__cls-3" data-name="Fill 358" transform="translate(38.042 33.548)"/>
            <path id="prefix__Fill_360" d="M1.016 0a1.016 1.016 0 1 0 1.017 1.017A1.017 1.017 0 0 0 1.016 0" class="prefix__cls-3" data-name="Fill 360" transform="translate(42.107 33.548)"/>
            <path id="prefix__Fill_362" d="M1.017 0a1.016 1.016 0 1 0 1.016 1.017A1.017 1.017 0 0 0 1.017 0" class="prefix__cls-3" data-name="Fill 362" transform="translate(46.172 33.548)"/>
            <path id="prefix__Fill_364" d="M1.016 2.033A1.016 1.016 0 1 0 0 1.016a1.017 1.017 0 0 0 1.016 1.017" class="prefix__cls-3" data-name="Fill 364" transform="translate(50.237 33.548)"/>
            <path id="prefix__Fill_366" d="M1.017 2.033A1.016 1.016 0 1 0 0 1.016a1.017 1.017 0 0 0 1.017 1.017" class="prefix__cls-3" data-name="Fill 366" transform="translate(54.302 33.548)"/>
            <path id="prefix__Fill_368" d="M1.016 2.033A1.016 1.016 0 1 0 0 1.016a1.017 1.017 0 0 0 1.016 1.017" class="prefix__cls-3" data-name="Fill 368" transform="translate(58.367 33.548)"/>
            <path id="prefix__Fill_370" d="M1.017 0a1.016 1.016 0 1 0 1.017 1.017A1.017 1.017 0 0 0 1.017 0" class="prefix__cls-3" data-name="Fill 370" transform="translate(62.431 33.548)"/>
            <path id="prefix__Fill_372" d="M.006 1.016A1.016 1.016 0 0 1 1.02 0a1.016 1.016 0 1 0 0 2.033A1.016 1.016 0 0 1 .006 1.016" class="prefix__cls-3" data-name="Fill 372" transform="translate(31.945 36.596)"/>
            <path id="prefix__Fill_374" d="M1.017 0a1.016 1.016 0 1 0 1.017 1.016A1.017 1.017 0 0 0 1.017 0" class="prefix__cls-3" data-name="Fill 374" transform="translate(36.01 36.597)"/>
            <path id="prefix__Fill_376" d="M1.017 2.032A1.016 1.016 0 1 0 0 1.015a1.016 1.016 0 0 0 1.017 1.017" class="prefix__cls-3" data-name="Fill 376" transform="translate(40.074 36.597)"/>
            <path id="prefix__Fill_378" d="M1.017 0a1.016 1.016 0 1 0 1.017 1.016A1.017 1.017 0 0 0 1.017 0" class="prefix__cls-3" data-name="Fill 378" transform="translate(44.139 36.597)"/>
            <path id="prefix__Fill_380" d="M1.017 2.032A1.016 1.016 0 1 0 0 1.015a1.017 1.017 0 0 0 1.017 1.017" class="prefix__cls-3" data-name="Fill 380" transform="translate(48.204 36.597)"/>
            <path id="prefix__Fill_382" d="M1.017 0a1.016 1.016 0 1 0 1.017 1.016A1.017 1.017 0 0 0 1.017 0" class="prefix__cls-3" data-name="Fill 382" transform="translate(52.269 36.597)"/>
            <path id="prefix__Fill_384" d="M1.017 0a1.016 1.016 0 1 0 1.017 1.016A1.016 1.016 0 0 0 1.017 0" class="prefix__cls-3" data-name="Fill 384" transform="translate(56.334 36.597)"/>
            <path id="prefix__Fill_386" d="M1.017 0a1.016 1.016 0 1 0 1.016 1.016A1.017 1.017 0 0 0 1.017 0" class="prefix__cls-3" data-name="Fill 386" transform="translate(60.399 36.597)"/>
            <path id="prefix__Fill_388" d="M1.016 0a1.016 1.016 0 1 0 1.017 1.016A1.016 1.016 0 0 0 1.016 0" class="prefix__cls-3" data-name="Fill 388" transform="translate(33.978 39.645)"/>
            <path id="prefix__Fill_390" d="M1.017 2.032A1.016 1.016 0 1 0 0 1.015a1.016 1.016 0 0 0 1.017 1.017" class="prefix__cls-3" data-name="Fill 390" transform="translate(38.042 39.645)"/>
            <path id="prefix__Fill_392" d="M1.016 2.032A1.016 1.016 0 1 0 0 1.015a1.016 1.016 0 0 0 1.016 1.017" class="prefix__cls-3" data-name="Fill 392" transform="translate(42.107 39.645)"/>
            <path id="prefix__Fill_394" d="M1.017 2.032A1.016 1.016 0 1 0 0 1.015a1.016 1.016 0 0 0 1.017 1.017" class="prefix__cls-3" data-name="Fill 394" transform="translate(46.172 39.645)"/>
            <path id="prefix__Fill_396" d="M1.016 0a1.016 1.016 0 1 0 1.017 1.016A1.016 1.016 0 0 0 1.016 0" class="prefix__cls-3" data-name="Fill 396" transform="translate(50.237 39.645)"/>
            <path id="prefix__Fill_398" d="M1.017 2.032A1.016 1.016 0 1 0 0 1.015a1.016 1.016 0 0 0 1.017 1.017" class="prefix__cls-3" data-name="Fill 398" transform="translate(54.302 39.645)"/>
            <path id="prefix__Fill_400" d="M1.016 0a1.016 1.016 0 1 0 1.017 1.016A1.016 1.016 0 0 0 1.016 0" class="prefix__cls-3" data-name="Fill 400" transform="translate(58.367 39.645)"/>
            <path id="prefix__Fill_402" d="M0 1.016a1.006 1.006 0 0 0 .69.95C.9 1.334 1.09.7 1.258.049A1 1 0 0 0 1.017 0 1.017 1.017 0 0 0 0 1.016" class="prefix__cls-3" data-name="Fill 402" transform="translate(62.431 39.645)"/>
            <path id="prefix__Fill_404" d="M1.017 2.033A1.016 1.016 0 0 1 1.02 0a1.016 1.016 0 1 0 0 2.033" class="prefix__cls-3" data-name="Fill 404" transform="translate(31.945 42.694)"/>
            <path id="prefix__Fill_406" d="M1.017 2.033A1.016 1.016 0 1 0 0 1.016a1.017 1.017 0 0 0 1.017 1.017" class="prefix__cls-3" data-name="Fill 406" transform="translate(36.01 42.694)"/>
            <path id="prefix__Fill_408" d="M1.017 2.033A1.016 1.016 0 1 0 0 1.016a1.017 1.017 0 0 0 1.017 1.017" class="prefix__cls-3" data-name="Fill 408" transform="translate(40.074 42.694)"/>
            <path id="prefix__Fill_410" d="M1.017 2.033A1.016 1.016 0 1 0 0 1.016a1.017 1.017 0 0 0 1.017 1.017" class="prefix__cls-3" data-name="Fill 410" transform="translate(44.139 42.694)"/>
            <path id="prefix__Fill_412" d="M1.017 0a1.016 1.016 0 1 0 1.017 1.017A1.016 1.016 0 0 0 1.017 0" class="prefix__cls-3" data-name="Fill 412" transform="translate(48.204 42.694)"/>
            <path id="prefix__Fill_414" d="M1.017 2.033A1.016 1.016 0 1 0 0 1.016a1.017 1.017 0 0 0 1.017 1.017" class="prefix__cls-3" data-name="Fill 414" transform="translate(52.269 42.694)"/>
            <path id="prefix__Fill_416" d="M1.017 2.033A1.016 1.016 0 1 0 0 1.016a1.017 1.017 0 0 0 1.017 1.017" class="prefix__cls-3" data-name="Fill 416" transform="translate(56.334 42.694)"/>
            <path id="prefix__Fill_418" d="M1.017 0a1.016 1.016 0 1 0 0 2.033.992.992 0 0 0 .6-.22c.134-.306.262-.616.386-.927A1 1 0 0 0 1.017 0" class="prefix__cls-3" data-name="Fill 418" transform="translate(60.399 42.694)"/>
            <path id="prefix__Fill_420" d="M1.016 2.033A1.016 1.016 0 1 0 0 1.016a1.017 1.017 0 0 0 1.016 1.017" class="prefix__cls-3" data-name="Fill 420" transform="translate(33.978 45.742)"/>
            <path id="prefix__Fill_422" d="M1.017 0a1.016 1.016 0 1 0 1.016 1.017A1.017 1.017 0 0 0 1.017 0" class="prefix__cls-3" data-name="Fill 422" transform="translate(38.042 45.742)"/>
            <path id="prefix__Fill_424" d="M1.016 2.033A1.016 1.016 0 1 0 0 1.016a1.017 1.017 0 0 0 1.016 1.017" class="prefix__cls-3" data-name="Fill 424" transform="translate(42.107 45.742)"/>
            <path id="prefix__Fill_426" d="M1.017 0a1.016 1.016 0 1 0 1.016 1.017A1.017 1.017 0 0 0 1.017 0" class="prefix__cls-3" data-name="Fill 426" transform="translate(46.172 45.742)"/>
            <path id="prefix__Fill_428" d="M1.016 2.033A1.016 1.016 0 1 0 0 1.016a1.017 1.017 0 0 0 1.016 1.017" class="prefix__cls-3" data-name="Fill 428" transform="translate(50.237 45.742)"/>
            <path id="prefix__Fill_430" d="M1.017 0a1.016 1.016 0 1 0 1.016 1.017A1.017 1.017 0 0 0 1.017 0" class="prefix__cls-3" data-name="Fill 430" transform="translate(54.302 45.742)"/>
            <path id="prefix__Fill_432" d="M1.016 0a1.016 1.016 0 1 0 1.017 1.017A1.017 1.017 0 0 0 1.016 0" class="prefix__cls-3" data-name="Fill 432" transform="translate(58.367 45.742)"/>
            <path id="prefix__Fill_434" d="M1.017 2.033A1.016 1.016 0 0 1 1.02 0a1.016 1.016 0 1 0 0 2.033" class="prefix__cls-3" data-name="Fill 434" transform="translate(31.945 48.791)"/>
            <path id="prefix__Fill_436" d="M1.017 0a1.016 1.016 0 1 0 1.017 1.017A1.017 1.017 0 0 0 1.017 0" class="prefix__cls-3" data-name="Fill 436" transform="translate(36.01 48.791)"/>
            <path id="prefix__Fill_438" d="M1.017 2.033A1.016 1.016 0 1 0 0 1.016a1.016 1.016 0 0 0 1.017 1.017" class="prefix__cls-3" data-name="Fill 438" transform="translate(40.074 48.791)"/>
            <path id="prefix__Fill_440" d="M1.017 2.033A1.016 1.016 0 1 0 0 1.016a1.017 1.017 0 0 0 1.017 1.017" class="prefix__cls-3" data-name="Fill 440" transform="translate(44.139 48.791)"/>
            <path id="prefix__Fill_442" d="M1.017 2.033A1.016 1.016 0 1 0 0 1.016a1.017 1.017 0 0 0 1.017 1.017" class="prefix__cls-3" data-name="Fill 442" transform="translate(48.204 48.791)"/>
            <path id="prefix__Fill_444" d="M1.017 0a1.016 1.016 0 1 0 1.017 1.017A1.017 1.017 0 0 0 1.017 0" class="prefix__cls-3" data-name="Fill 444" transform="translate(52.269 48.791)"/>
            <path id="prefix__Fill_446" d="M1.017 0a1.016 1.016 0 1 0 1.017 1.017A1.017 1.017 0 0 0 1.017 0" class="prefix__cls-3" data-name="Fill 446" transform="translate(56.334 48.791)"/>
            <path id="prefix__Fill_448" d="M1.016 2.032A1.016 1.016 0 1 0 0 1.016a1.016 1.016 0 0 0 1.016 1.016" class="prefix__cls-3" data-name="Fill 448" transform="translate(33.978 51.84)"/>
            <path id="prefix__Fill_450" d="M1.017 2.032A1.016 1.016 0 1 0 0 1.016a1.016 1.016 0 0 0 1.017 1.016" class="prefix__cls-3" data-name="Fill 450" transform="translate(38.042 51.84)"/>
            <path id="prefix__Fill_452" d="M1.016 2.032A1.016 1.016 0 1 0 0 1.016a1.016 1.016 0 0 0 1.016 1.016" class="prefix__cls-3" data-name="Fill 452" transform="translate(42.107 51.84)"/>
            <path id="prefix__Fill_454" d="M1.017 2.032A1.016 1.016 0 1 0 0 1.016a1.016 1.016 0 0 0 1.017 1.016" class="prefix__cls-3" data-name="Fill 454" transform="translate(46.172 51.84)"/>
            <path id="prefix__Fill_456" d="M1.016 0a1.016 1.016 0 1 0 1.017 1.017A1.016 1.016 0 0 0 1.016 0" class="prefix__cls-3" data-name="Fill 456" transform="translate(50.237 51.84)"/>
            <path id="prefix__Fill_458" d="M1.017 0A1.016 1.016 0 1 0 1.7 1.758l.066-.069a1 1 0 0 0 .267-.673A1.016 1.016 0 0 0 1.017 0" class="prefix__cls-3" data-name="Fill 458" transform="translate(54.302 51.84)"/>
            <path id="prefix__Fill_460" d="M1.017 2.032A1.016 1.016 0 0 1 1.02 0a1.016 1.016 0 1 0 0 2.032" class="prefix__cls-3" data-name="Fill 460" transform="translate(31.945 54.888)"/>
            <path id="prefix__Fill_462" d="M1.017 2.032A1.016 1.016 0 1 0 0 1.016a1.017 1.017 0 0 0 1.017 1.016" class="prefix__cls-3" data-name="Fill 462" transform="translate(36.01 54.888)"/>
            <path id="prefix__Fill_464" d="M1.017 0a1.016 1.016 0 1 0 1.017 1.017A1.016 1.016 0 0 0 1.017 0" class="prefix__cls-3" data-name="Fill 464" transform="translate(40.074 54.888)"/>
            <path id="prefix__Fill_466" d="M1.017 0a1.016 1.016 0 1 0 1.017 1.017A1.017 1.017 0 0 0 1.017 0" class="prefix__cls-3" data-name="Fill 466" transform="translate(44.139 54.888)"/>
            <path id="prefix__Fill_468" d="M1.017 0a1.016 1.016 0 1 0 1.017 1.017A1.016 1.016 0 0 0 1.017 0" class="prefix__cls-3" data-name="Fill 468" transform="translate(48.204 54.888)"/>
            <path id="prefix__Fill_470" d="M1.017 0A1.017 1.017 0 0 0 0 1.017a1 1 0 0 0 .387.778C.9 1.385 1.4.965 1.889.526A1 1 0 0 0 1.017 0" class="prefix__cls-3" data-name="Fill 470" transform="translate(52.269 54.888)"/>
            <path id="prefix__Fill_472" d="M1.016 0a1.016 1.016 0 1 0 1.017 1.017A1.017 1.017 0 0 0 1.016 0" class="prefix__cls-3" data-name="Fill 472" transform="translate(33.978 57.937)"/>
            <path id="prefix__Fill_474" d="M1.017 0a1.016 1.016 0 1 0 1.016 1.017A1.017 1.017 0 0 0 1.017 0" class="prefix__cls-3" data-name="Fill 474" transform="translate(38.042 57.937)"/>
            <path id="prefix__Fill_476" d="M1.016 0a1.016 1.016 0 1 0 1.017 1.017A1.017 1.017 0 0 0 1.016 0" class="prefix__cls-3" data-name="Fill 476" transform="translate(42.107 57.937)"/>
            <path id="prefix__Fill_478" d="M1.017 0a1.016 1.016 0 1 0 1.016 1.017A1.017 1.017 0 0 0 1.017 0" class="prefix__cls-3" data-name="Fill 478" transform="translate(46.172 57.937)"/>
            <path id="prefix__Fill_480" d="M.227.52C.344.441.458.36.573.28a1.024 1.024 0 0 0-.346.24" class="prefix__cls-3" data-name="Fill 480" transform="translate(50.294 57.735)"/>
            <path id="prefix__Fill_482" d="M.006 1.017A1.016 1.016 0 0 1 1.02 0a1.017 1.017 0 0 0 0 2.034A1.016 1.016 0 0 1 .006 1.017" class="prefix__cls-3" data-name="Fill 482" transform="translate(31.945 60.985)"/>
            <path id="prefix__Fill_484" d="M1.017 0a1.016 1.016 0 1 0 1.017 1.017A1.017 1.017 0 0 0 1.017 0" class="prefix__cls-3" data-name="Fill 484" transform="translate(36.01 60.985)"/>
            <path id="prefix__Fill_486" d="M1.017 0a1.012 1.012 0 0 0-.7 1.749c.56-.139 1.113-.289 1.66-.455a.968.968 0 0 0 .057-.277A1.017 1.017 0 0 0 1.017 0" class="prefix__cls-3" data-name="Fill 486" transform="translate(40.074 60.985)"/>
            <path id="prefix__Fill_488" d="M0 .657C.38.509.756.358 1.128.2A.969.969 0 0 0 .864.143 1 1 0 0 0 0 .657" class="prefix__cls-3" data-name="Fill 488" transform="translate(44.292 60.842)"/>
            <path id="prefix__Fill_490" d="M.748.968V.952A1 1 0 0 0 .05 0v.032a1 1 0 0 1 .7.936" class="prefix__cls-3" data-name="Fill 490" transform="translate(.715 30.563)"/>
            <path id="prefix__Fill_492" d="M.763.936A1 1 0 0 0 .064 0C.052.362.037.724.037 1.089c0 .264.013.524.019.786A1 1 0 0 0 .763.936" class="prefix__cls-3" data-name="Fill 492" transform="translate(.7 30.595)"/>
            <path id="prefix__Fill_494" d="M1.017.032a1.014 1.014 0 0 1 1.013 1v-.016a1.016 1.016 0 0 0-2.03 0 .117.117 0 0 0 0 .016 1.014 1.014 0 0 1 1.013-1" class="prefix__cls-3" data-name="Fill 494" transform="translate(3.497 30.499)"/>
            <path id="prefix__Fill_496" d="M1.013 2a1.015 1.015 0 0 0 1.013-1A1.013 1.013 0 0 0 0 1a1.015 1.015 0 0 0 1.013 1" class="prefix__cls-3" data-name="Fill 496" transform="translate(3.501 30.531)"/>
            <path id="prefix__Fill_498" d="M1.017.032a1.016 1.016 0 0 1 1.014 1v-.016a1.017 1.017 0 0 0-2.031 0v.016a1.016 1.016 0 0 1 1.014-1" class="prefix__cls-3" data-name="Fill 498" transform="translate(7.562 30.499)"/>
            <path id="prefix__Fill_500" d="M1.014 2a1.016 1.016 0 0 0 1.013-1A1.014 1.014 0 0 0 0 1a1.016 1.016 0 0 0 1.014 1" class="prefix__cls-3" data-name="Fill 500" transform="translate(7.565 30.531)"/>
            <path id="prefix__Fill_502" d="M0 1.032a1.013 1.013 0 0 1 2.026 0v-.016a1.016 1.016 0 1 0-2.026 0v.016" class="prefix__cls-3" data-name="Fill 502" transform="translate(11.627 30.499)"/>
            <path id="prefix__Fill_504" d="M1.014 0A1.016 1.016 0 0 0 0 1a1.013 1.013 0 0 0 2.026 0 1.014 1.014 0 0 0-1.012-1" class="prefix__cls-3" data-name="Fill 504" transform="translate(11.63 30.531)"/>
            <path id="prefix__Fill_506" d="M0 1.032a1.013 1.013 0 0 1 2.026 0v-.016a1.016 1.016 0 0 0-2.026 0v.016" class="prefix__cls-3" data-name="Fill 506" transform="translate(15.692 30.499)"/>
            <path id="prefix__Fill_508" d="M1.014 0A1.016 1.016 0 0 0 0 1a1.014 1.014 0 0 0 2.027 0 1.016 1.016 0 0 0-1.013-1" class="prefix__cls-3" data-name="Fill 508" transform="translate(15.695 30.531)"/>
            <path id="prefix__Fill_510" d="M1.017.032a1.015 1.015 0 0 1 1.013 1v-.016a1.016 1.016 0 0 0-2.03 0v.016a1.016 1.016 0 0 1 1.014-1" class="prefix__cls-3" data-name="Fill 510" transform="translate(19.756 30.499)"/>
            <path id="prefix__Fill_512" d="M1.014 2a1.015 1.015 0 0 0 1.012-1A1.013 1.013 0 0 0 0 1a1.016 1.016 0 0 0 1.014 1" class="prefix__cls-3" data-name="Fill 512" transform="translate(19.76 30.531)"/>
            <path id="prefix__Fill_514" d="M1.017.032a1.014 1.014 0 0 1 1.013 1 .117.117 0 0 0 0-.016 1.017 1.017 0 0 0-2.03 0v.016a1.016 1.016 0 0 1 1.014-1" class="prefix__cls-3" data-name="Fill 514" transform="translate(23.821 30.499)"/>
            <path id="prefix__Fill_516" d="M1.014 2a1.015 1.015 0 0 0 1.012-1A1.013 1.013 0 0 0 0 1a1.016 1.016 0 0 0 1.014 1" class="prefix__cls-3" data-name="Fill 516" transform="translate(23.824 30.531)"/>
            <path id="prefix__Fill_518" d="M1.017 0A1.017 1.017 0 0 0 0 1.017v.015a1.013 1.013 0 0 1 2.026 0v-.015A1.017 1.017 0 0 0 1.017 0" class="prefix__cls-3" data-name="Fill 518" transform="translate(27.886 30.499)"/>
            <path id="prefix__Fill_520" d="M1.014 0A1.015 1.015 0 0 0 0 1a1.013 1.013 0 0 0 2.026 0 1.015 1.015 0 0 0-1.012-1" class="prefix__cls-3" data-name="Fill 520" transform="translate(27.889 30.531)"/>
            <path id="prefix__Fill_522" d="M0 0a1.016 1.016 0 0 1 1.014 1.017V1.016A1.017 1.017 0 0 0 0 0" class="prefix__cls-3" data-name="Fill 522" transform="translate(32.965 30.499)"/>
            <path id="prefix__Fill_524" d="M.4.4V.385.4" class="prefix__cls-3" data-name="Fill 524" transform="translate(33.578 31.132)"/>
            <path id="prefix__Fill_526" d="M0 1A1.015 1.015 0 0 0 1.014.015V0A1.015 1.015 0 0 1 0 1" class="prefix__cls-3" data-name="Fill 526" transform="translate(32.965 31.531)"/>
            <path id="prefix__Fill_528" d="M0 1.016A1.013 1.013 0 0 1 1.01.032h.006a1.013 1.013 0 0 1 1.01.986A1.013 1.013 0 1 0 0 1.016" class="prefix__cls-3" data-name="Fill 528" transform="translate(31.951 30.5)"/>
            <path id="prefix__Fill_530" d="M1.014 0A1.014 1.014 0 0 0 0 .986V1a1.015 1.015 0 0 1 1.01-1" class="prefix__cls-3" data-name="Fill 530" transform="translate(31.951 30.531)"/>
            <path id="prefix__Fill_532" d="M0 0a1.015 1.015 0 0 1 1.01 1V.986A1.015 1.015 0 0 0 0 0" class="prefix__cls-3" data-name="Fill 532" transform="translate(32.965 30.531)"/>
            <path id="prefix__Fill_534" d="M1.01 0A1.015 1.015 0 0 0 0 1a1.01 1.01 0 0 0 2.021 0A1.015 1.015 0 0 0 1.01 0" class="prefix__cls-3" data-name="Fill 534" transform="translate(31.954 30.532)"/>
            <path id="prefix__Fill_536" d="M1.016 0a1.016 1.016 0 1 0 1.017 1.017A1.017 1.017 0 0 0 1.016 0" class="prefix__cls-3" data-name="Fill 536" transform="translate(1.465 33.548)"/>
            <path id="prefix__Fill_538" d="M1.017 2.033A1.016 1.016 0 1 0 0 1.016a1.017 1.017 0 0 0 1.017 1.017" class="prefix__cls-3" data-name="Fill 538" transform="translate(5.53 33.548)"/>
            <path id="prefix__Fill_540" d="M1.016 2.033A1.016 1.016 0 1 0 0 1.016a1.017 1.017 0 0 0 1.016 1.017" class="prefix__cls-3" data-name="Fill 540" transform="translate(9.595 33.548)"/>
            <path id="prefix__Fill_542" d="M1.017 0a1.016 1.016 0 1 0 1.017 1.017A1.017 1.017 0 0 0 1.017 0" class="prefix__cls-3" data-name="Fill 542" transform="translate(13.659 33.548)"/>
            <path id="prefix__Fill_544" d="M1.016 0a1.016 1.016 0 1 0 1.017 1.017A1.017 1.017 0 0 0 1.016 0" class="prefix__cls-3" data-name="Fill 544" transform="translate(17.724 33.548)"/>
            <path id="prefix__Fill_546" d="M1.017 2.033A1.016 1.016 0 1 0 0 1.016a1.017 1.017 0 0 0 1.017 1.017" class="prefix__cls-3" data-name="Fill 546" transform="translate(21.788 33.548)"/>
            <path id="prefix__Fill_548" d="M1.016 2.033A1.016 1.016 0 1 0 0 1.016a1.017 1.017 0 0 0 1.016 1.017" class="prefix__cls-3" data-name="Fill 548" transform="translate(25.854 33.548)"/>
            <path id="prefix__Fill_550" d="M1.017 2.033A1.016 1.016 0 1 0 0 1.016a1.017 1.017 0 0 0 1.017 1.017" class="prefix__cls-3" data-name="Fill 550" transform="translate(29.918 33.548)"/>
            <path id="prefix__Fill_552" d="M.25 0c.062.382.127.763.2 1.141A1 1 0 0 0 .55.72 1.018 1.018 0 0 0 .25 0" class="prefix__cls-3" data-name="Fill 552" transform="translate(.915 36.892)"/>
            <path id="prefix__Fill_554" d="M1.017 2.032A1.016 1.016 0 1 0 0 1.015a1.016 1.016 0 0 0 1.017 1.017" class="prefix__cls-3" data-name="Fill 554" transform="translate(3.497 36.597)"/>
            <path id="prefix__Fill_556" d="M1.017 0a1.016 1.016 0 1 0 1.017 1.016A1.016 1.016 0 0 0 1.017 0" class="prefix__cls-3" data-name="Fill 556" transform="translate(7.562 36.597)"/>
            <path id="prefix__Fill_558" d="M1.017 2.032A1.016 1.016 0 1 0 0 1.015a1.016 1.016 0 0 0 1.017 1.017" class="prefix__cls-3" data-name="Fill 558" transform="translate(11.627 36.597)"/>
            <path id="prefix__Fill_560" d="M1.017 0a1.016 1.016 0 1 0 1.017 1.016A1.016 1.016 0 0 0 1.017 0" class="prefix__cls-3" data-name="Fill 560" transform="translate(15.692 36.597)"/>
            <path id="prefix__Fill_562" d="M1.017 0a1.016 1.016 0 1 0 1.016 1.016A1.017 1.017 0 0 0 1.017 0" class="prefix__cls-3" data-name="Fill 562" transform="translate(19.756 36.597)"/>
            <path id="prefix__Fill_564" d="M1.017 2.032A1.016 1.016 0 1 0 0 1.015a1.017 1.017 0 0 0 1.017 1.017" class="prefix__cls-3" data-name="Fill 564" transform="translate(23.821 36.597)"/>
            <path id="prefix__Fill_566" d="M1.017 2.032A1.016 1.016 0 1 0 0 1.015a1.016 1.016 0 0 0 1.017 1.017" class="prefix__cls-3" data-name="Fill 566" transform="translate(27.886 36.597)"/>
            <path id="prefix__Fill_568" d="M0 0a1.016 1.016 0 0 1 1.014 1.016A1.016 1.016 0 0 1 0 2.031 1.016 1.016 0 1 0 0 0" class="prefix__cls-3" data-name="Fill 568" transform="translate(32.965 36.597)"/>
            <path id="prefix__Fill_570" d="M2.026 1.016a1.013 1.013 0 1 0-1.013 1.016 1.016 1.016 0 0 0 1.013-1.016" class="prefix__cls-3" data-name="Fill 570" transform="translate(31.952 36.596)"/>
            <path id="prefix__Fill_572" d="M1.688 1.016A1.016 1.016 0 0 0 .671 0 1 1 0 0 0 0 .266C.156.852.33 1.43.517 2a.946.946 0 0 0 .154.032 1.016 1.016 0 0 0 1.017-1.016" class="prefix__cls-3" data-name="Fill 572" transform="translate(1.809 39.645)"/>
            <path id="prefix__Fill_574" d="M1.017 2.032A1.016 1.016 0 1 0 0 1.015a1.016 1.016 0 0 0 1.017 1.017" class="prefix__cls-3" data-name="Fill 574" transform="translate(5.53 39.645)"/>
            <path id="prefix__Fill_576" d="M1.016 0a1.016 1.016 0 1 0 1.017 1.016A1.016 1.016 0 0 0 1.016 0" class="prefix__cls-3" data-name="Fill 576" transform="translate(9.595 39.645)"/>
            <path id="prefix__Fill_578" d="M1.017 2.032A1.016 1.016 0 1 0 0 1.015a1.016 1.016 0 0 0 1.017 1.017" class="prefix__cls-3" data-name="Fill 578" transform="translate(13.659 39.645)"/>
            <path id="prefix__Fill_580" d="M1.016 2.032A1.016 1.016 0 1 0 0 1.015a1.016 1.016 0 0 0 1.016 1.017" class="prefix__cls-3" data-name="Fill 580" transform="translate(17.724 39.645)"/>
            <path id="prefix__Fill_582" d="M1.017 2.032A1.016 1.016 0 1 0 0 1.015a1.016 1.016 0 0 0 1.017 1.017" class="prefix__cls-3" data-name="Fill 582" transform="translate(21.788 39.645)"/>
            <path id="prefix__Fill_584" d="M1.016 0a1.016 1.016 0 1 0 1.017 1.016A1.016 1.016 0 0 0 1.016 0" class="prefix__cls-3" data-name="Fill 584" transform="translate(25.854 39.645)"/>
            <path id="prefix__Fill_586" d="M1.017 2.032A1.016 1.016 0 1 0 0 1.015a1.016 1.016 0 0 0 1.017 1.017" class="prefix__cls-3" data-name="Fill 586" transform="translate(29.918 39.645)"/>
            <path id="prefix__Fill_588" d="M1.017 0a1.016 1.016 0 1 0 1.016 1.017A1.017 1.017 0 0 0 1.017 0" class="prefix__cls-3" data-name="Fill 588" transform="translate(3.497 42.694)"/>
            <path id="prefix__Fill_590" d="M1.017 2.033A1.016 1.016 0 1 0 0 1.016a1.017 1.017 0 0 0 1.017 1.017" class="prefix__cls-3" data-name="Fill 590" transform="translate(7.562 42.694)"/>
            <path id="prefix__Fill_592" d="M1.017 2.033A1.016 1.016 0 1 0 0 1.016a1.017 1.017 0 0 0 1.017 1.017" class="prefix__cls-3" data-name="Fill 592" transform="translate(11.627 42.694)"/>
            <path id="prefix__Fill_594" d="M1.017 2.033A1.016 1.016 0 1 0 0 1.016a1.017 1.017 0 0 0 1.017 1.017" class="prefix__cls-3" data-name="Fill 594" transform="translate(15.692 42.694)"/>
            <path id="prefix__Fill_596" d="M1.017 2.033A1.016 1.016 0 1 0 0 1.016a1.017 1.017 0 0 0 1.017 1.017" class="prefix__cls-3" data-name="Fill 596" transform="translate(19.756 42.694)"/>
            <path id="prefix__Fill_598" d="M1.017 2.033A1.016 1.016 0 1 0 0 1.016a1.017 1.017 0 0 0 1.017 1.017" class="prefix__cls-3" data-name="Fill 598" transform="translate(23.821 42.694)"/>
            <path id="prefix__Fill_600" d="M1.017 2.033A1.016 1.016 0 1 0 0 1.016a1.017 1.017 0 0 0 1.017 1.017" class="prefix__cls-3" data-name="Fill 600" transform="translate(27.886 42.694)"/>
            <path id="prefix__Fill_602" d="M1.014 1.017A1.016 1.016 0 0 1 0 2.033a1.018 1.018 0 0 0 1.02-1.016A1.017 1.017 0 0 0 0 0a1.016 1.016 0 0 1 1.014 1.017" class="prefix__cls-3" data-name="Fill 602" transform="translate(32.964 42.693)"/>
            <path id="prefix__Fill_604" d="M0 1.016A1.013 1.013 0 1 0 1.014 0 1.016 1.016 0 0 0 0 1.016" class="prefix__cls-3" data-name="Fill 604" transform="translate(31.951 42.694)"/>
            <path id="prefix__Fill_606" d="M1.017 0a1.016 1.016 0 1 0 1.016 1.017A1.017 1.017 0 0 0 1.017 0" class="prefix__cls-3" data-name="Fill 606" transform="translate(5.53 45.742)"/>
            <path id="prefix__Fill_608" d="M1.016 2.033A1.016 1.016 0 1 0 0 1.016a1.017 1.017 0 0 0 1.016 1.017" class="prefix__cls-3" data-name="Fill 608" transform="translate(9.595 45.742)"/>
            <path id="prefix__Fill_610" d="M1.017 2.033A1.016 1.016 0 1 0 0 1.016a1.017 1.017 0 0 0 1.017 1.017" class="prefix__cls-3" data-name="Fill 610" transform="translate(13.659 45.742)"/>
            <path id="prefix__Fill_612" d="M1.016 0a1.016 1.016 0 1 0 1.017 1.017A1.017 1.017 0 0 0 1.016 0" class="prefix__cls-3" data-name="Fill 612" transform="translate(17.724 45.742)"/>
            <path id="prefix__Fill_614" d="M1.017 0a1.016 1.016 0 1 0 1.017 1.017A1.017 1.017 0 0 0 1.017 0" class="prefix__cls-3" data-name="Fill 614" transform="translate(21.788 45.742)"/>
            <path id="prefix__Fill_616" d="M1.016 2.033A1.016 1.016 0 1 0 0 1.016a1.017 1.017 0 0 0 1.016 1.017" class="prefix__cls-3" data-name="Fill 616" transform="translate(25.854 45.742)"/>
            <path id="prefix__Fill_618" d="M1.017 2.033A1.016 1.016 0 1 0 0 1.016a1.017 1.017 0 0 0 1.017 1.017" class="prefix__cls-3" data-name="Fill 618" transform="translate(29.918 45.742)"/>
            <path id="prefix__Fill_620" d="M1.017 0a1.016 1.016 0 1 0 1.017 1.017A1.017 1.017 0 0 0 1.017 0" class="prefix__cls-3" data-name="Fill 620" transform="translate(7.562 48.791)"/>
            <path id="prefix__Fill_622" d="M1.017 0a1.016 1.016 0 1 0 1.016 1.017A1.017 1.017 0 0 0 1.017 0" class="prefix__cls-3" data-name="Fill 622" transform="translate(11.627 48.791)"/>
            <path id="prefix__Fill_624" d="M1.017 2.033A1.016 1.016 0 1 0 0 1.016a1.017 1.017 0 0 0 1.017 1.017" class="prefix__cls-3" data-name="Fill 624" transform="translate(15.692 48.791)"/>
            <path id="prefix__Fill_626" d="M1.017 2.033A1.016 1.016 0 1 0 0 1.016a1.016 1.016 0 0 0 1.017 1.017" class="prefix__cls-3" data-name="Fill 626" transform="translate(19.756 48.791)"/>
            <path id="prefix__Fill_628" d="M1.017 2.033A1.016 1.016 0 1 0 0 1.016a1.017 1.017 0 0 0 1.017 1.017" class="prefix__cls-3" data-name="Fill 628" transform="translate(23.821 48.791)"/>
            <path id="prefix__Fill_630" d="M1.017 0a1.016 1.016 0 1 0 1.016 1.017A1.017 1.017 0 0 0 1.017 0" class="prefix__cls-3" data-name="Fill 630" transform="translate(27.886 48.791)"/>
            <path id="prefix__Fill_632" d="M1.014 1.017A1.016 1.016 0 0 1 0 2.033a1.017 1.017 0 0 0 1.02-1.016A1.018 1.018 0 0 0 0 0a1.016 1.016 0 0 1 1.014 1.017" class="prefix__cls-3" data-name="Fill 632" transform="translate(32.964 48.79)"/>
            <path id="prefix__Fill_634" d="M0 1.016A1.013 1.013 0 1 0 1.014 0 1.016 1.016 0 0 0 0 1.016" class="prefix__cls-3" data-name="Fill 634" transform="translate(31.951 48.791)"/>
            <path id="prefix__Fill_636" d="M1.016 0a1.016 1.016 0 1 0 1.017 1.017A1.016 1.016 0 0 0 1.016 0" class="prefix__cls-3" data-name="Fill 636" transform="translate(9.595 51.84)"/>
            <path id="prefix__Fill_638" d="M1.017 0a1.016 1.016 0 1 0 1.017 1.017A1.017 1.017 0 0 0 1.017 0" class="prefix__cls-3" data-name="Fill 638" transform="translate(13.659 51.84)"/>
            <path id="prefix__Fill_640" d="M1.016 2.032A1.016 1.016 0 1 0 0 1.016a1.016 1.016 0 0 0 1.016 1.016" class="prefix__cls-3" data-name="Fill 640" transform="translate(17.724 51.84)"/>
            <path id="prefix__Fill_642" d="M1.017 2.032A1.016 1.016 0 1 0 0 1.016a1.016 1.016 0 0 0 1.017 1.016" class="prefix__cls-3" data-name="Fill 642" transform="translate(21.788 51.84)"/>
            <path id="prefix__Fill_644" d="M1.016 2.032A1.016 1.016 0 1 0 0 1.016a1.017 1.017 0 0 0 1.016 1.016" class="prefix__cls-3" data-name="Fill 644" transform="translate(25.854 51.84)"/>
            <path id="prefix__Fill_646" d="M1.017 2.032A1.016 1.016 0 1 0 0 1.016a1.016 1.016 0 0 0 1.017 1.016" class="prefix__cls-3" data-name="Fill 646" transform="translate(29.918 51.84)"/>
            <path id="prefix__Fill_648" d="M2 1.017A1.016 1.016 0 0 0 .984 0 1 1 0 0 0 0 .856q.652.571 1.334 1.106A1.01 1.01 0 0 0 2 1.017" class="prefix__cls-3" data-name="Fill 648" transform="translate(11.659 54.888)"/>
            <path id="prefix__Fill_650" d="M1.017 0a1.016 1.016 0 1 0 1.017 1.017A1.016 1.016 0 0 0 1.017 0" class="prefix__cls-3" data-name="Fill 650" transform="translate(15.692 54.888)"/>
            <path id="prefix__Fill_652" d="M1.017 0a1.016 1.016 0 1 0 1.016 1.017A1.017 1.017 0 0 0 1.017 0" class="prefix__cls-3" data-name="Fill 652" transform="translate(19.756 54.888)"/>
            <path id="prefix__Fill_654" d="M1.017 0a1.016 1.016 0 1 0 1.017 1.017A1.016 1.016 0 0 0 1.017 0" class="prefix__cls-3" data-name="Fill 654" transform="translate(23.821 54.888)"/>
            <path id="prefix__Fill_656" d="M1.017 2.032A1.016 1.016 0 1 0 0 1.016a1.016 1.016 0 0 0 1.017 1.016" class="prefix__cls-3" data-name="Fill 656" transform="translate(27.886 54.888)"/>
            <path id="prefix__Fill_658" d="M1.014 1.017A1.016 1.016 0 0 1 0 2.033a1.017 1.017 0 0 0 1.02-1.016A1.017 1.017 0 0 0 0 0a1.015 1.015 0 0 1 1.014 1.017" class="prefix__cls-3" data-name="Fill 658" transform="translate(32.964 54.888)"/>
            <path id="prefix__Fill_660" d="M0 1.016A1.013 1.013 0 1 0 1.014 0 1.016 1.016 0 0 0 0 1.016" class="prefix__cls-3" data-name="Fill 660" transform="translate(31.951 54.889)"/>
            <path id="prefix__Fill_662" d="M.168.007A.992.992 0 0 0 0 .04q.56.389 1.138.753a1 1 0 0 0-.97-.786" class="prefix__cls-3" data-name="Fill 662" transform="translate(14.508 57.93)"/>
            <path id="prefix__Fill_664" d="M1.016 0a1.016 1.016 0 1 0 1.017 1.017A1.017 1.017 0 0 0 1.016 0" class="prefix__cls-3" data-name="Fill 664" transform="translate(17.724 57.937)"/>
            <path id="prefix__Fill_666" d="M1.017 0a1.016 1.016 0 1 0 1.017 1.017A1.017 1.017 0 0 0 1.017 0" class="prefix__cls-3" data-name="Fill 666" transform="translate(21.788 57.937)"/>
            <path id="prefix__Fill_668" d="M1.016 0a1.016 1.016 0 1 0 1.017 1.017A1.017 1.017 0 0 0 1.016 0" class="prefix__cls-3" data-name="Fill 668" transform="translate(25.854 57.937)"/>
            <path id="prefix__Fill_670" d="M1.017 0a1.016 1.016 0 1 0 1.017 1.017A1.017 1.017 0 0 0 1.017 0" class="prefix__cls-3" data-name="Fill 670" transform="translate(29.918 57.937)"/>
            <path id="prefix__Fill_672" d="M.517.027A.989.989 0 0 0 0 .189Q.73.5 1.478.773A1 1 0 0 0 .517.027" class="prefix__cls-3" data-name="Fill 672" transform="translate(20.256 60.958)"/>
            <path id="prefix__Fill_674" d="M2.033 1.017a1.016 1.016 0 1 0-2.033 0 1 1 0 0 0 .1.431q.736.21 1.486.386a1 1 0 0 0 .443-.817" class="prefix__cls-3" data-name="Fill 674" transform="translate(23.822 60.985)"/>
            <path id="prefix__Fill_676" d="M1.017 0a1.016 1.016 0 1 0 1.016 1.017A1.017 1.017 0 0 0 1.017 0" class="prefix__cls-3" data-name="Fill 676" transform="translate(27.886 60.985)"/>
            <path id="prefix__Fill_678" d="M0 0a1.016 1.016 0 0 1 1.014 1.017A1.016 1.016 0 0 1 0 2.032a1.017 1.017 0 0 0 1.019-1.015A1.017 1.017 0 0 0 0 0" class="prefix__cls-3" data-name="Fill 678" transform="translate(32.965 60.985)"/>
            <path id="prefix__Fill_680" d="M2.026 1.016a1.013 1.013 0 1 0-1.013 1.016 1.016 1.016 0 0 0 1.013-1.016" class="prefix__cls-3" data-name="Fill 680" transform="translate(31.952 60.986)"/>
        </g>
        <path id="prefix__Fill_683" d="M2.882 1.982q1.05-1.6.754-1.907Q3.211-.371 0 1.848" class="prefix__cls-7" data-name="Fill 683" transform="translate(54.813 23.768)"/>
        <path id="prefix__Fill_685" d="M3.275 2.421l-.467-.308C3.638.85 3.587.56 3.578.532 3.538.543 3.013.5.319 2.364L0 1.9C3.147-.271 3.714-.13 4 .167c.321.334.111.987-.722 2.254" class="prefix__cls-8" data-name="Fill 685" transform="translate(54.654 23.483)"/>
        <path id="prefix__Fill_687" d="M0 .665l1.729 2.194 8.014 3.525a37.571 37.571 0 0 0 4.19 9.943 37.088 37.088 0 0 0 2.893 4.123 2.356 2.356 0 0 0 1.929 1.031 2.291 2.291 0 0 0 1.7-.9 13.519 13.519 0 0 0 1.664-3.126c.581-1.569.554-2.43 1.13-4.256a19.241 19.241 0 0 1 1.263-3.059l15.43 4.19c.643 4.138 2.227 7.064 3.99 7.182 1.3.088 2.421-1.364 3.824-3.226a24.1 24.1 0 0 0 3.825-7.581 7.794 7.794 0 0 1 2.494-4.856 7.631 7.631 0 0 1 3.758-1.8 17.591 17.591 0 0 0 4.854-1.729c.527-.284 1.577-.859 1.48-1.2-.073-.231-.698-.25-1.117-.256a53.01 53.01 0 0 0-5.354.4c-2.444.114-2.642-.726-3.891-.3-1.587.543-2.18 2.211-3.126 4.322-.573 1.281-4.462 9.838-6.218 9.478-.648-.133-.889-1.454-1.164-2.959-.463-2.538.115-3.726-.166-6.352a15.2 15.2 0 0 0-.665-3.092L30.361 1 22.38 0a5.773 5.773 0 0 0-2.794 1.9 6.117 6.117 0 0 0-1.1 4.854c.858 5.866.437 7.46-.2 7.682a1.206 1.206 0 0 1-.8-.133c-1.267-.534-1.71-2.154-1.862-2.661a37.922 37.922 0 0 0-4.122-8.092 3.764 3.764 0 0 0-1.6-2.283c-1.3-.737-2.637-.032-4.756.133A12.463 12.463 0 0 1 0 .665" class="prefix__cls-7" data-name="Fill 687" transform="translate(1.583 24.387)"/>
        <path id="prefix__Fill_689" d="M.819 1.982Q-.231.384.065.074.49-.371 3.7 1.848" class="prefix__cls-7" data-name="Fill 689" transform="translate(7.526 23.768)"/>
        <path id="prefix__Fill_691" d="M.865 2.421C.032 1.154-.178.5.143.167c.287-.3.854-.434 4 1.737l-.319.461C1.126.5.6.544.525.57a4.888 4.888 0 0 0 .806 1.543z" class="prefix__cls-8" data-name="Fill 691" transform="translate(7.246 23.483)"/>
        <path id="prefix__Fill_693" d="M0 0l1.507 12.681 24.742.089 1.685-5.764-1.685-5.764z" class="prefix__cls-7" data-name="Fill 693" transform="translate(19.487 56.948)"/>
        <path id="prefix__Fill_695" d="M1.909 22.2a12.9 12.9 0 0 1-1.9-6.067C-.259 10.064 3.519 2.1 10.179.395A8.7 8.7 0 0 1 15 .311c4.3 1.3 5.984 6.014 9 15.018 3.3 9.834 2.136 11.7 1.421 12.449-.467.486-1.362 1.135-4.61 1.31-3.084.166-14.19.762-18.906-6.885" class="prefix__cls-3" data-name="Fill 695" transform="translate(22.26 .282)"/>
        <path id="prefix__Fill_697" d="M18.64 29.718c-8.168 0-13.781-2.384-16.681-7.086a13.16 13.16 0 0 1-1.937-6.2C-.349 8.266 5.117 1.756 10.392.407A10.7 10.7 0 0 1 13.14 0a7.692 7.692 0 0 1 2.227.325c4.549 1.37 6.294 6.57 9.184 15.185v.012c3.114 9.294 2.361 11.686 1.357 12.731-.571.593-1.587 1.223-4.8 1.4-.834.042-1.666.065-2.468.065zM13.142.563a10.188 10.188 0 0 0-2.605.385C4.236 2.561.3 10.243.577 16.406a12.569 12.569 0 0 0 1.853 5.933c2.794 4.525 8.244 6.82 16.2 6.82.79 0 1.616-.023 2.455-.068 3.426-.185 4.125-.913 4.424-1.224.475-.5 1.922-2-1.485-12.165C20.955 6.548 19.3 2.094 15.206.861a7.157 7.157 0 0 0-2.064-.298z" class="prefix__cls-8" data-name="Fill 697" transform="translate(21.976)"/>
        <path id="prefix__Fill_699" d="M0 0l1.13 10.509 16.362.4L26.2 8.846a19.074 19.074 0 0 0 .9-3.991 18.953 18.953 0 0 0 .033-3.99L0 0" class="prefix__cls-7" data-name="Fill 699" transform="translate(19.971 59.769)"/>
        <path id="prefix__Fill_701" d="M33.06 20.378a.922.922 0 0 1-.217-.026c-.641-.156-.917-.948-1.069-1.531a19.445 19.445 0 0 1-.322-5.214c.062-2.432.122-4.73-.97-6.081a8.861 8.861 0 0 0-3.56-2.086c-1.266-.51-2.461-.99-2.958-1.767a5.234 5.234 0 0 1-.811-2.525L19.16.628A4.16 4.16 0 0 1 17.959 3c-.61.6-1.271.915-4.762 2-.81.253-1.427.438-1.909.584a11.113 11.113 0 0 0-1.724.59 2.567 2.567 0 0 0-.292.173 4.8 4.8 0 0 0-1.829 3.087 7.969 7.969 0 0 0-.033 3.185 23.629 23.629 0 0 1 .24 3.07c.029 2.611-.01 4.338-.792 4.592-.511.163-1.566.513-6.858-10.99l.51-.234c4.837 10.516 6 10.742 6.175 10.691.449-.146.42-2.781.406-4.047a23.311 23.311 0 0 0-.236-3.01A8.5 8.5 0 0 1 6.9 9.31a5.32 5.32 0 0 1 2.062-3.435 3.011 3.011 0 0 1 .346-.2 11.389 11.389 0 0 1 1.818-.627c.481-.146 1.1-.33 1.9-.582 3.352-1.04 4.011-1.347 4.537-1.864A3.68 3.68 0 0 0 18.642.286L18.671 0 23.7.654v.24a4.719 4.719 0 0 0 .733 2.477 6.165 6.165 0 0 0 2.694 1.55 9.245 9.245 0 0 1 3.788 2.254c1.221 1.512 1.159 3.909 1.094 6.447a19.059 19.059 0 0 0 .3 5.058c.179.686.4 1.065.66 1.128.376.086.887-.468 1.059-.65 2.006-2.142 3.5-5.454 4.815-8.374l.786-1.725.509.233-.783 1.722c-1.336 2.96-2.85 6.315-4.918 8.526a2.2 2.2 0 0 1-1.384.838" class="prefix__cls-8" data-name="Fill 701" transform="translate(12.968 19.071)"/>
        <path id="prefix__Fill_703" d="M13.757 11.264c-.14 0-.227-.006-.244-.008a5.376 5.376 0 0 1-4.4-3.711A5.157 5.157 0 0 1 8.081 8.8C6.5 10.2 3.754 10.867 1.9 9.568A4.9 4.9 0 0 1 .052 4.98a5.73 5.73 0 0 1 .31-1.087A5.706 5.706 0 0 0 .773 2.02 6.653 6.653 0 0 0 .629.339a.279.279 0 0 1 .547-.118 7.153 7.153 0 0 1 .156 1.825 6.265 6.265 0 0 1-.443 2.037 5.31 5.31 0 0 0-.284.986 4.375 4.375 0 0 0 1.614 4.039c1.63 1.142 4.073.527 5.492-.728a4.722 4.722 0 0 0 1.214-1.7l.333-.772.2.818a4.949 4.949 0 0 0 4.1 3.97 4.374 4.374 0 0 0 3.334-1.275 4.069 4.069 0 0 0 .988-2.214 3.849 3.849 0 0 0-.11-1.446 7.948 7.948 0 0 1-.208-1.52 8.238 8.238 0 0 1 .286-2.462.284.284 0 0 1 .344-.2.281.281 0 0 1 .2.344 7.674 7.674 0 0 0-.268 2.294 7.547 7.547 0 0 0 .2 1.424 4.434 4.434 0 0 1 .119 1.634A4.641 4.641 0 0 1 17.306 9.8a4.866 4.866 0 0 1-3.55 1.464" class="prefix__cls-8" data-name="Fill 703" transform="translate(23.732 28.949)"/>
        <path id="prefix__Fill_705" d="M3.491 3.824A20.562 20.562 0 0 1 0 10.042l21.614.865a23.874 23.874 0 0 1-2.527-5.786 23.8 23.8 0 0 1-.765-3.857L4.422 0a20.342 20.342 0 0 1-.931 3.824" class="prefix__cls-7" data-name="Fill 705" transform="translate(21.67 40.908)"/>
        <path id="prefix__Fill_707" d="M1.047 26.708a.279.279 0 0 1-.274-.221c-1.361-6.37-.924-11.013 1.3-13.8.52-.651 3.1-3.98 3.8-6.855a14.714 14.714 0 0 0 .342-2.178A12.675 12.675 0 0 0 6 .333.281.281 0 0 1 6.225 0a.284.284 0 0 1 .329.221 13.3 13.3 0 0 1 .221 3.466 15.137 15.137 0 0 1-.357 2.275C5.7 8.88 3.251 12.1 2.517 13.024.4 15.686 0 20.172 1.321 26.369a.28.28 0 0 1-.215.333.294.294 0 0 1-.058.006" class="prefix__cls-8" data-name="Fill 707" transform="translate(19.282 37.968)"/>
        <path id="prefix__Fill_709" d="M6.8 29.091a.291.291 0 0 1-.074-.01.28.28 0 0 1-.2-.343 20.516 20.516 0 0 0-.175-11.548 20.071 20.071 0 0 0-3.742-6.841A13.339 13.339 0 0 1 .463 5.907 13.539 13.539 0 0 1 .174.234a.28.28 0 1 1 .553.09A12.958 12.958 0 0 0 1 5.76a12.787 12.787 0 0 0 2.05 4.245 20.609 20.609 0 0 1 3.836 7.016 21.087 21.087 0 0 1 .181 11.863.281.281 0 0 1-.27.206" class="prefix__cls-8" data-name="Fill 709" transform="translate(39.693 38.999)"/>
        <path id="prefix__Fill_711" d="M7.534 9.117a.278.278 0 0 1-.263-.185 15.68 15.68 0 0 0-3.11-5.2A15.666 15.666 0 0 0 .144.525a.28.28 0 1 1 .273-.49 16.25 16.25 0 0 1 4.159 3.318A16.227 16.227 0 0 1 7.8 8.743a.278.278 0 0 1-.169.358.262.262 0 0 1-.094.017" class="prefix__cls-8" data-name="Fill 711" transform="translate(25.857 54.273)"/>
        <path id="prefix__Fill_713" d="M.58 17.058a.28.28 0 0 1-.28-.226 16.887 16.887 0 0 1 1.123-9.989A16.659 16.659 0 0 1 7 .052a.28.28 0 1 1 .324.456 16.119 16.119 0 0 0-5.39 6.564 16.318 16.318 0 0 0-1.079 9.652.28.28 0 0 1-.222.329.318.318 0 0 1-.054 0" class="prefix__cls-8" data-name="Fill 713" transform="translate(32.101 55.248)"/>
        <path id="prefix__Fill_715" d="M7.655 0c2.945.7 5.168 3.88 5.168 7.7 0 4.336-2.872 7.849-6.408 7.849S0 12.031 0 7.7a10.032 10.032 0 0 1 .151-1.724" class="prefix__cls-7" data-name="Fill 715" transform="translate(28.11 5.176)"/>
        <path id="prefix__Fill_717" d="M6.7 16.1C3 16.1 0 12.45 0 7.968A10.351 10.351 0 0 1 .155 6.2l.552.1a9.782 9.782 0 0 0-.148 1.668c0 4.174 2.753 7.569 6.136 7.569s6.128-3.4 6.128-7.569c0-3.615-2.083-6.737-4.953-7.422L8 0c3.119.746 5.382 4.1 5.382 7.968 0 4.482-3 8.128-6.687 8.128" class="prefix__cls-8" data-name="Fill 717" transform="translate(27.83 4.903)"/>
        <path id="prefix__Fill_719" d="M.167 11.054L0 10.52a14.227 14.227 0 0 0 5.9-3.6A13.946 13.946 0 0 0 9.587 0l.549.114A14.5 14.5 0 0 1 6.3 7.317a14.791 14.791 0 0 1-6.133 3.737" class="prefix__cls-8" data-name="Fill 719" transform="translate(27.794 .492)"/>
        <path id="prefix__Fill_721" d="M0 3.506a7 7 0 0 0 1.159-1.832A6.96 6.96 0 0 0 1.645 0" class="prefix__cls-7" data-name="Fill 721" transform="translate(31.965 33.657)"/>
        <path id="prefix__Fill_723" d="M.28 4.066A.274.274 0 0 1 .1 4a.278.278 0 0 1-.03-.4 6.71 6.71 0 0 0 1.112-1.756A6.687 6.687 0 0 0 1.648.236.276.276 0 0 1 1.968 0 .279.279 0 0 1 2.2.324a7.274 7.274 0 0 1-.5 1.742A7.231 7.231 0 0 1 .49 3.971a.279.279 0 0 1-.21.1" class="prefix__cls-8" data-name="Fill 723" transform="translate(31.685 33.377)"/>
        <path id="prefix__Fill_725" d="M2.273 0C2.121.008.557.106.122 1.029-.335 2 .491 3.806 2.617 4.672A11.167 11.167 0 0 1 2.273 0" class="prefix__cls-7" data-name="Fill 725" transform="translate(25.874 11.183)"/>
        <path id="prefix__Fill_727" d="M3.329 5.447l-.536-.217A4.569 4.569 0 0 1 .181 2.806a2.031 2.031 0 0 1-.031-1.6C.641.162 2.227.033 2.54.018L2.878 0l-.047.335a10.894 10.894 0 0 0 .334 4.556l.163.554zM2.233.613C1.757.683.919.885.655 1.445A1.514 1.514 0 0 0 .7 2.6a3.849 3.849 0 0 0 1.77 1.856A11.493 11.493 0 0 1 2.233.613z" class="prefix__cls-8" data-name="Fill 727" transform="translate(25.594 10.885)"/>
        <path id="prefix__Fill_729" d="M0 4.872a14.037 14.037 0 0 0 3.31-1.937A14.008 14.008 0 0 0 6.094 0L0 4.872" class="prefix__cls-3" data-name="Fill 729" transform="translate(28.986 5.7)"/>
        <path id="prefix__Fill_731" d="M.866.6A33.04 33.04 0 0 1 17.61 1.7a5.7 5.7 0 0 1 .415 3.609c-.383 1.574-1.426 2.225-1.8 4.14a6.662 6.662 0 0 0-.045 2.217L1.909 11.2A10.1 10.1 0 0 0 2 9.781a7.934 7.934 0 0 0-.134-1.53c-.24-1.121-.75-1.238-1.3-2.439A5.709 5.709 0 0 1 0 3.263 5.164 5.164 0 0 1 .866.6" class="prefix__cls-7" data-name="Fill 731" transform="translate(23.83 31.16)"/>
        <path id="prefix__Fill_733" d="M16.79 12.236L1.87 11.75l.041-.308A10.071 10.071 0 0 0 2 10.063v-.008a7.761 7.761 0 0 0-.13-1.465 2.8 2.8 0 0 0-.583-1.22 6.133 6.133 0 0 1-.695-1.163A5.956 5.956 0 0 1 0 3.534 5.489 5.489 0 0 1 .912.731L.976.63l.117-.022A33.434 33.434 0 0 1 7.434 0c.723 0 1.456.024 2.177.071a33.379 33.379 0 0 1 8.368 1.643l.121.041.049.117a6.085 6.085 0 0 1 .428 3.783 6.517 6.517 0 0 1-.847 1.871 6.478 6.478 0 0 0-.945 2.255 6.31 6.31 0 0 0-.042 2.124l.047.329zM7.435.56a32.893 32.893 0 0 0-6.117.575 4.917 4.917 0 0 0-.756 2.416 5.456 5.456 0 0 0 .538 2.42v.005a5.6 5.6 0 0 0 .637 1.065 3.375 3.375 0 0 1 .679 1.432 8.039 8.039 0 0 1 .139 1.579A10.391 10.391 0 0 1 2.5 11.21l13.646.445a6.933 6.933 0 0 1 .086-1.98 6.94 6.94 0 0 1 1.018-2.436l.006-.01a5.99 5.99 0 0 0 .778-1.707A5.47 5.47 0 0 0 17.68 2.2 32.793 32.793 0 0 0 9.574.63C8.866.584 8.146.56 7.435.56z" class="prefix__cls-8" data-name="Fill 733" transform="translate(23.55 30.88)"/>
        <path id="prefix__Fill_735" d="M2.863 0l20.662.4a18.882 18.882 0 0 1 4.014 11.927 56.744 56.744 0 0 1-14.366 2A56.693 56.693 0 0 1 .4 12.991 23.926 23.926 0 0 1 .27 5.21a10.449 10.449 0 0 1 .886-2.794A9.709 9.709 0 0 1 2.863 0" class="prefix__cls-7" data-name="Fill 735" transform="translate(19.638 49.631)"/>
        <path id="prefix__Fill_737" d="M12.9 14.887a57.091 57.091 0 0 1-12.28-1.34l-.184-.04-.031-.185a24.128 24.128 0 0 1-.132-7.88 11.043 11.043 0 0 1 .911-2.867A9.935 9.935 0 0 1 2.94.088L3.025 0l20.917.4.081.1a19.165 19.165 0 0 1 4.073 12.1v.212l-.2.055a57.149 57.149 0 0 1-14.437 2.005zM3.259.564a9.38 9.38 0 0 0-1.574 2.26 10.452 10.452 0 0 0-.862 2.719 23.541 23.541 0 0 0 .1 7.5 56.923 56.923 0 0 0 12.053 1.285h.469a56.566 56.566 0 0 0 14.091-1.931A18.606 18.606 0 0 0 23.664.959L3.259.564z" class="prefix__cls-8" data-name="Fill 737" transform="translate(19.36 49.349)"/>
        <path id="prefix__Fill_739" d="M20.411 21.351c-2.362 0-4.569-4.06-5.771-6.274a26.694 26.694 0 0 1-2.185-5.447c-.586-1.928-.971-3.2-2.507-4.162a19.474 19.474 0 0 0-4.58-1.962c-.475-.126-.943-.281-1.41-.437s-.916-.3-1.382-.428L2.3 2.568C1.219 2.286.287 2.042.052 1.291A.928.928 0 0 1 .087.583c.346-.69 1.586-.6 2.182-.552a22.523 22.523 0 0 1 3.007.4 8.121 8.121 0 0 0 1.566.2A13.8 13.8 0 0 0 8.967.459C10.059.307 11 .178 11.732.755a5.343 5.343 0 0 1 .515.478 6.1 6.1 0 0 1 1.1 1.778c.073.165.127.3.158.382l-.522.2c-.03-.076-.08-.2-.15-.358a5.6 5.6 0 0 0-1-1.623 4.632 4.632 0 0 0-.45-.42c-.544-.428-1.3-.326-2.342-.181a12.544 12.544 0 0 1-2.212.174A8.657 8.657 0 0 1 5.168.981 22.063 22.063 0 0 0 2.227.588C1.259.517.7.6.587.834a.388.388 0 0 0 0 .29c.142.454.935.662 1.853.9l.28.074c.477.126.946.282 1.414.437s.914.3 1.378.428a19.587 19.587 0 0 1 4.733 2.028c1.714 1.072 2.147 2.5 2.746 4.474a26.244 26.244 0 0 0 2.139 5.34c1.01 1.858 3.349 6.178 5.443 5.974 1.657-.184 3.188-3.348 3.81-7.874l.554.077c-.531 3.866-1.941 8.091-4.3 8.354a1.911 1.911 0 0 1-.224.013" class="prefix__cls-8" data-name="Fill 739" transform="translate(0 24.809)"/>
        <path id="prefix__Fill_741" d="M4.528 21.351a1.9 1.9 0 0 1-.224-.013C1.941 21.076.531 16.851 0 12.984l.554-.077c.622 4.526 2.154 7.69 3.811 7.874a1.493 1.493 0 0 0 .159.009c2.031 0 4.3-4.173 5.282-5.981a26.273 26.273 0 0 0 2.14-5.342c.6-1.975 1.032-3.4 2.746-4.474a19.587 19.587 0 0 1 4.733-2.028c.465-.125.921-.276 1.378-.428s.938-.31 1.414-.437l.28-.074c.918-.24 1.711-.448 1.853-.9a.382.382 0 0 0 0-.29C24.234.6 23.684.519 22.711.588a22.063 22.063 0 0 0-2.941.393 8.657 8.657 0 0 1-1.663.206 12.589 12.589 0 0 1-2.207-.174c-1.044-.145-1.8-.247-2.342.181a4.8 4.8 0 0 0-.451.42 5.607 5.607 0 0 0-1 1.623c-.07.156-.12.282-.15.358l-.522-.2c.031-.081.086-.217.158-.382a6.1 6.1 0 0 1 1.1-1.778 5.343 5.343 0 0 1 .515-.478c.73-.577 1.672-.448 2.766-.3A13.7 13.7 0 0 0 18.1.628a8.121 8.121 0 0 0 1.566-.2 22.523 22.523 0 0 1 3.007-.4c.594-.045 1.836-.138 2.182.552a.924.924 0 0 1 .035.7c-.235.754-1.167 1-2.246 1.281l-.278.073c-.466.125-.924.277-1.382.428s-.935.31-1.41.437a19.474 19.474 0 0 0-4.58 1.962c-1.536.961-1.922 2.234-2.507 4.162a26.7 26.7 0 0 1-2.187 5.452c-1.2 2.215-3.411 6.276-5.772 6.276" class="prefix__cls-8" data-name="Fill 741" transform="translate(41.144 24.808)"/>
        <path id="prefix__Fill_743" d="M.89 3.981c1.025-.3 1.8-.551 2.316-.718.152-.05.582-.191 1.138-.391.476-.17.714-.255.939-.357a5.307 5.307 0 0 0 1.248-.74A3.681 3.681 0 0 0 7.652 0a6 6 0 0 0 1.639.532 5.781 5.781 0 0 0 .832.078 5.53 5.53 0 0 0 1-.077 5.65 5.65 0 0 0 .746-.176 4.894 4.894 0 0 0 .482 1.52 3.149 3.149 0 0 0 .586.853 2.8 2.8 0 0 0 .619.484c.114.064.3.158.45.231l.3.147c.636.274 1.126.474 1.464.609.151.061.374.149.678.28.436.189.761.347.82.376a5.055 5.055 0 0 1 2.2 1.806 3.79 3.79 0 0 1 .539 1.937l.09.754-10.054.586L0 5.332z" class="prefix__cls-7" data-name="Fill 743" transform="translate(24.307 20.384)"/>
        <path id="prefix__Fill_745" d="M2.513 10.566a.276.276 0 0 1-.259-.175 3.3 3.3 0 0 1-.142-2.5 3.047 3.047 0 0 1 1.711-1.542 3.637 3.637 0 0 0 1.593-1.237 3.3 3.3 0 0 0-.235-3.9C4.19.276 2.061.28.471 1.77a.28.28 0 1 1-.382-.41C1.967-.4 4.394-.3 5.565.8a3.845 3.845 0 0 1 .323 4.611 4.13 4.13 0 0 1-1.814 1.438A2.549 2.549 0 0 0 2.63 8.1a2.775 2.775 0 0 0 .142 2.085.28.28 0 0 1-.154.364.283.283 0 0 1-.1.02" class="prefix__cls-8" data-name="Fill 745" transform="translate(46.624 3.259)"/>
        <path id="prefix__Fill_747" d="M1.535.767A.768.768 0 1 1 .767 0a.768.768 0 0 1 .768.767" class="prefix__cls-7" data-name="Fill 747" transform="translate(48.927 14.487)"/>
        <path id="prefix__Fill_749" d="M1.048 2.093A1.047 1.047 0 1 1 2.1 1.047a1.048 1.048 0 0 1-1.052 1.046zm0-1.535a.488.488 0 1 0 .488.488.488.488 0 0 0-.488-.487z" class="prefix__cls-8" data-name="Fill 749" transform="translate(48.647 14.208)"/>
        <path id="prefix__Fill_751" d="M2.772 11.729a.277.277 0 0 1-.259-.175 3.647 3.647 0 0 1-.158-2.77 3.375 3.375 0 0 1 1.9-1.7 4.083 4.083 0 0 0 1.787-1.393 3.726 3.726 0 0 0-.268-4.4C4.659.243 2.261.242.471 1.918a.28.28 0 1 1-.382-.409C2.174-.444 4.862-.333 6.158.886a4.26 4.26 0 0 1 .356 5.106A4.592 4.592 0 0 1 4.5 7.583a2.864 2.864 0 0 0-1.629 1.41 3.124 3.124 0 0 0 .158 2.351.279.279 0 0 1-.154.364.283.283 0 0 1-.1.02" class="prefix__cls-8" data-name="Fill 751" transform="translate(52.575 .095)"/>
        <path id="prefix__Fill_753" d="M1.714.857A.857.857 0 1 1 .858 0a.856.856 0 0 1 .856.857" class="prefix__cls-7" data-name="Fill 753" transform="translate(55.113 12.596)"/>
        <path id="prefix__Fill_755" d="M1.137 2.273a1.137 1.137 0 1 1 1.136-1.136 1.138 1.138 0 0 1-1.136 1.136zm0-1.715a.577.577 0 1 0 .577.578.578.578 0 0 0-.577-.577z" class="prefix__cls-8" data-name="Fill 755" transform="translate(54.833 12.316)"/>
        <path id="prefix__Fill_757" d="M16.336 8.027c.224 1.008.828 3.72-.763 5.912-2.187 3.013-6.663 2.478-7.262 2.4C4.99 15.89.087 13.279 0 8.311A8.168 8.168 0 0 1 8.026 0c5.117-.09 7.676 5.177 8.31 8.026" data-name="Fill 757" transform="translate(41.212 5.238)" style="fill:rgba(218,206,253,.5);mix-blend-mode:multiply;isolation:isolate"/>
    </g>
</svg>
