<svg xmlns="http://www.w3.org/2000/svg" width="57.067" height="62.49" viewBox="0 0 57.067 62.49">
    <defs>
        <clipPath id="prefix__clip-path">
            <path id="prefix__Clip_296" d="M.011 0H.68v.838H.011z" class="prefix__cls-1" data-name="Clip 296" transform="translate(.68 .139)"/>
        </clipPath>
        <clipPath id="prefix__clip-path-2">
            <path id="prefix__Clip_489" d="M.01 0h.671v.836H.01z" class="prefix__cls-1" data-name="Clip 489" transform="translate(.681 .685)"/>
        </clipPath>
        <clipPath id="prefix__clip-path-3">
            <path id="prefix__Clip_492" d="M.016 0h.659v1.618H.016z" class="prefix__cls-1" data-name="Clip 492" transform="translate(.675 .022)"/>
        </clipPath>
        <clipPath id="prefix__clip-path-4">
            <path id="prefix__Clip_748" d="M0 0h17.812v11.976H0z" class="prefix__cls-1" data-name="Clip 748" transform="translate(.521 .362)"/>
        </clipPath>
        <clipPath id="prefix__clip-path-5">
            <path id="prefix__Clip_777" d="M0 0h2.61v8.39H0z" class="prefix__cls-1" data-name="Clip 777" transform="translate(.585 .501)"/>
        </clipPath>
        <clipPath id="prefix__clip-path-6">
            <path id="prefix__Clip_780" d="M0 0h14.364v14.179H0z" class="prefix__cls-1" data-name="Clip 780" transform="translate(.643 .325)"/>
        </clipPath>
        <style>
            .prefix__cls-1{fill:none}.prefix__cls-3{fill:#c5eb8c}.prefix__cls-7{fill:#fff}.prefix__cls-8{fill:#2d2d2d}
        </style>
    </defs>
    <g id="prefix__ic_sexual_problems_big" transform="translate(-.691 -.691)">
        <g id="prefix__Group_682" data-name="Group 682" transform="translate(0 5.854)" style="opacity:.5">
            <path id="prefix__Fill_1" d="M.877 1.755A.877.877 0 0 1 .88 0a.878.878 0 0 0 0 1.755" class="prefix__cls-3" data-name="Fill 1" transform="translate(27.635 .583)"/>
            <path id="prefix__Fill_3" d="M.877 1.755A.878.878 0 1 0 0 .877a.878.878 0 0 0 .877.878" class="prefix__cls-3" data-name="Fill 3" transform="translate(31.144 .583)"/>
            <path id="prefix__Fill_5" d="M.877 1.282a.874.874 0 0 0 .87-.841C1.209.276.662.132.112 0A.847.847 0 0 0 0 .4a.878.878 0 0 0 .877.878" class="prefix__cls-3" data-name="Fill 5" transform="translate(34.654 1.057)"/>
            <path id="prefix__Fill_7" d="M.877 1.755A.878.878 0 1 0 0 .877a.877.877 0 0 0 .877.878" class="prefix__cls-3" data-name="Fill 7" transform="translate(29.39 3.215)"/>
            <path id="prefix__Fill_9" d="M.877 1.755A.878.878 0 1 0 0 .877a.877.877 0 0 0 .877.878" class="prefix__cls-3" data-name="Fill 9" transform="translate(32.899 3.215)"/>
            <path id="prefix__Fill_11" d="M.877 1.755A.878.878 0 1 0 0 .877a.877.877 0 0 0 .877.878" class="prefix__cls-3" data-name="Fill 11" transform="translate(36.408 3.215)"/>
            <path id="prefix__Fill_13" d="M0 .86a.878.878 0 1 0 1.755 0A.855.855 0 0 0 1.63.436C1.354.285 1.072.142.79 0A.869.869 0 0 0 0 .86" class="prefix__cls-3" data-name="Fill 13" transform="translate(39.918 3.233)"/>
            <path id="prefix__Fill_15" d="M0 .877A.878.878 0 0 1 .88 0a.878.878 0 0 0 0 1.755A.878.878 0 0 1 0 .877" class="prefix__cls-3" data-name="Fill 15" transform="translate(27.635 5.847)"/>
            <path id="prefix__Fill_17" d="M.877 0a.877.877 0 1 0 .878.877A.877.877 0 0 0 .877 0" class="prefix__cls-3" data-name="Fill 17" transform="translate(31.144 5.848)"/>
            <path id="prefix__Fill_19" d="M.877 1.754A.877.877 0 1 0 0 .876a.877.877 0 0 0 .877.878" class="prefix__cls-3" data-name="Fill 19" transform="translate(34.654 5.848)"/>
            <path id="prefix__Fill_21" d="M.877 1.754A.877.877 0 1 0 0 .876a.877.877 0 0 0 .877.878" class="prefix__cls-3" data-name="Fill 21" transform="translate(38.163 5.848)"/>
            <path id="prefix__Fill_23" d="M.877 1.754A.877.877 0 1 0 0 .876a.877.877 0 0 0 .877.878" class="prefix__cls-3" data-name="Fill 23" transform="translate(41.672 5.848)"/>
            <path id="prefix__Fill_25" d="M.878 1.4a.869.869 0 0 0 .641-.287C1.089.725.644.357.19 0A.855.855 0 0 0 0 .519a.877.877 0 0 0 .878.881" class="prefix__cls-3" data-name="Fill 25" transform="translate(45.181 6.205)"/>
            <path id="prefix__Fill_27" d="M.877 0a.877.877 0 1 0 .878.878A.877.877 0 0 0 .877 0" class="prefix__cls-3" data-name="Fill 27" transform="translate(29.39 8.48)"/>
            <path id="prefix__Fill_29" d="M.877 0a.877.877 0 1 0 .878.878A.877.877 0 0 0 .877 0" class="prefix__cls-3" data-name="Fill 29" transform="translate(32.899 8.48)"/>
            <path id="prefix__Fill_31" d="M.877 0a.877.877 0 1 0 .878.878A.877.877 0 0 0 .877 0" class="prefix__cls-3" data-name="Fill 31" transform="translate(36.408 8.48)"/>
            <path id="prefix__Fill_33" d="M.877 1.754A.877.877 0 1 0 0 .877a.877.877 0 0 0 .877.877" class="prefix__cls-3" data-name="Fill 33" transform="translate(39.918 8.48)"/>
            <path id="prefix__Fill_35" d="M.877 1.754A.877.877 0 1 0 0 .877a.877.877 0 0 0 .877.877" class="prefix__cls-3" data-name="Fill 35" transform="translate(43.427 8.48)"/>
            <path id="prefix__Fill_37" d="M0 .878a.877.877 0 1 0 1.754 0 .906.906 0 0 0-.019-.1Q1.383.4 1.017.028A.861.861 0 0 0 .877 0 .877.877 0 0 0 0 .878" class="prefix__cls-3" data-name="Fill 37" transform="translate(46.936 8.479)"/>
            <path id="prefix__Fill_39" d="M0 .878A.878.878 0 0 1 .88 0a.878.878 0 0 0 0 1.755A.878.878 0 0 1 0 .878" class="prefix__cls-3" data-name="Fill 39" transform="translate(27.635 11.111)"/>
            <path id="prefix__Fill_41" d="M.877 1.754A.877.877 0 1 0 0 .877a.877.877 0 0 0 .877.877" class="prefix__cls-3" data-name="Fill 41" transform="translate(31.144 11.112)"/>
            <path id="prefix__Fill_43" d="M.877 0a.877.877 0 1 0 .878.878A.878.878 0 0 0 .877 0" class="prefix__cls-3" data-name="Fill 43" transform="translate(34.654 11.111)"/>
            <path id="prefix__Fill_45" d="M.877 0a.877.877 0 1 0 .878.878A.877.877 0 0 0 .877 0" class="prefix__cls-3" data-name="Fill 45" transform="translate(38.163 11.111)"/>
            <path id="prefix__Fill_47" d="M.877 0a.877.877 0 1 0 .878.878A.877.877 0 0 0 .877 0" class="prefix__cls-3" data-name="Fill 47" transform="translate(41.672 11.111)"/>
            <path id="prefix__Fill_49" d="M.878 1.754A.877.877 0 1 0 0 .877a.877.877 0 0 0 .878.877" class="prefix__cls-3" data-name="Fill 49" transform="translate(45.181 11.112)"/>
            <path id="prefix__Fill_51" d="M.878 1.754A.877.877 0 1 0 0 .877a.877.877 0 0 0 .878.877" class="prefix__cls-3" data-name="Fill 51" transform="translate(48.69 11.112)"/>
            <path id="prefix__Fill_53" d="M.877 0a.878.878 0 1 0 .878.878A.878.878 0 0 0 .877 0" class="prefix__cls-3" data-name="Fill 53" transform="translate(29.39 13.743)"/>
            <path id="prefix__Fill_55" d="M.877 0a.878.878 0 1 0 .878.878A.877.877 0 0 0 .877 0" class="prefix__cls-3" data-name="Fill 55" transform="translate(32.899 13.743)"/>
            <path id="prefix__Fill_57" d="M.877 1.755A.878.878 0 1 0 0 .877a.878.878 0 0 0 .877.878" class="prefix__cls-3" data-name="Fill 57" transform="translate(36.408 13.743)"/>
            <path id="prefix__Fill_59" d="M.877 0a.878.878 0 1 0 .878.878A.877.877 0 0 0 .877 0" class="prefix__cls-3" data-name="Fill 59" transform="translate(39.918 13.743)"/>
            <path id="prefix__Fill_61" d="M.877 0a.878.878 0 1 0 .877.878A.877.877 0 0 0 .877 0" class="prefix__cls-3" data-name="Fill 61" transform="translate(43.427 13.743)"/>
            <path id="prefix__Fill_63" d="M.877 1.755A.878.878 0 1 0 0 .877a.877.877 0 0 0 .877.878" class="prefix__cls-3" data-name="Fill 63" transform="translate(46.936 13.743)"/>
            <path id="prefix__Fill_65" d="M.878 1.755A.878.878 0 1 0 0 .877a.877.877 0 0 0 .878.878" class="prefix__cls-3" data-name="Fill 65" transform="translate(50.445 13.743)"/>
            <path id="prefix__Fill_67" d="M0 .877A.878.878 0 0 1 .88 0a.878.878 0 0 0 0 1.755A.878.878 0 0 1 0 .877" class="prefix__cls-3" data-name="Fill 67" transform="translate(27.635 16.375)"/>
            <path id="prefix__Fill_69" d="M.877 0a.877.877 0 1 0 .878.877A.877.877 0 0 0 .877 0" class="prefix__cls-3" data-name="Fill 69" transform="translate(31.144 16.376)"/>
            <path id="prefix__Fill_71" d="M.877 0a.877.877 0 1 0 .878.877A.877.877 0 0 0 .877 0" class="prefix__cls-3" data-name="Fill 71" transform="translate(34.654 16.376)"/>
            <path id="prefix__Fill_73" d="M.877 0a.877.877 0 1 0 .878.877A.877.877 0 0 0 .877 0" class="prefix__cls-3" data-name="Fill 73" transform="translate(38.163 16.376)"/>
            <path id="prefix__Fill_75" d="M.877 1.754A.877.877 0 1 0 0 .876a.877.877 0 0 0 .877.878" class="prefix__cls-3" data-name="Fill 75" transform="translate(41.672 16.376)"/>
            <path id="prefix__Fill_77" d="M.878 0a.877.877 0 1 0 .878.877A.877.877 0 0 0 .878 0" class="prefix__cls-3" data-name="Fill 77" transform="translate(45.181 16.376)"/>
            <path id="prefix__Fill_79" d="M.878 0a.877.877 0 1 0 .877.877A.877.877 0 0 0 .878 0" class="prefix__cls-3" data-name="Fill 79" transform="translate(48.69 16.376)"/>
            <path id="prefix__Fill_81" d="M0 .877a.872.872 0 0 0 1.7.287Q1.473.613 1.226.074A.874.874 0 0 0 0 .877" class="prefix__cls-3" data-name="Fill 81" transform="translate(52.2 16.375)"/>
            <path id="prefix__Fill_83" d="M.877 0a.877.877 0 1 0 .878.877A.877.877 0 0 0 .877 0" class="prefix__cls-3" data-name="Fill 83" transform="translate(29.39 19.008)"/>
            <path id="prefix__Fill_85" d="M.877 1.754A.877.877 0 1 0 0 .876a.877.877 0 0 0 .877.878" class="prefix__cls-3" data-name="Fill 85" transform="translate(32.899 19.008)"/>
            <path id="prefix__Fill_87" d="M.877 0a.877.877 0 1 0 .878.877A.877.877 0 0 0 .877 0" class="prefix__cls-3" data-name="Fill 87" transform="translate(36.408 19.008)"/>
            <path id="prefix__Fill_89" d="M.877 0a.877.877 0 1 0 .878.877A.877.877 0 0 0 .877 0" class="prefix__cls-3" data-name="Fill 89" transform="translate(39.918 19.008)"/>
            <path id="prefix__Fill_91" d="M.877 0a.877.877 0 1 0 .877.877A.877.877 0 0 0 .877 0" class="prefix__cls-3" data-name="Fill 91" transform="translate(43.427 19.008)"/>
            <path id="prefix__Fill_93" d="M.877 0a.877.877 0 1 0 .877.877A.877.877 0 0 0 .877 0" class="prefix__cls-3" data-name="Fill 93" transform="translate(46.936 19.008)"/>
            <path id="prefix__Fill_95" d="M.878 0a.877.877 0 1 0 .877.877A.877.877 0 0 0 .878 0" class="prefix__cls-3" data-name="Fill 95" transform="translate(50.445 19.008)"/>
            <path id="prefix__Fill_97" d="M0 .794a.878.878 0 0 0 .878.878.776.776 0 0 0 .137-.028C.865 1.088.7.541.515 0A.873.873 0 0 0 0 .794" class="prefix__cls-3" data-name="Fill 97" transform="translate(53.955 19.091)"/>
            <path id="prefix__Fill_99" d="M.877 1.755A.877.877 0 0 1 .88 0a.878.878 0 0 0 0 1.755" class="prefix__cls-3" data-name="Fill 99" transform="translate(27.635 21.64)"/>
            <path id="prefix__Fill_101" d="M.877 0a.878.878 0 1 0 .878.878A.877.877 0 0 0 .877 0" class="prefix__cls-3" data-name="Fill 101" transform="translate(31.144 21.64)"/>
            <path id="prefix__Fill_103" d="M.877 0a.878.878 0 1 0 .878.878A.877.877 0 0 0 .877 0" class="prefix__cls-3" data-name="Fill 103" transform="translate(34.654 21.64)"/>
            <path id="prefix__Fill_105" d="M.877 1.755A.878.878 0 1 0 0 .877a.878.878 0 0 0 .877.878" class="prefix__cls-3" data-name="Fill 105" transform="translate(38.163 21.64)"/>
            <path id="prefix__Fill_107" d="M.877 0a.878.878 0 1 0 .878.878A.877.877 0 0 0 .877 0" class="prefix__cls-3" data-name="Fill 107" transform="translate(41.672 21.64)"/>
            <path id="prefix__Fill_109" d="M.878 0a.878.878 0 1 0 .878.878A.877.877 0 0 0 .878 0" class="prefix__cls-3" data-name="Fill 109" transform="translate(45.181 21.64)"/>
            <path id="prefix__Fill_111" d="M.878 1.755A.878.878 0 1 0 0 .877a.877.877 0 0 0 .878.878" class="prefix__cls-3" data-name="Fill 111" transform="translate(48.69 21.64)"/>
            <path id="prefix__Fill_113" d="M.878 1.755A.878.878 0 1 0 0 .877a.877.877 0 0 0 .878.878" class="prefix__cls-3" data-name="Fill 113" transform="translate(52.2 21.64)"/>
            <path id="prefix__Fill_115" d="M.877 0a.878.878 0 1 0 .878.878A.877.877 0 0 0 .877 0" class="prefix__cls-3" data-name="Fill 115" transform="translate(29.39 24.271)"/>
            <path id="prefix__Fill_117" d="M.877 0a.878.878 0 1 0 .878.878A.877.877 0 0 0 .877 0" class="prefix__cls-3" data-name="Fill 117" transform="translate(32.899 24.271)"/>
            <path id="prefix__Fill_119" d="M.877 0a.878.878 0 1 0 .878.878A.877.877 0 0 0 .877 0" class="prefix__cls-3" data-name="Fill 119" transform="translate(36.408 24.271)"/>
            <path id="prefix__Fill_121" d="M.877 1.755A.878.878 0 1 0 0 .877a.878.878 0 0 0 .877.878" class="prefix__cls-3" data-name="Fill 121" transform="translate(39.918 24.271)"/>
            <path id="prefix__Fill_123" d="M.877 1.755A.878.878 0 1 0 0 .877a.877.877 0 0 0 .877.878" class="prefix__cls-3" data-name="Fill 123" transform="translate(43.427 24.271)"/>
            <path id="prefix__Fill_125" d="M.877 0a.878.878 0 1 0 .877.878A.877.877 0 0 0 .877 0" class="prefix__cls-3" data-name="Fill 125" transform="translate(46.936 24.271)"/>
            <path id="prefix__Fill_127" d="M.878 0a.878.878 0 1 0 .877.878A.877.877 0 0 0 .878 0" class="prefix__cls-3" data-name="Fill 127" transform="translate(50.445 24.271)"/>
            <path id="prefix__Fill_129" d="M.878 1.755A.878.878 0 1 0 0 .877a.877.877 0 0 0 .878.878" class="prefix__cls-3" data-name="Fill 129" transform="translate(53.954 24.271)"/>
            <path id="prefix__Fill_131" d="M0 .015V0v.015a.878.878 0 0 0 .877.877A.878.878 0 0 1 0 .015" class="prefix__cls-3" data-name="Fill 131" transform="translate(27.635 27.766)"/>
            <path id="prefix__Fill_133" d="M.877.892a.877.877 0 0 0 .878-.878V0a.876.876 0 0 1-.878.864A.876.876 0 0 1 0 0v.014a.877.877 0 0 0 .877.878" class="prefix__cls-3" data-name="Fill 133" transform="translate(31.144 27.767)"/>
            <path id="prefix__Fill_135" d="M.877.864A.876.876 0 0 1 0 0v.015a.877.877 0 0 0 .877.877.877.877 0 0 0 .878-.877.145.145 0 0 0 0-.015.876.876 0 0 1-.878.864" class="prefix__cls-3" data-name="Fill 135" transform="translate(34.654 27.767)"/>
            <path id="prefix__Fill_137" d="M.877.864A.876.876 0 0 1 0 0v.015a.877.877 0 0 0 .877.877.877.877 0 0 0 .878-.877.145.145 0 0 0 0-.015.876.876 0 0 1-.878.864" class="prefix__cls-3" data-name="Fill 137" transform="translate(38.163 27.767)"/>
            <path id="prefix__Fill_139" d="M1.752 0a.876.876 0 0 1-.875.864A.876.876 0 0 1 0 0v.015a.877.877 0 1 0 1.754 0V0" class="prefix__cls-3" data-name="Fill 139" transform="translate(41.672 27.767)"/>
            <path id="prefix__Fill_141" d="M.878.892a.877.877 0 0 0 .878-.878V0a.876.876 0 0 1-.878.864A.876.876 0 0 1 0 0v.014a.877.877 0 0 0 .878.878" class="prefix__cls-3" data-name="Fill 141" transform="translate(45.181 27.767)"/>
            <path id="prefix__Fill_143" d="M1.752 0a.876.876 0 0 1-.874.864A.876.876 0 0 1 0 0v.015a.877.877 0 0 0 .878.877.877.877 0 0 0 .877-.877V0" class="prefix__cls-3" data-name="Fill 143" transform="translate(48.69 27.767)"/>
            <path id="prefix__Fill_145" d="M.878.864A.876.876 0 0 1 0 0a.145.145 0 0 0 0 .015.877.877 0 0 0 .878.877.877.877 0 0 0 .877-.877V0a.876.876 0 0 1-.877.864" class="prefix__cls-3" data-name="Fill 145" transform="translate(52.2 27.767)"/>
            <path id="prefix__Fill_147" d="M.248.089a.862.862 0 0 0 .194.527V.589A.864.864 0 0 1 .251.075V.09" class="prefix__cls-3" data-name="Fill 147" transform="translate(55.461 27.692)"/>
            <path id="prefix__Fill_149" d="M.744.19C.494.284.247.383 0 .484A.881.881 0 0 0 .087.5.863.863 0 0 0 .744.19" class="prefix__cls-3" data-name="Fill 149" transform="translate(17.902 1.837)"/>
            <path id="prefix__Fill_151" d="M.878 1.367a.878.878 0 0 0 .877-.878A.85.85 0 0 0 1.586 0Q.793.178.018.4A.708.708 0 0 0 0 .489a.878.878 0 0 0 .878.878" class="prefix__cls-3" data-name="Fill 151" transform="translate(20.621 .972)"/>
            <path id="prefix__Fill_153" d="M.878 1.755A.878.878 0 1 0 0 .877a.878.878 0 0 0 .878.878" class="prefix__cls-3" data-name="Fill 153" transform="translate(24.13 .583)"/>
            <path id="prefix__Fill_155" d="M.875.878A.878.878 0 0 1 0 1.755.878.878 0 0 0 .88.878.878.878 0 0 0 0 0a.878.878 0 0 1 .875.878" class="prefix__cls-3" data-name="Fill 155" transform="translate(28.514 .583)"/>
            <path id="prefix__Fill_157" d="M0 .877A.875.875 0 1 0 .875 0 .878.878 0 0 0 0 .877" class="prefix__cls-3" data-name="Fill 157" transform="translate(27.64 .584)"/>
            <path id="prefix__Fill_159" d="M.527.229C.406.306.284.382.163.462A.865.865 0 0 0 .527.229" class="prefix__cls-3" data-name="Fill 159" transform="translate(12.84 4.452)"/>
            <path id="prefix__Fill_161" d="M.878 1.755A.878.878 0 1 0 0 .877a.877.877 0 0 0 .878.878" class="prefix__cls-3" data-name="Fill 161" transform="translate(15.357 3.215)"/>
            <path id="prefix__Fill_163" d="M.878 1.755A.878.878 0 1 0 0 .877a.877.877 0 0 0 .878.878" class="prefix__cls-3" data-name="Fill 163" transform="translate(18.866 3.215)"/>
            <path id="prefix__Fill_165" d="M.878 1.755A.878.878 0 1 0 0 .877a.877.877 0 0 0 .878.878" class="prefix__cls-3" data-name="Fill 165" transform="translate(22.376 3.215)"/>
            <path id="prefix__Fill_167" d="M.877 1.755A.878.878 0 1 0 0 .877a.877.877 0 0 0 .877.878" class="prefix__cls-3" data-name="Fill 167" transform="translate(25.885 3.215)"/>
            <path id="prefix__Fill_169" d="M.8 1.582A.877.877 0 0 0 1.675.7a.861.861 0 0 0-.381-.7Q.631.512 0 1.062a.876.876 0 0 0 .8.519" class="prefix__cls-3" data-name="Fill 169" transform="translate(10.173 6.02)"/>
            <path id="prefix__Fill_171" d="M.878 1.754A.877.877 0 1 0 0 .876a.877.877 0 0 0 .878.878" class="prefix__cls-3" data-name="Fill 171" transform="translate(13.602 5.848)"/>
            <path id="prefix__Fill_173" d="M.878 1.754A.877.877 0 1 0 0 .876a.877.877 0 0 0 .878.878" class="prefix__cls-3" data-name="Fill 173" transform="translate(17.111 5.848)"/>
            <path id="prefix__Fill_175" d="M.878 1.754A.877.877 0 1 0 0 .876a.877.877 0 0 0 .878.878" class="prefix__cls-3" data-name="Fill 175" transform="translate(20.621 5.848)"/>
            <path id="prefix__Fill_177" d="M.878 0a.877.877 0 1 0 .877.877A.877.877 0 0 0 .878 0" class="prefix__cls-3" data-name="Fill 177" transform="translate(24.13 5.848)"/>
            <path id="prefix__Fill_179" d="M0 0a.878.878 0 0 1 .875.877.877.877 0 0 1-.875.877A.877.877 0 1 0 0 0" class="prefix__cls-3" data-name="Fill 179" transform="translate(28.515 5.848)"/>
            <path id="prefix__Fill_181" d="M1.749.877a.875.875 0 1 0-.875.877.878.878 0 0 0 .875-.877" class="prefix__cls-3" data-name="Fill 181" transform="translate(27.64 5.847)"/>
            <path id="prefix__Fill_183" d="M.878 1.754A.877.877 0 1 0 0 .877a.877.877 0 0 0 .878.877" class="prefix__cls-3" data-name="Fill 183" transform="translate(8.338 8.48)"/>
            <path id="prefix__Fill_185" d="M.878 1.754A.877.877 0 1 0 0 .877a.877.877 0 0 0 .878.877" class="prefix__cls-3" data-name="Fill 185" transform="translate(11.847 8.48)"/>
            <path id="prefix__Fill_187" d="M.878 0a.877.877 0 1 0 .877.878A.877.877 0 0 0 .878 0" class="prefix__cls-3" data-name="Fill 187" transform="translate(15.357 8.48)"/>
            <path id="prefix__Fill_189" d="M.878 0a.877.877 0 1 0 .877.878A.877.877 0 0 0 .878 0" class="prefix__cls-3" data-name="Fill 189" transform="translate(18.866 8.48)"/>
            <path id="prefix__Fill_191" d="M.878 0a.877.877 0 1 0 .877.878A.877.877 0 0 0 .878 0" class="prefix__cls-3" data-name="Fill 191" transform="translate(22.376 8.48)"/>
            <path id="prefix__Fill_193" d="M.877 0a.877.877 0 1 0 .878.878A.877.877 0 0 0 .877 0" class="prefix__cls-3" data-name="Fill 193" transform="translate(25.885 8.48)"/>
            <path id="prefix__Fill_195" d="M.878 1.754A.877.877 0 1 0 0 .877a.877.877 0 0 0 .878.877" class="prefix__cls-3" data-name="Fill 195" transform="translate(6.583 11.112)"/>
            <path id="prefix__Fill_197" d="M.878 1.754A.877.877 0 1 0 0 .877a.877.877 0 0 0 .878.877" class="prefix__cls-3" data-name="Fill 197" transform="translate(10.093 11.112)"/>
            <path id="prefix__Fill_199" d="M.878 0a.877.877 0 1 0 .877.878A.878.878 0 0 0 .878 0" class="prefix__cls-3" data-name="Fill 199" transform="translate(13.602 11.111)"/>
            <path id="prefix__Fill_201" d="M.878 0a.877.877 0 1 0 .877.878A.878.878 0 0 0 .878 0" class="prefix__cls-3" data-name="Fill 201" transform="translate(17.111 11.111)"/>
            <path id="prefix__Fill_203" d="M.878 0a.877.877 0 1 0 .877.878A.878.878 0 0 0 .878 0" class="prefix__cls-3" data-name="Fill 203" transform="translate(20.621 11.111)"/>
            <path id="prefix__Fill_205" d="M.878 1.754A.877.877 0 1 0 0 .877a.877.877 0 0 0 .878.877" class="prefix__cls-3" data-name="Fill 205" transform="translate(24.13 11.112)"/>
            <path id="prefix__Fill_207" d="M0 0a.877.877 0 0 1 .875.878.877.877 0 0 1-.875.876.877.877 0 0 0 .88-.876A.878.878 0 0 0 0 0" class="prefix__cls-3" data-name="Fill 207" transform="translate(28.515 11.111)"/>
            <path id="prefix__Fill_209" d="M1.749.877a.875.875 0 1 0-.875.877.878.878 0 0 0 .875-.877" class="prefix__cls-3" data-name="Fill 209" transform="translate(27.64 11.112)"/>
            <path id="prefix__Fill_211" d="M.877 1.755A.878.878 0 1 0 0 .877a.877.877 0 0 0 .877.878" class="prefix__cls-3" data-name="Fill 211" transform="translate(4.829 13.743)"/>
            <path id="prefix__Fill_213" d="M.878 0a.878.878 0 1 0 .877.878A.878.878 0 0 0 .878 0" class="prefix__cls-3" data-name="Fill 213" transform="translate(8.338 13.743)"/>
            <path id="prefix__Fill_215" d="M.878 0a.878.878 0 1 0 .877.878A.878.878 0 0 0 .878 0" class="prefix__cls-3" data-name="Fill 215" transform="translate(11.847 13.743)"/>
            <path id="prefix__Fill_217" d="M.878 1.755A.878.878 0 1 0 0 .877a.877.877 0 0 0 .878.878" class="prefix__cls-3" data-name="Fill 217" transform="translate(15.357 13.743)"/>
            <path id="prefix__Fill_219" d="M.878 1.755A.878.878 0 1 0 0 .877a.878.878 0 0 0 .878.878" class="prefix__cls-3" data-name="Fill 219" transform="translate(18.866 13.743)"/>
            <path id="prefix__Fill_221" d="M.878 1.755A.878.878 0 1 0 0 .877a.878.878 0 0 0 .878.878" class="prefix__cls-3" data-name="Fill 221" transform="translate(22.376 13.743)"/>
            <path id="prefix__Fill_223" d="M.877 0a.878.878 0 1 0 .878.878A.878.878 0 0 0 .877 0" class="prefix__cls-3" data-name="Fill 223" transform="translate(25.885 13.743)"/>
            <path id="prefix__Fill_225" d="M.878 1.754A.877.877 0 1 0 0 .876a.877.877 0 0 0 .878.878" class="prefix__cls-3" data-name="Fill 225" transform="translate(3.074 16.376)"/>
            <path id="prefix__Fill_227" d="M.878 0a.877.877 0 1 0 .877.877A.877.877 0 0 0 .878 0" class="prefix__cls-3" data-name="Fill 227" transform="translate(6.583 16.376)"/>
            <path id="prefix__Fill_229" d="M.878 0a.877.877 0 1 0 .877.877A.877.877 0 0 0 .878 0" class="prefix__cls-3" data-name="Fill 229" transform="translate(10.093 16.376)"/>
            <path id="prefix__Fill_231" d="M.878 1.754A.877.877 0 1 0 0 .876a.877.877 0 0 0 .878.878" class="prefix__cls-3" data-name="Fill 231" transform="translate(13.602 16.376)"/>
            <path id="prefix__Fill_233" d="M.878 0a.877.877 0 1 0 .877.877A.877.877 0 0 0 .878 0" class="prefix__cls-3" data-name="Fill 233" transform="translate(17.111 16.376)"/>
            <path id="prefix__Fill_235" d="M.878 0a.877.877 0 1 0 .877.877A.877.877 0 0 0 .878 0" class="prefix__cls-3" data-name="Fill 235" transform="translate(20.621 16.376)"/>
            <path id="prefix__Fill_237" d="M.878 0a.877.877 0 1 0 .877.877A.877.877 0 0 0 .878 0" class="prefix__cls-3" data-name="Fill 237" transform="translate(24.13 16.376)"/>
            <path id="prefix__Fill_239" d="M0 0a.877.877 0 0 1 .875.877.877.877 0 0 1-.875.877A.877.877 0 1 0 0 0" class="prefix__cls-3" data-name="Fill 239" transform="translate(28.515 16.376)"/>
            <path id="prefix__Fill_241" d="M1.749.877a.875.875 0 1 0-.875.877.878.878 0 0 0 .875-.877" class="prefix__cls-3" data-name="Fill 241" transform="translate(27.64 16.375)"/>
            <path id="prefix__Fill_243" d="M1.394.877A.877.877 0 0 0 .517 0C.5 0 .493.007.48.008Q.218.777 0 1.568a.86.86 0 0 0 .517.187.877.877 0 0 0 .877-.878" class="prefix__cls-3" data-name="Fill 243" transform="translate(1.68 19.007)"/>
            <path id="prefix__Fill_245" d="M.877 0a.877.877 0 1 0 .877.877A.877.877 0 0 0 .877 0" class="prefix__cls-3" data-name="Fill 245" transform="translate(4.829 19.008)"/>
            <path id="prefix__Fill_247" d="M.878 1.754A.877.877 0 1 0 0 .876a.877.877 0 0 0 .878.878" class="prefix__cls-3" data-name="Fill 247" transform="translate(8.338 19.008)"/>
            <path id="prefix__Fill_249" d="M.878 1.754A.877.877 0 1 0 0 .876a.877.877 0 0 0 .878.878" class="prefix__cls-3" data-name="Fill 249" transform="translate(11.847 19.008)"/>
            <path id="prefix__Fill_251" d="M.878 0a.877.877 0 1 0 .877.877A.877.877 0 0 0 .878 0" class="prefix__cls-3" data-name="Fill 251" transform="translate(15.357 19.008)"/>
            <path id="prefix__Fill_253" d="M.878 0a.877.877 0 1 0 .877.877A.877.877 0 0 0 .878 0" class="prefix__cls-3" data-name="Fill 253" transform="translate(18.866 19.008)"/>
            <path id="prefix__Fill_255" d="M.878 0a.877.877 0 1 0 .877.877A.877.877 0 0 0 .878 0" class="prefix__cls-3" data-name="Fill 255" transform="translate(22.376 19.008)"/>
            <path id="prefix__Fill_257" d="M.877 1.754A.877.877 0 1 0 0 .876a.877.877 0 0 0 .877.878" class="prefix__cls-3" data-name="Fill 257" transform="translate(25.885 19.008)"/>
            <path id="prefix__Fill_259" d="M.391 0C.337.26.294.522.248.785a.864.864 0 0 0 .2-.529A.85.85 0 0 0 .391 0" class="prefix__cls-3" data-name="Fill 259" transform="translate(.877 22.261)"/>
            <path id="prefix__Fill_261" d="M.878 1.755A.878.878 0 1 0 0 .877a.878.878 0 0 0 .878.878" class="prefix__cls-3" data-name="Fill 261" transform="translate(3.074 21.64)"/>
            <path id="prefix__Fill_263" d="M.878 1.755A.878.878 0 1 0 0 .877a.877.877 0 0 0 .878.878" class="prefix__cls-3" data-name="Fill 263" transform="translate(6.583 21.64)"/>
            <path id="prefix__Fill_265" d="M.878 0a.878.878 0 1 0 .877.878A.877.877 0 0 0 .878 0" class="prefix__cls-3" data-name="Fill 265" transform="translate(10.093 21.64)"/>
            <path id="prefix__Fill_267" d="M.878 0a.878.878 0 1 0 .877.878A.877.877 0 0 0 .878 0" class="prefix__cls-3" data-name="Fill 267" transform="translate(13.602 21.64)"/>
            <path id="prefix__Fill_269" d="M.878 1.755A.878.878 0 1 0 0 .877a.878.878 0 0 0 .878.878" class="prefix__cls-3" data-name="Fill 269" transform="translate(17.111 21.64)"/>
            <path id="prefix__Fill_271" d="M.878 1.755A.878.878 0 1 0 0 .877a.878.878 0 0 0 .878.878" class="prefix__cls-3" data-name="Fill 271" transform="translate(20.621 21.64)"/>
            <path id="prefix__Fill_273" d="M.878 1.755A.878.878 0 1 0 0 .877a.878.878 0 0 0 .878.878" class="prefix__cls-3" data-name="Fill 273" transform="translate(24.13 21.64)"/>
            <path id="prefix__Fill_275" d="M.875.878A.878.878 0 0 1 0 1.755.878.878 0 0 0 .88.878.878.878 0 0 0 0 0a.878.878 0 0 1 .875.878" class="prefix__cls-3" data-name="Fill 275" transform="translate(28.514 21.639)"/>
            <path id="prefix__Fill_277" d="M0 .877A.875.875 0 1 0 .875 0 .878.878 0 0 0 0 .877" class="prefix__cls-3" data-name="Fill 277" transform="translate(27.64 21.64)"/>
            <path id="prefix__Fill_279" d="M.877 1.755A.878.878 0 1 0 0 .877a.877.877 0 0 0 .877.878" class="prefix__cls-3" data-name="Fill 279" transform="translate(1.32 24.271)"/>
            <path id="prefix__Fill_281" d="M.877 1.755A.878.878 0 1 0 0 .877a.877.877 0 0 0 .877.878" class="prefix__cls-3" data-name="Fill 281" transform="translate(4.829 24.271)"/>
            <path id="prefix__Fill_283" d="M.878 0a.878.878 0 1 0 .877.878A.877.877 0 0 0 .878 0" class="prefix__cls-3" data-name="Fill 283" transform="translate(8.338 24.271)"/>
            <path id="prefix__Fill_285" d="M.878 0a.878.878 0 1 0 .877.878A.877.877 0 0 0 .878 0" class="prefix__cls-3" data-name="Fill 285" transform="translate(11.847 24.271)"/>
            <path id="prefix__Fill_287" d="M.878 1.755A.878.878 0 1 0 0 .877a.877.877 0 0 0 .878.878" class="prefix__cls-3" data-name="Fill 287" transform="translate(15.357 24.271)"/>
            <path id="prefix__Fill_289" d="M.878 1.755A.878.878 0 1 0 0 .877a.878.878 0 0 0 .878.878" class="prefix__cls-3" data-name="Fill 289" transform="translate(18.866 24.271)"/>
            <path id="prefix__Fill_291" d="M.878 0a.878.878 0 1 0 .877.878A.877.877 0 0 0 .878 0" class="prefix__cls-3" data-name="Fill 291" transform="translate(22.376 24.271)"/>
            <path id="prefix__Fill_293" d="M.877 0a.878.878 0 1 0 .878.878A.877.877 0 0 0 .877 0" class="prefix__cls-3" data-name="Fill 293" transform="translate(25.885 24.271)"/>
            <g id="prefix__Group_297" data-name="Group 297" transform="translate(0 27.627)">
                <path id="prefix__Clip_296-2" d="M.011 0H.68v.838H.011z" class="prefix__cls-1" data-name="Clip 296" transform="translate(.68 .139)"/>
                <g id="prefix__Group_297-2" data-name="Group 297">
                    <path id="prefix__Fill_295" d="M.652.015V0a.866.866 0 0 1-.61.81v.028a.867.867 0 0 0 .61-.823" class="prefix__cls-3" data-name="Fill 295" transform="translate(.668 .139)"/>
                </g>
            </g>
            <path id="prefix__Fill_298" d="M.878.892a.877.877 0 0 0 .878-.878V0a.876.876 0 0 1-.878.864A.876.876 0 0 1 0 0v.014a.877.877 0 0 0 .878.878" class="prefix__cls-3" data-name="Fill 298" transform="translate(3.074 27.767)"/>
            <path id="prefix__Fill_300" d="M1.752 0a.876.876 0 0 1-.874.864A.876.876 0 0 1 0 0v.015a.877.877 0 0 0 .878.877.877.877 0 0 0 .877-.877V0" class="prefix__cls-3" data-name="Fill 300" transform="translate(6.584 27.767)"/>
            <path id="prefix__Fill_302" d="M.878.864A.876.876 0 0 1 0 0a.145.145 0 0 0 0 .015.877.877 0 0 0 .878.877.877.877 0 0 0 .877-.877V0a.876.876 0 0 1-.877.864" class="prefix__cls-3" data-name="Fill 302" transform="translate(10.093 27.767)"/>
            <path id="prefix__Fill_304" d="M.878.864A.876.876 0 0 1 0 0a.145.145 0 0 0 0 .015.877.877 0 0 0 .878.877.877.877 0 0 0 .877-.877V0a.876.876 0 0 1-.877.864" class="prefix__cls-3" data-name="Fill 304" transform="translate(13.602 27.767)"/>
            <path id="prefix__Fill_306" d="M.878.892a.877.877 0 0 0 .877-.878V0a.876.876 0 0 1-.877.864A.876.876 0 0 1 0 0v.014a.877.877 0 0 0 .878.878" class="prefix__cls-3" data-name="Fill 306" transform="translate(17.111 27.767)"/>
            <path id="prefix__Fill_308" d="M1.752 0a.876.876 0 0 1-.874.864A.877.877 0 0 1 0 0v.015a.877.877 0 0 0 .878.877.877.877 0 0 0 .877-.877V0" class="prefix__cls-3" data-name="Fill 308" transform="translate(20.621 27.767)"/>
            <path id="prefix__Fill_310" d="M.878.864A.877.877 0 0 1 0 0v.015a.877.877 0 0 0 .878.877.877.877 0 0 0 .877-.877V0a.876.876 0 0 1-.877.864" class="prefix__cls-3" data-name="Fill 310" transform="translate(24.13 27.767)"/>
            <path id="prefix__Fill_312" d="M.875.015A.878.878 0 0 1 0 .892.878.878 0 0 0 .88.015V0v.013" class="prefix__cls-3" data-name="Fill 312" transform="translate(28.514 27.766)"/>
            <path id="prefix__Fill_314" d="M1.749 0a.875.875 0 0 1-.872.851H.872A.875.875 0 0 1 0 0a.877.877 0 0 0 .874.879A.878.878 0 0 0 1.749 0" class="prefix__cls-3" data-name="Fill 314" transform="translate(27.64 27.779)"/>
            <path id="prefix__Fill_316" d="M0 .878A.878.878 0 0 1 .88 0 .878.878 0 0 0 0 .878V.879" class="prefix__cls-3" data-name="Fill 316" transform="translate(27.635 26.875)"/>
            <path id="prefix__Fill_318" d="M.348.345V.333a.08.08 0 0 0 0 .012.073.073 0 0 0 0 .013V.345" class="prefix__cls-3" data-name="Fill 318" transform="translate(27.295 27.422)"/>
            <path id="prefix__Fill_320" d="M0 0v.013a.874.874 0 0 0 .872.851A.876.876 0 0 1 0 0" class="prefix__cls-3" data-name="Fill 320" transform="translate(27.641 27.767)"/>
            <path id="prefix__Fill_322" d="M.877.028a.876.876 0 0 1 .874.863.1.1 0 0 0 0-.014.878.878 0 0 0-1.751 0v.014A.876.876 0 0 1 .877.028" class="prefix__cls-3" data-name="Fill 322" transform="translate(31.144 26.876)"/>
            <path id="prefix__Fill_324" d="M.874 1.727a.876.876 0 0 0 .875-.864.874.874 0 0 0-1.749 0 .876.876 0 0 0 .874.864" class="prefix__cls-3" data-name="Fill 324" transform="translate(31.147 26.903)"/>
            <path id="prefix__Fill_326" d="M0 .891a.874.874 0 0 1 1.749 0 .1.1 0 0 0 0-.014.878.878 0 0 0-1.749 0v.014" class="prefix__cls-3" data-name="Fill 326" transform="translate(34.653 26.876)"/>
            <path id="prefix__Fill_328" d="M.874 0A.876.876 0 0 0 0 .863a.874.874 0 0 0 1.749 0A.876.876 0 0 0 .874 0" class="prefix__cls-3" data-name="Fill 328" transform="translate(34.656 26.903)"/>
            <path id="prefix__Fill_330" d="M.877 0A.877.877 0 0 0 0 .878v.013a.874.874 0 0 1 1.749 0 .125.125 0 0 0 0-.013A.878.878 0 0 0 .877 0" class="prefix__cls-3" data-name="Fill 330" transform="translate(38.163 26.876)"/>
            <path id="prefix__Fill_332" d="M.874 0A.876.876 0 0 0 0 .863a.874.874 0 0 0 1.749 0A.876.876 0 0 0 .874 0" class="prefix__cls-3" data-name="Fill 332" transform="translate(38.166 26.903)"/>
            <path id="prefix__Fill_334" d="M.877.028a.876.876 0 0 1 .874.863.1.1 0 0 0 0-.014.878.878 0 0 0-1.751 0v.014A.876.876 0 0 1 .877.028" class="prefix__cls-3" data-name="Fill 334" transform="translate(41.672 26.876)"/>
            <path id="prefix__Fill_336" d="M.874 1.727a.876.876 0 0 0 .875-.864.874.874 0 0 0-1.749 0 .876.876 0 0 0 .874.864" class="prefix__cls-3" data-name="Fill 336" transform="translate(41.675 26.903)"/>
            <path id="prefix__Fill_338" d="M.878.028a.876.876 0 0 1 .874.863V.877A.878.878 0 0 0 0 .877v.014A.876.876 0 0 1 .878.028" class="prefix__cls-3" data-name="Fill 338" transform="translate(45.181 26.876)"/>
            <path id="prefix__Fill_340" d="M.874 1.727a.876.876 0 0 0 .875-.864.874.874 0 0 0-1.749 0 .876.876 0 0 0 .874.864" class="prefix__cls-3" data-name="Fill 340" transform="translate(45.184 26.903)"/>
            <path id="prefix__Fill_342" d="M.878.028a.876.876 0 0 1 .874.863V.877A.878.878 0 0 0 0 .877v.014A.876.876 0 0 1 .878.028" class="prefix__cls-3" data-name="Fill 342" transform="translate(48.69 26.876)"/>
            <path id="prefix__Fill_344" d="M.874 1.727a.876.876 0 0 0 .875-.864.874.874 0 0 0-1.749 0 .876.876 0 0 0 .874.864" class="prefix__cls-3" data-name="Fill 344" transform="translate(48.694 26.903)"/>
            <path id="prefix__Fill_346" d="M.878 0A.878.878 0 0 0 0 .878a.125.125 0 0 0 0 .013.874.874 0 0 1 1.749 0V.878A.877.877 0 0 0 .878 0" class="prefix__cls-3" data-name="Fill 346" transform="translate(52.2 26.876)"/>
            <path id="prefix__Fill_348" d="M.874 0A.876.876 0 0 0 0 .863a.874.874 0 0 0 1.749 0A.876.876 0 0 0 .874 0" class="prefix__cls-3" data-name="Fill 348" transform="translate(52.203 26.903)"/>
            <path id="prefix__Fill_350" d="M.254.611a.854.854 0 0 1 .185-.5V.08A.852.852 0 0 0 .251.6v.014" class="prefix__cls-3" data-name="Fill 350" transform="translate(55.458 27.156)"/>
            <path id="prefix__Fill_352" d="M.436 1.018c0-.128.01-.253.01-.382C.446.423.435.213.43 0a.861.861 0 0 0-.185.5.86.86 0 0 0 .191.514" class="prefix__cls-3" data-name="Fill 352" transform="translate(55.467 27.262)"/>
            <path id="prefix__Fill_354" d="M.877 1.755A.878.878 0 1 0 0 .877a.878.878 0 0 0 .877.878" class="prefix__cls-3" data-name="Fill 354" transform="translate(29.39 29.507)"/>
            <path id="prefix__Fill_356" d="M.877 1.755A.878.878 0 1 0 0 .877a.878.878 0 0 0 .877.878" class="prefix__cls-3" data-name="Fill 356" transform="translate(32.899 29.507)"/>
            <path id="prefix__Fill_358" d="M.877 0a.878.878 0 1 0 .878.878A.877.877 0 0 0 .877 0" class="prefix__cls-3" data-name="Fill 358" transform="translate(36.408 29.507)"/>
            <path id="prefix__Fill_360" d="M.877 0a.878.878 0 1 0 .878.878A.877.877 0 0 0 .877 0" class="prefix__cls-3" data-name="Fill 360" transform="translate(39.918 29.507)"/>
            <path id="prefix__Fill_362" d="M.877 1.755A.878.878 0 1 0 0 .877a.877.877 0 0 0 .877.878" class="prefix__cls-3" data-name="Fill 362" transform="translate(43.427 29.507)"/>
            <path id="prefix__Fill_364" d="M.877 1.755A.878.878 0 1 0 0 .877a.877.877 0 0 0 .877.878" class="prefix__cls-3" data-name="Fill 364" transform="translate(46.936 29.507)"/>
            <path id="prefix__Fill_366" d="M.878 1.755A.878.878 0 1 0 0 .877a.877.877 0 0 0 .878.878" class="prefix__cls-3" data-name="Fill 366" transform="translate(50.445 29.507)"/>
            <path id="prefix__Fill_368" d="M.878 0a.878.878 0 1 0 .877.878A.878.878 0 0 0 .878 0" class="prefix__cls-3" data-name="Fill 368" transform="translate(53.954 29.507)"/>
            <path id="prefix__Fill_370" d="M0 .877A.878.878 0 0 1 .88 0a.878.878 0 0 0 0 1.755A.878.878 0 0 1 0 .877" class="prefix__cls-3" data-name="Fill 370" transform="translate(27.635 32.14)"/>
            <path id="prefix__Fill_372" d="M.877 0a.877.877 0 1 0 .878.877A.877.877 0 0 0 .877 0" class="prefix__cls-3" data-name="Fill 372" transform="translate(31.144 32.14)"/>
            <path id="prefix__Fill_374" d="M.877 1.754A.877.877 0 1 0 0 .876a.877.877 0 0 0 .877.878" class="prefix__cls-3" data-name="Fill 374" transform="translate(34.654 32.14)"/>
            <path id="prefix__Fill_376" d="M.877 0a.877.877 0 1 0 .878.877A.877.877 0 0 0 .877 0" class="prefix__cls-3" data-name="Fill 376" transform="translate(38.163 32.14)"/>
            <path id="prefix__Fill_378" d="M.877 1.754A.877.877 0 1 0 0 .876a.877.877 0 0 0 .877.878" class="prefix__cls-3" data-name="Fill 378" transform="translate(41.672 32.14)"/>
            <path id="prefix__Fill_380" d="M.878 0a.877.877 0 1 0 .878.877A.877.877 0 0 0 .878 0" class="prefix__cls-3" data-name="Fill 380" transform="translate(45.181 32.14)"/>
            <path id="prefix__Fill_382" d="M.878 0a.877.877 0 1 0 .877.877A.877.877 0 0 0 .878 0" class="prefix__cls-3" data-name="Fill 382" transform="translate(48.69 32.14)"/>
            <path id="prefix__Fill_384" d="M.878 0a.877.877 0 1 0 .877.877A.877.877 0 0 0 .878 0" class="prefix__cls-3" data-name="Fill 384" transform="translate(52.2 32.14)"/>
            <path id="prefix__Fill_386" d="M.877 0a.877.877 0 1 0 .878.877A.877.877 0 0 0 .877 0" class="prefix__cls-3" data-name="Fill 386" transform="translate(29.39 34.772)"/>
            <path id="prefix__Fill_388" d="M.877 1.754A.877.877 0 1 0 0 .876a.877.877 0 0 0 .877.878" class="prefix__cls-3" data-name="Fill 388" transform="translate(32.899 34.772)"/>
            <path id="prefix__Fill_390" d="M.877 1.754A.877.877 0 1 0 0 .876a.877.877 0 0 0 .877.878" class="prefix__cls-3" data-name="Fill 390" transform="translate(36.408 34.772)"/>
            <path id="prefix__Fill_392" d="M.877 1.754A.877.877 0 1 0 0 .876a.877.877 0 0 0 .877.878" class="prefix__cls-3" data-name="Fill 392" transform="translate(39.918 34.772)"/>
            <path id="prefix__Fill_394" d="M.877 0a.877.877 0 1 0 .877.877A.877.877 0 0 0 .877 0" class="prefix__cls-3" data-name="Fill 394" transform="translate(43.427 34.772)"/>
            <path id="prefix__Fill_396" d="M.877 1.754A.877.877 0 1 0 0 .876a.877.877 0 0 0 .877.878" class="prefix__cls-3" data-name="Fill 396" transform="translate(46.936 34.772)"/>
            <path id="prefix__Fill_398" d="M.878 0a.877.877 0 1 0 .877.877A.877.877 0 0 0 .878 0" class="prefix__cls-3" data-name="Fill 398" transform="translate(50.445 34.772)"/>
            <path id="prefix__Fill_400" d="M0 .877a.868.868 0 0 0 .6.823C.774 1.152.941.6 1.086.042A.875.875 0 0 0 .878 0 .878.878 0 0 0 0 .877" class="prefix__cls-3" data-name="Fill 400" transform="translate(53.955 34.771)"/>
            <path id="prefix__Fill_402" d="M.877 1.755A.877.877 0 0 1 .88 0a.878.878 0 0 0 0 1.755" class="prefix__cls-3" data-name="Fill 402" transform="translate(27.635 37.404)"/>
            <path id="prefix__Fill_404" d="M.877 1.755A.878.878 0 1 0 0 .877a.878.878 0 0 0 .877.878" class="prefix__cls-3" data-name="Fill 404" transform="translate(31.144 37.404)"/>
            <path id="prefix__Fill_406" d="M.877 1.755A.878.878 0 1 0 0 .877a.878.878 0 0 0 .877.878" class="prefix__cls-3" data-name="Fill 406" transform="translate(34.654 37.404)"/>
            <path id="prefix__Fill_408" d="M.877 1.755A.878.878 0 1 0 0 .877a.878.878 0 0 0 .877.878" class="prefix__cls-3" data-name="Fill 408" transform="translate(38.163 37.404)"/>
            <path id="prefix__Fill_410" d="M.877 0a.878.878 0 1 0 .878.878A.877.877 0 0 0 .877 0" class="prefix__cls-3" data-name="Fill 410" transform="translate(41.672 37.404)"/>
            <path id="prefix__Fill_412" d="M.878 1.755A.878.878 0 1 0 0 .877a.878.878 0 0 0 .878.878" class="prefix__cls-3" data-name="Fill 412" transform="translate(45.181 37.404)"/>
            <path id="prefix__Fill_414" d="M.878 1.755A.878.878 0 1 0 0 .877a.877.877 0 0 0 .878.878" class="prefix__cls-3" data-name="Fill 414" transform="translate(48.69 37.404)"/>
            <path id="prefix__Fill_416" d="M.878 0a.878.878 0 1 0 0 1.755.857.857 0 0 0 .521-.19q.173-.4.334-.8A.866.866 0 0 0 .878 0" class="prefix__cls-3" data-name="Fill 416" transform="translate(52.2 37.404)"/>
            <path id="prefix__Fill_418" d="M.877 1.755A.878.878 0 1 0 0 .877a.878.878 0 0 0 .877.878" class="prefix__cls-3" data-name="Fill 418" transform="translate(29.39 40.036)"/>
            <path id="prefix__Fill_420" d="M.877 0a.878.878 0 1 0 .878.878A.877.877 0 0 0 .877 0" class="prefix__cls-3" data-name="Fill 420" transform="translate(32.899 40.036)"/>
            <path id="prefix__Fill_422" d="M.877 1.755A.878.878 0 1 0 0 .877a.878.878 0 0 0 .877.878" class="prefix__cls-3" data-name="Fill 422" transform="translate(36.408 40.036)"/>
            <path id="prefix__Fill_424" d="M.877 0a.878.878 0 1 0 .878.878A.877.877 0 0 0 .877 0" class="prefix__cls-3" data-name="Fill 424" transform="translate(39.918 40.036)"/>
            <path id="prefix__Fill_426" d="M.877 1.755A.878.878 0 1 0 0 .877a.877.877 0 0 0 .877.878" class="prefix__cls-3" data-name="Fill 426" transform="translate(43.427 40.036)"/>
            <path id="prefix__Fill_428" d="M.877 0a.878.878 0 1 0 .877.878A.877.877 0 0 0 .877 0" class="prefix__cls-3" data-name="Fill 428" transform="translate(46.936 40.036)"/>
            <path id="prefix__Fill_430" d="M.878 0a.878.878 0 1 0 .877.878A.878.878 0 0 0 .878 0" class="prefix__cls-3" data-name="Fill 430" transform="translate(50.445 40.036)"/>
            <path id="prefix__Fill_432" d="M.877 1.755A.877.877 0 0 1 .88 0a.878.878 0 0 0 0 1.755" class="prefix__cls-3" data-name="Fill 432" transform="translate(27.635 42.667)"/>
            <path id="prefix__Fill_434" d="M.877 0a.878.878 0 1 0 .878.878A.878.878 0 0 0 .877 0" class="prefix__cls-3" data-name="Fill 434" transform="translate(31.144 42.667)"/>
            <path id="prefix__Fill_436" d="M.877 1.755A.878.878 0 1 0 0 .877a.877.877 0 0 0 .877.878" class="prefix__cls-3" data-name="Fill 436" transform="translate(34.654 42.667)"/>
            <path id="prefix__Fill_438" d="M.877 1.755A.878.878 0 1 0 0 .877a.877.877 0 0 0 .877.878" class="prefix__cls-3" data-name="Fill 438" transform="translate(38.163 42.667)"/>
            <path id="prefix__Fill_440" d="M.877 1.755A.878.878 0 1 0 0 .877a.877.877 0 0 0 .877.878" class="prefix__cls-3" data-name="Fill 440" transform="translate(41.672 42.667)"/>
            <path id="prefix__Fill_442" d="M.878 0a.878.878 0 1 0 .878.878A.878.878 0 0 0 .878 0" class="prefix__cls-3" data-name="Fill 442" transform="translate(45.181 42.667)"/>
            <path id="prefix__Fill_444" d="M.878 0a.878.878 0 1 0 .877.878A.878.878 0 0 0 .878 0" class="prefix__cls-3" data-name="Fill 444" transform="translate(48.69 42.667)"/>
            <path id="prefix__Fill_446" d="M.877 1.754A.877.877 0 1 0 0 .877a.877.877 0 0 0 .877.877" class="prefix__cls-3" data-name="Fill 446" transform="translate(29.39 45.3)"/>
            <path id="prefix__Fill_448" d="M.877 1.754A.877.877 0 1 0 0 .877a.877.877 0 0 0 .877.877" class="prefix__cls-3" data-name="Fill 448" transform="translate(32.899 45.3)"/>
            <path id="prefix__Fill_450" d="M.877 1.754A.877.877 0 1 0 0 .877a.877.877 0 0 0 .877.877" class="prefix__cls-3" data-name="Fill 450" transform="translate(36.408 45.3)"/>
            <path id="prefix__Fill_452" d="M.877 1.754A.877.877 0 1 0 0 .877a.877.877 0 0 0 .877.877" class="prefix__cls-3" data-name="Fill 452" transform="translate(39.918 45.3)"/>
            <path id="prefix__Fill_454" d="M.877 0a.877.877 0 1 0 .877.878A.877.877 0 0 0 .877 0" class="prefix__cls-3" data-name="Fill 454" transform="translate(43.427 45.3)"/>
            <path id="prefix__Fill_456" d="M.877 0a.877.877 0 1 0 0 1.754.868.868 0 0 0 .59-.236l.057-.059a.867.867 0 0 0 .23-.581A.877.877 0 0 0 .877 0" class="prefix__cls-3" data-name="Fill 456" transform="translate(46.936 45.3)"/>
            <path id="prefix__Fill_458" d="M.877 1.754A.877.877 0 0 1 .88 0a.877.877 0 0 0 0 1.754" class="prefix__cls-3" data-name="Fill 458" transform="translate(27.635 47.932)"/>
            <path id="prefix__Fill_460" d="M.877 1.754A.877.877 0 1 0 0 .877a.877.877 0 0 0 .877.877" class="prefix__cls-3" data-name="Fill 460" transform="translate(31.144 47.932)"/>
            <path id="prefix__Fill_462" d="M.877 0a.877.877 0 1 0 .878.878A.877.877 0 0 0 .877 0" class="prefix__cls-3" data-name="Fill 462" transform="translate(34.654 47.932)"/>
            <path id="prefix__Fill_464" d="M.877 0a.877.877 0 1 0 .878.878A.877.877 0 0 0 .877 0" class="prefix__cls-3" data-name="Fill 464" transform="translate(38.163 47.932)"/>
            <path id="prefix__Fill_466" d="M.877 0a.877.877 0 1 0 .878.878A.877.877 0 0 0 .877 0" class="prefix__cls-3" data-name="Fill 466" transform="translate(41.672 47.932)"/>
            <path id="prefix__Fill_468" d="M.878 0A.877.877 0 0 0 0 .878a.863.863 0 0 0 .334.671c.443-.354.878-.716 1.3-1.1A.865.865 0 0 0 .878 0" class="prefix__cls-3" data-name="Fill 468" transform="translate(45.181 47.932)"/>
            <path id="prefix__Fill_470" d="M.877 0a.878.878 0 1 0 .878.878A.878.878 0 0 0 .877 0" class="prefix__cls-3" data-name="Fill 470" transform="translate(29.39 50.564)"/>
            <path id="prefix__Fill_472" d="M.877 0a.878.878 0 1 0 .878.878A.877.877 0 0 0 .877 0" class="prefix__cls-3" data-name="Fill 472" transform="translate(32.899 50.564)"/>
            <path id="prefix__Fill_474" d="M.877 0a.878.878 0 1 0 .878.878A.877.877 0 0 0 .877 0" class="prefix__cls-3" data-name="Fill 474" transform="translate(36.408 50.564)"/>
            <path id="prefix__Fill_476" d="M.877 0a.878.878 0 1 0 .878.878A.877.877 0 0 0 .877 0" class="prefix__cls-3" data-name="Fill 476" transform="translate(39.918 50.564)"/>
            <path id="prefix__Fill_478" d="M.2.449C.3.381.4.31.495.241A.877.877 0 0 0 .2.449" class="prefix__cls-3" data-name="Fill 478" transform="translate(43.476 50.389)"/>
            <path id="prefix__Fill_480" d="M0 .878A.878.878 0 0 1 .88 0a.878.878 0 0 0 0 1.756A.878.878 0 0 1 0 .878" class="prefix__cls-3" data-name="Fill 480" transform="translate(27.635 53.195)"/>
            <path id="prefix__Fill_482" d="M.877 0a.878.878 0 1 0 .878.878A.878.878 0 0 0 .877 0" class="prefix__cls-3" data-name="Fill 482" transform="translate(31.144 53.195)"/>
            <path id="prefix__Fill_484" d="M.877 0a.875.875 0 0 0-.6 1.51c.483-.119.961-.249 1.432-.393a.836.836 0 0 0 .046-.239A.878.878 0 0 0 .877 0" class="prefix__cls-3" data-name="Fill 484" transform="translate(34.654 53.195)"/>
            <path id="prefix__Fill_486" d="M0 .567C.327.439.653.309.974.171A.842.842 0 0 0 .746.124.865.865 0 0 0 0 .567" class="prefix__cls-3" data-name="Fill 486" transform="translate(38.294 53.072)"/>
            <g id="prefix__Group_490" data-name="Group 490" transform="translate(0 26.246)">
                <path id="prefix__Clip_489-2" d="M.01 0h.671v.836H.01z" class="prefix__cls-1" data-name="Clip 489" transform="translate(.681 .685)"/>
                <g id="prefix__Group_490-2" data-name="Group 490">
                    <path id="prefix__Fill_488" d="M.645.836V.822A.867.867 0 0 0 .043 0v.028a.866.866 0 0 1 .6.808" class="prefix__cls-3" data-name="Fill 488" transform="translate(.672 .685)"/>
                </g>
            </g>
            <g id="prefix__Group_493" data-name="Group 493" transform="translate(0 26.936)">
                <path id="prefix__Clip_492-2" d="M.016 0h.659v1.618H.016z" class="prefix__cls-1" data-name="Clip 492" transform="translate(.675 .022)"/>
                <g id="prefix__Group_493-2" data-name="Group 493">
                    <path id="prefix__Fill_491" d="M.659.808A.866.866 0 0 0 .056 0C.045.313.032.625.032.94c0 .228.012.452.017.678a.865.865 0 0 0 .61-.81" class="prefix__cls-3" data-name="Fill 491" transform="translate(.658 .022)"/>
                </g>
            </g>
            <path id="prefix__Fill_494" d="M.878.028a.876.876 0 0 1 .874.863V.877A.878.878 0 0 0 0 .877v.014A.876.876 0 0 1 .878.028" class="prefix__cls-3" data-name="Fill 494" transform="translate(3.074 26.876)"/>
            <path id="prefix__Fill_496" d="M.874 1.727a.876.876 0 0 0 .875-.864.874.874 0 0 0-1.749 0 .876.876 0 0 0 .874.864" class="prefix__cls-3" data-name="Fill 496" transform="translate(3.078 26.903)"/>
            <path id="prefix__Fill_498" d="M.878.028a.876.876 0 0 1 .874.863V.877A.878.878 0 0 0 0 .877v.014A.876.876 0 0 1 .878.028" class="prefix__cls-3" data-name="Fill 498" transform="translate(6.583 26.876)"/>
            <path id="prefix__Fill_500" d="M.874 1.727a.876.876 0 0 0 .875-.864.874.874 0 0 0-1.749 0 .876.876 0 0 0 .874.864" class="prefix__cls-3" data-name="Fill 500" transform="translate(6.587 26.903)"/>
            <path id="prefix__Fill_502" d="M0 .891a.874.874 0 0 1 1.749 0V.877A.877.877 0 1 0 0 .877v.014" class="prefix__cls-3" data-name="Fill 502" transform="translate(10.093 26.876)"/>
            <path id="prefix__Fill_504" d="M.874 0A.876.876 0 0 0 0 .863a.874.874 0 0 0 1.749 0A.876.876 0 0 0 .874 0" class="prefix__cls-3" data-name="Fill 504" transform="translate(10.096 26.903)"/>
            <path id="prefix__Fill_506" d="M0 .891a.874.874 0 0 1 1.749 0V.877A.877.877 0 1 0 0 .877v.014" class="prefix__cls-3" data-name="Fill 506" transform="translate(13.603 26.876)"/>
            <path id="prefix__Fill_508" d="M.874 0A.876.876 0 0 0 0 .863a.874.874 0 0 0 1.749 0A.876.876 0 0 0 .874 0" class="prefix__cls-3" data-name="Fill 508" transform="translate(13.606 26.903)"/>
            <path id="prefix__Fill_510" d="M.878.028a.876.876 0 0 1 .874.863V.877A.878.878 0 0 0 0 .877a.1.1 0 0 0 0 .014.876.876 0 0 1 .878-.863" class="prefix__cls-3" data-name="Fill 510" transform="translate(17.111 26.876)"/>
            <path id="prefix__Fill_512" d="M.874 1.727a.876.876 0 0 0 .875-.864.874.874 0 0 0-1.749 0 .876.876 0 0 0 .874.864" class="prefix__cls-3" data-name="Fill 512" transform="translate(17.115 26.903)"/>
            <path id="prefix__Fill_514" d="M.878.028a.876.876 0 0 1 .874.863V.877A.878.878 0 0 0 0 .877v.014A.877.877 0 0 1 .878.028" class="prefix__cls-3" data-name="Fill 514" transform="translate(20.621 26.876)"/>
            <path id="prefix__Fill_516" d="M.875 1.727a.876.876 0 0 0 .874-.864.875.875 0 0 0-1.749 0 .877.877 0 0 0 .875.864" class="prefix__cls-3" data-name="Fill 516" transform="translate(20.624 26.903)"/>
            <path id="prefix__Fill_518" d="M.878 0A.878.878 0 0 0 0 .878v.013a.875.875 0 0 1 1.749 0V.878A.878.878 0 0 0 .878 0" class="prefix__cls-3" data-name="Fill 518" transform="translate(24.13 26.876)"/>
            <path id="prefix__Fill_520" d="M.875 0A.876.876 0 0 0 0 .863a.875.875 0 0 0 1.749 0A.876.876 0 0 0 .875 0" class="prefix__cls-3" data-name="Fill 520" transform="translate(24.133 26.903)"/>
            <path id="prefix__Fill_522" d="M0 0a.877.877 0 0 1 .875.878.08.08 0 0 1 0 .012V.877A.878.878 0 0 0 0 0" class="prefix__cls-3" data-name="Fill 522" transform="translate(28.515 26.876)"/>
            <path id="prefix__Fill_524" d="M.343.345v.013a.073.073 0 0 0 0-.013.08.08 0 0 0 0-.012v.012" class="prefix__cls-3" data-name="Fill 524" transform="translate(29.044 27.422)"/>
            <path id="prefix__Fill_526" d="M0 .863a.875.875 0 0 0 .874-.85L.872 0A.876.876 0 0 1 0 .863" class="prefix__cls-3" data-name="Fill 526" transform="translate(28.515 27.767)"/>
            <path id="prefix__Fill_528" d="M0 .877A.875.875 0 0 1 .872.028h.006a.875.875 0 0 1 .872.851A.875.875 0 1 0 0 .877" class="prefix__cls-3" data-name="Fill 528" transform="translate(27.64 26.876)"/>
            <path id="prefix__Fill_530" d="M.874 0A.875.875 0 0 0 0 .851v.012A.877.877 0 0 1 .874 0" class="prefix__cls-3" data-name="Fill 530" transform="translate(27.64 26.903)"/>
            <path id="prefix__Fill_532" d="M0 0a.877.877 0 0 1 .872.863V.851A.875.875 0 0 0 0 0" class="prefix__cls-3" data-name="Fill 532" transform="translate(28.515 26.903)"/>
            <path id="prefix__Fill_534" d="M.872 0A.877.877 0 0 0 0 .863a.872.872 0 0 0 1.745 0A.877.877 0 0 0 .872 0" class="prefix__cls-3" data-name="Fill 534" transform="translate(27.642 26.904)"/>
            <path id="prefix__Fill_536" d="M.877 0a.878.878 0 1 0 .877.878A.877.877 0 0 0 .877 0" class="prefix__cls-3" data-name="Fill 536" transform="translate(1.32 29.507)"/>
            <path id="prefix__Fill_538" d="M.877 1.755A.878.878 0 1 0 0 .877a.877.877 0 0 0 .877.878" class="prefix__cls-3" data-name="Fill 538" transform="translate(4.829 29.507)"/>
            <path id="prefix__Fill_540" d="M.878 1.755A.878.878 0 1 0 0 .877a.877.877 0 0 0 .878.878" class="prefix__cls-3" data-name="Fill 540" transform="translate(8.338 29.507)"/>
            <path id="prefix__Fill_542" d="M.878 0a.878.878 0 1 0 .877.878A.878.878 0 0 0 .878 0" class="prefix__cls-3" data-name="Fill 542" transform="translate(11.847 29.507)"/>
            <path id="prefix__Fill_544" d="M.878 0a.878.878 0 1 0 .877.878A.878.878 0 0 0 .878 0" class="prefix__cls-3" data-name="Fill 544" transform="translate(15.357 29.507)"/>
            <path id="prefix__Fill_546" d="M.878 1.755A.878.878 0 1 0 0 .877a.878.878 0 0 0 .878.878" class="prefix__cls-3" data-name="Fill 546" transform="translate(18.866 29.507)"/>
            <path id="prefix__Fill_548" d="M.878 1.755A.878.878 0 1 0 0 .877a.878.878 0 0 0 .878.878" class="prefix__cls-3" data-name="Fill 548" transform="translate(22.376 29.507)"/>
            <path id="prefix__Fill_550" d="M.877 1.755A.878.878 0 1 0 0 .877a.878.878 0 0 0 .877.878" class="prefix__cls-3" data-name="Fill 550" transform="translate(25.885 29.507)"/>
            <path id="prefix__Fill_552" d="M.216 0c.054.33.11.659.176.985A.863.863 0 0 0 .475.622.876.876 0 0 0 .216 0" class="prefix__cls-3" data-name="Fill 552" transform="translate(.845 32.395)"/>
            <path id="prefix__Fill_554" d="M.878 1.754A.877.877 0 1 0 0 .876a.877.877 0 0 0 .878.878" class="prefix__cls-3" data-name="Fill 554" transform="translate(3.074 32.14)"/>
            <path id="prefix__Fill_556" d="M.878 0a.877.877 0 1 0 .877.877A.877.877 0 0 0 .878 0" class="prefix__cls-3" data-name="Fill 556" transform="translate(6.583 32.14)"/>
            <path id="prefix__Fill_558" d="M.878 1.754A.877.877 0 1 0 0 .876a.877.877 0 0 0 .878.878" class="prefix__cls-3" data-name="Fill 558" transform="translate(10.093 32.14)"/>
            <path id="prefix__Fill_560" d="M.878 0a.877.877 0 1 0 .877.877A.877.877 0 0 0 .878 0" class="prefix__cls-3" data-name="Fill 560" transform="translate(13.602 32.14)"/>
            <path id="prefix__Fill_562" d="M.878 0a.877.877 0 1 0 .877.877A.877.877 0 0 0 .878 0" class="prefix__cls-3" data-name="Fill 562" transform="translate(17.111 32.14)"/>
            <path id="prefix__Fill_564" d="M.878 1.754A.877.877 0 1 0 0 .876a.877.877 0 0 0 .878.878" class="prefix__cls-3" data-name="Fill 564" transform="translate(20.621 32.14)"/>
            <path id="prefix__Fill_566" d="M.878 1.754A.877.877 0 1 0 0 .876a.877.877 0 0 0 .878.878" class="prefix__cls-3" data-name="Fill 566" transform="translate(24.13 32.14)"/>
            <path id="prefix__Fill_568" d="M0 0a.877.877 0 0 1 .875.877.877.877 0 0 1-.875.877A.877.877 0 1 0 0 0" class="prefix__cls-3" data-name="Fill 568" transform="translate(28.515 32.14)"/>
            <path id="prefix__Fill_570" d="M1.749.877a.875.875 0 1 0-.875.877.878.878 0 0 0 .875-.877" class="prefix__cls-3" data-name="Fill 570" transform="translate(27.64 32.14)"/>
            <path id="prefix__Fill_572" d="M1.457.877A.877.877 0 0 0 .58 0 .866.866 0 0 0 0 .23c.134.506.285 1 .447 1.5a.8.8 0 0 0 .133.028.877.877 0 0 0 .877-.881" class="prefix__cls-3" data-name="Fill 572" transform="translate(1.617 34.771)"/>
            <path id="prefix__Fill_574" d="M.877 1.754A.877.877 0 1 0 0 .876a.877.877 0 0 0 .877.878" class="prefix__cls-3" data-name="Fill 574" transform="translate(4.829 34.772)"/>
            <path id="prefix__Fill_576" d="M.878 0a.877.877 0 1 0 .877.877A.877.877 0 0 0 .878 0" class="prefix__cls-3" data-name="Fill 576" transform="translate(8.338 34.772)"/>
            <path id="prefix__Fill_578" d="M.878 1.754A.877.877 0 1 0 0 .876a.877.877 0 0 0 .878.878" class="prefix__cls-3" data-name="Fill 578" transform="translate(11.847 34.772)"/>
            <path id="prefix__Fill_580" d="M.878 1.754A.877.877 0 1 0 0 .876a.877.877 0 0 0 .878.878" class="prefix__cls-3" data-name="Fill 580" transform="translate(15.357 34.772)"/>
            <path id="prefix__Fill_582" d="M.878 1.754A.877.877 0 1 0 0 .876a.877.877 0 0 0 .878.878" class="prefix__cls-3" data-name="Fill 582" transform="translate(18.866 34.772)"/>
            <path id="prefix__Fill_584" d="M.878 0a.877.877 0 1 0 .877.877A.877.877 0 0 0 .878 0" class="prefix__cls-3" data-name="Fill 584" transform="translate(22.376 34.772)"/>
            <path id="prefix__Fill_586" d="M.877 1.754A.877.877 0 1 0 0 .876a.877.877 0 0 0 .877.878" class="prefix__cls-3" data-name="Fill 586" transform="translate(25.885 34.772)"/>
            <path id="prefix__Fill_588" d="M.878 0a.878.878 0 1 0 .878.878A.877.877 0 0 0 .878 0" class="prefix__cls-3" data-name="Fill 588" transform="translate(3.074 37.404)"/>
            <path id="prefix__Fill_590" d="M.878 1.755A.878.878 0 1 0 0 .877a.877.877 0 0 0 .878.878" class="prefix__cls-3" data-name="Fill 590" transform="translate(6.583 37.404)"/>
            <path id="prefix__Fill_592" d="M.878 1.755A.878.878 0 1 0 0 .877a.877.877 0 0 0 .878.878" class="prefix__cls-3" data-name="Fill 592" transform="translate(10.093 37.404)"/>
            <path id="prefix__Fill_594" d="M.878 1.755A.878.878 0 1 0 0 .877a.878.878 0 0 0 .878.878" class="prefix__cls-3" data-name="Fill 594" transform="translate(13.602 37.404)"/>
            <path id="prefix__Fill_596" d="M.878 1.755A.878.878 0 1 0 0 .877a.878.878 0 0 0 .878.878" class="prefix__cls-3" data-name="Fill 596" transform="translate(17.111 37.404)"/>
            <path id="prefix__Fill_598" d="M.878 1.755A.878.878 0 1 0 0 .877a.878.878 0 0 0 .878.878" class="prefix__cls-3" data-name="Fill 598" transform="translate(20.621 37.404)"/>
            <path id="prefix__Fill_600" d="M.878 1.755A.878.878 0 1 0 0 .877a.878.878 0 0 0 .878.878" class="prefix__cls-3" data-name="Fill 600" transform="translate(24.13 37.404)"/>
            <path id="prefix__Fill_602" d="M.875.878A.878.878 0 0 1 0 1.755.878.878 0 0 0 .88.878.878.878 0 0 0 0 0a.878.878 0 0 1 .875.878" class="prefix__cls-3" data-name="Fill 602" transform="translate(28.514 37.403)"/>
            <path id="prefix__Fill_604" d="M0 .877A.875.875 0 1 0 .875 0 .878.878 0 0 0 0 .877" class="prefix__cls-3" data-name="Fill 604" transform="translate(27.64 37.404)"/>
            <path id="prefix__Fill_606" d="M.877 0a.878.878 0 1 0 .877.878A.877.877 0 0 0 .877 0" class="prefix__cls-3" data-name="Fill 606" transform="translate(4.829 40.036)"/>
            <path id="prefix__Fill_608" d="M.878 1.755A.878.878 0 1 0 0 .877a.877.877 0 0 0 .878.878" class="prefix__cls-3" data-name="Fill 608" transform="translate(8.338 40.036)"/>
            <path id="prefix__Fill_610" d="M.878 1.755A.878.878 0 1 0 0 .877a.877.877 0 0 0 .878.878" class="prefix__cls-3" data-name="Fill 610" transform="translate(11.847 40.036)"/>
            <path id="prefix__Fill_612" d="M.878 0a.878.878 0 1 0 .877.878A.878.878 0 0 0 .878 0" class="prefix__cls-3" data-name="Fill 612" transform="translate(15.357 40.036)"/>
            <path id="prefix__Fill_614" d="M.878 0a.878.878 0 1 0 .877.878A.878.878 0 0 0 .878 0" class="prefix__cls-3" data-name="Fill 614" transform="translate(18.866 40.036)"/>
            <path id="prefix__Fill_616" d="M.878 1.755A.878.878 0 1 0 0 .877a.878.878 0 0 0 .878.878" class="prefix__cls-3" data-name="Fill 616" transform="translate(22.376 40.036)"/>
            <path id="prefix__Fill_618" d="M.877 1.755A.878.878 0 1 0 0 .877a.878.878 0 0 0 .877.878" class="prefix__cls-3" data-name="Fill 618" transform="translate(25.885 40.036)"/>
            <path id="prefix__Fill_620" d="M.878 0a.878.878 0 1 0 .877.878A.878.878 0 0 0 .878 0" class="prefix__cls-3" data-name="Fill 620" transform="translate(6.583 42.667)"/>
            <path id="prefix__Fill_622" d="M.878 0a.878.878 0 1 0 .877.878A.878.878 0 0 0 .878 0" class="prefix__cls-3" data-name="Fill 622" transform="translate(10.093 42.667)"/>
            <path id="prefix__Fill_624" d="M.878 1.755A.878.878 0 1 0 0 .877a.877.877 0 0 0 .878.878" class="prefix__cls-3" data-name="Fill 624" transform="translate(13.602 42.667)"/>
            <path id="prefix__Fill_626" d="M.878 1.755A.878.878 0 1 0 0 .877a.877.877 0 0 0 .878.878" class="prefix__cls-3" data-name="Fill 626" transform="translate(17.111 42.667)"/>
            <path id="prefix__Fill_628" d="M.878 1.755A.878.878 0 1 0 0 .877a.877.877 0 0 0 .878.878" class="prefix__cls-3" data-name="Fill 628" transform="translate(20.621 42.667)"/>
            <path id="prefix__Fill_630" d="M.878 0a.878.878 0 1 0 .877.878A.878.878 0 0 0 .878 0" class="prefix__cls-3" data-name="Fill 630" transform="translate(24.13 42.667)"/>
            <path id="prefix__Fill_632" d="M.875.878A.878.878 0 0 1 0 1.755.878.878 0 0 0 .88.878.878.878 0 0 0 0 0a.878.878 0 0 1 .875.878" class="prefix__cls-3" data-name="Fill 632" transform="translate(28.514 42.667)"/>
            <path id="prefix__Fill_634" d="M0 .877A.875.875 0 1 0 .875 0 .878.878 0 0 0 0 .877" class="prefix__cls-3" data-name="Fill 634" transform="translate(27.64 42.668)"/>
            <path id="prefix__Fill_636" d="M.878 0a.877.877 0 1 0 .877.878A.877.877 0 0 0 .878 0" class="prefix__cls-3" data-name="Fill 636" transform="translate(8.338 45.3)"/>
            <path id="prefix__Fill_638" d="M.878 0a.877.877 0 1 0 .877.878A.877.877 0 0 0 .878 0" class="prefix__cls-3" data-name="Fill 638" transform="translate(11.847 45.3)"/>
            <path id="prefix__Fill_640" d="M.878 1.754A.877.877 0 1 0 0 .877a.877.877 0 0 0 .878.877" class="prefix__cls-3" data-name="Fill 640" transform="translate(15.357 45.3)"/>
            <path id="prefix__Fill_642" d="M.878 1.754A.877.877 0 1 0 0 .877a.877.877 0 0 0 .878.877" class="prefix__cls-3" data-name="Fill 642" transform="translate(18.866 45.3)"/>
            <path id="prefix__Fill_644" d="M.878 1.754A.877.877 0 1 0 0 .877a.877.877 0 0 0 .878.877" class="prefix__cls-3" data-name="Fill 644" transform="translate(22.376 45.3)"/>
            <path id="prefix__Fill_646" d="M.877 1.754A.877.877 0 1 0 0 .877a.877.877 0 0 0 .877.877" class="prefix__cls-3" data-name="Fill 646" transform="translate(25.885 45.3)"/>
            <path id="prefix__Fill_648" d="M1.727.878A.877.877 0 0 0 .85 0 .867.867 0 0 0 0 .739q.563.493 1.151.955a.872.872 0 0 0 .576-.816" class="prefix__cls-3" data-name="Fill 648" transform="translate(10.121 47.931)"/>
            <path id="prefix__Fill_650" d="M.878 0a.877.877 0 1 0 .877.878A.877.877 0 0 0 .878 0" class="prefix__cls-3" data-name="Fill 650" transform="translate(13.602 47.932)"/>
            <path id="prefix__Fill_652" d="M.878 0a.877.877 0 1 0 .877.878A.877.877 0 0 0 .878 0" class="prefix__cls-3" data-name="Fill 652" transform="translate(17.111 47.932)"/>
            <path id="prefix__Fill_654" d="M.878 0a.877.877 0 1 0 .877.878A.877.877 0 0 0 .878 0" class="prefix__cls-3" data-name="Fill 654" transform="translate(20.621 47.932)"/>
            <path id="prefix__Fill_656" d="M.878 1.754A.877.877 0 1 0 0 .877a.877.877 0 0 0 .878.877" class="prefix__cls-3" data-name="Fill 656" transform="translate(24.13 47.932)"/>
            <path id="prefix__Fill_658" d="M.875.878A.878.878 0 0 1 0 1.755.878.878 0 0 0 .88.878.878.878 0 0 0 0 0a.877.877 0 0 1 .875.878" class="prefix__cls-3" data-name="Fill 658" transform="translate(28.514 47.931)"/>
            <path id="prefix__Fill_660" d="M0 .877A.875.875 0 1 0 .875 0 .878.878 0 0 0 0 .877" class="prefix__cls-3" data-name="Fill 660" transform="translate(27.64 47.932)"/>
            <path id="prefix__Fill_662" d="M.145.006A.843.843 0 0 0 0 .035q.484.336.982.65A.864.864 0 0 0 .145.006" class="prefix__cls-3" data-name="Fill 662" transform="translate(12.58 50.558)"/>
            <path id="prefix__Fill_664" d="M.878 0a.878.878 0 1 0 .877.878A.878.878 0 0 0 .878 0" class="prefix__cls-3" data-name="Fill 664" transform="translate(15.357 50.564)"/>
            <path id="prefix__Fill_666" d="M.878 0a.878.878 0 1 0 .877.878A.878.878 0 0 0 .878 0" class="prefix__cls-3" data-name="Fill 666" transform="translate(18.866 50.564)"/>
            <path id="prefix__Fill_668" d="M.878 0a.878.878 0 1 0 .877.878A.878.878 0 0 0 .878 0" class="prefix__cls-3" data-name="Fill 668" transform="translate(22.376 50.564)"/>
            <path id="prefix__Fill_670" d="M.877 0a.878.878 0 1 0 .878.878A.878.878 0 0 0 .877 0" class="prefix__cls-3" data-name="Fill 670" transform="translate(25.885 50.564)"/>
            <path id="prefix__Fill_672" d="M.446.023A.856.856 0 0 0 0 .163q.63.267 1.276.5a.866.866 0 0 0-.83-.64" class="prefix__cls-3" data-name="Fill 672" transform="translate(17.543 53.172)"/>
            <path id="prefix__Fill_674" d="M1.755.878A.878.878 0 1 0 0 .878a.867.867 0 0 0 .09.372q.636.181 1.283.333a.862.862 0 0 0 .382-.705" class="prefix__cls-3" data-name="Fill 674" transform="translate(20.621 53.195)"/>
            <path id="prefix__Fill_676" d="M.878 0a.878.878 0 1 0 .877.878A.878.878 0 0 0 .878 0" class="prefix__cls-3" data-name="Fill 676" transform="translate(24.13 53.195)"/>
            <path id="prefix__Fill_678" d="M0 0a.877.877 0 0 1 .875.878.877.877 0 0 1-.875.876.878.878 0 0 0 .88-.876A.878.878 0 0 0 0 0" class="prefix__cls-3" data-name="Fill 678" transform="translate(28.515 53.195)"/>
            <path id="prefix__Fill_680" d="M1.749.877a.875.875 0 1 0-.875.877.878.878 0 0 0 .875-.877" class="prefix__cls-3" data-name="Fill 680" transform="translate(27.64 53.196)"/>
        </g>
        <path id="prefix__Fill_683" d="M.09 0a21.747 21.747 0 0 0 4.081 14.822l2.656-10z" class="prefix__cls-7" data-name="Fill 683" transform="translate(8.554 32.823)"/>
        <path id="prefix__Fill_685" d="M4.515 15.808l-.3-.405A21.989 21.989 0 0 1 .093.418L.131 0l7.211 5.163-2.826 10.643zM.536.88a21.5 21.5 0 0 0 3.776 13.825L6.8 5.36z" class="prefix__cls-8" data-name="Fill 685" transform="translate(8.313 32.384)"/>
        <path id="prefix__Fill_687" d="M0 2.411l.766 7.465 17.111-1.953 1.876-2.6A9.268 9.268 0 0 0 19.14 0L0 2.411" class="prefix__cls-7" data-name="Fill 687" transform="translate(29.315 51.733)"/>
        <path id="prefix__Fill_689" d="M.919.3L0 7.76l15.618.9L13.13 0z" class="prefix__cls-7" data-name="Fill 689" transform="translate(12.396 49.267)"/>
        <path id="prefix__Fill_691" d="M2.379 0a36.2 36.2 0 0 1-.144 4.746 36.224 36.224 0 0 1-.718 4.492C-.808 16.1-.353 21.5 2.149 22.826c2.138 1.13 5.387-.917 6.891-1.865 5.61-3.536 7.529-9.505 8.182-12.119a15.238 15.238 0 0 1-2.239-3.9 15.083 15.083 0 0 1-1-4.549L2.379 0" class="prefix__cls-7" data-name="Fill 691" transform="translate(29.137 37.12)"/>
        <path id="prefix__Fill_693" d="M15.793 22.782c-2.984-.327-7.6-.945-11.12-3.52a11.45 11.45 0 0 1-3.149-3.432A9.948 9.948 0 0 1 .018 11.3C-.293 6.315 3.54.831 8.472.09a7.816 7.816 0 0 1 4.054.456c1.264.509 3.419 1.787 6.5 10.16 2.272 6.184 3.688 10.031 1.927 11.689-.173.163-.629.537-2.321.564" class="prefix__cls-3" data-name="Fill 693" transform="translate(29.583 5.594)"/>
        <path id="prefix__Fill_695" d="M18.875 23.438l-.008-.479a3.469 3.469 0 0 0 2.16-.5c1.644-1.548.2-5.472-1.979-11.411-3.229-8.775-5.431-9.663-6.372-10.042a7.5 7.5 0 0 0-3.93-.439C4.115 1.264.183 6.488.5 11.529a9.7 9.7 0 0 0 1.472 4.418 11.274 11.274 0 0 0 3.085 3.362c3.654 2.671 8.619 3.214 11 3.475l-.052.476c-2.428-.265-7.479-.818-11.236-3.565a11.735 11.735 0 0 1-3.214-3.5 10.154 10.154 0 0 1-1.537-4.636C-.31 6.288 3.816.823 8.675.092a7.966 7.966 0 0 1 4.18.471c1.652.666 3.732 2.41 6.635 10.3 2.336 6.358 3.741 10.182 1.866 11.947-.273.257-.827.6-2.481.629" class="prefix__cls-8" data-name="Fill 695" transform="translate(29.343 5.354)"/>
        <path id="prefix__Fill_697" d="M4.087 20.161a15.781 15.781 0 0 1-1.959-2.54 12.878 12.878 0 0 1-1.98-4.944 11.686 11.686 0 0 1 .436-5.515 4.612 4.612 0 0 1 1.839-2.648c.1-.064.179-.106.25-.145a7 7 0 0 1 3.013-.725c.834-.087 2.819-.293 3.732-1.5A3.11 3.11 0 0 0 9.934 0l3.79.311a3.766 3.766 0 0 0 .468 2.217c.789 1.335 2.46 1.976 4.355 2.7a4.336 4.336 0 0 1 .68.264c1.656 1.024 1.292 4.369 1.042 6.464a28.55 28.55 0 0 1-2.842 9.33" class="prefix__cls-7" data-name="Fill 697" transform="translate(27.153 21.893)"/>
        <path id="prefix__Fill_699" d="M17.88 21.653l-.43-.213a28.449 28.449 0 0 0 2.819-9.252c.22-1.841.63-5.268-.93-6.233a.653.653 0 0 0-.176-.075c-.087-.03-.222-.076-.463-.168-1.871-.712-3.64-1.386-4.475-2.799a3.943 3.943 0 0 1-.511-2.119l-3.286-.27a3.133 3.133 0 0 1-.58 2.031c-.975 1.286-3.022 1.5-3.9 1.59-.115.012-.233.023-.357.032a6.03 6.03 0 0 0-2.569.664c-.091.05-.156.086-.234.136A4.349 4.349 0 0 0 1.051 7.5a11.459 11.459 0 0 0-.426 5.4 12.611 12.611 0 0 0 1.945 4.857 15.563 15.563 0 0 0 1.93 2.5l-.348.331a16.045 16.045 0 0 1-1.989-2.578 13.03 13.03 0 0 1-2.012-5.033A11.959 11.959 0 0 1 .6 7.348a4.786 4.786 0 0 1 1.932-2.773c.09-.059.164-.1.231-.136A6.493 6.493 0 0 1 5.555 3.7c.12-.01.236-.019.345-.031.814-.085 2.716-.283 3.566-1.4A2.8 2.8 0 0 0 9.935.283L9.911 0l4.306.354-.017.234a3.587 3.587 0 0 0 .435 2.08c.75 1.269 2.365 1.883 4.235 2.6.232.088.363.133.447.162a1.066 1.066 0 0 1 .274.122c1.819 1.125 1.4 4.612 1.153 6.7a28.949 28.949 0 0 1-2.866 9.408" class="prefix__cls-8" data-name="Fill 699" transform="translate(26.914 21.63)"/>
        <path id="prefix__Fill_701" d="M5.324 22.385a.257.257 0 0 1-.064-.009.239.239 0 0 1-.166-.295 15.488 15.488 0 0 0-.136-8.85 15.345 15.345 0 0 0-2.916-5.243A10.178 10.178 0 0 1 .136.2a.24.24 0 0 1 .473.079A9.706 9.706 0 0 0 2.418 7.69a15.77 15.77 0 0 1 3 5.395 15.953 15.953 0 0 1 .141 9.123.24.24 0 0 1-.231.176" class="prefix__cls-8" data-name="Fill 701" transform="translate(43.293 36.991)"/>
        <path id="prefix__Fill_703" d="M5.9 7.05a.24.24 0 0 1-.225-.158A11.976 11.976 0 0 0 3.253 2.9 12.183 12.183 0 0 0 .125.45.24.24 0 1 1 .356.029 12.677 12.677 0 0 1 3.607 2.58a12.442 12.442 0 0 1 2.518 4.147.24.24 0 0 1-.225.323" class="prefix__cls-8" data-name="Fill 703" transform="translate(32.498 48.718)"/>
        <path id="prefix__Fill_705" d="M.474 13.146a.24.24 0 0 1-.235-.193 12.786 12.786 0 0 1 .874-7.685A12.872 12.872 0 0 1 5.472.044a.24.24 0 1 1 .274.393 12.4 12.4 0 0 0-4.2 5.029 12.306 12.306 0 0 0-.841 7.394.241.241 0 0 1-.189.282.278.278 0 0 1-.047 0" class="prefix__cls-8" data-name="Fill 705" transform="translate(37.369 49.467)"/>
        <path id="prefix__Fill_707" d="M.592.857a30.111 30.111 0 0 1 6.66-.844c3.192-.041 5.483-.071 6.49 1.434a3.724 3.724 0 0 1 .285 3.591 5.912 5.912 0 0 0-1.361 2.357 3.592 3.592 0 0 0-.054.421 46.013 46.013 0 0 1-5.129.1c-4.67-.17-5.6-.926-6.025-1.444A7.827 7.827 0 0 1 .445 4.6 4.459 4.459 0 0 1 0 2.646 3.666 3.666 0 0 1 .592.857" class="prefix__cls-7" data-name="Fill 707" transform="translate(30.954 30.389)"/>
        <path id="prefix__Fill_709" d="M9.346 8.431c-.536 0-1.085-.01-1.631-.029-4.486-.163-5.653-.866-6.2-1.532A7.94 7.94 0 0 1 .462 4.932 4.688 4.688 0 0 1 0 2.876 3.9 3.9 0 0 1 .629.968L.681.886l.1-.022A30.406 30.406 0 0 1 7.49.013h.01C8 .006 8.47 0 8.922 0c2.738 0 4.387.248 5.262 1.553a3.962 3.962 0 0 1 .291 3.85 4.851 4.851 0 0 1-.42.56 3.654 3.654 0 0 0-.907 1.712 3.192 3.192 0 0 0-.05.391l-.013.21-.21.015c-1.175.095-2.361.14-3.529.14zM8.895.484c-.428 0-.875.005-1.348.011H7.5a29.985 29.985 0 0 0-6.514.815A3.362 3.362 0 0 0 .487 2.9 4.272 4.272 0 0 0 .91 4.752a7.776 7.776 0 0 0 .974 1.81c.292.353.975 1.18 5.847 1.356.529.019 1.068.028 1.6.028 1.093 0 2.2-.039 3.3-.116v-.008c.011-.073.022-.148.038-.232a4.1 4.1 0 0 1 1.008-1.926l.019-.023a4.484 4.484 0 0 0 .362-.483 3.517 3.517 0 0 0-.279-3.331C13.029.7 11.484.484 8.895.484z" class="prefix__cls-8" data-name="Fill 709" transform="translate(30.713 30.148)"/>
        <path id="prefix__Fill_711" d="M2.386.912a35.312 35.312 0 0 1 15.969 0 14.441 14.441 0 0 1 2.456 4.6 14.307 14.307 0 0 1 .675 4.561A44.936 44.936 0 0 1 10.277 11.6a44.946 44.946 0 0 1-9.963-1.017A18.111 18.111 0 0 1 .21 4.61 5.912 5.912 0 0 1 .9 2.465 5.083 5.083 0 0 1 2.386.912" class="prefix__cls-7" data-name="Fill 711" transform="translate(27.668 44.569)"/>
        <path id="prefix__Fill_713" d="M10.089 12.085A45.272 45.272 0 0 1 .5 11.057l-.158-.034-.028-.159A18.311 18.311 0 0 1 .212 4.8l.022-.113a5.83 5.83 0 0 1 .7-2.111A5.31 5.31 0 0 1 2.488.953L2.57.917A35.81 35.81 0 0 1 10.625 0c.243 0 .49 0 .732.007a35.58 35.58 0 0 1 7.291.915l.081.018.052.066a14.628 14.628 0 0 1 2.5 4.672 14.506 14.506 0 0 1 .686 4.637v.181l-.175.048a45.251 45.251 0 0 1-11.269 1.54zM10.661.479a35.5 35.5 0 0 0-7.939.894 4.809 4.809 0 0 0-1.376 1.456 5.356 5.356 0 0 0-.64 1.948l-.021.116a17.721 17.721 0 0 0 .077 5.729 44.341 44.341 0 0 0 9.238.985h.516a44.753 44.753 0 0 0 10.972-1.477 14.04 14.04 0 0 0-.664-4.3 14.185 14.185 0 0 0-2.366-4.46 35.22 35.22 0 0 0-7.111-.884c-.228-.004-.459-.007-.686-.007z" class="prefix__cls-8" data-name="Fill 713" transform="translate(27.429 44.33)"/>
        <path id="prefix__Fill_715" d="M.24 12.009H.209A.24.24 0 0 1 0 11.738L1.483.232 18.757 0l1.015 11.6a.24.24 0 0 1-.478.042L18.318.486 1.906.706.478 11.8a.24.24 0 0 1-.238.21" class="prefix__cls-8" data-name="Fill 715" transform="translate(10.396 50.493)"/>
        <path id="prefix__Fill_717" d="M6.431 0a17.959 17.959 0 0 1 .842 8.06c-.38 2.926-1.749 7.515-3.445 7.533C2.374 15.61.907 12.265 0 7.834L6.431 0" class="prefix__cls-7" data-name="Fill 717" transform="translate(23.919 34.088)"/>
        <path id="prefix__Fill_719" d="M4.088 16.32h-.014C1.825 16.32.4 10.234.022 8.369L0 8.257 6.778 0l.138.41a18.075 18.075 0 0 1 .852 8.168c-.326 2.516-1.655 7.722-3.68 7.742zM6.6.977L.516 8.384c.926 4.46 2.357 7.457 3.559 7.457h.008c1.456-.017 2.823-4.343 3.21-7.326A17.523 17.523 0 0 0 6.6.977z" class="prefix__cls-8" data-name="Fill 719" transform="translate(23.661 33.601)"/>
        <path id="prefix__Fill_721" d="M0 4.558L.5.3 5.512 0l.459 4.52a6.446 6.446 0 0 1-2.986.753A6.443 6.443 0 0 1 0 4.558" class="prefix__cls-7" data-name="Fill 721" transform="translate(17.22 20.64)"/>
        <path id="prefix__Fill_723" d="M3.244 5.766h-.038a6.679 6.679 0 0 1-3.058-.742L0 4.947.54.328 5.985 0l.5 4.91-.143.075a6.683 6.683 0 0 1-3.098.781zM5.555.507L.969.782.515 4.671a6.224 6.224 0 0 0 2.691.616h.036a6.237 6.237 0 0 0 2.732-.652z" class="prefix__cls-8" data-name="Fill 723" transform="translate(16.962 20.387)"/>
        <path id="prefix__Fill_725" d="M2.348.53A1.631 1.631 0 0 0 .2.3a1.15 1.15 0 0 0-.12 1.1 1.6 1.6 0 0 0 .7.772 8.15 8.15 0 0 1 2.105 2.09" class="prefix__cls-7" data-name="Fill 725" transform="translate(11.082 11.768)"/>
        <path id="prefix__Fill_727" d="M2.932 4.64A8.125 8.125 0 0 0 .891 2.609 1.822 1.822 0 0 1 .1 1.717 1.378 1.378 0 0 1 .264.385a1.85 1.85 0 0 1 2.478.2l-.306.367C1.706.345.891.4.626.7a.931.931 0 0 0-.08.852 1.341 1.341 0 0 0 .588.643 8.626 8.626 0 0 1 2.184 2.159z" class="prefix__cls-8" data-name="Fill 727" transform="translate(10.842 11.529)"/>
        <path id="prefix__Fill_729" d="M1.834.264C1.057-.094.325-.077.087.248-.237.69.436 1.587.6 1.811a3.92 3.92 0 0 0 1.956 1.337" class="prefix__cls-7" data-name="Fill 729" transform="translate(32.148 16.344)"/>
        <path id="prefix__Fill_731" d="M2.694 3.542A4.082 4.082 0 0 1 .643 2.134C.026 1.311-.148.7.125.333c.31-.426 1.129-.445 1.992-.048l-.168.364C1.229.317.608.349.448.569.392.645.266.963.963 1.893A3.684 3.684 0 0 0 2.817 3.16z" class="prefix__cls-8" data-name="Fill 731" transform="translate(31.949 16.141)"/>
        <path id="prefix__Fill_733" d="M.134.672C1.179-.049 2.2-.174 2.565.221c.345.37.086 1.16.028 1.337A3.617 3.617 0 0 1 1.57 2.97 21.452 21.452 0 0 0 0 4.816" class="prefix__cls-7" data-name="Fill 733" transform="translate(26.771 11.267)"/>
        <path id="prefix__Fill_735" d="M.382 5.2L0 4.912a21.918 21.918 0 0 1 1.587-1.867l.148-.153a2.944 2.944 0 0 0 .821-1.168C2.8.972 2.655.7 2.58.625 2.348.376 1.481.406.461 1.111L.189.716C1.292-.046 2.445-.223 2.931.3c.2.216.378.664.081 1.575a3.358 3.358 0 0 1-.932 1.351l-.146.151A21.411 21.411 0 0 0 .382 5.2" class="prefix__cls-8" data-name="Fill 735" transform="translate(26.58 11.026)"/>
        <path id="prefix__Fill_737" d="M13.9 8.758c0 4.837-3.11 8.758-6.947 8.758S0 13.595 0 8.758 3.111 0 6.948 0 13.9 3.922 13.9 8.758" class="prefix__cls-7" data-name="Fill 737" transform="translate(13.621 4.18)"/>
        <path id="prefix__Fill_739" d="M7.188 17.995C3.225 17.995 0 13.958 0 9s3.225-9 7.188-9 7.187 4.036 7.187 9-3.224 8.995-7.187 8.995zm0-17.515C3.489.48.48 4.3.48 9s3.009 8.518 6.709 8.518S13.9 13.694 13.9 9 10.887.48 7.188.48z" class="prefix__cls-8" data-name="Fill 739" transform="translate(13.382 3.94)"/>
        <path id="prefix__Fill_741" d="M0 8.446q.259-2.157.574-4.389Q.867 1.993 1.191 0q3.48-.016 7.079.044 5.369.089 10.477.338.205 1.926.4 3.871.212 2.105.411 4.19" class="prefix__cls-7" data-name="Fill 741" transform="translate(10.492 54.08)"/>
        <path id="prefix__Fill_743" d="M.24 8.925H.211A.239.239 0 0 1 0 8.657C.176 7.2.369 5.724.576 4.264.77 2.9.978 1.535 1.195.205l.032-.2h.2c2.352-.013 4.737 0 7.084.043C12 .1 15.523.219 19 .386l.2.014.021.2q.206 1.928.4 3.872.213 2.106.412 4.192a.239.239 0 1 1-.477.046q-.2-2.085-.412-4.19-.186-1.84-.38-3.665C15.366.694 11.915.583 8.507.526 6.23.488 3.919.471 1.635.482c-.2 1.263-.4 2.557-.584 3.849C.844 5.788.652 7.263.478 8.714a.239.239 0 0 1-.238.211" class="prefix__cls-8" data-name="Fill 743" transform="translate(10.253 53.84)"/>
        <path id="prefix__Fill_745" d="M1.753 11.442c.68.215 1.253-.278 2.019-.622 2.127-.952 3.267.375 5.34-.057 3.016-.628 3.938-4.131 5.1-3.729 1.077.372.555 3.471 1.321 3.616.559.106 1.627-1.423 1.781-3.069.294-3.156-2.887-5.552-3.33-5.876A9.65 9.65 0 0 0 6.806.142a8.1 8.1 0 0 0-5.494 3.07A6.778 6.778 0 0 0 .49 9.691c.234.528.5 1.508 1.263 1.752" class="prefix__cls-3" data-name="Fill 745" transform="translate(11.811 .931)"/>
        <g id="prefix__Group_749" data-name="Group 749" transform="translate(11.051 .329)">
            <path id="prefix__Clip_748-2" d="M0 0h17.812v11.976H0z" class="prefix__cls-1" data-name="Clip 748" transform="translate(.521 .362)"/>
            <g id="prefix__Group_749-2" data-name="Group 749">
                <path id="prefix__Fill_747" d="M2.332 11.976a1.347 1.347 0 0 1-.412-.065c-.749-.239-1.065-1.029-1.3-1.606V10.3c-.038-.1-.076-.191-.112-.272a6.989 6.989 0 0 1 .846-6.714A8.351 8.351 0 0 1 7 .147 10.557 10.557 0 0 1 8.767 0a9.454 9.454 0 0 1 5.6 1.752c.624.457 3.724 2.9 3.427 6.092a4.819 4.819 0 0 1-1.45 3.089.868.868 0 0 1-.51.2.524.524 0 0 1-.1-.01c-.524-.1-.611-.849-.712-1.719V9.4c-.089-.776-.2-1.743-.641-1.895a.32.32 0 0 0-.1-.017c-.328 0-.713.473-1.2 1.072v.006A6.563 6.563 0 0 1 9.4 11.238a4.408 4.408 0 0 1-.916.1 7.4 7.4 0 0 1-1.533-.2h-.006a6.575 6.575 0 0 0-1.351-.182 3.526 3.526 0 0 0-1.485.33c-.173.077-.335.163-.492.246l-.033.017h-.005a2.743 2.743 0 0 1-1.247.427zM8.769.479a10.047 10.047 0 0 0-1.683.14 7.9 7.9 0 0 0-5.338 2.972 6.5 6.5 0 0 0-.8 6.242c.038.088.078.187.119.29.206.517.462 1.16 1 1.331a.866.866 0 0 0 .265.041 2.365 2.365 0 0 0 1.03-.376h.007c.174-.092.354-.187.546-.273a4.039 4.039 0 0 1 1.678-.373 7.018 7.018 0 0 1 1.45.193l.028.006a6.941 6.941 0 0 0 1.417.186 3.934 3.934 0 0 0 .816-.085 6.086 6.086 0 0 0 3.386-2.511C13.242 7.586 13.718 7 14.26 7a.829.829 0 0 1 .271.047c.724.25.849 1.333.96 2.288v.017c.055.474.148 1.268.325 1.3h.012a.452.452 0 0 0 .225-.107 4.366 4.366 0 0 0 1.26-2.75c.272-2.933-2.646-5.23-3.234-5.66A8.969 8.969 0 0 0 8.769.479z" class="prefix__cls-8" data-name="Fill 747" transform="translate(.521 .362)"/>
            </g>
        </g>
        <path id="prefix__Fill_750" d="M4.842 29.605c-1.018-.921-.073-2.792.4-6.836a35.741 35.741 0 0 0 .046-7.913c-4.089.4-4.936-.8-5.129-1.149-.551-.986.314-1.957 2.6-7.273C3.985 3.6 4.04 3.176 4.726 2.429A8.733 8.733 0 0 1 10.87 0a3.365 3.365 0 0 0 2.93 1.695A3.365 3.365 0 0 0 16.727 0c5.27.841 7.287 2.724 8.153 4.294.992 1.8.22 2.721 1.608 6.1 1.354 3.3 2.332 4.431 1.837 5.141-.23.33-.609.3-2.4.459-1.436.129-2.607.279-3.4.389.131 1.676.336 4.159.632 7.175.287 2.919 1.349 4.9.23 6.215a3.493 3.493 0 0 1-2.183 1.017c-3.164.572-4.554-1.66-7.809-2.26-4.467-.823-7.067 2.42-8.555 1.073" class="prefix__cls-7" data-name="Fill 750" transform="translate(6.34 24.168)"/>
        <path id="prefix__Fill_752" d="M20.446 31.387a7.626 7.626 0 0 1-3.6-1.121h-.007a11.355 11.355 0 0 0-3.245-1.23 7.919 7.919 0 0 0-1.437-.133 11.008 11.008 0 0 0-4.122.967 6.231 6.231 0 0 1-2.068.576 1.494 1.494 0 0 1-1.047-.4c-.781-.707-.566-1.838-.211-3.712l.007-.038c.167-.882.374-1.98.529-3.293a35.568 35.568 0 0 0 .07-7.623c-.465.039-.905.059-1.308.059-2.665 0-3.535-.847-3.817-1.352-.449-.805-.1-1.568.953-3.834v-.008c.432-.934.969-2.1 1.636-3.644.312-.724.543-1.279.71-1.682a6.873 6.873 0 0 1 1.3-2.39A8.782 8.782 0 0 1 11.1.023l.147-.006.072.128a3.122 3.122 0 0 0 2.72 1.573 3.124 3.124 0 0 0 2.72-1.573L16.84 0l.166.026c4.286.685 7.087 2.17 8.325 4.415A5.768 5.768 0 0 1 26 6.83a12.49 12.49 0 0 0 .955 3.737c.471 1.146.9 2.034 1.209 2.682.671 1.4 1.008 2.1.6 2.687-.255.366-.605.395-1.765.492h-.005c-.239.018-.511.042-.808.068-1.056.1-2.12.215-3.162.356.18 2.291.386 4.629.614 6.946a23.76 23.76 0 0 0 .415 2.505c.332 1.623.595 2.905-.241 3.887a3.7 3.7 0 0 1-2.32 1.1 5.888 5.888 0 0 1-1.046.097zm-8.272-2.967a8.379 8.379 0 0 1 1.506.139 11.794 11.794 0 0 1 3.38 1.278 7.156 7.156 0 0 0 3.384 1.071 5.431 5.431 0 0 0 .96-.089 3.26 3.26 0 0 0 2.041-.937c.684-.8.455-1.925.138-3.476a24.532 24.532 0 0 1-.424-2.559c-.234-2.388-.447-4.8-.632-7.18l-.017-.225.224-.032c1.139-.158 2.286-.29 3.407-.391.342-.031.627-.054.812-.069 1.044-.086 1.3-.113 1.416-.287.246-.353-.051-.972-.643-2.207l-.01-.022c-.334-.7-.749-1.561-1.21-2.685a12.96 12.96 0 0 1-.985-3.849v-.014a5.3 5.3 0 0 0-.608-2.213C23.762 2.591 21.13 1.2 17.089.526a3.627 3.627 0 0 1-3.05 1.674A3.627 3.627 0 0 1 10.977.509a8.255 8.255 0 0 0-5.834 2.345A6.469 6.469 0 0 0 3.94 5.1v.009c-.15.363-.387.934-.713 1.689-.679 1.564-1.215 2.722-1.646 3.653-1 2.16-1.3 2.812-.971 3.4.185.333.885 1.108 3.366 1.108.468 0 .982-.028 1.53-.082l.237-.023.026.238a36.09 36.09 0 0 1-.048 7.965c-.157 1.34-.368 2.454-.537 3.348v.014c-.336 1.768-.52 2.741.061 3.268a1.024 1.024 0 0 0 .73.269 5.978 5.978 0 0 0 1.888-.541 11.429 11.429 0 0 1 4.311-.995z" class="prefix__cls-8" data-name="Fill 752" transform="translate(6.1 23.905)"/>
        <path id="prefix__Fill_754" d="M6.9 0a6.471 6.471 0 0 1 2.424 2.125 6.433 6.433 0 0 1 1.054 4.049c-.182 2.7-2.232 6.514-5.305 6.413C2.6 12.505.061 9.9 0 6.349" class="prefix__cls-7" data-name="Fill 754" transform="translate(34.103 10.181)"/>
        <path id="prefix__Fill_756" d="M5.436 13.043h-.131C2.8 12.958.065 10.337 0 6.568l.479-.008c.06 3.5 2.552 5.927 4.841 6h.11c2.81 0 4.771-3.576 4.948-6.191a6.141 6.141 0 0 0-1.013-3.9A6.232 6.232 0 0 0 7.032.428L7.249 0a6.709 6.709 0 0 1 2.514 2.205 6.619 6.619 0 0 1 1.094 4.2c-.185 2.743-2.218 6.637-5.421 6.638" class="prefix__cls-8" data-name="Fill 756" transform="translate(33.864 9.967)"/>
        <path id="prefix__Fill_758" d="M.239 9.132a.24.24 0 0 1-.033-.477A13.566 13.566 0 0 0 5.261 6.89a12.161 12.161 0 0 0 1.853-1.341 11.126 11.126 0 0 0 3.2-5.373.242.242 0 0 1 .295-.168.24.24 0 0 1 .171.292 11.6 11.6 0 0 1-3.345 5.6 12.666 12.666 0 0 1-1.93 1.4A14.047 14.047 0 0 1 .273 9.13H.239" class="prefix__cls-8" data-name="Fill 758" transform="translate(33.654 7.632)"/>
        <path id="prefix__Fill_760" d="M0 6.413a13.508 13.508 0 0 0 3.877-1.3A10.986 10.986 0 0 0 6.273 3.5a10.569 10.569 0 0 0 1.961-2.332C7.8.58 7.191-.105 6.656.014c-.335.075-.491.433-.633.68-.77 1.341-2.286 1.466-3.56 2.279A6.235 6.235 0 0 0 0 6.413" class="prefix__cls-3" data-name="Fill 760" transform="translate(34.385 9.777)"/>
        <path id="prefix__Fill_762" d="M.775 7.119L0 0" class="prefix__cls-7" data-name="Fill 762" transform="translate(28.12 33.871)"/>
        <path id="prefix__Fill_764" d="M1.015 7.6a.24.24 0 0 1-.238-.215L0 .267A.24.24 0 0 1 .479.215l.775 7.118a.239.239 0 0 1-.213.264h-.026" class="prefix__cls-8" data-name="Fill 764" transform="translate(27.88 33.63)"/>
        <path id="prefix__Fill_766" d="M.3 3.286a17.561 17.561 0 0 1 .01-2.118C.333.759.372.37.421 0" class="prefix__cls-7" data-name="Fill 766" transform="translate(11.296 34.954)"/>
        <path id="prefix__Fill_768" d="M.3 3.767a.24.24 0 0 1-.239-.227 18.119 18.119 0 0 1 .01-2.148C.092 1 .132.6.183.21a.24.24 0 0 1 .476.063C.61.637.571 1.021.545 1.424a17.582 17.582 0 0 0-.01 2.09.24.24 0 0 1-.226.253H.3" class="prefix__cls-8" data-name="Fill 768" transform="translate(11.296 34.713)"/>
        <path id="prefix__Fill_770" d="M.24 8.39a.24.24 0 0 1-.171-.409 7.5 7.5 0 0 0 2-3.65A7.434 7.434 0 0 0 1.85.318.24.24 0 1 1 2.3.162a7.914 7.914 0 0 1 .237 4.273A7.981 7.981 0 0 1 .41 8.318a.24.24 0 0 1-.17.072" class="prefix__cls-8" data-name="Fill 770" transform="translate(4.959 52.003)"/>
        <path id="prefix__Fill_772" d="M.24 8.39a.237.237 0 0 1-.175-.077.24.24 0 0 1 .012-.339c1.582-1.473 2.254-2.659 2-3.524a2.233 2.233 0 0 0-.539-.827A2.263 2.263 0 0 1 .844 2.3 2.836 2.836 0 0 1 1.91.068a.24.24 0 0 1 .335.344 2.4 2.4 0 0 0-.924 1.839A1.807 1.807 0 0 0 1.9 3.306a2.617 2.617 0 0 1 .64 1.01C2.851 5.383 2.153 6.695.4 8.325a.238.238 0 0 1-.16.065" class="prefix__cls-8" data-name="Fill 772" transform="translate(2.126 51.25)"/>
        <path id="prefix__Fill_774" d="M2.49 8.39a.237.237 0 0 1-.17-.071A7.979 7.979 0 0 1 .189 4.434 7.907 7.907 0 0 1 .426.162.24.24 0 0 1 .88.317 7.437 7.437 0 0 0 2.66 7.98a.24.24 0 0 1-.17.41" class="prefix__cls-8" data-name="Fill 774" transform="translate(52.195 52.003)"/>
        <g id="prefix__Group_778" data-name="Group 778" transform="translate(54.563 50.748)">
            <path id="prefix__Clip_777-2" d="M0 0h2.61v8.39H0z" class="prefix__cls-1" data-name="Clip 777" transform="translate(.585 .501)"/>
            <g id="prefix__Group_778-2" data-name="Group 778">
                <path id="prefix__Fill_776" d="M2.37 8.39a.238.238 0 0 1-.164-.065C.457 6.694-.241 5.383.073 4.316a2.618 2.618 0 0 1 .64-1.01 1.806 1.806 0 0 0 .576-1.054A2.4 2.4 0 0 0 .365.411.24.24 0 1 1 .7.069 2.836 2.836 0 0 1 1.766 2.3a2.261 2.261 0 0 1-.694 1.327 2.233 2.233 0 0 0-.539.827c-.253.865.419 2.051 2 3.524a.24.24 0 0 1 .012.339.237.237 0 0 1-.175.077" class="prefix__cls-8" data-name="Fill 776" transform="translate(.585 .501)"/>
            </g>
        </g>
        <g id="prefix__Group_781" data-name="Group 781" transform="translate(12.432 48.676)" style="mix-blend-mode:multiply;isolation:isolate">
            <path id="prefix__Clip_780-2" d="M0 0h14.364v14.179H0z" class="prefix__cls-1" data-name="Clip 780" transform="translate(.643 .325)"/>
            <g id="prefix__Group_781-2" data-name="Group 781">
                <path id="prefix__Fill_779" d="M14.1 6.93a6.289 6.289 0 0 1-.659 5.1c-1.889 2.6-5.753 2.14-6.27 2.071C4.308 13.718.076 11.464 0 7.175A7.052 7.052 0 0 1 6.93 0c4.417-.076 6.627 4.47 7.17 6.93" data-name="Fill 779" transform="translate(.643 .325)" style="fill:rgba(218,206,253,.5)"/>
            </g>
        </g>
        <path id="prefix__Fill_782" d="M14.1 6.93a6.286 6.286 0 0 1-.659 5.1c-1.888 2.6-5.753 2.14-6.27 2.07C4.308 13.718.076 11.464 0 7.175A7.052 7.052 0 0 1 6.93 0c4.417-.076 6.627 4.47 7.17 6.93" data-name="Fill 782" transform="translate(31.22 47.164)" style="fill:rgba(218,206,253,.5);mix-blend-mode:multiply;isolation:isolate"/>
    </g>
</svg>
