<svg xmlns="http://www.w3.org/2000/svg" width="57.529" height="64.736" viewBox="0 0 57.529 64.736">
    <defs>
        <clipPath id="prefix__clip-path">
            <path id="prefix__Clip_148" d="M.124 0H.6v.72H.124z" class="prefix__cls-1" data-name="Clip 148" transform="translate(.092 .497)"/>
        </clipPath>
        <clipPath id="prefix__clip-path-2">
            <path id="prefix__Clip_297" d="M.012 0h.7v.873h-.7z" class="prefix__cls-1" data-name="Clip 297" transform="translate(.708 .575)"/>
        </clipPath>
        <clipPath id="prefix__clip-path-3">
            <path id="prefix__Clip_352" d="M.123 0H.6v.72H.123z" class="prefix__cls-1" data-name="Clip 352" transform="translate(.09 .659)"/>
        </clipPath>
        <clipPath id="prefix__clip-path-4">
            <path id="prefix__Clip_355" d="M.127 0h.465v1.061H.127z" class="prefix__cls-1" data-name="Clip 355" transform="translate(.095 .05)"/>
        </clipPath>
        <clipPath id="prefix__clip-path-5">
            <path id="prefix__Clip_492" d="M.01 0h.7v.871h-.7z" class="prefix__cls-1" data-name="Clip 492" transform="translate(.71 .424)"/>
        </clipPath>
        <clipPath id="prefix__clip-path-6">
            <path id="prefix__Clip_495" d="M.017 0H.7v1.686H.017z" class="prefix__cls-1" data-name="Clip 495" transform="translate(.703 .453)"/>
        </clipPath>
        <style>
            .prefix__cls-1,.prefix__cls-11,.prefix__cls-12{fill:none}.prefix__cls-3{fill:#c5eb8c}.prefix__cls-10{fill:#fff}.prefix__cls-11,.prefix__cls-12{stroke:#2d2d2d;stroke-miterlimit:10;stroke-width:.504px}.prefix__cls-12{stroke-linecap:round}
        </style>
    </defs>
    <g id="prefix__ic_breast_feeding" transform="translate(-.72 -.717)">
        <g id="prefix__Group_685" data-name="Group 685" transform="translate(0 5.733)" style="opacity:.4">
            <path id="prefix__Fill_1" d="M.914 1.828A.913.913 0 0 1 .917 0a.914.914 0 1 0 0 1.828" class="prefix__cls-3" data-name="Fill 1" transform="translate(28.788 .318)"/>
            <path id="prefix__Fill_3" d="M.914 1.828A.914.914 0 1 0 0 .914a.915.915 0 0 0 .914.914" class="prefix__cls-3" data-name="Fill 3" transform="translate(32.445 .318)"/>
            <path id="prefix__Fill_5" d="M.914 1.335a.91.91 0 0 0 .907-.876C1.261.287.691.137.117 0A.883.883 0 0 0 0 .421a.915.915 0 0 0 .914.915" class="prefix__cls-3" data-name="Fill 5" transform="translate(36.1 .811)"/>
            <path id="prefix__Fill_7" d="M.914 1.828A.914.914 0 1 0 0 .914a.914.914 0 0 0 .914.914" class="prefix__cls-3" data-name="Fill 7" transform="translate(30.616 3.06)"/>
            <path id="prefix__Fill_9" d="M.914 1.828A.914.914 0 1 0 0 .914a.914.914 0 0 0 .914.914" class="prefix__cls-3" data-name="Fill 9" transform="translate(34.272 3.06)"/>
            <path id="prefix__Fill_11" d="M.914 1.828A.914.914 0 1 0 0 .914a.914.914 0 0 0 .914.914" class="prefix__cls-3" data-name="Fill 11" transform="translate(37.928 3.06)"/>
            <path id="prefix__Fill_13" d="M0 .9a.914.914 0 1 0 1.828 0A.89.89 0 0 0 1.7.454C1.41.3 1.117.148.823 0A.906.906 0 0 0 0 .9" class="prefix__cls-3" data-name="Fill 13" transform="translate(41.584 3.078)"/>
            <path id="prefix__Fill_15" d="M.006.914A.914.914 0 0 1 .917 0a.914.914 0 1 0 0 1.828.914.914 0 0 1-.911-.914" class="prefix__cls-3" data-name="Fill 15" transform="translate(28.788 5.802)"/>
            <path id="prefix__Fill_17" d="M.914 0a.914.914 0 1 0 .914.914A.914.914 0 0 0 .914 0" class="prefix__cls-3" data-name="Fill 17" transform="translate(32.445 5.802)"/>
            <path id="prefix__Fill_19" d="M.914 1.828A.914.914 0 1 0 0 .913a.914.914 0 0 0 .914.915" class="prefix__cls-3" data-name="Fill 19" transform="translate(36.1 5.802)"/>
            <path id="prefix__Fill_21" d="M.914 1.828A.914.914 0 1 0 0 .913a.914.914 0 0 0 .914.915" class="prefix__cls-3" data-name="Fill 21" transform="translate(39.756 5.802)"/>
            <path id="prefix__Fill_23" d="M.914 1.828A.914.914 0 1 0 0 .913a.914.914 0 0 0 .914.915" class="prefix__cls-3" data-name="Fill 23" transform="translate(43.411 5.802)"/>
            <path id="prefix__Fill_25" d="M.914 1.456a.906.906 0 0 0 .668-.3C1.134.755.671.372.2 0a.891.891 0 0 0-.2.541.914.914 0 0 0 .914.915" class="prefix__cls-3" data-name="Fill 25" transform="translate(47.067 6.174)"/>
            <path id="prefix__Fill_27" d="M.914 0a.914.914 0 1 0 .914.914A.914.914 0 0 0 .914 0" class="prefix__cls-3" data-name="Fill 27" transform="translate(30.616 8.544)"/>
            <path id="prefix__Fill_29" d="M.914 0a.914.914 0 1 0 .914.914A.914.914 0 0 0 .914 0" class="prefix__cls-3" data-name="Fill 29" transform="translate(34.272 8.544)"/>
            <path id="prefix__Fill_31" d="M.914 0a.914.914 0 1 0 .914.914A.914.914 0 0 0 .914 0" class="prefix__cls-3" data-name="Fill 31" transform="translate(37.928 8.544)"/>
            <path id="prefix__Fill_33" d="M.914 1.828A.914.914 0 1 0 0 .914a.914.914 0 0 0 .914.914" class="prefix__cls-3" data-name="Fill 33" transform="translate(41.584 8.544)"/>
            <path id="prefix__Fill_35" d="M.914 1.828A.914.914 0 1 0 0 .914a.914.914 0 0 0 .914.914" class="prefix__cls-3" data-name="Fill 35" transform="translate(45.24 8.544)"/>
            <path id="prefix__Fill_37" d="M0 .914a.914.914 0 1 0 1.828 0 .944.944 0 0 0-.019-.1Q1.441.415 1.059.03A.9.9 0 0 0 .914 0 .914.914 0 0 0 0 .914" class="prefix__cls-3" data-name="Fill 37" transform="translate(48.896 8.544)"/>
            <path id="prefix__Fill_39" d="M.006.914A.914.914 0 0 1 .917 0a.914.914 0 1 0 0 1.828.914.914 0 0 1-.911-.914" class="prefix__cls-3" data-name="Fill 39" transform="translate(28.788 11.285)"/>
            <path id="prefix__Fill_41" d="M.914 1.828A.914.914 0 1 0 0 .914a.914.914 0 0 0 .914.914" class="prefix__cls-3" data-name="Fill 41" transform="translate(32.445 11.286)"/>
            <path id="prefix__Fill_43" d="M.914 0a.914.914 0 1 0 .914.914A.915.915 0 0 0 .914 0" class="prefix__cls-3" data-name="Fill 43" transform="translate(36.1 11.286)"/>
            <path id="prefix__Fill_45" d="M.914 0a.914.914 0 1 0 .914.914A.915.915 0 0 0 .914 0" class="prefix__cls-3" data-name="Fill 45" transform="translate(39.756 11.286)"/>
            <path id="prefix__Fill_47" d="M.914 0a.914.914 0 1 0 .914.914A.915.915 0 0 0 .914 0" class="prefix__cls-3" data-name="Fill 47" transform="translate(43.411 11.286)"/>
            <path id="prefix__Fill_49" d="M.914 1.828A.914.914 0 1 0 0 .914a.914.914 0 0 0 .914.914" class="prefix__cls-3" data-name="Fill 49" transform="translate(47.067 11.286)"/>
            <path id="prefix__Fill_51" d="M.914 1.828A.914.914 0 1 0 0 .914a.914.914 0 0 0 .914.914" class="prefix__cls-3" data-name="Fill 51" transform="translate(50.723 11.286)"/>
            <path id="prefix__Fill_53" d="M.914 0a.914.914 0 1 0 .914.914A.914.914 0 0 0 .914 0" class="prefix__cls-3" data-name="Fill 53" transform="translate(30.616 14.027)"/>
            <path id="prefix__Fill_55" d="M.914 0a.914.914 0 1 0 .914.914A.914.914 0 0 0 .914 0" class="prefix__cls-3" data-name="Fill 55" transform="translate(34.272 14.027)"/>
            <path id="prefix__Fill_57" d="M.914 1.828A.914.914 0 1 0 0 .914a.914.914 0 0 0 .914.914" class="prefix__cls-3" data-name="Fill 57" transform="translate(37.928 14.027)"/>
            <path id="prefix__Fill_59" d="M.914 0a.914.914 0 1 0 .914.914A.914.914 0 0 0 .914 0" class="prefix__cls-3" data-name="Fill 59" transform="translate(41.584 14.027)"/>
            <path id="prefix__Fill_61" d="M.914 0a.914.914 0 1 0 .914.914A.914.914 0 0 0 .914 0" class="prefix__cls-3" data-name="Fill 61" transform="translate(45.24 14.027)"/>
            <path id="prefix__Fill_63" d="M.914 1.828A.914.914 0 1 0 0 .914a.914.914 0 0 0 .914.914" class="prefix__cls-3" data-name="Fill 63" transform="translate(48.896 14.027)"/>
            <path id="prefix__Fill_65" d="M.914 1.828A.914.914 0 1 0 0 .914a.914.914 0 0 0 .914.914" class="prefix__cls-3" data-name="Fill 65" transform="translate(52.552 14.027)"/>
            <path id="prefix__Fill_67" d="M.006.914A.914.914 0 0 1 .917 0a.914.914 0 1 0 0 1.828.914.914 0 0 1-.911-.914" class="prefix__cls-3" data-name="Fill 67" transform="translate(28.788 16.77)"/>
            <path id="prefix__Fill_69" d="M.914 0a.914.914 0 1 0 .914.914A.914.914 0 0 0 .914 0" class="prefix__cls-3" data-name="Fill 69" transform="translate(32.445 16.77)"/>
            <path id="prefix__Fill_71" d="M.914 0a.914.914 0 1 0 .914.914A.914.914 0 0 0 .914 0" class="prefix__cls-3" data-name="Fill 71" transform="translate(36.1 16.77)"/>
            <path id="prefix__Fill_73" d="M.914 0a.914.914 0 1 0 .914.914A.914.914 0 0 0 .914 0" class="prefix__cls-3" data-name="Fill 73" transform="translate(39.756 16.77)"/>
            <path id="prefix__Fill_75" d="M.914 1.828A.914.914 0 1 0 0 .913a.914.914 0 0 0 .914.915" class="prefix__cls-3" data-name="Fill 75" transform="translate(43.411 16.77)"/>
            <path id="prefix__Fill_77" d="M.914 0a.914.914 0 1 0 .914.914A.914.914 0 0 0 .914 0" class="prefix__cls-3" data-name="Fill 77" transform="translate(47.067 16.77)"/>
            <path id="prefix__Fill_79" d="M.914 0a.914.914 0 1 0 .914.914A.914.914 0 0 0 .914 0" class="prefix__cls-3" data-name="Fill 79" transform="translate(50.723 16.77)"/>
            <path id="prefix__Fill_81" d="M0 .914a.908.908 0 0 0 1.768.3Q1.535.639 1.277.077A.911.911 0 0 0 0 .914" class="prefix__cls-3" data-name="Fill 81" transform="translate(54.379 16.77)"/>
            <path id="prefix__Fill_83" d="M.914 0a.914.914 0 1 0 .914.914A.914.914 0 0 0 .914 0" class="prefix__cls-3" data-name="Fill 83" transform="translate(30.616 19.512)"/>
            <path id="prefix__Fill_85" d="M.914 1.828A.914.914 0 1 0 0 .913a.914.914 0 0 0 .914.915" class="prefix__cls-3" data-name="Fill 85" transform="translate(34.272 19.512)"/>
            <path id="prefix__Fill_87" d="M.914 0a.914.914 0 1 0 .914.914A.914.914 0 0 0 .914 0" class="prefix__cls-3" data-name="Fill 87" transform="translate(37.928 19.512)"/>
            <path id="prefix__Fill_89" d="M.914 0a.914.914 0 1 0 .914.914A.914.914 0 0 0 .914 0" class="prefix__cls-3" data-name="Fill 89" transform="translate(41.584 19.512)"/>
            <path id="prefix__Fill_91" d="M.914 0a.914.914 0 1 0 .914.914A.914.914 0 0 0 .914 0" class="prefix__cls-3" data-name="Fill 91" transform="translate(45.24 19.512)"/>
            <path id="prefix__Fill_93" d="M.914 0a.914.914 0 1 0 .914.914A.914.914 0 0 0 .914 0" class="prefix__cls-3" data-name="Fill 93" transform="translate(48.896 19.512)"/>
            <path id="prefix__Fill_95" d="M.914 0a.914.914 0 1 0 .914.914A.914.914 0 0 0 .914 0" class="prefix__cls-3" data-name="Fill 95" transform="translate(52.552 19.512)"/>
            <path id="prefix__Fill_97" d="M0 .827a.914.914 0 0 0 .914.914.787.787 0 0 0 .142-.03C.9 1.133.726.563.536 0A.91.91 0 0 0 0 .827" class="prefix__cls-3" data-name="Fill 97" transform="translate(56.208 19.598)"/>
            <path id="prefix__Fill_99" d="M.914 1.828A.913.913 0 0 1 .917 0a.914.914 0 1 0 0 1.828" class="prefix__cls-3" data-name="Fill 99" transform="translate(28.788 22.253)"/>
            <path id="prefix__Fill_101" d="M.914 0a.914.914 0 1 0 .914.914A.914.914 0 0 0 .914 0" class="prefix__cls-3" data-name="Fill 101" transform="translate(32.445 22.253)"/>
            <path id="prefix__Fill_103" d="M.914 0a.914.914 0 1 0 .914.914A.914.914 0 0 0 .914 0" class="prefix__cls-3" data-name="Fill 103" transform="translate(36.1 22.253)"/>
            <path id="prefix__Fill_105" d="M.914 1.828A.914.914 0 1 0 0 .914a.915.915 0 0 0 .914.914" class="prefix__cls-3" data-name="Fill 105" transform="translate(39.756 22.253)"/>
            <path id="prefix__Fill_107" d="M.914 0a.914.914 0 1 0 .914.914A.914.914 0 0 0 .914 0" class="prefix__cls-3" data-name="Fill 107" transform="translate(43.411 22.253)"/>
            <path id="prefix__Fill_109" d="M.914 0a.914.914 0 1 0 .914.914A.914.914 0 0 0 .914 0" class="prefix__cls-3" data-name="Fill 109" transform="translate(47.067 22.253)"/>
            <path id="prefix__Fill_111" d="M.914 1.828A.914.914 0 1 0 0 .914a.915.915 0 0 0 .914.914" class="prefix__cls-3" data-name="Fill 111" transform="translate(50.723 22.253)"/>
            <path id="prefix__Fill_113" d="M.914 1.828A.914.914 0 1 0 0 .914a.915.915 0 0 0 .914.914" class="prefix__cls-3" data-name="Fill 113" transform="translate(54.379 22.253)"/>
            <path id="prefix__Fill_115" d="M.914 0a.914.914 0 1 0 .914.914A.914.914 0 0 0 .914 0" class="prefix__cls-3" data-name="Fill 115" transform="translate(30.616 24.995)"/>
            <path id="prefix__Fill_117" d="M.914 0a.914.914 0 1 0 .914.914A.914.914 0 0 0 .914 0" class="prefix__cls-3" data-name="Fill 117" transform="translate(34.272 24.995)"/>
            <path id="prefix__Fill_119" d="M.914 0a.914.914 0 1 0 .914.914A.914.914 0 0 0 .914 0" class="prefix__cls-3" data-name="Fill 119" transform="translate(37.928 24.995)"/>
            <path id="prefix__Fill_121" d="M.914 1.828A.914.914 0 1 0 0 .914a.914.914 0 0 0 .914.914" class="prefix__cls-3" data-name="Fill 121" transform="translate(41.584 24.995)"/>
            <path id="prefix__Fill_123" d="M.914 1.828A.914.914 0 1 0 0 .914a.914.914 0 0 0 .914.914" class="prefix__cls-3" data-name="Fill 123" transform="translate(45.24 24.995)"/>
            <path id="prefix__Fill_125" d="M.914 0a.914.914 0 1 0 .914.914A.914.914 0 0 0 .914 0" class="prefix__cls-3" data-name="Fill 125" transform="translate(48.896 24.995)"/>
            <path id="prefix__Fill_127" d="M.914 0a.914.914 0 1 0 .914.914A.914.914 0 0 0 .914 0" class="prefix__cls-3" data-name="Fill 127" transform="translate(52.552 24.995)"/>
            <path id="prefix__Fill_129" d="M.914 1.828A.914.914 0 1 0 0 .914a.914.914 0 0 0 .914.914" class="prefix__cls-3" data-name="Fill 129" transform="translate(56.207 24.995)"/>
            <path id="prefix__Fill_131" d="M.006.015S0 .005 0 0a.151.151 0 0 0 0 .015.915.915 0 0 0 .914.915.914.914 0 0 1-.908-.915" class="prefix__cls-3" data-name="Fill 131" transform="translate(28.788 28.636)"/>
            <path id="prefix__Fill_133" d="M.914.929a.914.914 0 0 0 .914-.915V0a.914.914 0 0 1-.914.9A.913.913 0 0 1 0 0v.014a.914.914 0 0 0 .914.915" class="prefix__cls-3" data-name="Fill 133" transform="translate(32.445 28.636)"/>
            <path id="prefix__Fill_135" d="M.914.9A.914.914 0 0 1 0 0v.015a.914.914 0 0 0 .914.914.914.914 0 0 0 .915-.914V0a.914.914 0 0 1-.915.9" class="prefix__cls-3" data-name="Fill 135" transform="translate(36.1 28.636)"/>
            <path id="prefix__Fill_137" d="M.914.9A.913.913 0 0 1 0 0v.015a.915.915 0 0 0 1.829 0V0a.914.914 0 0 1-.915.9" class="prefix__cls-3" data-name="Fill 137" transform="translate(39.756 28.636)"/>
            <path id="prefix__Fill_139" d="M1.825 0a.913.913 0 0 1-.911.9A.913.913 0 0 1 0 0v.015a.914.914 0 0 0 .914.914.913.913 0 0 0 .914-.914V0" class="prefix__cls-3" data-name="Fill 139" transform="translate(43.412 28.636)"/>
            <path id="prefix__Fill_141" d="M.914.929a.914.914 0 0 0 .915-.915V0a.913.913 0 0 1-.915.9A.913.913 0 0 1 0 0v.014a.914.914 0 0 0 .914.915" class="prefix__cls-3" data-name="Fill 141" transform="translate(47.067 28.636)"/>
            <path id="prefix__Fill_143" d="M1.825 0a.913.913 0 0 1-.911.9A.913.913 0 0 1 0 0v.015a.914.914 0 0 0 .914.914.914.914 0 0 0 .914-.914V0" class="prefix__cls-3" data-name="Fill 143" transform="translate(50.724 28.636)"/>
            <path id="prefix__Fill_145" d="M.914.9A.914.914 0 0 1 0 0v.015a.915.915 0 0 0 1.829 0 .151.151 0 0 0 0-.015.913.913 0 0 1-.915.9" class="prefix__cls-3" data-name="Fill 145" transform="translate(54.379 28.636)"/>
            <g id="prefix__Group_149" data-name="Group 149" transform="translate(57.561 28.061)">
                <path id="prefix__Clip_148-2" d="M.124 0H.6v.72H.124z" class="prefix__cls-1" data-name="Clip 148" transform="translate(.092 .497)"/>
                <g id="prefix__Group_149-2" data-name="Group 149">
                    <path id="prefix__Fill_147" d="M.259.093a.9.9 0 0 0 .2.549V.614a.9.9 0 0 1-.2-.536v.015" class="prefix__cls-3" data-name="Fill 147" transform="translate(.216 .497)"/>
                </g>
            </g>
            <path id="prefix__Fill_150" d="M.776.2L0 .5C.032.5.059.518.091.518A.9.9 0 0 0 .776.2" class="prefix__cls-3" data-name="Fill 150" transform="translate(18.649 1.624)"/>
            <path id="prefix__Fill_152" d="M.914 1.424a.915.915 0 0 0 .915-.915A.886.886 0 0 0 1.652 0Q.826.186.019.419A.9.9 0 0 0 0 .509a.914.914 0 0 0 .914.915" class="prefix__cls-3" data-name="Fill 152" transform="translate(21.482 .722)"/>
            <path id="prefix__Fill_154" d="M.914 1.828A.914.914 0 1 0 0 .914a.914.914 0 0 0 .914.914" class="prefix__cls-3" data-name="Fill 154" transform="translate(25.138 .318)"/>
            <path id="prefix__Fill_156" d="M.912.914A.914.914 0 0 1 0 1.828.915.915 0 0 0 .917.914.915.915 0 0 0 0 0a.914.914 0 0 1 .912.914" class="prefix__cls-3" data-name="Fill 156" transform="translate(29.705 .318)"/>
            <path id="prefix__Fill_158" d="M0 .914A.911.911 0 1 0 .912 0 .914.914 0 0 0 0 .914" class="prefix__cls-3" data-name="Fill 158" transform="translate(28.794 .318)"/>
            <path id="prefix__Fill_160" d="M.549.239L.17.481A.9.9 0 0 0 .549.239" class="prefix__cls-3" data-name="Fill 160" transform="translate(13.377 4.348)"/>
            <path id="prefix__Fill_162" d="M.914 1.828A.914.914 0 1 0 0 .914a.914.914 0 0 0 .914.914" class="prefix__cls-3" data-name="Fill 162" transform="translate(15.998 3.06)"/>
            <path id="prefix__Fill_164" d="M.914 1.828A.914.914 0 1 0 0 .914a.914.914 0 0 0 .914.914" class="prefix__cls-3" data-name="Fill 164" transform="translate(19.654 3.06)"/>
            <path id="prefix__Fill_166" d="M.914 1.828A.914.914 0 1 0 0 .914a.914.914 0 0 0 .914.914" class="prefix__cls-3" data-name="Fill 166" transform="translate(23.31 3.06)"/>
            <path id="prefix__Fill_168" d="M.914 1.828A.914.914 0 1 0 0 .914a.914.914 0 0 0 .914.914" class="prefix__cls-3" data-name="Fill 168" transform="translate(26.965 3.06)"/>
            <path id="prefix__Fill_170" d="M.83 1.648a.914.914 0 0 0 .915-.915A.9.9 0 0 0 1.348 0Q.656.533 0 1.107a.911.911 0 0 0 .83.541" class="prefix__cls-3" data-name="Fill 170" transform="translate(10.598 5.982)"/>
            <path id="prefix__Fill_172" d="M.914 1.828A.914.914 0 1 0 0 .913a.914.914 0 0 0 .914.915" class="prefix__cls-3" data-name="Fill 172" transform="translate(14.17 5.802)"/>
            <path id="prefix__Fill_174" d="M.914 1.828A.914.914 0 1 0 0 .913a.914.914 0 0 0 .914.915" class="prefix__cls-3" data-name="Fill 174" transform="translate(17.826 5.802)"/>
            <path id="prefix__Fill_176" d="M.914 1.828A.914.914 0 1 0 0 .913a.914.914 0 0 0 .914.915" class="prefix__cls-3" data-name="Fill 176" transform="translate(21.482 5.802)"/>
            <path id="prefix__Fill_178" d="M.914 0a.914.914 0 1 0 .914.914A.914.914 0 0 0 .914 0" class="prefix__cls-3" data-name="Fill 178" transform="translate(25.138 5.802)"/>
            <path id="prefix__Fill_180" d="M0 0a.914.914 0 0 1 .912.914.914.914 0 0 1-.912.913A.914.914 0 1 0 0 0" class="prefix__cls-3" data-name="Fill 180" transform="translate(29.705 5.802)"/>
            <path id="prefix__Fill_182" d="M1.823.914a.911.911 0 1 0-.912.914.914.914 0 0 0 .912-.914" class="prefix__cls-3" data-name="Fill 182" transform="translate(28.794 5.802)"/>
            <path id="prefix__Fill_184" d="M.914 1.828A.914.914 0 1 0 0 .914a.914.914 0 0 0 .914.914" class="prefix__cls-3" data-name="Fill 184" transform="translate(8.687 8.544)"/>
            <path id="prefix__Fill_186" d="M.914 1.828A.914.914 0 1 0 0 .914a.914.914 0 0 0 .914.914" class="prefix__cls-3" data-name="Fill 186" transform="translate(12.342 8.544)"/>
            <path id="prefix__Fill_188" d="M.914 0a.914.914 0 1 0 .914.914A.914.914 0 0 0 .914 0" class="prefix__cls-3" data-name="Fill 188" transform="translate(15.998 8.544)"/>
            <path id="prefix__Fill_190" d="M.914 0a.914.914 0 1 0 .914.914A.914.914 0 0 0 .914 0" class="prefix__cls-3" data-name="Fill 190" transform="translate(19.654 8.544)"/>
            <path id="prefix__Fill_192" d="M.914 0a.914.914 0 1 0 .914.914A.914.914 0 0 0 .914 0" class="prefix__cls-3" data-name="Fill 192" transform="translate(23.31 8.544)"/>
            <path id="prefix__Fill_194" d="M.914 0a.914.914 0 1 0 .914.914A.914.914 0 0 0 .914 0" class="prefix__cls-3" data-name="Fill 194" transform="translate(26.965 8.544)"/>
            <path id="prefix__Fill_196" d="M.914 1.828A.914.914 0 1 0 0 .914a.914.914 0 0 0 .914.914" class="prefix__cls-3" data-name="Fill 196" transform="translate(6.858 11.286)"/>
            <path id="prefix__Fill_198" d="M.914 1.828A.914.914 0 1 0 0 .914a.914.914 0 0 0 .914.914" class="prefix__cls-3" data-name="Fill 198" transform="translate(10.514 11.286)"/>
            <path id="prefix__Fill_200" d="M.914 0a.914.914 0 1 0 .914.914A.914.914 0 0 0 .914 0" class="prefix__cls-3" data-name="Fill 200" transform="translate(14.17 11.286)"/>
            <path id="prefix__Fill_202" d="M.914 0a.914.914 0 1 0 .914.914A.915.915 0 0 0 .914 0" class="prefix__cls-3" data-name="Fill 202" transform="translate(17.826 11.286)"/>
            <path id="prefix__Fill_204" d="M.914 0a.914.914 0 1 0 .914.914A.914.914 0 0 0 .914 0" class="prefix__cls-3" data-name="Fill 204" transform="translate(21.482 11.286)"/>
            <path id="prefix__Fill_206" d="M.914 1.828A.914.914 0 1 0 0 .914a.914.914 0 0 0 .914.914" class="prefix__cls-3" data-name="Fill 206" transform="translate(25.138 11.286)"/>
            <path id="prefix__Fill_208" d="M0 0a.914.914 0 0 1 .912.914.914.914 0 0 1-.912.914.914.914 0 0 0 .917-.914A.915.915 0 0 0 0 0" class="prefix__cls-3" data-name="Fill 208" transform="translate(29.705 11.286)"/>
            <path id="prefix__Fill_210" d="M1.823.914a.911.911 0 1 0-.912.914.914.914 0 0 0 .912-.914" class="prefix__cls-3" data-name="Fill 210" transform="translate(28.794 11.286)"/>
            <path id="prefix__Fill_212" d="M.914 1.828A.914.914 0 1 0 0 .914a.914.914 0 0 0 .914.914" class="prefix__cls-3" data-name="Fill 212" transform="translate(5.031 14.027)"/>
            <path id="prefix__Fill_214" d="M.914 0a.914.914 0 1 0 .914.914A.914.914 0 0 0 .914 0" class="prefix__cls-3" data-name="Fill 214" transform="translate(8.687 14.027)"/>
            <path id="prefix__Fill_216" d="M.914 0a.914.914 0 1 0 .914.914A.914.914 0 0 0 .914 0" class="prefix__cls-3" data-name="Fill 216" transform="translate(12.342 14.027)"/>
            <path id="prefix__Fill_218" d="M.914 1.828A.914.914 0 1 0 0 .914a.914.914 0 0 0 .914.914" class="prefix__cls-3" data-name="Fill 218" transform="translate(15.998 14.027)"/>
            <path id="prefix__Fill_220" d="M.914 1.828A.914.914 0 1 0 0 .914a.914.914 0 0 0 .914.914" class="prefix__cls-3" data-name="Fill 220" transform="translate(19.654 14.027)"/>
            <path id="prefix__Fill_222" d="M.914 1.828A.914.914 0 1 0 0 .914a.914.914 0 0 0 .914.914" class="prefix__cls-3" data-name="Fill 222" transform="translate(23.31 14.027)"/>
            <path id="prefix__Fill_224" d="M.914 0a.914.914 0 1 0 .914.914A.915.915 0 0 0 .914 0" class="prefix__cls-3" data-name="Fill 224" transform="translate(26.965 14.027)"/>
            <path id="prefix__Fill_226" d="M.914 1.828A.914.914 0 1 0 0 .913a.914.914 0 0 0 .914.915" class="prefix__cls-3" data-name="Fill 226" transform="translate(3.202 16.77)"/>
            <path id="prefix__Fill_228" d="M.914 0a.914.914 0 1 0 .914.914A.914.914 0 0 0 .914 0" class="prefix__cls-3" data-name="Fill 228" transform="translate(6.858 16.77)"/>
            <path id="prefix__Fill_230" d="M.914 0a.914.914 0 1 0 .914.914A.914.914 0 0 0 .914 0" class="prefix__cls-3" data-name="Fill 230" transform="translate(10.514 16.77)"/>
            <path id="prefix__Fill_232" d="M.914 1.828A.914.914 0 1 0 0 .913a.914.914 0 0 0 .914.915" class="prefix__cls-3" data-name="Fill 232" transform="translate(14.17 16.77)"/>
            <path id="prefix__Fill_234" d="M.914 0a.914.914 0 1 0 .914.914A.914.914 0 0 0 .914 0" class="prefix__cls-3" data-name="Fill 234" transform="translate(17.826 16.77)"/>
            <path id="prefix__Fill_236" d="M.914 0a.914.914 0 1 0 .914.914A.914.914 0 0 0 .914 0" class="prefix__cls-3" data-name="Fill 236" transform="translate(21.482 16.77)"/>
            <path id="prefix__Fill_238" d="M.914 0a.914.914 0 1 0 .914.914A.914.914 0 0 0 .914 0" class="prefix__cls-3" data-name="Fill 238" transform="translate(25.138 16.77)"/>
            <path id="prefix__Fill_240" d="M0 0a.914.914 0 0 1 .912.914.914.914 0 0 1-.912.913A.914.914 0 1 0 0 0" class="prefix__cls-3" data-name="Fill 240" transform="translate(29.705 16.77)"/>
            <path id="prefix__Fill_242" d="M1.823.914a.911.911 0 1 0-.912.914.914.914 0 0 0 .912-.914" class="prefix__cls-3" data-name="Fill 242" transform="translate(28.794 16.77)"/>
            <path id="prefix__Fill_244" d="M1.453.914A.914.914 0 0 0 .538 0C.525 0 .513.007.5.008Q.227.81 0 1.633a.894.894 0 0 0 .538.195.914.914 0 0 0 .915-.914" class="prefix__cls-3" data-name="Fill 244" transform="translate(1.75 19.511)"/>
            <path id="prefix__Fill_246" d="M.914 0a.914.914 0 1 0 .914.914A.914.914 0 0 0 .914 0" class="prefix__cls-3" data-name="Fill 246" transform="translate(5.031 19.512)"/>
            <path id="prefix__Fill_248" d="M.914 1.828A.914.914 0 1 0 0 .913a.914.914 0 0 0 .914.915" class="prefix__cls-3" data-name="Fill 248" transform="translate(8.687 19.512)"/>
            <path id="prefix__Fill_250" d="M.914 1.828A.914.914 0 1 0 0 .913a.914.914 0 0 0 .914.915" class="prefix__cls-3" data-name="Fill 250" transform="translate(12.342 19.512)"/>
            <path id="prefix__Fill_252" d="M.914 0a.914.914 0 1 0 .914.914A.914.914 0 0 0 .914 0" class="prefix__cls-3" data-name="Fill 252" transform="translate(15.998 19.512)"/>
            <path id="prefix__Fill_254" d="M.914 0a.914.914 0 1 0 .914.914A.914.914 0 0 0 .914 0" class="prefix__cls-3" data-name="Fill 254" transform="translate(19.654 19.512)"/>
            <path id="prefix__Fill_256" d="M.914 0a.914.914 0 1 0 .914.914A.914.914 0 0 0 .914 0" class="prefix__cls-3" data-name="Fill 256" transform="translate(23.31 19.512)"/>
            <path id="prefix__Fill_258" d="M.914 1.828A.914.914 0 1 0 0 .913a.914.914 0 0 0 .914.915" class="prefix__cls-3" data-name="Fill 258" transform="translate(26.965 19.512)"/>
            <path id="prefix__Fill_260" d="M.408 0C.352.271.306.544.258.817a.9.9 0 0 0 .2-.551A.907.907 0 0 0 .408 0" class="prefix__cls-3" data-name="Fill 260" transform="translate(.913 22.901)"/>
            <path id="prefix__Fill_262" d="M.914 1.828A.914.914 0 1 0 0 .914a.915.915 0 0 0 .914.914" class="prefix__cls-3" data-name="Fill 262" transform="translate(3.202 22.253)"/>
            <path id="prefix__Fill_264" d="M.914 1.828A.914.914 0 1 0 0 .914a.915.915 0 0 0 .914.914" class="prefix__cls-3" data-name="Fill 264" transform="translate(6.858 22.253)"/>
            <path id="prefix__Fill_266" d="M.914 0a.914.914 0 1 0 .914.914A.914.914 0 0 0 .914 0" class="prefix__cls-3" data-name="Fill 266" transform="translate(10.514 22.253)"/>
            <path id="prefix__Fill_268" d="M.914 0a.914.914 0 1 0 .914.914A.914.914 0 0 0 .914 0" class="prefix__cls-3" data-name="Fill 268" transform="translate(14.17 22.253)"/>
            <path id="prefix__Fill_270" d="M.914 1.828A.914.914 0 1 0 0 .914a.915.915 0 0 0 .914.914" class="prefix__cls-3" data-name="Fill 270" transform="translate(17.826 22.253)"/>
            <path id="prefix__Fill_272" d="M.914 1.828A.914.914 0 1 0 0 .914a.915.915 0 0 0 .914.914" class="prefix__cls-3" data-name="Fill 272" transform="translate(21.482 22.253)"/>
            <path id="prefix__Fill_274" d="M.914 1.828A.914.914 0 1 0 0 .914a.914.914 0 0 0 .914.914" class="prefix__cls-3" data-name="Fill 274" transform="translate(25.138 22.253)"/>
            <path id="prefix__Fill_276" d="M.912.914A.914.914 0 0 1 0 1.828.915.915 0 0 0 .917.914.915.915 0 0 0 0 0a.914.914 0 0 1 .912.914" class="prefix__cls-3" data-name="Fill 276" transform="translate(29.705 22.253)"/>
            <path id="prefix__Fill_278" d="M0 .914A.911.911 0 1 0 .912 0 .914.914 0 0 0 0 .914" class="prefix__cls-3" data-name="Fill 278" transform="translate(28.794 22.254)"/>
            <path id="prefix__Fill_280" d="M.914 1.828A.914.914 0 1 0 0 .914a.914.914 0 0 0 .914.914" class="prefix__cls-3" data-name="Fill 280" transform="translate(1.375 24.995)"/>
            <path id="prefix__Fill_282" d="M.914 1.828A.914.914 0 1 0 0 .914a.914.914 0 0 0 .914.914" class="prefix__cls-3" data-name="Fill 282" transform="translate(5.031 24.995)"/>
            <path id="prefix__Fill_284" d="M.914 0a.914.914 0 1 0 .914.914A.914.914 0 0 0 .914 0" class="prefix__cls-3" data-name="Fill 284" transform="translate(8.687 24.995)"/>
            <path id="prefix__Fill_286" d="M.914 0a.914.914 0 1 0 .914.914A.914.914 0 0 0 .914 0" class="prefix__cls-3" data-name="Fill 286" transform="translate(12.342 24.995)"/>
            <path id="prefix__Fill_288" d="M.914 1.828A.914.914 0 1 0 0 .914a.914.914 0 0 0 .914.914" class="prefix__cls-3" data-name="Fill 288" transform="translate(15.998 24.995)"/>
            <path id="prefix__Fill_290" d="M.914 1.828A.914.914 0 1 0 0 .914a.914.914 0 0 0 .914.914" class="prefix__cls-3" data-name="Fill 290" transform="translate(19.654 24.995)"/>
            <path id="prefix__Fill_292" d="M.914 0a.914.914 0 1 0 .914.914A.914.914 0 0 0 .914 0" class="prefix__cls-3" data-name="Fill 292" transform="translate(23.31 24.995)"/>
            <path id="prefix__Fill_294" d="M.914 0a.914.914 0 1 0 .914.914A.914.914 0 0 0 .914 0" class="prefix__cls-3" data-name="Fill 294" transform="translate(26.965 24.995)"/>
            <g id="prefix__Group_298" data-name="Group 298" transform="translate(0 28.061)">
                <path id="prefix__Clip_297-2" d="M.012 0h.7v.873h-.7z" class="prefix__cls-1" data-name="Clip 297" transform="translate(.708 .575)"/>
                <g id="prefix__Group_298-2" data-name="Group 298">
                    <path id="prefix__Fill_296" d="M.679.015V0a.9.9 0 0 1-.638.844v.029A.9.9 0 0 0 .679.015" class="prefix__cls-3" data-name="Fill 296" transform="translate(.696 .575)"/>
                </g>
            </g>
            <path id="prefix__Fill_299" d="M.914.929a.914.914 0 0 0 .915-.915V0a.913.913 0 0 1-.915.9A.913.913 0 0 1 0 0v.014a.914.914 0 0 0 .914.915" class="prefix__cls-3" data-name="Fill 299" transform="translate(3.202 28.636)"/>
            <path id="prefix__Fill_301" d="M1.825 0a.913.913 0 0 1-.911.9A.913.913 0 0 1 0 0v.015a.913.913 0 0 0 .914.914.914.914 0 0 0 .914-.914V0" class="prefix__cls-3" data-name="Fill 301" transform="translate(6.859 28.636)"/>
            <path id="prefix__Fill_303" d="M.914.9A.914.914 0 0 1 0 0v.015a.915.915 0 0 0 1.829 0 .151.151 0 0 0 0-.015.913.913 0 0 1-.915.9" class="prefix__cls-3" data-name="Fill 303" transform="translate(10.514 28.636)"/>
            <path id="prefix__Fill_305" d="M.914.9A.914.914 0 0 1 0 0v.015a.914.914 0 0 0 .914.914.914.914 0 0 0 .915-.914V0a.914.914 0 0 1-.915.9" class="prefix__cls-3" data-name="Fill 305" transform="translate(14.17 28.636)"/>
            <path id="prefix__Fill_307" d="M.914.929a.914.914 0 0 0 .915-.915V0a.913.913 0 0 1-.915.9A.914.914 0 0 1 0 0v.014a.914.914 0 0 0 .914.915" class="prefix__cls-3" data-name="Fill 307" transform="translate(17.826 28.636)"/>
            <path id="prefix__Fill_309" d="M1.825 0a.912.912 0 0 1-.911.9A.913.913 0 0 1 0 0v.015a.913.913 0 0 0 .914.914.914.914 0 0 0 .914-.914.151.151 0 0 0 0-.015" class="prefix__cls-3" data-name="Fill 309" transform="translate(21.482 28.636)"/>
            <path id="prefix__Fill_311" d="M.914.9A.914.914 0 0 1 0 0v.015a.914.914 0 0 0 .914.914.914.914 0 0 0 .914-.914V0a.913.913 0 0 1-.914.9" class="prefix__cls-3" data-name="Fill 311" transform="translate(25.138 28.636)"/>
            <path id="prefix__Fill_313" d="M.912.015A.914.914 0 0 1 0 .929.915.915 0 0 0 .917.015.151.151 0 0 0 .914 0v.014z" class="prefix__cls-3" data-name="Fill 313" transform="translate(29.705 28.636)"/>
            <path id="prefix__Fill_315" d="M1.823 0a.911.911 0 0 1-.909.886H.908A.911.911 0 0 1 0 0a.914.914 0 0 0 .911.915A.914.914 0 0 0 1.823 0" class="prefix__cls-3" data-name="Fill 315" transform="translate(28.794 28.649)"/>
            <path id="prefix__Fill_317" d="M.006.914A.914.914 0 0 1 .917 0 .915.915 0 0 0 0 .914a.105.105 0 0 0 0 .015V.916z" class="prefix__cls-3" data-name="Fill 317" transform="translate(28.788 27.708)"/>
            <path id="prefix__Fill_319" d="M.362.359V.346v.013" class="prefix__cls-3" data-name="Fill 319" transform="translate(28.434 28.277)"/>
            <path id="prefix__Fill_321" d="M0 0v.014A.912.912 0 0 0 .909.9.912.912 0 0 1 0 0" class="prefix__cls-3" data-name="Fill 321" transform="translate(28.794 28.636)"/>
            <path id="prefix__Fill_323" d="M.914.029a.914.914 0 0 1 .912.9V.915A.914.914 0 0 0 0 .914v.014a.912.912 0 0 1 .911-.9" class="prefix__cls-3" data-name="Fill 323" transform="translate(32.445 27.708)"/>
            <path id="prefix__Fill_325" d="M.911 1.8a.914.914 0 0 0 .912-.9A.911.911 0 0 0 0 .9a.913.913 0 0 0 .911.9" class="prefix__cls-3" data-name="Fill 325" transform="translate(32.447 27.737)"/>
            <path id="prefix__Fill_327" d="M0 .928a.911.911 0 0 1 1.823 0V.914A.914.914 0 0 0 0 .914v.014" class="prefix__cls-3" data-name="Fill 327" transform="translate(36.1 27.708)"/>
            <path id="prefix__Fill_329" d="M.912 0A.914.914 0 0 0 0 .9a.912.912 0 0 0 1.823 0A.914.914 0 0 0 .912 0" class="prefix__cls-3" data-name="Fill 329" transform="translate(36.103 27.737)"/>
            <path id="prefix__Fill_331" d="M.914 0A.915.915 0 0 0 0 .914v.014a.911.911 0 0 1 1.823 0V.914A.915.915 0 0 0 .914 0" class="prefix__cls-3" data-name="Fill 331" transform="translate(39.756 27.708)"/>
            <path id="prefix__Fill_333" d="M.911 0A.912.912 0 0 0 0 .9a.911.911 0 0 0 1.823 0A.914.914 0 0 0 .911 0" class="prefix__cls-3" data-name="Fill 333" transform="translate(39.759 27.737)"/>
            <path id="prefix__Fill_335" d="M.914.029a.914.914 0 0 1 .912.9V.915A.915.915 0 0 0 0 .914v.014a.914.914 0 0 1 .912-.9" class="prefix__cls-3" data-name="Fill 335" transform="translate(43.411 27.708)"/>
            <path id="prefix__Fill_337" d="M.912 1.8a.914.914 0 0 0 .911-.9A.912.912 0 0 0 0 .9a.914.914 0 0 0 .912.9" class="prefix__cls-3" data-name="Fill 337" transform="translate(43.414 27.737)"/>
            <path id="prefix__Fill_339" d="M.914.029a.912.912 0 0 1 .911.9.105.105 0 0 0 0-.014A.915.915 0 0 0 0 .914a.105.105 0 0 0 0 .014.912.912 0 0 1 .911-.9" class="prefix__cls-3" data-name="Fill 339" transform="translate(47.067 27.708)"/>
            <path id="prefix__Fill_341" d="M.911 1.8a.913.913 0 0 0 .911-.9A.911.911 0 0 0 0 .9a.913.913 0 0 0 .911.9" class="prefix__cls-3" data-name="Fill 341" transform="translate(47.071 27.737)"/>
            <path id="prefix__Fill_343" d="M.914.029a.914.914 0 0 1 .912.9V.915A.915.915 0 0 0 0 .914v.014a.914.914 0 0 1 .912-.9" class="prefix__cls-3" data-name="Fill 343" transform="translate(50.723 27.708)"/>
            <path id="prefix__Fill_345" d="M.912 1.8a.914.914 0 0 0 .911-.9A.912.912 0 0 0 0 .9a.914.914 0 0 0 .912.9" class="prefix__cls-3" data-name="Fill 345" transform="translate(50.726 27.737)"/>
            <path id="prefix__Fill_347" d="M.914 0A.915.915 0 0 0 0 .914v.014a.911.911 0 0 1 1.823 0 .13.13 0 0 0 0-.014A.915.915 0 0 0 .914 0" class="prefix__cls-3" data-name="Fill 347" transform="translate(54.379 27.708)"/>
            <path id="prefix__Fill_349" d="M.912 0A.914.914 0 0 0 0 .9a.911.911 0 0 0 1.823 0A.912.912 0 0 0 .912 0" class="prefix__cls-3" data-name="Fill 349" transform="translate(54.382 27.737)"/>
            <g id="prefix__Group_353" data-name="Group 353" transform="translate(57.561 27.341)">
                <path id="prefix__Clip_352-2" d="M.123 0H.6v.72H.123z" class="prefix__cls-1" data-name="Clip 352" transform="translate(.09 .659)"/>
                <g id="prefix__Group_353-2" data-name="Group 353">
                    <path id="prefix__Fill_351" d="M.264.636A.89.89 0 0 1 .458.112V.084a.888.888 0 0 0-.2.538v.014" class="prefix__cls-3" data-name="Fill 351" transform="translate(.213 .659)"/>
                </g>
            </g>
            <g id="prefix__Group_356" data-name="Group 356" transform="translate(57.561 28.061)">
                <path id="prefix__Clip_355-2" d="M.127 0h.465v1.061H.127z" class="prefix__cls-1" data-name="Clip 355" transform="translate(.095 .05)"/>
                <g id="prefix__Group_356-2" data-name="Group 356">
                    <path id="prefix__Fill_354" d="M.454 1.061c0-.133.01-.264.01-.4C.464.441.453.222.448 0a.9.9 0 0 0-.193.525.9.9 0 0 0 .2.535" class="prefix__cls-3" data-name="Fill 354" transform="translate(.222 .05)"/>
                </g>
            </g>
            <path id="prefix__Fill_357" d="M.914 1.828A.914.914 0 1 0 0 .914a.915.915 0 0 0 .914.914" class="prefix__cls-3" data-name="Fill 357" transform="translate(30.616 30.45)"/>
            <path id="prefix__Fill_359" d="M.914 1.828A.914.914 0 1 0 0 .914a.914.914 0 0 0 .914.914" class="prefix__cls-3" data-name="Fill 359" transform="translate(34.272 30.45)"/>
            <path id="prefix__Fill_361" d="M.914 0a.914.914 0 1 0 .914.914A.914.914 0 0 0 .914 0" class="prefix__cls-3" data-name="Fill 361" transform="translate(37.928 30.45)"/>
            <path id="prefix__Fill_363" d="M.914 0a.914.914 0 1 0 .914.914A.914.914 0 0 0 .914 0" class="prefix__cls-3" data-name="Fill 363" transform="translate(41.584 30.45)"/>
            <path id="prefix__Fill_365" d="M.914 1.828A.914.914 0 1 0 0 .914a.914.914 0 0 0 .914.914" class="prefix__cls-3" data-name="Fill 365" transform="translate(45.24 30.45)"/>
            <path id="prefix__Fill_367" d="M.914 1.828A.914.914 0 1 0 0 .914a.914.914 0 0 0 .914.914" class="prefix__cls-3" data-name="Fill 367" transform="translate(48.896 30.45)"/>
            <path id="prefix__Fill_369" d="M.914 1.828A.914.914 0 1 0 0 .914a.914.914 0 0 0 .914.914" class="prefix__cls-3" data-name="Fill 369" transform="translate(52.552 30.45)"/>
            <path id="prefix__Fill_371" d="M.914 0a.914.914 0 1 0 .914.914A.914.914 0 0 0 .914 0" class="prefix__cls-3" data-name="Fill 371" transform="translate(56.207 30.45)"/>
            <path id="prefix__Fill_373" d="M.006.914A.914.914 0 0 1 .917 0a.914.914 0 1 0 0 1.828.914.914 0 0 1-.911-.914" class="prefix__cls-3" data-name="Fill 373" transform="translate(28.788 33.192)"/>
            <path id="prefix__Fill_375" d="M.914 0a.914.914 0 1 0 .914.914A.914.914 0 0 0 .914 0" class="prefix__cls-3" data-name="Fill 375" transform="translate(32.445 33.192)"/>
            <path id="prefix__Fill_377" d="M.914 1.828A.914.914 0 1 0 0 .913a.914.914 0 0 0 .914.915" class="prefix__cls-3" data-name="Fill 377" transform="translate(36.1 33.192)"/>
            <path id="prefix__Fill_379" d="M.914 0a.914.914 0 1 0 .914.914A.914.914 0 0 0 .914 0" class="prefix__cls-3" data-name="Fill 379" transform="translate(39.756 33.192)"/>
            <path id="prefix__Fill_381" d="M.914 1.828A.914.914 0 1 0 0 .913a.914.914 0 0 0 .914.915" class="prefix__cls-3" data-name="Fill 381" transform="translate(43.411 33.192)"/>
            <path id="prefix__Fill_383" d="M.914 0a.914.914 0 1 0 .914.914A.914.914 0 0 0 .914 0" class="prefix__cls-3" data-name="Fill 383" transform="translate(47.067 33.192)"/>
            <path id="prefix__Fill_385" d="M.914 0a.914.914 0 1 0 .914.914A.914.914 0 0 0 .914 0" class="prefix__cls-3" data-name="Fill 385" transform="translate(50.723 33.192)"/>
            <path id="prefix__Fill_387" d="M.914 0a.914.914 0 1 0 .914.914A.914.914 0 0 0 .914 0" class="prefix__cls-3" data-name="Fill 387" transform="translate(54.379 33.192)"/>
            <path id="prefix__Fill_389" d="M.914 0a.914.914 0 1 0 .914.914A.914.914 0 0 0 .914 0" class="prefix__cls-3" data-name="Fill 389" transform="translate(30.616 35.934)"/>
            <path id="prefix__Fill_391" d="M.914 1.828A.914.914 0 1 0 0 .913a.914.914 0 0 0 .914.915" class="prefix__cls-3" data-name="Fill 391" transform="translate(34.272 35.934)"/>
            <path id="prefix__Fill_393" d="M.914 1.828A.914.914 0 1 0 0 .913a.914.914 0 0 0 .914.915" class="prefix__cls-3" data-name="Fill 393" transform="translate(37.928 35.934)"/>
            <path id="prefix__Fill_395" d="M.914 1.828A.914.914 0 1 0 0 .913a.914.914 0 0 0 .914.915" class="prefix__cls-3" data-name="Fill 395" transform="translate(41.584 35.934)"/>
            <path id="prefix__Fill_397" d="M.914 0a.914.914 0 1 0 .914.914A.914.914 0 0 0 .914 0" class="prefix__cls-3" data-name="Fill 397" transform="translate(45.24 35.934)"/>
            <path id="prefix__Fill_399" d="M.914 1.828A.914.914 0 1 0 0 .913a.914.914 0 0 0 .914.915" class="prefix__cls-3" data-name="Fill 399" transform="translate(48.896 35.934)"/>
            <path id="prefix__Fill_401" d="M.914 0a.914.914 0 1 0 .914.914A.914.914 0 0 0 .914 0" class="prefix__cls-3" data-name="Fill 401" transform="translate(52.552 35.934)"/>
            <path id="prefix__Fill_403" d="M0 .914a.9.9 0 0 0 .62.855C.806 1.2.98.627 1.13.044A.906.906 0 0 0 .914 0 .914.914 0 0 0 0 .914" class="prefix__cls-3" data-name="Fill 403" transform="translate(56.208 35.934)"/>
            <path id="prefix__Fill_405" d="M.914 1.828A.913.913 0 0 1 .917 0a.914.914 0 1 0 0 1.828" class="prefix__cls-3" data-name="Fill 405" transform="translate(28.788 38.676)"/>
            <path id="prefix__Fill_407" d="M.914 1.828A.914.914 0 1 0 0 .914a.915.915 0 0 0 .914.914" class="prefix__cls-3" data-name="Fill 407" transform="translate(32.445 38.676)"/>
            <path id="prefix__Fill_409" d="M.914 1.828A.914.914 0 1 0 0 .914a.914.914 0 0 0 .914.914" class="prefix__cls-3" data-name="Fill 409" transform="translate(36.1 38.676)"/>
            <path id="prefix__Fill_411" d="M.914 1.828A.914.914 0 1 0 0 .914a.915.915 0 0 0 .914.914" class="prefix__cls-3" data-name="Fill 411" transform="translate(39.756 38.676)"/>
            <path id="prefix__Fill_413" d="M.914 0a.914.914 0 1 0 .914.914A.914.914 0 0 0 .914 0" class="prefix__cls-3" data-name="Fill 413" transform="translate(43.411 38.676)"/>
            <path id="prefix__Fill_415" d="M.914 1.828A.914.914 0 1 0 0 .914a.915.915 0 0 0 .914.914" class="prefix__cls-3" data-name="Fill 415" transform="translate(47.067 38.676)"/>
            <path id="prefix__Fill_417" d="M.914 1.828A.914.914 0 1 0 0 .914a.915.915 0 0 0 .914.914" class="prefix__cls-3" data-name="Fill 417" transform="translate(50.723 38.676)"/>
            <path id="prefix__Fill_419" d="M.914 0a.914.914 0 1 0 0 1.828.892.892 0 0 0 .543-.2c.121-.276.235-.554.348-.834A.9.9 0 0 0 .914 0" class="prefix__cls-3" data-name="Fill 419" transform="translate(54.379 38.676)"/>
            <path id="prefix__Fill_421" d="M.914 1.828A.914.914 0 1 0 0 .914a.915.915 0 0 0 .914.914" class="prefix__cls-3" data-name="Fill 421" transform="translate(30.616 41.417)"/>
            <path id="prefix__Fill_423" d="M.914 0a.914.914 0 1 0 .914.914A.914.914 0 0 0 .914 0" class="prefix__cls-3" data-name="Fill 423" transform="translate(34.272 41.417)"/>
            <path id="prefix__Fill_425" d="M.914 1.828A.914.914 0 1 0 0 .914a.914.914 0 0 0 .914.914" class="prefix__cls-3" data-name="Fill 425" transform="translate(37.928 41.417)"/>
            <path id="prefix__Fill_427" d="M.914 0a.914.914 0 1 0 .914.914A.914.914 0 0 0 .914 0" class="prefix__cls-3" data-name="Fill 427" transform="translate(41.584 41.417)"/>
            <path id="prefix__Fill_429" d="M.914 1.828A.914.914 0 1 0 0 .914a.914.914 0 0 0 .914.914" class="prefix__cls-3" data-name="Fill 429" transform="translate(45.24 41.417)"/>
            <path id="prefix__Fill_431" d="M.914 0a.914.914 0 1 0 .914.914A.914.914 0 0 0 .914 0" class="prefix__cls-3" data-name="Fill 431" transform="translate(48.896 41.417)"/>
            <path id="prefix__Fill_433" d="M.914 0a.914.914 0 1 0 .914.914A.914.914 0 0 0 .914 0" class="prefix__cls-3" data-name="Fill 433" transform="translate(52.552 41.417)"/>
            <path id="prefix__Fill_435" d="M.914 1.828A.913.913 0 0 1 .917 0a.914.914 0 1 0 0 1.828" class="prefix__cls-3" data-name="Fill 435" transform="translate(28.788 44.159)"/>
            <path id="prefix__Fill_437" d="M.914 0a.914.914 0 1 0 .914.914A.914.914 0 0 0 .914 0" class="prefix__cls-3" data-name="Fill 437" transform="translate(32.445 44.159)"/>
            <path id="prefix__Fill_439" d="M.914 1.828A.914.914 0 1 0 0 .914a.914.914 0 0 0 .914.914" class="prefix__cls-3" data-name="Fill 439" transform="translate(36.1 44.159)"/>
            <path id="prefix__Fill_441" d="M.914 1.828A.914.914 0 1 0 0 .914a.914.914 0 0 0 .914.914" class="prefix__cls-3" data-name="Fill 441" transform="translate(39.756 44.159)"/>
            <path id="prefix__Fill_443" d="M.914 1.828A.914.914 0 1 0 0 .914a.914.914 0 0 0 .914.914" class="prefix__cls-3" data-name="Fill 443" transform="translate(43.411 44.159)"/>
            <path id="prefix__Fill_445" d="M.914 0a.914.914 0 1 0 .914.914A.915.915 0 0 0 .914 0" class="prefix__cls-3" data-name="Fill 445" transform="translate(47.067 44.159)"/>
            <path id="prefix__Fill_447" d="M.914 0a.914.914 0 1 0 .914.914A.915.915 0 0 0 .914 0" class="prefix__cls-3" data-name="Fill 447" transform="translate(50.723 44.159)"/>
            <path id="prefix__Fill_449" d="M.914 1.828A.914.914 0 1 0 0 .914a.914.914 0 0 0 .914.914" class="prefix__cls-3" data-name="Fill 449" transform="translate(30.616 46.902)"/>
            <path id="prefix__Fill_451" d="M.914 1.828A.914.914 0 1 0 0 .914a.914.914 0 0 0 .914.914" class="prefix__cls-3" data-name="Fill 451" transform="translate(34.272 46.902)"/>
            <path id="prefix__Fill_453" d="M.914 1.828A.914.914 0 1 0 0 .914a.914.914 0 0 0 .914.914" class="prefix__cls-3" data-name="Fill 453" transform="translate(37.928 46.902)"/>
            <path id="prefix__Fill_455" d="M.914 1.828A.914.914 0 1 0 0 .914a.914.914 0 0 0 .914.914" class="prefix__cls-3" data-name="Fill 455" transform="translate(41.584 46.902)"/>
            <path id="prefix__Fill_457" d="M.914 0a.914.914 0 1 0 .914.914A.914.914 0 0 0 .914 0" class="prefix__cls-3" data-name="Fill 457" transform="translate(45.24 46.902)"/>
            <path id="prefix__Fill_459" d="M.914 0a.914.914 0 1 0 .614 1.581l.059-.062a.9.9 0 0 0 .24-.605A.914.914 0 0 0 .914 0" class="prefix__cls-3" data-name="Fill 459" transform="translate(48.896 46.902)"/>
            <path id="prefix__Fill_461" d="M.914 1.828A.913.913 0 0 1 .917 0a.914.914 0 1 0 0 1.828" class="prefix__cls-3" data-name="Fill 461" transform="translate(28.788 49.643)"/>
            <path id="prefix__Fill_463" d="M.914 1.828A.914.914 0 1 0 0 .914a.914.914 0 0 0 .914.914" class="prefix__cls-3" data-name="Fill 463" transform="translate(32.445 49.643)"/>
            <path id="prefix__Fill_465" d="M.914 0a.914.914 0 1 0 .914.914A.914.914 0 0 0 .914 0" class="prefix__cls-3" data-name="Fill 465" transform="translate(36.1 49.643)"/>
            <path id="prefix__Fill_467" d="M.914 0a.914.914 0 1 0 .914.914A.914.914 0 0 0 .914 0" class="prefix__cls-3" data-name="Fill 467" transform="translate(39.756 49.643)"/>
            <path id="prefix__Fill_469" d="M.914 0a.914.914 0 1 0 .914.914A.914.914 0 0 0 .914 0" class="prefix__cls-3" data-name="Fill 469" transform="translate(43.411 49.643)"/>
            <path id="prefix__Fill_471" d="M.914 0A.914.914 0 0 0 0 .914a.9.9 0 0 0 .348.7C.809 1.245 1.261.868 1.7.473A.9.9 0 0 0 .914 0" class="prefix__cls-3" data-name="Fill 471" transform="translate(47.067 49.643)"/>
            <path id="prefix__Fill_473" d="M.914 0a.914.914 0 1 0 .914.914A.914.914 0 0 0 .914 0" class="prefix__cls-3" data-name="Fill 473" transform="translate(30.616 52.385)"/>
            <path id="prefix__Fill_475" d="M.914 0a.914.914 0 1 0 .914.914A.914.914 0 0 0 .914 0" class="prefix__cls-3" data-name="Fill 475" transform="translate(34.272 52.385)"/>
            <path id="prefix__Fill_477" d="M.914 0a.914.914 0 1 0 .914.914A.914.914 0 0 0 .914 0" class="prefix__cls-3" data-name="Fill 477" transform="translate(37.928 52.385)"/>
            <path id="prefix__Fill_479" d="M.914 0a.914.914 0 1 0 .914.914A.914.914 0 0 0 .914 0" class="prefix__cls-3" data-name="Fill 479" transform="translate(41.584 52.385)"/>
            <path id="prefix__Fill_481" d="M.2.468C.309.4.412.323.515.251A.921.921 0 0 0 .2.468" class="prefix__cls-3" data-name="Fill 481" transform="translate(45.291 52.204)"/>
            <path id="prefix__Fill_483" d="M.006.914A.914.914 0 0 1 .917 0a.914.914 0 0 0 0 1.829.914.914 0 0 1-.911-.915" class="prefix__cls-3" data-name="Fill 483" transform="translate(28.788 55.126)"/>
            <path id="prefix__Fill_485" d="M.914 0a.914.914 0 1 0 .914.914A.914.914 0 0 0 .914 0" class="prefix__cls-3" data-name="Fill 485" transform="translate(32.445 55.127)"/>
            <path id="prefix__Fill_487" d="M.914 0a.911.911 0 0 0-.628 1.573c.5-.124 1-.26 1.492-.409a.871.871 0 0 0 .051-.25A.914.914 0 0 0 .914 0" class="prefix__cls-3" data-name="Fill 487" transform="translate(36.1 55.127)"/>
            <path id="prefix__Fill_489" d="M0 .591C.341.458.679.322 1.014.178A.871.871 0 0 0 .776.129.9.9 0 0 0 0 .591" class="prefix__cls-3" data-name="Fill 489" transform="translate(39.894 54.998)"/>
            <g id="prefix__Group_493" data-name="Group 493" transform="translate(0 27.341)">
                <path id="prefix__Clip_492-2" d="M.01 0h.7v.871h-.7z" class="prefix__cls-1" data-name="Clip 492" transform="translate(.71 .424)"/>
                <g id="prefix__Group_493-2" data-name="Group 493">
                    <path id="prefix__Fill_491" d="M.672.871V.857A.9.9 0 0 0 .045 0v.029a.9.9 0 0 1 .627.842" class="prefix__cls-3" data-name="Fill 491" transform="translate(.7 .424)"/>
                </g>
            </g>
            <g id="prefix__Group_496" data-name="Group 496" transform="translate(0 27.341)">
                <path id="prefix__Clip_495-2" d="M.017 0H.7v1.686H.017z" class="prefix__cls-1" data-name="Clip 495" transform="translate(.703 .453)"/>
                <g id="prefix__Group_496-2" data-name="Group 496">
                    <path id="prefix__Fill_494" d="M.686.842A.9.9 0 0 0 .058 0C.046.326.033.651.033.979c0 .237.012.471.017.707A.9.9 0 0 0 .686.842" class="prefix__cls-3" data-name="Fill 494" transform="translate(.686 .453)"/>
                </g>
            </g>
            <path id="prefix__Fill_497" d="M.914.029a.912.912 0 0 1 .911.9.105.105 0 0 0 0-.014A.915.915 0 0 0 0 .914a.105.105 0 0 0 0 .014.912.912 0 0 1 .911-.9" class="prefix__cls-3" data-name="Fill 497" transform="translate(3.202 27.708)"/>
            <path id="prefix__Fill_499" d="M.911 1.8a.913.913 0 0 0 .911-.9A.911.911 0 0 0 0 .9a.913.913 0 0 0 .911.9" class="prefix__cls-3" data-name="Fill 499" transform="translate(3.206 27.737)"/>
            <path id="prefix__Fill_501" d="M.914.029a.914.914 0 0 1 .912.9V.915A.915.915 0 0 0 0 .914v.014a.914.914 0 0 1 .912-.9" class="prefix__cls-3" data-name="Fill 501" transform="translate(6.858 27.708)"/>
            <path id="prefix__Fill_503" d="M.912 1.8a.914.914 0 0 0 .911-.9A.912.912 0 0 0 0 .9a.914.914 0 0 0 .912.9" class="prefix__cls-3" data-name="Fill 503" transform="translate(6.861 27.737)"/>
            <path id="prefix__Fill_505" d="M0 .928a.911.911 0 0 1 1.822 0 .105.105 0 0 0 0-.014.914.914 0 0 0-1.822 0v.014" class="prefix__cls-3" data-name="Fill 505" transform="translate(10.514 27.708)"/>
            <path id="prefix__Fill_507" d="M.912 0A.914.914 0 0 0 0 .9a.911.911 0 0 0 1.823 0A.912.912 0 0 0 .912 0" class="prefix__cls-3" data-name="Fill 507" transform="translate(10.517 27.737)"/>
            <path id="prefix__Fill_509" d="M0 .928a.911.911 0 0 1 1.823 0V.914A.914.914 0 0 0 0 .914v.014" class="prefix__cls-3" data-name="Fill 509" transform="translate(14.17 27.708)"/>
            <path id="prefix__Fill_511" d="M.912 0A.914.914 0 0 0 0 .9a.912.912 0 0 0 1.823 0A.914.914 0 0 0 .912 0" class="prefix__cls-3" data-name="Fill 511" transform="translate(14.173 27.737)"/>
            <path id="prefix__Fill_513" d="M.914.029a.912.912 0 0 1 .911.9V.915A.915.915 0 0 0 0 .914v.014a.914.914 0 0 1 .912-.9" class="prefix__cls-3" data-name="Fill 513" transform="translate(17.826 27.708)"/>
            <path id="prefix__Fill_515" d="M.912 1.8a.913.913 0 0 0 .911-.9A.911.911 0 0 0 0 .9a.914.914 0 0 0 .912.9" class="prefix__cls-3" data-name="Fill 515" transform="translate(17.829 27.737)"/>
            <path id="prefix__Fill_517" d="M.914.029a.912.912 0 0 1 .911.9.105.105 0 0 0 0-.014A.915.915 0 0 0 0 .914v.014a.914.914 0 0 1 .912-.9" class="prefix__cls-3" data-name="Fill 517" transform="translate(21.482 27.708)"/>
            <path id="prefix__Fill_519" d="M.912 1.8a.913.913 0 0 0 .911-.9A.911.911 0 0 0 0 .9a.914.914 0 0 0 .912.9" class="prefix__cls-3" data-name="Fill 519" transform="translate(21.485 27.737)"/>
            <path id="prefix__Fill_521" d="M.914 0A.914.914 0 0 0 0 .914v.014a.911.911 0 0 1 1.823 0V.914A.914.914 0 0 0 .914 0" class="prefix__cls-3" data-name="Fill 521" transform="translate(25.138 27.708)"/>
            <path id="prefix__Fill_523" d="M.912 0A.914.914 0 0 0 0 .9a.911.911 0 0 0 1.823 0A.912.912 0 0 0 .912 0" class="prefix__cls-3" data-name="Fill 523" transform="translate(25.141 27.737)"/>
            <path id="prefix__Fill_525" d="M0 0a.914.914 0 0 1 .912.914v.013a.13.13 0 0 0 0-.014A.915.915 0 0 0 0 0" class="prefix__cls-3" data-name="Fill 525" transform="translate(29.705 27.708)"/>
            <path id="prefix__Fill_527" d="M.357.359V.346v.013" class="prefix__cls-3" data-name="Fill 527" transform="translate(30.257 28.277)"/>
            <path id="prefix__Fill_529" d="M0 .9A.912.912 0 0 0 .912.014V0A.913.913 0 0 1 0 .9" class="prefix__cls-3" data-name="Fill 529" transform="translate(29.705 28.636)"/>
            <path id="prefix__Fill_531" d="M0 .914A.911.911 0 0 1 .909.029h.005a.911.911 0 0 1 .908.886A.911.911 0 1 0 0 .914" class="prefix__cls-3" data-name="Fill 531" transform="translate(28.794 27.708)"/>
            <path id="prefix__Fill_533" d="M.912 0A.912.912 0 0 0 0 .886V.9A.913.913 0 0 1 .912 0" class="prefix__cls-3" data-name="Fill 533" transform="translate(28.794 27.737)"/>
            <path id="prefix__Fill_535" d="M0 0a.913.913 0 0 1 .909.9V.887A.912.912 0 0 0 0 0" class="prefix__cls-3" data-name="Fill 535" transform="translate(29.705 27.737)"/>
            <path id="prefix__Fill_537" d="M.909 0A.913.913 0 0 0 0 .9a.909.909 0 0 0 1.817 0A.913.913 0 0 0 .909 0" class="prefix__cls-3" data-name="Fill 537" transform="translate(28.797 27.737)"/>
            <path id="prefix__Fill_539" d="M.914 0a.914.914 0 1 0 .914.914A.914.914 0 0 0 .914 0" class="prefix__cls-3" data-name="Fill 539" transform="translate(1.375 30.45)"/>
            <path id="prefix__Fill_541" d="M.914 1.828A.914.914 0 1 0 0 .914a.914.914 0 0 0 .914.914" class="prefix__cls-3" data-name="Fill 541" transform="translate(5.031 30.45)"/>
            <path id="prefix__Fill_543" d="M.914 1.828A.914.914 0 1 0 0 .914a.914.914 0 0 0 .914.914" class="prefix__cls-3" data-name="Fill 543" transform="translate(8.687 30.45)"/>
            <path id="prefix__Fill_545" d="M.914 0a.914.914 0 1 0 .914.914A.914.914 0 0 0 .914 0" class="prefix__cls-3" data-name="Fill 545" transform="translate(12.342 30.45)"/>
            <path id="prefix__Fill_547" d="M.914 0a.914.914 0 1 0 .914.914A.914.914 0 0 0 .914 0" class="prefix__cls-3" data-name="Fill 547" transform="translate(15.998 30.45)"/>
            <path id="prefix__Fill_549" d="M.914 1.828A.914.914 0 1 0 0 .914a.914.914 0 0 0 .914.914" class="prefix__cls-3" data-name="Fill 549" transform="translate(19.654 30.45)"/>
            <path id="prefix__Fill_551" d="M.914 1.828A.914.914 0 1 0 0 .914a.914.914 0 0 0 .914.914" class="prefix__cls-3" data-name="Fill 551" transform="translate(23.31 30.45)"/>
            <path id="prefix__Fill_553" d="M.914 1.828A.914.914 0 1 0 0 .914a.914.914 0 0 0 .914.914" class="prefix__cls-3" data-name="Fill 553" transform="translate(26.965 30.45)"/>
            <path id="prefix__Fill_555" d="M.225 0c.056.344.114.686.183 1.026A.9.9 0 0 0 .495.648.912.912 0 0 0 .225 0" class="prefix__cls-3" data-name="Fill 555" transform="translate(.881 33.458)"/>
            <path id="prefix__Fill_557" d="M.914 1.828A.914.914 0 1 0 0 .913a.914.914 0 0 0 .914.915" class="prefix__cls-3" data-name="Fill 557" transform="translate(3.202 33.192)"/>
            <path id="prefix__Fill_559" d="M.914 0a.914.914 0 1 0 .914.914A.914.914 0 0 0 .914 0" class="prefix__cls-3" data-name="Fill 559" transform="translate(6.858 33.192)"/>
            <path id="prefix__Fill_561" d="M.914 1.828A.914.914 0 1 0 0 .913a.914.914 0 0 0 .914.915" class="prefix__cls-3" data-name="Fill 561" transform="translate(10.514 33.192)"/>
            <path id="prefix__Fill_563" d="M.914 0a.914.914 0 1 0 .914.914A.914.914 0 0 0 .914 0" class="prefix__cls-3" data-name="Fill 563" transform="translate(14.17 33.192)"/>
            <path id="prefix__Fill_565" d="M.914 0a.914.914 0 1 0 .914.914A.914.914 0 0 0 .914 0" class="prefix__cls-3" data-name="Fill 565" transform="translate(17.826 33.192)"/>
            <path id="prefix__Fill_567" d="M.914 1.828A.914.914 0 1 0 0 .913a.914.914 0 0 0 .914.915" class="prefix__cls-3" data-name="Fill 567" transform="translate(21.482 33.192)"/>
            <path id="prefix__Fill_569" d="M.914 1.828A.914.914 0 1 0 0 .913a.914.914 0 0 0 .914.915" class="prefix__cls-3" data-name="Fill 569" transform="translate(25.138 33.192)"/>
            <path id="prefix__Fill_571" d="M0 0a.914.914 0 0 1 .912.914.914.914 0 0 1-.912.913A.914.914 0 1 0 0 0" class="prefix__cls-3" data-name="Fill 571" transform="translate(29.705 33.192)"/>
            <path id="prefix__Fill_573" d="M1.823.914a.911.911 0 1 0-.912.914.914.914 0 0 0 .912-.914" class="prefix__cls-3" data-name="Fill 573" transform="translate(28.794 33.192)"/>
            <path id="prefix__Fill_575" d="M1.517.914A.914.914 0 0 0 .6 0a.9.9 0 0 0-.6.24C.14.766.3 1.286.465 1.8a.827.827 0 0 0 .135.028.914.914 0 0 0 .917-.914" class="prefix__cls-3" data-name="Fill 575" transform="translate(1.685 35.934)"/>
            <path id="prefix__Fill_577" d="M.914 1.828A.914.914 0 1 0 0 .913a.914.914 0 0 0 .914.915" class="prefix__cls-3" data-name="Fill 577" transform="translate(5.031 35.934)"/>
            <path id="prefix__Fill_579" d="M.914 0a.914.914 0 1 0 .914.914A.914.914 0 0 0 .914 0" class="prefix__cls-3" data-name="Fill 579" transform="translate(8.687 35.934)"/>
            <path id="prefix__Fill_581" d="M.914 1.828A.914.914 0 1 0 0 .913a.914.914 0 0 0 .914.915" class="prefix__cls-3" data-name="Fill 581" transform="translate(12.342 35.934)"/>
            <path id="prefix__Fill_583" d="M.914 1.828A.914.914 0 1 0 0 .913a.914.914 0 0 0 .914.915" class="prefix__cls-3" data-name="Fill 583" transform="translate(15.998 35.934)"/>
            <path id="prefix__Fill_585" d="M.914 1.828A.914.914 0 1 0 0 .913a.914.914 0 0 0 .914.915" class="prefix__cls-3" data-name="Fill 585" transform="translate(19.654 35.934)"/>
            <path id="prefix__Fill_587" d="M.914 0a.914.914 0 1 0 .914.914A.914.914 0 0 0 .914 0" class="prefix__cls-3" data-name="Fill 587" transform="translate(23.31 35.934)"/>
            <path id="prefix__Fill_589" d="M.914 1.828A.914.914 0 1 0 0 .913a.914.914 0 0 0 .914.915" class="prefix__cls-3" data-name="Fill 589" transform="translate(26.965 35.934)"/>
            <path id="prefix__Fill_591" d="M.914 0a.914.914 0 1 0 .914.914A.914.914 0 0 0 .914 0" class="prefix__cls-3" data-name="Fill 591" transform="translate(3.202 38.676)"/>
            <path id="prefix__Fill_593" d="M.914 1.828A.914.914 0 1 0 0 .914a.915.915 0 0 0 .914.914" class="prefix__cls-3" data-name="Fill 593" transform="translate(6.858 38.676)"/>
            <path id="prefix__Fill_595" d="M.914 1.828A.914.914 0 1 0 0 .914a.915.915 0 0 0 .914.914" class="prefix__cls-3" data-name="Fill 595" transform="translate(10.514 38.676)"/>
            <path id="prefix__Fill_597" d="M.914 1.828A.914.914 0 1 0 0 .914a.915.915 0 0 0 .914.914" class="prefix__cls-3" data-name="Fill 597" transform="translate(14.17 38.676)"/>
            <path id="prefix__Fill_599" d="M.914 1.828A.914.914 0 1 0 0 .914a.915.915 0 0 0 .914.914" class="prefix__cls-3" data-name="Fill 599" transform="translate(17.826 38.676)"/>
            <path id="prefix__Fill_601" d="M.914 1.828A.914.914 0 1 0 0 .914a.915.915 0 0 0 .914.914" class="prefix__cls-3" data-name="Fill 601" transform="translate(21.482 38.676)"/>
            <path id="prefix__Fill_603" d="M.914 1.828A.914.914 0 1 0 0 .914a.914.914 0 0 0 .914.914" class="prefix__cls-3" data-name="Fill 603" transform="translate(25.138 38.676)"/>
            <path id="prefix__Fill_605" d="M.912.914A.914.914 0 0 1 0 1.828.915.915 0 0 0 .917.914.915.915 0 0 0 0 0a.914.914 0 0 1 .912.914" class="prefix__cls-3" data-name="Fill 605" transform="translate(29.705 38.675)"/>
            <path id="prefix__Fill_607" d="M0 .914A.911.911 0 1 0 .912 0 .914.914 0 0 0 0 .914" class="prefix__cls-3" data-name="Fill 607" transform="translate(28.794 38.676)"/>
            <path id="prefix__Fill_609" d="M.914 0a.914.914 0 1 0 .914.914A.914.914 0 0 0 .914 0" class="prefix__cls-3" data-name="Fill 609" transform="translate(5.031 41.417)"/>
            <path id="prefix__Fill_611" d="M.914 1.828A.914.914 0 1 0 0 .914a.914.914 0 0 0 .914.914" class="prefix__cls-3" data-name="Fill 611" transform="translate(8.687 41.417)"/>
            <path id="prefix__Fill_613" d="M.914 1.828A.914.914 0 1 0 0 .914a.914.914 0 0 0 .914.914" class="prefix__cls-3" data-name="Fill 613" transform="translate(12.342 41.417)"/>
            <path id="prefix__Fill_615" d="M.914 0a.914.914 0 1 0 .914.914A.914.914 0 0 0 .914 0" class="prefix__cls-3" data-name="Fill 615" transform="translate(15.998 41.417)"/>
            <path id="prefix__Fill_617" d="M.914 0a.914.914 0 1 0 .914.914A.914.914 0 0 0 .914 0" class="prefix__cls-3" data-name="Fill 617" transform="translate(19.654 41.417)"/>
            <path id="prefix__Fill_619" d="M.914 1.828A.914.914 0 1 0 0 .914a.914.914 0 0 0 .914.914" class="prefix__cls-3" data-name="Fill 619" transform="translate(23.31 41.417)"/>
            <path id="prefix__Fill_621" d="M.914 1.828A.914.914 0 1 0 0 .914a.914.914 0 0 0 .914.914" class="prefix__cls-3" data-name="Fill 621" transform="translate(26.965 41.417)"/>
            <path id="prefix__Fill_623" d="M.914 0a.914.914 0 1 0 .914.914A.914.914 0 0 0 .914 0" class="prefix__cls-3" data-name="Fill 623" transform="translate(6.858 44.159)"/>
            <path id="prefix__Fill_625" d="M.914 0a.914.914 0 1 0 .914.914A.915.915 0 0 0 .914 0" class="prefix__cls-3" data-name="Fill 625" transform="translate(10.514 44.159)"/>
            <path id="prefix__Fill_627" d="M.914 1.828A.914.914 0 1 0 0 .914a.914.914 0 0 0 .914.914" class="prefix__cls-3" data-name="Fill 627" transform="translate(14.17 44.159)"/>
            <path id="prefix__Fill_629" d="M.914 1.828A.914.914 0 1 0 0 .914a.914.914 0 0 0 .914.914" class="prefix__cls-3" data-name="Fill 629" transform="translate(17.826 44.159)"/>
            <path id="prefix__Fill_631" d="M.914 1.828A.914.914 0 1 0 0 .914a.914.914 0 0 0 .914.914" class="prefix__cls-3" data-name="Fill 631" transform="translate(21.482 44.159)"/>
            <path id="prefix__Fill_633" d="M.914 0a.914.914 0 1 0 .914.914A.914.914 0 0 0 .914 0" class="prefix__cls-3" data-name="Fill 633" transform="translate(25.138 44.159)"/>
            <path id="prefix__Fill_635" d="M.912.914A.914.914 0 0 1 0 1.828.915.915 0 0 0 .917.914.915.915 0 0 0 0 0a.914.914 0 0 1 .912.914" class="prefix__cls-3" data-name="Fill 635" transform="translate(29.705 44.159)"/>
            <path id="prefix__Fill_637" d="M0 .914A.911.911 0 1 0 .912 0 .914.914 0 0 0 0 .914" class="prefix__cls-3" data-name="Fill 637" transform="translate(28.794 44.159)"/>
            <path id="prefix__Fill_639" d="M.914 0a.914.914 0 1 0 .914.914A.914.914 0 0 0 .914 0" class="prefix__cls-3" data-name="Fill 639" transform="translate(8.687 46.902)"/>
            <path id="prefix__Fill_641" d="M.914 0a.914.914 0 1 0 .914.914A.914.914 0 0 0 .914 0" class="prefix__cls-3" data-name="Fill 641" transform="translate(12.342 46.902)"/>
            <path id="prefix__Fill_643" d="M.914 1.828A.914.914 0 1 0 0 .914a.914.914 0 0 0 .914.914" class="prefix__cls-3" data-name="Fill 643" transform="translate(15.998 46.902)"/>
            <path id="prefix__Fill_645" d="M.914 1.828A.914.914 0 1 0 0 .914a.914.914 0 0 0 .914.914" class="prefix__cls-3" data-name="Fill 645" transform="translate(19.654 46.902)"/>
            <path id="prefix__Fill_647" d="M.914 1.828A.914.914 0 1 0 0 .914a.914.914 0 0 0 .914.914" class="prefix__cls-3" data-name="Fill 647" transform="translate(23.31 46.902)"/>
            <path id="prefix__Fill_649" d="M.914 1.828A.914.914 0 1 0 0 .914a.914.914 0 0 0 .914.914" class="prefix__cls-3" data-name="Fill 649" transform="translate(26.965 46.902)"/>
            <path id="prefix__Fill_651" d="M1.8.914A.914.914 0 0 0 .884 0 .9.9 0 0 0 0 .77q.586.514 1.2 1a.909.909 0 0 0 .6-.85" class="prefix__cls-3" data-name="Fill 651" transform="translate(10.544 49.643)"/>
            <path id="prefix__Fill_653" d="M.914 0a.914.914 0 1 0 .914.914A.914.914 0 0 0 .914 0" class="prefix__cls-3" data-name="Fill 653" transform="translate(14.17 49.643)"/>
            <path id="prefix__Fill_655" d="M.914 0a.914.914 0 1 0 .914.914A.914.914 0 0 0 .914 0" class="prefix__cls-3" data-name="Fill 655" transform="translate(17.826 49.643)"/>
            <path id="prefix__Fill_657" d="M.914 0a.914.914 0 1 0 .914.914A.914.914 0 0 0 .914 0" class="prefix__cls-3" data-name="Fill 657" transform="translate(21.482 49.643)"/>
            <path id="prefix__Fill_659" d="M.914 1.828A.914.914 0 1 0 0 .914a.914.914 0 0 0 .914.914" class="prefix__cls-3" data-name="Fill 659" transform="translate(25.138 49.643)"/>
            <path id="prefix__Fill_661" d="M.912.914A.914.914 0 0 1 0 1.828.915.915 0 0 0 .917.914.915.915 0 0 0 0 0a.913.913 0 0 1 .912.914" class="prefix__cls-3" data-name="Fill 661" transform="translate(29.705 49.643)"/>
            <path id="prefix__Fill_663" d="M0 .914A.911.911 0 1 0 .912 0 .914.914 0 0 0 0 .914" class="prefix__cls-3" data-name="Fill 663" transform="translate(28.794 49.644)"/>
            <path id="prefix__Fill_665" d="M.152.006A.886.886 0 0 0 0 .036q.5.35 1.024.677A.9.9 0 0 0 .152.006" class="prefix__cls-3" data-name="Fill 665" transform="translate(13.105 52.379)"/>
            <path id="prefix__Fill_667" d="M.914 0a.914.914 0 1 0 .914.914A.914.914 0 0 0 .914 0" class="prefix__cls-3" data-name="Fill 667" transform="translate(15.998 52.385)"/>
            <path id="prefix__Fill_669" d="M.914 0a.914.914 0 1 0 .914.914A.914.914 0 0 0 .914 0" class="prefix__cls-3" data-name="Fill 669" transform="translate(19.654 52.385)"/>
            <path id="prefix__Fill_671" d="M.914 0a.914.914 0 1 0 .914.914A.914.914 0 0 0 .914 0" class="prefix__cls-3" data-name="Fill 671" transform="translate(23.31 52.385)"/>
            <path id="prefix__Fill_673" d="M.914 0a.914.914 0 1 0 .914.914A.915.915 0 0 0 .914 0" class="prefix__cls-3" data-name="Fill 673" transform="translate(26.965 52.385)"/>
            <path id="prefix__Fill_675" d="M.465.024A.893.893 0 0 0 0 .17Q.656.448 1.329.7A.9.9 0 0 0 .465.024" class="prefix__cls-3" data-name="Fill 675" transform="translate(18.276 55.102)"/>
            <path id="prefix__Fill_677" d="M1.828.914A.914.914 0 1 0 0 .914a.9.9 0 0 0 .094.386q.662.189 1.336.347a.9.9 0 0 0 .4-.735" class="prefix__cls-3" data-name="Fill 677" transform="translate(21.482 55.126)"/>
            <path id="prefix__Fill_679" d="M.914 0a.914.914 0 1 0 .914.914A.914.914 0 0 0 .914 0" class="prefix__cls-3" data-name="Fill 679" transform="translate(25.138 55.127)"/>
            <path id="prefix__Fill_681" d="M0 0a.914.914 0 0 1 .912.914.914.914 0 0 1-.912.914.915.915 0 0 0 .917-.914A.915.915 0 0 0 0 0" class="prefix__cls-3" data-name="Fill 681" transform="translate(29.705 55.127)"/>
            <path id="prefix__Fill_683" d="M1.823.914a.911.911 0 1 0-.912.914.914.914 0 0 0 .912-.914" class="prefix__cls-3" data-name="Fill 683" transform="translate(28.794 55.127)"/>
        </g>
        <path id="prefix__Fill_686" d="M5.024 0L0 12.8l17.047 9.062 6.49-1.764c-5.91-2.25-8.77-3.179-9.78-3.321a2.617 2.617 0 0 1-1.465-.568c-.517-.45-.437-.838-.927-1.166-.553-.368-.956-.077-1.705-.269a3.239 3.239 0 0 1-1.825-1.466C7.094 11.994 7.8 10.4 8.284 9.3a9.391 9.391 0 0 1 3.2-3.829L5.024 0" class="prefix__cls-10" data-name="Fill 686" transform="translate(3.376 42.022)"/>
        <g id="prefix__Group_691" data-name="Group 691" transform="translate(13.671 .696)">
            <path id="prefix__Fill_688" d="M25.084 36.731c-4.739-.526-12.067-1.523-17.662-5.676a18.347 18.347 0 0 1-5-5.533 16.193 16.193 0 0 1-2.391-7.3C-.466 10.182 5.622 1.34 13.456.145a12.235 12.235 0 0 1 6.439.735c2.005.82 5.43 2.881 10.323 16.38 3.608 9.972 5.858 16.173 3.061 18.847-.275.263-1 .866-3.686.909" class="prefix__cls-3" data-name="Fill 688" transform="translate(.213 .275)"/>
            <path id="prefix__Stroke_690" d="M25.084 36.731c-4.739-.526-12.067-1.523-17.662-5.676a18.347 18.347 0 0 1-5-5.533 16.193 16.193 0 0 1-2.391-7.3C-.466 10.182 5.622 1.34 13.456.145a12.235 12.235 0 0 1 6.439.735c2.005.82 5.43 2.881 10.323 16.38 3.608 9.972 5.858 16.173 3.061 18.847-.275.263-1 .866-3.686.909" class="prefix__cls-11" data-name="Stroke 690" transform="translate(.213 .275)"/>
        </g>
        <path id="prefix__Fill_692" d="M18.274 0a4.1 4.1 0 0 1-.09 2.644 3.99 3.99 0 0 1-1.435 1.822 22.642 22.642 0 0 1-4.1 1.154 32.663 32.663 0 0 0-4.008.728A16.239 16.239 0 0 0 6.1 7.32 31.8 31.8 0 0 0 0 17.157l10.647 6.193 23.179 3.977a7.236 7.236 0 0 1 1.017 2.49 2.707 2.707 0 0 1-.03 1.943c-.461.792-1.564.9-2.3.971a7.056 7.056 0 0 1-4.007-.88L24.2 37.284c2.25.484 4.185.781 5.683.971.3.04.166.019 5.772.425 1.835.132 2.741.2 3.829-.273a5.739 5.739 0 0 0 2.333-1.943 38.327 38.327 0 0 0-.029-6.861 38.248 38.248 0 0 0-1.288-6.861 35.9 35.9 0 0 0-2.452-8.349 35.492 35.492 0 0 0-2.592-4.909c-3.024-1.463-5.085-2.442-6.56-3.137a6.5 6.5 0 0 1-3.17-2.307 5.735 5.735 0 0 1-.663-3.824L18.274 0" class="prefix__cls-10" data-name="Fill 692" transform="translate(7.824 26)"/>
        <g id="prefix__Group_697" data-name="Group 697" transform="translate(17.268 17.964)">
            <path id="prefix__Fill_694" d="M2.911.426C1.678-.151.516-.125.138.4c-.514.712.554 2.16.82 2.52a6.21 6.21 0 0 0 3.1 2.156" class="prefix__cls-10" data-name="Fill 694" transform="translate(.691 .338)"/>
            <path id="prefix__Stroke_696" d="M2.911.426C1.678-.151.516-.125.138.4c-.514.712.554 2.16.82 2.52a6.21 6.21 0 0 0 3.1 2.156" class="prefix__cls-12" data-name="Stroke 696" transform="translate(.691 .338)"/>
        </g>
        <path id="prefix__Fill_698" d="M0 1.667l.291.033.666-.945L.314 0z" class="prefix__cls-10" data-name="Fill 698" transform="translate(14.011 46.022)"/>
        <g id="prefix__Group_703" data-name="Group 703" transform="translate(20.866 7.891)">
            <path id="prefix__Fill_700" d="M10.96 0a10.331 10.331 0 0 1 3.85 3.427 10.506 10.506 0 0 1 1.674 6.529c-.29 4.345-3.546 10.5-8.426 10.339C4.125 20.162.1 15.962 0 10.238" class="prefix__cls-10" data-name="Fill 700" transform="translate(.199 .474)"/>
            <path id="prefix__Stroke_702" d="M10.96 0a10.331 10.331 0 0 1 3.85 3.427 10.506 10.506 0 0 1 1.674 6.529c-.29 4.345-3.546 10.5-8.426 10.339C4.125 20.162.1 15.962 0 10.238" class="prefix__cls-11" data-name="Stroke 702" transform="translate(.199 .474)"/>
        </g>
        <path id="prefix__Stroke_704" d="M16.375 0a18.423 18.423 0 0 1-5.2 8.849 19.5 19.5 0 0 1-3 2.206A21.832 21.832 0 0 1 0 13.952" class="prefix__cls-12" data-name="Stroke 704" transform="translate(20.73 4.642)"/>
        <path id="prefix__Fill_706" d="M0 10.441a21.369 21.369 0 0 0 2.946-.725A22.414 22.414 0 0 0 6.4 8.251 18.1 18.1 0 0 0 8.969 6.67c.4-.3.814-.633 1.24-1.02a16.99 16.99 0 0 0 3.115-3.768C12.64.934 11.665-.17 10.817.022c-.532.12-.781.7-1.006 1.1-1.027 1.814-3.691 2.444-5.655 3.67A10.5 10.5 0 0 0 0 10.441" class="prefix__cls-3" data-name="Fill 706" transform="translate(21.375 7.789)"/>
        <path id="prefix__Fill_708" d="M1.5 0A12.788 12.788 0 0 0 .064 4.7 13.231 13.231 0 0 0 1.8 12.561l19.68 2.872-.539-10.468-7.477-3.889z" class="prefix__cls-10" data-name="Fill 708" transform="translate(15.853 44.982)"/>
        <path id="prefix__Stroke_710" d="M35.578 36.9a94.972 94.972 0 0 1-13.4.85 69.827 69.827 0 0 1-13.7-1.7c-3.126-.7-6.8-1.746-8.175-4.736a2.817 2.817 0 0 1-.183-.448c-.342-1.117-.19-3.451 3.413-12.06 4.5-10.75 7.029-13.4 9.671-13.885.291-.054.571-.078 1.1-.153 0 0 .542-.081 1.074-.171 3.826-.645 5.738-.967 6.859-2.146A4.764 4.764 0 0 0 23.355.4a6.26 6.26 0 0 0 3.31.729A6.29 6.29 0 0 0 29.9 0a5.653 5.653 0 0 0 .6 2.125c.74 1.433 1.967 2.192 4.347 3.36 4.344 2.134 4.432 1.66 5.5 2.551 1.184.982 1.852 2.8 3.19 6.435a57.33 57.33 0 0 1 2.354 8.506c.145.729.317 1.592.477 2.707.81 5.611 1.215 8.417-.037 10.008-1.776 2.258-5.8 1.816-13.77.841-6.7-.82-11.014-2.464-19.635-5.753-2.015-.768-4.409-1.78-4.76-3.628a1.826 1.826 0 0 1-.033-.428c.1-2 1.17-3.071 3.147-6.052 1.144-1.724 1.733-2.868 1.954-2.771.149.065.024.642-.069 1.107 0 0-.106.523-.679 4.785a8.977 8.977 0 0 0 1.356 5.624" class="prefix__cls-12" data-name="Stroke 710" transform="translate(2.932 27.451)"/>
        <path id="prefix__Fill_712" d="M8.961 10.369a7.356 7.356 0 0 0 .119-3.947c-.2-.8-.775-3.056-2.4-3.675-.57-.217-1.062-.225-2.3-.655a5.874 5.874 0 0 1-1.117-.53C1.929.76 1.38-.158.751.023S.018 1.325.009 1.449c-.147 1.893 1.585 3.407 1.863 3.64a7.009 7.009 0 0 0 2.065 1.153 12.451 12.451 0 0 1 5.024 4.127" class="prefix__cls-10" data-name="Fill 712" transform="translate(19.578 43.735)"/>
        <path id="prefix__Stroke_714" d="M8.961 10.369a7.356 7.356 0 0 0 .119-3.947c-.2-.8-.775-3.056-2.4-3.675-.57-.217-1.062-.225-2.3-.655a5.874 5.874 0 0 1-1.117-.53C1.929.76 1.38-.158.751.023S.018 1.325.009 1.449c-.147 1.893 1.585 3.407 1.863 3.64a7.009 7.009 0 0 0 2.065 1.153 12.451 12.451 0 0 1 5.024 4.127z" class="prefix__cls-11" data-name="Stroke 714" transform="translate(19.578 43.735)"/>
        <path id="prefix__Fill_716" d="M21.322 2.682a8.475 8.475 0 0 1-1.282 6.336 7.877 7.877 0 0 1-6.794 3.359 7.686 7.686 0 0 1-4.339-1.692C8.8 10.6 6.8 8.947 6.59 7.324c-.107-.84-.12-1.253-.12-1.253-.024-.8.067-1.11-.119-1.252-.237-.181-.55.193-1.338.386a4.356 4.356 0 0 1-2.42-.181 4.926 4.926 0 0 1-.776-.335 3.814 3.814 0 0 1-1.277-1 2.046 2.046 0 0 1-.534-1.117 1.6 1.6 0 0 1 .106-.75c.528-1 3.29.525 5.813-.7C7 .594 7.161.028 7.963 0c1.289-.045 2.389 1.363 3.121 2.568a3.8 3.8 0 0 0 3.006 1.043 4.887 4.887 0 0 0 3.173-1.368A2.939 2.939 0 0 0 18.7 3.2a3.159 3.159 0 0 0 2.623-.518" class="prefix__cls-10" data-name="Fill 716" transform="translate(16.988 49.23)"/>
        <path id="prefix__Stroke_718" d="M21.322 2.682a8.475 8.475 0 0 1-1.282 6.336 7.877 7.877 0 0 1-6.794 3.359 7.686 7.686 0 0 1-4.339-1.692C8.8 10.6 6.8 8.947 6.59 7.324c-.107-.84-.12-1.253-.12-1.253-.024-.8.067-1.11-.119-1.252-.237-.181-.55.193-1.338.386a4.356 4.356 0 0 1-2.42-.181 4.926 4.926 0 0 1-.776-.335 3.814 3.814 0 0 1-1.277-1 2.046 2.046 0 0 1-.534-1.117 1.6 1.6 0 0 1 .106-.75c.528-1 3.29.525 5.813-.7C7 .594 7.161.028 7.963 0c1.289-.045 2.389 1.363 3.121 2.568a3.8 3.8 0 0 0 3.006 1.043 4.887 4.887 0 0 0 3.173-1.368A2.939 2.939 0 0 0 18.7 3.2a3.159 3.159 0 0 0 2.622-.518z" class="prefix__cls-11" data-name="Stroke 718" transform="translate(16.988 49.23)"/>
        <path id="prefix__Fill_720" d="M9.7 7.573a5.619 5.619 0 0 1-7.259 2.314A4.9 4.9 0 0 1 .819 2.873 5.619 5.619 0 0 1 8.076.56 4.9 4.9 0 0 1 9.7 7.573" class="prefix__cls-10" data-name="Fill 720" transform="translate(32.77 42.384)"/>
        <path id="prefix__Stroke_722" d="M9.7 7.573a5.619 5.619 0 0 1-7.259 2.314A4.9 4.9 0 0 1 .819 2.873 5.619 5.619 0 0 1 8.076.56 4.9 4.9 0 0 1 9.7 7.573z" class="prefix__cls-11" data-name="Stroke 722" transform="translate(32.77 42.384)"/>
        <path id="prefix__Stroke_724" d="M12.464 3.249c-1.866-.367-3.817-.8-5.84-1.32C4.279 1.327 2.069.676 0 0" class="prefix__cls-12" data-name="Stroke 724" transform="translate(22.224 60.628)"/>
        <path id="prefix__Fill_726" d="M.5 0c.729.253 1.748.592 2.979.96 1.5.449 2.635.733 3.918 1.056 1.061.266 2.266.55 4.677 1.117l.926.218a1.752 1.752 0 0 0-.61.374 1.821 1.821 0 0 0-.168.185c-.4.033-.954.077-1.627.119-1.035.064-1.807.091-2.823.124l-.623.021c-.811.024-1.487.037-1.974.043L0 3.422.5 0" class="prefix__cls-10" data-name="Fill 726" transform="translate(21.243 60.723)"/>
        <path id="prefix__Stroke_728" d="M29.03 0c1.314 2 1.629 4.144.709 5.3a4.114 4.114 0 0 1-1.974 1.153 7.559 7.559 0 0 1-2.905.338l-.145-.014C23.631 6.663 14.329 5.7 0 4.221" class="prefix__cls-12" data-name="Stroke 728" transform="translate(12.579 52.369)"/>
        <path id="prefix__Fill_730" d="M.34 0l22.91 2.348-2.117 4.319c-.512-.047-1.27-.132-2.183-.289-.325-.056-.661-.124-.889-.168 0 0-.753-.148-1.53-.32-1.343-.3-3.733-.9-6.206-1.608-.32-.091-1.03-.3-1.939-.578-.755-.233-1.133-.35-1.607-.515-.612-.215-.623-.241-1.806-.674-.461-.169-.609-.22-1.088-.4-.569-.215-.985-.37-1.141-.43C2.205 1.478 1.354 1.157 0 .668z" class="prefix__cls-10" data-name="Fill 730" transform="translate(15.559 57.203)"/>
        <path id="prefix__Fill_732" d="M4.612.028c-1.128.18-1.865 1.2-2.552 2.154-.583.807-1.477 2.044-1.117 3.19.237.754.917 1.152.718 1.6-.152.34-.711.461-.8.479-.468.094-.687-.1-.8 0-.292.261.394 2.338 1.994 3.19 1.682.9 3.782.127 4.985-.778a5.653 5.653 0 0 0 2.117-5.687C8.629 1.879 6.484-.27 4.612.028" class="prefix__cls-3" data-name="Fill 732" transform="translate(35.013 42.123)"/>
        <path id="prefix__Stroke_734" d="M4.612.028c-1.128.18-1.865 1.2-2.552 2.154-.583.807-1.477 2.044-1.117 3.19.237.754.917 1.152.718 1.6-.152.34-.711.461-.8.479-.468.094-.687-.1-.8 0-.292.261.394 2.338 1.994 3.19 1.682.9 3.782.127 4.985-.778a5.653 5.653 0 0 0 2.117-5.687C8.629 1.879 6.484-.27 4.612.028z" class="prefix__cls-11" data-name="Stroke 734" transform="translate(35.013 42.123)"/>
        <g id="prefix__Group_739" data-name="Group 739" transform="translate(28.78 53.94)">
            <path id="prefix__Fill_736" d="M6.556.422c-.17 1.012-1.117 6.272-3.862 7.4C2.259 8 1.2 8.438.54 7.943A1.812 1.812 0 0 1 0 6.508c.074-1.4 1.511-1.847 2.871-3.649A9.318 9.318 0 0 0 4.32 0" class="prefix__cls-10" data-name="Fill 736" transform="translate(.355 .146)"/>
            <path id="prefix__Stroke_738" d="M6.556.422c-.17 1.012-1.117 6.272-3.862 7.4C2.259 8 1.2 8.438.54 7.943A1.812 1.812 0 0 1 0 6.508c.074-1.4 1.511-1.847 2.871-3.649A9.318 9.318 0 0 0 4.32 0" class="prefix__cls-12" data-name="Stroke 738" transform="translate(.355 .146)"/>
        </g>
        <path id="prefix__Fill_740" d="M14.694 7.219c.2.907.745 3.346-.686 5.317-1.968 2.71-5.994 2.228-6.532 2.156C4.488 14.291.079 11.942 0 7.474A7.347 7.347 0 0 1 7.219 0c4.6-.081 6.9 4.656 7.474 7.218" data-name="Fill 740" transform="translate(22.308 36.992)" style="fill:rgba(218,206,253,.5);mix-blend-mode:multiply;isolation:isolate"/>
    </g>
</svg>
