<svg xmlns="http://www.w3.org/2000/svg" width="65.641" height="75.785" viewBox="0 0 65.641 75.785">
    <defs>
        <clipPath id="prefix__clip-path">
            <path id="prefix__Clip_148" d="M.137 0h.52v.8h-.52z" class="prefix__cls-1" data-name="Clip 148" transform="translate(.573 .745)"/>
        </clipPath>
        <clipPath id="prefix__clip-path-2">
            <path id="prefix__Clip_351" d="M.136 0H.66v.8H.136z" class="prefix__cls-1" data-name="Clip 351" transform="translate(.571 .129)"/>
        </clipPath>
        <clipPath id="prefix__clip-path-3">
            <path id="prefix__Clip_354" d="M.141 0h.513v1.172H.141z" class="prefix__cls-1" data-name="Clip 354" transform="translate(.577 .251)"/>
        </clipPath>
        <clipPath id="prefix__clip-path-4">
            <path id="prefix__Clip_711" d="M0 0h13.52v15.733H0z" class="prefix__cls-1" data-name="Clip 711" transform="translate(.715 .17)"/>
        </clipPath>
        <style>
            .prefix__cls-1{fill:none}.prefix__cls-2{fill:#c5eb8c}.prefix__cls-7{fill:#fff}.prefix__cls-8{fill:#2d2d2d}
        </style>
    </defs>
    <g id="prefix__ic_conceiving_issues">
        <path id="prefix__Fill_1" d="M1.01 2.021A1.009 1.009 0 0 1 1.013 0a1.01 1.01 0 0 0 0 2.021" class="prefix__cls-2" data-name="Fill 1" transform="translate(33.083 5.561)"/>
        <g id="prefix__Group_12" data-name="Group 12" transform="translate(2.025 5.561)" style="opacity:.4">
            <path id="prefix__Fill_3" d="M1.011 2.021A1.01 1.01 0 1 0 0 1.01a1.01 1.01 0 0 0 1.011 1.011" class="prefix__cls-2" data-name="Fill 3" transform="translate(35.098)"/>
            <path id="prefix__Fill_5" d="M1.01 1.476a1.006 1.006 0 0 0 1-.969C1.392.317.763.152.129 0A.975.975 0 0 0 0 .465a1.01 1.01 0 0 0 1.01 1.011" class="prefix__cls-2" data-name="Fill 5" transform="translate(39.139 .545)"/>
            <path id="prefix__Fill_7" d="M1.011 2.021A1.01 1.01 0 1 0 0 1.01a1.011 1.011 0 0 0 1.011 1.011" class="prefix__cls-2" data-name="Fill 7" transform="translate(33.078 3.031)"/>
            <path id="prefix__Fill_9" d="M1.011 2.021A1.01 1.01 0 1 0 0 1.01a1.011 1.011 0 0 0 1.011 1.011" class="prefix__cls-2" data-name="Fill 9" transform="translate(37.118 3.031)"/>
            <path id="prefix__Fill_11" d="M1.011 2.021A1.01 1.01 0 1 0 0 1.01a1.011 1.011 0 0 0 1.011 1.011" class="prefix__cls-2" data-name="Fill 11" transform="translate(41.158 3.031)"/>
            <path id="prefix__Fill_13" d="M0 .99a1.01 1.01 0 1 0 2.021 0A.976.976 0 0 0 1.877.5C1.559.328 1.234.164.91 0A1 1 0 0 0 0 .99" class="prefix__cls-2" data-name="Fill 13" transform="translate(45.199 3.051)"/>
            <path id="prefix__Fill_15" d="M.006 1.01A1.011 1.011 0 0 1 1.013 0a1.01 1.01 0 0 0 0 2.021A1.01 1.01 0 0 1 .006 1.01" class="prefix__cls-2" data-name="Fill 15" transform="translate(31.058 6.061)"/>
            <path id="prefix__Fill_17" d="M1.011 0a1.01 1.01 0 1 0 1.01 1.01A1.01 1.01 0 0 0 1.011 0" class="prefix__cls-2" data-name="Fill 17" transform="translate(35.098 6.061)"/>
            <path id="prefix__Fill_19" d="M1.01 2.02A1.01 1.01 0 1 0 0 1.009 1.01 1.01 0 0 0 1.01 2.02" class="prefix__cls-2" data-name="Fill 19" transform="translate(39.139 6.061)"/>
            <path id="prefix__Fill_21" d="M1.01 2.02A1.01 1.01 0 1 0 0 1.009 1.01 1.01 0 0 0 1.01 2.02" class="prefix__cls-2" data-name="Fill 21" transform="translate(43.179 6.061)"/>
            <path id="prefix__Fill_23" d="M1.01 2.02A1.01 1.01 0 1 0 0 1.009 1.01 1.01 0 0 0 1.01 2.02" class="prefix__cls-2" data-name="Fill 23" transform="translate(47.219 6.061)"/>
            <path id="prefix__Fill_25" d="M1.011 1.609a1 1 0 0 0 .738-.33C1.253.835.741.411.219 0A.98.98 0 0 0 0 .6a1.011 1.011 0 0 0 1.011 1.009" class="prefix__cls-2" data-name="Fill 25" transform="translate(51.259 6.472)"/>
            <path id="prefix__Fill_27" d="M1.011 0a1.01 1.01 0 1 0 1.01 1.011A1.011 1.011 0 0 0 1.011 0" class="prefix__cls-2" data-name="Fill 27" transform="translate(33.078 9.091)"/>
            <path id="prefix__Fill_29" d="M1.011 0a1.01 1.01 0 1 0 1.01 1.011A1.01 1.01 0 0 0 1.011 0" class="prefix__cls-2" data-name="Fill 29" transform="translate(37.118 9.091)"/>
            <path id="prefix__Fill_31" d="M1.011 0a1.01 1.01 0 1 0 1.01 1.011A1.011 1.011 0 0 0 1.011 0" class="prefix__cls-2" data-name="Fill 31" transform="translate(41.158 9.091)"/>
            <path id="prefix__Fill_33" d="M1.011 2.02A1.01 1.01 0 1 0 0 1.01a1.01 1.01 0 0 0 1.011 1.01" class="prefix__cls-2" data-name="Fill 33" transform="translate(45.199 9.091)"/>
            <path id="prefix__Fill_35" d="M1.011 2.02A1.01 1.01 0 1 0 0 1.01a1.01 1.01 0 0 0 1.011 1.01" class="prefix__cls-2" data-name="Fill 35" transform="translate(49.239 9.091)"/>
            <path id="prefix__Fill_37" d="M0 1.011a1.01 1.01 0 0 0 2.021 0A1.046 1.046 0 0 0 2 .9C1.73.6 1.453.317 1.172.032A1 1 0 0 0 1.011 0 1.01 1.01 0 0 0 0 1.011" class="prefix__cls-2" data-name="Fill 37" transform="translate(53.28 9.091)"/>
            <path id="prefix__Fill_39" d="M.006 1.011A1.01 1.01 0 0 1 1.013 0a1.01 1.01 0 0 0 0 2.021 1.01 1.01 0 0 1-1.007-1.01" class="prefix__cls-2" data-name="Fill 39" transform="translate(31.058 12.121)"/>
            <path id="prefix__Fill_41" d="M1.011 2.02A1.01 1.01 0 1 0 0 1.01a1.01 1.01 0 0 0 1.011 1.01" class="prefix__cls-2" data-name="Fill 41" transform="translate(35.098 12.121)"/>
            <path id="prefix__Fill_43" d="M1.01 0a1.01 1.01 0 1 0 1.011 1.011A1.01 1.01 0 0 0 1.01 0" class="prefix__cls-2" data-name="Fill 43" transform="translate(39.139 12.121)"/>
            <path id="prefix__Fill_45" d="M1.01 0a1.01 1.01 0 1 0 1.011 1.011A1.01 1.01 0 0 0 1.01 0" class="prefix__cls-2" data-name="Fill 45" transform="translate(43.179 12.121)"/>
            <path id="prefix__Fill_47" d="M1.01 0a1.01 1.01 0 1 0 1.011 1.011A1.01 1.01 0 0 0 1.01 0" class="prefix__cls-2" data-name="Fill 47" transform="translate(47.219 12.121)"/>
            <path id="prefix__Fill_49" d="M1.011 2.02A1.01 1.01 0 1 0 0 1.01a1.01 1.01 0 0 0 1.011 1.01" class="prefix__cls-2" data-name="Fill 49" transform="translate(51.259 12.121)"/>
            <path id="prefix__Fill_51" d="M1.01 2.02A1.01 1.01 0 1 0 0 1.01a1.01 1.01 0 0 0 1.01 1.01" class="prefix__cls-2" data-name="Fill 51" transform="translate(55.3 12.121)"/>
            <path id="prefix__Fill_53" d="M1.011 0a1.01 1.01 0 1 0 1.01 1.011A1.011 1.011 0 0 0 1.011 0" class="prefix__cls-2" data-name="Fill 53" transform="translate(33.078 15.152)"/>
            <path id="prefix__Fill_55" d="M1.011 0a1.01 1.01 0 1 0 1.01 1.011A1.011 1.011 0 0 0 1.011 0" class="prefix__cls-2" data-name="Fill 55" transform="translate(37.118 15.152)"/>
            <path id="prefix__Fill_57" d="M1.011 2.021A1.01 1.01 0 1 0 0 1.01a1.011 1.011 0 0 0 1.011 1.011" class="prefix__cls-2" data-name="Fill 57" transform="translate(41.158 15.152)"/>
            <path id="prefix__Fill_59" d="M1.011 0a1.01 1.01 0 1 0 1.01 1.011A1.011 1.011 0 0 0 1.011 0" class="prefix__cls-2" data-name="Fill 59" transform="translate(45.199 15.152)"/>
            <path id="prefix__Fill_61" d="M1.011 0a1.01 1.01 0 1 0 1.01 1.011A1.011 1.011 0 0 0 1.011 0" class="prefix__cls-2" data-name="Fill 61" transform="translate(49.239 15.152)"/>
            <path id="prefix__Fill_63" d="M1.011 2.021A1.01 1.01 0 1 0 0 1.01a1.011 1.011 0 0 0 1.011 1.011" class="prefix__cls-2" data-name="Fill 63" transform="translate(53.279 15.152)"/>
            <path id="prefix__Fill_65" d="M1.011 2.021A1.01 1.01 0 1 0 0 1.01a1.01 1.01 0 0 0 1.011 1.011" class="prefix__cls-2" data-name="Fill 65" transform="translate(57.32 15.152)"/>
            <path id="prefix__Fill_67" d="M.006 1.01A1.01 1.01 0 0 1 1.013 0a1.01 1.01 0 0 0 0 2.021A1.01 1.01 0 0 1 .006 1.01" class="prefix__cls-2" data-name="Fill 67" transform="translate(31.058 18.182)"/>
            <path id="prefix__Fill_69" d="M1.011 0a1.01 1.01 0 1 0 1.01 1.01A1.01 1.01 0 0 0 1.011 0" class="prefix__cls-2" data-name="Fill 69" transform="translate(35.098 18.182)"/>
            <path id="prefix__Fill_71" d="M1.01 0a1.01 1.01 0 1 0 1.011 1.01A1.01 1.01 0 0 0 1.01 0" class="prefix__cls-2" data-name="Fill 71" transform="translate(39.139 18.182)"/>
            <path id="prefix__Fill_73" d="M1.01 0a1.01 1.01 0 1 0 1.011 1.01A1.01 1.01 0 0 0 1.01 0" class="prefix__cls-2" data-name="Fill 73" transform="translate(43.179 18.182)"/>
            <path id="prefix__Fill_75" d="M1.01 2.02A1.01 1.01 0 1 0 0 1.009 1.01 1.01 0 0 0 1.01 2.02" class="prefix__cls-2" data-name="Fill 75" transform="translate(47.219 18.182)"/>
            <path id="prefix__Fill_77" d="M1.011 0a1.01 1.01 0 1 0 1.01 1.01A1.01 1.01 0 0 0 1.011 0" class="prefix__cls-2" data-name="Fill 77" transform="translate(51.259 18.182)"/>
            <path id="prefix__Fill_79" d="M1.01 0a1.01 1.01 0 1 0 1.011 1.01A1.01 1.01 0 0 0 1.01 0" class="prefix__cls-2" data-name="Fill 79" transform="translate(55.3 18.182)"/>
            <path id="prefix__Fill_81" d="M0 1.01a1 1 0 0 0 1.954.331Q1.7.706 1.411.085A1.006 1.006 0 0 0 0 1.01" class="prefix__cls-2" data-name="Fill 81" transform="translate(59.34 18.182)"/>
            <path id="prefix__Fill_83" d="M1.011 0a1.01 1.01 0 1 0 1.01 1.01A1.01 1.01 0 0 0 1.011 0" class="prefix__cls-2" data-name="Fill 83" transform="translate(33.078 21.212)"/>
            <path id="prefix__Fill_85" d="M1.011 2.02A1.01 1.01 0 1 0 0 1.009 1.011 1.011 0 0 0 1.011 2.02" class="prefix__cls-2" data-name="Fill 85" transform="translate(37.118 21.212)"/>
            <path id="prefix__Fill_87" d="M1.011 0a1.01 1.01 0 1 0 1.01 1.01A1.01 1.01 0 0 0 1.011 0" class="prefix__cls-2" data-name="Fill 87" transform="translate(41.158 21.212)"/>
            <path id="prefix__Fill_89" d="M1.011 0a1.01 1.01 0 1 0 1.01 1.01A1.01 1.01 0 0 0 1.011 0" class="prefix__cls-2" data-name="Fill 89" transform="translate(45.199 21.212)"/>
            <path id="prefix__Fill_91" d="M1.011 0a1.01 1.01 0 1 0 1.01 1.01A1.01 1.01 0 0 0 1.011 0" class="prefix__cls-2" data-name="Fill 91" transform="translate(49.239 21.212)"/>
            <path id="prefix__Fill_93" d="M1.011 0a1.01 1.01 0 1 0 1.01 1.01A1.01 1.01 0 0 0 1.011 0" class="prefix__cls-2" data-name="Fill 93" transform="translate(53.279 21.212)"/>
            <path id="prefix__Fill_95" d="M1.011 0a1.01 1.01 0 1 0 1.01 1.01A1.01 1.01 0 0 0 1.011 0" class="prefix__cls-2" data-name="Fill 95" transform="translate(57.32 21.212)"/>
            <path id="prefix__Fill_97" d="M0 .914a1.01 1.01 0 0 0 1.011 1.01.893.893 0 0 0 .157-.033C1 1.252.8.623.593 0A1 1 0 0 0 0 .914" class="prefix__cls-2" data-name="Fill 97" transform="translate(61.36 21.308)"/>
            <path id="prefix__Fill_99" d="M1.01 2.021A1.009 1.009 0 0 1 1.013 0a1.01 1.01 0 0 0 0 2.021" class="prefix__cls-2" data-name="Fill 99" transform="translate(31.058 24.243)"/>
            <path id="prefix__Fill_101" d="M1.011 0a1.01 1.01 0 1 0 1.01 1.011A1.01 1.01 0 0 0 1.011 0" class="prefix__cls-2" data-name="Fill 101" transform="translate(35.098 24.243)"/>
            <path id="prefix__Fill_103" d="M1.01 0a1.01 1.01 0 1 0 1.011 1.011A1.01 1.01 0 0 0 1.01 0" class="prefix__cls-2" data-name="Fill 103" transform="translate(39.139 24.243)"/>
            <path id="prefix__Fill_105" d="M1.01 2.021A1.01 1.01 0 1 0 0 1.01a1.011 1.011 0 0 0 1.01 1.011" class="prefix__cls-2" data-name="Fill 105" transform="translate(43.179 24.243)"/>
            <path id="prefix__Fill_107" d="M1.01 0a1.01 1.01 0 1 0 1.011 1.011A1.01 1.01 0 0 0 1.01 0" class="prefix__cls-2" data-name="Fill 107" transform="translate(47.219 24.243)"/>
            <path id="prefix__Fill_109" d="M1.011 0a1.01 1.01 0 1 0 1.01 1.011A1.011 1.011 0 0 0 1.011 0" class="prefix__cls-2" data-name="Fill 109" transform="translate(51.259 24.243)"/>
            <path id="prefix__Fill_111" d="M1.01 2.021A1.01 1.01 0 1 0 0 1.01a1.011 1.011 0 0 0 1.01 1.011" class="prefix__cls-2" data-name="Fill 111" transform="translate(55.3 24.243)"/>
            <path id="prefix__Fill_113" d="M1.011 2.021A1.01 1.01 0 1 0 0 1.01a1.011 1.011 0 0 0 1.011 1.011" class="prefix__cls-2" data-name="Fill 113" transform="translate(59.339 24.243)"/>
            <path id="prefix__Fill_115" d="M1.011 0a1.01 1.01 0 1 0 1.01 1.011A1.011 1.011 0 0 0 1.011 0" class="prefix__cls-2" data-name="Fill 115" transform="translate(33.078 27.273)"/>
            <path id="prefix__Fill_117" d="M1.011 0a1.01 1.01 0 1 0 1.01 1.011A1.01 1.01 0 0 0 1.011 0" class="prefix__cls-2" data-name="Fill 117" transform="translate(37.118 27.273)"/>
            <path id="prefix__Fill_119" d="M1.011 0a1.01 1.01 0 1 0 1.01 1.011A1.011 1.011 0 0 0 1.011 0" class="prefix__cls-2" data-name="Fill 119" transform="translate(41.158 27.273)"/>
            <path id="prefix__Fill_121" d="M1.011 2.021A1.01 1.01 0 1 0 0 1.01a1.011 1.011 0 0 0 1.011 1.011" class="prefix__cls-2" data-name="Fill 121" transform="translate(45.199 27.273)"/>
            <path id="prefix__Fill_123" d="M1.011 2.021A1.01 1.01 0 1 0 0 1.01a1.01 1.01 0 0 0 1.011 1.011" class="prefix__cls-2" data-name="Fill 123" transform="translate(49.239 27.273)"/>
            <path id="prefix__Fill_125" d="M1.011 0a1.01 1.01 0 1 0 1.01 1.011A1.01 1.01 0 0 0 1.011 0" class="prefix__cls-2" data-name="Fill 125" transform="translate(53.279 27.273)"/>
            <path id="prefix__Fill_127" d="M1.011 0a1.01 1.01 0 1 0 1.01 1.011A1.01 1.01 0 0 0 1.011 0" class="prefix__cls-2" data-name="Fill 127" transform="translate(57.32 27.273)"/>
            <path id="prefix__Fill_129" d="M1.011 2.021A1.01 1.01 0 1 0 0 1.01a1.011 1.011 0 0 0 1.011 1.011" class="prefix__cls-2" data-name="Fill 129" transform="translate(61.36 27.273)"/>
            <path id="prefix__Fill_131" d="M.006.017S0 .006 0 0v.017a1.01 1.01 0 0 0 1.01 1.01A1.01 1.01 0 0 1 .006.017" class="prefix__cls-2" data-name="Fill 131" transform="translate(31.058 31.296)"/>
            <path id="prefix__Fill_133" d="M1.011 1.027A1.01 1.01 0 0 0 2.021.016V0a1.01 1.01 0 0 1-1.01.995A1.009 1.009 0 0 1 0 0v.016a1.01 1.01 0 0 0 1.011 1.011" class="prefix__cls-2" data-name="Fill 133" transform="translate(35.098 31.297)"/>
            <path id="prefix__Fill_135" d="M1.01.995A1.009 1.009 0 0 1 0 0v.017a1.01 1.01 0 0 0 1.01 1.01A1.01 1.01 0 0 0 2.021.017V0A1.009 1.009 0 0 1 1.01.995" class="prefix__cls-2" data-name="Fill 135" transform="translate(39.139 31.297)"/>
            <path id="prefix__Fill_137" d="M1.01.995A1.009 1.009 0 0 1 0 0v.017a1.01 1.01 0 0 0 1.01 1.01A1.01 1.01 0 0 0 2.021.017V0A1.01 1.01 0 0 1 1.01.995" class="prefix__cls-2" data-name="Fill 137" transform="translate(43.179 31.297)"/>
            <path id="prefix__Fill_139" d="M2.017 0a1.009 1.009 0 0 1-1.008.995A1.008 1.008 0 0 1 0 0v.017a1.009 1.009 0 0 0 1.009 1.01A1.009 1.009 0 0 0 2.02.017V0" class="prefix__cls-2" data-name="Fill 139" transform="translate(47.22 31.297)"/>
            <path id="prefix__Fill_141" d="M1.011 1.027A1.01 1.01 0 0 0 2.021.016V0a1.01 1.01 0 0 1-1.01.995A1.009 1.009 0 0 1 0 0v.016a1.011 1.011 0 0 0 1.011 1.011" class="prefix__cls-2" data-name="Fill 141" transform="translate(51.259 31.297)"/>
            <path id="prefix__Fill_143" d="M2.017 0a1.009 1.009 0 0 1-1.008.995A1.008 1.008 0 0 1 0 0v.017a1.009 1.009 0 0 0 1.009 1.01A1.009 1.009 0 0 0 2.02.017V0" class="prefix__cls-2" data-name="Fill 143" transform="translate(55.3 31.297)"/>
            <path id="prefix__Fill_145" d="M1.011.995A1.009 1.009 0 0 1 0 0a.166.166 0 0 0 0 .017 1.01 1.01 0 0 0 1.011 1.01 1.01 1.01 0 0 0 1.01-1.01V0a1.01 1.01 0 0 1-1.01.995" class="prefix__cls-2" data-name="Fill 145" transform="translate(59.339 31.297)"/>
            <g id="prefix__Group_149" data-name="Group 149" transform="translate(62.384 30.465)">
                <path id="prefix__Clip_148-2" d="M.137 0h.52v.8h-.52z" class="prefix__cls-1" data-name="Clip 148" transform="translate(.573 .745)"/>
                <g id="prefix__Group_149-2" data-name="Group 149">
                    <path id="prefix__Fill_147" d="M.286.1a.991.991 0 0 0 .222.609V.678A.987.987 0 0 1 .289.086C.289.092.286.1.286.1" class="prefix__cls-2" data-name="Fill 147" transform="translate(.711 .745)"/>
                </g>
            </g>
            <path id="prefix__Fill_150" d="M.856.218C.569.326.284.441 0 .557a1.015 1.015 0 0 0 .1.02.993.993 0 0 0 .756-.359" class="prefix__cls-2" data-name="Fill 150" transform="translate(19.853 1.444)"/>
            <path id="prefix__Fill_152" d="M1.011 1.574A1.011 1.011 0 0 0 2.021.563.979.979 0 0 0 1.826 0Q.913.205.021.464A.817.817 0 0 0 0 .563a1.011 1.011 0 0 0 1.011 1.011" class="prefix__cls-2" data-name="Fill 152" transform="translate(22.982 .447)"/>
            <path id="prefix__Fill_154" d="M1.011 2.021A1.01 1.01 0 1 0 0 1.01a1.011 1.011 0 0 0 1.011 1.011" class="prefix__cls-2" data-name="Fill 154" transform="translate(27.023)"/>
            <path id="prefix__Fill_156" d="M1.007 1.011A1.01 1.01 0 0 1 0 2.021a1.012 1.012 0 0 0 1.014-1.01A1.011 1.011 0 0 0 0 0a1.01 1.01 0 0 1 1.007 1.01" class="prefix__cls-2" data-name="Fill 156" transform="translate(32.071)"/>
            <path id="prefix__Fill_158" d="M0 1.01A1.007 1.007 0 1 0 1.007 0 1.01 1.01 0 0 0 0 1.01" class="prefix__cls-2" data-name="Fill 158" transform="translate(31.064 .001)"/>
            <path id="prefix__Fill_160" d="M.607.264C.468.353.325.44.188.532A1 1 0 0 0 .607.264" class="prefix__cls-2" data-name="Fill 160" transform="translate(14.025 4.454)"/>
            <path id="prefix__Fill_162" d="M1.011 2.021A1.01 1.01 0 1 0 0 1.01a1.01 1.01 0 0 0 1.011 1.011" class="prefix__cls-2" data-name="Fill 162" transform="translate(16.922 3.031)"/>
            <path id="prefix__Fill_164" d="M1.011 2.021A1.01 1.01 0 1 0 0 1.01a1.01 1.01 0 0 0 1.011 1.011" class="prefix__cls-2" data-name="Fill 164" transform="translate(20.963 3.031)"/>
            <path id="prefix__Fill_166" d="M1.011 2.021A1.01 1.01 0 1 0 0 1.01a1.01 1.01 0 0 0 1.011 1.011" class="prefix__cls-2" data-name="Fill 166" transform="translate(25.003 3.031)"/>
            <path id="prefix__Fill_168" d="M1.01 2.021A1.01 1.01 0 1 0 0 1.01a1.01 1.01 0 0 0 1.01 1.011" class="prefix__cls-2" data-name="Fill 168" transform="translate(29.043 3.031)"/>
            <path id="prefix__Fill_170" d="M.918 1.821A1.01 1.01 0 0 0 1.928.81.993.993 0 0 0 1.489 0Q.725.589 0 1.223a1.008 1.008 0 0 0 .918.6" class="prefix__cls-2" data-name="Fill 170" transform="translate(10.954 6.26)"/>
            <path id="prefix__Fill_172" d="M1.01 2.02A1.01 1.01 0 1 0 0 1.009 1.011 1.011 0 0 0 1.01 2.02" class="prefix__cls-2" data-name="Fill 172" transform="translate(14.903 6.061)"/>
            <path id="prefix__Fill_174" d="M1.011 2.02A1.01 1.01 0 1 0 0 1.009 1.01 1.01 0 0 0 1.011 2.02" class="prefix__cls-2" data-name="Fill 174" transform="translate(18.942 6.061)"/>
            <path id="prefix__Fill_176" d="M1.011 2.02A1.01 1.01 0 1 0 0 1.009 1.011 1.011 0 0 0 1.011 2.02" class="prefix__cls-2" data-name="Fill 176" transform="translate(22.982 6.061)"/>
            <path id="prefix__Fill_178" d="M1.011 0a1.01 1.01 0 1 0 1.01 1.01A1.01 1.01 0 0 0 1.011 0" class="prefix__cls-2" data-name="Fill 178" transform="translate(27.023 6.061)"/>
            <path id="prefix__Fill_180" d="M0 0a1.01 1.01 0 0 1 1.007 1.01A1.01 1.01 0 0 1 0 2.019 1.01 1.01 0 1 0 0 0" class="prefix__cls-2" data-name="Fill 180" transform="translate(32.071 6.061)"/>
            <path id="prefix__Fill_182" d="M2.014 1.01a1.007 1.007 0 1 0-1.007 1.01 1.01 1.01 0 0 0 1.007-1.01" class="prefix__cls-2" data-name="Fill 182" transform="translate(31.064 6.061)"/>
            <path id="prefix__Fill_184" d="M1.011 2.02A1.01 1.01 0 1 0 0 1.01a1.01 1.01 0 0 0 1.011 1.01" class="prefix__cls-2" data-name="Fill 184" transform="translate(8.842 9.091)"/>
            <path id="prefix__Fill_186" d="M1.011 2.02A1.01 1.01 0 1 0 0 1.01a1.01 1.01 0 0 0 1.011 1.01" class="prefix__cls-2" data-name="Fill 186" transform="translate(12.882 9.091)"/>
            <path id="prefix__Fill_188" d="M1.011 0a1.01 1.01 0 1 0 1.01 1.011A1.01 1.01 0 0 0 1.011 0" class="prefix__cls-2" data-name="Fill 188" transform="translate(16.922 9.091)"/>
            <path id="prefix__Fill_190" d="M1.011 0a1.01 1.01 0 1 0 1.01 1.011A1.01 1.01 0 0 0 1.011 0" class="prefix__cls-2" data-name="Fill 190" transform="translate(20.963 9.091)"/>
            <path id="prefix__Fill_192" d="M1.011 0a1.01 1.01 0 1 0 1.01 1.011A1.01 1.01 0 0 0 1.011 0" class="prefix__cls-2" data-name="Fill 192" transform="translate(25.003 9.091)"/>
            <path id="prefix__Fill_194" d="M1.01 0a1.01 1.01 0 1 0 1.011 1.011A1.01 1.01 0 0 0 1.01 0" class="prefix__cls-2" data-name="Fill 194" transform="translate(29.043 9.091)"/>
            <path id="prefix__Fill_196" d="M1.01 2.02A1.01 1.01 0 1 0 0 1.01a1.01 1.01 0 0 0 1.01 1.01" class="prefix__cls-2" data-name="Fill 196" transform="translate(6.822 12.121)"/>
            <path id="prefix__Fill_198" d="M1.011 2.02A1.01 1.01 0 1 0 0 1.01a1.01 1.01 0 0 0 1.011 1.01" class="prefix__cls-2" data-name="Fill 198" transform="translate(10.861 12.121)"/>
            <path id="prefix__Fill_200" d="M1.01 0a1.01 1.01 0 1 0 1.011 1.011A1.01 1.01 0 0 0 1.01 0" class="prefix__cls-2" data-name="Fill 200" transform="translate(14.903 12.121)"/>
            <path id="prefix__Fill_202" d="M1.011 0a1.01 1.01 0 1 0 1.01 1.011A1.011 1.011 0 0 0 1.011 0" class="prefix__cls-2" data-name="Fill 202" transform="translate(18.942 12.121)"/>
            <path id="prefix__Fill_204" d="M1.011 0a1.01 1.01 0 1 0 1.01 1.011A1.011 1.011 0 0 0 1.011 0" class="prefix__cls-2" data-name="Fill 204" transform="translate(22.982 12.121)"/>
            <path id="prefix__Fill_206" d="M1.011 2.02A1.01 1.01 0 1 0 0 1.01a1.01 1.01 0 0 0 1.011 1.01" class="prefix__cls-2" data-name="Fill 206" transform="translate(27.023 12.121)"/>
            <path id="prefix__Fill_208" d="M0 0a1.01 1.01 0 0 1 1.007 1.01A1.01 1.01 0 0 1 0 2.02a1.01 1.01 0 0 0 1.014-1.009A1.011 1.011 0 0 0 0 0" class="prefix__cls-2" data-name="Fill 208" transform="translate(32.071 12.121)"/>
            <path id="prefix__Fill_210" d="M2.014 1.01a1.007 1.007 0 1 0-1.007 1.01 1.01 1.01 0 0 0 1.007-1.01" class="prefix__cls-2" data-name="Fill 210" transform="translate(31.064 12.122)"/>
            <path id="prefix__Fill_212" d="M1.011 2.021A1.01 1.01 0 1 0 0 1.01a1.011 1.011 0 0 0 1.011 1.011" class="prefix__cls-2" data-name="Fill 212" transform="translate(4.801 15.152)"/>
            <path id="prefix__Fill_214" d="M1.011 0a1.01 1.01 0 1 0 1.01 1.011A1.011 1.011 0 0 0 1.011 0" class="prefix__cls-2" data-name="Fill 214" transform="translate(8.842 15.152)"/>
            <path id="prefix__Fill_216" d="M1.011 0a1.01 1.01 0 1 0 1.01 1.011A1.011 1.011 0 0 0 1.011 0" class="prefix__cls-2" data-name="Fill 216" transform="translate(12.882 15.152)"/>
            <path id="prefix__Fill_218" d="M1.011 2.021A1.01 1.01 0 1 0 0 1.01a1.01 1.01 0 0 0 1.011 1.011" class="prefix__cls-2" data-name="Fill 218" transform="translate(16.922 15.152)"/>
            <path id="prefix__Fill_220" d="M1.011 2.021A1.01 1.01 0 1 0 0 1.01a1.01 1.01 0 0 0 1.011 1.011" class="prefix__cls-2" data-name="Fill 220" transform="translate(20.963 15.152)"/>
            <path id="prefix__Fill_222" d="M1.011 2.021A1.01 1.01 0 1 0 0 1.01a1.01 1.01 0 0 0 1.011 1.011" class="prefix__cls-2" data-name="Fill 222" transform="translate(25.003 15.152)"/>
            <path id="prefix__Fill_224" d="M1.01 0a1.01 1.01 0 1 0 1.011 1.011A1.01 1.01 0 0 0 1.01 0" class="prefix__cls-2" data-name="Fill 224" transform="translate(29.043 15.152)"/>
            <path id="prefix__Fill_226" d="M1.011 2.02A1.01 1.01 0 1 0 0 1.009 1.01 1.01 0 0 0 1.011 2.02" class="prefix__cls-2" data-name="Fill 226" transform="translate(2.781 18.182)"/>
            <path id="prefix__Fill_228" d="M1.01 0a1.01 1.01 0 1 0 1.011 1.01A1.01 1.01 0 0 0 1.01 0" class="prefix__cls-2" data-name="Fill 228" transform="translate(6.822 18.182)"/>
            <path id="prefix__Fill_230" d="M1.011 0a1.01 1.01 0 1 0 1.01 1.01A1.01 1.01 0 0 0 1.011 0" class="prefix__cls-2" data-name="Fill 230" transform="translate(10.861 18.182)"/>
            <path id="prefix__Fill_232" d="M1.01 2.02A1.01 1.01 0 1 0 0 1.009 1.011 1.011 0 0 0 1.01 2.02" class="prefix__cls-2" data-name="Fill 232" transform="translate(14.903 18.182)"/>
            <path id="prefix__Fill_234" d="M1.011 0a1.01 1.01 0 1 0 1.01 1.01A1.01 1.01 0 0 0 1.011 0" class="prefix__cls-2" data-name="Fill 234" transform="translate(18.942 18.182)"/>
            <path id="prefix__Fill_236" d="M1.011 0a1.01 1.01 0 1 0 1.01 1.01A1.01 1.01 0 0 0 1.011 0" class="prefix__cls-2" data-name="Fill 236" transform="translate(22.982 18.182)"/>
            <path id="prefix__Fill_238" d="M1.011 0a1.01 1.01 0 1 0 1.01 1.01A1.01 1.01 0 0 0 1.011 0" class="prefix__cls-2" data-name="Fill 238" transform="translate(27.023 18.182)"/>
            <path id="prefix__Fill_240" d="M0 0a1.01 1.01 0 0 1 1.007 1.01A1.01 1.01 0 0 1 0 2.019 1.01 1.01 0 1 0 0 0" class="prefix__cls-2" data-name="Fill 240" transform="translate(32.071 18.182)"/>
            <path id="prefix__Fill_242" d="M2.014 1.01a1.007 1.007 0 1 0-1.007 1.01 1.01 1.01 0 0 0 1.007-1.01" class="prefix__cls-2" data-name="Fill 242" transform="translate(31.064 18.182)"/>
            <path id="prefix__Fill_244" d="M1.605 1.01A1.01 1.01 0 0 0 .6 0C.58 0 .568.008.553.009Q.252.895 0 1.805a1 1 0 0 0 .6.215 1.01 1.01 0 0 0 1.005-1.01" class="prefix__cls-2" data-name="Fill 244" transform="translate(1.176 21.212)"/>
            <path id="prefix__Fill_246" d="M1.011 0a1.01 1.01 0 1 0 1.01 1.01A1.01 1.01 0 0 0 1.011 0" class="prefix__cls-2" data-name="Fill 246" transform="translate(4.801 21.212)"/>
            <path id="prefix__Fill_248" d="M1.011 2.02A1.01 1.01 0 1 0 0 1.009 1.01 1.01 0 0 0 1.011 2.02" class="prefix__cls-2" data-name="Fill 248" transform="translate(8.842 21.212)"/>
            <path id="prefix__Fill_250" d="M1.011 2.02A1.01 1.01 0 1 0 0 1.009 1.011 1.011 0 0 0 1.011 2.02" class="prefix__cls-2" data-name="Fill 250" transform="translate(12.882 21.212)"/>
            <path id="prefix__Fill_252" d="M1.011 0a1.01 1.01 0 1 0 1.01 1.01A1.01 1.01 0 0 0 1.011 0" class="prefix__cls-2" data-name="Fill 252" transform="translate(16.922 21.212)"/>
            <path id="prefix__Fill_254" d="M1.011 0a1.01 1.01 0 1 0 1.01 1.01A1.01 1.01 0 0 0 1.011 0" class="prefix__cls-2" data-name="Fill 254" transform="translate(20.963 21.212)"/>
            <path id="prefix__Fill_256" d="M1.011 0a1.01 1.01 0 1 0 1.01 1.01A1.01 1.01 0 0 0 1.011 0" class="prefix__cls-2" data-name="Fill 256" transform="translate(25.003 21.212)"/>
            <path id="prefix__Fill_258" d="M1.01 2.02A1.01 1.01 0 1 0 0 1.009 1.01 1.01 0 0 0 1.01 2.02" class="prefix__cls-2" data-name="Fill 258" transform="translate(29.043 21.212)"/>
            <path id="prefix__Fill_260" d="M.451 0C.389.3.338.6.285.9A.994.994 0 0 0 .51.294 1 1 0 0 0 .451 0" class="prefix__cls-2" data-name="Fill 260" transform="translate(.251 24.958)"/>
            <path id="prefix__Fill_262" d="M1.011 2.021A1.01 1.01 0 1 0 0 1.01a1.011 1.011 0 0 0 1.011 1.011" class="prefix__cls-2" data-name="Fill 262" transform="translate(2.781 24.243)"/>
            <path id="prefix__Fill_264" d="M1.01 2.021A1.01 1.01 0 1 0 0 1.01a1.011 1.011 0 0 0 1.01 1.011" class="prefix__cls-2" data-name="Fill 264" transform="translate(6.822 24.243)"/>
            <path id="prefix__Fill_266" d="M1.011 0a1.01 1.01 0 1 0 1.01 1.011A1.011 1.011 0 0 0 1.011 0" class="prefix__cls-2" data-name="Fill 266" transform="translate(10.861 24.243)"/>
            <path id="prefix__Fill_268" d="M1.01 0a1.01 1.01 0 1 0 1.011 1.011A1.01 1.01 0 0 0 1.01 0" class="prefix__cls-2" data-name="Fill 268" transform="translate(14.903 24.243)"/>
            <path id="prefix__Fill_270" d="M1.011 2.021A1.01 1.01 0 1 0 0 1.01a1.011 1.011 0 0 0 1.011 1.011" class="prefix__cls-2" data-name="Fill 270" transform="translate(18.942 24.243)"/>
            <path id="prefix__Fill_272" d="M1.011 2.021A1.01 1.01 0 1 0 0 1.01a1.011 1.011 0 0 0 1.011 1.011" class="prefix__cls-2" data-name="Fill 272" transform="translate(22.982 24.243)"/>
            <path id="prefix__Fill_274" d="M1.011 2.021A1.01 1.01 0 1 0 0 1.01a1.011 1.011 0 0 0 1.011 1.011" class="prefix__cls-2" data-name="Fill 274" transform="translate(27.023 24.243)"/>
            <path id="prefix__Fill_276" d="M1.007 1.011A1.01 1.01 0 0 1 0 2.021a1.012 1.012 0 0 0 1.014-1.01A1.011 1.011 0 0 0 0 0a1.01 1.01 0 0 1 1.007 1.01" class="prefix__cls-2" data-name="Fill 276" transform="translate(32.071 24.242)"/>
            <path id="prefix__Fill_278" d="M0 1.01A1.007 1.007 0 1 0 1.007 0 1.011 1.011 0 0 0 0 1.01" class="prefix__cls-2" data-name="Fill 278" transform="translate(31.064 24.243)"/>
            <path id="prefix__Fill_280" d="M1.011 2.021A1.01 1.01 0 1 0 0 1.01a1.01 1.01 0 0 0 1.011 1.011" class="prefix__cls-2" data-name="Fill 280" transform="translate(.761 27.273)"/>
            <path id="prefix__Fill_282" d="M1.011 2.021A1.01 1.01 0 1 0 0 1.01a1.011 1.011 0 0 0 1.011 1.011" class="prefix__cls-2" data-name="Fill 282" transform="translate(4.801 27.273)"/>
            <path id="prefix__Fill_284" d="M1.011 0a1.01 1.01 0 1 0 1.01 1.011A1.01 1.01 0 0 0 1.011 0" class="prefix__cls-2" data-name="Fill 284" transform="translate(8.842 27.273)"/>
            <path id="prefix__Fill_286" d="M1.011 0a1.01 1.01 0 1 0 1.01 1.011A1.01 1.01 0 0 0 1.011 0" class="prefix__cls-2" data-name="Fill 286" transform="translate(12.882 27.273)"/>
            <path id="prefix__Fill_288" d="M1.011 2.021A1.01 1.01 0 1 0 0 1.01a1.01 1.01 0 0 0 1.011 1.011" class="prefix__cls-2" data-name="Fill 288" transform="translate(16.922 27.273)"/>
            <path id="prefix__Fill_290" d="M1.011 2.021A1.01 1.01 0 1 0 0 1.01a1.01 1.01 0 0 0 1.011 1.011" class="prefix__cls-2" data-name="Fill 290" transform="translate(20.963 27.273)"/>
            <path id="prefix__Fill_292" d="M1.011 0a1.01 1.01 0 1 0 1.01 1.011A1.01 1.01 0 0 0 1.011 0" class="prefix__cls-2" data-name="Fill 292" transform="translate(25.003 27.273)"/>
            <path id="prefix__Fill_294" d="M1.01 0a1.01 1.01 0 1 0 1.011 1.011A1.01 1.01 0 0 0 1.01 0" class="prefix__cls-2" data-name="Fill 294" transform="translate(29.043 27.273)"/>
            <path id="prefix__Fill_296" d="M.75.017V0a1 1 0 0 1-.7.933v.032a1 1 0 0 0 .7-.948" class="prefix__cls-2" data-name="Fill 296" transform="translate(.011 31.296)"/>
            <path id="prefix__Fill_298" d="M1.011 1.027A1.01 1.01 0 0 0 2.021.016V0a1.01 1.01 0 0 1-1.01.995A1.009 1.009 0 0 1 0 0v.016a1.011 1.011 0 0 0 1.011 1.011" class="prefix__cls-2" data-name="Fill 298" transform="translate(2.781 31.297)"/>
            <path id="prefix__Fill_300" d="M2.017 0a1.009 1.009 0 0 1-1.008.995A1.008 1.008 0 0 1 0 0v.017a1.009 1.009 0 0 0 1.009 1.01A1.009 1.009 0 0 0 2.02.017V0" class="prefix__cls-2" data-name="Fill 300" transform="translate(6.822 31.297)"/>
            <path id="prefix__Fill_302" d="M1.011.995A1.009 1.009 0 0 1 0 0a.166.166 0 0 0 0 .017 1.01 1.01 0 0 0 1.011 1.01 1.01 1.01 0 0 0 1.01-1.01V0a1.01 1.01 0 0 1-1.01.995" class="prefix__cls-2" data-name="Fill 302" transform="translate(10.861 31.297)"/>
            <path id="prefix__Fill_304" d="M1.01.995A1.009 1.009 0 0 1 0 0v.017a1.01 1.01 0 0 0 1.01 1.01A1.01 1.01 0 0 0 2.021.017V0A1.01 1.01 0 0 1 1.01.995" class="prefix__cls-2" data-name="Fill 304" transform="translate(14.903 31.297)"/>
            <path id="prefix__Fill_306" d="M1.011 1.027A1.01 1.01 0 0 0 2.021.016V0a1.01 1.01 0 0 1-1.01.995A1.009 1.009 0 0 1 0 0v.016a1.011 1.011 0 0 0 1.011 1.011" class="prefix__cls-2" data-name="Fill 306" transform="translate(18.942 31.297)"/>
            <path id="prefix__Fill_308" d="M2.017 0A1.009 1.009 0 0 1 1.01.995 1.008 1.008 0 0 1 0 0v.017a1.01 1.01 0 0 0 1.01 1.01A1.01 1.01 0 0 0 2.021.017V0" class="prefix__cls-2" data-name="Fill 308" transform="translate(22.983 31.297)"/>
            <path id="prefix__Fill_310" d="M1.011.995A1.01 1.01 0 0 1 0 0v.017a1.01 1.01 0 0 0 1.011 1.01 1.01 1.01 0 0 0 1.01-1.01V0a1.01 1.01 0 0 1-1.01.995" class="prefix__cls-2" data-name="Fill 310" transform="translate(27.023 31.297)"/>
            <path id="prefix__Fill_312" d="M1.007.017A1.01 1.01 0 0 1 0 1.027 1.011 1.011 0 0 0 1.014.017.166.166 0 0 0 1.01 0v.015z" class="prefix__cls-2" data-name="Fill 312" transform="translate(32.071 31.296)"/>
            <path id="prefix__Fill_314" d="M2.014 0a1.007 1.007 0 0 1-1 .98H1A1.006 1.006 0 0 1 0 0a1.01 1.01 0 0 0 1.007 1.01A1.01 1.01 0 0 0 2.014 0" class="prefix__cls-2" data-name="Fill 314" transform="translate(31.064 31.311)"/>
            <path id="prefix__Fill_316" d="M.006 1.011A1.01 1.01 0 0 1 1.013 0 1.011 1.011 0 0 0 0 1.011v.002" class="prefix__cls-2" data-name="Fill 316" transform="translate(31.058 30.27)"/>
            <path id="prefix__Fill_318" d="M.4.4a.092.092 0 0 1 0-.017V.412A.129.129 0 0 1 .4.4" class="prefix__cls-2" data-name="Fill 318" transform="translate(30.667 30.899)"/>
            <path id="prefix__Fill_320" d="M0 0a.129.129 0 0 0 0 .015 1.007 1.007 0 0 0 1 .98A1.007 1.007 0 0 1 0 0" class="prefix__cls-2" data-name="Fill 320" transform="translate(31.064 31.297)"/>
            <path id="prefix__Fill_322" d="M1.011.032a1.009 1.009 0 0 1 1.007.994V1.01A1.01 1.01 0 0 0 0 1.01v.016A1.009 1.009 0 0 1 1.011.032" class="prefix__cls-2" data-name="Fill 322" transform="translate(35.098 30.271)"/>
            <path id="prefix__Fill_324" d="M1.007 1.989A1.01 1.01 0 0 0 2.014.994 1.007 1.007 0 0 0 0 .994a1.009 1.009 0 0 0 1.007.995" class="prefix__cls-2" data-name="Fill 324" transform="translate(35.101 30.303)"/>
            <path id="prefix__Fill_326" d="M0 1.026a1.007 1.007 0 0 1 2.013 0V1.01A1.01 1.01 0 0 0 0 1.01v.016" class="prefix__cls-2" data-name="Fill 326" transform="translate(39.139 30.271)"/>
            <path id="prefix__Fill_328" d="M1.007 0A1.009 1.009 0 0 0 0 .994a1.007 1.007 0 0 0 2.014 0A1.009 1.009 0 0 0 1.007 0" class="prefix__cls-2" data-name="Fill 328" transform="translate(39.142 30.303)"/>
            <path id="prefix__Fill_330" d="M1.01 0A1.01 1.01 0 0 0 0 1.011v.015a1.007 1.007 0 0 1 2.014 0v-.015A1.011 1.011 0 0 0 1.01 0" class="prefix__cls-2" data-name="Fill 330" transform="translate(43.179 30.271)"/>
            <path id="prefix__Fill_332" d="M1.007 0A1.008 1.008 0 0 0 0 .994a1.007 1.007 0 0 0 2.014 0A1.01 1.01 0 0 0 1.007 0" class="prefix__cls-2" data-name="Fill 332" transform="translate(43.182 30.303)"/>
            <path id="prefix__Fill_334" d="M1.01.032a1.009 1.009 0 0 1 1.007.994V1.01A1.01 1.01 0 0 0 0 1.01v.016A1.009 1.009 0 0 1 1.01.032" class="prefix__cls-2" data-name="Fill 334" transform="translate(47.219 30.271)"/>
            <path id="prefix__Fill_336" d="M1.007 1.989A1.009 1.009 0 0 0 2.014.994 1.007 1.007 0 0 0 0 .994a1.009 1.009 0 0 0 1.007.995" class="prefix__cls-2" data-name="Fill 336" transform="translate(47.222 30.303)"/>
            <path id="prefix__Fill_338" d="M1.011.032a1.01 1.01 0 0 1 1.007.994V1.01A1.011 1.011 0 0 0 0 1.01v.016A1.008 1.008 0 0 1 1.011.032" class="prefix__cls-2" data-name="Fill 338" transform="translate(51.259 30.271)"/>
            <path id="prefix__Fill_340" d="M1.007 1.989A1.01 1.01 0 0 0 2.014.994 1.007 1.007 0 0 0 0 .994a1.009 1.009 0 0 0 1.007.995" class="prefix__cls-2" data-name="Fill 340" transform="translate(51.263 30.303)"/>
            <path id="prefix__Fill_342" d="M1.01.032a1.01 1.01 0 0 1 1.007.994V1.01A1.01 1.01 0 0 0 0 1.01v.016A1.008 1.008 0 0 1 1.01.032" class="prefix__cls-2" data-name="Fill 342" transform="translate(55.3 30.271)"/>
            <path id="prefix__Fill_344" d="M1.007 1.989A1.01 1.01 0 0 0 2.014.994 1.007 1.007 0 0 0 0 .994a1.009 1.009 0 0 0 1.007.995" class="prefix__cls-2" data-name="Fill 344" transform="translate(55.303 30.303)"/>
            <path id="prefix__Fill_346" d="M1.011 0A1.011 1.011 0 0 0 0 1.011a.143.143 0 0 0 0 .015 1.007 1.007 0 0 1 2.014 0v-.015A1.011 1.011 0 0 0 1.011 0" class="prefix__cls-2" data-name="Fill 346" transform="translate(59.339 30.271)"/>
            <path id="prefix__Fill_348" d="M1.007 0A1.008 1.008 0 0 0 0 .994a1.007 1.007 0 0 0 2.014 0A1.01 1.01 0 0 0 1.007 0" class="prefix__cls-2" data-name="Fill 348" transform="translate(59.343 30.303)"/>
            <g id="prefix__Group_352" data-name="Group 352" transform="translate(62.384 30.465)">
                <path id="prefix__Clip_351-2" d="M.136 0H.66v.8H.136z" class="prefix__cls-1" data-name="Clip 351" transform="translate(.571 .129)"/>
                <g id="prefix__Group_352-2" data-name="Group 352">
                    <path id="prefix__Fill_350" d="M.293.7A.98.98 0 0 1 .506.123C.506.113.5.1.5.092a.981.981 0 0 0-.211.595v.016" class="prefix__cls-2" data-name="Fill 350" transform="translate(.707 .129)"/>
                </g>
            </g>
            <g id="prefix__Group_355" data-name="Group 355" transform="translate(62.384 30.465)">
                <path id="prefix__Clip_354-2" d="M.141 0h.513v1.172H.141z" class="prefix__cls-1" data-name="Clip 354" transform="translate(.577 .251)"/>
                <g id="prefix__Group_355-2" data-name="Group 355">
                    <path id="prefix__Fill_353" d="M.5 1.172c0-.147.013-.292.013-.44C.513.487.5.245.494 0a.987.987 0 0 0-.212.58.986.986 0 0 0 .22.592" class="prefix__cls-2" data-name="Fill 353" transform="translate(.718 .251)"/>
                </g>
            </g>
            <path id="prefix__Fill_356" d="M1.011 2.021A1.01 1.01 0 1 0 0 1.01a1.011 1.011 0 0 0 1.011 1.011" class="prefix__cls-2" data-name="Fill 356" transform="translate(33.078 33.301)"/>
            <path id="prefix__Fill_358" d="M1.011 2.021A1.01 1.01 0 1 0 0 1.01a1.011 1.011 0 0 0 1.011 1.011" class="prefix__cls-2" data-name="Fill 358" transform="translate(37.118 33.301)"/>
            <path id="prefix__Fill_360" d="M1.011 0a1.01 1.01 0 1 0 1.01 1.011A1.011 1.011 0 0 0 1.011 0" class="prefix__cls-2" data-name="Fill 360" transform="translate(41.158 33.301)"/>
            <path id="prefix__Fill_362" d="M1.011 0a1.01 1.01 0 1 0 1.01 1.011A1.011 1.011 0 0 0 1.011 0" class="prefix__cls-2" data-name="Fill 362" transform="translate(45.199 33.301)"/>
            <path id="prefix__Fill_364" d="M1.011 2.021A1.01 1.01 0 1 0 0 1.01a1.01 1.01 0 0 0 1.011 1.011" class="prefix__cls-2" data-name="Fill 364" transform="translate(49.239 33.301)"/>
            <path id="prefix__Fill_366" d="M1.011 2.021A1.01 1.01 0 1 0 0 1.01a1.011 1.011 0 0 0 1.011 1.011" class="prefix__cls-2" data-name="Fill 366" transform="translate(53.279 33.301)"/>
            <path id="prefix__Fill_368" d="M1.011 2.021A1.01 1.01 0 1 0 0 1.01a1.01 1.01 0 0 0 1.011 1.011" class="prefix__cls-2" data-name="Fill 368" transform="translate(57.32 33.301)"/>
            <path id="prefix__Fill_370" d="M1.011 0a1.01 1.01 0 1 0 1.01 1.011A1.011 1.011 0 0 0 1.011 0" class="prefix__cls-2" data-name="Fill 370" transform="translate(61.36 33.301)"/>
            <path id="prefix__Fill_372" d="M.006 1.01A1.01 1.01 0 0 1 1.013 0a1.01 1.01 0 0 0 0 2.021A1.01 1.01 0 0 1 .006 1.01" class="prefix__cls-2" data-name="Fill 372" transform="translate(31.058 36.331)"/>
            <path id="prefix__Fill_374" d="M1.011 0a1.01 1.01 0 1 0 1.01 1.01A1.01 1.01 0 0 0 1.011 0" class="prefix__cls-2" data-name="Fill 374" transform="translate(35.098 36.332)"/>
            <path id="prefix__Fill_376" d="M1.01 2.02A1.01 1.01 0 1 0 0 1.009 1.01 1.01 0 0 0 1.01 2.02" class="prefix__cls-2" data-name="Fill 376" transform="translate(39.139 36.332)"/>
            <path id="prefix__Fill_378" d="M1.01 0a1.01 1.01 0 1 0 1.011 1.01A1.01 1.01 0 0 0 1.01 0" class="prefix__cls-2" data-name="Fill 378" transform="translate(43.179 36.332)"/>
            <path id="prefix__Fill_380" d="M1.01 2.02A1.01 1.01 0 1 0 0 1.009 1.01 1.01 0 0 0 1.01 2.02" class="prefix__cls-2" data-name="Fill 380" transform="translate(47.219 36.332)"/>
            <path id="prefix__Fill_382" d="M1.011 0a1.01 1.01 0 1 0 1.01 1.01A1.01 1.01 0 0 0 1.011 0" class="prefix__cls-2" data-name="Fill 382" transform="translate(51.259 36.332)"/>
            <path id="prefix__Fill_384" d="M1.01 0a1.01 1.01 0 1 0 1.011 1.01A1.01 1.01 0 0 0 1.01 0" class="prefix__cls-2" data-name="Fill 384" transform="translate(55.3 36.332)"/>
            <path id="prefix__Fill_386" d="M1.011 0a1.01 1.01 0 1 0 1.01 1.01A1.01 1.01 0 0 0 1.011 0" class="prefix__cls-2" data-name="Fill 386" transform="translate(59.339 36.332)"/>
            <path id="prefix__Fill_388" d="M1.011 0a1.01 1.01 0 1 0 1.01 1.01A1.01 1.01 0 0 0 1.011 0" class="prefix__cls-2" data-name="Fill 388" transform="translate(33.078 39.362)"/>
            <path id="prefix__Fill_390" d="M1.011 2.02A1.01 1.01 0 1 0 0 1.009 1.011 1.011 0 0 0 1.011 2.02" class="prefix__cls-2" data-name="Fill 390" transform="translate(37.118 39.362)"/>
            <path id="prefix__Fill_392" d="M1.011 2.02A1.01 1.01 0 1 0 0 1.009 1.011 1.011 0 0 0 1.011 2.02" class="prefix__cls-2" data-name="Fill 392" transform="translate(41.158 39.362)"/>
            <path id="prefix__Fill_394" d="M1.011 2.02A1.01 1.01 0 1 0 0 1.009 1.011 1.011 0 0 0 1.011 2.02" class="prefix__cls-2" data-name="Fill 394" transform="translate(45.199 39.362)"/>
            <path id="prefix__Fill_396" d="M1.011 0a1.01 1.01 0 1 0 1.01 1.01A1.01 1.01 0 0 0 1.011 0" class="prefix__cls-2" data-name="Fill 396" transform="translate(49.239 39.362)"/>
            <path id="prefix__Fill_398" d="M1.011 2.02A1.01 1.01 0 1 0 0 1.009 1.011 1.011 0 0 0 1.011 2.02" class="prefix__cls-2" data-name="Fill 398" transform="translate(53.279 39.362)"/>
            <path id="prefix__Fill_400" d="M1.011 0a1.01 1.01 0 1 0 1.01 1.01A1.01 1.01 0 0 0 1.011 0" class="prefix__cls-2" data-name="Fill 400" transform="translate(57.32 39.362)"/>
            <path id="prefix__Fill_402" d="M0 1.01a1 1 0 0 0 .685.945c.205-.628.4-1.261.564-1.906A.993.993 0 0 0 1.011 0 1.01 1.01 0 0 0 0 1.01" class="prefix__cls-2" data-name="Fill 402" transform="translate(61.36 39.361)"/>
            <path id="prefix__Fill_404" d="M1.01 2.021A1.009 1.009 0 0 1 1.013 0a1.01 1.01 0 0 0 0 2.021" class="prefix__cls-2" data-name="Fill 404" transform="translate(31.058 42.392)"/>
            <path id="prefix__Fill_406" d="M1.011 2.021A1.01 1.01 0 1 0 0 1.01a1.01 1.01 0 0 0 1.011 1.011" class="prefix__cls-2" data-name="Fill 406" transform="translate(35.098 42.392)"/>
            <path id="prefix__Fill_408" d="M1.01 2.021A1.01 1.01 0 1 0 0 1.01a1.011 1.011 0 0 0 1.01 1.011" class="prefix__cls-2" data-name="Fill 408" transform="translate(39.139 42.392)"/>
            <path id="prefix__Fill_410" d="M1.01 2.021A1.01 1.01 0 1 0 0 1.01a1.011 1.011 0 0 0 1.01 1.011" class="prefix__cls-2" data-name="Fill 410" transform="translate(43.179 42.392)"/>
            <path id="prefix__Fill_412" d="M1.01 0a1.01 1.01 0 1 0 1.011 1.011A1.01 1.01 0 0 0 1.01 0" class="prefix__cls-2" data-name="Fill 412" transform="translate(47.219 42.392)"/>
            <path id="prefix__Fill_414" d="M1.011 2.021A1.01 1.01 0 1 0 0 1.01a1.011 1.011 0 0 0 1.011 1.011" class="prefix__cls-2" data-name="Fill 414" transform="translate(51.259 42.392)"/>
            <path id="prefix__Fill_416" d="M1.01 2.021A1.01 1.01 0 1 0 0 1.01a1.011 1.011 0 0 0 1.01 1.011" class="prefix__cls-2" data-name="Fill 416" transform="translate(55.3 42.392)"/>
            <path id="prefix__Fill_418" d="M1.011 0a1.01 1.01 0 1 0 0 2.021.986.986 0 0 0 .6-.219c.134-.3.26-.612.384-.922A1 1 0 0 0 1.011 0" class="prefix__cls-2" data-name="Fill 418" transform="translate(59.339 42.392)"/>
            <path id="prefix__Fill_420" d="M1.011 2.021A1.01 1.01 0 1 0 0 1.01a1.011 1.011 0 0 0 1.011 1.011" class="prefix__cls-2" data-name="Fill 420" transform="translate(33.078 45.422)"/>
            <path id="prefix__Fill_422" d="M1.011 0a1.01 1.01 0 1 0 1.01 1.011A1.011 1.011 0 0 0 1.011 0" class="prefix__cls-2" data-name="Fill 422" transform="translate(37.118 45.422)"/>
            <path id="prefix__Fill_424" d="M1.011 2.021A1.01 1.01 0 1 0 0 1.01a1.011 1.011 0 0 0 1.011 1.011" class="prefix__cls-2" data-name="Fill 424" transform="translate(41.158 45.422)"/>
            <path id="prefix__Fill_426" d="M1.011 0a1.01 1.01 0 1 0 1.01 1.011A1.011 1.011 0 0 0 1.011 0" class="prefix__cls-2" data-name="Fill 426" transform="translate(45.199 45.422)"/>
            <path id="prefix__Fill_428" d="M1.011 2.021A1.01 1.01 0 1 0 0 1.01a1.01 1.01 0 0 0 1.011 1.011" class="prefix__cls-2" data-name="Fill 428" transform="translate(49.239 45.422)"/>
            <path id="prefix__Fill_430" d="M1.011 0a1.01 1.01 0 1 0 1.01 1.011A1.011 1.011 0 0 0 1.011 0" class="prefix__cls-2" data-name="Fill 430" transform="translate(53.279 45.422)"/>
            <path id="prefix__Fill_432" d="M1.011 0a1.01 1.01 0 1 0 1.01 1.011A1.011 1.011 0 0 0 1.011 0" class="prefix__cls-2" data-name="Fill 432" transform="translate(57.32 45.422)"/>
            <path id="prefix__Fill_434" d="M1.01 2.021A1.009 1.009 0 0 1 1.013 0a1.01 1.01 0 0 0 0 2.021" class="prefix__cls-2" data-name="Fill 434" transform="translate(31.058 48.452)"/>
            <path id="prefix__Fill_436" d="M1.011 0a1.01 1.01 0 1 0 1.01 1.011A1.011 1.011 0 0 0 1.011 0" class="prefix__cls-2" data-name="Fill 436" transform="translate(35.098 48.452)"/>
            <path id="prefix__Fill_438" d="M1.01 2.021A1.01 1.01 0 1 0 0 1.01a1.01 1.01 0 0 0 1.01 1.011" class="prefix__cls-2" data-name="Fill 438" transform="translate(39.139 48.452)"/>
            <path id="prefix__Fill_440" d="M1.01 2.021A1.01 1.01 0 1 0 0 1.01a1.01 1.01 0 0 0 1.01 1.011" class="prefix__cls-2" data-name="Fill 440" transform="translate(43.179 48.452)"/>
            <path id="prefix__Fill_442" d="M1.01 2.021A1.01 1.01 0 1 0 0 1.01a1.01 1.01 0 0 0 1.01 1.011" class="prefix__cls-2" data-name="Fill 442" transform="translate(47.219 48.452)"/>
            <path id="prefix__Fill_444" d="M1.011 0a1.01 1.01 0 1 0 1.01 1.011A1.011 1.011 0 0 0 1.011 0" class="prefix__cls-2" data-name="Fill 444" transform="translate(51.259 48.452)"/>
            <path id="prefix__Fill_446" d="M1.01 0a1.01 1.01 0 1 0 1.011 1.011A1.01 1.01 0 0 0 1.01 0" class="prefix__cls-2" data-name="Fill 446" transform="translate(55.3 48.452)"/>
            <path id="prefix__Fill_448" d="M1.011 2.02A1.01 1.01 0 1 0 0 1.01a1.01 1.01 0 0 0 1.011 1.01" class="prefix__cls-2" data-name="Fill 448" transform="translate(33.078 51.483)"/>
            <path id="prefix__Fill_450" d="M1.011 2.02A1.01 1.01 0 1 0 0 1.01a1.01 1.01 0 0 0 1.011 1.01" class="prefix__cls-2" data-name="Fill 450" transform="translate(37.118 51.483)"/>
            <path id="prefix__Fill_452" d="M1.011 2.02A1.01 1.01 0 1 0 0 1.01a1.01 1.01 0 0 0 1.011 1.01" class="prefix__cls-2" data-name="Fill 452" transform="translate(41.158 51.483)"/>
            <path id="prefix__Fill_454" d="M1.011 2.02A1.01 1.01 0 1 0 0 1.01a1.01 1.01 0 0 0 1.011 1.01" class="prefix__cls-2" data-name="Fill 454" transform="translate(45.199 51.483)"/>
            <path id="prefix__Fill_456" d="M1.011 0a1.01 1.01 0 1 0 1.01 1.011A1.011 1.011 0 0 0 1.011 0" class="prefix__cls-2" data-name="Fill 456" transform="translate(49.239 51.483)"/>
            <path id="prefix__Fill_458" d="M1.011 0a1.01 1.01 0 1 0 .679 1.748l.065-.068a1 1 0 0 0 .266-.669A1.011 1.011 0 0 0 1.011 0" class="prefix__cls-2" data-name="Fill 458" transform="translate(53.279 51.483)"/>
            <path id="prefix__Fill_460" d="M1.01 2.02A1.009 1.009 0 0 1 1.013 0a1.01 1.01 0 0 0 0 2.02" class="prefix__cls-2" data-name="Fill 460" transform="translate(31.058 54.513)"/>
            <path id="prefix__Fill_462" d="M1.011 2.02A1.01 1.01 0 1 0 0 1.01a1.01 1.01 0 0 0 1.011 1.01" class="prefix__cls-2" data-name="Fill 462" transform="translate(35.098 54.513)"/>
            <path id="prefix__Fill_464" d="M1.01 0a1.01 1.01 0 1 0 1.011 1.011A1.01 1.01 0 0 0 1.01 0" class="prefix__cls-2" data-name="Fill 464" transform="translate(39.139 54.513)"/>
            <path id="prefix__Fill_466" d="M1.01 0a1.01 1.01 0 1 0 1.011 1.011A1.01 1.01 0 0 0 1.01 0" class="prefix__cls-2" data-name="Fill 466" transform="translate(43.179 54.513)"/>
            <path id="prefix__Fill_468" d="M1.01 0a1.01 1.01 0 1 0 1.011 1.011A1.01 1.01 0 0 0 1.01 0" class="prefix__cls-2" data-name="Fill 468" transform="translate(47.219 54.513)"/>
            <path id="prefix__Fill_470" d="M1.011 0A1.011 1.011 0 0 0 0 1.011a.992.992 0 0 0 .385.773c.51-.408 1.01-.825 1.493-1.262A1 1 0 0 0 1.011 0" class="prefix__cls-2" data-name="Fill 470" transform="translate(51.259 54.513)"/>
            <path id="prefix__Fill_472" d="M1.011 0a1.01 1.01 0 1 0 1.01 1.011A1.011 1.011 0 0 0 1.011 0" class="prefix__cls-2" data-name="Fill 472" transform="translate(33.078 57.543)"/>
            <path id="prefix__Fill_474" d="M1.011 0a1.01 1.01 0 1 0 1.01 1.011A1.011 1.011 0 0 0 1.011 0" class="prefix__cls-2" data-name="Fill 474" transform="translate(37.118 57.543)"/>
            <path id="prefix__Fill_476" d="M1.011 0a1.01 1.01 0 1 0 1.01 1.011A1.011 1.011 0 0 0 1.011 0" class="prefix__cls-2" data-name="Fill 476" transform="translate(41.158 57.543)"/>
            <path id="prefix__Fill_478" d="M1.011 0a1.01 1.01 0 1 0 1.01 1.011A1.011 1.011 0 0 0 1.011 0" class="prefix__cls-2" data-name="Fill 478" transform="translate(45.199 57.543)"/>
            <path id="prefix__Fill_480" d="M.225.517C.342.439.454.357.57.278a1.013 1.013 0 0 0-.345.239" class="prefix__cls-2" data-name="Fill 480" transform="translate(49.296 57.343)"/>
            <path id="prefix__Fill_482" d="M.006 1.011A1.01 1.01 0 0 1 1.013 0a1.011 1.011 0 0 0 0 2.021 1.01 1.01 0 0 1-1.007-1.01" class="prefix__cls-2" data-name="Fill 482" transform="translate(31.058 60.573)"/>
            <path id="prefix__Fill_484" d="M1.011 0a1.01 1.01 0 1 0 1.01 1.011A1.011 1.011 0 0 0 1.011 0" class="prefix__cls-2" data-name="Fill 484" transform="translate(35.098 60.573)"/>
            <path id="prefix__Fill_486" d="M1.01 0a1.006 1.006 0 0 0-.694 1.738c.555-.138 1.106-.287 1.649-.452a.99.99 0 0 0 .056-.275A1.011 1.011 0 0 0 1.01 0" class="prefix__cls-2" data-name="Fill 486" transform="translate(39.139 60.573)"/>
            <path id="prefix__Fill_488" d="M0 .653C.377.506.751.356 1.121.2A.962.962 0 0 0 .858.142 1 1 0 0 0 0 .653" class="prefix__cls-2" data-name="Fill 488" transform="translate(43.331 60.43)"/>
            <path id="prefix__Fill_490" d="M.743.962V.946A1 1 0 0 0 .05 0v.032a1 1 0 0 1 .694.93" class="prefix__cls-2" data-name="Fill 490" transform="translate(.015 30.334)"/>
            <path id="prefix__Fill_492" d="M.758.93A1 1 0 0 0 .064 0C.052.36.037.72.037 1.082c0 .262.013.521.02.781A1 1 0 0 0 .758.93" class="prefix__cls-2" data-name="Fill 492" transform="translate(0 30.366)"/>
            <path id="prefix__Fill_494" d="M1.011.032a1.01 1.01 0 0 1 1.007.994V1.01A1.011 1.011 0 0 0 0 1.01v.016A1.008 1.008 0 0 1 1.011.032" class="prefix__cls-2" data-name="Fill 494" transform="translate(2.781 30.271)"/>
            <path id="prefix__Fill_496" d="M1.007 1.989A1.01 1.01 0 0 0 2.014.994 1.007 1.007 0 0 0 0 .994a1.009 1.009 0 0 0 1.007.995" class="prefix__cls-2" data-name="Fill 496" transform="translate(2.785 30.303)"/>
            <path id="prefix__Fill_498" d="M1.01.032a1.01 1.01 0 0 1 1.007.994V1.01A1.01 1.01 0 0 0 0 1.01v.016A1.008 1.008 0 0 1 1.01.032" class="prefix__cls-2" data-name="Fill 498" transform="translate(6.822 30.271)"/>
            <path id="prefix__Fill_500" d="M1.007 1.989A1.01 1.01 0 0 0 2.014.994 1.007 1.007 0 0 0 0 .994a1.009 1.009 0 0 0 1.007.995" class="prefix__cls-2" data-name="Fill 500" transform="translate(6.825 30.303)"/>
            <path id="prefix__Fill_502" d="M0 1.026a1.007 1.007 0 0 1 2.013 0V1.01A1.01 1.01 0 0 0 0 1.01a.116.116 0 0 0 0 .016" class="prefix__cls-2" data-name="Fill 502" transform="translate(10.862 30.271)"/>
            <path id="prefix__Fill_504" d="M1.007 0A1.008 1.008 0 0 0 0 .994a1.007 1.007 0 0 0 2.014 0A1.01 1.01 0 0 0 1.007 0" class="prefix__cls-2" data-name="Fill 504" transform="translate(10.865 30.303)"/>
            <path id="prefix__Fill_506" d="M0 1.026a1.007 1.007 0 0 1 2.013 0V1.01A1.01 1.01 0 0 0 0 1.01v.016" class="prefix__cls-2" data-name="Fill 506" transform="translate(14.903 30.271)"/>
            <path id="prefix__Fill_508" d="M1.007 0A1.008 1.008 0 0 0 0 .994a1.007 1.007 0 0 0 2.014 0A1.01 1.01 0 0 0 1.007 0" class="prefix__cls-2" data-name="Fill 508" transform="translate(14.906 30.303)"/>
            <path id="prefix__Fill_510" d="M1.011.032a1.01 1.01 0 0 1 1.007.994V1.01A1.011 1.011 0 0 0 0 1.01a.116.116 0 0 0 0 .016A1.008 1.008 0 0 1 1.011.032" class="prefix__cls-2" data-name="Fill 510" transform="translate(18.942 30.271)"/>
            <path id="prefix__Fill_512" d="M1.007 1.989A1.01 1.01 0 0 0 2.014.994 1.007 1.007 0 0 0 0 .994a1.009 1.009 0 0 0 1.007.995" class="prefix__cls-2" data-name="Fill 512" transform="translate(18.946 30.303)"/>
            <path id="prefix__Fill_514" d="M1.011.032a1.01 1.01 0 0 1 1.007.994V1.01A1.011 1.011 0 0 0 0 1.01v.016A1.008 1.008 0 0 1 1.011.032" class="prefix__cls-2" data-name="Fill 514" transform="translate(22.982 30.271)"/>
            <path id="prefix__Fill_516" d="M1.007 1.989A1.01 1.01 0 0 0 2.014.994 1.007 1.007 0 0 0 0 .994a1.009 1.009 0 0 0 1.007.995" class="prefix__cls-2" data-name="Fill 516" transform="translate(22.986 30.303)"/>
            <path id="prefix__Fill_518" d="M1.011 0A1.011 1.011 0 0 0 0 1.011v.015a1.008 1.008 0 0 1 2.015 0v-.015A1.011 1.011 0 0 0 1.011 0" class="prefix__cls-2" data-name="Fill 518" transform="translate(27.023 30.271)"/>
            <path id="prefix__Fill_520" d="M1.007 0A1.01 1.01 0 0 0 0 .994a1.008 1.008 0 0 0 2.015 0A1.01 1.01 0 0 0 1.007 0" class="prefix__cls-2" data-name="Fill 520" transform="translate(27.026 30.303)"/>
            <path id="prefix__Fill_522" d="M0 0a1.01 1.01 0 0 1 1.007 1.01v.014a.143.143 0 0 0 0-.015A1.011 1.011 0 0 0 0 0" class="prefix__cls-2" data-name="Fill 522" transform="translate(32.071 30.271)"/>
            <path id="prefix__Fill_524" d="M.395.4S.4.407.4.412V.4.383v.014" class="prefix__cls-2" data-name="Fill 524" transform="translate(32.68 30.899)"/>
            <path id="prefix__Fill_526" d="M0 .994a1.008 1.008 0 0 0 1-.98C1.007.01 1 .006 1 0a1.008 1.008 0 0 1-1 .994" class="prefix__cls-2" data-name="Fill 526" transform="translate(32.071 31.297)"/>
            <path id="prefix__Fill_528" d="M0 1.01a1.006 1.006 0 0 1 1-.98h.006a1.006 1.006 0 0 1 1 .98A1.007 1.007 0 1 0 0 1.01" class="prefix__cls-2" data-name="Fill 528" transform="translate(31.064 30.271)"/>
            <path id="prefix__Fill_530" d="M1.007 0H1a1.008 1.008 0 0 0-1 .98.092.092 0 0 0 0 .014 1.008 1.008 0 0 1 1-.993" class="prefix__cls-2" data-name="Fill 530" transform="translate(31.064 30.303)"/>
            <path id="prefix__Fill_532" d="M0 0a1.009 1.009 0 0 1 1 .994V.98A1.008 1.008 0 0 0 0 0" class="prefix__cls-2" data-name="Fill 532" transform="translate(32.071 30.303)"/>
            <path id="prefix__Fill_534" d="M1 0a1.008 1.008 0 0 0-1 .993 1 1 0 0 0 2.008 0A1.009 1.009 0 0 0 1 0" class="prefix__cls-2" data-name="Fill 534" transform="translate(31.067 30.303)"/>
            <path id="prefix__Fill_536" d="M1.011 0a1.01 1.01 0 1 0 1.01 1.011A1.011 1.011 0 0 0 1.011 0" class="prefix__cls-2" data-name="Fill 536" transform="translate(.761 33.301)"/>
            <path id="prefix__Fill_538" d="M1.011 2.021A1.01 1.01 0 1 0 0 1.01a1.011 1.011 0 0 0 1.011 1.011" class="prefix__cls-2" data-name="Fill 538" transform="translate(4.801 33.301)"/>
            <path id="prefix__Fill_540" d="M1.011 2.021A1.01 1.01 0 1 0 0 1.01a1.01 1.01 0 0 0 1.011 1.011" class="prefix__cls-2" data-name="Fill 540" transform="translate(8.842 33.301)"/>
            <path id="prefix__Fill_542" d="M1.011 0a1.01 1.01 0 1 0 1.01 1.011A1.011 1.011 0 0 0 1.011 0" class="prefix__cls-2" data-name="Fill 542" transform="translate(12.882 33.301)"/>
            <path id="prefix__Fill_544" d="M1.011 0a1.01 1.01 0 1 0 1.01 1.011A1.011 1.011 0 0 0 1.011 0" class="prefix__cls-2" data-name="Fill 544" transform="translate(16.922 33.301)"/>
            <path id="prefix__Fill_546" d="M1.011 2.021A1.01 1.01 0 1 0 0 1.01a1.01 1.01 0 0 0 1.011 1.011" class="prefix__cls-2" data-name="Fill 546" transform="translate(20.963 33.301)"/>
            <path id="prefix__Fill_548" d="M1.011 2.021A1.01 1.01 0 1 0 0 1.01a1.01 1.01 0 0 0 1.011 1.011" class="prefix__cls-2" data-name="Fill 548" transform="translate(25.003 33.301)"/>
            <path id="prefix__Fill_550" d="M1.01 2.021A1.01 1.01 0 1 0 0 1.01a1.011 1.011 0 0 0 1.01 1.011" class="prefix__cls-2" data-name="Fill 550" transform="translate(29.043 33.301)"/>
            <path id="prefix__Fill_552" d="M.248 0c.062.38.126.759.2 1.134a1 1 0 0 0 .1-.418A1.008 1.008 0 0 0 .248 0" class="prefix__cls-2" data-name="Fill 552" transform="translate(.215 36.625)"/>
            <path id="prefix__Fill_554" d="M1.011 2.02A1.01 1.01 0 1 0 0 1.009 1.01 1.01 0 0 0 1.011 2.02" class="prefix__cls-2" data-name="Fill 554" transform="translate(2.781 36.332)"/>
            <path id="prefix__Fill_556" d="M1.01 0a1.01 1.01 0 1 0 1.011 1.01A1.01 1.01 0 0 0 1.01 0" class="prefix__cls-2" data-name="Fill 556" transform="translate(6.822 36.332)"/>
            <path id="prefix__Fill_558" d="M1.011 2.02A1.01 1.01 0 1 0 0 1.009 1.01 1.01 0 0 0 1.011 2.02" class="prefix__cls-2" data-name="Fill 558" transform="translate(10.861 36.332)"/>
            <path id="prefix__Fill_560" d="M1.01 0a1.01 1.01 0 1 0 1.011 1.01A1.01 1.01 0 0 0 1.01 0" class="prefix__cls-2" data-name="Fill 560" transform="translate(14.903 36.332)"/>
            <path id="prefix__Fill_562" d="M1.011 0a1.01 1.01 0 1 0 1.01 1.01A1.01 1.01 0 0 0 1.011 0" class="prefix__cls-2" data-name="Fill 562" transform="translate(18.942 36.332)"/>
            <path id="prefix__Fill_564" d="M1.011 2.02A1.01 1.01 0 1 0 0 1.009 1.011 1.011 0 0 0 1.011 2.02" class="prefix__cls-2" data-name="Fill 564" transform="translate(22.982 36.332)"/>
            <path id="prefix__Fill_566" d="M1.011 2.02A1.01 1.01 0 1 0 0 1.009 1.01 1.01 0 0 0 1.011 2.02" class="prefix__cls-2" data-name="Fill 566" transform="translate(27.023 36.332)"/>
            <path id="prefix__Fill_568" d="M0 0a1.01 1.01 0 0 1 1.007 1.01A1.01 1.01 0 0 1 0 2.019 1.01 1.01 0 1 0 0 0" class="prefix__cls-2" data-name="Fill 568" transform="translate(32.071 36.332)"/>
            <path id="prefix__Fill_570" d="M2.014 1.01a1.007 1.007 0 1 0-1.007 1.01 1.01 1.01 0 0 0 1.007-1.01" class="prefix__cls-2" data-name="Fill 570" transform="translate(31.064 36.331)"/>
            <path id="prefix__Fill_572" d="M1.677 1.01A1.01 1.01 0 0 0 .667 0 .993.993 0 0 0 0 .265c.154.582.328 1.156.514 1.724a.923.923 0 0 0 .153.032 1.01 1.01 0 0 0 1.01-1.011" class="prefix__cls-2" data-name="Fill 572" transform="translate(1.104 39.361)"/>
            <path id="prefix__Fill_574" d="M1.011 2.02A1.01 1.01 0 1 0 0 1.009 1.011 1.011 0 0 0 1.011 2.02" class="prefix__cls-2" data-name="Fill 574" transform="translate(4.801 39.362)"/>
            <path id="prefix__Fill_576" d="M1.011 0a1.01 1.01 0 1 0 1.01 1.01A1.01 1.01 0 0 0 1.011 0" class="prefix__cls-2" data-name="Fill 576" transform="translate(8.842 39.362)"/>
            <path id="prefix__Fill_578" d="M1.011 2.02A1.01 1.01 0 1 0 0 1.009 1.011 1.011 0 0 0 1.011 2.02" class="prefix__cls-2" data-name="Fill 578" transform="translate(12.882 39.362)"/>
            <path id="prefix__Fill_580" d="M1.011 2.02A1.01 1.01 0 1 0 0 1.009 1.01 1.01 0 0 0 1.011 2.02" class="prefix__cls-2" data-name="Fill 580" transform="translate(16.922 39.362)"/>
            <path id="prefix__Fill_582" d="M1.011 2.02A1.01 1.01 0 1 0 0 1.009 1.01 1.01 0 0 0 1.011 2.02" class="prefix__cls-2" data-name="Fill 582" transform="translate(20.963 39.362)"/>
            <path id="prefix__Fill_584" d="M1.011 0a1.01 1.01 0 1 0 1.01 1.01A1.01 1.01 0 0 0 1.011 0" class="prefix__cls-2" data-name="Fill 584" transform="translate(25.003 39.362)"/>
            <path id="prefix__Fill_586" d="M1.01 2.02A1.01 1.01 0 1 0 0 1.009 1.01 1.01 0 0 0 1.01 2.02" class="prefix__cls-2" data-name="Fill 586" transform="translate(29.043 39.362)"/>
            <path id="prefix__Fill_588" d="M1.011 0a1.01 1.01 0 1 0 1.01 1.011A1.011 1.011 0 0 0 1.011 0" class="prefix__cls-2" data-name="Fill 588" transform="translate(2.781 42.392)"/>
            <path id="prefix__Fill_590" d="M1.01 2.021A1.01 1.01 0 1 0 0 1.01a1.011 1.011 0 0 0 1.01 1.011" class="prefix__cls-2" data-name="Fill 590" transform="translate(6.822 42.392)"/>
            <path id="prefix__Fill_592" d="M1.011 2.021A1.01 1.01 0 1 0 0 1.01a1.011 1.011 0 0 0 1.011 1.011" class="prefix__cls-2" data-name="Fill 592" transform="translate(10.861 42.392)"/>
            <path id="prefix__Fill_594" d="M1.01 2.021A1.01 1.01 0 1 0 0 1.01a1.011 1.011 0 0 0 1.01 1.011" class="prefix__cls-2" data-name="Fill 594" transform="translate(14.903 42.392)"/>
            <path id="prefix__Fill_596" d="M1.011 2.021A1.01 1.01 0 1 0 0 1.01a1.011 1.011 0 0 0 1.011 1.011" class="prefix__cls-2" data-name="Fill 596" transform="translate(18.942 42.392)"/>
            <path id="prefix__Fill_598" d="M1.011 2.021A1.01 1.01 0 1 0 0 1.01a1.011 1.011 0 0 0 1.011 1.011" class="prefix__cls-2" data-name="Fill 598" transform="translate(22.982 42.392)"/>
            <path id="prefix__Fill_600" d="M1.011 2.021A1.01 1.01 0 1 0 0 1.01a1.011 1.011 0 0 0 1.011 1.011" class="prefix__cls-2" data-name="Fill 600" transform="translate(27.023 42.392)"/>
            <path id="prefix__Fill_602" d="M1.007 1.011A1.01 1.01 0 0 1 0 2.021a1.012 1.012 0 0 0 1.014-1.01A1.011 1.011 0 0 0 0 0a1.01 1.01 0 0 1 1.007 1.01" class="prefix__cls-2" data-name="Fill 602" transform="translate(32.071 42.392)"/>
            <path id="prefix__Fill_604" d="M0 1.01A1.007 1.007 0 1 0 1.007 0 1.01 1.01 0 0 0 0 1.01" class="prefix__cls-2" data-name="Fill 604" transform="translate(31.064 42.392)"/>
            <path id="prefix__Fill_606" d="M1.011 0a1.01 1.01 0 1 0 1.01 1.011A1.011 1.011 0 0 0 1.011 0" class="prefix__cls-2" data-name="Fill 606" transform="translate(4.801 45.422)"/>
            <path id="prefix__Fill_608" d="M1.011 2.021A1.01 1.01 0 1 0 0 1.01a1.01 1.01 0 0 0 1.011 1.011" class="prefix__cls-2" data-name="Fill 608" transform="translate(8.842 45.422)"/>
            <path id="prefix__Fill_610" d="M1.011 2.021A1.01 1.01 0 1 0 0 1.01a1.011 1.011 0 0 0 1.011 1.011" class="prefix__cls-2" data-name="Fill 610" transform="translate(12.882 45.422)"/>
            <path id="prefix__Fill_612" d="M1.011 0a1.01 1.01 0 1 0 1.01 1.011A1.011 1.011 0 0 0 1.011 0" class="prefix__cls-2" data-name="Fill 612" transform="translate(16.922 45.422)"/>
            <path id="prefix__Fill_614" d="M1.011 0a1.01 1.01 0 1 0 1.01 1.011A1.011 1.011 0 0 0 1.011 0" class="prefix__cls-2" data-name="Fill 614" transform="translate(20.963 45.422)"/>
            <path id="prefix__Fill_616" d="M1.011 2.021A1.01 1.01 0 1 0 0 1.01a1.01 1.01 0 0 0 1.011 1.011" class="prefix__cls-2" data-name="Fill 616" transform="translate(25.003 45.422)"/>
            <path id="prefix__Fill_618" d="M1.01 2.021A1.01 1.01 0 1 0 0 1.01a1.011 1.011 0 0 0 1.01 1.011" class="prefix__cls-2" data-name="Fill 618" transform="translate(29.043 45.422)"/>
            <path id="prefix__Fill_620" d="M1.01 0a1.01 1.01 0 1 0 1.011 1.011A1.01 1.01 0 0 0 1.01 0" class="prefix__cls-2" data-name="Fill 620" transform="translate(6.822 48.452)"/>
            <path id="prefix__Fill_622" d="M1.011 0a1.01 1.01 0 1 0 1.01 1.011A1.011 1.011 0 0 0 1.011 0" class="prefix__cls-2" data-name="Fill 622" transform="translate(10.861 48.452)"/>
            <path id="prefix__Fill_624" d="M1.01 2.021A1.01 1.01 0 1 0 0 1.01a1.011 1.011 0 0 0 1.01 1.011" class="prefix__cls-2" data-name="Fill 624" transform="translate(14.903 48.452)"/>
            <path id="prefix__Fill_626" d="M1.011 2.021A1.01 1.01 0 1 0 0 1.01a1.01 1.01 0 0 0 1.011 1.011" class="prefix__cls-2" data-name="Fill 626" transform="translate(18.942 48.452)"/>
            <path id="prefix__Fill_628" d="M1.011 2.021A1.01 1.01 0 1 0 0 1.01a1.011 1.011 0 0 0 1.011 1.011" class="prefix__cls-2" data-name="Fill 628" transform="translate(22.982 48.452)"/>
            <path id="prefix__Fill_630" d="M1.011 0a1.01 1.01 0 1 0 1.01 1.011A1.011 1.011 0 0 0 1.011 0" class="prefix__cls-2" data-name="Fill 630" transform="translate(27.023 48.452)"/>
            <path id="prefix__Fill_632" d="M1.007 1.011A1.01 1.01 0 0 1 0 2.021a1.011 1.011 0 0 0 1.014-1.01A1.012 1.012 0 0 0 0 0a1.01 1.01 0 0 1 1.007 1.01" class="prefix__cls-2" data-name="Fill 632" transform="translate(32.071 48.452)"/>
            <path id="prefix__Fill_634" d="M0 1.01A1.007 1.007 0 1 0 1.007 0 1.01 1.01 0 0 0 0 1.01" class="prefix__cls-2" data-name="Fill 634" transform="translate(31.064 48.452)"/>
            <path id="prefix__Fill_636" d="M1.011 0a1.01 1.01 0 1 0 1.01 1.011A1.01 1.01 0 0 0 1.011 0" class="prefix__cls-2" data-name="Fill 636" transform="translate(8.842 51.483)"/>
            <path id="prefix__Fill_638" d="M1.011 0a1.01 1.01 0 1 0 1.01 1.011A1.01 1.01 0 0 0 1.011 0" class="prefix__cls-2" data-name="Fill 638" transform="translate(12.882 51.483)"/>
            <path id="prefix__Fill_640" d="M1.011 2.02A1.01 1.01 0 1 0 0 1.01a1.01 1.01 0 0 0 1.011 1.01" class="prefix__cls-2" data-name="Fill 640" transform="translate(16.922 51.483)"/>
            <path id="prefix__Fill_642" d="M1.011 2.02A1.01 1.01 0 1 0 0 1.01a1.01 1.01 0 0 0 1.011 1.01" class="prefix__cls-2" data-name="Fill 642" transform="translate(20.963 51.483)"/>
            <path id="prefix__Fill_644" d="M1.011 2.02A1.01 1.01 0 1 0 0 1.01a1.01 1.01 0 0 0 1.011 1.01" class="prefix__cls-2" data-name="Fill 644" transform="translate(25.003 51.483)"/>
            <path id="prefix__Fill_646" d="M1.01 2.02A1.01 1.01 0 1 0 0 1.01a1.01 1.01 0 0 0 1.01 1.01" class="prefix__cls-2" data-name="Fill 646" transform="translate(29.043 51.483)"/>
            <path id="prefix__Fill_648" d="M1.988 1.011A1.01 1.01 0 0 0 .977 0 1 1 0 0 0 0 .851q.648.568 1.326 1.1a1 1 0 0 0 .662-.94" class="prefix__cls-2" data-name="Fill 648" transform="translate(10.894 54.513)"/>
            <path id="prefix__Fill_650" d="M1.01 0a1.01 1.01 0 1 0 1.011 1.011A1.01 1.01 0 0 0 1.01 0" class="prefix__cls-2" data-name="Fill 650" transform="translate(14.903 54.513)"/>
            <path id="prefix__Fill_652" d="M1.011 0a1.01 1.01 0 1 0 1.01 1.011A1.011 1.011 0 0 0 1.011 0" class="prefix__cls-2" data-name="Fill 652" transform="translate(18.942 54.513)"/>
            <path id="prefix__Fill_654" d="M1.011 0a1.01 1.01 0 1 0 1.01 1.011A1.011 1.011 0 0 0 1.011 0" class="prefix__cls-2" data-name="Fill 654" transform="translate(22.982 54.513)"/>
            <path id="prefix__Fill_656" d="M1.011 2.02A1.01 1.01 0 1 0 0 1.01a1.01 1.01 0 0 0 1.011 1.01" class="prefix__cls-2" data-name="Fill 656" transform="translate(27.023 54.513)"/>
            <path id="prefix__Fill_658" d="M1.007 1.011A1.01 1.01 0 0 1 0 2.021a1.011 1.011 0 0 0 1.011-1.01A1.011 1.011 0 0 0 0 0a1.009 1.009 0 0 1 1.007 1.01" class="prefix__cls-2" data-name="Fill 658" transform="translate(32.071 54.513)"/>
            <path id="prefix__Fill_660" d="M0 1.01A1.007 1.007 0 1 0 1.007 0 1.01 1.01 0 0 0 0 1.01" class="prefix__cls-2" data-name="Fill 660" transform="translate(31.064 54.513)"/>
            <path id="prefix__Fill_662" d="M.167.007A.955.955 0 0 0 0 .04q.557.387 1.131.748A1 1 0 0 0 .167.007" class="prefix__cls-2" data-name="Fill 662" transform="translate(13.726 57.536)"/>
            <path id="prefix__Fill_664" d="M1.011 0a1.01 1.01 0 1 0 1.01 1.011A1.011 1.011 0 0 0 1.011 0" class="prefix__cls-2" data-name="Fill 664" transform="translate(16.922 57.543)"/>
            <path id="prefix__Fill_666" d="M1.011 0a1.01 1.01 0 1 0 1.01 1.011A1.011 1.011 0 0 0 1.011 0" class="prefix__cls-2" data-name="Fill 666" transform="translate(20.963 57.543)"/>
            <path id="prefix__Fill_668" d="M1.011 0a1.01 1.01 0 1 0 1.01 1.011A1.011 1.011 0 0 0 1.011 0" class="prefix__cls-2" data-name="Fill 668" transform="translate(25.003 57.543)"/>
            <path id="prefix__Fill_670" d="M1.01 0a1.01 1.01 0 1 0 1.011 1.011A1.01 1.01 0 0 0 1.01 0" class="prefix__cls-2" data-name="Fill 670" transform="translate(29.043 57.543)"/>
            <path id="prefix__Fill_672" d="M.514.027A.987.987 0 0 0 0 .188Q.725.5 1.469.768A1 1 0 0 0 .514.027" class="prefix__cls-2" data-name="Fill 672" transform="translate(19.439 60.546)"/>
            <path id="prefix__Fill_674" d="M2.021 1.011a1.01 1.01 0 1 0-2.021 0 1 1 0 0 0 .1.429q.731.209 1.477.383a.993.993 0 0 0 .441-.812" class="prefix__cls-2" data-name="Fill 674" transform="translate(22.983 60.573)"/>
            <path id="prefix__Fill_676" d="M1.011 0a1.01 1.01 0 1 0 1.01 1.011A1.011 1.011 0 0 0 1.011 0" class="prefix__cls-2" data-name="Fill 676" transform="translate(27.023 60.573)"/>
            <path id="prefix__Fill_678" d="M0 0a1.01 1.01 0 0 1 1.007 1.01A1.01 1.01 0 0 1 0 2.02a1.011 1.011 0 0 0 1.011-1.01A1.011 1.011 0 0 0 0 0" class="prefix__cls-2" data-name="Fill 678" transform="translate(32.071 60.573)"/>
            <path id="prefix__Fill_680" d="M2.014 1.01a1.007 1.007 0 1 0-1.007 1.01 1.01 1.01 0 0 0 1.007-1.01" class="prefix__cls-2" data-name="Fill 680" transform="translate(31.064 60.574)"/>
        </g>
        <path id="prefix__Fill_682" d="M0 7.239a20.292 20.292 0 0 0 1.025 3.768c.24.634.5 1.219.76 1.752l5.586-4.033L2.049 0Q1.026 3.62 0 7.239" class="prefix__cls-7" data-name="Fill 682" transform="translate(22.042 31.36)"/>
        <path id="prefix__Fill_684" d="M0 0a8.2 8.2 0 0 1 2.486 5.228 5.109 5.109 0 0 1-.012.554" class="prefix__cls-7" data-name="Fill 684" transform="translate(20.719 38.43)"/>
        <path id="prefix__Fill_686" d="M2.953 5.995L2.4 5.956a4.98 4.98 0 0 0 .011-.525A7.908 7.908 0 0 0 0 .386L.4 0a8.317 8.317 0 0 1 2.564 5.411 5.673 5.673 0 0 1-.012.584" class="prefix__cls-8" data-name="Fill 686" transform="translate(20.519 38.236)"/>
        <path id="prefix__Fill_688" d="M11.309 35.141a.278.278 0 0 1-.278-.272c-.294-13.963-1.477-22.011-3.515-23.921l-.054-.048a33.957 33.957 0 0 1-3.474-3.765 27.053 27.053 0 0 1-1.944-2.8A30.374 30.374 0 0 1 .022.386.277.277 0 0 1 .17.021a.28.28 0 0 1 .365.148 29.906 29.906 0 0 0 1.983 3.877 26.634 26.634 0 0 0 1.907 2.743 33.346 33.346 0 0 0 3.415 3.7l.057.052c2.181 2.045 3.389 10 3.69 24.316a.279.279 0 0 1-.272.284z" class="prefix__cls-8" data-name="Fill 688" transform="translate(24.648 32.162)"/>
        <path id="prefix__Fill_690" d="M18.45 31.969a74.257 74.257 0 0 0 .794-9.392c.126-5.964.212-9.9-1.62-14.27A22.761 22.761 0 0 0 11.553.012a5.749 5.749 0 0 0-3.416.794 6.535 6.535 0 0 0-2.544 3.907C3.527 11.937 2.094 21.678.535 28.581c-.226 1-.424 1.8-.535 2.248" class="prefix__cls-7" data-name="Fill 690" transform="translate(17.574 39.486)"/>
        <path id="prefix__Fill_692" d="M18.729 32.525a.247.247 0 0 1-.041 0 .277.277 0 0 1-.234-.316 74.374 74.374 0 0 0 .79-9.357c.126-5.943.208-9.851-1.6-14.157a22.533 22.533 0 0 0-5.923-8.13 5.28 5.28 0 0 0-3.155.754 6.288 6.288 0 0 0-2.427 3.749C4.849 9.576 3.82 15 2.823 20.251c-.593 3.128-1.154 6.082-1.738 8.671-.227 1-.425 1.807-.536 2.254a.279.279 0 0 1-.541-.135C.121 30.6.317 29.8.542 28.8c.582-2.578 1.142-5.528 1.735-8.651 1-5.261 2.03-10.7 3.326-15.233A6.794 6.794 0 0 1 8.267.849a5.916 5.916 0 0 1 3.581-.836l.1.006.072.064a23.128 23.128 0 0 1 6.143 8.4c1.851 4.416 1.768 8.37 1.642 14.355a74.868 74.868 0 0 1-.8 9.455.278.278 0 0 1-.275.237" class="prefix__cls-8" data-name="Fill 692" transform="translate(17.295 39.207)"/>
        <path id="prefix__Fill_694" d="M16.747 4.107c4.665 4.711 5.653 11.579 2.206 15.338s-10.024 2.988-14.69-1.723S-1.391 6.144 2.056 2.384 12.081-.6 16.747 4.107" class="prefix__cls-7" data-name="Fill 694" transform="translate(3.956 20.856)"/>
        <path id="prefix__Fill_696" d="M13.487 22.385A13.231 13.231 0 0 1 4.335 18.2C-.425 13.389-1.418 6.336 2.121 2.474A7.783 7.783 0 0 1 7.873 0h.22a13.2 13.2 0 0 1 9.122 4.19C21.977 9 22.97 16.05 19.428 19.912a7.786 7.786 0 0 1-5.75 2.472zM8.064.557h-.181A7.247 7.247 0 0 0 2.532 2.85C-.81 6.5.176 13.2 4.731 17.8a12.668 12.668 0 0 0 8.755 4.025h.181a7.241 7.241 0 0 0 5.351-2.291c3.344-3.646 2.357-10.354-2.2-14.954A12.677 12.677 0 0 0 8.064.557z" class="prefix__cls-8" data-name="Fill 696" transform="translate(3.686 20.578)"/>
        <path id="prefix__Fill_698" d="M.837 14.919c2.841 3.9 13.105 2.234 14.832-2.314.545-1.437.222-3.115 1.1-3.4s2.428.961 2.906 2.423c.455 1.385-.339 2.044.06 3.127.649 1.764 3.841 3 5.259 2.036 1.916-1.3.944-6.845-1.353-10.552A13 13 0 0 0 17.294.813C11.307-1.5 6.031 1.832 5.581 2.137A13.751 13.751 0 0 0 .235 9.814c-.635 3.052.168 4.511.6 5.105" class="prefix__cls-2" data-name="Fill 698" transform="translate(.276 15.563)"/>
        <path id="prefix__Fill_700" d="M23.991 17.692a4.662 4.662 0 0 1-1.429-.243 4.391 4.391 0 0 1-2.814-2.314 2.621 2.621 0 0 1-.033-1.538 2.825 2.825 0 0 0-.031-1.6 3.382 3.382 0 0 0-2.368-2.274.616.616 0 0 0-.188.028c-.345.111-.43.627-.541 1.458v.008a7.752 7.752 0 0 1-.38 1.765c-.858 2.261-3.822 4.047-7.55 4.55a13.782 13.782 0 0 1-1.825.122c-1.595 0-4.487-.3-5.943-2.292-.895-1.224-1.119-3.062-.65-5.323A14.013 14.013 0 0 1 5.7 2.188 14.484 14.484 0 0 1 13.2 0a12.357 12.357 0 0 1 4.476.834 13.147 13.147 0 0 1 6.481 5.541c2.33 3.76 3.417 9.475 1.272 10.93a2.542 2.542 0 0 1-1.438.387zM17.3 9.174c1.072 0 2.463 1.264 2.918 2.652a3.368 3.368 0 0 1 .048 1.876 2.117 2.117 0 0 0 .008 1.24 3.837 3.837 0 0 0 2.462 1.977 4.206 4.206 0 0 0 1.259.214 1.99 1.99 0 0 0 1.12-.29c1.667-1.131.93-6.36-1.434-10.175a12.6 12.6 0 0 0-6.207-5.317 11.829 11.829 0 0 0-4.283-.8 13.773 13.773 0 0 0-7.177 2.098A13.436 13.436 0 0 0 .779 10.17c-.433 2.09-.239 3.772.559 4.866.959 1.315 2.941 2.069 5.438 2.069a13.586 13.586 0 0 0 1.8-.124c2.891-.388 6.209-1.835 7.1-4.194a7.483 7.483 0 0 0 .35-1.649c.115-.869.224-1.69.922-1.914a1.142 1.142 0 0 1 .352-.05z" class="prefix__cls-8" data-name="Fill 700" transform="translate(0 15.283)"/>
        <path id="prefix__Fill_702" d="M0 17.963L1.62 0l6.247.643-2.843 17.386" class="prefix__cls-7" data-name="Fill 702" transform="translate(23.596 53.227)"/>
        <path id="prefix__Fill_704" d="M5.322 18.654a.257.257 0 0 1-.049 0 .3.3 0 0 1-.245-.342L7.819 1.234 2.187.654.594 18.316a.3.3 0 0 1-.324.27.3.3 0 0 1-.27-.322L1.648 0l6.861.706L5.615 18.4a.3.3 0 0 1-.293.25" class="prefix__cls-8" data-name="Fill 704" transform="translate(23.298 52.9)"/>
        <path id="prefix__Fill_706" d="M1.423 0A30.632 30.632 0 0 1 .3 9.1a3.005 3.005 0 0 0-.111 2.27c1.111 2.146 6.974 2.228 8.286 0a3.341 3.341 0 0 0 .112-2.342A23.112 23.112 0 0 1 9 .352" class="prefix__cls-7" data-name="Fill 706" transform="translate(23.528 46.506)"/>
        <path id="prefix__Fill_708" d="M4.567 13.567H4.34c-1.567-.047-3.473-.539-4.121-1.79a3.062 3.062 0 0 1 .052-2.345L.309 9.3A30.787 30.787 0 0 0 1.422.282a.278.278 0 1 1 .556-.008A31.292 31.292 0 0 1 .843 9.456l-.038.133a2.576 2.576 0 0 0-.092 1.931c.443.855 1.873 1.438 3.642 1.487 1.947.067 3.6-.55 4.157-1.5a2.706 2.706 0 0 0 .115-1.915l-.038-.242a23.722 23.722 0 0 1 .42-8.78.283.283 0 0 1 .333-.211.279.279 0 0 1 .212.332 23.161 23.161 0 0 0-.414 8.573l.038.239a3.2 3.2 0 0 1-.185 2.286c-.776 1.318-2.817 1.777-4.424 1.777" class="prefix__cls-8" data-name="Fill 708" transform="translate(23.25 46.227)"/>
        <g id="prefix__Group_712" data-name="Group 712" transform="translate(39.759 59.881)">
            <path id="prefix__Clip_711-2" d="M0 0h13.52v15.733H0z" class="prefix__cls-1" data-name="Clip 711" transform="translate(.715 .17)"/>
            <g id="prefix__Group_712-2" data-name="Group 712">
                <path id="prefix__Fill_710" d="M0 3.4l1.322 4.929L.3 15.733l13.22-1.289a41.236 41.236 0 0 0-.826-6.016A41.27 41.27 0 0 0 9.917 0L0 3.4" class="prefix__cls-7" data-name="Fill 710" transform="translate(.715 .17)"/>
            </g>
        </g>
        <path id="prefix__Fill_713" d="M9.88 2.953a7.779 7.779 0 0 0-1.5 3.13 7.534 7.534 0 0 0-.176 1.675 11.527 11.527 0 0 0 .617 3.57 11.7 11.7 0 0 0 2.864 4.539L.1 20.978A41.108 41.108 0 0 1 2.52 4.011Q5.3 2 8.073 0z" class="prefix__cls-7" data-name="Fill 713" transform="translate(37.624 34.037)"/>
        <path id="prefix__Fill_715" d="M4.3 38.1a.278.278 0 0 1-.278-.272A31.066 31.066 0 0 0 3.7 33.9a8.619 8.619 0 0 0-.493-1.845c-.088-.223-.172-.4-.232-.527-.012-.028-.762-1.76-1.268-3.155a32.315 32.315 0 0 1-1.58-7.629 32.626 32.626 0 0 1 .215-7.627A30.279 30.279 0 0 1 1.25 9 28.349 28.349 0 0 1 5.668.258L5.86 0l4.44 4.428-.183.2a5.163 5.163 0 0 0-1.4 2.818 5.3 5.3 0 0 0 .071 1.622 17.22 17.22 0 0 0 2.569 6.093c.215.369.391.665.5.839a.278.278 0 1 1-.476.289c-.107-.177-.287-.476-.5-.85A17.646 17.646 0 0 1 8.24 9.146a5.876 5.876 0 0 1-.071-1.776 5.643 5.643 0 0 1 1.36-2.924L5.924.849a27.751 27.751 0 0 0-4.141 8.315A29.643 29.643 0 0 0 .892 13.2a32.134 32.134 0 0 0-.211 7.5 31.654 31.654 0 0 0 1.55 7.487c.5 1.38 1.242 3.1 1.25 3.113.059.124.148.316.243.553a9.216 9.216 0 0 1 .524 1.957 31.7 31.7 0 0 1 .335 4.007.279.279 0 0 1-.272.284z" class="prefix__cls-8" data-name="Fill 715" transform="translate(37.316 33.367)"/>
        <path id="prefix__Fill_717" d="M5.619 1.708A20.894 20.894 0 0 1 10.29 0a34.182 34.182 0 0 0 2.8 3.613c2.054 2.317 3.1 2.866 3.459 4.44a5.025 5.025 0 0 1-1.013 4.231c-.992 1.173-2.382 1.515-3.911 1.891a14.136 14.136 0 0 1-2.468.352 14.985 14.985 0 0 0-6.346 2.238A24.821 24.821 0 0 1 0 5.872a20.99 20.99 0 0 1 5.619-4.164" class="prefix__cls-7" data-name="Fill 717" transform="translate(37.831 48.152)"/>
        <path id="prefix__Fill_719" d="M2.98 17.473l-.135-.26A25.094 25.094 0 0 1 0 6.195V6.08l.081-.085A21.2 21.2 0 0 1 10.508.044L10.7 0l.1.16a34.216 34.216 0 0 0 2.776 3.585c.609.685 1.118 1.205 1.567 1.664l.009.009A5.815 5.815 0 0 1 17.1 8.307a5.314 5.314 0 0 1-1.072 4.473c-1.052 1.244-2.512 1.6-4.057 1.982a12.6 12.6 0 0 1-2.2.333l-.309.026a14.985 14.985 0 0 0-6.23 2.2l-.252.151zM10.45.632A20.6 20.6 0 0 0 .563 6.3 24.537 24.537 0 0 0 3.2 16.693a15.346 15.346 0 0 1 6.209-2.127l.314-.027a11.987 11.987 0 0 0 2.112-.319c1.519-.373 2.831-.7 3.766-1.8a4.738 4.738 0 0 0 .955-3.989 5.373 5.373 0 0 0-1.8-2.625c-.435-.443-.976-.994-1.595-1.693A34.627 34.627 0 0 1 10.45.632z" class="prefix__cls-8" data-name="Fill 719" transform="translate(37.549 47.836)"/>
        <path id="prefix__Fill_721" d="M0 2.711a69.487 69.487 0 0 0 .992 10.18A69.375 69.375 0 0 0 2.578 19.9l2.578 8.66c1.172-.033 3.3-.241 3.9-1.52a3.156 3.156 0 0 0-.375-2.578c-1.3-2.769-1.23-6-2.115-8.925C5.718 12.732 4.977 8.086 5.421 0L0 2.711" class="prefix__cls-7" data-name="Fill 721" transform="translate(39.748 42.301)"/>
        <path id="prefix__Fill_723" d="M4.663 2.853c-4.529 3.727-6.015 9.681-3.32 13.3s8.552 3.53 13.081-.2 6.016-9.681 3.32-13.3-8.552-3.531-13.081.2" class="prefix__cls-7" data-name="Fill 723" transform="translate(45.248 21.389)"/>
        <path id="prefix__Fill_725" d="M7.318 19.3a9.265 9.265 0 0 1-1.094-.065 6.89 6.89 0 0 1-4.837-2.693C-1.382 12.831.126 6.714 4.747 2.911A12 12 0 0 1 12.244 0a9.091 9.091 0 0 1 1.1.066 6.886 6.886 0 0 1 4.837 2.692c2.769 3.716 1.261 9.833-3.361 13.636A12 12 0 0 1 7.318 19.3zM12.253.493a11.512 11.512 0 0 0-7.193 2.8C.638 6.93-.833 12.745 1.781 16.253a6.406 6.406 0 0 0 4.5 2.5 8.611 8.611 0 0 0 1.035.062 11.509 11.509 0 0 0 7.191-2.8c4.422-3.638 5.893-9.453 3.279-12.962a6.412 6.412 0 0 0-4.5-2.5 8.637 8.637 0 0 0-1.033-.059z" class="prefix__cls-8" data-name="Fill 725" transform="translate(45.008 21.14)"/>
        <path id="prefix__Fill_727" d="M2.714 9.811a.28.28 0 0 1-.27-.208L.009.349A.278.278 0 1 1 .548.208l2.435 9.255a.279.279 0 0 1-.2.34.27.27 0 0 1-.071.009" class="prefix__cls-8" data-name="Fill 727" transform="translate(50.939 61.656)"/>
        <path id="prefix__Fill_729" d="M0 2.6C0 2.069.021 1.5.075.9.1.584.138.287.177 0l1.344 3.768a2.8 2.8 0 0 1-.4.662 2.754 2.754 0 0 1-.705.616z" class="prefix__cls-7" data-name="Fill 729" transform="translate(41.885 47.193)"/>
        <path id="prefix__Fill_731" d="M5.748 25.915a.3.3 0 0 1-.279-.192 87.06 87.06 0 0 1-2.682-8.315A87.179 87.179 0 0 1 0 .316.3.3 0 0 1 .28 0 .3.3 0 0 1 .6.279a86.589 86.589 0 0 0 2.762 16.974 86.171 86.171 0 0 0 2.665 8.258.3.3 0 0 1-.173.385.31.31 0 0 1-.106.019" class="prefix__cls-8" data-name="Fill 731" transform="translate(39.442 45.639)"/>
        <path id="prefix__Fill_733" d="M5.1 26.531a.3.3 0 0 1-.283-.208c-.594-1.86-1.143-3.77-1.636-5.678A106.9 106.9 0 0 1 0 .315.3.3 0 0 1 .6.279 106.34 106.34 0 0 0 3.759 20.5c.49 1.9 1.037 3.8 1.625 5.647a.3.3 0 0 1-.193.373.273.273 0 0 1-.09.015" class="prefix__cls-8" data-name="Fill 733" transform="translate(44.65 45.023)"/>
        <path id="prefix__Fill_735" d="M0 0q.15.37.309.744c.066.156.133.311.2.465q1.914.154 3.83.311L4.073.775 0 0" class="prefix__cls-7" data-name="Fill 735" transform="translate(46.34 73.344)"/>
        <path id="prefix__Fill_737" d="M10.859 5.092C8.337.705 6.7-.149 5.629.02 4.741.16 4.368.987 2.67 1.314 1.3 1.578.379 1.268.081 1.79s.326 1.384.4 1.479c.817 1.1 2.268 1.293 3.461 1.427a65.69 65.69 0 0 0 6.921.4" class="prefix__cls-7" data-name="Fill 737" transform="translate(23.09 9.26)"/>
        <path id="prefix__Fill_739" d="M11.619 5.653h-.482a65.906 65.906 0 0 1-6.952-.4C3.095 5.13 1.448 4.946.532 3.715.342 3.459-.25 2.573.117 1.932c.256-.45.765-.465 1.409-.485h.016a8.123 8.123 0 0 0 1.352-.127A4.683 4.683 0 0 0 4.751.532 2.8 2.8 0 0 1 5.863.024 1.914 1.914 0 0 1 6.166 0c1.483 0 3.187 1.712 5.212 5.233l.24.419zM6.152.559a1.358 1.358 0 0 0-.2.015A2.324 2.324 0 0 0 5.055 1 5.235 5.235 0 0 1 3 1.868 8.672 8.672 0 0 1 1.548 2C.976 2.021.7 2.038.6 2.208c-.147.257.093.79.378 1.176.712.955 1.952 1.167 3.268 1.316 2.079.232 4.234.363 6.4.39C8.891 2.126 7.336.559 6.152.559z" class="prefix__cls-8" data-name="Fill 739" transform="translate(22.812 8.981)"/>
        <path id="prefix__Fill_741" d="M1.657 0C2.8 1.349 5.926 5.224 6.107 8.229c.037.615.119 1.986-.608 2.4a1.336 1.336 0 0 1-1.048.023c-1.473-.608-.723-3.5-2.261-6.361A8.4 8.4 0 0 0 0 1.712" class="prefix__cls-7" data-name="Fill 741" transform="translate(38.093 10.703)"/>
        <path id="prefix__Fill_743" d="M5.169 11.21a1.87 1.87 0 0 1-.65-.121c-.925-.382-1.095-1.432-1.31-2.763A11.349 11.349 0 0 0 2.118 4.6 8.083 8.083 0 0 0 0 2.111l.347-.437a8.639 8.639 0 0 1 2.261 2.665 11.843 11.843 0 0 1 1.151 3.9c.194 1.2.333 2.074.971 2.337a1.065 1.065 0 0 0 .8-.007c.576-.328.5-1.6.468-2.138C5.84 5.724 3.185 2.213 1.617.36L2.043 0c1.612 1.906 4.342 5.529 4.515 8.392.042.7.128 2.161-.747 2.66a1.285 1.285 0 0 1-.643.159" class="prefix__cls-8" data-name="Fill 743" transform="translate(37.92 10.523)"/>
        <path id="prefix__Fill_745" d="M18.118 0a7.975 7.975 0 0 1 .917 6.557 8.006 8.006 0 0 1-4.763 4.929 7.09 7.09 0 0 1-4.234-.439A5.751 5.751 0 0 1 7.1 8.609c-.607-1.161-.349-1.976-.913-2.209-.775-.325-1.556 1.1-3.14 1.19a3.482 3.482 0 0 1-2.125-.664c-.9-.816-.978-1.3-.9-1.588.293-1.038 2.926-.376 4.747-2.192.767-.764.742-1.32 1.415-1.559 1.084-.385 2.423.6 3.39 1.5a2.551 2.551 0 0 0 2.855.144A3.067 3.067 0 0 0 13.575.773a3.7 3.7 0 0 0 1.452.429A4.181 4.181 0 0 0 18.118 0" class="prefix__cls-7" data-name="Fill 745" transform="translate(22.117 9.419)"/>
        <path id="prefix__Fill_747" d="M13.11 12.336a7.163 7.163 0 0 1-2.906-.6 6.018 6.018 0 0 1-3.066-2.563 5.174 5.174 0 0 1-.482-1.426c-.094-.436-.141-.6-.3-.661a.329.329 0 0 0-.13-.025 1.838 1.838 0 0 0-.826.406 4.041 4.041 0 0 1-2.06.832h-.173a3.808 3.808 0 0 1-2.124-.713C.218 6.841-.113 6.221.034 5.7c.177-.63.9-.776 1.741-.946h.005a5.593 5.593 0 0 0 3.072-1.372 4.274 4.274 0 0 0 .618-.8 1.671 1.671 0 0 1 .9-.823 1.8 1.8 0 0 1 .6-.1 5.012 5.012 0 0 1 3.073 1.659 1.9 1.9 0 0 0 1.287.435 2.433 2.433 0 0 0 1.234-.326A2.832 2.832 0 0 0 13.576 1.2l.012-.45.4.211a3.413 3.413 0 0 0 1.343.4c.084.007.169.01.253.01A3.927 3.927 0 0 0 18.2.233L18.445 0l.185.281a8.276 8.276 0 0 1 .949 6.794 8.246 8.246 0 0 1-4.935 5.108 7.754 7.754 0 0 1-1.534.153zM6.227 6.5a.881.881 0 0 1 .347.071c.438.184.525.588.626 1.056a4.654 4.654 0 0 0 .43 1.284 5.515 5.515 0 0 0 2.8 2.31 6.653 6.653 0 0 0 2.7.558 7.048 7.048 0 0 0 1.373-.135 7.65 7.65 0 0 0 4.554-4.74 7.662 7.662 0 0 0-.723-6.041 4.434 4.434 0 0 1-2.76 1.06c-.1 0-.192 0-.288-.011a3.941 3.941 0 0 1-1.186-.283A3.036 3.036 0 0 1 12.85 3.9a2.994 2.994 0 0 1-1.515.4 2.463 2.463 0 0 1-1.671-.582 4.541 4.541 0 0 0-2.679-1.507 1.269 1.269 0 0 0-.428.071c-.3.106-.412.281-.615.6a4.835 4.835 0 0 1-.694.891A6.131 6.131 0 0 1 1.89 5.295c-.69.14-1.235.25-1.319.553s.209.753.816 1.306a3.192 3.192 0 0 0 1.767.594h.156A3.534 3.534 0 0 0 5.093 7H5.1a2.213 2.213 0 0 1 1.127-.5z" class="prefix__cls-8" data-name="Fill 747" transform="translate(21.839 8.985)"/>
        <path id="prefix__Fill_749" d="M5.189 0c-.057 1.767-.339 6.738-2.218 9.088-.385.48-1.244 1.553-2.061 1.373a1.33 1.33 0 0 1-.792-.687C-.567 8.337 1.931 6.692 2.707 3.54A8.4 8.4 0 0 0 2.812.158" class="prefix__cls-7" data-name="Fill 749" transform="translate(34.545 12.873)"/>
        <path id="prefix__Fill_751" d="M1.381 11.04a1.158 1.158 0 0 1-.249-.027 1.612 1.612 0 0 1-.986-.844c-.428-.9.151-1.791.884-2.921a11.363 11.363 0 0 0 1.688-3.495 8.1 8.1 0 0 0 .1-3.27.278.278 0 1 1 .551-.091 8.658 8.658 0 0 1-.111 3.494A11.8 11.8 0 0 1 1.5 7.55C.834 8.572.354 9.312.651 9.934a1.068 1.068 0 0 0 .6.535c.643.149 1.472-.887 1.782-1.274 1.7-2.118 2.08-6.5 2.16-8.925a.278.278 0 0 1 .556.018C5.668 2.781 5.264 7.3 3.47 9.541c-.4.5-1.2 1.5-2.089 1.5" class="prefix__cls-8" data-name="Fill 751" transform="translate(34.264 12.594)"/>
        <path id="prefix__Fill_753" d="M9.875 6.6c-.645 3.017-3.347 5-6.035 4.423s-4.345-3.486-3.7-6.5S3.486-.475 6.175.1s4.346 3.486 3.7 6.5" class="prefix__cls-7" data-name="Fill 753" transform="translate(33.961 .474)"/>
        <path id="prefix__Fill_755" d="M5.06 11.68a4.806 4.806 0 0 1-1-.106C1.224 10.968-.531 7.9.145 4.741A5.741 5.741 0 0 1 5.517 0a4.74 4.74 0 0 1 .993.105 4.964 4.964 0 0 1 3.284 2.47 6.183 6.183 0 0 1 .63 4.363 6.182 6.182 0 0 1-2.359 3.724A5.07 5.07 0 0 1 5.06 11.68zM5.518.556a5.186 5.186 0 0 0-4.829 4.3 5.635 5.635 0 0 0 .563 3.957 4.416 4.416 0 0 0 2.923 2.217 4.269 4.269 0 0 0 .881.092 4.528 4.528 0 0 0 2.68-.909A5.645 5.645 0 0 0 9.88 6.822a5.639 5.639 0 0 0-.57-3.972A4.417 4.417 0 0 0 6.394.649a4.226 4.226 0 0 0-.876-.093z" class="prefix__cls-8" data-name="Fill 755" transform="translate(33.683 .196)"/>
        <path id="prefix__Fill_757" d="M.3.6c-.877 1.029.379 3.542 1.056 4.551A2.963 2.963 0 0 0 2.94 6.613c.8.2 1.4-.246 1.741.114a1.119 1.119 0 0 1-.1 1.322c-.329.4-.743.236-.992.555a1.643 1.643 0 0 0 .611 2.071c.942.405 2.71-1.075 3.492-2.681a5.465 5.465 0 0 0-.081-4.956C5.964.084 1.4-.688.3.6" class="prefix__cls-2" data-name="Fill 757" transform="translate(36.774 .279)"/>
        <path id="prefix__Fill_759" d="M4.811 11.3a1.117 1.117 0 0 1-.448-.088 1.71 1.71 0 0 1-.874-1.191 1.538 1.538 0 0 1 .157-1.311 1.006 1.006 0 0 1 .583-.338.725.725 0 0 0 .414-.223.876.876 0 0 0 .11-.954.228.228 0 0 0-.18-.057 2.532 2.532 0 0 0-.33.034 3.883 3.883 0 0 1-.572.052 2.112 2.112 0 0 1-.526-.064 3.09 3.09 0 0 1-1.711-1.526C.786 4.672-.67 1.91.362.7A2.646 2.646 0 0 1 2.4 0c.183 0 .375.01.571.029a6.79 6.79 0 0 1 5.158 3.153 5.711 5.711 0 0 1 .087 5.213C7.532 9.8 6 11.3 4.811 11.3zm-.24-4.714a.753.753 0 0 1 .587.231 1.385 1.385 0 0 1-.086 1.691 1.253 1.253 0 0 1-.691.4c-.154.042-.237.068-.3.144a1.058 1.058 0 0 0-.056.827 1.214 1.214 0 0 0 .556.818.633.633 0 0 0 .253.049c.827 0 2.226-1.261 2.879-2.6a5.21 5.21 0 0 0-.074-4.7A6.275 6.275 0 0 0 2.918.583 5.015 5.015 0 0 0 2.4.556a2.161 2.161 0 0 0-1.618.505c-.671.786.245 2.978 1.076 4.213.427.635.8 1.184 1.42 1.343a1.548 1.548 0 0 0 .387.046 3.32 3.32 0 0 0 .484-.045h.008a2.745 2.745 0 0 1 .414-.035z" class="prefix__cls-8" data-name="Fill 759" transform="translate(36.5)"/>
        <path id="prefix__Fill_761" d="M16.238 7.978c.223 1 .824 3.7-.758 5.876-2.175 2.995-6.624 2.463-7.219 2.384C4.96 15.794.087 13.2 0 8.261A8.12 8.12 0 0 1 7.979 0c5.086-.089 7.63 5.146 8.26 7.977" data-name="Fill 761" transform="translate(25.942 30.766)" style="fill:rgba(218,206,253,.5);mix-blend-mode:multiply;isolation:isolate"/>
        <path id="prefix__Fill_763" d="M29.554 11.884c-1.369 1.784-4.031 2.009-6.514 2.219-1.365.115-1.518-.042-2.756.139a14.757 14.757 0 0 0-4.765 1.626c-3.123 1.79-2.73 4.067-6.372 6.84-1.293.985-3.289 2.461-5.694 2.133C1.8 24.617-.006 23.548 0 22.511c0-.7.824-.981 2.242-2.2a19.7 19.7 0 0 0 2.958-3.33 30.988 30.988 0 0 0 3.169-5.589C9.526 9.051 9.711 8.354 10.8 6.5a17.637 17.637 0 0 1 1.819-2.754A11.59 11.59 0 0 1 19.4.064a10.456 10.456 0 0 1 6.988 1.769 8.571 8.571 0 0 1 3.659 4.655c.188.646 1 3.451-.491 5.4" class="prefix__cls-2" data-name="Fill 763" transform="translate(34.799 15.742)"/>
        <path id="prefix__Fill_765" d="M4.423 25.445a5.289 5.289 0 0 1-.729-.049C1.94 25.158-.008 24.028 0 22.788c0-.612.444-.942 1.173-1.489.278-.208.7-.523 1.166-.925a19.619 19.619 0 0 0 2.919-3.281 30.674 30.674 0 0 0 3.134-5.53c.417-.844.705-1.468.965-2.035a27.587 27.587 0 0 1 1.485-2.892l.005-.009a17.776 17.776 0 0 1 1.844-2.785A11.661 11.661 0 0 1 19.646.066 10.212 10.212 0 0 1 20.8 0a10.9 10.9 0 0 1 6.024 1.883 8.834 8.834 0 0 1 3.768 4.806c.859 2.966.182 4.706-.538 5.643-1.444 1.884-4.242 2.119-6.71 2.326-.507.043-.845.049-1.108.049h-.473a7.378 7.378 0 0 0-1.163.093 14.594 14.594 0 0 0-4.667 1.592A8.035 8.035 0 0 0 13 19.4a13.544 13.544 0 0 1-3.409 3.8c-1.091.844-2.934 2.245-5.168 2.245zM20.8.557a9.706 9.706 0 0 0-1.088.061 11.439 11.439 0 0 0-6.6 3.588 17.484 17.484 0 0 0-1.79 2.714 26.691 26.691 0 0 0-1.46 2.841c-.261.569-.551 1.195-.964 2.032a31.207 31.207 0 0 1-3.2 5.636 19.96 19.96 0 0 1-3 3.366c-.464.4-.868.7-1.192.948-.676.508-.95.727-.952 1.047-.005.816 1.586 1.832 3.212 2.053a4.837 4.837 0 0 0 .64.043c2.066 0 3.807-1.327 4.848-2.121a13.083 13.083 0 0 0 3.28-3.664 8.565 8.565 0 0 1 3.123-3.2 15.231 15.231 0 0 1 4.863-1.66 8.385 8.385 0 0 1 1.366-.1h.36c.25 0 .571-.005 1.046-.045h.011c2.465-.209 5.013-.426 6.306-2.11.641-.837 1.239-2.411.445-5.15a8.329 8.329 0 0 0-3.548-4.5A10.341 10.341 0 0 0 20.8.557z" class="prefix__cls-8" data-name="Fill 765" transform="translate(34.522 15.464)"/>
    </g>
</svg>
