<svg xmlns="http://www.w3.org/2000/svg" width="64.518" height="63.039" viewBox="0 0 64.518 63.039">
    <defs>
        <clipPath id="prefix__clip-path">
            <path id="prefix__Clip_683" d="M0 0h41.767v47.476H0z" class="prefix__cls-1" data-name="Clip 683" transform="translate(.352 .661)"/>
        </clipPath>
        <clipPath id="prefix__clip-path-2">
            <path id="prefix__Clip_710" d="M0 0h31.218v16.066H0z" class="prefix__cls-1" data-name="Clip 710" transform="translate(0 .377)"/>
        </clipPath>
        <style>
            .prefix__cls-1{fill:none}.prefix__cls-3{fill:#c5eb8c}.prefix__cls-4{fill:#fff}.prefix__cls-6{fill:#2d2d2d}
        </style>
    </defs>
    <g id="prefix__ic_lab_report_" data-name="ic_lab_report" transform="translate(0 -.7)">
        <g id="prefix__Group_679" data-name="Group 679" transform="translate(4.9 5.639)" style="opacity:.5">
            <path id="prefix__Fill_1" d="M.89 1.779A.889.889 0 0 1 .892 0a.889.889 0 1 0 0 1.779" class="prefix__cls-3" data-name="Fill 1" transform="translate(27.391 .355)"/>
            <path id="prefix__Fill_3" d="M.89 1.779A.889.889 0 1 0 0 .889a.89.89 0 0 0 .89.89" class="prefix__cls-3" data-name="Fill 3" transform="translate(30.948 .355)"/>
            <path id="prefix__Fill_5" d="M.89 1.3a.886.886 0 0 0 .882-.853C1.226.279.672.134.113 0A.867.867 0 0 0 0 .41a.89.89 0 0 0 .89.89" class="prefix__cls-3" data-name="Fill 5" transform="translate(34.504 .834)"/>
            <path id="prefix__Fill_7" d="M.89 1.779A.889.889 0 1 0 0 .889a.889.889 0 0 0 .89.89" class="prefix__cls-3" data-name="Fill 7" transform="translate(29.169 3.022)"/>
            <path id="prefix__Fill_9" d="M.889 1.779A.889.889 0 1 0 0 .889a.89.89 0 0 0 .889.89" class="prefix__cls-3" data-name="Fill 9" transform="translate(32.726 3.022)"/>
            <path id="prefix__Fill_11" d="M.89 1.779A.889.889 0 1 0 0 .889a.889.889 0 0 0 .89.89" class="prefix__cls-3" data-name="Fill 11" transform="translate(36.282 3.022)"/>
            <path id="prefix__Fill_13" d="M0 .872a.889.889 0 1 0 1.778 0 .86.86 0 0 0-.127-.43C1.371.288 1.086.144.8 0a.881.881 0 0 0-.8.872" class="prefix__cls-3" data-name="Fill 13" transform="translate(39.84 3.04)"/>
            <path id="prefix__Fill_15" d="M0 .889A.89.89 0 0 1 .892 0a.889.889 0 1 0 0 1.779A.89.89 0 0 1 0 .889" class="prefix__cls-3" data-name="Fill 15" transform="translate(27.391 5.69)"/>
            <path id="prefix__Fill_17" d="M.89 0a.889.889 0 1 0 .89.889A.889.889 0 0 0 .89 0" class="prefix__cls-3" data-name="Fill 17" transform="translate(30.948 5.69)"/>
            <path id="prefix__Fill_19" d="M.89 1.778A.889.889 0 1 0 0 .888a.889.889 0 0 0 .89.89" class="prefix__cls-3" data-name="Fill 19" transform="translate(34.504 5.69)"/>
            <path id="prefix__Fill_21" d="M.89 1.778A.889.889 0 1 0 0 .888a.89.89 0 0 0 .89.89" class="prefix__cls-3" data-name="Fill 21" transform="translate(38.061 5.69)"/>
            <path id="prefix__Fill_23" d="M.89 1.778A.889.889 0 1 0 0 .888a.889.889 0 0 0 .89.89" class="prefix__cls-3" data-name="Fill 23" transform="translate(41.618 5.69)"/>
            <path id="prefix__Fill_25" d="M.889 1.416a.881.881 0 0 0 .65-.291C1.1.735.652.362.192 0A.867.867 0 0 0 0 .526a.889.889 0 0 0 .889.89" class="prefix__cls-3" data-name="Fill 25" transform="translate(45.175 6.052)"/>
            <path id="prefix__Fill_27" d="M.89 0a.889.889 0 1 0 .89.89A.89.89 0 0 0 .89 0" class="prefix__cls-3" data-name="Fill 27" transform="translate(29.169 8.358)"/>
            <path id="prefix__Fill_29" d="M.889 0a.889.889 0 1 0 .89.89.889.889 0 0 0-.89-.89" class="prefix__cls-3" data-name="Fill 29" transform="translate(32.726 8.358)"/>
            <path id="prefix__Fill_31" d="M.89 0a.889.889 0 1 0 .89.89A.89.89 0 0 0 .89 0" class="prefix__cls-3" data-name="Fill 31" transform="translate(36.282 8.358)"/>
            <path id="prefix__Fill_33" d="M.889 1.778A.889.889 0 1 0 0 .889a.89.89 0 0 0 .889.889" class="prefix__cls-3" data-name="Fill 33" transform="translate(39.84 8.358)"/>
            <path id="prefix__Fill_35" d="M.89 1.778A.889.889 0 1 0 0 .889a.889.889 0 0 0 .89.889" class="prefix__cls-3" data-name="Fill 35" transform="translate(43.396 8.358)"/>
            <path id="prefix__Fill_37" d="M0 .89a.889.889 0 0 0 1.778 0 .772.772 0 0 0-.02-.1C1.52.533 1.277.279 1.03.029A.865.865 0 0 0 .889 0 .889.889 0 0 0 0 .89" class="prefix__cls-3" data-name="Fill 37" transform="translate(46.954 8.357)"/>
            <path id="prefix__Fill_39" d="M0 .89A.89.89 0 0 1 .892 0a.889.889 0 1 0 0 1.779A.89.89 0 0 1 0 .89" class="prefix__cls-3" data-name="Fill 39" transform="translate(27.391 11.025)"/>
            <path id="prefix__Fill_41" d="M.89 1.778A.889.889 0 1 0 0 .889a.89.89 0 0 0 .89.889" class="prefix__cls-3" data-name="Fill 41" transform="translate(30.948 11.025)"/>
            <path id="prefix__Fill_43" d="M.89 0a.889.889 0 1 0 .889.89A.89.89 0 0 0 .89 0" class="prefix__cls-3" data-name="Fill 43" transform="translate(34.504 11.025)"/>
            <path id="prefix__Fill_45" d="M.89 0a.889.889 0 1 0 .89.89A.89.89 0 0 0 .89 0" class="prefix__cls-3" data-name="Fill 45" transform="translate(38.061 11.025)"/>
            <path id="prefix__Fill_47" d="M.89 0a.889.889 0 1 0 .889.89A.89.89 0 0 0 .89 0" class="prefix__cls-3" data-name="Fill 47" transform="translate(41.618 11.025)"/>
            <path id="prefix__Fill_49" d="M.889 1.778A.889.889 0 1 0 0 .889a.889.889 0 0 0 .889.889" class="prefix__cls-3" data-name="Fill 49" transform="translate(45.175 11.025)"/>
            <path id="prefix__Fill_51" d="M.89 1.778A.889.889 0 1 0 0 .889a.889.889 0 0 0 .89.889" class="prefix__cls-3" data-name="Fill 51" transform="translate(48.731 11.025)"/>
            <path id="prefix__Fill_53" d="M.89 0a.889.889 0 1 0 .89.89A.89.89 0 0 0 .89 0" class="prefix__cls-3" data-name="Fill 53" transform="translate(29.169 13.692)"/>
            <path id="prefix__Fill_55" d="M.889 0a.889.889 0 1 0 .89.89.89.89 0 0 0-.89-.89" class="prefix__cls-3" data-name="Fill 55" transform="translate(32.726 13.692)"/>
            <path id="prefix__Fill_57" d="M.89 1.779A.889.889 0 1 0 0 .889a.89.89 0 0 0 .89.89" class="prefix__cls-3" data-name="Fill 57" transform="translate(36.282 13.692)"/>
            <path id="prefix__Fill_59" d="M.889 0a.889.889 0 1 0 .89.89.89.89 0 0 0-.89-.89" class="prefix__cls-3" data-name="Fill 59" transform="translate(39.84 13.692)"/>
            <path id="prefix__Fill_61" d="M.89 0a.889.889 0 1 0 .89.89A.89.89 0 0 0 .89 0" class="prefix__cls-3" data-name="Fill 61" transform="translate(43.396 13.692)"/>
            <path id="prefix__Fill_63" d="M.889 1.779A.889.889 0 1 0 0 .889a.89.89 0 0 0 .889.89" class="prefix__cls-3" data-name="Fill 63" transform="translate(46.953 13.692)"/>
            <path id="prefix__Fill_65" d="M.89 1.779A.889.889 0 1 0 0 .889a.89.89 0 0 0 .89.89" class="prefix__cls-3" data-name="Fill 65" transform="translate(50.509 13.692)"/>
            <path id="prefix__Fill_67" d="M0 .889A.89.89 0 0 1 .892 0a.889.889 0 1 0 0 1.779A.89.89 0 0 1 0 .889" class="prefix__cls-3" data-name="Fill 67" transform="translate(27.391 16.36)"/>
            <path id="prefix__Fill_69" d="M.89 0a.889.889 0 1 0 .89.889A.889.889 0 0 0 .89 0" class="prefix__cls-3" data-name="Fill 69" transform="translate(30.948 16.36)"/>
            <path id="prefix__Fill_71" d="M.89 0a.889.889 0 1 0 .889.889A.89.89 0 0 0 .89 0" class="prefix__cls-3" data-name="Fill 71" transform="translate(34.504 16.36)"/>
            <path id="prefix__Fill_73" d="M.89 0a.889.889 0 1 0 .89.889A.889.889 0 0 0 .89 0" class="prefix__cls-3" data-name="Fill 73" transform="translate(38.061 16.36)"/>
            <path id="prefix__Fill_75" d="M.89 1.778A.889.889 0 1 0 0 .888a.889.889 0 0 0 .89.89" class="prefix__cls-3" data-name="Fill 75" transform="translate(41.618 16.36)"/>
            <path id="prefix__Fill_77" d="M.889 0a.889.889 0 1 0 .89.889A.889.889 0 0 0 .889 0" class="prefix__cls-3" data-name="Fill 77" transform="translate(45.175 16.36)"/>
            <path id="prefix__Fill_79" d="M.89 0a.889.889 0 1 0 .889.889A.889.889 0 0 0 .89 0" class="prefix__cls-3" data-name="Fill 79" transform="translate(48.731 16.36)"/>
            <path id="prefix__Fill_81" d="M0 .889a.883.883 0 0 0 1.719.291Q1.492.622 1.242.075A.886.886 0 0 0 0 .889" class="prefix__cls-3" data-name="Fill 81" transform="translate(52.288 16.36)"/>
            <path id="prefix__Fill_83" d="M.89 0a.889.889 0 1 0 .89.889A.89.89 0 0 0 .89 0" class="prefix__cls-3" data-name="Fill 83" transform="translate(29.169 19.028)"/>
            <path id="prefix__Fill_85" d="M.889 1.778A.889.889 0 1 0 0 .888a.89.89 0 0 0 .889.89" class="prefix__cls-3" data-name="Fill 85" transform="translate(32.726 19.028)"/>
            <path id="prefix__Fill_87" d="M.89 0a.889.889 0 1 0 .89.889A.89.89 0 0 0 .89 0" class="prefix__cls-3" data-name="Fill 87" transform="translate(36.282 19.028)"/>
            <path id="prefix__Fill_89" d="M.889 0a.889.889 0 1 0 .89.889A.889.889 0 0 0 .889 0" class="prefix__cls-3" data-name="Fill 89" transform="translate(39.84 19.028)"/>
            <path id="prefix__Fill_91" d="M.89 0a.889.889 0 1 0 .89.889A.89.89 0 0 0 .89 0" class="prefix__cls-3" data-name="Fill 91" transform="translate(43.396 19.028)"/>
            <path id="prefix__Fill_93" d="M.889 0a.889.889 0 1 0 .89.889A.889.889 0 0 0 .889 0" class="prefix__cls-3" data-name="Fill 93" transform="translate(46.953 19.028)"/>
            <path id="prefix__Fill_95" d="M.89 0a.889.889 0 1 0 .89.889A.89.89 0 0 0 .89 0" class="prefix__cls-3" data-name="Fill 95" transform="translate(50.509 19.028)"/>
            <path id="prefix__Fill_97" d="M0 .8a.89.89 0 0 0 .89.89.786.786 0 0 0 .139-.029C.877 1.1.707.548.522 0A.885.885 0 0 0 0 .8" class="prefix__cls-3" data-name="Fill 97" transform="translate(54.066 19.112)"/>
            <path id="prefix__Fill_99" d="M.89 1.779A.889.889 0 0 1 .892 0a.889.889 0 1 0 0 1.779" class="prefix__cls-3" data-name="Fill 99" transform="translate(27.391 21.695)"/>
            <path id="prefix__Fill_101" d="M.89 0a.889.889 0 1 0 .89.89A.889.889 0 0 0 .89 0" class="prefix__cls-3" data-name="Fill 101" transform="translate(30.948 21.695)"/>
            <path id="prefix__Fill_103" d="M.89 0a.889.889 0 1 0 .889.89A.89.89 0 0 0 .89 0" class="prefix__cls-3" data-name="Fill 103" transform="translate(34.504 21.695)"/>
            <path id="prefix__Fill_105" d="M.89 1.779A.889.889 0 1 0 0 .889a.89.89 0 0 0 .89.89" class="prefix__cls-3" data-name="Fill 105" transform="translate(38.061 21.695)"/>
            <path id="prefix__Fill_107" d="M.89 0a.889.889 0 1 0 .889.89A.889.889 0 0 0 .89 0" class="prefix__cls-3" data-name="Fill 107" transform="translate(41.618 21.695)"/>
            <path id="prefix__Fill_109" d="M.889 0a.889.889 0 1 0 .89.89.889.889 0 0 0-.89-.89" class="prefix__cls-3" data-name="Fill 109" transform="translate(45.175 21.695)"/>
            <path id="prefix__Fill_111" d="M.89 1.779A.889.889 0 1 0 0 .889a.89.89 0 0 0 .89.89" class="prefix__cls-3" data-name="Fill 111" transform="translate(48.731 21.695)"/>
            <path id="prefix__Fill_113" d="M.889 1.779A.889.889 0 1 0 0 .889a.89.89 0 0 0 .889.89" class="prefix__cls-3" data-name="Fill 113" transform="translate(52.288 21.695)"/>
            <path id="prefix__Fill_115" d="M.89 0a.889.889 0 1 0 .89.89A.89.89 0 0 0 .89 0" class="prefix__cls-3" data-name="Fill 115" transform="translate(29.169 24.363)"/>
            <path id="prefix__Fill_117" d="M.889 0a.889.889 0 1 0 .89.89.889.889 0 0 0-.89-.89" class="prefix__cls-3" data-name="Fill 117" transform="translate(32.726 24.363)"/>
            <path id="prefix__Fill_119" d="M.89 0a.889.889 0 1 0 .89.89A.89.89 0 0 0 .89 0" class="prefix__cls-3" data-name="Fill 119" transform="translate(36.282 24.363)"/>
            <path id="prefix__Fill_121" d="M.889 1.779A.889.889 0 1 0 0 .889a.89.89 0 0 0 .889.89" class="prefix__cls-3" data-name="Fill 121" transform="translate(39.84 24.363)"/>
            <path id="prefix__Fill_123" d="M.89 1.779A.889.889 0 1 0 0 .889a.89.89 0 0 0 .89.89" class="prefix__cls-3" data-name="Fill 123" transform="translate(43.396 24.363)"/>
            <path id="prefix__Fill_125" d="M.889 0a.889.889 0 1 0 .89.89.889.889 0 0 0-.89-.89" class="prefix__cls-3" data-name="Fill 125" transform="translate(46.953 24.363)"/>
            <path id="prefix__Fill_127" d="M.89 0a.889.889 0 1 0 .89.89A.89.89 0 0 0 .89 0" class="prefix__cls-3" data-name="Fill 127" transform="translate(50.509 24.363)"/>
            <path id="prefix__Fill_129" d="M.89 1.779A.889.889 0 1 0 0 .889a.89.89 0 0 0 .89.89" class="prefix__cls-3" data-name="Fill 129" transform="translate(54.066 24.363)"/>
            <path id="prefix__Fill_131" d="M0 .015A.114.114 0 0 0 0 0v.015A.89.89 0 0 0 .89.9.89.89 0 0 1 0 .015" class="prefix__cls-3" data-name="Fill 131" transform="translate(27.391 27.905)"/>
            <path id="prefix__Fill_133" d="M.89.9a.89.89 0 0 0 .89-.89v-.014a.888.888 0 0 1-.89.88A.889.889 0 0 1 0 0v.014A.889.889 0 0 0 .89.9" class="prefix__cls-3" data-name="Fill 133" transform="translate(30.948 27.905)"/>
            <path id="prefix__Fill_135" d="M.89.876A.889.889 0 0 1 0 0v.015A.89.89 0 0 0 .89.9a.889.889 0 0 0 .889-.885V0A.888.888 0 0 1 .89.876" class="prefix__cls-3" data-name="Fill 135" transform="translate(34.504 27.905)"/>
            <path id="prefix__Fill_137" d="M.89.876A.889.889 0 0 1 0 0v.015A.889.889 0 0 0 .89.9a.89.89 0 0 0 .89-.889.147.147 0 0 0 0-.015.888.888 0 0 1-.89.88" class="prefix__cls-3" data-name="Fill 137" transform="translate(38.061 27.905)"/>
            <path id="prefix__Fill_139" d="M1.775 0a.888.888 0 0 1-.886.876A.887.887 0 0 1 0 0v.015a.889.889 0 0 0 1.778 0V0" class="prefix__cls-3" data-name="Fill 139" transform="translate(41.618 27.905)"/>
            <path id="prefix__Fill_141" d="M.889.9a.889.889 0 0 0 .89-.89v-.014a.888.888 0 0 1-.89.88A.889.889 0 0 1 0 0v.014A.889.889 0 0 0 .889.9" class="prefix__cls-3" data-name="Fill 141" transform="translate(45.175 27.905)"/>
            <path id="prefix__Fill_143" d="M1.775 0a.888.888 0 0 1-.886.876A.887.887 0 0 1 0 0v.015a.889.889 0 0 0 1.778 0V0" class="prefix__cls-3" data-name="Fill 143" transform="translate(48.732 27.905)"/>
            <path id="prefix__Fill_145" d="M.889.876A.889.889 0 0 1 0 0v.015A.889.889 0 0 0 .889.9a.889.889 0 0 0 .89-.889v-.015a.888.888 0 0 1-.89.88" class="prefix__cls-3" data-name="Fill 145" transform="translate(52.288 27.905)"/>
            <path id="prefix__Fill_147" d="M.252.09a.869.869 0 0 0 .2.534V.597A.873.873 0 0 1 .254.076v.015" class="prefix__cls-3" data-name="Fill 147" transform="translate(55.594 27.829)"/>
            <path id="prefix__Fill_149" d="M.754.192C.5.287.25.388 0 .49c.031 0 .057.017.088.017A.873.873 0 0 0 .754.192" class="prefix__cls-3" data-name="Fill 149" transform="translate(17.527 1.626)"/>
            <path id="prefix__Fill_151" d="M.89 1.385A.89.89 0 0 0 1.779.5a.861.861 0 0 0-.172-.5Q.8.181.018.408A.718.718 0 0 0 0 .5a.89.89 0 0 0 .89.89" class="prefix__cls-3" data-name="Fill 151" transform="translate(20.283 .748)"/>
            <path id="prefix__Fill_153" d="M.889 1.779A.889.889 0 1 0 0 .889a.89.89 0 0 0 .889.89" class="prefix__cls-3" data-name="Fill 153" transform="translate(23.84 .355)"/>
            <path id="prefix__Fill_155" d="M.886.89A.889.889 0 0 1 0 1.779.89.89 0 0 0 .892.89.89.89 0 0 0 0 0a.889.889 0 0 1 .886.89" class="prefix__cls-3" data-name="Fill 155" transform="translate(28.283 .354)"/>
            <path id="prefix__Fill_157" d="M0 .889A.887.887 0 1 0 .888 0 .89.89 0 0 0 0 .889" class="prefix__cls-3" data-name="Fill 157" transform="translate(27.396 .355)"/>
            <path id="prefix__Fill_159" d="M.534.232C.412.31.286.387.166.468A.878.878 0 0 0 .534.232" class="prefix__cls-3" data-name="Fill 159" transform="translate(12.397 4.276)"/>
            <path id="prefix__Fill_161" d="M.89 1.779A.889.889 0 1 0 0 .889a.889.889 0 0 0 .89.89" class="prefix__cls-3" data-name="Fill 161" transform="translate(14.947 3.022)"/>
            <path id="prefix__Fill_163" d="M.89 1.779A.889.889 0 1 0 0 .889a.89.89 0 0 0 .89.89" class="prefix__cls-3" data-name="Fill 163" transform="translate(18.504 3.022)"/>
            <path id="prefix__Fill_165" d="M.89 1.779A.889.889 0 1 0 0 .889a.89.89 0 0 0 .89.89" class="prefix__cls-3" data-name="Fill 165" transform="translate(22.061 3.022)"/>
            <path id="prefix__Fill_167" d="M.89 1.779A.889.889 0 1 0 0 .889a.889.889 0 0 0 .89.89" class="prefix__cls-3" data-name="Fill 167" transform="translate(25.618 3.022)"/>
            <path id="prefix__Fill_169" d="M.808 1.6A.889.889 0 0 0 1.7.713.873.873 0 0 0 1.311 0Q.638.519 0 1.077a.887.887 0 0 0 .808.523" class="prefix__cls-3" data-name="Fill 169" transform="translate(9.694 5.865)"/>
            <path id="prefix__Fill_171" d="M.89 1.778A.889.889 0 1 0 0 .888a.889.889 0 0 0 .89.89" class="prefix__cls-3" data-name="Fill 171" transform="translate(13.169 5.69)"/>
            <path id="prefix__Fill_173" d="M.889 1.778A.889.889 0 1 0 0 .888a.889.889 0 0 0 .889.89" class="prefix__cls-3" data-name="Fill 173" transform="translate(16.726 5.69)"/>
            <path id="prefix__Fill_175" d="M.89 1.778A.889.889 0 1 0 0 .888a.889.889 0 0 0 .89.89" class="prefix__cls-3" data-name="Fill 175" transform="translate(20.283 5.69)"/>
            <path id="prefix__Fill_177" d="M.889 0a.889.889 0 1 0 .89.889A.889.889 0 0 0 .889 0" class="prefix__cls-3" data-name="Fill 177" transform="translate(23.84 5.69)"/>
            <path id="prefix__Fill_179" d="M0 0a.889.889 0 0 1 .886.889.889.889 0 0 1-.886.888A.889.889 0 1 0 0 0" class="prefix__cls-3" data-name="Fill 179" transform="translate(28.283 5.69)"/>
            <path id="prefix__Fill_181" d="M1.773.889a.887.887 0 1 0-.886.889.889.889 0 0 0 .886-.889" class="prefix__cls-3" data-name="Fill 181" transform="translate(27.396 5.69)"/>
            <path id="prefix__Fill_183" d="M.89 1.778A.889.889 0 1 0 0 .889a.889.889 0 0 0 .89.889" class="prefix__cls-3" data-name="Fill 183" transform="translate(7.834 8.358)"/>
            <path id="prefix__Fill_185" d="M.89 1.778A.889.889 0 1 0 0 .889a.89.89 0 0 0 .89.889" class="prefix__cls-3" data-name="Fill 185" transform="translate(11.391 8.358)"/>
            <path id="prefix__Fill_187" d="M.89 0a.889.889 0 1 0 .89.89A.889.889 0 0 0 .89 0" class="prefix__cls-3" data-name="Fill 187" transform="translate(14.947 8.358)"/>
            <path id="prefix__Fill_189" d="M.89 0a.889.889 0 1 0 .89.89A.89.89 0 0 0 .89 0" class="prefix__cls-3" data-name="Fill 189" transform="translate(18.504 8.358)"/>
            <path id="prefix__Fill_191" d="M.89 0a.889.889 0 1 0 .89.89A.889.889 0 0 0 .89 0" class="prefix__cls-3" data-name="Fill 191" transform="translate(22.061 8.358)"/>
            <path id="prefix__Fill_193" d="M.89 0a.889.889 0 1 0 .889.89A.89.89 0 0 0 .89 0" class="prefix__cls-3" data-name="Fill 193" transform="translate(25.618 8.358)"/>
            <path id="prefix__Fill_195" d="M.89 1.778A.889.889 0 1 0 0 .889a.889.889 0 0 0 .89.889" class="prefix__cls-3" data-name="Fill 195" transform="translate(6.056 11.025)"/>
            <path id="prefix__Fill_197" d="M.889 1.778A.889.889 0 1 0 0 .889a.889.889 0 0 0 .889.889" class="prefix__cls-3" data-name="Fill 197" transform="translate(9.613 11.025)"/>
            <path id="prefix__Fill_199" d="M.89 0a.889.889 0 1 0 .889.89A.89.89 0 0 0 .89 0" class="prefix__cls-3" data-name="Fill 199" transform="translate(13.169 11.025)"/>
            <path id="prefix__Fill_201" d="M.889 0a.889.889 0 1 0 .89.89.89.89 0 0 0-.89-.89" class="prefix__cls-3" data-name="Fill 201" transform="translate(16.726 11.025)"/>
            <path id="prefix__Fill_203" d="M.89 0a.889.889 0 1 0 .889.89A.89.89 0 0 0 .89 0" class="prefix__cls-3" data-name="Fill 203" transform="translate(20.283 11.025)"/>
            <path id="prefix__Fill_205" d="M.889 1.778A.889.889 0 1 0 0 .889a.889.889 0 0 0 .889.889" class="prefix__cls-3" data-name="Fill 205" transform="translate(23.84 11.025)"/>
            <path id="prefix__Fill_207" d="M0 0a.889.889 0 0 1 .886.89.889.889 0 0 1-.886.888A.889.889 0 0 0 .892.89.89.89 0 0 0 0 0" class="prefix__cls-3" data-name="Fill 207" transform="translate(28.283 11.025)"/>
            <path id="prefix__Fill_209" d="M1.773.889a.887.887 0 1 0-.886.889.889.889 0 0 0 .886-.889" class="prefix__cls-3" data-name="Fill 209" transform="translate(27.396 11.025)"/>
            <path id="prefix__Fill_211" d="M.889 1.779A.889.889 0 1 0 0 .889a.89.89 0 0 0 .889.89" class="prefix__cls-3" data-name="Fill 211" transform="translate(4.278 13.692)"/>
            <path id="prefix__Fill_213" d="M.89 0a.889.889 0 1 0 .89.89A.89.89 0 0 0 .89 0" class="prefix__cls-3" data-name="Fill 213" transform="translate(7.834 13.692)"/>
            <path id="prefix__Fill_215" d="M.89 0a.889.889 0 1 0 .89.89A.89.89 0 0 0 .89 0" class="prefix__cls-3" data-name="Fill 215" transform="translate(11.391 13.692)"/>
            <path id="prefix__Fill_217" d="M.89 1.779A.889.889 0 1 0 0 .889a.89.89 0 0 0 .89.89" class="prefix__cls-3" data-name="Fill 217" transform="translate(14.947 13.692)"/>
            <path id="prefix__Fill_219" d="M.89 1.779A.889.889 0 1 0 0 .889a.89.89 0 0 0 .89.89" class="prefix__cls-3" data-name="Fill 219" transform="translate(18.504 13.692)"/>
            <path id="prefix__Fill_221" d="M.89 1.779A.889.889 0 1 0 0 .889a.89.89 0 0 0 .89.89" class="prefix__cls-3" data-name="Fill 221" transform="translate(22.061 13.692)"/>
            <path id="prefix__Fill_223" d="M.89 0a.889.889 0 1 0 .889.89A.89.89 0 0 0 .89 0" class="prefix__cls-3" data-name="Fill 223" transform="translate(25.618 13.692)"/>
            <path id="prefix__Fill_225" d="M.889 1.778A.889.889 0 1 0 0 .888a.889.889 0 0 0 .889.89" class="prefix__cls-3" data-name="Fill 225" transform="translate(2.499 16.36)"/>
            <path id="prefix__Fill_227" d="M.89 0a.889.889 0 1 0 .889.889A.889.889 0 0 0 .89 0" class="prefix__cls-3" data-name="Fill 227" transform="translate(6.056 16.36)"/>
            <path id="prefix__Fill_229" d="M.889 0a.889.889 0 1 0 .89.889A.889.889 0 0 0 .889 0" class="prefix__cls-3" data-name="Fill 229" transform="translate(9.613 16.36)"/>
            <path id="prefix__Fill_231" d="M.89 1.778A.889.889 0 1 0 0 .888a.889.889 0 0 0 .89.89" class="prefix__cls-3" data-name="Fill 231" transform="translate(13.169 16.36)"/>
            <path id="prefix__Fill_233" d="M.889 0a.889.889 0 1 0 .89.889A.889.889 0 0 0 .889 0" class="prefix__cls-3" data-name="Fill 233" transform="translate(16.726 16.36)"/>
            <path id="prefix__Fill_235" d="M.89 0a.889.889 0 1 0 .889.889A.889.889 0 0 0 .89 0" class="prefix__cls-3" data-name="Fill 235" transform="translate(20.283 16.36)"/>
            <path id="prefix__Fill_237" d="M.889 0a.889.889 0 1 0 .89.889A.889.889 0 0 0 .889 0" class="prefix__cls-3" data-name="Fill 237" transform="translate(23.84 16.36)"/>
            <path id="prefix__Fill_239" d="M0 0a.889.889 0 0 1 .886.889.889.889 0 0 1-.886.888A.889.889 0 1 0 0 0" class="prefix__cls-3" data-name="Fill 239" transform="translate(28.283 16.36)"/>
            <path id="prefix__Fill_241" d="M1.773.889a.887.887 0 1 0-.886.889.889.889 0 0 0 .886-.889" class="prefix__cls-3" data-name="Fill 241" transform="translate(27.396 16.36)"/>
            <path id="prefix__Fill_243" d="M1.414.889A.889.889 0 0 0 .524 0C.512 0 .5.007.487.008Q.222.788 0 1.589a.876.876 0 0 0 .524.19.889.889 0 0 0 .89-.89" class="prefix__cls-3" data-name="Fill 243" transform="translate(1.086 19.027)"/>
            <path id="prefix__Fill_245" d="M.889 0a.889.889 0 1 0 .89.889A.889.889 0 0 0 .889 0" class="prefix__cls-3" data-name="Fill 245" transform="translate(4.278 19.028)"/>
            <path id="prefix__Fill_247" d="M.89 1.778A.889.889 0 1 0 0 .888a.889.889 0 0 0 .89.89" class="prefix__cls-3" data-name="Fill 247" transform="translate(7.834 19.028)"/>
            <path id="prefix__Fill_249" d="M.89 1.778A.889.889 0 1 0 0 .888a.89.89 0 0 0 .89.89" class="prefix__cls-3" data-name="Fill 249" transform="translate(11.391 19.028)"/>
            <path id="prefix__Fill_251" d="M.89 0a.889.889 0 1 0 .89.889A.889.889 0 0 0 .89 0" class="prefix__cls-3" data-name="Fill 251" transform="translate(14.947 19.028)"/>
            <path id="prefix__Fill_253" d="M.89 0a.889.889 0 1 0 .89.889A.89.89 0 0 0 .89 0" class="prefix__cls-3" data-name="Fill 253" transform="translate(18.504 19.028)"/>
            <path id="prefix__Fill_255" d="M.89 0a.889.889 0 1 0 .89.889A.889.889 0 0 0 .89 0" class="prefix__cls-3" data-name="Fill 255" transform="translate(22.061 19.028)"/>
            <path id="prefix__Fill_257" d="M.89 1.778A.889.889 0 1 0 0 .888a.889.889 0 0 0 .89.89" class="prefix__cls-3" data-name="Fill 257" transform="translate(25.618 19.028)"/>
            <path id="prefix__Fill_259" d="M.4 0C.342.263.3.529.251.8a.87.87 0 0 0 .2-.536A.861.861 0 0 0 .4 0" class="prefix__cls-3" data-name="Fill 259" transform="translate(.272 22.326)"/>
            <path id="prefix__Fill_261" d="M.889 1.779A.889.889 0 1 0 0 .889a.89.89 0 0 0 .889.89" class="prefix__cls-3" data-name="Fill 261" transform="translate(2.499 21.695)"/>
            <path id="prefix__Fill_263" d="M.89 1.779A.889.889 0 1 0 0 .889a.89.89 0 0 0 .89.89" class="prefix__cls-3" data-name="Fill 263" transform="translate(6.056 21.695)"/>
            <path id="prefix__Fill_265" d="M.889 0a.889.889 0 1 0 .89.89.889.889 0 0 0-.89-.89" class="prefix__cls-3" data-name="Fill 265" transform="translate(9.613 21.695)"/>
            <path id="prefix__Fill_267" d="M.89 0a.889.889 0 1 0 .889.89A.889.889 0 0 0 .89 0" class="prefix__cls-3" data-name="Fill 267" transform="translate(13.169 21.695)"/>
            <path id="prefix__Fill_269" d="M.889 1.779A.889.889 0 1 0 0 .889a.89.89 0 0 0 .889.89" class="prefix__cls-3" data-name="Fill 269" transform="translate(16.726 21.695)"/>
            <path id="prefix__Fill_271" d="M.89 1.779A.889.889 0 1 0 0 .889a.89.89 0 0 0 .89.89" class="prefix__cls-3" data-name="Fill 271" transform="translate(20.283 21.695)"/>
            <path id="prefix__Fill_273" d="M.889 1.779A.889.889 0 1 0 0 .889a.89.89 0 0 0 .889.89" class="prefix__cls-3" data-name="Fill 273" transform="translate(23.84 21.695)"/>
            <path id="prefix__Fill_275" d="M.886.89A.889.889 0 0 1 0 1.779.89.89 0 0 0 .892.89.89.89 0 0 0 0 0a.889.889 0 0 1 .886.89" class="prefix__cls-3" data-name="Fill 275" transform="translate(28.283 21.695)"/>
            <path id="prefix__Fill_277" d="M0 .889A.887.887 0 1 0 .888 0 .89.89 0 0 0 0 .889" class="prefix__cls-3" data-name="Fill 277" transform="translate(27.396 21.696)"/>
            <path id="prefix__Fill_279" d="M.89 1.779A.889.889 0 1 0 0 .889a.89.89 0 0 0 .89.89" class="prefix__cls-3" data-name="Fill 279" transform="translate(.72 24.363)"/>
            <path id="prefix__Fill_281" d="M.889 1.779A.889.889 0 1 0 0 .889a.89.89 0 0 0 .889.89" class="prefix__cls-3" data-name="Fill 281" transform="translate(4.278 24.363)"/>
            <path id="prefix__Fill_283" d="M.89 0a.889.889 0 1 0 .89.89A.89.89 0 0 0 .89 0" class="prefix__cls-3" data-name="Fill 283" transform="translate(7.834 24.363)"/>
            <path id="prefix__Fill_285" d="M.89 0a.889.889 0 1 0 .89.89A.89.89 0 0 0 .89 0" class="prefix__cls-3" data-name="Fill 285" transform="translate(11.391 24.363)"/>
            <path id="prefix__Fill_287" d="M.89 1.779A.889.889 0 1 0 0 .889a.89.89 0 0 0 .89.89" class="prefix__cls-3" data-name="Fill 287" transform="translate(14.947 24.363)"/>
            <path id="prefix__Fill_289" d="M.89 1.779A.889.889 0 1 0 0 .889a.89.89 0 0 0 .89.89" class="prefix__cls-3" data-name="Fill 289" transform="translate(18.504 24.363)"/>
            <path id="prefix__Fill_291" d="M.89 0a.889.889 0 1 0 .89.89A.889.889 0 0 0 .89 0" class="prefix__cls-3" data-name="Fill 291" transform="translate(22.061 24.363)"/>
            <path id="prefix__Fill_293" d="M.89 0a.889.889 0 1 0 .889.89A.89.89 0 0 0 .89 0" class="prefix__cls-3" data-name="Fill 293" transform="translate(25.618 24.363)"/>
            <path id="prefix__Fill_295" d="M.66.015V0a.877.877 0 0 1-.62.821v.028A.879.879 0 0 0 .66.015" class="prefix__cls-3" data-name="Fill 295" transform="translate(.061 27.905)"/>
            <path id="prefix__Fill_297" d="M.889.9a.889.889 0 0 0 .89-.89v-.014a.888.888 0 0 1-.89.88A.889.889 0 0 1 0 0v.014A.889.889 0 0 0 .889.9" class="prefix__cls-3" data-name="Fill 297" transform="translate(2.499 27.905)"/>
            <path id="prefix__Fill_299" d="M1.775 0a.888.888 0 0 1-.886.876A.887.887 0 0 1 0 0v.015a.889.889 0 0 0 1.778 0V0" class="prefix__cls-3" data-name="Fill 299" transform="translate(6.056 27.905)"/>
            <path id="prefix__Fill_301" d="M.889.876A.889.889 0 0 1 0 0v.015A.889.889 0 0 0 .889.9a.889.889 0 0 0 .89-.889v-.015a.888.888 0 0 1-.89.88" class="prefix__cls-3" data-name="Fill 301" transform="translate(9.613 27.905)"/>
            <path id="prefix__Fill_303" d="M.89.876A.888.888 0 0 1 0 0v.015A.889.889 0 0 0 .89.9a.889.889 0 0 0 .889-.885V0A.889.889 0 0 1 .89.876" class="prefix__cls-3" data-name="Fill 303" transform="translate(13.169 27.905)"/>
            <path id="prefix__Fill_305" d="M.889.9a.889.889 0 0 0 .89-.89v-.014a.888.888 0 0 1-.89.88A.889.889 0 0 1 0 0v.014A.889.889 0 0 0 .889.9" class="prefix__cls-3" data-name="Fill 305" transform="translate(16.726 27.905)"/>
            <path id="prefix__Fill_307" d="M1.775 0a.888.888 0 0 1-.886.876A.887.887 0 0 1 0 0v.015a.889.889 0 0 0 1.778 0V0" class="prefix__cls-3" data-name="Fill 307" transform="translate(20.283 27.905)"/>
            <path id="prefix__Fill_309" d="M.889.876A.888.888 0 0 1 0 0v.015A.889.889 0 0 0 .889.9a.889.889 0 0 0 .89-.889v-.015a.888.888 0 0 1-.89.88" class="prefix__cls-3" data-name="Fill 309" transform="translate(23.84 27.905)"/>
            <path id="prefix__Fill_311" d="M.886.015A.889.889 0 0 1 0 .9.89.89 0 0 0 .89.01v-.015.013z" class="prefix__cls-3" data-name="Fill 311" transform="translate(28.283 27.905)"/>
            <path id="prefix__Fill_313" d="M1.773 0a.886.886 0 0 1-.884.862A.886.886 0 0 1 0 0a.889.889 0 0 0 .887.89.889.889 0 0 0 .886-.89" class="prefix__cls-3" data-name="Fill 313" transform="translate(27.396 27.918)"/>
            <path id="prefix__Fill_315" d="M0 .89A.89.89 0 0 1 .892 0 .89.89 0 0 0 0 .89V.9a.081.081 0 0 0 0-.013" class="prefix__cls-3" data-name="Fill 315" transform="translate(27.391 27.002)"/>
            <path id="prefix__Fill_317" d="M.353.35V.337a.081.081 0 0 1 0 .013.114.114 0 0 1 0 .013V.35" class="prefix__cls-3" data-name="Fill 317" transform="translate(27.047 27.555)"/>
            <path id="prefix__Fill_319" d="M0 0v.013a.887.887 0 0 0 .884.863A.887.887 0 0 1 0 0" class="prefix__cls-3" data-name="Fill 319" transform="translate(27.397 27.905)"/>
            <path id="prefix__Fill_321" d="M.89.028A.888.888 0 0 1 1.776.9a.1.1 0 0 0 0-.014A.89.89 0 0 0 0 .889V.9A.889.889 0 0 1 .89.028" class="prefix__cls-3" data-name="Fill 321" transform="translate(30.948 27.002)"/>
            <path id="prefix__Fill_323" d="M.887 1.751a.888.888 0 0 0 .886-.876.887.887 0 0 0-1.773 0 .889.889 0 0 0 .887.876" class="prefix__cls-3" data-name="Fill 323" transform="translate(30.95 27.03)"/>
            <path id="prefix__Fill_325" d="M0 .9a.886.886 0 0 1 1.775 0V.886A.889.889 0 1 0 0 .889V.9" class="prefix__cls-3" data-name="Fill 325" transform="translate(34.505 27.002)"/>
            <path id="prefix__Fill_327" d="M.887 0A.889.889 0 0 0 0 .875a.887.887 0 0 0 1.773 0A.888.888 0 0 0 .887 0" class="prefix__cls-3" data-name="Fill 327" transform="translate(34.507 27.03)"/>
            <path id="prefix__Fill_329" d="M.89 0A.89.89 0 0 0 0 .89V.9a.887.887 0 0 1 1.776 0 .126.126 0 0 0 0-.013A.89.89 0 0 0 .89 0" class="prefix__cls-3" data-name="Fill 329" transform="translate(38.061 27.002)"/>
            <path id="prefix__Fill_331" d="M.887 0A.889.889 0 0 0 0 .875a.887.887 0 0 0 1.773 0A.888.888 0 0 0 .887 0" class="prefix__cls-3" data-name="Fill 331" transform="translate(38.064 27.03)"/>
            <path id="prefix__Fill_333" d="M.89.028A.888.888 0 0 1 1.776.9V.886A.889.889 0 0 0 0 .889V.9A.888.888 0 0 1 .89.028" class="prefix__cls-3" data-name="Fill 333" transform="translate(41.618 27.002)"/>
            <path id="prefix__Fill_335" d="M.887 1.751a.888.888 0 0 0 .886-.876.887.887 0 0 0-1.773 0 .888.888 0 0 0 .887.876" class="prefix__cls-3" data-name="Fill 335" transform="translate(41.621 27.03)"/>
            <path id="prefix__Fill_337" d="M.889.028A.888.888 0 0 1 1.776.9V.886A.889.889 0 0 0 0 .889V.9A.889.889 0 0 1 .889.028" class="prefix__cls-3" data-name="Fill 337" transform="translate(45.175 27.002)"/>
            <path id="prefix__Fill_339" d="M.886 1.751a.888.888 0 0 0 .887-.876.887.887 0 0 0-1.773 0 .889.889 0 0 0 .886.876" class="prefix__cls-3" data-name="Fill 339" transform="translate(45.177 27.03)"/>
            <path id="prefix__Fill_341" d="M.89.028A.889.889 0 0 1 1.776.9V.886A.889.889 0 0 0 0 .889V.9A.888.888 0 0 1 .89.028" class="prefix__cls-3" data-name="Fill 341" transform="translate(48.731 27.002)"/>
            <path id="prefix__Fill_343" d="M.887 1.751a.889.889 0 0 0 .886-.876.887.887 0 0 0-1.773 0 .888.888 0 0 0 .887.876" class="prefix__cls-3" data-name="Fill 343" transform="translate(48.734 27.03)"/>
            <path id="prefix__Fill_345" d="M.889 0A.89.89 0 0 0 0 .89V.9a.887.887 0 0 1 1.776 0V.887A.89.89 0 0 0 .889 0" class="prefix__cls-3" data-name="Fill 345" transform="translate(52.288 27.002)"/>
            <path id="prefix__Fill_347" d="M.886 0A.889.889 0 0 0 0 .875a.887.887 0 0 0 1.773 0A.888.888 0 0 0 .886 0" class="prefix__cls-3" data-name="Fill 347" transform="translate(52.291 27.03)"/>
            <path id="prefix__Fill_349" d="M.258.619A.872.872 0 0 1 .445.108V.081A.864.864 0 0 0 .255.6v.014" class="prefix__cls-3" data-name="Fill 349" transform="translate(55.59 27.286)"/>
            <path id="prefix__Fill_351" d="M.442 1.032c0-.13.01-.257.01-.387C.452.429.44.216.435 0a.878.878 0 0 0-.187.511.873.873 0 0 0 .194.521" class="prefix__cls-3" data-name="Fill 351" transform="translate(55.6 27.394)"/>
            <path id="prefix__Fill_353" d="M.89 1.779A.889.889 0 1 0 0 .889a.89.89 0 0 0 .89.89" class="prefix__cls-3" data-name="Fill 353" transform="translate(29.169 29.669)"/>
            <path id="prefix__Fill_355" d="M.889 1.779A.889.889 0 1 0 0 .889a.89.89 0 0 0 .889.89" class="prefix__cls-3" data-name="Fill 355" transform="translate(32.726 29.669)"/>
            <path id="prefix__Fill_357" d="M.89 0a.889.889 0 1 0 .89.89A.89.89 0 0 0 .89 0" class="prefix__cls-3" data-name="Fill 357" transform="translate(36.282 29.669)"/>
            <path id="prefix__Fill_359" d="M.889 0a.889.889 0 1 0 .89.89.89.89 0 0 0-.89-.89" class="prefix__cls-3" data-name="Fill 359" transform="translate(39.84 29.669)"/>
            <path id="prefix__Fill_361" d="M.89 1.779A.889.889 0 1 0 0 .889a.89.89 0 0 0 .89.89" class="prefix__cls-3" data-name="Fill 361" transform="translate(43.396 29.669)"/>
            <path id="prefix__Fill_363" d="M.889 1.779A.889.889 0 1 0 0 .889a.89.89 0 0 0 .889.89" class="prefix__cls-3" data-name="Fill 363" transform="translate(46.953 29.669)"/>
            <path id="prefix__Fill_365" d="M.89 1.779A.889.889 0 1 0 0 .889a.89.89 0 0 0 .89.89" class="prefix__cls-3" data-name="Fill 365" transform="translate(50.509 29.669)"/>
            <path id="prefix__Fill_367" d="M.89 0a.889.889 0 1 0 .89.89A.89.89 0 0 0 .89 0" class="prefix__cls-3" data-name="Fill 367" transform="translate(54.066 29.669)"/>
            <path id="prefix__Fill_369" d="M0 .889A.89.89 0 0 1 .892 0a.889.889 0 1 0 0 1.779A.89.89 0 0 1 0 .889" class="prefix__cls-3" data-name="Fill 369" transform="translate(27.391 32.337)"/>
            <path id="prefix__Fill_371" d="M.89 0a.889.889 0 1 0 .89.889A.889.889 0 0 0 .89 0" class="prefix__cls-3" data-name="Fill 371" transform="translate(30.948 32.337)"/>
            <path id="prefix__Fill_373" d="M.89 1.778A.889.889 0 1 0 0 .888a.889.889 0 0 0 .89.89" class="prefix__cls-3" data-name="Fill 373" transform="translate(34.504 32.337)"/>
            <path id="prefix__Fill_375" d="M.89 0a.889.889 0 1 0 .89.889A.889.889 0 0 0 .89 0" class="prefix__cls-3" data-name="Fill 375" transform="translate(38.061 32.337)"/>
            <path id="prefix__Fill_377" d="M.89 1.778A.889.889 0 1 0 0 .888a.889.889 0 0 0 .89.89" class="prefix__cls-3" data-name="Fill 377" transform="translate(41.618 32.337)"/>
            <path id="prefix__Fill_379" d="M.889 0a.889.889 0 1 0 .89.889A.889.889 0 0 0 .889 0" class="prefix__cls-3" data-name="Fill 379" transform="translate(45.175 32.337)"/>
            <path id="prefix__Fill_381" d="M.89 0a.889.889 0 1 0 .889.889A.889.889 0 0 0 .89 0" class="prefix__cls-3" data-name="Fill 381" transform="translate(48.731 32.337)"/>
            <path id="prefix__Fill_383" d="M.889 0a.889.889 0 1 0 .89.889A.889.889 0 0 0 .889 0" class="prefix__cls-3" data-name="Fill 383" transform="translate(52.288 32.337)"/>
            <path id="prefix__Fill_385" d="M.89 0a.889.889 0 1 0 .89.889A.89.89 0 0 0 .89 0" class="prefix__cls-3" data-name="Fill 385" transform="translate(29.169 35.005)"/>
            <path id="prefix__Fill_387" d="M.889 1.778A.889.889 0 1 0 0 .888a.89.89 0 0 0 .889.89" class="prefix__cls-3" data-name="Fill 387" transform="translate(32.726 35.005)"/>
            <path id="prefix__Fill_389" d="M.89 1.778A.889.889 0 1 0 0 .888a.889.889 0 0 0 .89.89" class="prefix__cls-3" data-name="Fill 389" transform="translate(36.282 35.005)"/>
            <path id="prefix__Fill_391" d="M.889 1.778A.889.889 0 1 0 0 .888a.89.89 0 0 0 .889.89" class="prefix__cls-3" data-name="Fill 391" transform="translate(39.84 35.005)"/>
            <path id="prefix__Fill_393" d="M.89 0a.889.889 0 1 0 .89.889A.89.89 0 0 0 .89 0" class="prefix__cls-3" data-name="Fill 393" transform="translate(43.396 35.005)"/>
            <path id="prefix__Fill_395" d="M.889 1.778A.889.889 0 1 0 0 .888a.89.89 0 0 0 .889.89" class="prefix__cls-3" data-name="Fill 395" transform="translate(46.953 35.005)"/>
            <path id="prefix__Fill_397" d="M.89 0a.889.889 0 1 0 .89.889A.89.89 0 0 0 .89 0" class="prefix__cls-3" data-name="Fill 397" transform="translate(50.509 35.005)"/>
            <path id="prefix__Fill_399" d="M0 .889a.88.88 0 0 0 .6.832C.784 1.168.953.61 1.1.043A.867.867 0 0 0 .89 0 .89.89 0 0 0 0 .889" class="prefix__cls-3" data-name="Fill 399" transform="translate(54.066 35.004)"/>
            <path id="prefix__Fill_401" d="M.89 1.779A.889.889 0 0 1 .892 0a.889.889 0 1 0 0 1.779" class="prefix__cls-3" data-name="Fill 401" transform="translate(27.391 37.672)"/>
            <path id="prefix__Fill_403" d="M.89 1.779A.889.889 0 1 0 0 .889a.89.89 0 0 0 .89.89" class="prefix__cls-3" data-name="Fill 403" transform="translate(30.948 37.672)"/>
            <path id="prefix__Fill_405" d="M.89 1.779A.889.889 0 1 0 0 .889a.89.89 0 0 0 .89.89" class="prefix__cls-3" data-name="Fill 405" transform="translate(34.504 37.672)"/>
            <path id="prefix__Fill_407" d="M.89 1.779A.889.889 0 1 0 0 .889a.89.89 0 0 0 .89.89" class="prefix__cls-3" data-name="Fill 407" transform="translate(38.061 37.672)"/>
            <path id="prefix__Fill_409" d="M.89 0a.889.889 0 1 0 .889.89A.889.889 0 0 0 .89 0" class="prefix__cls-3" data-name="Fill 409" transform="translate(41.618 37.672)"/>
            <path id="prefix__Fill_411" d="M.889 1.779A.889.889 0 1 0 0 .889a.89.89 0 0 0 .889.89" class="prefix__cls-3" data-name="Fill 411" transform="translate(45.175 37.672)"/>
            <path id="prefix__Fill_413" d="M.89 1.779A.889.889 0 1 0 0 .889a.89.89 0 0 0 .89.89" class="prefix__cls-3" data-name="Fill 413" transform="translate(48.731 37.672)"/>
            <path id="prefix__Fill_415" d="M.889 0a.889.889 0 0 0 0 1.779.866.866 0 0 0 .528-.192c.118-.268.23-.539.339-.811A.879.879 0 0 0 .889 0" class="prefix__cls-3" data-name="Fill 415" transform="translate(52.288 37.672)"/>
            <path id="prefix__Fill_417" d="M.89 1.779A.889.889 0 1 0 0 .889a.89.89 0 0 0 .89.89" class="prefix__cls-3" data-name="Fill 417" transform="translate(29.169 40.34)"/>
            <path id="prefix__Fill_419" d="M.889 0a.889.889 0 1 0 .89.89.89.89 0 0 0-.89-.89" class="prefix__cls-3" data-name="Fill 419" transform="translate(32.726 40.34)"/>
            <path id="prefix__Fill_421" d="M.89 1.779A.889.889 0 1 0 0 .889a.89.89 0 0 0 .89.89" class="prefix__cls-3" data-name="Fill 421" transform="translate(36.282 40.34)"/>
            <path id="prefix__Fill_423" d="M.889 0a.889.889 0 1 0 .89.89.89.89 0 0 0-.89-.89" class="prefix__cls-3" data-name="Fill 423" transform="translate(39.84 40.34)"/>
            <path id="prefix__Fill_425" d="M.89 1.779A.889.889 0 1 0 0 .889a.89.89 0 0 0 .89.89" class="prefix__cls-3" data-name="Fill 425" transform="translate(43.396 40.34)"/>
            <path id="prefix__Fill_427" d="M.889 0a.889.889 0 1 0 .89.89.89.89 0 0 0-.89-.89" class="prefix__cls-3" data-name="Fill 427" transform="translate(46.953 40.34)"/>
            <path id="prefix__Fill_429" d="M.89 0a.889.889 0 1 0 .89.89A.89.89 0 0 0 .89 0" class="prefix__cls-3" data-name="Fill 429" transform="translate(50.509 40.34)"/>
            <path id="prefix__Fill_431" d="M.89 1.779A.889.889 0 0 1 .892 0a.889.889 0 1 0 0 1.779" class="prefix__cls-3" data-name="Fill 431" transform="translate(27.391 43.007)"/>
            <path id="prefix__Fill_433" d="M.89 0a.889.889 0 1 0 .89.89A.89.89 0 0 0 .89 0" class="prefix__cls-3" data-name="Fill 433" transform="translate(30.948 43.007)"/>
            <path id="prefix__Fill_435" d="M.89 1.779A.889.889 0 1 0 0 .889a.889.889 0 0 0 .89.89" class="prefix__cls-3" data-name="Fill 435" transform="translate(34.504 43.007)"/>
            <path id="prefix__Fill_437" d="M.89 1.779A.889.889 0 1 0 0 .889a.89.89 0 0 0 .89.89" class="prefix__cls-3" data-name="Fill 437" transform="translate(38.061 43.007)"/>
            <path id="prefix__Fill_439" d="M.89 1.779A.889.889 0 1 0 0 .889a.889.889 0 0 0 .89.89" class="prefix__cls-3" data-name="Fill 439" transform="translate(41.618 43.007)"/>
            <path id="prefix__Fill_441" d="M.889 0a.889.889 0 1 0 .89.89.89.89 0 0 0-.89-.89" class="prefix__cls-3" data-name="Fill 441" transform="translate(45.175 43.007)"/>
            <path id="prefix__Fill_443" d="M.89 0a.889.889 0 1 0 .889.89A.89.89 0 0 0 .89 0" class="prefix__cls-3" data-name="Fill 443" transform="translate(48.731 43.007)"/>
            <path id="prefix__Fill_445" d="M.89 1.778A.889.889 0 1 0 0 .889a.889.889 0 0 0 .89.889" class="prefix__cls-3" data-name="Fill 445" transform="translate(29.169 45.675)"/>
            <path id="prefix__Fill_447" d="M.889 1.778A.889.889 0 1 0 0 .889a.89.89 0 0 0 .889.889" class="prefix__cls-3" data-name="Fill 447" transform="translate(32.726 45.675)"/>
            <path id="prefix__Fill_449" d="M.89 1.778A.889.889 0 1 0 0 .889a.889.889 0 0 0 .89.889" class="prefix__cls-3" data-name="Fill 449" transform="translate(36.282 45.675)"/>
            <path id="prefix__Fill_451" d="M.889 1.778A.889.889 0 1 0 0 .889a.89.89 0 0 0 .889.889" class="prefix__cls-3" data-name="Fill 451" transform="translate(39.84 45.675)"/>
            <path id="prefix__Fill_453" d="M.89 0a.889.889 0 1 0 .89.89A.89.89 0 0 0 .89 0" class="prefix__cls-3" data-name="Fill 453" transform="translate(43.396 45.675)"/>
            <path id="prefix__Fill_455" d="M.889 0a.889.889 0 1 0 0 1.778.88.88 0 0 0 .6-.239l.058-.06A.878.878 0 0 0 1.779.89.89.89 0 0 0 .889 0" class="prefix__cls-3" data-name="Fill 455" transform="translate(46.953 45.675)"/>
            <path id="prefix__Fill_457" d="M.89 1.778A.889.889 0 0 1 .892 0a.889.889 0 1 0 0 1.778" class="prefix__cls-3" data-name="Fill 457" transform="translate(27.391 48.342)"/>
            <path id="prefix__Fill_459" d="M.89 1.778A.889.889 0 1 0 0 .889a.89.89 0 0 0 .89.889" class="prefix__cls-3" data-name="Fill 459" transform="translate(30.948 48.342)"/>
            <path id="prefix__Fill_461" d="M.89 0a.889.889 0 1 0 .889.89A.89.89 0 0 0 .89 0" class="prefix__cls-3" data-name="Fill 461" transform="translate(34.504 48.342)"/>
            <path id="prefix__Fill_463" d="M.89 0a.889.889 0 1 0 .89.89A.889.889 0 0 0 .89 0" class="prefix__cls-3" data-name="Fill 463" transform="translate(38.061 48.342)"/>
            <path id="prefix__Fill_465" d="M.89 0a.889.889 0 1 0 .889.89A.889.889 0 0 0 .89 0" class="prefix__cls-3" data-name="Fill 465" transform="translate(41.618 48.342)"/>
            <path id="prefix__Fill_467" d="M.889 0A.889.889 0 0 0 0 .89a.875.875 0 0 0 .338.68c.449-.358.889-.726 1.315-1.11A.878.878 0 0 0 .889 0" class="prefix__cls-3" data-name="Fill 467" transform="translate(45.175 48.342)"/>
            <path id="prefix__Fill_469" d="M.89 0a.889.889 0 1 0 .89.89A.89.89 0 0 0 .89 0" class="prefix__cls-3" data-name="Fill 469" transform="translate(29.169 51.01)"/>
            <path id="prefix__Fill_471" d="M.889 0a.889.889 0 1 0 .89.89.89.89 0 0 0-.89-.89" class="prefix__cls-3" data-name="Fill 471" transform="translate(32.726 51.01)"/>
            <path id="prefix__Fill_473" d="M.89 0a.889.889 0 1 0 .89.89A.89.89 0 0 0 .89 0" class="prefix__cls-3" data-name="Fill 473" transform="translate(36.282 51.01)"/>
            <path id="prefix__Fill_475" d="M.889 0a.889.889 0 1 0 .89.89.89.89 0 0 0-.89-.89" class="prefix__cls-3" data-name="Fill 475" transform="translate(39.84 51.01)"/>
            <path id="prefix__Fill_477" d="M.2.455l.3-.21a.882.882 0 0 0-.3.21" class="prefix__cls-3" data-name="Fill 477" transform="translate(43.446 50.833)"/>
            <path id="prefix__Fill_479" d="M0 .89A.89.89 0 0 1 .892 0a.89.89 0 0 0 0 1.779A.89.89 0 0 1 0 .89" class="prefix__cls-3" data-name="Fill 479" transform="translate(27.391 53.677)"/>
            <path id="prefix__Fill_481" d="M.89 0a.889.889 0 1 0 .89.89A.89.89 0 0 0 .89 0" class="prefix__cls-3" data-name="Fill 481" transform="translate(30.948 53.677)"/>
            <path id="prefix__Fill_483" d="M.89 0a.886.886 0 0 0-.612 1.53c.489-.121.974-.253 1.452-.4a.871.871 0 0 0 .049-.24A.89.89 0 0 0 .89 0" class="prefix__cls-3" data-name="Fill 483" transform="translate(34.504 53.677)"/>
            <path id="prefix__Fill_485" d="M0 .575C.332.445.661.314.987.173A.848.848 0 0 0 .756.125.877.877 0 0 0 0 .575" class="prefix__cls-3" data-name="Fill 485" transform="translate(38.195 53.552)"/>
            <path id="prefix__Fill_487" d="M.654.847V.833A.879.879 0 0 0 .044 0v.028a.878.878 0 0 1 .61.819" class="prefix__cls-3" data-name="Fill 487" transform="translate(.064 27.058)"/>
            <path id="prefix__Fill_489" d="M.667.819A.878.878 0 0 0 .057 0C.045.317.033.633.033.953c0 .231.011.459.017.687A.877.877 0 0 0 .667.819" class="prefix__cls-3" data-name="Fill 489" transform="translate(.051 27.086)"/>
            <path id="prefix__Fill_491" d="M.889.028A.888.888 0 0 1 1.776.9V.886A.889.889 0 0 0 0 .889V.9A.889.889 0 0 1 .889.028" class="prefix__cls-3" data-name="Fill 491" transform="translate(2.499 27.002)"/>
            <path id="prefix__Fill_493" d="M.886 1.751a.888.888 0 0 0 .887-.876.887.887 0 0 0-1.773 0 .889.889 0 0 0 .886.876" class="prefix__cls-3" data-name="Fill 493" transform="translate(2.502 27.03)"/>
            <path id="prefix__Fill_495" d="M.89.028A.889.889 0 0 1 1.776.9V.886A.889.889 0 0 0 0 .889V.9A.888.888 0 0 1 .89.028" class="prefix__cls-3" data-name="Fill 495" transform="translate(6.056 27.002)"/>
            <path id="prefix__Fill_497" d="M.887 1.751a.889.889 0 0 0 .886-.876.887.887 0 0 0-1.773 0 .888.888 0 0 0 .887.876" class="prefix__cls-3" data-name="Fill 497" transform="translate(6.059 27.03)"/>
            <path id="prefix__Fill_499" d="M0 .9a.886.886 0 0 1 1.775 0V.886A.889.889 0 0 0 0 .889V.9" class="prefix__cls-3" data-name="Fill 499" transform="translate(9.613 27.002)"/>
            <path id="prefix__Fill_501" d="M.886 0A.889.889 0 0 0 0 .875a.887.887 0 0 0 1.773 0A.888.888 0 0 0 .886 0" class="prefix__cls-3" data-name="Fill 501" transform="translate(9.615 27.03)"/>
            <path id="prefix__Fill_503" d="M0 .9a.886.886 0 0 1 1.775 0V.886A.889.889 0 1 0 0 .889V.9" class="prefix__cls-3" data-name="Fill 503" transform="translate(13.17 27.002)"/>
            <path id="prefix__Fill_505" d="M.887 0A.888.888 0 0 0 0 .875a.887.887 0 0 0 1.773 0A.889.889 0 0 0 .887 0" class="prefix__cls-3" data-name="Fill 505" transform="translate(13.172 27.03)"/>
            <path id="prefix__Fill_507" d="M.889.028A.888.888 0 0 1 1.776.9V.886A.889.889 0 0 0 0 .889V.9A.889.889 0 0 1 .889.028" class="prefix__cls-3" data-name="Fill 507" transform="translate(16.726 27.002)"/>
            <path id="prefix__Fill_509" d="M.886 1.751a.888.888 0 0 0 .887-.876.887.887 0 0 0-1.773 0 .889.889 0 0 0 .886.876" class="prefix__cls-3" data-name="Fill 509" transform="translate(16.729 27.03)"/>
            <path id="prefix__Fill_511" d="M.89.028A.889.889 0 0 1 1.776.9V.886A.889.889 0 0 0 0 .889V.9A.888.888 0 0 1 .89.028" class="prefix__cls-3" data-name="Fill 511" transform="translate(20.283 27.002)"/>
            <path id="prefix__Fill_513" d="M.887 1.751a.889.889 0 0 0 .886-.876.887.887 0 0 0-1.773 0 .888.888 0 0 0 .887.876" class="prefix__cls-3" data-name="Fill 513" transform="translate(20.286 27.03)"/>
            <path id="prefix__Fill_515" d="M.889 0A.89.89 0 0 0 0 .89V.9a.887.887 0 0 1 1.776 0V.887A.89.89 0 0 0 .889 0" class="prefix__cls-3" data-name="Fill 515" transform="translate(23.84 27.002)"/>
            <path id="prefix__Fill_517" d="M.886 0A.888.888 0 0 0 0 .875a.887.887 0 0 0 1.773 0A.888.888 0 0 0 .886 0" class="prefix__cls-3" data-name="Fill 517" transform="translate(23.842 27.03)"/>
            <path id="prefix__Fill_519" d="M0 0a.889.889 0 0 1 .886.89L.889.9V.887A.89.89 0 0 0 0 0" class="prefix__cls-3" data-name="Fill 519" transform="translate(28.283 27.002)"/>
            <path id="prefix__Fill_521" d="M.347.35V.337.35" class="prefix__cls-3" data-name="Fill 521" transform="translate(28.819 27.555)"/>
            <path id="prefix__Fill_523" d="M0 .875A.887.887 0 0 0 .886.013L.883 0A.887.887 0 0 1 0 .875" class="prefix__cls-3" data-name="Fill 523" transform="translate(28.283 27.905)"/>
            <path id="prefix__Fill_525" d="M0 .889A.886.886 0 0 1 .885.028a.886.886 0 0 1 .888.862A.887.887 0 1 0 0 .889" class="prefix__cls-3" data-name="Fill 525" transform="translate(27.396 27.002)"/>
            <path id="prefix__Fill_527" d="M.887 0A.888.888 0 0 0 0 .862v.013A.888.888 0 0 1 .887 0" class="prefix__cls-3" data-name="Fill 527" transform="translate(27.396 27.03)"/>
            <path id="prefix__Fill_529" d="M0 0a.887.887 0 0 1 .883.875V.862A.887.887 0 0 0 0 0" class="prefix__cls-3" data-name="Fill 529" transform="translate(28.283 27.03)"/>
            <path id="prefix__Fill_531" d="M.884 0A.888.888 0 0 0 0 .874a.884.884 0 0 0 1.768 0A.887.887 0 0 0 .884 0" class="prefix__cls-3" data-name="Fill 531" transform="translate(27.399 27.031)"/>
            <path id="prefix__Fill_533" d="M.89 0a.889.889 0 1 0 .89.89A.89.89 0 0 0 .89 0" class="prefix__cls-3" data-name="Fill 533" transform="translate(.72 29.669)"/>
            <path id="prefix__Fill_535" d="M.889 1.779A.889.889 0 1 0 0 .889a.89.89 0 0 0 .889.89" class="prefix__cls-3" data-name="Fill 535" transform="translate(4.278 29.669)"/>
            <path id="prefix__Fill_537" d="M.89 1.779A.889.889 0 1 0 0 .889a.89.89 0 0 0 .89.89" class="prefix__cls-3" data-name="Fill 537" transform="translate(7.834 29.669)"/>
            <path id="prefix__Fill_539" d="M.89 0a.889.889 0 1 0 .89.89A.89.89 0 0 0 .89 0" class="prefix__cls-3" data-name="Fill 539" transform="translate(11.391 29.669)"/>
            <path id="prefix__Fill_541" d="M.89 0a.889.889 0 1 0 .89.89A.89.89 0 0 0 .89 0" class="prefix__cls-3" data-name="Fill 541" transform="translate(14.947 29.669)"/>
            <path id="prefix__Fill_543" d="M.89 1.779A.889.889 0 1 0 0 .889a.89.89 0 0 0 .89.89" class="prefix__cls-3" data-name="Fill 543" transform="translate(18.504 29.669)"/>
            <path id="prefix__Fill_545" d="M.89 1.779A.889.889 0 1 0 0 .889a.89.89 0 0 0 .89.89" class="prefix__cls-3" data-name="Fill 545" transform="translate(22.061 29.669)"/>
            <path id="prefix__Fill_547" d="M.89 1.779A.889.889 0 1 0 0 .889a.89.89 0 0 0 .89.89" class="prefix__cls-3" data-name="Fill 547" transform="translate(25.618 29.669)"/>
            <path id="prefix__Fill_549" d="M.219 0C.273.335.331.668.4 1A.885.885 0 0 0 .481.63.888.888 0 0 0 .219 0" class="prefix__cls-3" data-name="Fill 549" transform="translate(.24 32.596)"/>
            <path id="prefix__Fill_551" d="M.889 1.778A.889.889 0 1 0 0 .888a.889.889 0 0 0 .889.89" class="prefix__cls-3" data-name="Fill 551" transform="translate(2.499 32.337)"/>
            <path id="prefix__Fill_553" d="M.89 0a.889.889 0 1 0 .889.889A.889.889 0 0 0 .89 0" class="prefix__cls-3" data-name="Fill 553" transform="translate(6.056 32.337)"/>
            <path id="prefix__Fill_555" d="M.889 1.778A.889.889 0 1 0 0 .888a.889.889 0 0 0 .889.89" class="prefix__cls-3" data-name="Fill 555" transform="translate(9.613 32.337)"/>
            <path id="prefix__Fill_557" d="M.89 0a.889.889 0 1 0 .889.889A.889.889 0 0 0 .89 0" class="prefix__cls-3" data-name="Fill 557" transform="translate(13.169 32.337)"/>
            <path id="prefix__Fill_559" d="M.889 0a.889.889 0 1 0 .89.889A.889.889 0 0 0 .889 0" class="prefix__cls-3" data-name="Fill 559" transform="translate(16.726 32.337)"/>
            <path id="prefix__Fill_561" d="M.89 1.778A.889.889 0 1 0 0 .888a.889.889 0 0 0 .89.89" class="prefix__cls-3" data-name="Fill 561" transform="translate(20.283 32.337)"/>
            <path id="prefix__Fill_563" d="M.889 1.778A.889.889 0 1 0 0 .888a.889.889 0 0 0 .889.89" class="prefix__cls-3" data-name="Fill 563" transform="translate(23.84 32.337)"/>
            <path id="prefix__Fill_565" d="M0 0a.889.889 0 0 1 .886.889.889.889 0 0 1-.886.888A.889.889 0 1 0 0 0" class="prefix__cls-3" data-name="Fill 565" transform="translate(28.283 32.337)"/>
            <path id="prefix__Fill_567" d="M1.773.889a.887.887 0 1 0-.886.889.889.889 0 0 0 .886-.889" class="prefix__cls-3" data-name="Fill 567" transform="translate(27.396 32.337)"/>
            <path id="prefix__Fill_569" d="M1.477.889A.889.889 0 0 0 .587 0 .874.874 0 0 0 0 .233c.136.513.289 1.018.452 1.518a.812.812 0 0 0 .135.028.889.889 0 0 0 .89-.89" class="prefix__cls-3" data-name="Fill 569" transform="translate(1.023 35.004)"/>
            <path id="prefix__Fill_571" d="M.889 1.778A.889.889 0 1 0 0 .888a.89.89 0 0 0 .889.89" class="prefix__cls-3" data-name="Fill 571" transform="translate(4.278 35.005)"/>
            <path id="prefix__Fill_573" d="M.89 0a.889.889 0 1 0 .89.889A.89.89 0 0 0 .89 0" class="prefix__cls-3" data-name="Fill 573" transform="translate(7.834 35.005)"/>
            <path id="prefix__Fill_575" d="M.89 1.778A.889.889 0 1 0 0 .888a.89.89 0 0 0 .89.89" class="prefix__cls-3" data-name="Fill 575" transform="translate(11.391 35.005)"/>
            <path id="prefix__Fill_577" d="M.89 1.778A.889.889 0 1 0 0 .888a.889.889 0 0 0 .89.89" class="prefix__cls-3" data-name="Fill 577" transform="translate(14.947 35.005)"/>
            <path id="prefix__Fill_579" d="M.89 1.778A.889.889 0 1 0 0 .888a.89.89 0 0 0 .89.89" class="prefix__cls-3" data-name="Fill 579" transform="translate(18.504 35.005)"/>
            <path id="prefix__Fill_581" d="M.89 0a.889.889 0 1 0 .89.889A.889.889 0 0 0 .89 0" class="prefix__cls-3" data-name="Fill 581" transform="translate(22.061 35.005)"/>
            <path id="prefix__Fill_583" d="M.89 1.778A.889.889 0 1 0 0 .888a.889.889 0 0 0 .89.89" class="prefix__cls-3" data-name="Fill 583" transform="translate(25.618 35.005)"/>
            <path id="prefix__Fill_585" d="M.889 0a.889.889 0 1 0 .89.89.889.889 0 0 0-.89-.89" class="prefix__cls-3" data-name="Fill 585" transform="translate(2.499 37.672)"/>
            <path id="prefix__Fill_587" d="M.89 1.779A.889.889 0 1 0 0 .889a.89.89 0 0 0 .89.89" class="prefix__cls-3" data-name="Fill 587" transform="translate(6.056 37.672)"/>
            <path id="prefix__Fill_589" d="M.889 1.779A.889.889 0 1 0 0 .889a.89.89 0 0 0 .889.89" class="prefix__cls-3" data-name="Fill 589" transform="translate(9.613 37.672)"/>
            <path id="prefix__Fill_591" d="M.89 1.779A.889.889 0 1 0 0 .889a.89.89 0 0 0 .89.89" class="prefix__cls-3" data-name="Fill 591" transform="translate(13.169 37.672)"/>
            <path id="prefix__Fill_593" d="M.889 1.779A.889.889 0 1 0 0 .889a.89.89 0 0 0 .889.89" class="prefix__cls-3" data-name="Fill 593" transform="translate(16.726 37.672)"/>
            <path id="prefix__Fill_595" d="M.89 1.779A.889.889 0 1 0 0 .889a.89.89 0 0 0 .89.89" class="prefix__cls-3" data-name="Fill 595" transform="translate(20.283 37.672)"/>
            <path id="prefix__Fill_597" d="M.889 1.779A.889.889 0 1 0 0 .889a.89.89 0 0 0 .889.89" class="prefix__cls-3" data-name="Fill 597" transform="translate(23.84 37.672)"/>
            <path id="prefix__Fill_599" d="M.886.89A.889.889 0 0 1 0 1.779.89.89 0 0 0 .892.89.89.89 0 0 0 0 0a.889.889 0 0 1 .886.89" class="prefix__cls-3" data-name="Fill 599" transform="translate(28.283 37.672)"/>
            <path id="prefix__Fill_601" d="M0 .889A.887.887 0 1 0 .888 0 .89.89 0 0 0 0 .889" class="prefix__cls-3" data-name="Fill 601" transform="translate(27.396 37.673)"/>
            <path id="prefix__Fill_603" d="M.889 0a.889.889 0 1 0 .89.89.89.89 0 0 0-.89-.89" class="prefix__cls-3" data-name="Fill 603" transform="translate(4.278 40.34)"/>
            <path id="prefix__Fill_605" d="M.89 1.779A.889.889 0 1 0 0 .889a.89.89 0 0 0 .89.89" class="prefix__cls-3" data-name="Fill 605" transform="translate(7.834 40.34)"/>
            <path id="prefix__Fill_607" d="M.89 1.779A.889.889 0 1 0 0 .889a.89.89 0 0 0 .89.89" class="prefix__cls-3" data-name="Fill 607" transform="translate(11.391 40.34)"/>
            <path id="prefix__Fill_609" d="M.89 0a.889.889 0 1 0 .89.89A.89.89 0 0 0 .89 0" class="prefix__cls-3" data-name="Fill 609" transform="translate(14.947 40.34)"/>
            <path id="prefix__Fill_611" d="M.89 0a.889.889 0 1 0 .89.89A.89.89 0 0 0 .89 0" class="prefix__cls-3" data-name="Fill 611" transform="translate(18.504 40.34)"/>
            <path id="prefix__Fill_613" d="M.89 1.779A.889.889 0 1 0 0 .889a.89.89 0 0 0 .89.89" class="prefix__cls-3" data-name="Fill 613" transform="translate(22.061 40.34)"/>
            <path id="prefix__Fill_615" d="M.89 1.779A.889.889 0 1 0 0 .889a.89.89 0 0 0 .89.89" class="prefix__cls-3" data-name="Fill 615" transform="translate(25.618 40.34)"/>
            <path id="prefix__Fill_617" d="M.89 0a.889.889 0 1 0 .889.89A.89.89 0 0 0 .89 0" class="prefix__cls-3" data-name="Fill 617" transform="translate(6.056 43.007)"/>
            <path id="prefix__Fill_619" d="M.889 0a.889.889 0 1 0 .89.89.89.89 0 0 0-.89-.89" class="prefix__cls-3" data-name="Fill 619" transform="translate(9.613 43.007)"/>
            <path id="prefix__Fill_621" d="M.89 1.779A.889.889 0 1 0 0 .889a.889.889 0 0 0 .89.89" class="prefix__cls-3" data-name="Fill 621" transform="translate(13.169 43.007)"/>
            <path id="prefix__Fill_623" d="M.889 1.779A.889.889 0 1 0 0 .889a.889.889 0 0 0 .889.89" class="prefix__cls-3" data-name="Fill 623" transform="translate(16.726 43.007)"/>
            <path id="prefix__Fill_625" d="M.89 1.779A.889.889 0 1 0 0 .889a.889.889 0 0 0 .89.89" class="prefix__cls-3" data-name="Fill 625" transform="translate(20.283 43.007)"/>
            <path id="prefix__Fill_627" d="M.889 0a.889.889 0 1 0 .89.89.89.89 0 0 0-.89-.89" class="prefix__cls-3" data-name="Fill 627" transform="translate(23.84 43.007)"/>
            <path id="prefix__Fill_629" d="M.886.89A.889.889 0 0 1 0 1.779.89.89 0 0 0 .892.89.89.89 0 0 0 0 0a.889.889 0 0 1 .886.89" class="prefix__cls-3" data-name="Fill 629" transform="translate(28.283 43.007)"/>
            <path id="prefix__Fill_631" d="M0 .889A.887.887 0 1 0 .888 0 .89.89 0 0 0 0 .889" class="prefix__cls-3" data-name="Fill 631" transform="translate(27.396 43.007)"/>
            <path id="prefix__Fill_633" d="M.89 0a.889.889 0 1 0 .89.89A.89.89 0 0 0 .89 0" class="prefix__cls-3" data-name="Fill 633" transform="translate(7.834 45.675)"/>
            <path id="prefix__Fill_635" d="M.89 0a.889.889 0 1 0 .89.89A.89.89 0 0 0 .89 0" class="prefix__cls-3" data-name="Fill 635" transform="translate(11.391 45.675)"/>
            <path id="prefix__Fill_637" d="M.89 1.778A.889.889 0 1 0 0 .889a.889.889 0 0 0 .89.889" class="prefix__cls-3" data-name="Fill 637" transform="translate(14.947 45.675)"/>
            <path id="prefix__Fill_639" d="M.89 1.778A.889.889 0 1 0 0 .889a.89.89 0 0 0 .89.889" class="prefix__cls-3" data-name="Fill 639" transform="translate(18.504 45.675)"/>
            <path id="prefix__Fill_641" d="M.89 1.778A.889.889 0 1 0 0 .889a.89.89 0 0 0 .89.889" class="prefix__cls-3" data-name="Fill 641" transform="translate(22.061 45.675)"/>
            <path id="prefix__Fill_643" d="M.89 1.778A.889.889 0 1 0 0 .889a.889.889 0 0 0 .89.889" class="prefix__cls-3" data-name="Fill 643" transform="translate(25.618 45.675)"/>
            <path id="prefix__Fill_645" d="M1.75.89A.889.889 0 0 0 .86 0 .878.878 0 0 0 0 .749q.57.5 1.168.968A.884.884 0 0 0 1.75.89" class="prefix__cls-3" data-name="Fill 645" transform="translate(9.641 48.342)"/>
            <path id="prefix__Fill_647" d="M.89 0a.889.889 0 1 0 .889.89A.889.889 0 0 0 .89 0" class="prefix__cls-3" data-name="Fill 647" transform="translate(13.169 48.342)"/>
            <path id="prefix__Fill_649" d="M.889 0a.889.889 0 1 0 .89.89.889.889 0 0 0-.89-.89" class="prefix__cls-3" data-name="Fill 649" transform="translate(16.726 48.342)"/>
            <path id="prefix__Fill_651" d="M.89 0a.889.889 0 1 0 .889.89A.889.889 0 0 0 .89 0" class="prefix__cls-3" data-name="Fill 651" transform="translate(20.283 48.342)"/>
            <path id="prefix__Fill_653" d="M.889 1.778A.889.889 0 1 0 0 .889a.889.889 0 0 0 .889.889" class="prefix__cls-3" data-name="Fill 653" transform="translate(23.84 48.342)"/>
            <path id="prefix__Fill_655" d="M.886.89A.889.889 0 0 1 0 1.779.89.89 0 0 0 .892.89.89.89 0 0 0 0 0a.888.888 0 0 1 .886.89" class="prefix__cls-3" data-name="Fill 655" transform="translate(28.283 48.342)"/>
            <path id="prefix__Fill_657" d="M0 .889A.887.887 0 1 0 .888 0 .89.89 0 0 0 0 .889" class="prefix__cls-3" data-name="Fill 657" transform="translate(27.396 48.343)"/>
            <path id="prefix__Fill_659" d="M.147.006A.868.868 0 0 0 0 .035q.49.34 1 .659A.876.876 0 0 0 .147.006" class="prefix__cls-3" data-name="Fill 659" transform="translate(12.133 51.004)"/>
            <path id="prefix__Fill_661" d="M.89 0a.889.889 0 1 0 .89.89A.89.89 0 0 0 .89 0" class="prefix__cls-3" data-name="Fill 661" transform="translate(14.947 51.01)"/>
            <path id="prefix__Fill_663" d="M.89 0a.889.889 0 1 0 .89.89A.89.89 0 0 0 .89 0" class="prefix__cls-3" data-name="Fill 663" transform="translate(18.504 51.01)"/>
            <path id="prefix__Fill_665" d="M.89 0a.889.889 0 1 0 .89.89A.89.89 0 0 0 .89 0" class="prefix__cls-3" data-name="Fill 665" transform="translate(22.061 51.01)"/>
            <path id="prefix__Fill_667" d="M.89 0a.889.889 0 1 0 .889.89A.89.89 0 0 0 .89 0" class="prefix__cls-3" data-name="Fill 667" transform="translate(25.618 51.01)"/>
            <path id="prefix__Fill_669" d="M.452.024A.869.869 0 0 0 0 .165q.639.271 1.294.511A.877.877 0 0 0 .452.024" class="prefix__cls-3" data-name="Fill 669" transform="translate(17.163 53.653)"/>
            <path id="prefix__Fill_671" d="M1.778.89A.889.889 0 1 0 0 .89a.879.879 0 0 0 .091.377q.644.184 1.3.337A.874.874 0 0 0 1.778.89" class="prefix__cls-3" data-name="Fill 671" transform="translate(20.283 53.677)"/>
            <path id="prefix__Fill_673" d="M.889 0a.889.889 0 1 0 .89.89.89.89 0 0 0-.89-.89" class="prefix__cls-3" data-name="Fill 673" transform="translate(23.84 53.677)"/>
            <path id="prefix__Fill_675" d="M0 0a.889.889 0 0 1 .886.89.889.889 0 0 1-.886.888A.89.89 0 0 0 .892.89.89.89 0 0 0 0 0" class="prefix__cls-3" data-name="Fill 675" transform="translate(28.283 53.677)"/>
            <path id="prefix__Fill_677" d="M1.773.889a.887.887 0 1 0-.886.889.889.889 0 0 0 .886-.889" class="prefix__cls-3" data-name="Fill 677" transform="translate(27.396 53.677)"/>
        </g>
        <path id="prefix__Fill_680" d="M6.67 1.454c2.268-3.059 7.679-.345 17.536-.31 9.409.034 15.167-2.4 16.76.31.427.727.276 1.347 0 3.57-.447 3.6-.4 7.252-.776 10.863-.323 3.071-.228 7.725-.039 17.031.179 8.748.449 10.482-1.051 12.104-2.39 2.6-6.7 2.12-12.454 1.4C15.938 45.073 6.934 43.829 0 42.832c1.551-7.964 3.183-14.147 4.42-18.411a34.3 34.3 0 0 0 1.475-5.587c.641-4.914-.7-7.428 0-13.811.216-1.975.334-2.974.776-3.57" class="prefix__cls-4" data-name="Fill 680" transform="translate(23.042 .943)"/>
        <g id="prefix__Group_684" data-name="Group 684" transform="translate(22.4 .039)">
            <path id="prefix__Clip_683-2" d="M0 0h41.767v47.476H0z" class="prefix__cls-1" data-name="Clip 683" transform="translate(.352 .661)"/>
            <g id="prefix__Group_684-2" data-name="Group 684">
                <path id="prefix__Fill_682" d="M33.419 47.476a54.838 54.838 0 0 1-6.51-.571C17.954 45.779 8.986 44.572.255 43.318L0 43.28l.049-.252C1.3 36.608 2.788 30.406 4.475 24.6c.213-.735.4-1.342.57-1.878l.017-.056a19.022 19.022 0 0 0 .879-3.616 26.377 26.377 0 0 0 0-6.06v-.008a36.789 36.789 0 0 1 0-7.739c.214-1.952.332-3.028.823-3.688C7.569.464 8.746 0 10.7 0a38.124 38.124 0 0 1 4.51.415 72.26 72.26 0 0 0 9.285.726h.2A76.246 76.246 0 0 0 33.582.53h.03a41.537 41.537 0 0 1 4.331-.359c1.894 0 2.948.419 3.525 1.4.417.711.338 1.328.127 2.977v.009L41.5 5.3c-.237 1.9-.335 3.858-.429 5.747v.066c-.082 1.656-.166 3.368-.343 5.046-.322 3.056-.227 7.708-.038 16.977.022 1.111.046 2.1.068 2.976v.088c.15 6.259.186 7.747-1.182 9.236-1.283 1.39-3.239 2.04-6.157 2.04zM10.674.484c-1.759 0-2.811.406-3.517 1.358-.394.531-.508 1.441-.729 3.45a35.768 35.768 0 0 0 0 7.654v.009a26.821 26.821 0 0 1 0 6.154 19.381 19.381 0 0 1-.9 3.7l-.044.141c-.159.511-.339 1.089-.541 1.783C3.286 30.452 1.817 36.554.58 42.869c8.619 1.237 17.5 2.432 26.392 3.549a55.6 55.6 0 0 0 6.51.579c2.758 0 4.526-.585 5.732-1.9 1.235-1.345 1.2-2.794 1.052-8.894v-.157c-.02-.856-.043-1.824-.065-2.885-.19-9.3-.285-13.974.04-17.062.174-1.648.258-3.338.34-4.972v-.055c.094-1.909.191-3.883.434-5.841l.094-.74c.208-1.619.271-2.108-.061-2.676-.471-.8-1.428-1.159-3.1-1.159a41.505 41.505 0 0 0-4.271.352 76.541 76.541 0 0 1-8.98.618h-.2A72.531 72.531 0 0 1 15.149.9a38.692 38.692 0 0 0-4.475-.415z" class="prefix__cls-6" data-name="Fill 682" transform="translate(.352 .661)"/>
            </g>
        </g>
        <path id="prefix__Fill_685" d="M2.365.776C.352 1.986-.552 4.181.349 5.677s3.261 1.728 5.275.517 2.916-3.4 2.017-4.9S4.379-.434 2.365.776" class="prefix__cls-4" data-name="Fill 685" transform="translate(36.983 48.483)"/>
        <path id="prefix__Fill_687" d="M3.22 7.457a4.225 4.225 0 0 1-.429-.021A3.037 3.037 0 0 1 .385 6.045a3.041 3.041 0 0 1-.1-2.777A5.3 5.3 0 0 1 2.486.807 5.414 5.414 0 0 1 5.26 0 3.174 3.174 0 0 1 8.1 1.408c.968 1.609.026 3.959-2.1 5.238a5.425 5.425 0 0 1-2.78.811zM5.269.485a5.005 5.005 0 0 0-2.53.743 4.8 4.8 0 0 0-2 2.227A2.563 2.563 0 0 0 .8 5.792a2.567 2.567 0 0 0 2.04 1.157c.127.012.257.019.387.019a4.92 4.92 0 0 0 2.518-.741c1.894-1.14 2.762-3.188 1.934-4.566A2.692 2.692 0 0 0 5.269.485z" class="prefix__cls-6" data-name="Fill 687" transform="translate(36.736 48.241)"/>
        <path id="prefix__Fill_689" d="M6.675 8.179L0 14.02l6.708 4.808 13.335 2.347 14.15-2.988L29.781 0z" class="prefix__cls-4" data-name="Fill 689" transform="translate(3.344 39.187)"/>
        <path id="prefix__Fill_691" d="M.14 16.616a10.46 10.46 0 0 0 2.441-7.143c-.362-3.695-3.29-5.54-2.42-7.498C.946.209 4.056.077 5.178.029c1.411-.06 3.9-.167 4.89 1.314 1.3 1.959-1.476 4.532-1 8.534a10.055 10.055 0 0 0 3.032 5.759l-11.96.98" class="prefix__cls-4" data-name="Fill 691" transform="translate(22.081 25.332)"/>
        <path id="prefix__Fill_693" d="M0 17.149l.324-.434c1.807-2.406 2.613-4.752 2.394-6.972A10.1 10.1 0 0 0 1.143 5.55C.434 4.312-.179 3.243.319 2.119 1.167.215 4.349.079 5.547.028h.008C5.867.015 6.221 0 6.61 0c2.072 0 3.4.475 4.045 1.451.731 1.1.306 2.346-.186 3.791v.005a10.537 10.537 0 0 0-.774 4.846 9.657 9.657 0 0 0 2.96 5.614l.367.373L0 17.148zM6.61.49c-.371 0-.718.01-1.038.027C4.563.561 1.491.692.767 2.318c-.4.9.132 1.819.8 2.986a10.683 10.683 0 0 1 1.641 4.388 10.23 10.23 0 0 1-2.174 6.88l10.913-.895a9.9 9.9 0 0 1-2.741-5.527A11.088 11.088 0 0 1 10 5.084c.469-1.377.84-2.464.242-3.362C9.694.893 8.5.49 6.61.49z" class="prefix__cls-6" data-name="Fill 693" transform="translate(21.698 25.088)"/>
        <path id="prefix__Fill_695" d="M5.41 2.231l-.927-.062a.294.294 0 0 1-.28-.3l.055-.88A.927.927 0 0 0 3.6.045a.922.922 0 0 0-1.22.78l-.057.912A.3.3 0 0 1 2.006 2l-.985-.066A.936.936 0 0 0 0 2.778a.935.935 0 0 0 .906.96l.986.057a.3.3 0 0 1 .288.305l-.055.887a.905.905 0 0 0 .662.929A.942.942 0 0 0 4 5.11l.056-.9a.3.3 0 0 1 .316-.267l.927.055a.906.906 0 0 0 .97-.825.907.907 0 0 0-.86-.939" class="prefix__cls-3" data-name="Fill 695" transform="translate(53.196 38.455)"/>
        <path id="prefix__Fill_697" d="M3.273 6.382a1.267 1.267 0 0 1-.33-.045 1.124 1.124 0 0 1-.819-1.148L2.18 4.3a.084.084 0 0 0-.086-.077l-.984-.057a1.212 1.212 0 0 1-.832-.4 1.074 1.074 0 0 1 .1-1.537 1.207 1.207 0 0 1 .786-.3h.088L2.234 2h.008a.1.1 0 0 0 .058-.018l.079-.955a1.077 1.077 0 0 1 .47-.82A1.155 1.155 0 0 1 3.519 0a1.254 1.254 0 0 1 .362.054 1.15 1.15 0 0 1 .8 1.159l-.054.879a.066.066 0 0 0 .017.048.09.09 0 0 0 .062.03l.928.061A1.12 1.12 0 0 1 6.7 3.4a1.1 1.1 0 0 1-1.1 1.028h-.092l-.927-.054h-.013a.081.081 0 0 0-.085.067l-.056.9a1.09 1.09 0 0 1-.467.824 1.17 1.17 0 0 1-.687.217zM1.167 2.364a.775.775 0 0 0-.509.189.643.643 0 0 0-.058.93.784.784 0 0 0 .536.256l.984.061a.521.521 0 0 1 .363.174.492.492 0 0 1 .126.358l-.056.887a.693.693 0 0 0 .5.708.823.823 0 0 0 .215.029.751.751 0 0 0 .441-.14A.672.672 0 0 0 4 5.312l.056-.9a.505.505 0 0 1 .506-.468H4.6L5.526 4h.046a.668.668 0 0 0 .7-.626.689.689 0 0 0-.66-.711l-.93-.063a.508.508 0 0 1-.482-.534l.055-.879a.717.717 0 0 0-.5-.722.8.8 0 0 0-.233-.036.75.75 0 0 0-.422.13.653.653 0 0 0-.285.494l-.057.912a.49.49 0 0 1-.167.338.511.511 0 0 1-.347.131h-.038l-.986-.068z" class="prefix__cls-6" data-name="Fill 697" transform="translate(52.982 38.241)"/>
        <path id="prefix__Fill_699" d="M3.563 2.122c-.638.55-.593 1.345-.943 2.194C1.583 6.83-1.3 13.81.675 16.856a3.523 3.523 0 0 0 .222.28c1.086 1.27 3.045 2.249 11.39 1.476 7.16-.664 9.246-1.712 10.45-3.441.027-.039.091-.132.155-.235C25.039 11.46 21.237 4.7 18.02 0c-3.892 2.246-6.82 2.437-8.785 2.184C7.1 1.91 4.91.963 3.563 2.122" class="prefix__cls-3" data-name="Fill 699" transform="translate(17.677 44)"/>
        <path id="prefix__Fill_701" d="M7.438 19.46c-4.314 0-5.665-.884-6.482-1.839a3.9 3.9 0 0 1-.242-.307c-2.043-3.153.84-10.137 1.925-12.766a6.178 6.178 0 0 0 .247-.793v-.011a2.622 2.622 0 0 1 .759-1.482 2.754 2.754 0 0 1 1.9-.624 12.116 12.116 0 0 1 2.355.338l.036.007c.516.106 1.05.216 1.572.284a10.25 10.25 0 0 0 1.3.082A14.83 14.83 0 0 0 18.143.113l.2-.113.13.187c3.421 5 7.044 11.7 4.877 15.2-.059.095-.118.182-.15.228v.007c-1.24 1.781-3.3 2.875-10.636 3.556-2.03.191-3.704.282-5.126.282zM5.56 2.131a2.334 2.334 0 0 0-1.592.5 2.171 2.171 0 0 0-.6 1.236 6.437 6.437 0 0 1-.272.866v.006c-.963 2.32-3.873 9.374-1.971 12.31.02.03.092.125.2.254.688.8 1.787 1.662 6.154 1.662 1.4 0 3.091-.091 5.026-.271 7.142-.662 9.12-1.684 10.272-3.336.023-.034.085-.123.149-.225 2.011-3.252-1.466-9.67-4.736-14.482a15.132 15.132 0 0 1-7.371 2.189 10.657 10.657 0 0 1-1.371-.088c-.533-.068-1.069-.178-1.587-.285L7.8 2.455h-.012a11.541 11.541 0 0 0-2.228-.324z" class="prefix__cls-6" data-name="Fill 701" transform="translate(17.432 43.674)"/>
        <path id="prefix__Fill_703" d="M3.076 1.083C.639 2.548-.607 4.949.292 6.445S3.9 7.967 6.334 6.5s3.683-3.865 2.784-5.362-3.605-1.521-6.042-.055" class="prefix__cls-4" data-name="Fill 703" transform="translate(33.831 43.738)"/>
        <path id="prefix__Fill_705" d="M3.029 8.066h-.048A2.954 2.954 0 0 1 .329 6.809a2.955 2.955 0 0 1 .133-2.933A7.3 7.3 0 0 1 3.2 1.11 7.3 7.3 0 0 1 6.864 0a2.985 2.985 0 0 1 2.71 1.249 2.959 2.959 0 0 1-.134 2.932 7.285 7.285 0 0 1-2.733 2.767 7.343 7.343 0 0 1-3.678 1.118zM6.881.477A6.858 6.858 0 0 0 3.449 1.53 6.8 6.8 0 0 0 .9 4.1a2.491 2.491 0 0 0-.151 2.456 2.494 2.494 0 0 0 2.237 1.02H3.1a6.648 6.648 0 0 0 3.354-1.047 6.807 6.807 0 0 0 2.551-2.573A2.489 2.489 0 0 0 9.154 1.5 2.5 2.5 0 0 0 6.881.477z" class="prefix__cls-6" data-name="Fill 705" transform="translate(33.584 43.501)"/>
        <path id="prefix__Fill_707" d="M17.338 15.066c3.283-1.974 4.469-4.012 4.943-5.519.454-1.446.387-2.834 1.371-3.3.878-.419 1.563.407 3.788.525 1.217.064 2.39.127 2.952-.562.669-.818.228-2.391-.342-3.333C28.476.273 24.135-.458 20.831.261 17.41 1 15.205 3.28 13.009 5.548c-2.8 2.892-2.769 4.134-5.049 6.178A16.941 16.941 0 0 1 0 15.575" class="prefix__cls-4" data-name="Fill 707" transform="translate(.245 35.663)"/>
        <g id="prefix__Group_711" data-name="Group 711" transform="translate(0 35.039)">
            <path id="prefix__Clip_710-2" d="M0 0h31.218v16.066H0z" class="prefix__cls-1" data-name="Clip 710" transform="translate(0 .377)"/>
            <g id="prefix__Group_711-2" data-name="Group 711">
                <path id="prefix__Fill_709" d="M.245 16.066a.245.245 0 0 1-.05-.484 16.575 16.575 0 0 0 7.847-3.792 13.015 13.015 0 0 0 2.318-2.768 22.219 22.219 0 0 1 2.719-3.4c2.188-2.26 4.45-4.6 7.946-5.356 3.355-.727 7.817-.02 9.475 2.727.559.925 1.107 2.652.322 3.615-.642.785-1.863.72-3.156.652a9.172 9.172 0 0 1-2.366-.448c-.576-.174-.923-.281-1.3-.1-.589.281-.741 1-.934 1.91-.085.4-.174.816-.309 1.247-.674 2.143-2.374 4.045-5.05 5.655a.245.245 0 0 1-.253-.42c2.572-1.546 4.2-3.357 4.836-5.382.129-.408.214-.812.3-1.2.212-1 .395-1.865 1.2-2.25a2.127 2.127 0 0 1 1.654.073 8.615 8.615 0 0 0 2.256.425c1.167.063 2.266.121 2.75-.472.587-.72.143-2.218-.362-3.05C28.6.786 24.36.046 21.128.747c-3.35.729-5.56 3.011-7.7 5.218A21.808 21.808 0 0 0 10.765 9.3a13.425 13.425 0 0 1-2.4 2.858 17.049 17.049 0 0 1-8.07 3.903.244.244 0 0 1-.05 0" class="prefix__cls-6" data-name="Fill 709" transform="translate(0 .377)"/>
            </g>
        </g>
        <path id="prefix__Fill_712" d="M2.366.776C.352 1.986-.551 4.181.348 5.677s3.261 1.728 5.275.517 2.917-3.405 2.017-4.9S4.38-.434 2.366.776" class="prefix__cls-4" data-name="Fill 712" transform="translate(29.469 35.127)"/>
        <path id="prefix__Fill_714" d="M3.223 7.453A3.174 3.174 0 0 1 .385 6.044a3.039 3.039 0 0 1-.1-2.777A5.306 5.306 0 0 1 2.486.806 5.414 5.414 0 0 1 5.26 0 3.177 3.177 0 0 1 8.1 1.407c.968 1.61.026 3.96-2.1 5.239a5.493 5.493 0 0 1-2.777.807zM5.269.485a5.008 5.008 0 0 0-2.53.742 4.805 4.805 0 0 0-2 2.227A2.566 2.566 0 0 0 .8 5.792a2.7 2.7 0 0 0 2.41 1.176 5 5 0 0 0 2.529-.742 4.837 4.837 0 0 0 1.993-2.194 2.571 2.571 0 0 0-.055-2.371A2.692 2.692 0 0 0 5.269.485z" class="prefix__cls-6" data-name="Fill 714" transform="translate(29.222 34.886)"/>
        <path id="prefix__Fill_716" d="M3.1 1.094C.65 2.568-.609 4.976.291 6.473s3.617 1.514 6.069.039 3.71-3.882 2.81-5.378S5.553-.38 3.1 1.094" class="prefix__cls-4" data-name="Fill 716" transform="translate(31.037 39.752)"/>
        <path id="prefix__Fill_718" d="M3.015 8.1h-.034A2.956 2.956 0 0 1 .32 6.844C-.647 5.234.651 2.67 3.214 1.13A7.34 7.34 0 0 1 6.955 0 2.961 2.961 0 0 1 9.62 1.252c.967 1.611-.332 4.174-2.894 5.715A7.393 7.393 0 0 1 3.015 8.1zM6.925.49a6.9 6.9 0 0 0-3.457 1.059 6.959 6.959 0 0 0-2.549 2.53 2.511 2.511 0 0 0-.178 2.513 2.49 2.49 0 0 0 2.243 1.014h.031a6.911 6.911 0 0 0 3.458-1.058C8.805 5.144 10.028 2.882 9.2 1.5A2.493 2.493 0 0 0 6.956.49z" class="prefix__cls-6" data-name="Fill 718" transform="translate(30.798 39.507)"/>
        <path id="prefix__Fill_720" d="M.245 4.8a.243.243 0 0 1-.165-.061.246.246 0 0 1-.017-.346A12.72 12.72 0 0 1 6.732.333 13.063 13.063 0 0 1 8.45.076a19.4 19.4 0 0 1 7.864.96.245.245 0 1 1-.152.466A18.943 18.943 0 0 0 8.5.564a12.438 12.438 0 0 0-1.662.248 12.23 12.23 0 0 0-6.411 3.91.245.245 0 0 1-.182.08" class="prefix__cls-6" data-name="Fill 720" transform="translate(1.799 58.937)"/>
        <path id="prefix__Fill_722" d="M2.369 1.1A1.186 1.186 0 1 1 1.1 0a1.186 1.186 0 0 1 1.269 1.1" class="prefix__cls-3" data-name="Fill 722" transform="translate(22.587 21.903)"/>
        <path id="prefix__Fill_724" d="M1.429 2.863A1.432 1.432 0 0 1 1.331 0h.1a1.432 1.432 0 0 1 .1 2.86l-.102.003zm0-2.373h-.067a.941.941 0 0 0-.548 1.651.906.906 0 0 0 .6.232h.082A.941.941 0 0 0 1.432.49z" class="prefix__cls-6" data-name="Fill 724" transform="translate(22.341 21.658)"/>
        <path id="prefix__Fill_726" d="M3.41 1.588A1.707 1.707 0 1 1 1.588 0 1.707 1.707 0 0 1 3.41 1.588" class="prefix__cls-3" data-name="Fill 726" transform="translate(24.241 28.013)"/>
        <path id="prefix__Fill_728" d="M1.949 3.9A1.951 1.951 0 0 1 .48.671 1.931 1.931 0 0 1 1.816 0h.121a1.952 1.952 0 0 1 .152 3.9h-.14zM1.956.489h-.105a1.462 1.462 0 0 0-.857 2.566 1.45 1.45 0 0 0 .947.359h.115a1.46 1.46 0 0 0 1.355-1.565A1.462 1.462 0 0 0 1.956.489z" class="prefix__cls-6" data-name="Fill 728" transform="translate(23.996 27.77)"/>
        <path id="prefix__Fill_730" d="M4.189 2.1A2.095 2.095 0 1 1 2.094 0a2.1 2.1 0 0 1 2.1 2.1" class="prefix__cls-3" data-name="Fill 730" transform="translate(24.541 14.19)"/>
        <path id="prefix__Fill_732" d="M2.339 4.679a2.34 2.34 0 1 1 2.34-2.339 2.342 2.342 0 0 1-2.34 2.339zm0-4.19A1.85 1.85 0 1 0 4.19 2.34 1.852 1.852 0 0 0 2.339.49z" class="prefix__cls-6" data-name="Fill 732" transform="translate(24.296 13.946)"/>
        <path id="prefix__Fill_734" d="M2.913 1.457A1.457 1.457 0 1 1 1.457 0a1.457 1.457 0 0 1 1.456 1.457" class="prefix__cls-3" data-name="Fill 734" transform="translate(21.609 3.054)"/>
        <path id="prefix__Fill_736" d="M1.7 3.4a1.7 1.7 0 1 1 1.7-1.7 1.7 1.7 0 0 1-1.7 1.7zm0-2.91A1.212 1.212 0 1 0 2.913 1.7 1.213 1.213 0 0 0 1.7.49z" class="prefix__cls-6" data-name="Fill 736" transform="translate(21.364 2.809)"/>
        <path id="prefix__Fill_738" d="M11.63 5.315a5.2 5.2 0 0 1-.248 4.243c-1.406 2.253-4.617 2.1-5.047 2.068-2.386-.152-6-1.766-6.312-5.3A5.825 5.825 0 0 1 5.318.02c3.636-.319 5.718 3.3 6.312 5.3" data-name="Fill 738" transform="translate(26.358 21.363)" style="fill:rgba(218,206,253,.5);mix-blend-mode:multiply;isolation:isolate"/>
        <path id="prefix__Fill_740" d="M0 .35h18.664" class="prefix__cls-4" data-name="Fill 740" transform="translate(40.3 8.389)"/>
        <path id="prefix__Fill_742" d="M18.909.595H.245a.245.245 0 1 1 0-.489h18.664a.245.245 0 1 1 0 .489" class="prefix__cls-6" data-name="Fill 742" transform="translate(40.055 8.389)"/>
        <path id="prefix__Fill_744" d="M0 0l16 .89" class="prefix__cls-4" data-name="Fill 744" transform="translate(41.542 15.775)"/>
        <path id="prefix__Fill_746" d="M16.25 1.379h-.014l-16-.89A.244.244 0 0 1 0 .231.25.25 0 0 1 .259 0l16.005.89a.245.245 0 0 1-.014.489" class="prefix__cls-6" data-name="Fill 746" transform="translate(41.296 15.53)"/>
        <path id="prefix__Fill_748" d="M0 0l16.895.89" class="prefix__cls-4" data-name="Fill 748" transform="translate(40.652 22.888)"/>
        <path id="prefix__Fill_750" d="M17.139 1.379h-.013L.232.489A.244.244 0 0 1 0 .232.246.246 0 0 1 .258 0l16.894.89a.245.245 0 0 1-.013.489" class="prefix__cls-6" data-name="Fill 750" transform="translate(40.407 22.643)"/>
        <path id="prefix__Fill_752" d="M1.372 2.7a.547.547 0 0 1-.058 0C.8 2.661.385 2.128.013 1.022A.245.245 0 0 1 .167.711a.249.249 0 0 1 .311.154c.4 1.185.743 1.337.874 1.347.148-.009.309-.14.622-.456.153-.153.332-.334.554-.531A8.421 8.421 0 0 1 4.285.028a.245.245 0 1 1 .223.436 7.919 7.919 0 0 0-1.656 1.128c-.213.19-.385.363-.531.511-.342.346-.594.6-.949.6" class="prefix__cls-6" data-name="Fill 752" transform="translate(32.997 7.117)"/>
        <path id="prefix__Fill_754" d="M1.372 2.7a.547.547 0 0 1-.058 0C.8 2.661.385 2.129.013 1.021a.245.245 0 0 1 .154-.31.249.249 0 0 1 .311.154c.4 1.186.743 1.337.873 1.347.151-.01.31-.139.622-.455.153-.153.332-.334.554-.531A8.417 8.417 0 0 1 4.285.027a.245.245 0 1 1 .223.436 7.878 7.878 0 0 0-1.656 1.13c-.213.19-.385.363-.532.511-.342.345-.594.6-.949.6" class="prefix__cls-6" data-name="Fill 754" transform="translate(32.997 14.023)"/>
        <path id="prefix__Fill_756" d="M1.372 2.7a.547.547 0 0 1-.058 0C.8 2.661.385 2.128.013 1.022A.246.246 0 0 1 .167.711a.249.249 0 0 1 .311.155c.4 1.186.743 1.336.873 1.347.151.006.31-.14.622-.455.153-.153.332-.334.554-.531a8.418 8.418 0 0 1 1.757-1.2.245.245 0 1 1 .224.436 7.915 7.915 0 0 0-1.656 1.129c-.213.19-.385.363-.532.511-.342.345-.594.6-.949.6" class="prefix__cls-6" data-name="Fill 756" transform="translate(32.997 20.89)"/>
    </g>
</svg>
