<svg xmlns="http://www.w3.org/2000/svg" width="56.554" height="63.93" viewBox="0 0 56.554 63.93">
    <defs>
        <clipPath id="prefix__clip-path">
            <path id="prefix__Clip_149" d="M.122 0h.463v.707H.122z" class="prefix__cls-1" data-name="Clip 149" transform="translate(.09 .057)"/>
        </clipPath>
        <clipPath id="prefix__clip-path-2">
            <path id="prefix__Clip_298" d="M.011 0H.7v.858H.011z" class="prefix__cls-1" data-name="Clip 298" transform="translate(.696 .134)"/>
        </clipPath>
        <clipPath id="prefix__clip-path-3">
            <path id="prefix__Clip_353" d="M.12 0h.467v.707H.12z" class="prefix__cls-1" data-name="Clip 353" transform="translate(.089 .216)"/>
        </clipPath>
        <clipPath id="prefix__clip-path-4">
            <path id="prefix__Clip_356" d="M.125 0h.457v1.043H.125z" class="prefix__cls-1" data-name="Clip 356" transform="translate(.093 .325)"/>
        </clipPath>
        <clipPath id="prefix__clip-path-5">
            <path id="prefix__Clip_493" d="M.01 0H.7v.856H.01z" class="prefix__cls-1" data-name="Clip 493" transform="translate(.698 .693)"/>
        </clipPath>
        <clipPath id="prefix__clip-path-6">
            <path id="prefix__Clip_496" d="M.016 0h.675v1.657H.016z" class="prefix__cls-1" data-name="Clip 496" transform="translate(.691 .014)"/>
        </clipPath>
        <style>
            .prefix__cls-1{fill:none}.prefix__cls-2{fill:#fff}.prefix__cls-4{fill:#c5eb8c}.prefix__cls-11{fill:#2d2d2d}.prefix__cls-12{fill:rgba(218,206,253,.5);mix-blend-mode:multiply;isolation:isolate}
        </style>
    </defs>
    <g id="prefix__ic_women_s_issues_big" data-name="ic_women's_issues_big" transform="translate(-.707 -.708)">
        <path id="prefix__Fill_1" d="M0 0l1.333 11.212 21.875.078 1.49-5.1-1.49-5.1z" class="prefix__cls-2" data-name="Fill 1" transform="translate(15.996 51.057)"/>
        <g id="prefix__Group_745" data-name="Group 745" transform="translate(0 .271)">
            <g id="prefix__Group_686" data-name="Group 686" transform="translate(0 5.659)" style="opacity:.4">
                <path id="prefix__Fill_2" d="M.9 1.8A.9.9 0 0 1 .9 0a.9.9 0 1 0 0 1.8" class="prefix__cls-4" data-name="Fill 2" transform="translate(28.3 .588)"/>
                <path id="prefix__Fill_4" d="M.9 1.8A.9.9 0 1 0 0 .9a.9.9 0 0 0 .9.9" class="prefix__cls-4" data-name="Fill 4" transform="translate(31.894 .588)"/>
                <path id="prefix__Fill_6" d="M.9 1.313a.894.894 0 0 0 .89-.862C1.239.282.679.135.115 0A.876.876 0 0 0 0 .414a.9.9 0 0 0 .9.9" class="prefix__cls-4" data-name="Fill 6" transform="translate(35.488 1.073)"/>
                <path id="prefix__Fill_8" d="M.9 1.8A.9.9 0 1 0 0 .9a.9.9 0 0 0 .9.9" class="prefix__cls-4" data-name="Fill 8" transform="translate(30.097 3.284)"/>
                <path id="prefix__Fill_10" d="M.9 1.8A.9.9 0 1 0 0 .9a.9.9 0 0 0 .9.9" class="prefix__cls-4" data-name="Fill 10" transform="translate(33.691 3.284)"/>
                <path id="prefix__Fill_12" d="M.9 1.8A.9.9 0 1 0 0 .9a.9.9 0 0 0 .9.9" class="prefix__cls-4" data-name="Fill 12" transform="translate(37.285 3.284)"/>
                <path id="prefix__Fill_14" d="M0 .881a.9.9 0 1 0 1.8 0 .869.869 0 0 0-.131-.435C1.386.291 1.1.146.809 0A.891.891 0 0 0 0 .881" class="prefix__cls-4" data-name="Fill 14" transform="translate(40.879 3.302)"/>
                <path id="prefix__Fill_16" d="M.006.9A.9.9 0 0 1 .9 0a.9.9 0 1 0 0 1.8.9.9 0 0 1-.9-.9" class="prefix__cls-4" data-name="Fill 16" transform="translate(28.3 5.979)"/>
                <path id="prefix__Fill_18" d="M.9 0a.9.9 0 1 0 .9.9.9.9 0 0 0-.9-.9" class="prefix__cls-4" data-name="Fill 18" transform="translate(31.894 5.98)"/>
                <path id="prefix__Fill_20" d="M.9 1.8A.9.9 0 1 0 0 .9a.9.9 0 0 0 .9.9" class="prefix__cls-4" data-name="Fill 20" transform="translate(35.488 5.98)"/>
                <path id="prefix__Fill_22" d="M.9 1.8A.9.9 0 1 0 0 .9a.9.9 0 0 0 .9.9" class="prefix__cls-4" data-name="Fill 22" transform="translate(39.082 5.98)"/>
                <path id="prefix__Fill_24" d="M.9 1.8A.9.9 0 1 0 0 .9a.9.9 0 0 0 .9.9" class="prefix__cls-4" data-name="Fill 24" transform="translate(42.676 5.98)"/>
                <path id="prefix__Fill_26" d="M.9 1.431a.888.888 0 0 0 .656-.294C1.115.743.659.366.195 0A.876.876 0 0 0 0 .532a.9.9 0 0 0 .9.9" class="prefix__cls-4" data-name="Fill 26" transform="translate(46.27 6.345)"/>
                <path id="prefix__Fill_28" d="M.9 0a.9.9 0 1 0 .9.9.9.9 0 0 0-.9-.9" class="prefix__cls-4" data-name="Fill 28" transform="translate(30.097 8.675)"/>
                <path id="prefix__Fill_30" d="M.9 0a.9.9 0 1 0 .9.9.9.9 0 0 0-.9-.9" class="prefix__cls-4" data-name="Fill 30" transform="translate(33.691 8.675)"/>
                <path id="prefix__Fill_32" d="M.9 0a.9.9 0 1 0 .9.9.9.9 0 0 0-.9-.9" class="prefix__cls-4" data-name="Fill 32" transform="translate(37.285 8.675)"/>
                <path id="prefix__Fill_34" d="M.9 1.8A.9.9 0 1 0 0 .9a.9.9 0 0 0 .9.9" class="prefix__cls-4" data-name="Fill 34" transform="translate(40.879 8.675)"/>
                <path id="prefix__Fill_36" d="M.9 1.8A.9.9 0 1 0 0 .9a.9.9 0 0 0 .9.9" class="prefix__cls-4" data-name="Fill 36" transform="translate(44.473 8.675)"/>
                <path id="prefix__Fill_38" d="M0 .9a.9.9 0 0 0 1.8 0 .93.93 0 0 0-.02-.1Q1.417.408 1.041.029A.867.867 0 0 0 .9 0a.9.9 0 0 0-.9.9" class="prefix__cls-4" data-name="Fill 38" transform="translate(48.067 8.675)"/>
                <path id="prefix__Fill_40" d="M.006.9A.9.9 0 0 1 .9 0a.9.9 0 1 0 0 1.8.9.9 0 0 1-.9-.9" class="prefix__cls-4" data-name="Fill 40" transform="translate(28.3 11.37)"/>
                <path id="prefix__Fill_42" d="M.9 1.8A.9.9 0 1 0 0 .9a.9.9 0 0 0 .9.9" class="prefix__cls-4" data-name="Fill 42" transform="translate(31.894 11.37)"/>
                <path id="prefix__Fill_44" d="M.9 0a.9.9 0 1 0 .9.9.9.9 0 0 0-.9-.9" class="prefix__cls-4" data-name="Fill 44" transform="translate(35.488 11.37)"/>
                <path id="prefix__Fill_46" d="M.9 0a.9.9 0 1 0 .9.9.9.9 0 0 0-.9-.9" class="prefix__cls-4" data-name="Fill 46" transform="translate(39.082 11.37)"/>
                <path id="prefix__Fill_48" d="M.9 0a.9.9 0 1 0 .9.9.9.9 0 0 0-.9-.9" class="prefix__cls-4" data-name="Fill 48" transform="translate(42.676 11.37)"/>
                <path id="prefix__Fill_50" d="M.9 1.8A.9.9 0 1 0 0 .9a.9.9 0 0 0 .9.9" class="prefix__cls-4" data-name="Fill 50" transform="translate(46.27 11.37)"/>
                <path id="prefix__Fill_52" d="M.9 1.8A.9.9 0 1 0 0 .9a.9.9 0 0 0 .9.9" class="prefix__cls-4" data-name="Fill 52" transform="translate(49.864 11.37)"/>
                <path id="prefix__Fill_54" d="M.9 0a.9.9 0 1 0 .9.9.9.9 0 0 0-.9-.9" class="prefix__cls-4" data-name="Fill 54" transform="translate(30.097 14.065)"/>
                <path id="prefix__Fill_56" d="M.9 0a.9.9 0 1 0 .9.9.9.9 0 0 0-.9-.9" class="prefix__cls-4" data-name="Fill 56" transform="translate(33.691 14.065)"/>
                <path id="prefix__Fill_58" d="M.9 1.8A.9.9 0 1 0 0 .9a.9.9 0 0 0 .9.9" class="prefix__cls-4" data-name="Fill 58" transform="translate(37.285 14.066)"/>
                <path id="prefix__Fill_60" d="M.9 0a.9.9 0 1 0 .9.9.9.9 0 0 0-.9-.9" class="prefix__cls-4" data-name="Fill 60" transform="translate(40.879 14.065)"/>
                <path id="prefix__Fill_62" d="M.9 0a.9.9 0 1 0 .9.9.9.9 0 0 0-.9-.9" class="prefix__cls-4" data-name="Fill 62" transform="translate(44.473 14.065)"/>
                <path id="prefix__Fill_64" d="M.9 1.8A.9.9 0 1 0 0 .9a.9.9 0 0 0 .9.9" class="prefix__cls-4" data-name="Fill 64" transform="translate(48.067 14.066)"/>
                <path id="prefix__Fill_66" d="M.9 1.8A.9.9 0 1 0 0 .9a.9.9 0 0 0 .9.9" class="prefix__cls-4" data-name="Fill 66" transform="translate(51.661 14.066)"/>
                <path id="prefix__Fill_68" d="M.006.9A.9.9 0 0 1 .9 0a.9.9 0 1 0 0 1.8.9.9 0 0 1-.9-.9" class="prefix__cls-4" data-name="Fill 68" transform="translate(28.3 16.761)"/>
                <path id="prefix__Fill_70" d="M.9 0a.9.9 0 1 0 .9.9.9.9 0 0 0-.9-.9" class="prefix__cls-4" data-name="Fill 70" transform="translate(31.894 16.762)"/>
                <path id="prefix__Fill_72" d="M.9 0a.9.9 0 1 0 .9.9.9.9 0 0 0-.9-.9" class="prefix__cls-4" data-name="Fill 72" transform="translate(35.488 16.762)"/>
                <path id="prefix__Fill_74" d="M.9 0a.9.9 0 1 0 .9.9.9.9 0 0 0-.9-.9" class="prefix__cls-4" data-name="Fill 74" transform="translate(39.082 16.762)"/>
                <path id="prefix__Fill_76" d="M.9 1.8A.9.9 0 1 0 0 .9a.9.9 0 0 0 .9.9" class="prefix__cls-4" data-name="Fill 76" transform="translate(42.676 16.762)"/>
                <path id="prefix__Fill_78" d="M.9 0a.9.9 0 1 0 .9.9.9.9 0 0 0-.9-.9" class="prefix__cls-4" data-name="Fill 78" transform="translate(46.27 16.762)"/>
                <path id="prefix__Fill_80" d="M.9 0a.9.9 0 1 0 .9.9.9.9 0 0 0-.9-.9" class="prefix__cls-4" data-name="Fill 80" transform="translate(49.864 16.762)"/>
                <path id="prefix__Fill_82" d="M0 .9a.893.893 0 0 0 1.738.294Q1.509.628 1.255.076A.9.9 0 0 0 0 .9" class="prefix__cls-4" data-name="Fill 82" transform="translate(53.458 16.761)"/>
                <path id="prefix__Fill_84" d="M.9 0a.9.9 0 1 0 .9.9.9.9 0 0 0-.9-.9" class="prefix__cls-4" data-name="Fill 84" transform="translate(30.097 19.457)"/>
                <path id="prefix__Fill_86" d="M.9 1.8A.9.9 0 1 0 0 .9a.9.9 0 0 0 .9.9" class="prefix__cls-4" data-name="Fill 86" transform="translate(33.691 19.457)"/>
                <path id="prefix__Fill_88" d="M.9 0a.9.9 0 1 0 .9.9.9.9 0 0 0-.9-.9" class="prefix__cls-4" data-name="Fill 88" transform="translate(37.285 19.457)"/>
                <path id="prefix__Fill_90" d="M.9 0a.9.9 0 1 0 .9.9.9.9 0 0 0-.9-.9" class="prefix__cls-4" data-name="Fill 90" transform="translate(40.879 19.457)"/>
                <path id="prefix__Fill_92" d="M.9 0a.9.9 0 1 0 .9.9.9.9 0 0 0-.9-.9" class="prefix__cls-4" data-name="Fill 92" transform="translate(44.473 19.457)"/>
                <path id="prefix__Fill_94" d="M.9 0a.9.9 0 1 0 .9.9.9.9 0 0 0-.9-.9" class="prefix__cls-4" data-name="Fill 94" transform="translate(48.067 19.457)"/>
                <path id="prefix__Fill_96" d="M.9 0a.9.9 0 1 0 .9.9.9.9 0 0 0-.9-.9" class="prefix__cls-4" data-name="Fill 96" transform="translate(51.661 19.457)"/>
                <path id="prefix__Fill_98" d="M0 .813a.9.9 0 0 0 .9.9.8.8 0 0 0 .141-.029C.886 1.114.714.554.528 0A.894.894 0 0 0 0 .813" class="prefix__cls-4" data-name="Fill 98" transform="translate(55.255 19.542)"/>
                <path id="prefix__Fill_100" d="M.9 1.8A.9.9 0 0 1 .9 0a.9.9 0 1 0 0 1.8" class="prefix__cls-4" data-name="Fill 100" transform="translate(28.3 22.152)"/>
                <path id="prefix__Fill_102" d="M.9 0a.9.9 0 1 0 .9.9.9.9 0 0 0-.9-.9" class="prefix__cls-4" data-name="Fill 102" transform="translate(31.894 22.152)"/>
                <path id="prefix__Fill_104" d="M.9 0a.9.9 0 1 0 .9.9.9.9 0 0 0-.9-.9" class="prefix__cls-4" data-name="Fill 104" transform="translate(35.488 22.152)"/>
                <path id="prefix__Fill_106" d="M.9 1.8A.9.9 0 1 0 0 .9a.9.9 0 0 0 .9.9" class="prefix__cls-4" data-name="Fill 106" transform="translate(39.082 22.152)"/>
                <path id="prefix__Fill_108" d="M.9 0a.9.9 0 1 0 .9.9.9.9 0 0 0-.9-.9" class="prefix__cls-4" data-name="Fill 108" transform="translate(42.676 22.152)"/>
                <path id="prefix__Fill_110" d="M.9 0a.9.9 0 1 0 .9.9.9.9 0 0 0-.9-.9" class="prefix__cls-4" data-name="Fill 110" transform="translate(46.27 22.152)"/>
                <path id="prefix__Fill_112" d="M.9 1.8A.9.9 0 1 0 0 .9a.9.9 0 0 0 .9.9" class="prefix__cls-4" data-name="Fill 112" transform="translate(49.864 22.152)"/>
                <path id="prefix__Fill_114" d="M.9 1.8A.9.9 0 1 0 0 .9a.9.9 0 0 0 .9.9" class="prefix__cls-4" data-name="Fill 114" transform="translate(53.458 22.152)"/>
                <path id="prefix__Fill_116" d="M.9 0a.9.9 0 1 0 .9.9.9.9 0 0 0-.9-.9" class="prefix__cls-4" data-name="Fill 116" transform="translate(30.097 24.847)"/>
                <path id="prefix__Fill_118" d="M.9 0a.9.9 0 1 0 .9.9.9.9 0 0 0-.9-.9" class="prefix__cls-4" data-name="Fill 118" transform="translate(33.691 24.847)"/>
                <path id="prefix__Fill_120" d="M.9 0a.9.9 0 1 0 .9.9.9.9 0 0 0-.9-.9" class="prefix__cls-4" data-name="Fill 120" transform="translate(37.285 24.847)"/>
                <path id="prefix__Fill_122" d="M.9 1.8A.9.9 0 1 0 0 .9a.9.9 0 0 0 .9.9" class="prefix__cls-4" data-name="Fill 122" transform="translate(40.879 24.847)"/>
                <path id="prefix__Fill_124" d="M.9 1.8A.9.9 0 1 0 0 .9a.9.9 0 0 0 .9.9" class="prefix__cls-4" data-name="Fill 124" transform="translate(44.473 24.847)"/>
                <path id="prefix__Fill_126" d="M.9 0a.9.9 0 1 0 .9.9.9.9 0 0 0-.9-.9" class="prefix__cls-4" data-name="Fill 126" transform="translate(48.067 24.847)"/>
                <path id="prefix__Fill_128" d="M.9 0a.9.9 0 1 0 .9.9.9.9 0 0 0-.9-.9" class="prefix__cls-4" data-name="Fill 128" transform="translate(51.661 24.847)"/>
                <path id="prefix__Fill_130" d="M.9 1.8A.9.9 0 1 0 0 .9a.9.9 0 0 0 .9.9" class="prefix__cls-4" data-name="Fill 130" transform="translate(55.255 24.847)"/>
                <path id="prefix__Fill_132" d="M.006.015L0 0a.148.148 0 0 0 0 .015.9.9 0 0 0 .9.9.9.9 0 0 1-.9-.9" class="prefix__cls-4" data-name="Fill 132" transform="translate(28.3 28.426)"/>
                <path id="prefix__Fill_134" d="M.9.913a.9.9 0 0 0 .9-.9v-.014a.9.9 0 0 1-.9.886A.9.9 0 0 1 0 0v.014a.9.9 0 0 0 .9.9" class="prefix__cls-4" data-name="Fill 134" transform="translate(31.894 28.427)"/>
                <path id="prefix__Fill_136" d="M.9.885A.9.9 0 0 1 0 0a.148.148 0 0 0 0 .015.9.9 0 0 0 .9.9.9.9 0 0 0 .9-.9V0a.9.9 0 0 1-.9.885" class="prefix__cls-4" data-name="Fill 136" transform="translate(35.488 28.427)"/>
                <path id="prefix__Fill_138" d="M.9.885A.9.9 0 0 1 0 0a.148.148 0 0 0 0 .015.9.9 0 0 0 .9.9.9.9 0 0 0 .9-.9V0a.9.9 0 0 1-.9.885" class="prefix__cls-4" data-name="Fill 138" transform="translate(39.082 28.427)"/>
                <path id="prefix__Fill_140" d="M1.794 0A.9.9 0 0 1 .9.885.9.9 0 0 1 0 0v.015a.9.9 0 0 0 .9.9.9.9 0 0 0 .9-.9V0" class="prefix__cls-4" data-name="Fill 140" transform="translate(42.676 28.427)"/>
                <path id="prefix__Fill_142" d="M.9.913a.9.9 0 0 0 .9-.9v-.014a.9.9 0 0 1-.9.886A.9.9 0 0 1 0 0v.014a.9.9 0 0 0 .9.9" class="prefix__cls-4" data-name="Fill 142" transform="translate(46.27 28.427)"/>
                <path id="prefix__Fill_144" d="M1.794 0A.9.9 0 0 1 .9.885.9.9 0 0 1 0 0v.015a.9.9 0 0 0 .9.9.9.9 0 0 0 .9-.9V0" class="prefix__cls-4" data-name="Fill 144" transform="translate(49.864 28.427)"/>
                <path id="prefix__Fill_146" d="M.9.885A.9.9 0 0 1 0 0v.015a.9.9 0 0 0 .9.9.9.9 0 0 0 .9-.9.148.148 0 0 0 0-.015.9.9 0 0 1-.9.885" class="prefix__cls-4" data-name="Fill 146" transform="translate(53.458 28.427)"/>
                <g id="prefix__Group_150" data-name="Group 150" transform="translate(56.585 28.293)">
                    <path id="prefix__Clip_149-2" d="M.122 0h.463v.707H.122z" class="prefix__cls-1" data-name="Clip 149" transform="translate(.09 .057)"/>
                    <g id="prefix__Group_150-2" data-name="Group 150">
                        <path id="prefix__Fill_148" d="M.254.091a.882.882 0 0 0 .2.54V.603a.881.881 0 0 1-.2-.527v.015" class="prefix__cls-4" data-name="Fill 148" transform="translate(.212 .057)"/>
                    </g>
                </g>
                <path id="prefix__Fill_151" d="M.762.194C.506.29.253.392 0 .5.031.5.058.513.09.513A.884.884 0 0 0 .762.194" class="prefix__cls-4" data-name="Fill 151" transform="translate(18.333 1.873)"/>
                <path id="prefix__Fill_153" d="M.9 1.4a.9.9 0 0 0 .9-.9.875.875 0 0 0-.176-.5Q.811.182.018.412A.889.889 0 0 0 0 .5a.9.9 0 0 0 .9.9" class="prefix__cls-4" data-name="Fill 153" transform="translate(21.118 .986)"/>
                <path id="prefix__Fill_155" d="M.9 1.8A.9.9 0 1 0 0 .9a.9.9 0 0 0 .9.9" class="prefix__cls-4" data-name="Fill 155" transform="translate(24.712 .588)"/>
                <path id="prefix__Fill_157" d="M.9.9a.9.9 0 0 1-.9.9.9.9 0 0 0 .9-.9A.9.9 0 0 0 0 0a.9.9 0 0 1 .9.9" class="prefix__cls-4" data-name="Fill 157" transform="translate(29.202 .588)"/>
                <path id="prefix__Fill_159" d="M0 .9A.9.9 0 1 0 .9 0a.9.9 0 0 0-.9.9" class="prefix__cls-4" data-name="Fill 159" transform="translate(28.306 .589)"/>
                <path id="prefix__Fill_161" d="M.54.234C.416.314.29.391.167.473A.886.886 0 0 0 .54.234" class="prefix__cls-4" data-name="Fill 161" transform="translate(13.15 4.55)"/>
                <path id="prefix__Fill_163" d="M.9 1.8A.9.9 0 1 0 0 .9a.9.9 0 0 0 .9.9" class="prefix__cls-4" data-name="Fill 163" transform="translate(15.727 3.284)"/>
                <path id="prefix__Fill_165" d="M.9 1.8A.9.9 0 1 0 0 .9a.9.9 0 0 0 .9.9" class="prefix__cls-4" data-name="Fill 165" transform="translate(19.321 3.284)"/>
                <path id="prefix__Fill_167" d="M.9 1.8A.9.9 0 1 0 0 .9a.9.9 0 0 0 .9.9" class="prefix__cls-4" data-name="Fill 167" transform="translate(22.915 3.284)"/>
                <path id="prefix__Fill_169" d="M.9 1.8A.9.9 0 1 0 0 .9a.9.9 0 0 0 .9.9" class="prefix__cls-4" data-name="Fill 169" transform="translate(26.508 3.284)"/>
                <path id="prefix__Fill_171" d="M.816 1.62a.9.9 0 0 0 .9-.9.882.882 0 0 0-.392-.72Q.645.524 0 1.088a.9.9 0 0 0 .816.532" class="prefix__cls-4" data-name="Fill 171" transform="translate(10.419 6.157)"/>
                <path id="prefix__Fill_173" d="M.9 1.8A.9.9 0 1 0 0 .9a.9.9 0 0 0 .9.9" class="prefix__cls-4" data-name="Fill 173" transform="translate(13.93 5.98)"/>
                <path id="prefix__Fill_175" d="M.9 1.8A.9.9 0 1 0 0 .9a.9.9 0 0 0 .9.9" class="prefix__cls-4" data-name="Fill 175" transform="translate(17.524 5.98)"/>
                <path id="prefix__Fill_177" d="M.9 1.8A.9.9 0 1 0 0 .9a.9.9 0 0 0 .9.9" class="prefix__cls-4" data-name="Fill 177" transform="translate(21.118 5.98)"/>
                <path id="prefix__Fill_179" d="M.9 0a.9.9 0 1 0 .9.9.9.9 0 0 0-.9-.9" class="prefix__cls-4" data-name="Fill 179" transform="translate(24.712 5.98)"/>
                <path id="prefix__Fill_181" d="M0 0a.9.9 0 0 1 .9.9.9.9 0 0 1-.9.9A.9.9 0 1 0 0 0" class="prefix__cls-4" data-name="Fill 181" transform="translate(29.202 5.98)"/>
                <path id="prefix__Fill_183" d="M1.792.9a.9.9 0 1 0-.9.9.9.9 0 0 0 .9-.9" class="prefix__cls-4" data-name="Fill 183" transform="translate(28.306 5.979)"/>
                <path id="prefix__Fill_185" d="M.9 1.8A.9.9 0 1 0 0 .9a.9.9 0 0 0 .9.9" class="prefix__cls-4" data-name="Fill 185" transform="translate(8.54 8.675)"/>
                <path id="prefix__Fill_187" d="M.9 1.8A.9.9 0 1 0 0 .9a.9.9 0 0 0 .9.9" class="prefix__cls-4" data-name="Fill 187" transform="translate(12.133 8.675)"/>
                <path id="prefix__Fill_189" d="M.9 0a.9.9 0 1 0 .9.9.9.9 0 0 0-.9-.9" class="prefix__cls-4" data-name="Fill 189" transform="translate(15.727 8.675)"/>
                <path id="prefix__Fill_191" d="M.9 0a.9.9 0 1 0 .9.9.9.9 0 0 0-.9-.9" class="prefix__cls-4" data-name="Fill 191" transform="translate(19.321 8.675)"/>
                <path id="prefix__Fill_193" d="M.9 0a.9.9 0 1 0 .9.9.9.9 0 0 0-.9-.9" class="prefix__cls-4" data-name="Fill 193" transform="translate(22.915 8.675)"/>
                <path id="prefix__Fill_195" d="M.9 0a.9.9 0 1 0 .9.9.9.9 0 0 0-.9-.9" class="prefix__cls-4" data-name="Fill 195" transform="translate(26.508 8.675)"/>
                <path id="prefix__Fill_197" d="M.9 1.8A.9.9 0 1 0 0 .9a.9.9 0 0 0 .9.9" class="prefix__cls-4" data-name="Fill 197" transform="translate(6.743 11.37)"/>
                <path id="prefix__Fill_199" d="M.9 1.8A.9.9 0 1 0 0 .9a.9.9 0 0 0 .9.9" class="prefix__cls-4" data-name="Fill 199" transform="translate(10.337 11.37)"/>
                <path id="prefix__Fill_201" d="M.9 0a.9.9 0 1 0 .9.9.9.9 0 0 0-.9-.9" class="prefix__cls-4" data-name="Fill 201" transform="translate(13.93 11.37)"/>
                <path id="prefix__Fill_203" d="M.9 0a.9.9 0 1 0 .9.9.9.9 0 0 0-.9-.9" class="prefix__cls-4" data-name="Fill 203" transform="translate(17.524 11.37)"/>
                <path id="prefix__Fill_205" d="M.9 0a.9.9 0 1 0 .9.9.9.9 0 0 0-.9-.9" class="prefix__cls-4" data-name="Fill 205" transform="translate(21.118 11.37)"/>
                <path id="prefix__Fill_207" d="M.9 1.8A.9.9 0 1 0 0 .9a.9.9 0 0 0 .9.9" class="prefix__cls-4" data-name="Fill 207" transform="translate(24.712 11.37)"/>
                <path id="prefix__Fill_209" d="M0 0a.9.9 0 0 1 .9.9.9.9 0 0 1-.9.9.9.9 0 0 0 .9-.9A.9.9 0 0 0 0 0" class="prefix__cls-4" data-name="Fill 209" transform="translate(29.202 11.37)"/>
                <path id="prefix__Fill_211" d="M1.792.9a.9.9 0 1 0-.9.9.9.9 0 0 0 .9-.9" class="prefix__cls-4" data-name="Fill 211" transform="translate(28.306 11.371)"/>
                <path id="prefix__Fill_213" d="M.9 1.8A.9.9 0 1 0 0 .9a.9.9 0 0 0 .9.9" class="prefix__cls-4" data-name="Fill 213" transform="translate(4.946 14.066)"/>
                <path id="prefix__Fill_215" d="M.9 0a.9.9 0 1 0 .9.9.9.9 0 0 0-.9-.9" class="prefix__cls-4" data-name="Fill 215" transform="translate(8.54 14.065)"/>
                <path id="prefix__Fill_217" d="M.9 0a.9.9 0 1 0 .9.9.9.9 0 0 0-.9-.9" class="prefix__cls-4" data-name="Fill 217" transform="translate(12.133 14.065)"/>
                <path id="prefix__Fill_219" d="M.9 1.8A.9.9 0 1 0 0 .9a.9.9 0 0 0 .9.9" class="prefix__cls-4" data-name="Fill 219" transform="translate(15.727 14.066)"/>
                <path id="prefix__Fill_221" d="M.9 1.8A.9.9 0 1 0 0 .9a.9.9 0 0 0 .9.9" class="prefix__cls-4" data-name="Fill 221" transform="translate(19.321 14.066)"/>
                <path id="prefix__Fill_223" d="M.9 1.8A.9.9 0 1 0 0 .9a.9.9 0 0 0 .9.9" class="prefix__cls-4" data-name="Fill 223" transform="translate(22.915 14.066)"/>
                <path id="prefix__Fill_225" d="M.9 0a.9.9 0 1 0 .9.9.9.9 0 0 0-.9-.9" class="prefix__cls-4" data-name="Fill 225" transform="translate(26.508 14.065)"/>
                <path id="prefix__Fill_227" d="M.9 1.8A.9.9 0 1 0 0 .9a.9.9 0 0 0 .9.9" class="prefix__cls-4" data-name="Fill 227" transform="translate(3.148 16.762)"/>
                <path id="prefix__Fill_229" d="M.9 0a.9.9 0 1 0 .9.9.9.9 0 0 0-.9-.9" class="prefix__cls-4" data-name="Fill 229" transform="translate(6.743 16.762)"/>
                <path id="prefix__Fill_231" d="M.9 0a.9.9 0 1 0 .9.9.9.9 0 0 0-.9-.9" class="prefix__cls-4" data-name="Fill 231" transform="translate(10.337 16.762)"/>
                <path id="prefix__Fill_233" d="M.9 1.8A.9.9 0 1 0 0 .9a.9.9 0 0 0 .9.9" class="prefix__cls-4" data-name="Fill 233" transform="translate(13.93 16.762)"/>
                <path id="prefix__Fill_235" d="M.9 0a.9.9 0 1 0 .9.9.9.9 0 0 0-.9-.9" class="prefix__cls-4" data-name="Fill 235" transform="translate(17.524 16.762)"/>
                <path id="prefix__Fill_237" d="M.9 0a.9.9 0 1 0 .9.9.9.9 0 0 0-.9-.9" class="prefix__cls-4" data-name="Fill 237" transform="translate(21.118 16.762)"/>
                <path id="prefix__Fill_239" d="M.9 0a.9.9 0 1 0 .9.9.9.9 0 0 0-.9-.9" class="prefix__cls-4" data-name="Fill 239" transform="translate(24.712 16.762)"/>
                <path id="prefix__Fill_241" d="M0 0a.9.9 0 0 1 .9.9.9.9 0 0 1-.9.9A.9.9 0 1 0 0 0" class="prefix__cls-4" data-name="Fill 241" transform="translate(29.202 16.762)"/>
                <path id="prefix__Fill_243" d="M1.792.9a.9.9 0 1 0-.9.9.9.9 0 0 0 .9-.9" class="prefix__cls-4" data-name="Fill 243" transform="translate(28.306 16.761)"/>
                <path id="prefix__Fill_245" d="M1.428.9a.9.9 0 0 0-.9-.9C.516 0 .5.007.492.008Q.223.8 0 1.606a.879.879 0 0 0 .529.194.9.9 0 0 0 .9-.9" class="prefix__cls-4" data-name="Fill 245" transform="translate(1.721 19.456)"/>
                <path id="prefix__Fill_247" d="M.9 0a.9.9 0 1 0 .9.9.9.9 0 0 0-.9-.9" class="prefix__cls-4" data-name="Fill 247" transform="translate(4.946 19.457)"/>
                <path id="prefix__Fill_249" d="M.9 1.8A.9.9 0 1 0 0 .9a.9.9 0 0 0 .9.9" class="prefix__cls-4" data-name="Fill 249" transform="translate(8.54 19.457)"/>
                <path id="prefix__Fill_251" d="M.9 1.8A.9.9 0 1 0 0 .9a.9.9 0 0 0 .9.9" class="prefix__cls-4" data-name="Fill 251" transform="translate(12.133 19.457)"/>
                <path id="prefix__Fill_253" d="M.9 0a.9.9 0 1 0 .9.9.9.9 0 0 0-.9-.9" class="prefix__cls-4" data-name="Fill 253" transform="translate(15.727 19.457)"/>
                <path id="prefix__Fill_255" d="M.9 0a.9.9 0 1 0 .9.9.9.9 0 0 0-.9-.9" class="prefix__cls-4" data-name="Fill 255" transform="translate(19.321 19.457)"/>
                <path id="prefix__Fill_257" d="M.9 0a.9.9 0 1 0 .9.9.9.9 0 0 0-.9-.9" class="prefix__cls-4" data-name="Fill 257" transform="translate(22.915 19.457)"/>
                <path id="prefix__Fill_259" d="M.9 1.8A.9.9 0 1 0 0 .9a.9.9 0 0 0 .9.9" class="prefix__cls-4" data-name="Fill 259" transform="translate(26.508 19.457)"/>
                <path id="prefix__Fill_261" d="M.4 0C.346.266.3.535.254.8a.88.88 0 0 0 .2-.542A.87.87 0 0 0 .4 0" class="prefix__cls-4" data-name="Fill 261" transform="translate(.898 22.789)"/>
                <path id="prefix__Fill_263" d="M.9 1.8A.9.9 0 1 0 0 .9a.9.9 0 0 0 .9.9" class="prefix__cls-4" data-name="Fill 263" transform="translate(3.148 22.152)"/>
                <path id="prefix__Fill_265" d="M.9 1.8A.9.9 0 1 0 0 .9a.9.9 0 0 0 .9.9" class="prefix__cls-4" data-name="Fill 265" transform="translate(6.743 22.152)"/>
                <path id="prefix__Fill_267" d="M.9 0a.9.9 0 1 0 .9.9.9.9 0 0 0-.9-.9" class="prefix__cls-4" data-name="Fill 267" transform="translate(10.337 22.152)"/>
                <path id="prefix__Fill_269" d="M.9 0a.9.9 0 1 0 .9.9.9.9 0 0 0-.9-.9" class="prefix__cls-4" data-name="Fill 269" transform="translate(13.93 22.152)"/>
                <path id="prefix__Fill_271" d="M.9 1.8A.9.9 0 1 0 0 .9a.9.9 0 0 0 .9.9" class="prefix__cls-4" data-name="Fill 271" transform="translate(17.524 22.152)"/>
                <path id="prefix__Fill_273" d="M.9 1.8A.9.9 0 1 0 0 .9a.9.9 0 0 0 .9.9" class="prefix__cls-4" data-name="Fill 273" transform="translate(21.118 22.152)"/>
                <path id="prefix__Fill_275" d="M.9 1.8A.9.9 0 1 0 0 .9a.9.9 0 0 0 .9.9" class="prefix__cls-4" data-name="Fill 275" transform="translate(24.712 22.152)"/>
                <path id="prefix__Fill_277" d="M.9.9a.9.9 0 0 1-.9.9.9.9 0 0 0 .9-.9A.9.9 0 0 0 0 0a.9.9 0 0 1 .9.9" class="prefix__cls-4" data-name="Fill 277" transform="translate(29.202 22.152)"/>
                <path id="prefix__Fill_279" d="M0 .9A.9.9 0 1 0 .9 0a.9.9 0 0 0-.9.9" class="prefix__cls-4" data-name="Fill 279" transform="translate(28.306 22.152)"/>
                <path id="prefix__Fill_281" d="M.9 1.8A.9.9 0 1 0 0 .9a.9.9 0 0 0 .9.9" class="prefix__cls-4" data-name="Fill 281" transform="translate(1.352 24.847)"/>
                <path id="prefix__Fill_283" d="M.9 1.8A.9.9 0 1 0 0 .9a.9.9 0 0 0 .9.9" class="prefix__cls-4" data-name="Fill 283" transform="translate(4.946 24.847)"/>
                <path id="prefix__Fill_285" d="M.9 0a.9.9 0 1 0 .9.9.9.9 0 0 0-.9-.9" class="prefix__cls-4" data-name="Fill 285" transform="translate(8.54 24.847)"/>
                <path id="prefix__Fill_287" d="M.9 0a.9.9 0 1 0 .9.9.9.9 0 0 0-.9-.9" class="prefix__cls-4" data-name="Fill 287" transform="translate(12.133 24.847)"/>
                <path id="prefix__Fill_289" d="M.9 1.8A.9.9 0 1 0 0 .9a.9.9 0 0 0 .9.9" class="prefix__cls-4" data-name="Fill 289" transform="translate(15.727 24.847)"/>
                <path id="prefix__Fill_291" d="M.9 1.8A.9.9 0 1 0 0 .9a.9.9 0 0 0 .9.9" class="prefix__cls-4" data-name="Fill 291" transform="translate(19.321 24.847)"/>
                <path id="prefix__Fill_293" d="M.9 0a.9.9 0 1 0 .9.9.9.9 0 0 0-.9-.9" class="prefix__cls-4" data-name="Fill 293" transform="translate(22.915 24.847)"/>
                <path id="prefix__Fill_295" d="M.9 0a.9.9 0 1 0 .9.9.9.9 0 0 0-.9-.9" class="prefix__cls-4" data-name="Fill 295" transform="translate(26.508 24.847)"/>
                <g id="prefix__Group_299" data-name="Group 299" transform="translate(0 28.293)">
                    <path id="prefix__Clip_298-2" d="M.011 0H.7v.858H.011z" class="prefix__cls-1" data-name="Clip 298" transform="translate(.696 .134)"/>
                    <g id="prefix__Group_299-2" data-name="Group 299">
                        <path id="prefix__Fill_297" d="M.667.015V0A.886.886 0 0 1 .04.83v.028A.888.888 0 0 0 .667.015" class="prefix__cls-4" data-name="Fill 297" transform="translate(.685 .134)"/>
                    </g>
                </g>
                <path id="prefix__Fill_300" d="M.9.913a.9.9 0 0 0 .9-.9v-.014a.9.9 0 0 1-.9.886A.9.9 0 0 1 0 0v.014a.9.9 0 0 0 .9.9" class="prefix__cls-4" data-name="Fill 300" transform="translate(3.148 28.427)"/>
                <path id="prefix__Fill_302" d="M1.794 0A.9.9 0 0 1 .9.885.9.9 0 0 1 0 0v.015a.9.9 0 0 0 .9.9.9.9 0 0 0 .9-.9V0" class="prefix__cls-4" data-name="Fill 302" transform="translate(6.743 28.427)"/>
                <path id="prefix__Fill_304" d="M.9.885A.9.9 0 0 1 0 0v.015a.9.9 0 0 0 .9.9.9.9 0 0 0 .9-.9.148.148 0 0 0 0-.015.9.9 0 0 1-.9.885" class="prefix__cls-4" data-name="Fill 304" transform="translate(10.337 28.427)"/>
                <path id="prefix__Fill_306" d="M.9.885A.9.9 0 0 1 0 0v.015a.9.9 0 0 0 .9.9.9.9 0 0 0 .9-.9.148.148 0 0 0 0-.015.9.9 0 0 1-.9.885" class="prefix__cls-4" data-name="Fill 306" transform="translate(13.93 28.427)"/>
                <path id="prefix__Fill_308" d="M.9.913a.9.9 0 0 0 .9-.9v-.014a.9.9 0 0 1-.9.886A.9.9 0 0 1 0 0v.014a.9.9 0 0 0 .9.9" class="prefix__cls-4" data-name="Fill 308" transform="translate(17.524 28.427)"/>
                <path id="prefix__Fill_310" d="M1.794 0A.9.9 0 0 1 .9.885.9.9 0 0 1 0 0v.015a.9.9 0 0 0 1.8 0V0" class="prefix__cls-4" data-name="Fill 310" transform="translate(21.118 28.427)"/>
                <path id="prefix__Fill_312" d="M.9.885A.9.9 0 0 1 0 0v.015a.9.9 0 0 0 1.8 0V0a.9.9 0 0 1-.9.885" class="prefix__cls-4" data-name="Fill 312" transform="translate(24.712 28.427)"/>
                <path id="prefix__Fill_314" d="M.9.015a.9.9 0 0 1-.9.9.9.9 0 0 0 .9-.9V0v.013z" class="prefix__cls-4" data-name="Fill 314" transform="translate(29.202 28.426)"/>
                <path id="prefix__Fill_316" d="M1.792 0A.9.9 0 0 1 .9.871.9.9 0 0 1 0 0a.9.9 0 0 0 .9.9.9.9 0 0 0 .9-.9" class="prefix__cls-4" data-name="Fill 316" transform="translate(28.306 28.44)"/>
                <path id="prefix__Fill_318" d="M.006.9A.9.9 0 0 1 .9 0a.9.9 0 0 0-.9.9.1.1 0 0 0 0 .013L.006.9z" class="prefix__cls-4" data-name="Fill 318" transform="translate(28.3 27.514)"/>
                <path id="prefix__Fill_320" d="M.356.353V.34v.013" class="prefix__cls-4" data-name="Fill 320" transform="translate(27.953 28.073)"/>
                <path id="prefix__Fill_322" d="M0 0v.013a.9.9 0 0 0 .893.872A.9.9 0 0 1 0 0" class="prefix__cls-4" data-name="Fill 322" transform="translate(28.306 28.427)"/>
                <path id="prefix__Fill_324" d="M.9.028a.9.9 0 0 1 .9.884V.9A.9.9 0 0 0 0 .9a.1.1 0 0 0 0 .012.9.9 0 0 1 .9-.884" class="prefix__cls-4" data-name="Fill 324" transform="translate(31.894 27.514)"/>
                <path id="prefix__Fill_326" d="M.9 1.769a.9.9 0 0 0 .9-.885.9.9 0 0 0-1.8 0 .9.9 0 0 0 .9.885" class="prefix__cls-4" data-name="Fill 326" transform="translate(31.898 27.543)"/>
                <path id="prefix__Fill_328" d="M0 .912a.9.9 0 0 1 1.791 0L1.8.9A.9.9 0 0 0 0 .9v.012" class="prefix__cls-4" data-name="Fill 328" transform="translate(35.489 27.514)"/>
                <path id="prefix__Fill_330" d="M.9 0a.9.9 0 0 0-.9.884.9.9 0 0 0 1.791 0A.9.9 0 0 0 .9 0" class="prefix__cls-4" data-name="Fill 330" transform="translate(35.492 27.543)"/>
                <path id="prefix__Fill_332" d="M.9 0a.9.9 0 0 0-.9.9.128.128 0 0 0 0 .012.9.9 0 0 1 1.791 0L1.8.9A.9.9 0 0 0 .9 0" class="prefix__cls-4" data-name="Fill 332" transform="translate(39.082 27.514)"/>
                <path id="prefix__Fill_334" d="M.9 0a.9.9 0 0 0-.9.884.9.9 0 0 0 1.791 0A.9.9 0 0 0 .9 0" class="prefix__cls-4" data-name="Fill 334" transform="translate(39.085 27.543)"/>
                <path id="prefix__Fill_336" d="M.9.028a.9.9 0 0 1 .9.884V.9A.9.9 0 0 0 0 .9v.012A.9.9 0 0 1 .9.028" class="prefix__cls-4" data-name="Fill 336" transform="translate(42.676 27.514)"/>
                <path id="prefix__Fill_338" d="M.9 1.769a.9.9 0 0 0 .9-.885.9.9 0 0 0-1.8 0 .9.9 0 0 0 .9.885" class="prefix__cls-4" data-name="Fill 338" transform="translate(42.679 27.543)"/>
                <path id="prefix__Fill_340" d="M.9.028a.9.9 0 0 1 .9.884V.9A.9.9 0 0 0 0 .9v.012A.9.9 0 0 1 .9.028" class="prefix__cls-4" data-name="Fill 340" transform="translate(46.27 27.514)"/>
                <path id="prefix__Fill_342" d="M.9 1.769a.9.9 0 0 0 .9-.885.9.9 0 0 0-1.8 0 .9.9 0 0 0 .9.885" class="prefix__cls-4" data-name="Fill 342" transform="translate(46.273 27.543)"/>
                <path id="prefix__Fill_344" d="M.9.028a.9.9 0 0 1 .9.884V.9A.9.9 0 0 0 0 .9v.012A.9.9 0 0 1 .9.028" class="prefix__cls-4" data-name="Fill 344" transform="translate(49.864 27.514)"/>
                <path id="prefix__Fill_346" d="M.9 1.769a.9.9 0 0 0 .9-.885.9.9 0 0 0-1.8 0 .9.9 0 0 0 .9.885" class="prefix__cls-4" data-name="Fill 346" transform="translate(49.866 27.543)"/>
                <path id="prefix__Fill_348" d="M.9 0a.9.9 0 0 0-.9.9v.012a.9.9 0 0 1 1.791 0A.128.128 0 0 0 1.8.9.9.9 0 0 0 .9 0" class="prefix__cls-4" data-name="Fill 348" transform="translate(53.458 27.514)"/>
                <path id="prefix__Fill_350" d="M.9 0a.9.9 0 0 0-.9.884.9.9 0 0 0 1.791 0A.9.9 0 0 0 .9 0" class="prefix__cls-4" data-name="Fill 350" transform="translate(53.461 27.543)"/>
                <g id="prefix__Group_354" data-name="Group 354" transform="translate(56.585 27.585)">
                    <path id="prefix__Clip_353-2" d="M.12 0h.467v.707H.12z" class="prefix__cls-1" data-name="Clip 353" transform="translate(.089 .216)"/>
                    <g id="prefix__Group_354-2" data-name="Group 354">
                        <path id="prefix__Fill_352" d="M.26.625A.879.879 0 0 1 .45.11L.449.082a.877.877 0 0 0-.192.529S.26.62.26.625" class="prefix__cls-4" data-name="Fill 352" transform="translate(.209 .216)"/>
                    </g>
                </g>
                <g id="prefix__Group_357" data-name="Group 357" transform="translate(56.585 27.585)">
                    <path id="prefix__Clip_356-2" d="M.125 0h.457v1.043H.125z" class="prefix__cls-1" data-name="Clip 356" transform="translate(.093 .325)"/>
                    <g id="prefix__Group_357-2" data-name="Group 357">
                        <path id="prefix__Fill_355" d="M.447 1.043c0-.131.01-.26.01-.391C.457.434.445.218.44 0a.881.881 0 0 0-.19.516.88.88 0 0 0 .2.526" class="prefix__cls-4" data-name="Fill 355" transform="translate(.219 .325)"/>
                    </g>
                </g>
                <path id="prefix__Fill_358" d="M.9 1.8A.9.9 0 1 0 0 .9a.9.9 0 0 0 .9.9" class="prefix__cls-4" data-name="Fill 358" transform="translate(30.097 30.21)"/>
                <path id="prefix__Fill_360" d="M.9 1.8A.9.9 0 1 0 0 .9a.9.9 0 0 0 .9.9" class="prefix__cls-4" data-name="Fill 360" transform="translate(33.691 30.21)"/>
                <path id="prefix__Fill_362" d="M.9 0a.9.9 0 1 0 .9.9.9.9 0 0 0-.9-.9" class="prefix__cls-4" data-name="Fill 362" transform="translate(37.285 30.21)"/>
                <path id="prefix__Fill_364" d="M.9 0a.9.9 0 1 0 .9.9.9.9 0 0 0-.9-.9" class="prefix__cls-4" data-name="Fill 364" transform="translate(40.879 30.21)"/>
                <path id="prefix__Fill_366" d="M.9 1.8A.9.9 0 1 0 0 .9a.9.9 0 0 0 .9.9" class="prefix__cls-4" data-name="Fill 366" transform="translate(44.473 30.21)"/>
                <path id="prefix__Fill_368" d="M.9 1.8A.9.9 0 1 0 0 .9a.9.9 0 0 0 .9.9" class="prefix__cls-4" data-name="Fill 368" transform="translate(48.067 30.21)"/>
                <path id="prefix__Fill_370" d="M.9 1.8A.9.9 0 1 0 0 .9a.9.9 0 0 0 .9.9" class="prefix__cls-4" data-name="Fill 370" transform="translate(51.661 30.21)"/>
                <path id="prefix__Fill_372" d="M.9 0a.9.9 0 1 0 .9.9.9.9 0 0 0-.9-.9" class="prefix__cls-4" data-name="Fill 372" transform="translate(55.255 30.21)"/>
                <path id="prefix__Fill_374" d="M.006.9A.9.9 0 0 1 .9 0a.9.9 0 1 0 0 1.8.9.9 0 0 1-.9-.9" class="prefix__cls-4" data-name="Fill 374" transform="translate(28.3 32.905)"/>
                <path id="prefix__Fill_376" d="M.9 0a.9.9 0 1 0 .9.9.9.9 0 0 0-.9-.9" class="prefix__cls-4" data-name="Fill 376" transform="translate(31.894 32.905)"/>
                <path id="prefix__Fill_378" d="M.9 1.8A.9.9 0 1 0 0 .9a.9.9 0 0 0 .9.9" class="prefix__cls-4" data-name="Fill 378" transform="translate(35.488 32.905)"/>
                <path id="prefix__Fill_380" d="M.9 0a.9.9 0 1 0 .9.9.9.9 0 0 0-.9-.9" class="prefix__cls-4" data-name="Fill 380" transform="translate(39.082 32.905)"/>
                <path id="prefix__Fill_382" d="M.9 1.8A.9.9 0 1 0 0 .9a.9.9 0 0 0 .9.9" class="prefix__cls-4" data-name="Fill 382" transform="translate(42.676 32.905)"/>
                <path id="prefix__Fill_384" d="M.9 0a.9.9 0 1 0 .9.9.9.9 0 0 0-.9-.9" class="prefix__cls-4" data-name="Fill 384" transform="translate(46.27 32.905)"/>
                <path id="prefix__Fill_386" d="M.9 0a.9.9 0 1 0 .9.9.9.9 0 0 0-.9-.9" class="prefix__cls-4" data-name="Fill 386" transform="translate(49.864 32.905)"/>
                <path id="prefix__Fill_388" d="M.9 0a.9.9 0 1 0 .9.9.9.9 0 0 0-.9-.9" class="prefix__cls-4" data-name="Fill 388" transform="translate(53.458 32.905)"/>
                <path id="prefix__Fill_390" d="M.9 0a.9.9 0 1 0 .9.9.9.9 0 0 0-.9-.9" class="prefix__cls-4" data-name="Fill 390" transform="translate(30.097 35.601)"/>
                <path id="prefix__Fill_392" d="M.9 1.8A.9.9 0 1 0 0 .9a.9.9 0 0 0 .9.9" class="prefix__cls-4" data-name="Fill 392" transform="translate(33.691 35.601)"/>
                <path id="prefix__Fill_394" d="M.9 1.8A.9.9 0 1 0 0 .9a.9.9 0 0 0 .9.9" class="prefix__cls-4" data-name="Fill 394" transform="translate(37.285 35.601)"/>
                <path id="prefix__Fill_396" d="M.9 1.8A.9.9 0 1 0 0 .9a.9.9 0 0 0 .9.9" class="prefix__cls-4" data-name="Fill 396" transform="translate(40.879 35.601)"/>
                <path id="prefix__Fill_398" d="M.9 0a.9.9 0 1 0 .9.9.9.9 0 0 0-.9-.9" class="prefix__cls-4" data-name="Fill 398" transform="translate(44.473 35.601)"/>
                <path id="prefix__Fill_400" d="M.9 1.8A.9.9 0 1 0 0 .9a.9.9 0 0 0 .9.9" class="prefix__cls-4" data-name="Fill 400" transform="translate(48.067 35.601)"/>
                <path id="prefix__Fill_402" d="M.9 0a.9.9 0 1 0 .9.9.9.9 0 0 0-.9-.9" class="prefix__cls-4" data-name="Fill 402" transform="translate(51.661 35.601)"/>
                <path id="prefix__Fill_404" d="M0 .9a.889.889 0 0 0 .61.84c.182-.559.354-1.122.5-1.7A.889.889 0 0 0 .9 0a.9.9 0 0 0-.9.9" class="prefix__cls-4" data-name="Fill 404" transform="translate(55.255 35.6)"/>
                <path id="prefix__Fill_406" d="M.9 1.8A.9.9 0 0 1 .9 0a.9.9 0 1 0 0 1.8" class="prefix__cls-4" data-name="Fill 406" transform="translate(28.3 38.296)"/>
                <path id="prefix__Fill_408" d="M.9 1.8A.9.9 0 1 0 0 .9a.9.9 0 0 0 .9.9" class="prefix__cls-4" data-name="Fill 408" transform="translate(31.894 38.296)"/>
                <path id="prefix__Fill_410" d="M.9 1.8A.9.9 0 1 0 0 .9a.9.9 0 0 0 .9.9" class="prefix__cls-4" data-name="Fill 410" transform="translate(35.488 38.296)"/>
                <path id="prefix__Fill_412" d="M.9 1.8A.9.9 0 1 0 0 .9a.9.9 0 0 0 .9.9" class="prefix__cls-4" data-name="Fill 412" transform="translate(39.082 38.296)"/>
                <path id="prefix__Fill_414" d="M.9 0a.9.9 0 1 0 .9.9.9.9 0 0 0-.9-.9" class="prefix__cls-4" data-name="Fill 414" transform="translate(42.676 38.296)"/>
                <path id="prefix__Fill_416" d="M.9 1.8A.9.9 0 1 0 0 .9a.9.9 0 0 0 .9.9" class="prefix__cls-4" data-name="Fill 416" transform="translate(46.27 38.296)"/>
                <path id="prefix__Fill_418" d="M.9 1.8A.9.9 0 1 0 0 .9a.9.9 0 0 0 .9.9" class="prefix__cls-4" data-name="Fill 418" transform="translate(49.864 38.296)"/>
                <path id="prefix__Fill_420" d="M.9 0a.9.9 0 0 0 0 1.8.877.877 0 0 0 .532-.2c.119-.271.232-.545.342-.82A.889.889 0 0 0 .9 0" class="prefix__cls-4" data-name="Fill 420" transform="translate(53.458 38.296)"/>
                <path id="prefix__Fill_422" d="M.9 1.8A.9.9 0 1 0 0 .9a.9.9 0 0 0 .9.9" class="prefix__cls-4" data-name="Fill 422" transform="translate(30.097 40.991)"/>
                <path id="prefix__Fill_424" d="M.9 0a.9.9 0 1 0 .9.9.9.9 0 0 0-.9-.9" class="prefix__cls-4" data-name="Fill 424" transform="translate(33.691 40.991)"/>
                <path id="prefix__Fill_426" d="M.9 1.8A.9.9 0 1 0 0 .9a.9.9 0 0 0 .9.9" class="prefix__cls-4" data-name="Fill 426" transform="translate(37.285 40.991)"/>
                <path id="prefix__Fill_428" d="M.9 0a.9.9 0 1 0 .9.9.9.9 0 0 0-.9-.9" class="prefix__cls-4" data-name="Fill 428" transform="translate(40.879 40.991)"/>
                <path id="prefix__Fill_430" d="M.9 1.8A.9.9 0 1 0 0 .9a.9.9 0 0 0 .9.9" class="prefix__cls-4" data-name="Fill 430" transform="translate(44.473 40.991)"/>
                <path id="prefix__Fill_432" d="M.9 0a.9.9 0 1 0 .9.9.9.9 0 0 0-.9-.9" class="prefix__cls-4" data-name="Fill 432" transform="translate(48.067 40.991)"/>
                <path id="prefix__Fill_434" d="M.9 0a.9.9 0 1 0 .9.9.9.9 0 0 0-.9-.9" class="prefix__cls-4" data-name="Fill 434" transform="translate(51.661 40.991)"/>
                <path id="prefix__Fill_436" d="M.9 1.8A.9.9 0 0 1 .9 0a.9.9 0 1 0 0 1.8" class="prefix__cls-4" data-name="Fill 436" transform="translate(28.3 43.687)"/>
                <path id="prefix__Fill_438" d="M.9 0a.9.9 0 1 0 .9.9.9.9 0 0 0-.9-.9" class="prefix__cls-4" data-name="Fill 438" transform="translate(31.894 43.687)"/>
                <path id="prefix__Fill_440" d="M.9 1.8A.9.9 0 1 0 0 .9a.9.9 0 0 0 .9.9" class="prefix__cls-4" data-name="Fill 440" transform="translate(35.488 43.687)"/>
                <path id="prefix__Fill_442" d="M.9 1.8A.9.9 0 1 0 0 .9a.9.9 0 0 0 .9.9" class="prefix__cls-4" data-name="Fill 442" transform="translate(39.082 43.687)"/>
                <path id="prefix__Fill_444" d="M.9 1.8A.9.9 0 1 0 0 .9a.9.9 0 0 0 .9.9" class="prefix__cls-4" data-name="Fill 444" transform="translate(42.676 43.687)"/>
                <path id="prefix__Fill_446" d="M.9 0a.9.9 0 1 0 .9.9.9.9 0 0 0-.9-.9" class="prefix__cls-4" data-name="Fill 446" transform="translate(46.27 43.687)"/>
                <path id="prefix__Fill_448" d="M.9 0a.9.9 0 1 0 .9.9.9.9 0 0 0-.9-.9" class="prefix__cls-4" data-name="Fill 448" transform="translate(49.864 43.687)"/>
                <path id="prefix__Fill_450" d="M.9 1.8A.9.9 0 1 0 0 .9a.9.9 0 0 0 .9.9" class="prefix__cls-4" data-name="Fill 450" transform="translate(30.097 46.382)"/>
                <path id="prefix__Fill_452" d="M.9 1.8A.9.9 0 1 0 0 .9a.9.9 0 0 0 .9.9" class="prefix__cls-4" data-name="Fill 452" transform="translate(33.691 46.382)"/>
                <path id="prefix__Fill_454" d="M.9 1.8A.9.9 0 1 0 0 .9a.9.9 0 0 0 .9.9" class="prefix__cls-4" data-name="Fill 454" transform="translate(37.285 46.382)"/>
                <path id="prefix__Fill_456" d="M.9 1.8A.9.9 0 1 0 0 .9a.9.9 0 0 0 .9.9" class="prefix__cls-4" data-name="Fill 456" transform="translate(40.879 46.382)"/>
                <path id="prefix__Fill_458" d="M.9 0a.9.9 0 1 0 .9.9.9.9 0 0 0-.9-.9" class="prefix__cls-4" data-name="Fill 458" transform="translate(44.473 46.382)"/>
                <path id="prefix__Fill_460" d="M.9 0a.9.9 0 1 0 0 1.8.889.889 0 0 0 .6-.242l.059-.061A.888.888 0 0 0 1.8.9.9.9 0 0 0 .9 0" class="prefix__cls-4" data-name="Fill 460" transform="translate(48.067 46.382)"/>
                <path id="prefix__Fill_462" d="M.9 1.8A.9.9 0 0 1 .9 0a.9.9 0 1 0 0 1.8" class="prefix__cls-4" data-name="Fill 462" transform="translate(28.3 49.078)"/>
                <path id="prefix__Fill_464" d="M.9 1.8A.9.9 0 1 0 0 .9a.9.9 0 0 0 .9.9" class="prefix__cls-4" data-name="Fill 464" transform="translate(31.894 49.078)"/>
                <path id="prefix__Fill_466" d="M.9 0a.9.9 0 1 0 .9.9.9.9 0 0 0-.9-.9" class="prefix__cls-4" data-name="Fill 466" transform="translate(35.488 49.078)"/>
                <path id="prefix__Fill_468" d="M.9 0a.9.9 0 1 0 .9.9.9.9 0 0 0-.9-.9" class="prefix__cls-4" data-name="Fill 468" transform="translate(39.082 49.078)"/>
                <path id="prefix__Fill_470" d="M.9 0a.9.9 0 1 0 .9.9.9.9 0 0 0-.9-.9" class="prefix__cls-4" data-name="Fill 470" transform="translate(42.676 49.078)"/>
                <path id="prefix__Fill_472" d="M.9 0a.9.9 0 0 0-.9.9.884.884 0 0 0 .342.688C.8 1.224 1.24.853 1.67.465A.886.886 0 0 0 .9 0" class="prefix__cls-4" data-name="Fill 472" transform="translate(46.27 49.078)"/>
                <path id="prefix__Fill_474" d="M.9 0a.9.9 0 1 0 .9.9.9.9 0 0 0-.9-.9" class="prefix__cls-4" data-name="Fill 474" transform="translate(30.097 51.773)"/>
                <path id="prefix__Fill_476" d="M.9 0a.9.9 0 1 0 .9.9.9.9 0 0 0-.9-.9" class="prefix__cls-4" data-name="Fill 476" transform="translate(33.691 51.773)"/>
                <path id="prefix__Fill_478" d="M.9 0a.9.9 0 1 0 .9.9.9.9 0 0 0-.9-.9" class="prefix__cls-4" data-name="Fill 478" transform="translate(37.285 51.773)"/>
                <path id="prefix__Fill_480" d="M.9 0a.9.9 0 1 0 .9.9.9.9 0 0 0-.9-.9" class="prefix__cls-4" data-name="Fill 480" transform="translate(40.879 51.773)"/>
                <path id="prefix__Fill_482" d="M.2.46C.3.39.4.318.506.247A.905.905 0 0 0 .2.46" class="prefix__cls-4" data-name="Fill 482" transform="translate(44.523 51.595)"/>
                <path id="prefix__Fill_484" d="M.006.9A.9.9 0 0 1 .9 0a.9.9 0 0 0 0 1.8.9.9 0 0 1-.9-.9" class="prefix__cls-4" data-name="Fill 484" transform="translate(28.3 54.468)"/>
                <path id="prefix__Fill_486" d="M.9 0a.9.9 0 1 0 .9.9.9.9 0 0 0-.9-.9" class="prefix__cls-4" data-name="Fill 486" transform="translate(31.894 54.468)"/>
                <path id="prefix__Fill_488" d="M.9 0a.9.9 0 0 0-.619 1.546c.494-.122.984-.255 1.467-.4A.855.855 0 0 0 1.8.9.9.9 0 0 0 .9 0" class="prefix__cls-4" data-name="Fill 488" transform="translate(35.488 54.468)"/>
                <path id="prefix__Fill_490" d="M0 .581C.335.45.668.317 1 .175A.862.862 0 0 0 .764.127.885.885 0 0 0 0 .581" class="prefix__cls-4" data-name="Fill 490" transform="translate(39.217 54.341)"/>
                <g id="prefix__Group_494" data-name="Group 494" transform="translate(0 26.878)">
                    <path id="prefix__Clip_493-2" d="M.01 0H.7v.856H.01z" class="prefix__cls-1" data-name="Clip 493" transform="translate(.698 .693)"/>
                    <g id="prefix__Group_494-2" data-name="Group 494">
                        <path id="prefix__Fill_492" d="M.661.856V.842A.888.888 0 0 0 .044 0v.028a.888.888 0 0 1 .617.828" class="prefix__cls-4" data-name="Fill 492" transform="translate(.688 .693)"/>
                    </g>
                </g>
                <g id="prefix__Group_497" data-name="Group 497" transform="translate(0 27.585)">
                    <path id="prefix__Clip_496-2" d="M.016 0h.675v1.657H.016z" class="prefix__cls-1" data-name="Clip 496" transform="translate(.691 .014)"/>
                    <g id="prefix__Group_497-2" data-name="Group 497">
                        <path id="prefix__Fill_495" d="M.674.828A.888.888 0 0 0 .057 0C.046.32.033.64.033.963c0 .233.012.463.018.695a.886.886 0 0 0 .623-.83" class="prefix__cls-4" data-name="Fill 495" transform="translate(.674 .014)"/>
                    </g>
                </g>
                <path id="prefix__Fill_498" d="M.9.028a.9.9 0 0 1 .9.884V.9A.9.9 0 0 0 0 .9v.012A.9.9 0 0 1 .9.028" class="prefix__cls-4" data-name="Fill 498" transform="translate(3.148 27.514)"/>
                <path id="prefix__Fill_500" d="M.9 1.769a.9.9 0 0 0 .9-.885.9.9 0 0 0-1.8 0 .9.9 0 0 0 .9.885" class="prefix__cls-4" data-name="Fill 500" transform="translate(3.151 27.543)"/>
                <path id="prefix__Fill_502" d="M.9.028a.9.9 0 0 1 .9.884.1.1 0 0 0 0-.012.9.9 0 0 0-1.8 0v.012A.9.9 0 0 1 .9.028" class="prefix__cls-4" data-name="Fill 502" transform="translate(6.743 27.514)"/>
                <path id="prefix__Fill_504" d="M.9 1.769a.9.9 0 0 0 .9-.885.9.9 0 0 0-1.8 0 .9.9 0 0 0 .9.885" class="prefix__cls-4" data-name="Fill 504" transform="translate(6.745 27.543)"/>
                <path id="prefix__Fill_506" d="M0 .912a.9.9 0 0 1 1.791 0A.1.1 0 0 0 1.8.9.9.9 0 0 0 0 .9v.012" class="prefix__cls-4" data-name="Fill 506" transform="translate(10.336 27.514)"/>
                <path id="prefix__Fill_508" d="M.9 0a.9.9 0 0 0-.9.884.9.9 0 0 0 1.791 0A.9.9 0 0 0 .9 0" class="prefix__cls-4" data-name="Fill 508" transform="translate(10.339 27.543)"/>
                <path id="prefix__Fill_510" d="M0 .912a.9.9 0 0 1 1.791 0A.1.1 0 0 0 1.8.9.9.9 0 0 0 0 .9v.012" class="prefix__cls-4" data-name="Fill 510" transform="translate(13.93 27.514)"/>
                <path id="prefix__Fill_512" d="M.9 0a.9.9 0 0 0-.9.884.9.9 0 0 0 1.791 0A.9.9 0 0 0 .9 0" class="prefix__cls-4" data-name="Fill 512" transform="translate(13.933 27.543)"/>
                <path id="prefix__Fill_514" d="M.9.028a.9.9 0 0 1 .9.884.1.1 0 0 0 0-.012.9.9 0 0 0-1.8 0v.012A.9.9 0 0 1 .9.028" class="prefix__cls-4" data-name="Fill 514" transform="translate(17.524 27.514)"/>
                <path id="prefix__Fill_516" d="M.9 1.769a.9.9 0 0 0 .9-.885.9.9 0 0 0-1.8 0 .9.9 0 0 0 .9.885" class="prefix__cls-4" data-name="Fill 516" transform="translate(17.527 27.543)"/>
                <path id="prefix__Fill_518" d="M.9.028a.9.9 0 0 1 .9.884V.9A.9.9 0 0 0 0 .9v.012A.9.9 0 0 1 .9.028" class="prefix__cls-4" data-name="Fill 518" transform="translate(21.118 27.514)"/>
                <path id="prefix__Fill_520" d="M.9 1.769a.9.9 0 0 0 .9-.885.9.9 0 0 0-1.8 0 .9.9 0 0 0 .9.885" class="prefix__cls-4" data-name="Fill 520" transform="translate(21.121 27.543)"/>
                <path id="prefix__Fill_522" d="M.9 0a.9.9 0 0 0-.9.9v.012a.9.9 0 0 1 1.791 0L1.8.9A.9.9 0 0 0 .9 0" class="prefix__cls-4" data-name="Fill 522" transform="translate(24.712 27.514)"/>
                <path id="prefix__Fill_524" d="M.9 0a.9.9 0 0 0-.9.884.9.9 0 0 0 1.791 0A.9.9 0 0 0 .9 0" class="prefix__cls-4" data-name="Fill 524" transform="translate(24.715 27.543)"/>
                <path id="prefix__Fill_526" d="M0 0a.9.9 0 0 1 .9.9v0A.9.9 0 0 0 0 0" class="prefix__cls-4" data-name="Fill 526" transform="translate(29.202 27.514)"/>
                <path id="prefix__Fill_528" d="M.351.353V.34v.013" class="prefix__cls-4" data-name="Fill 528" transform="translate(29.744 28.073)"/>
                <path id="prefix__Fill_530" d="M0 .884A.9.9 0 0 0 .9.013L.893 0A.9.9 0 0 1 0 .884" class="prefix__cls-4" data-name="Fill 530" transform="translate(29.202 28.427)"/>
                <path id="prefix__Fill_532" d="M0 .9A.9.9 0 0 1 .893.028.9.9 0 0 1 1.792.9.9.9 0 1 0 0 .9" class="prefix__cls-4" data-name="Fill 532" transform="translate(28.306 27.515)"/>
                <path id="prefix__Fill_534" d="M.9 0a.9.9 0 0 0-.9.871v.013A.9.9 0 0 1 .9 0" class="prefix__cls-4" data-name="Fill 534" transform="translate(28.306 27.543)"/>
                <path id="prefix__Fill_536" d="M0 0a.9.9 0 0 1 .893.884S.9.876.9.871A.9.9 0 0 0 0 0" class="prefix__cls-4" data-name="Fill 536" transform="translate(29.202 27.543)"/>
                <path id="prefix__Fill_538" d="M.893 0A.9.9 0 0 0 0 .883a.893.893 0 0 0 1.786 0A.9.9 0 0 0 .893 0" class="prefix__cls-4" data-name="Fill 538" transform="translate(28.309 27.543)"/>
                <path id="prefix__Fill_540" d="M.9 0a.9.9 0 1 0 .9.9.9.9 0 0 0-.9-.9" class="prefix__cls-4" data-name="Fill 540" transform="translate(1.352 30.21)"/>
                <path id="prefix__Fill_542" d="M.9 1.8A.9.9 0 1 0 0 .9a.9.9 0 0 0 .9.9" class="prefix__cls-4" data-name="Fill 542" transform="translate(4.946 30.21)"/>
                <path id="prefix__Fill_544" d="M.9 1.8A.9.9 0 1 0 0 .9a.9.9 0 0 0 .9.9" class="prefix__cls-4" data-name="Fill 544" transform="translate(8.54 30.21)"/>
                <path id="prefix__Fill_546" d="M.9 0a.9.9 0 1 0 .9.9.9.9 0 0 0-.9-.9" class="prefix__cls-4" data-name="Fill 546" transform="translate(12.133 30.21)"/>
                <path id="prefix__Fill_548" d="M.9 0a.9.9 0 1 0 .9.9.9.9 0 0 0-.9-.9" class="prefix__cls-4" data-name="Fill 548" transform="translate(15.727 30.21)"/>
                <path id="prefix__Fill_550" d="M.9 1.8A.9.9 0 1 0 0 .9a.9.9 0 0 0 .9.9" class="prefix__cls-4" data-name="Fill 550" transform="translate(19.321 30.21)"/>
                <path id="prefix__Fill_552" d="M.9 1.8A.9.9 0 1 0 0 .9a.9.9 0 0 0 .9.9" class="prefix__cls-4" data-name="Fill 552" transform="translate(22.915 30.21)"/>
                <path id="prefix__Fill_554" d="M.9 1.8A.9.9 0 1 0 0 .9a.9.9 0 0 0 .9.9" class="prefix__cls-4" data-name="Fill 554" transform="translate(26.508 30.21)"/>
                <path id="prefix__Fill_556" d="M.221 0C.276.338.334.675.4 1.009A.884.884 0 0 0 .486.637.9.9 0 0 0 .221 0" class="prefix__cls-4" data-name="Fill 556" transform="translate(.865 33.167)"/>
                <path id="prefix__Fill_558" d="M.9 1.8A.9.9 0 1 0 0 .9a.9.9 0 0 0 .9.9" class="prefix__cls-4" data-name="Fill 558" transform="translate(3.148 32.905)"/>
                <path id="prefix__Fill_560" d="M.9 0a.9.9 0 1 0 .9.9.9.9 0 0 0-.9-.9" class="prefix__cls-4" data-name="Fill 560" transform="translate(6.743 32.905)"/>
                <path id="prefix__Fill_562" d="M.9 1.8A.9.9 0 1 0 0 .9a.9.9 0 0 0 .9.9" class="prefix__cls-4" data-name="Fill 562" transform="translate(10.337 32.905)"/>
                <path id="prefix__Fill_564" d="M.9 0a.9.9 0 1 0 .9.9.9.9 0 0 0-.9-.9" class="prefix__cls-4" data-name="Fill 564" transform="translate(13.93 32.905)"/>
                <path id="prefix__Fill_566" d="M.9 0a.9.9 0 1 0 .9.9.9.9 0 0 0-.9-.9" class="prefix__cls-4" data-name="Fill 566" transform="translate(17.524 32.905)"/>
                <path id="prefix__Fill_568" d="M.9 1.8A.9.9 0 1 0 0 .9a.9.9 0 0 0 .9.9" class="prefix__cls-4" data-name="Fill 568" transform="translate(21.118 32.905)"/>
                <path id="prefix__Fill_570" d="M.9 1.8A.9.9 0 1 0 0 .9a.9.9 0 0 0 .9.9" class="prefix__cls-4" data-name="Fill 570" transform="translate(24.712 32.905)"/>
                <path id="prefix__Fill_572" d="M0 0a.9.9 0 0 1 .9.9.9.9 0 0 1-.9.9A.9.9 0 1 0 0 0" class="prefix__cls-4" data-name="Fill 572" transform="translate(29.202 32.905)"/>
                <path id="prefix__Fill_574" d="M1.792.9a.9.9 0 1 0-.9.9.9.9 0 0 0 .9-.9" class="prefix__cls-4" data-name="Fill 574" transform="translate(28.306 32.905)"/>
                <path id="prefix__Fill_576" d="M1.492.9a.9.9 0 0 0-.9-.9A.885.885 0 0 0 0 .236c.137.517.291 1.028.458 1.533a.8.8 0 0 0 .135.031.9.9 0 0 0 .9-.9" class="prefix__cls-4" data-name="Fill 576" transform="translate(1.656 35.6)"/>
                <path id="prefix__Fill_578" d="M.9 1.8A.9.9 0 1 0 0 .9a.9.9 0 0 0 .9.9" class="prefix__cls-4" data-name="Fill 578" transform="translate(4.946 35.601)"/>
                <path id="prefix__Fill_580" d="M.9 0a.9.9 0 1 0 .9.9.9.9 0 0 0-.9-.9" class="prefix__cls-4" data-name="Fill 580" transform="translate(8.54 35.601)"/>
                <path id="prefix__Fill_582" d="M.9 1.8A.9.9 0 1 0 0 .9a.9.9 0 0 0 .9.9" class="prefix__cls-4" data-name="Fill 582" transform="translate(12.133 35.601)"/>
                <path id="prefix__Fill_584" d="M.9 1.8A.9.9 0 1 0 0 .9a.9.9 0 0 0 .9.9" class="prefix__cls-4" data-name="Fill 584" transform="translate(15.727 35.601)"/>
                <path id="prefix__Fill_586" d="M.9 1.8A.9.9 0 1 0 0 .9a.9.9 0 0 0 .9.9" class="prefix__cls-4" data-name="Fill 586" transform="translate(19.321 35.601)"/>
                <path id="prefix__Fill_588" d="M.9 0a.9.9 0 1 0 .9.9.9.9 0 0 0-.9-.9" class="prefix__cls-4" data-name="Fill 588" transform="translate(22.915 35.601)"/>
                <path id="prefix__Fill_590" d="M.9 1.8A.9.9 0 1 0 0 .9a.9.9 0 0 0 .9.9" class="prefix__cls-4" data-name="Fill 590" transform="translate(26.508 35.601)"/>
                <path id="prefix__Fill_592" d="M.9 0a.9.9 0 1 0 .9.9.9.9 0 0 0-.9-.9" class="prefix__cls-4" data-name="Fill 592" transform="translate(3.148 38.296)"/>
                <path id="prefix__Fill_594" d="M.9 1.8A.9.9 0 1 0 0 .9a.9.9 0 0 0 .9.9" class="prefix__cls-4" data-name="Fill 594" transform="translate(6.743 38.296)"/>
                <path id="prefix__Fill_596" d="M.9 1.8A.9.9 0 1 0 0 .9a.9.9 0 0 0 .9.9" class="prefix__cls-4" data-name="Fill 596" transform="translate(10.337 38.296)"/>
                <path id="prefix__Fill_598" d="M.9 1.8A.9.9 0 1 0 0 .9a.9.9 0 0 0 .9.9" class="prefix__cls-4" data-name="Fill 598" transform="translate(13.93 38.296)"/>
                <path id="prefix__Fill_600" d="M.9 1.8A.9.9 0 1 0 0 .9a.9.9 0 0 0 .9.9" class="prefix__cls-4" data-name="Fill 600" transform="translate(17.524 38.296)"/>
                <path id="prefix__Fill_602" d="M.9 1.8A.9.9 0 1 0 0 .9a.9.9 0 0 0 .9.9" class="prefix__cls-4" data-name="Fill 602" transform="translate(21.118 38.296)"/>
                <path id="prefix__Fill_604" d="M.9 1.8A.9.9 0 1 0 0 .9a.9.9 0 0 0 .9.9" class="prefix__cls-4" data-name="Fill 604" transform="translate(24.712 38.296)"/>
                <path id="prefix__Fill_606" d="M.9.9a.9.9 0 0 1-.9.9.9.9 0 0 0 .9-.9A.9.9 0 0 0 0 0a.9.9 0 0 1 .9.9" class="prefix__cls-4" data-name="Fill 606" transform="translate(29.202 38.296)"/>
                <path id="prefix__Fill_608" d="M0 .9A.9.9 0 1 0 .9 0a.9.9 0 0 0-.9.9" class="prefix__cls-4" data-name="Fill 608" transform="translate(28.306 38.296)"/>
                <path id="prefix__Fill_610" d="M.9 0a.9.9 0 1 0 .9.9.9.9 0 0 0-.9-.9" class="prefix__cls-4" data-name="Fill 610" transform="translate(4.946 40.991)"/>
                <path id="prefix__Fill_612" d="M.9 1.8A.9.9 0 1 0 0 .9a.9.9 0 0 0 .9.9" class="prefix__cls-4" data-name="Fill 612" transform="translate(8.54 40.991)"/>
                <path id="prefix__Fill_614" d="M.9 1.8A.9.9 0 1 0 0 .9a.9.9 0 0 0 .9.9" class="prefix__cls-4" data-name="Fill 614" transform="translate(12.133 40.991)"/>
                <path id="prefix__Fill_616" d="M.9 0a.9.9 0 1 0 .9.9.9.9 0 0 0-.9-.9" class="prefix__cls-4" data-name="Fill 616" transform="translate(15.727 40.991)"/>
                <path id="prefix__Fill_618" d="M.9 0a.9.9 0 1 0 .9.9.9.9 0 0 0-.9-.9" class="prefix__cls-4" data-name="Fill 618" transform="translate(19.321 40.991)"/>
                <path id="prefix__Fill_620" d="M.9 1.8A.9.9 0 1 0 0 .9a.9.9 0 0 0 .9.9" class="prefix__cls-4" data-name="Fill 620" transform="translate(22.915 40.991)"/>
                <path id="prefix__Fill_622" d="M.9 1.8A.9.9 0 1 0 0 .9a.9.9 0 0 0 .9.9" class="prefix__cls-4" data-name="Fill 622" transform="translate(26.508 40.991)"/>
                <path id="prefix__Fill_624" d="M.9 0a.9.9 0 1 0 .9.9.9.9 0 0 0-.9-.9" class="prefix__cls-4" data-name="Fill 624" transform="translate(6.743 43.687)"/>
                <path id="prefix__Fill_626" d="M.9 0a.9.9 0 1 0 .9.9.9.9 0 0 0-.9-.9" class="prefix__cls-4" data-name="Fill 626" transform="translate(10.337 43.687)"/>
                <path id="prefix__Fill_628" d="M.9 1.8A.9.9 0 1 0 0 .9a.9.9 0 0 0 .9.9" class="prefix__cls-4" data-name="Fill 628" transform="translate(13.93 43.687)"/>
                <path id="prefix__Fill_630" d="M.9 1.8A.9.9 0 1 0 0 .9a.9.9 0 0 0 .9.9" class="prefix__cls-4" data-name="Fill 630" transform="translate(17.524 43.687)"/>
                <path id="prefix__Fill_632" d="M.9 1.8A.9.9 0 1 0 0 .9a.9.9 0 0 0 .9.9" class="prefix__cls-4" data-name="Fill 632" transform="translate(21.118 43.687)"/>
                <path id="prefix__Fill_634" d="M.9 0a.9.9 0 1 0 .9.9.9.9 0 0 0-.9-.9" class="prefix__cls-4" data-name="Fill 634" transform="translate(24.712 43.687)"/>
                <path id="prefix__Fill_636" d="M.9.9a.9.9 0 0 1-.9.9.9.9 0 0 0 .9-.9A.9.9 0 0 0 0 0a.9.9 0 0 1 .9.9" class="prefix__cls-4" data-name="Fill 636" transform="translate(29.202 43.686)"/>
                <path id="prefix__Fill_638" d="M0 .9A.9.9 0 1 0 .9 0a.9.9 0 0 0-.9.9" class="prefix__cls-4" data-name="Fill 638" transform="translate(28.306 43.687)"/>
                <path id="prefix__Fill_640" d="M.9 0a.9.9 0 1 0 .9.9.9.9 0 0 0-.9-.9" class="prefix__cls-4" data-name="Fill 640" transform="translate(8.54 46.382)"/>
                <path id="prefix__Fill_642" d="M.9 0a.9.9 0 1 0 .9.9.9.9 0 0 0-.9-.9" class="prefix__cls-4" data-name="Fill 642" transform="translate(12.133 46.382)"/>
                <path id="prefix__Fill_644" d="M.9 1.8A.9.9 0 1 0 0 .9a.9.9 0 0 0 .9.9" class="prefix__cls-4" data-name="Fill 644" transform="translate(15.727 46.382)"/>
                <path id="prefix__Fill_646" d="M.9 1.8A.9.9 0 1 0 0 .9a.9.9 0 0 0 .9.9" class="prefix__cls-4" data-name="Fill 646" transform="translate(19.321 46.382)"/>
                <path id="prefix__Fill_648" d="M.9 1.8A.9.9 0 1 0 0 .9a.9.9 0 0 0 .9.9" class="prefix__cls-4" data-name="Fill 648" transform="translate(22.915 46.382)"/>
                <path id="prefix__Fill_650" d="M.9 1.8A.9.9 0 1 0 0 .9a.9.9 0 0 0 .9.9" class="prefix__cls-4" data-name="Fill 650" transform="translate(26.508 46.382)"/>
                <path id="prefix__Fill_652" d="M1.768.9a.9.9 0 0 0-.9-.9A.887.887 0 0 0 0 .757q.576.505 1.179.978A.893.893 0 0 0 1.768.9" class="prefix__cls-4" data-name="Fill 652" transform="translate(10.365 49.077)"/>
                <path id="prefix__Fill_654" d="M.9 0a.9.9 0 1 0 .9.9.9.9 0 0 0-.9-.9" class="prefix__cls-4" data-name="Fill 654" transform="translate(13.93 49.078)"/>
                <path id="prefix__Fill_656" d="M.9 0a.9.9 0 1 0 .9.9.9.9 0 0 0-.9-.9" class="prefix__cls-4" data-name="Fill 656" transform="translate(17.524 49.078)"/>
                <path id="prefix__Fill_658" d="M.9 0a.9.9 0 1 0 .9.9.9.9 0 0 0-.9-.9" class="prefix__cls-4" data-name="Fill 658" transform="translate(21.118 49.078)"/>
                <path id="prefix__Fill_660" d="M.9 1.8A.9.9 0 1 0 0 .9a.9.9 0 0 0 .9.9" class="prefix__cls-4" data-name="Fill 660" transform="translate(24.712 49.078)"/>
                <path id="prefix__Fill_662" d="M.9.9a.9.9 0 0 1-.9.9.9.9 0 0 0 .9-.9A.9.9 0 0 0 0 0a.9.9 0 0 1 .9.9" class="prefix__cls-4" data-name="Fill 662" transform="translate(29.202 49.077)"/>
                <path id="prefix__Fill_664" d="M0 .9A.9.9 0 1 0 .9 0a.9.9 0 0 0-.9.9" class="prefix__cls-4" data-name="Fill 664" transform="translate(28.306 49.078)"/>
                <path id="prefix__Fill_666" d="M.149.006A.877.877 0 0 0 0 .036Q.5.379 1.006.7A.885.885 0 0 0 .149 0" class="prefix__cls-4" data-name="Fill 666" transform="translate(12.883 51.767)"/>
                <path id="prefix__Fill_668" d="M.9 0a.9.9 0 1 0 .9.9.9.9 0 0 0-.9-.9" class="prefix__cls-4" data-name="Fill 668" transform="translate(15.727 51.773)"/>
                <path id="prefix__Fill_670" d="M.9 0a.9.9 0 1 0 .9.9.9.9 0 0 0-.9-.9" class="prefix__cls-4" data-name="Fill 670" transform="translate(19.321 51.773)"/>
                <path id="prefix__Fill_672" d="M.9 0a.9.9 0 1 0 .9.9.9.9 0 0 0-.9-.9" class="prefix__cls-4" data-name="Fill 672" transform="translate(22.915 51.773)"/>
                <path id="prefix__Fill_674" d="M.9 0a.9.9 0 1 0 .9.9.9.9 0 0 0-.9-.9" class="prefix__cls-4" data-name="Fill 674" transform="translate(26.508 51.773)"/>
                <path id="prefix__Fill_676" d="M.457.024A.878.878 0 0 0 0 .167q.645.274 1.307.516a.886.886 0 0 0-.85-.659" class="prefix__cls-4" data-name="Fill 676" transform="translate(17.966 54.444)"/>
                <path id="prefix__Fill_678" d="M1.8.9A.9.9 0 1 0 0 .9a.888.888 0 0 0 .092.381q.65.186 1.313.341A.882.882 0 0 0 1.8.9" class="prefix__cls-4" data-name="Fill 678" transform="translate(21.118 54.468)"/>
                <path id="prefix__Fill_680" d="M.9 0a.9.9 0 1 0 .9.9.9.9 0 0 0-.9-.9" class="prefix__cls-4" data-name="Fill 680" transform="translate(24.712 54.468)"/>
                <path id="prefix__Fill_682" d="M0 0a.9.9 0 0 1 .9.9.9.9 0 0 1-.9.9.9.9 0 0 0 .9-.9A.9.9 0 0 0 0 0" class="prefix__cls-4" data-name="Fill 682" transform="translate(29.202 54.468)"/>
                <path id="prefix__Fill_684" d="M1.792.9a.9.9 0 1 0-.9.9.9.9 0 0 0 .9-.9" class="prefix__cls-4" data-name="Fill 684" transform="translate(28.306 54.469)"/>
            </g>
            <path id="prefix__Fill_687" d="M1.688 19.63a11.4 11.4 0 0 1-1.676-5.364C-.229 8.9 3.111 1.856 9 .349a7.7 7.7 0 0 1 4.265-.075c3.806 1.146 5.29 5.318 7.959 13.279 2.915 8.7 1.889 10.347 1.256 11.006-.413.43-1.2 1-4.076 1.158-2.727.146-12.546.675-16.716-6.087" class="prefix__cls-4" data-name="Fill 687" transform="translate(18.447 .686)"/>
            <path id="prefix__Fill_689" d="M16.48 26.276c-7.225 0-12.188-2.108-14.753-6.266a11.627 11.627 0 0 1-1.712-5.483C-.31 7.308 4.524 1.553 9.189.36A9.386 9.386 0 0 1 11.616 0a6.827 6.827 0 0 1 1.971.287C17.61 1.5 19.153 6.1 21.709 13.723c2.754 8.216 2.089 10.332 1.2 11.257-.5.525-1.4 1.082-4.242 1.235-.759.04-1.495.061-2.187.061zM11.62.5a9.008 9.008 0 0 0-2.3.34h-.009C3.742 2.263.265 9.055.51 14.5a11.11 11.11 0 0 0 1.639 5.246c2.468 4 7.287 6.03 14.324 6.03.7 0 1.427-.02 2.167-.06 2.683-.144 3.5-.654 3.912-1.083s1.7-1.769-1.313-10.755C18.526 5.789 17.061 1.85 13.444.761A6.342 6.342 0 0 0 11.62.5z" class="prefix__cls-11" data-name="Fill 689" transform="translate(18.197 .436)"/>
            <path id="prefix__Fill_691" d="M0 0l1 9.291 14.465.353 7.7-1.823a16.821 16.821 0 0 0 .826-7.056L0 0" class="prefix__cls-2" data-name="Fill 691" transform="translate(16.424 53.28)"/>
            <path id="prefix__Fill_693" d="M20.021 25.144a25.385 25.385 0 0 0 2.334-3.856 23.058 23.058 0 0 0 1.113-3.143C24.09 15.707 25.8 9 21.83 6.22c-1.9-1.328-4.4-1.269-5.748-3.385a4.442 4.442 0 0 1-.687-2.317L11.413 0a3.523 3.523 0 0 1-1.022 2.2c-.5.489-1.08.766-4.11 1.707-2.684.835-2.965.846-3.535 1.219A5.307 5.307 0 0 0 .662 8.173a13.658 13.658 0 0 0-.494 6.35 15.169 15.169 0 0 0 2.242 5.694 15.674 15.674 0 0 0 2.544 3.019" class="prefix__cls-2" data-name="Fill 693" transform="translate(15.547 17.576)"/>
            <path id="prefix__Fill_695" d="M20.469 25.567l-.4-.287a25.348 25.348 0 0 0 2.311-3.819 22.6 22.6 0 0 0 1.1-3.1c.628-2.454 2.3-8.977-1.539-11.659a10.089 10.089 0 0 0-2.287-1.084 6.358 6.358 0 0 1-3.527-2.37 4.633 4.633 0 0 1-.727-2.233L11.873.556a3.685 3.685 0 0 1-1.061 2.1c-.538.528-1.123.807-4.211 1.767-.719.224-1.266.388-1.693.517a6.031 6.031 0 0 0-1.78.673A5.021 5.021 0 0 0 1.143 8.53a13.445 13.445 0 0 0-.483 6.234 14.969 14.969 0 0 0 2.205 5.6 15.381 15.381 0 0 0 2.5 2.97l-.335.364a15.951 15.951 0 0 1-2.581-3.068A15.491 15.491 0 0 1 .17 14.841a13.961 13.961 0 0 1 .5-6.468 5.481 5.481 0 0 1 2.187-3.179 6.417 6.417 0 0 1 1.909-.734c.425-.128.971-.292 1.688-.515C9.418 3.024 10 2.752 10.464 2.3a3.253 3.253 0 0 0 .95-2.047L11.441 0l4.444.579v.213a4.178 4.178 0 0 0 .648 2.189 5.892 5.892 0 0 0 3.284 2.173 10.5 10.5 0 0 1 2.4 1.142c4.116 2.879 2.386 9.642 1.735 12.188a22.776 22.776 0 0 1-1.127 3.184 25.736 25.736 0 0 1-2.358 3.9" class="prefix__cls-11" data-name="Fill 695" transform="translate(15.3 17.297)"/>
            <path id="prefix__Fill_697" d="M12.161 9.96c-.123 0-.2-.006-.215-.007a4.755 4.755 0 0 1-3.888-3.281 4.563 4.563 0 0 1-.913 1.111c-1.4 1.234-3.827 1.825-5.468.677A4.331 4.331 0 0 1 .046 4.4a5.036 5.036 0 0 1 .274-.96 5.036 5.036 0 0 0 .362-1.652A5.845 5.845 0 0 0 .556.3.248.248 0 0 1 1.04.2a6.417 6.417 0 0 1 .137 1.61 5.526 5.526 0 0 1-.391 1.8 4.665 4.665 0 0 0-.251.871 3.868 3.868 0 0 0 1.426 3.573c1.441 1.009 3.6.466 4.856-.643a4.194 4.194 0 0 0 1.073-1.5l.294-.681.174.721a4.374 4.374 0 0 0 3.627 3.51 3.853 3.853 0 0 0 2.949-1.127 3.6 3.6 0 0 0 .875-1.958 3.418 3.418 0 0 0-.1-1.279 7.125 7.125 0 0 1-.184-1.343 7.291 7.291 0 0 1 .253-2.176.248.248 0 1 1 .478.13 6.79 6.79 0 0 0-.237 2.028 6.791 6.791 0 0 0 .181 1.257 3.9 3.9 0 0 1 .1 1.444 4.087 4.087 0 0 1-1 2.229 4.3 4.3 0 0 1-3.139 1.294" class="prefix__cls-11" data-name="Fill 697" transform="translate(19.75 26.03)"/>
            <path id="prefix__Fill_699" d="M3.087 3.381A18.18 18.18 0 0 1 0 8.878l19.111.765a21.106 21.106 0 0 1-2.234-5.116 21.049 21.049 0 0 1-.677-3.41L3.911 0a18.04 18.04 0 0 1-.823 3.381" class="prefix__cls-2" data-name="Fill 699" transform="translate(17.926 36.605)"/>
            <path id="prefix__Fill_701" d="M.925 23.613a.247.247 0 0 1-.242-.2c-1.2-5.631-.817-9.737 1.147-12.2a19.277 19.277 0 0 0 3.364-6.06 13.012 13.012 0 0 0 .3-1.927A11.237 11.237 0 0 0 5.309.294.248.248 0 0 1 5.5 0a.252.252 0 0 1 .291.2 11.7 11.7 0 0 1 .2 3.064 13.182 13.182 0 0 1-.315 2.012 19.27 19.27 0 0 1-3.447 6.236C.351 13.869 0 17.835 1.168 23.314a.248.248 0 0 1-.19.294.267.267 0 0 1-.052 0" class="prefix__cls-11" data-name="Fill 701" transform="translate(15.815 34.006)"/>
            <path id="prefix__Fill_703" d="M6.009 25.721a.261.261 0 0 1-.065-.008.247.247 0 0 1-.174-.3A18.139 18.139 0 0 0 5.616 15.2a17.766 17.766 0 0 0-3.309-6.049 11.831 11.831 0 0 1-1.9-3.928A11.968 11.968 0 0 1 .154.207a.248.248 0 0 1 .489.08 11.465 11.465 0 0 0 .245 4.8A11.323 11.323 0 0 0 2.7 8.847a18.223 18.223 0 0 1 3.391 6.2 18.644 18.644 0 0 1 .16 10.489.248.248 0 0 1-.239.182" class="prefix__cls-11" data-name="Fill 703" transform="translate(33.861 34.917)"/>
            <path id="prefix__Fill_705" d="M6.661 8.062a.247.247 0 0 1-.233-.162 13.859 13.859 0 0 0-2.75-4.6A13.857 13.857 0 0 0 .127.464.248.248 0 0 1 .368.032a14.346 14.346 0 0 1 3.678 2.932A14.342 14.342 0 0 1 6.894 7.73a.248.248 0 0 1-.233.332" class="prefix__cls-11" data-name="Fill 705" transform="translate(21.628 48.421)"/>
            <path id="prefix__Fill_707" d="M.512 15.082a.247.247 0 0 1-.243-.2 14.928 14.928 0 0 1 .987-8.832A14.757 14.757 0 0 1 6.188.046a.248.248 0 1 1 .286.4 14.253 14.253 0 0 0-4.764 5.8 14.423 14.423 0 0 0-.954 8.534.248.248 0 0 1-.2.291.268.268 0 0 1-.047 0" class="prefix__cls-11" data-name="Fill 707" transform="translate(27.149 49.284)"/>
            <path id="prefix__Fill_709" d="M6.769 0c2.6.622 4.569 3.43 4.569 6.8 0 3.834-2.539 6.939-5.666 6.939S0 10.638 0 6.8a8.877 8.877 0 0 1 .134-1.516" class="prefix__cls-2" data-name="Fill 709" transform="translate(23.62 5.012)"/>
            <path id="prefix__Fill_711" d="M5.92 14.231C2.656 14.231 0 11.007 0 7.046a9.216 9.216 0 0 1 .138-1.564l.488.084A8.668 8.668 0 0 0 .5 7.046c0 3.689 2.434 6.691 5.425 6.691s5.418-3 5.418-6.691c0-3.2-1.841-5.957-4.379-6.563L7.075 0c2.757.66 4.759 3.623 4.759 7.046 0 3.962-2.652 7.186-5.913 7.186" class="prefix__cls-11" data-name="Fill 711" transform="translate(23.372 4.771)"/>
            <path id="prefix__Fill_713" d="M.148 9.773L0 9.3a12.573 12.573 0 0 0 5.215-3.178A12.323 12.323 0 0 0 8.476 0l.485.1a12.825 12.825 0 0 1-3.392 6.368 13.072 13.072 0 0 1-5.421 3.3" class="prefix__cls-11" data-name="Fill 713" transform="translate(23.341 .871)"/>
            <path id="prefix__Fill_715" d="M0 3.1a6.192 6.192 0 0 0 1.025-1.62A6.171 6.171 0 0 0 1.454 0" class="prefix__cls-2" data-name="Fill 715" transform="translate(27.029 30.193)"/>
            <path id="prefix__Fill_717" d="M.248 3.595a.245.245 0 0 1-.163-.061.248.248 0 0 1-.024-.349 5.908 5.908 0 0 0 .984-1.555A5.9 5.9 0 0 0 1.457.208.252.252 0 0 1 1.74 0a.248.248 0 0 1 .206.283A6.4 6.4 0 0 1 1.5 1.825 6.442 6.442 0 0 1 .434 3.511a.249.249 0 0 1-.187.084" class="prefix__cls-11" data-name="Fill 717" transform="translate(26.782 29.947)"/>
            <path id="prefix__Fill_719" d="M2.01 0C1.876.007.492.095.108.91c-.4.858.326 2.456 2.205 3.221A9.874 9.874 0 0 1 2.01 0" class="prefix__cls-2" data-name="Fill 719" transform="translate(21.643 10.323)"/>
            <path id="prefix__Fill_721" d="M2.943 4.816l-.473-.192A4.04 4.04 0 0 1 .16 2.483a1.8 1.8 0 0 1-.028-1.417C.564.148 1.968.03 2.245.015l.3-.015L2.5.3a9.6 9.6 0 0 0 .3 4.027l.143.49zM1.974.542C1.554.6.814.782.58 1.278A1.339 1.339 0 0 0 .621 2.3a3.4 3.4 0 0 0 1.565 1.64 10.251 10.251 0 0 1-.24-1.549A10.191 10.191 0 0 1 1.974.542z" class="prefix__cls-11" data-name="Fill 721" transform="translate(21.395 10.06)"/>
            <path id="prefix__Fill_723" d="M0 4.307a12.408 12.408 0 0 0 2.925-1.713A12.391 12.391 0 0 0 5.388 0L0 4.307" class="prefix__cls-4" data-name="Fill 723" transform="translate(24.395 5.476)"/>
            <path id="prefix__Fill_725" d="M.767.533a29.2 29.2 0 0 1 14.8.97 5.03 5.03 0 0 1 .368 3.19c-.335 1.392-1.258 1.968-1.585 3.662a5.883 5.883 0 0 0-.039 1.959L1.688 9.9a8.809 8.809 0 0 0 .079-1.254A6.955 6.955 0 0 0 1.649 7.3C1.436 6.3.984 6.2.5 5.14A5.059 5.059 0 0 1 0 2.885 4.578 4.578 0 0 1 .767.533" class="prefix__cls-2" data-name="Fill 725" transform="translate(19.835 27.986)"/>
            <path id="prefix__Fill_727" d="M14.845 10.818l-13.192-.429.037-.272A8.759 8.759 0 0 0 1.766 8.9v-.018A6.766 6.766 0 0 0 1.654 7.6a2.464 2.464 0 0 0-.518-1.079 5.453 5.453 0 0 1-.612-1.032A5.271 5.271 0 0 1 0 3.125 4.871 4.871 0 0 1 .806.646L.863.557l.1-.02A29.576 29.576 0 0 1 6.573 0C7.213 0 7.86.021 8.5.063a29.546 29.546 0 0 1 7.4 1.453l.1.036.043.1A5.367 5.367 0 0 1 16.426 5a5.771 5.771 0 0 1-.745 1.648v.007a5.74 5.74 0 0 0-.836 1.993 5.627 5.627 0 0 0-.037 1.877l.042.29zM6.571.5a29.046 29.046 0 0 0-5.406.5A4.348 4.348 0 0 0 .5 3.14a4.8 4.8 0 0 0 .474 2.142 4.974 4.974 0 0 0 .564.944 2.986 2.986 0 0 1 .6 1.266 7.106 7.106 0 0 1 .122 1.4 9.2 9.2 0 0 1-.049 1.018l12.065.393a6.077 6.077 0 0 1 .076-1.75 6.137 6.137 0 0 1 .9-2.151 5.3 5.3 0 0 0 .7-1.522 4.828 4.828 0 0 0-.313-2.932A29 29 0 0 0 8.465.557C7.838.516 7.2.5 6.571.5z" class="prefix__cls-11" data-name="Fill 727" transform="translate(19.588 27.739)"/>
            <path id="prefix__Fill_729" d="M2.532 0L20.8.353A16.688 16.688 0 0 1 24.347 10.9a50.1 50.1 0 0 1-12.7 1.764A50.13 50.13 0 0 1 .356 11.486a21.158 21.158 0 0 1-.117-6.88 9.267 9.267 0 0 1 .784-2.469A8.571 8.571 0 0 1 2.532 0" class="prefix__cls-2" data-name="Fill 729" transform="translate(16.13 44.318)"/>
            <path id="prefix__Fill_731" d="M11.408 13.162A50.517 50.517 0 0 1 .549 11.978l-.163-.037-.029-.164A21.38 21.38 0 0 1 .241 4.81a9.914 9.914 0 0 1 .806-2.534A8.761 8.761 0 0 1 2.6.077L2.674 0l18.494.357.073.093a16.946 16.946 0 0 1 3.6 10.7v.186l-.179.05a50.434 50.434 0 0 1-12.765 1.772zM2.882.5a8.317 8.317 0 0 0-1.391 2 9.435 9.435 0 0 0-.764 2.4 20.768 20.768 0 0 0 .092 6.63 50.527 50.527 0 0 0 10.7 1.136h.375a49.924 49.924 0 0 0 12.458-1.708A16.451 16.451 0 0 0 20.923.848L2.882.5z" class="prefix__cls-11" data-name="Fill 731" transform="translate(15.884 44.068)"/>
            <path id="prefix__Fill_733" d="M1.871 15.077a.247.247 0 0 1-.216-.127A13.093 13.093 0 0 1 .1 7.038 13.116 13.116 0 0 1 3.213.084a.247.247 0 1 1 .372.326 12.621 12.621 0 0 0-3 6.688 12.6 12.6 0 0 0 1.5 7.61.247.247 0 0 1-.216.369" class="prefix__cls-11" data-name="Fill 733" transform="translate(10.911 42.973)"/>
            <path id="prefix__Fill_735" d="M.714 9.282a.248.248 0 0 1-.237-.176A11.289 11.289 0 0 1 .1 4.33 11.155 11.155 0 0 1 1.588.12a.248.248 0 1 1 .425.254A10.646 10.646 0 0 0 .6 4.4a10.787 10.787 0 0 0 .351 4.564.247.247 0 0 1-.166.308.23.23 0 0 1-.071.011" class="prefix__cls-11" data-name="Fill 735" transform="translate(8.276 44.894)"/>
            <path id="prefix__Fill_737" d="M1.334 9.282a.23.23 0 0 1-.071-.011.247.247 0 0 1-.163-.307A10.787 10.787 0 0 0 1.452 4.4 10.782 10.782 0 0 0 .035.374.248.248 0 1 1 .46.12a11.134 11.134 0 0 1 1.483 4.209 11.289 11.289 0 0 1-.372 4.777.248.248 0 0 1-.237.176" class="prefix__cls-11" data-name="Fill 737" transform="translate(46.379 44.894)"/>
            <path id="prefix__Fill_739" d="M2.9 14.916a.247.247 0 0 1-.225-.351 12.593 12.593 0 0 0 .907-7.7A12.628 12.628 0 0 0 .075.424.247.247 0 1 1 .42.07a13.121 13.121 0 0 1 3.645 6.693 13.1 13.1 0 0 1-.944 8.009.248.248 0 0 1-.225.144" class="prefix__cls-11" data-name="Fill 739" transform="translate(41.048 42.881)"/>
            <path id="prefix__Fill_741" d="M14.444 7.1c.2.892.733 3.289-.675 5.227-1.934 2.664-5.891 2.191-6.421 2.121-2.936-.4-7.271-2.7-7.347-7.1A7.222 7.222 0 0 1 7.1 0c4.523-.079 6.787 4.578 7.347 7.1" class="prefix__cls-12" data-name="Fill 741" transform="translate(20.472 26.079)"/>
            <path id="prefix__Fill_743" d="M14.444 7.1c.2.892.733 3.289-.675 5.228-1.934 2.663-5.891 2.191-6.421 2.12-2.936-.4-7.271-2.7-7.347-7.1A7.221 7.221 0 0 1 7.1 0c4.523-.079 6.787 4.577 7.347 7.1" class="prefix__cls-12" data-name="Fill 743" transform="translate(20.708 44.662)"/>
        </g>
    </g>
</svg>
