<svg xmlns="http://www.w3.org/2000/svg" width="63.379" height="71.182" viewBox="0 0 63.379 71.182">
    <defs>
        <clipPath id="prefix__clip-path">
            <path id="prefix__Clip_148" d="M.137 0h.519v.793H.137z" class="prefix__cls-1" data-name="Clip 148" transform="translate(.101 .221)"/>
        </clipPath>
        <clipPath id="prefix__clip-path-2">
            <path id="prefix__Clip_297" d="M.013 0H.78v.962H.013z" class="prefix__cls-1" data-name="Clip 297" transform="translate(.78 .307)"/>
        </clipPath>
        <clipPath id="prefix__clip-path-3">
            <path id="prefix__Clip_352" d="M.135 0h.523v.793H.135z" class="prefix__cls-1" data-name="Clip 352" transform="translate(.099 .399)"/>
        </clipPath>
        <clipPath id="prefix__clip-path-4">
            <path id="prefix__Clip_355" d="M.14 0h.512v1.168H.14z" class="prefix__cls-1" data-name="Clip 355" transform="translate(.105 .521)"/>
        </clipPath>
        <clipPath id="prefix__clip-path-5">
            <path id="prefix__Clip_492" d="M.011 0h.771v.959H.011z" class="prefix__cls-1" data-name="Clip 492" transform="translate(.782 .141)"/>
        </clipPath>
        <clipPath id="prefix__clip-path-6">
            <path id="prefix__Clip_495" d="M.018 0h.756v1.857H.018z" class="prefix__cls-1" data-name="Clip 495" transform="translate(.774 .172)"/>
        </clipPath>
        <style>
            .prefix__cls-1,.prefix__cls-11,.prefix__cls-12{fill:none}.prefix__cls-3{fill:#c5eb8c}.prefix__cls-10{fill:#fff}.prefix__cls-11,.prefix__cls-12{stroke:#2d2d2d;stroke-miterlimit:10;stroke-width:.555px}.prefix__cls-12{stroke-linecap:round}
        </style>
    </defs>
    <g id="prefix__ic_pregnancy_problems" transform="translate(-.793 -.771)">
        <g id="prefix__Group_685" data-name="Group 685" transform="translate(0 6.927)" style="opacity:.4">
            <path id="prefix__Fill_1" d="M1.008 2.014A1.006 1.006 0 0 1 1.01 0a1.007 1.007 0 1 0 0 2.014" class="prefix__cls-3" data-name="Fill 1" transform="translate(31.716 .024)"/>
            <path id="prefix__Fill_3" d="M1.008 2.014A1.007 1.007 0 1 0 0 1.007a1.007 1.007 0 0 0 1.008 1.007" class="prefix__cls-3" data-name="Fill 3" transform="translate(35.743 .024)"/>
            <path id="prefix__Fill_5" d="M1.008 1.471a1 1 0 0 0 1-.965C1.388.316.761.151.128 0A.981.981 0 0 0 0 .464a1.007 1.007 0 0 0 1.008 1.007" class="prefix__cls-3" data-name="Fill 5" transform="translate(39.771 .567)"/>
            <path id="prefix__Fill_7" d="M1.008 2.014A1.007 1.007 0 1 0 0 1.007a1.007 1.007 0 0 0 1.008 1.007" class="prefix__cls-3" data-name="Fill 7" transform="translate(33.73 3.044)"/>
            <path id="prefix__Fill_9" d="M1.008 2.014A1.007 1.007 0 1 0 0 1.007a1.007 1.007 0 0 0 1.008 1.007" class="prefix__cls-3" data-name="Fill 9" transform="translate(37.757 3.044)"/>
            <path id="prefix__Fill_11" d="M1.008 2.014A1.007 1.007 0 1 0 0 1.007a1.007 1.007 0 0 0 1.008 1.007" class="prefix__cls-3" data-name="Fill 11" transform="translate(41.785 3.044)"/>
            <path id="prefix__Fill_13" d="M0 .987a1.007 1.007 0 1 0 2.014 0A.973.973 0 0 0 1.871.5C1.554.327 1.23.163.907 0A1 1 0 0 0 0 .987" class="prefix__cls-3" data-name="Fill 13" transform="translate(45.813 3.065)"/>
            <path id="prefix__Fill_15" d="M.006 1.007A1.008 1.008 0 0 1 1.01 0a1.007 1.007 0 0 0 0 2.014 1.007 1.007 0 0 1-1-1.007" class="prefix__cls-3" data-name="Fill 15" transform="translate(31.717 6.065)"/>
            <path id="prefix__Fill_17" d="M1.008 0a1.007 1.007 0 1 0 1.006 1.007A1.007 1.007 0 0 0 1.008 0" class="prefix__cls-3" data-name="Fill 17" transform="translate(35.743 6.066)"/>
            <path id="prefix__Fill_19" d="M1.008 2.013A1.007 1.007 0 1 0 0 1.006a1.007 1.007 0 0 0 1.008 1.007" class="prefix__cls-3" data-name="Fill 19" transform="translate(39.771 6.066)"/>
            <path id="prefix__Fill_21" d="M1.007 2.013A1.007 1.007 0 1 0 0 1.006a1.007 1.007 0 0 0 1.007 1.007" class="prefix__cls-3" data-name="Fill 21" transform="translate(43.799 6.066)"/>
            <path id="prefix__Fill_23" d="M1.007 2.013A1.007 1.007 0 1 0 0 1.006a1.007 1.007 0 0 0 1.007 1.007" class="prefix__cls-3" data-name="Fill 23" transform="translate(47.827 6.066)"/>
            <path id="prefix__Fill_25" d="M1.007 1.6a1 1 0 0 0 .736-.329C1.248.832.739.41.217 0A.981.981 0 0 0 0 .6a1.007 1.007 0 0 0 1.007 1" class="prefix__cls-3" data-name="Fill 25" transform="translate(51.855 6.475)"/>
            <path id="prefix__Fill_27" d="M1.008 0a1.007 1.007 0 1 0 1.006 1.008A1.007 1.007 0 0 0 1.008 0" class="prefix__cls-3" data-name="Fill 27" transform="translate(33.73 9.086)"/>
            <path id="prefix__Fill_29" d="M1.008 0a1.007 1.007 0 1 0 1.006 1.008A1.007 1.007 0 0 0 1.008 0" class="prefix__cls-3" data-name="Fill 29" transform="translate(37.757 9.086)"/>
            <path id="prefix__Fill_31" d="M1.008 0a1.007 1.007 0 1 0 1.006 1.008A1.007 1.007 0 0 0 1.008 0" class="prefix__cls-3" data-name="Fill 31" transform="translate(41.785 9.086)"/>
            <path id="prefix__Fill_33" d="M1.008 2.013A1.007 1.007 0 1 0 0 1.007a1.007 1.007 0 0 0 1.008 1.006" class="prefix__cls-3" data-name="Fill 33" transform="translate(45.813 9.086)"/>
            <path id="prefix__Fill_35" d="M1.007 2.013A1.007 1.007 0 1 0 0 1.007a1.007 1.007 0 0 0 1.007 1.006" class="prefix__cls-3" data-name="Fill 35" transform="translate(49.841 9.086)"/>
            <path id="prefix__Fill_37" d="M0 1.008a1.007 1.007 0 0 0 2.014 0A1.043 1.043 0 0 0 1.992.9c-.27-.3-.545-.584-.825-.868A.988.988 0 0 0 1.007 0 1.007 1.007 0 0 0 0 1.008" class="prefix__cls-3" data-name="Fill 37" transform="translate(53.868 9.086)"/>
            <path id="prefix__Fill_39" d="M.006 1.008A1.007 1.007 0 0 1 1.01 0a1.007 1.007 0 0 0 0 2.014 1.007 1.007 0 0 1-1-1.007" class="prefix__cls-3" data-name="Fill 39" transform="translate(31.717 12.106)"/>
            <path id="prefix__Fill_41" d="M1.008 2.013A1.007 1.007 0 1 0 0 1.007a1.007 1.007 0 0 0 1.008 1.006" class="prefix__cls-3" data-name="Fill 41" transform="translate(35.743 12.107)"/>
            <path id="prefix__Fill_43" d="M1.008 0a1.007 1.007 0 1 0 1.006 1.008A1.007 1.007 0 0 0 1.008 0" class="prefix__cls-3" data-name="Fill 43" transform="translate(39.771 12.107)"/>
            <path id="prefix__Fill_45" d="M1.007 0a1.007 1.007 0 1 0 1.007 1.008A1.007 1.007 0 0 0 1.007 0" class="prefix__cls-3" data-name="Fill 45" transform="translate(43.799 12.107)"/>
            <path id="prefix__Fill_47" d="M1.007 0a1.007 1.007 0 1 0 1.007 1.008A1.007 1.007 0 0 0 1.007 0" class="prefix__cls-3" data-name="Fill 47" transform="translate(47.827 12.107)"/>
            <path id="prefix__Fill_49" d="M1.007 2.013A1.007 1.007 0 1 0 0 1.007a1.007 1.007 0 0 0 1.007 1.006" class="prefix__cls-3" data-name="Fill 49" transform="translate(51.855 12.107)"/>
            <path id="prefix__Fill_51" d="M1.007 2.013A1.007 1.007 0 1 0 0 1.007a1.007 1.007 0 0 0 1.007 1.006" class="prefix__cls-3" data-name="Fill 51" transform="translate(55.882 12.107)"/>
            <path id="prefix__Fill_53" d="M1.008 0a1.007 1.007 0 1 0 1.006 1.008A1.007 1.007 0 0 0 1.008 0" class="prefix__cls-3" data-name="Fill 53" transform="translate(33.73 15.127)"/>
            <path id="prefix__Fill_55" d="M1.008 0a1.007 1.007 0 1 0 1.006 1.008A1.007 1.007 0 0 0 1.008 0" class="prefix__cls-3" data-name="Fill 55" transform="translate(37.757 15.127)"/>
            <path id="prefix__Fill_57" d="M1.008 2.014A1.007 1.007 0 1 0 0 1.007a1.007 1.007 0 0 0 1.008 1.007" class="prefix__cls-3" data-name="Fill 57" transform="translate(41.785 15.127)"/>
            <path id="prefix__Fill_59" d="M1.008 0a1.007 1.007 0 1 0 1.006 1.008A1.007 1.007 0 0 0 1.008 0" class="prefix__cls-3" data-name="Fill 59" transform="translate(45.813 15.127)"/>
            <path id="prefix__Fill_61" d="M1.007 0a1.007 1.007 0 1 0 1.007 1.008A1.007 1.007 0 0 0 1.007 0" class="prefix__cls-3" data-name="Fill 61" transform="translate(49.841 15.127)"/>
            <path id="prefix__Fill_63" d="M1.007 2.014A1.007 1.007 0 1 0 0 1.007a1.007 1.007 0 0 0 1.007 1.007" class="prefix__cls-3" data-name="Fill 63" transform="translate(53.868 15.127)"/>
            <path id="prefix__Fill_65" d="M1.007 2.014A1.007 1.007 0 1 0 0 1.007a1.007 1.007 0 0 0 1.007 1.007" class="prefix__cls-3" data-name="Fill 65" transform="translate(57.896 15.127)"/>
            <path id="prefix__Fill_67" d="M.006 1.007A1.007 1.007 0 0 1 1.01 0a1.007 1.007 0 0 0 0 2.014 1.007 1.007 0 0 1-1-1.007" class="prefix__cls-3" data-name="Fill 67" transform="translate(31.717 18.148)"/>
            <path id="prefix__Fill_69" d="M1.008 0a1.007 1.007 0 1 0 1.006 1.007A1.007 1.007 0 0 0 1.008 0" class="prefix__cls-3" data-name="Fill 69" transform="translate(35.743 18.149)"/>
            <path id="prefix__Fill_71" d="M1.008 0a1.007 1.007 0 1 0 1.006 1.007A1.007 1.007 0 0 0 1.008 0" class="prefix__cls-3" data-name="Fill 71" transform="translate(39.771 18.149)"/>
            <path id="prefix__Fill_73" d="M1.007 0a1.007 1.007 0 1 0 1.007 1.007A1.007 1.007 0 0 0 1.007 0" class="prefix__cls-3" data-name="Fill 73" transform="translate(43.799 18.149)"/>
            <path id="prefix__Fill_75" d="M1.007 2.013A1.007 1.007 0 1 0 0 1.006a1.007 1.007 0 0 0 1.007 1.007" class="prefix__cls-3" data-name="Fill 75" transform="translate(47.827 18.149)"/>
            <path id="prefix__Fill_77" d="M1.007 0a1.007 1.007 0 1 0 1.007 1.007A1.007 1.007 0 0 0 1.007 0" class="prefix__cls-3" data-name="Fill 77" transform="translate(51.855 18.149)"/>
            <path id="prefix__Fill_79" d="M1.007 0a1.007 1.007 0 1 0 1.007 1.007A1.007 1.007 0 0 0 1.007 0" class="prefix__cls-3" data-name="Fill 79" transform="translate(55.882 18.149)"/>
            <path id="prefix__Fill_81" d="M0 1.007a1 1 0 0 0 1.948.33Q1.691.7 1.407.085A1 1 0 0 0 0 1.007" class="prefix__cls-3" data-name="Fill 81" transform="translate(59.91 18.148)"/>
            <path id="prefix__Fill_83" d="M1.008 0a1.007 1.007 0 1 0 1.006 1.007A1.007 1.007 0 0 0 1.008 0" class="prefix__cls-3" data-name="Fill 83" transform="translate(33.73 21.169)"/>
            <path id="prefix__Fill_85" d="M1.008 2.013A1.007 1.007 0 1 0 0 1.006a1.007 1.007 0 0 0 1.008 1.007" class="prefix__cls-3" data-name="Fill 85" transform="translate(37.757 21.169)"/>
            <path id="prefix__Fill_87" d="M1.008 0a1.007 1.007 0 1 0 1.006 1.007A1.007 1.007 0 0 0 1.008 0" class="prefix__cls-3" data-name="Fill 87" transform="translate(41.785 21.169)"/>
            <path id="prefix__Fill_89" d="M1.008 0a1.007 1.007 0 1 0 1.006 1.007A1.007 1.007 0 0 0 1.008 0" class="prefix__cls-3" data-name="Fill 89" transform="translate(45.813 21.169)"/>
            <path id="prefix__Fill_91" d="M1.007 0a1.007 1.007 0 1 0 1.007 1.007A1.007 1.007 0 0 0 1.007 0" class="prefix__cls-3" data-name="Fill 91" transform="translate(49.841 21.169)"/>
            <path id="prefix__Fill_93" d="M1.007 0a1.007 1.007 0 1 0 1.007 1.007A1.006 1.006 0 0 0 1.007 0" class="prefix__cls-3" data-name="Fill 93" transform="translate(53.868 21.169)"/>
            <path id="prefix__Fill_95" d="M1.007 0a1.007 1.007 0 1 0 1.007 1.007A1.006 1.006 0 0 0 1.007 0" class="prefix__cls-3" data-name="Fill 95" transform="translate(57.896 21.169)"/>
            <path id="prefix__Fill_97" d="M0 .911a1.007 1.007 0 0 0 1.007 1.007.876.876 0 0 0 .157-.032C.993 1.248.8.621.591 0A1 1 0 0 0 0 .911" class="prefix__cls-3" data-name="Fill 97" transform="translate(61.924 21.265)"/>
            <path id="prefix__Fill_99" d="M1.008 2.014A1.006 1.006 0 0 1 1.01 0a1.007 1.007 0 1 0 0 2.014" class="prefix__cls-3" data-name="Fill 99" transform="translate(31.716 24.19)"/>
            <path id="prefix__Fill_101" d="M1.008 0a1.007 1.007 0 1 0 1.006 1.008A1.007 1.007 0 0 0 1.008 0" class="prefix__cls-3" data-name="Fill 101" transform="translate(35.743 24.19)"/>
            <path id="prefix__Fill_103" d="M1.008 0a1.007 1.007 0 1 0 1.006 1.008A1.007 1.007 0 0 0 1.008 0" class="prefix__cls-3" data-name="Fill 103" transform="translate(39.771 24.19)"/>
            <path id="prefix__Fill_105" d="M1.007 2.014A1.007 1.007 0 1 0 0 1.007a1.007 1.007 0 0 0 1.007 1.007" class="prefix__cls-3" data-name="Fill 105" transform="translate(43.799 24.19)"/>
            <path id="prefix__Fill_107" d="M1.007 0a1.007 1.007 0 1 0 1.007 1.008A1.007 1.007 0 0 0 1.007 0" class="prefix__cls-3" data-name="Fill 107" transform="translate(47.827 24.19)"/>
            <path id="prefix__Fill_109" d="M1.007 0a1.007 1.007 0 1 0 1.007 1.008A1.007 1.007 0 0 0 1.007 0" class="prefix__cls-3" data-name="Fill 109" transform="translate(51.855 24.19)"/>
            <path id="prefix__Fill_111" d="M1.007 2.014A1.007 1.007 0 1 0 0 1.007a1.007 1.007 0 0 0 1.007 1.007" class="prefix__cls-3" data-name="Fill 111" transform="translate(55.882 24.19)"/>
            <path id="prefix__Fill_113" d="M1.007 2.014A1.007 1.007 0 1 0 0 1.007a1.007 1.007 0 0 0 1.007 1.007" class="prefix__cls-3" data-name="Fill 113" transform="translate(59.91 24.19)"/>
            <path id="prefix__Fill_115" d="M1.008 0a1.007 1.007 0 1 0 1.006 1.008A1.007 1.007 0 0 0 1.008 0" class="prefix__cls-3" data-name="Fill 115" transform="translate(33.73 27.21)"/>
            <path id="prefix__Fill_117" d="M1.008 0a1.007 1.007 0 1 0 1.006 1.008A1.007 1.007 0 0 0 1.008 0" class="prefix__cls-3" data-name="Fill 117" transform="translate(37.757 27.21)"/>
            <path id="prefix__Fill_119" d="M1.008 0a1.007 1.007 0 1 0 1.006 1.008A1.007 1.007 0 0 0 1.008 0" class="prefix__cls-3" data-name="Fill 119" transform="translate(41.785 27.21)"/>
            <path id="prefix__Fill_121" d="M1.008 2.014A1.007 1.007 0 1 0 0 1.007a1.007 1.007 0 0 0 1.008 1.007" class="prefix__cls-3" data-name="Fill 121" transform="translate(45.813 27.21)"/>
            <path id="prefix__Fill_123" d="M1.007 2.014A1.007 1.007 0 1 0 0 1.007a1.007 1.007 0 0 0 1.007 1.007" class="prefix__cls-3" data-name="Fill 123" transform="translate(49.841 27.21)"/>
            <path id="prefix__Fill_125" d="M1.007 0a1.007 1.007 0 1 0 1.007 1.008A1.006 1.006 0 0 0 1.007 0" class="prefix__cls-3" data-name="Fill 125" transform="translate(53.868 27.21)"/>
            <path id="prefix__Fill_127" d="M1.007 0a1.007 1.007 0 1 0 1.007 1.008A1.006 1.006 0 0 0 1.007 0" class="prefix__cls-3" data-name="Fill 127" transform="translate(57.896 27.21)"/>
            <path id="prefix__Fill_129" d="M1.007 2.014A1.007 1.007 0 1 0 0 1.007a1.007 1.007 0 0 0 1.007 1.007" class="prefix__cls-3" data-name="Fill 129" transform="translate(61.924 27.21)"/>
            <path id="prefix__Fill_131" d="M.006.017S0 .006 0 0v.017a1.007 1.007 0 0 0 1.007 1.007 1.007 1.007 0 0 1-1-1.007" class="prefix__cls-3" data-name="Fill 131" transform="translate(31.717 31.221)"/>
            <path id="prefix__Fill_133" d="M1.008 1.023A1.007 1.007 0 0 0 2.014.016V0a1.006 1.006 0 0 1-1 .992A1 1 0 0 1 0 0v.016a1.007 1.007 0 0 0 1.008 1.007" class="prefix__cls-3" data-name="Fill 133" transform="translate(35.743 31.222)"/>
            <path id="prefix__Fill_135" d="M1.008.992A1 1 0 0 1 0 0a.166.166 0 0 0 0 .017 1.007 1.007 0 0 0 1.008 1.006A1.007 1.007 0 0 0 2.014.017V0a1.006 1.006 0 0 1-1 .992" class="prefix__cls-3" data-name="Fill 135" transform="translate(39.771 31.222)"/>
            <path id="prefix__Fill_137" d="M1.007.992A1.006 1.006 0 0 1 0 0v.017a1.007 1.007 0 0 0 1.007 1.006A1.007 1.007 0 0 0 2.014.017V0a1.006 1.006 0 0 1-1 .992" class="prefix__cls-3" data-name="Fill 137" transform="translate(43.799 31.222)"/>
            <path id="prefix__Fill_139" d="M2.011 0a1.006 1.006 0 0 1-1 .992A1.006 1.006 0 0 1 0 0v.017a1.007 1.007 0 0 0 1.007 1.006A1.007 1.007 0 0 0 2.014.017V0" class="prefix__cls-3" data-name="Fill 139" transform="translate(47.827 31.222)"/>
            <path id="prefix__Fill_141" d="M1.007 1.023A1.007 1.007 0 0 0 2.014.016V0a1.007 1.007 0 0 1-1 .992A1.006 1.006 0 0 1 0 0v.016a1.007 1.007 0 0 0 1.007 1.007" class="prefix__cls-3" data-name="Fill 141" transform="translate(51.855 31.222)"/>
            <path id="prefix__Fill_143" d="M2.01 0a1 1 0 0 1-1 .992A1 1 0 0 1 0 0v.017a1.007 1.007 0 0 0 1.007 1.006A1.006 1.006 0 0 0 2.013.017V0" class="prefix__cls-3" data-name="Fill 143" transform="translate(55.882 31.222)"/>
            <path id="prefix__Fill_145" d="M1.007.992A1 1 0 0 1 0 0v.017a1.007 1.007 0 0 0 1.007 1.006A1.007 1.007 0 0 0 2.014.017.166.166 0 0 0 2.01 0a1 1 0 0 1-1 .992" class="prefix__cls-3" data-name="Fill 145" transform="translate(59.91 31.222)"/>
            <g id="prefix__Group_149" data-name="Group 149" transform="translate(63.415 30.915)">
                <path id="prefix__Clip_148-2" d="M.137 0h.519v.793H.137z" class="prefix__cls-1" data-name="Clip 148" transform="translate(.101 .221)"/>
                <g id="prefix__Group_149-2" data-name="Group 149">
                    <path id="prefix__Fill_147" d="M.285.1a.989.989 0 0 0 .222.6V.669A.989.989 0 0 1 .288.086C.288.092.285.1.285.1" class="prefix__cls-3" data-name="Fill 147" transform="translate(.238 .221)"/>
                </g>
            </g>
            <path id="prefix__Fill_150" d="M.855.218C.568.325.284.44 0 .555c.035 0 .065.02.1.02A.99.99 0 0 0 .855.218" class="prefix__cls-3" data-name="Fill 150" transform="translate(20.546 1.463)"/>
            <path id="prefix__Fill_152" d="M1.008 1.569A1.007 1.007 0 0 0 2.015.561.981.981 0 0 0 1.821 0Q.91.2.021.462A1 1 0 0 0 0 .561a1.007 1.007 0 0 0 1.008 1.008" class="prefix__cls-3" data-name="Fill 152" transform="translate(23.666 .469)"/>
            <path id="prefix__Fill_154" d="M1.008 2.014A1.007 1.007 0 1 0 0 1.007a1.007 1.007 0 0 0 1.008 1.007" class="prefix__cls-3" data-name="Fill 154" transform="translate(27.694 .024)"/>
            <path id="prefix__Fill_156" d="M1 1.008a1.007 1.007 0 0 1-1 1.006 1.007 1.007 0 0 0 1.01-1.006A1.007 1.007 0 0 0 0 0a1.007 1.007 0 0 1 1 1.008" class="prefix__cls-3" data-name="Fill 156" transform="translate(32.726 .023)"/>
            <path id="prefix__Fill_158" d="M0 1.007A1 1 0 1 0 1 0a1.007 1.007 0 0 0-1 1.007" class="prefix__cls-3" data-name="Fill 158" transform="translate(31.722 .024)"/>
            <path id="prefix__Fill_160" d="M.605.263C.466.352.325.439.187.53A.992.992 0 0 0 .605.263" class="prefix__cls-3" data-name="Fill 160" transform="translate(14.737 4.464)"/>
            <path id="prefix__Fill_162" d="M1.007 2.014A1.007 1.007 0 1 0 0 1.007a1.006 1.006 0 0 0 1.007 1.007" class="prefix__cls-3" data-name="Fill 162" transform="translate(17.626 3.044)"/>
            <path id="prefix__Fill_164" d="M1.007 2.014A1.007 1.007 0 1 0 0 1.007a1.006 1.006 0 0 0 1.007 1.007" class="prefix__cls-3" data-name="Fill 164" transform="translate(21.653 3.044)"/>
            <path id="prefix__Fill_166" d="M1.007 2.014A1.007 1.007 0 1 0 0 1.007a1.006 1.006 0 0 0 1.007 1.007" class="prefix__cls-3" data-name="Fill 166" transform="translate(25.681 3.044)"/>
            <path id="prefix__Fill_168" d="M1.008 2.014A1.007 1.007 0 1 0 0 1.007a1.006 1.006 0 0 0 1.008 1.007" class="prefix__cls-3" data-name="Fill 168" transform="translate(29.708 3.044)"/>
            <path id="prefix__Fill_170" d="M.915 1.815A1.007 1.007 0 0 0 1.922.808.989.989 0 0 0 1.484 0Q.723.587 0 1.219a1 1 0 0 0 .915.6" class="prefix__cls-3" data-name="Fill 170" transform="translate(11.676 6.264)"/>
            <path id="prefix__Fill_172" d="M1.007 2.013A1.007 1.007 0 1 0 0 1.006a1.007 1.007 0 0 0 1.007 1.007" class="prefix__cls-3" data-name="Fill 172" transform="translate(15.612 6.066)"/>
            <path id="prefix__Fill_174" d="M1.008 2.013A1.007 1.007 0 1 0 0 1.006a1.007 1.007 0 0 0 1.008 1.007" class="prefix__cls-3" data-name="Fill 174" transform="translate(19.639 6.066)"/>
            <path id="prefix__Fill_176" d="M1.008 2.013A1.007 1.007 0 1 0 0 1.006a1.007 1.007 0 0 0 1.008 1.007" class="prefix__cls-3" data-name="Fill 176" transform="translate(23.666 6.066)"/>
            <path id="prefix__Fill_178" d="M1.008 0a1.007 1.007 0 1 0 1.006 1.007A1.007 1.007 0 0 0 1.008 0" class="prefix__cls-3" data-name="Fill 178" transform="translate(27.694 6.066)"/>
            <path id="prefix__Fill_180" d="M0 0a1.007 1.007 0 0 1 1 1.007 1.006 1.006 0 0 1-1 1.006A1.007 1.007 0 0 0 0 0" class="prefix__cls-3" data-name="Fill 180" transform="translate(32.726 6.066)"/>
            <path id="prefix__Fill_182" d="M2.008 1.007A1 1 0 1 0 1 2.013a1.008 1.008 0 0 0 1-1.007" class="prefix__cls-3" data-name="Fill 182" transform="translate(31.722 6.065)"/>
            <path id="prefix__Fill_184" d="M1.007 2.013A1.007 1.007 0 1 0 0 1.007a1.007 1.007 0 0 0 1.007 1.006" class="prefix__cls-3" data-name="Fill 184" transform="translate(9.57 9.086)"/>
            <path id="prefix__Fill_186" d="M1.007 2.013A1.007 1.007 0 1 0 0 1.007a1.007 1.007 0 0 0 1.007 1.006" class="prefix__cls-3" data-name="Fill 186" transform="translate(13.598 9.086)"/>
            <path id="prefix__Fill_188" d="M1.007 0a1.007 1.007 0 1 0 1.006 1.008A1.006 1.006 0 0 0 1.007 0" class="prefix__cls-3" data-name="Fill 188" transform="translate(17.626 9.086)"/>
            <path id="prefix__Fill_190" d="M1.007 0a1.007 1.007 0 1 0 1.006 1.008A1.006 1.006 0 0 0 1.007 0" class="prefix__cls-3" data-name="Fill 190" transform="translate(21.653 9.086)"/>
            <path id="prefix__Fill_192" d="M1.007 0a1.007 1.007 0 1 0 1.006 1.008A1.006 1.006 0 0 0 1.007 0" class="prefix__cls-3" data-name="Fill 192" transform="translate(25.681 9.086)"/>
            <path id="prefix__Fill_194" d="M1.008 0a1.007 1.007 0 1 0 1.006 1.008A1.007 1.007 0 0 0 1.008 0" class="prefix__cls-3" data-name="Fill 194" transform="translate(29.708 9.086)"/>
            <path id="prefix__Fill_196" d="M1.007 2.013A1.007 1.007 0 1 0 0 1.007a1.007 1.007 0 0 0 1.007 1.006" class="prefix__cls-3" data-name="Fill 196" transform="translate(7.556 12.107)"/>
            <path id="prefix__Fill_198" d="M1.007 2.013A1.007 1.007 0 1 0 0 1.007a1.007 1.007 0 0 0 1.007 1.006" class="prefix__cls-3" data-name="Fill 198" transform="translate(11.584 12.107)"/>
            <path id="prefix__Fill_200" d="M1.007 0a1.007 1.007 0 1 0 1.007 1.008A1.007 1.007 0 0 0 1.007 0" class="prefix__cls-3" data-name="Fill 200" transform="translate(15.612 12.107)"/>
            <path id="prefix__Fill_202" d="M1.008 0a1.007 1.007 0 1 0 1.007 1.008A1.007 1.007 0 0 0 1.008 0" class="prefix__cls-3" data-name="Fill 202" transform="translate(19.639 12.107)"/>
            <path id="prefix__Fill_204" d="M1.008 0a1.007 1.007 0 1 0 1.007 1.008A1.007 1.007 0 0 0 1.008 0" class="prefix__cls-3" data-name="Fill 204" transform="translate(23.666 12.107)"/>
            <path id="prefix__Fill_206" d="M1.008 2.013A1.007 1.007 0 1 0 0 1.007a1.006 1.006 0 0 0 1.008 1.006" class="prefix__cls-3" data-name="Fill 206" transform="translate(27.694 12.107)"/>
            <path id="prefix__Fill_208" d="M0 0a1.007 1.007 0 0 1 1 1.008 1.006 1.006 0 0 1-1 1.005 1.006 1.006 0 0 0 1.01-1.005A1.007 1.007 0 0 0 0 0" class="prefix__cls-3" data-name="Fill 208" transform="translate(32.726 12.107)"/>
            <path id="prefix__Fill_210" d="M2.008 1.007A1 1 0 1 0 1 2.013a1.007 1.007 0 0 0 1-1.007" class="prefix__cls-3" data-name="Fill 210" transform="translate(31.722 12.107)"/>
            <path id="prefix__Fill_212" d="M1.007 2.014A1.007 1.007 0 1 0 0 1.007a1.007 1.007 0 0 0 1.007 1.007" class="prefix__cls-3" data-name="Fill 212" transform="translate(5.543 15.127)"/>
            <path id="prefix__Fill_214" d="M1.007 0a1.007 1.007 0 1 0 1.007 1.008A1.007 1.007 0 0 0 1.007 0" class="prefix__cls-3" data-name="Fill 214" transform="translate(9.57 15.127)"/>
            <path id="prefix__Fill_216" d="M1.007 0a1.007 1.007 0 1 0 1.007 1.008A1.007 1.007 0 0 0 1.007 0" class="prefix__cls-3" data-name="Fill 216" transform="translate(13.598 15.127)"/>
            <path id="prefix__Fill_218" d="M1.007 2.014A1.007 1.007 0 1 0 0 1.007a1.007 1.007 0 0 0 1.007 1.007" class="prefix__cls-3" data-name="Fill 218" transform="translate(17.626 15.127)"/>
            <path id="prefix__Fill_220" d="M1.007 2.014A1.007 1.007 0 1 0 0 1.007a1.007 1.007 0 0 0 1.007 1.007" class="prefix__cls-3" data-name="Fill 220" transform="translate(21.653 15.127)"/>
            <path id="prefix__Fill_222" d="M1.007 2.014A1.007 1.007 0 1 0 0 1.007a1.007 1.007 0 0 0 1.007 1.007" class="prefix__cls-3" data-name="Fill 222" transform="translate(25.681 15.127)"/>
            <path id="prefix__Fill_224" d="M1.008 0a1.007 1.007 0 1 0 1.006 1.008A1.007 1.007 0 0 0 1.008 0" class="prefix__cls-3" data-name="Fill 224" transform="translate(29.708 15.127)"/>
            <path id="prefix__Fill_226" d="M1.007 2.013A1.007 1.007 0 1 0 0 1.006a1.007 1.007 0 0 0 1.007 1.007" class="prefix__cls-3" data-name="Fill 226" transform="translate(3.529 18.149)"/>
            <path id="prefix__Fill_228" d="M1.007 0a1.007 1.007 0 1 0 1.007 1.007A1.007 1.007 0 0 0 1.007 0" class="prefix__cls-3" data-name="Fill 228" transform="translate(7.556 18.149)"/>
            <path id="prefix__Fill_230" d="M1.007 0a1.007 1.007 0 1 0 1.007 1.007A1.006 1.006 0 0 0 1.007 0" class="prefix__cls-3" data-name="Fill 230" transform="translate(11.584 18.149)"/>
            <path id="prefix__Fill_232" d="M1.007 2.013A1.007 1.007 0 1 0 0 1.006a1.007 1.007 0 0 0 1.007 1.007" class="prefix__cls-3" data-name="Fill 232" transform="translate(15.612 18.149)"/>
            <path id="prefix__Fill_234" d="M1.008 0a1.007 1.007 0 1 0 1.007 1.007A1.007 1.007 0 0 0 1.008 0" class="prefix__cls-3" data-name="Fill 234" transform="translate(19.639 18.149)"/>
            <path id="prefix__Fill_236" d="M1.008 0a1.007 1.007 0 1 0 1.007 1.007A1.007 1.007 0 0 0 1.008 0" class="prefix__cls-3" data-name="Fill 236" transform="translate(23.666 18.149)"/>
            <path id="prefix__Fill_238" d="M1.008 0a1.007 1.007 0 1 0 1.006 1.007A1.007 1.007 0 0 0 1.008 0" class="prefix__cls-3" data-name="Fill 238" transform="translate(27.694 18.149)"/>
            <path id="prefix__Fill_240" d="M0 0a1.007 1.007 0 0 1 1 1.007 1.006 1.006 0 0 1-1 1.006A1.007 1.007 0 0 0 0 0" class="prefix__cls-3" data-name="Fill 240" transform="translate(32.726 18.149)"/>
            <path id="prefix__Fill_242" d="M2.008 1.007A1 1 0 1 0 1 2.013a1.007 1.007 0 0 0 1-1.007" class="prefix__cls-3" data-name="Fill 242" transform="translate(31.722 18.148)"/>
            <path id="prefix__Fill_244" d="M1.6 1.007A1.007 1.007 0 0 0 .593 0C.578 0 .565.008.55.009.35.6.166 1.195 0 1.8a.99.99 0 0 0 .593.215A1.007 1.007 0 0 0 1.6 1.007" class="prefix__cls-3" data-name="Fill 244" transform="translate(1.928 21.169)"/>
            <path id="prefix__Fill_246" d="M1.007 0a1.007 1.007 0 1 0 1.007 1.007A1.006 1.006 0 0 0 1.007 0" class="prefix__cls-3" data-name="Fill 246" transform="translate(5.543 21.169)"/>
            <path id="prefix__Fill_248" d="M1.007 2.013A1.007 1.007 0 1 0 0 1.006a1.007 1.007 0 0 0 1.007 1.007" class="prefix__cls-3" data-name="Fill 248" transform="translate(9.57 21.169)"/>
            <path id="prefix__Fill_250" d="M1.007 2.013A1.007 1.007 0 1 0 0 1.006a1.007 1.007 0 0 0 1.007 1.007" class="prefix__cls-3" data-name="Fill 250" transform="translate(13.598 21.169)"/>
            <path id="prefix__Fill_252" d="M1.007 0a1.007 1.007 0 1 0 1.006 1.007A1.006 1.006 0 0 0 1.007 0" class="prefix__cls-3" data-name="Fill 252" transform="translate(17.626 21.169)"/>
            <path id="prefix__Fill_254" d="M1.007 0a1.007 1.007 0 1 0 1.006 1.007A1.006 1.006 0 0 0 1.007 0" class="prefix__cls-3" data-name="Fill 254" transform="translate(21.653 21.169)"/>
            <path id="prefix__Fill_256" d="M1.007 0a1.007 1.007 0 1 0 1.006 1.007A1.006 1.006 0 0 0 1.007 0" class="prefix__cls-3" data-name="Fill 256" transform="translate(25.681 21.169)"/>
            <path id="prefix__Fill_258" d="M1.008 2.013A1.007 1.007 0 1 0 0 1.006a1.006 1.006 0 0 0 1.008 1.007" class="prefix__cls-3" data-name="Fill 258" transform="translate(29.708 21.169)"/>
            <path id="prefix__Fill_260" d="M.449 0C.387.3.337.6.284.9A.986.986 0 0 0 .509.293.975.975 0 0 0 .449 0" class="prefix__cls-3" data-name="Fill 260" transform="translate(1.007 24.903)"/>
            <path id="prefix__Fill_262" d="M1.007 2.014A1.007 1.007 0 1 0 0 1.007a1.007 1.007 0 0 0 1.007 1.007" class="prefix__cls-3" data-name="Fill 262" transform="translate(3.529 24.19)"/>
            <path id="prefix__Fill_264" d="M1.007 2.014A1.007 1.007 0 1 0 0 1.007a1.007 1.007 0 0 0 1.007 1.007" class="prefix__cls-3" data-name="Fill 264" transform="translate(7.556 24.19)"/>
            <path id="prefix__Fill_266" d="M1.007 0a1.007 1.007 0 1 0 1.007 1.008A1.006 1.006 0 0 0 1.007 0" class="prefix__cls-3" data-name="Fill 266" transform="translate(11.584 24.19)"/>
            <path id="prefix__Fill_268" d="M1.007 0a1.007 1.007 0 1 0 1.007 1.008A1.006 1.006 0 0 0 1.007 0" class="prefix__cls-3" data-name="Fill 268" transform="translate(15.612 24.19)"/>
            <path id="prefix__Fill_270" d="M1.008 2.014A1.007 1.007 0 1 0 0 1.007a1.007 1.007 0 0 0 1.008 1.007" class="prefix__cls-3" data-name="Fill 270" transform="translate(19.639 24.19)"/>
            <path id="prefix__Fill_272" d="M1.008 2.014A1.007 1.007 0 1 0 0 1.007a1.007 1.007 0 0 0 1.008 1.007" class="prefix__cls-3" data-name="Fill 272" transform="translate(23.666 24.19)"/>
            <path id="prefix__Fill_274" d="M1.008 2.014A1.007 1.007 0 1 0 0 1.007a1.007 1.007 0 0 0 1.008 1.007" class="prefix__cls-3" data-name="Fill 274" transform="translate(27.694 24.19)"/>
            <path id="prefix__Fill_276" d="M1 1.008a1.008 1.008 0 0 1-1 1.006 1.007 1.007 0 0 0 1.01-1.006A1.007 1.007 0 0 0 0 0a1.007 1.007 0 0 1 1 1.008" class="prefix__cls-3" data-name="Fill 276" transform="translate(32.726 24.189)"/>
            <path id="prefix__Fill_278" d="M0 1.007A1 1 0 1 0 1 0a1.008 1.008 0 0 0-1 1.007" class="prefix__cls-3" data-name="Fill 278" transform="translate(31.722 24.19)"/>
            <path id="prefix__Fill_280" d="M1.007 2.014A1.007 1.007 0 1 0 0 1.007a1.007 1.007 0 0 0 1.007 1.007" class="prefix__cls-3" data-name="Fill 280" transform="translate(1.515 27.21)"/>
            <path id="prefix__Fill_282" d="M1.007 2.014A1.007 1.007 0 1 0 0 1.007a1.007 1.007 0 0 0 1.007 1.007" class="prefix__cls-3" data-name="Fill 282" transform="translate(5.543 27.21)"/>
            <path id="prefix__Fill_284" d="M1.007 0a1.007 1.007 0 1 0 1.007 1.008A1.006 1.006 0 0 0 1.007 0" class="prefix__cls-3" data-name="Fill 284" transform="translate(9.57 27.21)"/>
            <path id="prefix__Fill_286" d="M1.007 0a1.007 1.007 0 1 0 1.007 1.008A1.006 1.006 0 0 0 1.007 0" class="prefix__cls-3" data-name="Fill 286" transform="translate(13.598 27.21)"/>
            <path id="prefix__Fill_288" d="M1.007 2.014A1.007 1.007 0 1 0 0 1.007a1.007 1.007 0 0 0 1.007 1.007" class="prefix__cls-3" data-name="Fill 288" transform="translate(17.626 27.21)"/>
            <path id="prefix__Fill_290" d="M1.007 2.014A1.007 1.007 0 1 0 0 1.007a1.007 1.007 0 0 0 1.007 1.007" class="prefix__cls-3" data-name="Fill 290" transform="translate(21.653 27.21)"/>
            <path id="prefix__Fill_292" d="M1.007 0a1.007 1.007 0 1 0 1.006 1.008A1.006 1.006 0 0 0 1.007 0" class="prefix__cls-3" data-name="Fill 292" transform="translate(25.681 27.21)"/>
            <path id="prefix__Fill_294" d="M1.008 0a1.007 1.007 0 1 0 1.006 1.008A1.007 1.007 0 0 0 1.008 0" class="prefix__cls-3" data-name="Fill 294" transform="translate(29.708 27.21)"/>
            <g id="prefix__Group_298" data-name="Group 298" transform="translate(0 30.915)">
                <path id="prefix__Clip_297-2" d="M.013 0H.78v.962H.013z" class="prefix__cls-1" data-name="Clip 297" transform="translate(.78 .307)"/>
                <g id="prefix__Group_298-2" data-name="Group 298">
                    <path id="prefix__Fill_296" d="M.748.017V0a.993.993 0 0 1-.7.93v.032a1 1 0 0 0 .7-.945" class="prefix__cls-3" data-name="Fill 296" transform="translate(.767 .307)"/>
                </g>
            </g>
            <path id="prefix__Fill_299" d="M1.007 1.023A1.007 1.007 0 0 0 2.014.016V0a1.007 1.007 0 0 1-1 .992A1.006 1.006 0 0 1 0 0v.016a1.007 1.007 0 0 0 1.007 1.007" class="prefix__cls-3" data-name="Fill 299" transform="translate(3.529 31.222)"/>
            <path id="prefix__Fill_301" d="M2.01 0a1 1 0 0 1-1 .992A1 1 0 0 1 0 0v.017a1.007 1.007 0 0 0 1.007 1.006A1.006 1.006 0 0 0 2.013.017V0" class="prefix__cls-3" data-name="Fill 301" transform="translate(7.556 31.222)"/>
            <path id="prefix__Fill_303" d="M1.007.992A1 1 0 0 1 0 0v.017a1.006 1.006 0 0 0 1.007 1.006A1.007 1.007 0 0 0 2.014.017.166.166 0 0 0 2.01 0a1 1 0 0 1-1 .992" class="prefix__cls-3" data-name="Fill 303" transform="translate(11.584 31.222)"/>
            <path id="prefix__Fill_305" d="M1.007.992A1 1 0 0 1 0 0v.017a1.006 1.006 0 0 0 1.007 1.006A1.007 1.007 0 0 0 2.014.017.166.166 0 0 0 2.01 0a1 1 0 0 1-1 .992" class="prefix__cls-3" data-name="Fill 305" transform="translate(15.612 31.222)"/>
            <path id="prefix__Fill_307" d="M1.008 1.023A1.007 1.007 0 0 0 2.015.016V0a1 1 0 0 1-1 .992A1 1 0 0 1 0 0v.016a1.007 1.007 0 0 0 1.008 1.007" class="prefix__cls-3" data-name="Fill 307" transform="translate(19.639 31.222)"/>
            <path id="prefix__Fill_309" d="M2.011 0a1 1 0 0 1-1 .992A1 1 0 0 1 0 0v.017a1.007 1.007 0 0 0 1.008 1.006A1.006 1.006 0 0 0 2.014.017V0" class="prefix__cls-3" data-name="Fill 309" transform="translate(23.666 31.222)"/>
            <path id="prefix__Fill_311" d="M1.008.992A1 1 0 0 1 0 0a.166.166 0 0 0 0 .017 1.007 1.007 0 0 0 1.008 1.006A1.006 1.006 0 0 0 2.014.017V0a1 1 0 0 1-1 .992" class="prefix__cls-3" data-name="Fill 311" transform="translate(27.694 31.222)"/>
            <path id="prefix__Fill_313" d="M1 .017a1.007 1.007 0 0 1-1 1.006A1.007 1.007 0 0 0 1.01.017V0c0-.007-.01.01-.01.015" class="prefix__cls-3" data-name="Fill 313" transform="translate(32.726 31.221)"/>
            <path id="prefix__Fill_315" d="M2.008 0a1 1 0 0 1-1 .977H1A1 1 0 0 1 0 0a1.007 1.007 0 0 0 1 1.008A1.007 1.007 0 0 0 2.008 0" class="prefix__cls-3" data-name="Fill 315" transform="translate(31.722 31.236)"/>
            <path id="prefix__Fill_317" d="M.006 1.008A1.007 1.007 0 0 1 1.01 0 1.008 1.008 0 0 0 0 1.008v.002" class="prefix__cls-3" data-name="Fill 317" transform="translate(31.717 30.199)"/>
            <path id="prefix__Fill_319" d="M.4.4V.382.4" class="prefix__cls-3" data-name="Fill 319" transform="translate(31.326 30.826)"/>
            <path id="prefix__Fill_321" d="M0 0v.015a1 1 0 0 0 1 .977A1 1 0 0 1 0 0" class="prefix__cls-3" data-name="Fill 321" transform="translate(31.722 31.222)"/>
            <path id="prefix__Fill_323" d="M1.008.032a1.006 1.006 0 0 1 1 .991v-.016a1.007 1.007 0 0 0-2.008 0 .116.116 0 0 0 0 .016 1 1 0 0 1 1-.991" class="prefix__cls-3" data-name="Fill 323" transform="translate(35.743 30.199)"/>
            <path id="prefix__Fill_325" d="M1 1.982A1.006 1.006 0 0 0 2 .99a1 1 0 0 0-2 .001 1 1 0 0 0 1 .992" class="prefix__cls-3" data-name="Fill 325" transform="translate(35.747 30.231)"/>
            <path id="prefix__Fill_327" d="M0 1.023a1 1 0 0 1 2.007 0v-.016a1.007 1.007 0 1 0-2.007 0v.016" class="prefix__cls-3" data-name="Fill 327" transform="translate(39.772 30.199)"/>
            <path id="prefix__Fill_329" d="M1 0a1 1 0 0 0-1 .991 1 1 0 0 0 2.007 0A1.006 1.006 0 0 0 1 0" class="prefix__cls-3" data-name="Fill 329" transform="translate(39.775 30.231)"/>
            <path id="prefix__Fill_331" d="M1.007 0A1.007 1.007 0 0 0 0 1.008v.015a1 1 0 0 1 2.008 0v-.015A1.007 1.007 0 0 0 1.007 0" class="prefix__cls-3" data-name="Fill 331" transform="translate(43.799 30.199)"/>
            <path id="prefix__Fill_333" d="M1 0a1.006 1.006 0 0 0-1 .991 1 1 0 0 0 2.008 0A1.006 1.006 0 0 0 1 0" class="prefix__cls-3" data-name="Fill 333" transform="translate(43.802 30.231)"/>
            <path id="prefix__Fill_335" d="M1.007.032a1.006 1.006 0 0 1 1 .991v-.016a1.007 1.007 0 0 0-2.007 0v.016a1.006 1.006 0 0 1 1-.991" class="prefix__cls-3" data-name="Fill 335" transform="translate(47.827 30.199)"/>
            <path id="prefix__Fill_337" d="M1 1.982A1.007 1.007 0 0 0 2 .99a1 1 0 0 0-2 .001 1.006 1.006 0 0 0 1 .992" class="prefix__cls-3" data-name="Fill 337" transform="translate(47.83 30.231)"/>
            <path id="prefix__Fill_339" d="M1.007.032a1.006 1.006 0 0 1 1 .991v-.016a1.007 1.007 0 0 0-2.007 0v.016a1.006 1.006 0 0 1 1-.991" class="prefix__cls-3" data-name="Fill 339" transform="translate(51.855 30.199)"/>
            <path id="prefix__Fill_341" d="M1 1.982A1.007 1.007 0 0 0 2 .99a1 1 0 0 0-2 .001 1.006 1.006 0 0 0 1 .992" class="prefix__cls-3" data-name="Fill 341" transform="translate(51.858 30.231)"/>
            <path id="prefix__Fill_343" d="M1.007.032a1 1 0 0 1 1 .991.116.116 0 0 0 0-.016 1.007 1.007 0 0 0-2.007 0v.016a1 1 0 0 1 1-.991" class="prefix__cls-3" data-name="Fill 343" transform="translate(55.882 30.199)"/>
            <path id="prefix__Fill_345" d="M1 1.982A1 1 0 0 0 2 .99a1 1 0 0 0-2 .001 1 1 0 0 0 1 .992" class="prefix__cls-3" data-name="Fill 345" transform="translate(55.885 30.231)"/>
            <path id="prefix__Fill_347" d="M1.007 0A1.007 1.007 0 0 0 0 1.008v.015a1 1 0 0 1 2.007 0 .143.143 0 0 0 0-.015 1.007 1.007 0 0 0-1-1.008" class="prefix__cls-3" data-name="Fill 347" transform="translate(59.91 30.199)"/>
            <path id="prefix__Fill_349" d="M1 0a1 1 0 0 0-1 .991 1 1 0 0 0 2.007 0A1 1 0 0 0 1 0" class="prefix__cls-3" data-name="Fill 349" transform="translate(59.913 30.231)"/>
            <g id="prefix__Group_353" data-name="Group 353" transform="translate(63.415 30.122)">
                <path id="prefix__Clip_352-2" d="M.135 0h.523v.793H.135z" class="prefix__cls-1" data-name="Clip 352" transform="translate(.099 .399)"/>
                <g id="prefix__Group_353-2" data-name="Group 353">
                    <path id="prefix__Fill_351" d="M.292.7A.982.982 0 0 1 .5.123V.092a.983.983 0 0 0-.211.593L.292.7" class="prefix__cls-3" data-name="Fill 351" transform="translate(.234 .399)"/>
                </g>
            </g>
            <g id="prefix__Group_356" data-name="Group 356" transform="translate(63.415 30.122)">
                <path id="prefix__Clip_355-2" d="M.14 0h.512v1.168H.14z" class="prefix__cls-1" data-name="Clip 355" transform="translate(.105 .521)"/>
                <g id="prefix__Group_356-2" data-name="Group 356">
                    <path id="prefix__Fill_354" d="M.5 1.168C.5 1.022.512.877.512.73.512.486.5.244.493 0a.984.984 0 0 0-.212.579.988.988 0 0 0 .22.59" class="prefix__cls-3" data-name="Fill 354" transform="translate(.245 .521)"/>
                </g>
            </g>
            <path id="prefix__Fill_357" d="M1.008 2.014A1.007 1.007 0 1 0 0 1.007a1.007 1.007 0 0 0 1.008 1.007" class="prefix__cls-3" data-name="Fill 357" transform="translate(33.73 33.22)"/>
            <path id="prefix__Fill_359" d="M1.008 2.014A1.007 1.007 0 1 0 0 1.007a1.007 1.007 0 0 0 1.008 1.007" class="prefix__cls-3" data-name="Fill 359" transform="translate(37.757 33.22)"/>
            <path id="prefix__Fill_361" d="M1.008 0a1.007 1.007 0 1 0 1.006 1.008A1.007 1.007 0 0 0 1.008 0" class="prefix__cls-3" data-name="Fill 361" transform="translate(41.785 33.22)"/>
            <path id="prefix__Fill_363" d="M1.008 0a1.007 1.007 0 1 0 1.006 1.008A1.007 1.007 0 0 0 1.008 0" class="prefix__cls-3" data-name="Fill 363" transform="translate(45.813 33.22)"/>
            <path id="prefix__Fill_365" d="M1.007 2.014A1.007 1.007 0 1 0 0 1.007a1.007 1.007 0 0 0 1.007 1.007" class="prefix__cls-3" data-name="Fill 365" transform="translate(49.841 33.22)"/>
            <path id="prefix__Fill_367" d="M1.007 2.014A1.007 1.007 0 1 0 0 1.007a1.007 1.007 0 0 0 1.007 1.007" class="prefix__cls-3" data-name="Fill 367" transform="translate(53.868 33.22)"/>
            <path id="prefix__Fill_369" d="M1.007 2.014A1.007 1.007 0 1 0 0 1.007a1.007 1.007 0 0 0 1.007 1.007" class="prefix__cls-3" data-name="Fill 369" transform="translate(57.896 33.22)"/>
            <path id="prefix__Fill_371" d="M1.007 0a1.007 1.007 0 1 0 1.007 1.008A1.007 1.007 0 0 0 1.007 0" class="prefix__cls-3" data-name="Fill 371" transform="translate(61.924 33.22)"/>
            <path id="prefix__Fill_373" d="M.006 1.007A1.007 1.007 0 0 1 1.01 0a1.007 1.007 0 0 0 0 2.014 1.007 1.007 0 0 1-1-1.007" class="prefix__cls-3" data-name="Fill 373" transform="translate(31.717 36.241)"/>
            <path id="prefix__Fill_375" d="M1.008 0a1.007 1.007 0 1 0 1.006 1.007A1.007 1.007 0 0 0 1.008 0" class="prefix__cls-3" data-name="Fill 375" transform="translate(35.743 36.241)"/>
            <path id="prefix__Fill_377" d="M1.008 2.013A1.007 1.007 0 1 0 0 1.006a1.007 1.007 0 0 0 1.008 1.007" class="prefix__cls-3" data-name="Fill 377" transform="translate(39.771 36.241)"/>
            <path id="prefix__Fill_379" d="M1.007 0a1.007 1.007 0 1 0 1.007 1.007A1.007 1.007 0 0 0 1.007 0" class="prefix__cls-3" data-name="Fill 379" transform="translate(43.799 36.241)"/>
            <path id="prefix__Fill_381" d="M1.007 2.013A1.007 1.007 0 1 0 0 1.006a1.007 1.007 0 0 0 1.007 1.007" class="prefix__cls-3" data-name="Fill 381" transform="translate(47.827 36.241)"/>
            <path id="prefix__Fill_383" d="M1.007 0a1.007 1.007 0 1 0 1.007 1.007A1.007 1.007 0 0 0 1.007 0" class="prefix__cls-3" data-name="Fill 383" transform="translate(51.855 36.241)"/>
            <path id="prefix__Fill_385" d="M1.007 0a1.007 1.007 0 1 0 1.007 1.007A1.007 1.007 0 0 0 1.007 0" class="prefix__cls-3" data-name="Fill 385" transform="translate(55.882 36.241)"/>
            <path id="prefix__Fill_387" d="M1.007 0a1.007 1.007 0 1 0 1.007 1.007A1.007 1.007 0 0 0 1.007 0" class="prefix__cls-3" data-name="Fill 387" transform="translate(59.91 36.241)"/>
            <path id="prefix__Fill_389" d="M1.008 0a1.007 1.007 0 1 0 1.006 1.007A1.007 1.007 0 0 0 1.008 0" class="prefix__cls-3" data-name="Fill 389" transform="translate(33.73 39.262)"/>
            <path id="prefix__Fill_391" d="M1.008 2.013A1.007 1.007 0 1 0 0 1.006a1.007 1.007 0 0 0 1.008 1.007" class="prefix__cls-3" data-name="Fill 391" transform="translate(37.757 39.262)"/>
            <path id="prefix__Fill_393" d="M1.008 2.013A1.007 1.007 0 1 0 0 1.006a1.007 1.007 0 0 0 1.008 1.007" class="prefix__cls-3" data-name="Fill 393" transform="translate(41.785 39.262)"/>
            <path id="prefix__Fill_395" d="M1.008 2.013A1.007 1.007 0 1 0 0 1.006a1.007 1.007 0 0 0 1.008 1.007" class="prefix__cls-3" data-name="Fill 395" transform="translate(45.813 39.262)"/>
            <path id="prefix__Fill_397" d="M1.007 0a1.007 1.007 0 1 0 1.007 1.007A1.007 1.007 0 0 0 1.007 0" class="prefix__cls-3" data-name="Fill 397" transform="translate(49.841 39.262)"/>
            <path id="prefix__Fill_399" d="M1.007 2.013A1.007 1.007 0 1 0 0 1.006a1.007 1.007 0 0 0 1.007 1.007" class="prefix__cls-3" data-name="Fill 399" transform="translate(53.868 39.262)"/>
            <path id="prefix__Fill_401" d="M1.007 0a1.007 1.007 0 1 0 1.007 1.007A1.006 1.006 0 0 0 1.007 0" class="prefix__cls-3" data-name="Fill 401" transform="translate(57.896 39.262)"/>
            <path id="prefix__Fill_403" d="M0 1.007a1 1 0 0 0 .683.942c.2-.626.4-1.257.562-1.9A1 1 0 0 0 1.007 0 1.007 1.007 0 0 0 0 1.007" class="prefix__cls-3" data-name="Fill 403" transform="translate(61.924 39.261)"/>
            <path id="prefix__Fill_405" d="M1.008 2.014A1.006 1.006 0 0 1 1.01 0a1.007 1.007 0 1 0 0 2.014" class="prefix__cls-3" data-name="Fill 405" transform="translate(31.716 42.282)"/>
            <path id="prefix__Fill_407" d="M1.008 2.014A1.007 1.007 0 1 0 0 1.007a1.007 1.007 0 0 0 1.008 1.007" class="prefix__cls-3" data-name="Fill 407" transform="translate(35.743 42.282)"/>
            <path id="prefix__Fill_409" d="M1.008 2.014A1.007 1.007 0 1 0 0 1.007a1.007 1.007 0 0 0 1.008 1.007" class="prefix__cls-3" data-name="Fill 409" transform="translate(39.771 42.282)"/>
            <path id="prefix__Fill_411" d="M1.007 2.014A1.007 1.007 0 1 0 0 1.007a1.007 1.007 0 0 0 1.007 1.007" class="prefix__cls-3" data-name="Fill 411" transform="translate(43.799 42.282)"/>
            <path id="prefix__Fill_413" d="M1.007 0a1.007 1.007 0 1 0 1.007 1.008A1.007 1.007 0 0 0 1.007 0" class="prefix__cls-3" data-name="Fill 413" transform="translate(47.827 42.282)"/>
            <path id="prefix__Fill_415" d="M1.007 2.014A1.007 1.007 0 1 0 0 1.007a1.007 1.007 0 0 0 1.007 1.007" class="prefix__cls-3" data-name="Fill 415" transform="translate(51.855 42.282)"/>
            <path id="prefix__Fill_417" d="M1.007 2.014A1.007 1.007 0 1 0 0 1.007a1.007 1.007 0 0 0 1.007 1.007" class="prefix__cls-3" data-name="Fill 417" transform="translate(55.882 42.282)"/>
            <path id="prefix__Fill_419" d="M1.007 0a1.007 1.007 0 0 0 0 2.014A.983.983 0 0 0 1.6 1.8q.2-.455.383-.919A.994.994 0 0 0 1.007 0" class="prefix__cls-3" data-name="Fill 419" transform="translate(59.91 42.282)"/>
            <path id="prefix__Fill_421" d="M1.008 2.014A1.007 1.007 0 1 0 0 1.007a1.007 1.007 0 0 0 1.008 1.007" class="prefix__cls-3" data-name="Fill 421" transform="translate(33.73 45.303)"/>
            <path id="prefix__Fill_423" d="M1.008 0a1.007 1.007 0 1 0 1.006 1.008A1.007 1.007 0 0 0 1.008 0" class="prefix__cls-3" data-name="Fill 423" transform="translate(37.757 45.303)"/>
            <path id="prefix__Fill_425" d="M1.008 2.014A1.007 1.007 0 1 0 0 1.007a1.007 1.007 0 0 0 1.008 1.007" class="prefix__cls-3" data-name="Fill 425" transform="translate(41.785 45.303)"/>
            <path id="prefix__Fill_427" d="M1.008 0a1.007 1.007 0 1 0 1.006 1.008A1.007 1.007 0 0 0 1.008 0" class="prefix__cls-3" data-name="Fill 427" transform="translate(45.813 45.303)"/>
            <path id="prefix__Fill_429" d="M1.007 2.014A1.007 1.007 0 1 0 0 1.007a1.007 1.007 0 0 0 1.007 1.007" class="prefix__cls-3" data-name="Fill 429" transform="translate(49.841 45.303)"/>
            <path id="prefix__Fill_431" d="M1.007 0a1.007 1.007 0 1 0 1.007 1.008A1.007 1.007 0 0 0 1.007 0" class="prefix__cls-3" data-name="Fill 431" transform="translate(53.868 45.303)"/>
            <path id="prefix__Fill_433" d="M1.007 0a1.007 1.007 0 1 0 1.007 1.008A1.007 1.007 0 0 0 1.007 0" class="prefix__cls-3" data-name="Fill 433" transform="translate(57.896 45.303)"/>
            <path id="prefix__Fill_435" d="M1.008 2.014A1.006 1.006 0 0 1 1.01 0a1.007 1.007 0 1 0 0 2.014" class="prefix__cls-3" data-name="Fill 435" transform="translate(31.716 48.323)"/>
            <path id="prefix__Fill_437" d="M1.008 0a1.007 1.007 0 1 0 1.006 1.008A1.007 1.007 0 0 0 1.008 0" class="prefix__cls-3" data-name="Fill 437" transform="translate(35.743 48.323)"/>
            <path id="prefix__Fill_439" d="M1.008 2.014A1.007 1.007 0 1 0 0 1.007a1.007 1.007 0 0 0 1.008 1.007" class="prefix__cls-3" data-name="Fill 439" transform="translate(39.771 48.323)"/>
            <path id="prefix__Fill_441" d="M1.007 2.014A1.007 1.007 0 1 0 0 1.007a1.007 1.007 0 0 0 1.007 1.007" class="prefix__cls-3" data-name="Fill 441" transform="translate(43.799 48.323)"/>
            <path id="prefix__Fill_443" d="M1.007 2.014A1.007 1.007 0 1 0 0 1.007a1.007 1.007 0 0 0 1.007 1.007" class="prefix__cls-3" data-name="Fill 443" transform="translate(47.827 48.323)"/>
            <path id="prefix__Fill_445" d="M1.007 0a1.007 1.007 0 1 0 1.007 1.008A1.007 1.007 0 0 0 1.007 0" class="prefix__cls-3" data-name="Fill 445" transform="translate(51.855 48.323)"/>
            <path id="prefix__Fill_447" d="M1.007 0a1.007 1.007 0 1 0 1.007 1.008A1.007 1.007 0 0 0 1.007 0" class="prefix__cls-3" data-name="Fill 447" transform="translate(55.882 48.323)"/>
            <path id="prefix__Fill_449" d="M1.008 2.013A1.007 1.007 0 1 0 0 1.007a1.007 1.007 0 0 0 1.008 1.006" class="prefix__cls-3" data-name="Fill 449" transform="translate(33.73 51.345)"/>
            <path id="prefix__Fill_451" d="M1.008 2.013A1.007 1.007 0 1 0 0 1.007a1.007 1.007 0 0 0 1.008 1.006" class="prefix__cls-3" data-name="Fill 451" transform="translate(37.757 51.345)"/>
            <path id="prefix__Fill_453" d="M1.008 2.013A1.007 1.007 0 1 0 0 1.007a1.007 1.007 0 0 0 1.008 1.006" class="prefix__cls-3" data-name="Fill 453" transform="translate(41.785 51.345)"/>
            <path id="prefix__Fill_455" d="M1.008 2.013A1.007 1.007 0 1 0 0 1.007a1.007 1.007 0 0 0 1.008 1.006" class="prefix__cls-3" data-name="Fill 455" transform="translate(45.813 51.345)"/>
            <path id="prefix__Fill_457" d="M1.007 0a1.007 1.007 0 1 0 1.007 1.008A1.007 1.007 0 0 0 1.007 0" class="prefix__cls-3" data-name="Fill 457" transform="translate(49.841 51.345)"/>
            <path id="prefix__Fill_459" d="M1.007 0a1.007 1.007 0 1 0 0 2.013 1 1 0 0 0 .677-.271l.065-.068a.992.992 0 0 0 .266-.667A1.007 1.007 0 0 0 1.007 0" class="prefix__cls-3" data-name="Fill 459" transform="translate(53.868 51.345)"/>
            <path id="prefix__Fill_461" d="M1.008 2.013A1.006 1.006 0 0 1 1.01 0a1.007 1.007 0 1 0 0 2.013" class="prefix__cls-3" data-name="Fill 461" transform="translate(31.716 54.365)"/>
            <path id="prefix__Fill_463" d="M1.008 2.013A1.007 1.007 0 1 0 0 1.007a1.007 1.007 0 0 0 1.008 1.006" class="prefix__cls-3" data-name="Fill 463" transform="translate(35.743 54.365)"/>
            <path id="prefix__Fill_465" d="M1.008 0a1.007 1.007 0 1 0 1.006 1.008A1.007 1.007 0 0 0 1.008 0" class="prefix__cls-3" data-name="Fill 465" transform="translate(39.771 54.365)"/>
            <path id="prefix__Fill_467" d="M1.007 0a1.007 1.007 0 1 0 1.007 1.008A1.007 1.007 0 0 0 1.007 0" class="prefix__cls-3" data-name="Fill 467" transform="translate(43.799 54.365)"/>
            <path id="prefix__Fill_469" d="M1.007 0a1.007 1.007 0 1 0 1.007 1.008A1.007 1.007 0 0 0 1.007 0" class="prefix__cls-3" data-name="Fill 469" transform="translate(47.827 54.365)"/>
            <path id="prefix__Fill_471" d="M1.007 0A1.007 1.007 0 0 0 0 1.008a.989.989 0 0 0 .383.77C.891 1.372 1.39.956 1.872.521A.994.994 0 0 0 1.007 0" class="prefix__cls-3" data-name="Fill 471" transform="translate(51.855 54.365)"/>
            <path id="prefix__Fill_473" d="M1.008 0a1.007 1.007 0 1 0 1.006 1.008A1.007 1.007 0 0 0 1.008 0" class="prefix__cls-3" data-name="Fill 473" transform="translate(33.73 57.386)"/>
            <path id="prefix__Fill_475" d="M1.008 0a1.007 1.007 0 1 0 1.006 1.008A1.007 1.007 0 0 0 1.008 0" class="prefix__cls-3" data-name="Fill 475" transform="translate(37.757 57.386)"/>
            <path id="prefix__Fill_477" d="M1.008 0a1.007 1.007 0 1 0 1.006 1.008A1.007 1.007 0 0 0 1.008 0" class="prefix__cls-3" data-name="Fill 477" transform="translate(41.785 57.386)"/>
            <path id="prefix__Fill_479" d="M1.008 0a1.007 1.007 0 1 0 1.006 1.008A1.007 1.007 0 0 0 1.008 0" class="prefix__cls-3" data-name="Fill 479" transform="translate(45.813 57.386)"/>
            <path id="prefix__Fill_481" d="M.225.516C.341.437.453.356.568.277a1.014 1.014 0 0 0-.343.239" class="prefix__cls-3" data-name="Fill 481" transform="translate(49.897 57.186)"/>
            <path id="prefix__Fill_483" d="M.006 1.008A1.007 1.007 0 0 1 1.01 0a1.008 1.008 0 0 0 0 2.015 1.007 1.007 0 0 1-1-1.007" class="prefix__cls-3" data-name="Fill 483" transform="translate(31.717 60.406)"/>
            <path id="prefix__Fill_485" d="M1.008 0a1.007 1.007 0 1 0 1.006 1.008A1.007 1.007 0 0 0 1.008 0" class="prefix__cls-3" data-name="Fill 485" transform="translate(35.743 60.406)"/>
            <path id="prefix__Fill_487" d="M1.008 0a1 1 0 0 0-.693 1.733c.553-.137 1.1-.286 1.644-.451a.959.959 0 0 0 .055-.274A1.007 1.007 0 0 0 1.008 0" class="prefix__cls-3" data-name="Fill 487" transform="translate(39.771 60.406)"/>
            <path id="prefix__Fill_489" d="M0 .651C.376.5.749.355 1.118.2A.965.965 0 0 0 .855.142.992.992 0 0 0 0 .651" class="prefix__cls-3" data-name="Fill 489" transform="translate(43.951 60.264)"/>
            <g id="prefix__Group_493" data-name="Group 493" transform="translate(0 30.122)">
                <path id="prefix__Clip_492-2" d="M.011 0h.771v.959H.011z" class="prefix__cls-1" data-name="Clip 492" transform="translate(.782 .141)"/>
                <g id="prefix__Group_493-2" data-name="Group 493">
                    <path id="prefix__Fill_491" d="M.741.959V.943A1 1 0 0 0 .05 0v.032a1 1 0 0 1 .691.927" class="prefix__cls-3" data-name="Fill 491" transform="translate(.771 .141)"/>
                </g>
            </g>
            <g id="prefix__Group_496" data-name="Group 496" transform="translate(0 30.122)">
                <path id="prefix__Clip_495-2" d="M.018 0h.756v1.857H.018z" class="prefix__cls-1" data-name="Clip 495" transform="translate(.774 .172)"/>
                <g id="prefix__Group_496-2" data-name="Group 496">
                    <path id="prefix__Fill_494" d="M.756.927A1 1 0 0 0 .064 0C.052.359.037.717.037 1.079c0 .262.013.519.02.778a.993.993 0 0 0 .7-.93" class="prefix__cls-3" data-name="Fill 494" transform="translate(.756 .172)"/>
                </g>
            </g>
            <path id="prefix__Fill_497" d="M1.007.032a1.006 1.006 0 0 1 1 .991v-.016a1.007 1.007 0 0 0-2.007 0v.016a1.006 1.006 0 0 1 1-.991" class="prefix__cls-3" data-name="Fill 497" transform="translate(3.529 30.199)"/>
            <path id="prefix__Fill_499" d="M1 1.982A1.007 1.007 0 0 0 2 .99a1 1 0 0 0-2 .001 1.006 1.006 0 0 0 1 .992" class="prefix__cls-3" data-name="Fill 499" transform="translate(3.532 30.231)"/>
            <path id="prefix__Fill_501" d="M1.007.032a1 1 0 0 1 1 .991.116.116 0 0 0 0-.016 1.007 1.007 0 0 0-2.007 0v.016a1 1 0 0 1 1-.991" class="prefix__cls-3" data-name="Fill 501" transform="translate(7.556 30.199)"/>
            <path id="prefix__Fill_503" d="M1 1.982A1 1 0 0 0 2 .99a1 1 0 0 0-2 .001 1 1 0 0 0 1 .992" class="prefix__cls-3" data-name="Fill 503" transform="translate(7.56 30.231)"/>
            <path id="prefix__Fill_505" d="M0 1.023a1 1 0 0 1 2.007 0 .116.116 0 0 0 0-.016 1.007 1.007 0 0 0-2.007 0v.016" class="prefix__cls-3" data-name="Fill 505" transform="translate(11.584 30.199)"/>
            <path id="prefix__Fill_507" d="M1 0a1 1 0 0 0-1 .991 1 1 0 0 0 2.007 0A1 1 0 0 0 1 0" class="prefix__cls-3" data-name="Fill 507" transform="translate(11.587 30.231)"/>
            <path id="prefix__Fill_509" d="M0 1.023a1 1 0 0 1 2.007 0 .116.116 0 0 0 0-.016 1.007 1.007 0 0 0-2.007 0v.016" class="prefix__cls-3" data-name="Fill 509" transform="translate(15.612 30.199)"/>
            <path id="prefix__Fill_511" d="M1 0a1 1 0 0 0-1 .991 1 1 0 0 0 2.007 0A1 1 0 0 0 1 0" class="prefix__cls-3" data-name="Fill 511" transform="translate(15.615 30.231)"/>
            <path id="prefix__Fill_513" d="M1.008.032a1 1 0 0 1 1 .991v-.016a1.008 1.008 0 0 0-2.008 0v.016a1 1 0 0 1 1-.991" class="prefix__cls-3" data-name="Fill 513" transform="translate(19.639 30.199)"/>
            <path id="prefix__Fill_515" d="M1 1.982A1 1 0 0 0 2 .99a1 1 0 0 0-2 .001 1 1 0 0 0 1 .992" class="prefix__cls-3" data-name="Fill 515" transform="translate(19.643 30.231)"/>
            <path id="prefix__Fill_517" d="M1.008.032a1 1 0 0 1 1 .991v-.016a1.008 1.008 0 0 0-2.008 0v.016a1 1 0 0 1 1-.991" class="prefix__cls-3" data-name="Fill 517" transform="translate(23.666 30.199)"/>
            <path id="prefix__Fill_519" d="M1 1.982A1 1 0 0 0 2 .99a1 1 0 0 0-2 .001 1 1 0 0 0 1 .992" class="prefix__cls-3" data-name="Fill 519" transform="translate(23.67 30.231)"/>
            <path id="prefix__Fill_521" d="M1.008 0A1.007 1.007 0 0 0 0 1.008a.143.143 0 0 0 0 .015 1 1 0 0 1 2.007 0v-.015A1.007 1.007 0 0 0 1.008 0" class="prefix__cls-3" data-name="Fill 521" transform="translate(27.694 30.199)"/>
            <path id="prefix__Fill_523" d="M1 0a1 1 0 0 0-1 .991 1 1 0 0 0 2.007 0A1 1 0 0 0 1 0" class="prefix__cls-3" data-name="Fill 523" transform="translate(27.698 30.231)"/>
            <path id="prefix__Fill_525" d="M0 0a1.007 1.007 0 0 1 1 1.008.092.092 0 0 1 0 .014v-.015A1.007 1.007 0 0 0 0 0" class="prefix__cls-3" data-name="Fill 525" transform="translate(32.726 30.199)"/>
            <path id="prefix__Fill_527" d="M.394.4S.4.405.4.411A.1.1 0 0 0 .4.4a.092.092 0 0 0 0-.018v.014" class="prefix__cls-3" data-name="Fill 527" transform="translate(33.333 30.826)"/>
            <path id="prefix__Fill_529" d="M0 .991a1 1 0 0 0 1-.976V0a1 1 0 0 1-1 .991" class="prefix__cls-3" data-name="Fill 529" transform="translate(32.726 31.222)"/>
            <path id="prefix__Fill_531" d="M0 1.007a1 1 0 0 1 1-.975h.006a1 1 0 0 1 1 .977A1 1 0 1 0 0 1.007" class="prefix__cls-3" data-name="Fill 531" transform="translate(31.722 30.199)"/>
            <path id="prefix__Fill_533" d="M1 0a1 1 0 0 0-1 .977.092.092 0 0 0 0 .014A1 1 0 0 1 1 0" class="prefix__cls-3" data-name="Fill 533" transform="translate(31.723 30.231)"/>
            <path id="prefix__Fill_535" d="M0 0a1.006 1.006 0 0 1 1 .99V.976A1 1 0 0 0 0 0" class="prefix__cls-3" data-name="Fill 535" transform="translate(32.726 30.231)"/>
            <path id="prefix__Fill_537" d="M1 0a1 1 0 0 0-1 .99 1 1 0 0 0 2 0A1.006 1.006 0 0 0 1 0" class="prefix__cls-3" data-name="Fill 537" transform="translate(31.726 30.232)"/>
            <path id="prefix__Fill_539" d="M1.007 0a1.007 1.007 0 1 0 1.007 1.008A1.007 1.007 0 0 0 1.007 0" class="prefix__cls-3" data-name="Fill 539" transform="translate(1.515 33.22)"/>
            <path id="prefix__Fill_541" d="M1.007 2.014A1.007 1.007 0 1 0 0 1.007a1.007 1.007 0 0 0 1.007 1.007" class="prefix__cls-3" data-name="Fill 541" transform="translate(5.543 33.22)"/>
            <path id="prefix__Fill_543" d="M1.007 2.014A1.007 1.007 0 1 0 0 1.007a1.007 1.007 0 0 0 1.007 1.007" class="prefix__cls-3" data-name="Fill 543" transform="translate(9.57 33.22)"/>
            <path id="prefix__Fill_545" d="M1.007 0a1.007 1.007 0 1 0 1.007 1.008A1.007 1.007 0 0 0 1.007 0" class="prefix__cls-3" data-name="Fill 545" transform="translate(13.598 33.22)"/>
            <path id="prefix__Fill_547" d="M1.007 0a1.007 1.007 0 1 0 1.006 1.008A1.007 1.007 0 0 0 1.007 0" class="prefix__cls-3" data-name="Fill 547" transform="translate(17.626 33.22)"/>
            <path id="prefix__Fill_549" d="M1.007 2.014A1.007 1.007 0 1 0 0 1.007a1.007 1.007 0 0 0 1.007 1.007" class="prefix__cls-3" data-name="Fill 549" transform="translate(21.653 33.22)"/>
            <path id="prefix__Fill_551" d="M1.007 2.014A1.007 1.007 0 1 0 0 1.007a1.007 1.007 0 0 0 1.007 1.007" class="prefix__cls-3" data-name="Fill 551" transform="translate(25.681 33.22)"/>
            <path id="prefix__Fill_553" d="M1.008 2.014A1.007 1.007 0 1 0 0 1.007a1.007 1.007 0 0 0 1.008 1.007" class="prefix__cls-3" data-name="Fill 553" transform="translate(29.708 33.22)"/>
            <path id="prefix__Fill_555" d="M.248 0c.062.379.126.756.2 1.13a.991.991 0 0 0 .1-.417A1 1 0 0 0 .248 0" class="prefix__cls-3" data-name="Fill 555" transform="translate(.97 36.534)"/>
            <path id="prefix__Fill_557" d="M1.007 2.013A1.007 1.007 0 1 0 0 1.006a1.007 1.007 0 0 0 1.007 1.007" class="prefix__cls-3" data-name="Fill 557" transform="translate(3.529 36.241)"/>
            <path id="prefix__Fill_559" d="M1.007 0a1.007 1.007 0 1 0 1.007 1.007A1.007 1.007 0 0 0 1.007 0" class="prefix__cls-3" data-name="Fill 559" transform="translate(7.556 36.241)"/>
            <path id="prefix__Fill_561" d="M1.007 2.013A1.007 1.007 0 1 0 0 1.006a1.007 1.007 0 0 0 1.007 1.007" class="prefix__cls-3" data-name="Fill 561" transform="translate(11.584 36.241)"/>
            <path id="prefix__Fill_563" d="M1.007 0a1.007 1.007 0 1 0 1.007 1.007A1.006 1.006 0 0 0 1.007 0" class="prefix__cls-3" data-name="Fill 563" transform="translate(15.612 36.241)"/>
            <path id="prefix__Fill_565" d="M1.008 0a1.007 1.007 0 1 0 1.007 1.007A1.007 1.007 0 0 0 1.008 0" class="prefix__cls-3" data-name="Fill 565" transform="translate(19.639 36.241)"/>
            <path id="prefix__Fill_567" d="M1.008 2.013A1.007 1.007 0 1 0 0 1.006a1.007 1.007 0 0 0 1.008 1.007" class="prefix__cls-3" data-name="Fill 567" transform="translate(23.666 36.241)"/>
            <path id="prefix__Fill_569" d="M1.008 2.013A1.007 1.007 0 1 0 0 1.006a1.006 1.006 0 0 0 1.008 1.007" class="prefix__cls-3" data-name="Fill 569" transform="translate(27.694 36.241)"/>
            <path id="prefix__Fill_571" d="M0 0a1.007 1.007 0 0 1 1 1.007 1.006 1.006 0 0 1-1 1.006A1.007 1.007 0 0 0 0 0" class="prefix__cls-3" data-name="Fill 571" transform="translate(32.726 36.241)"/>
            <path id="prefix__Fill_573" d="M2.008 1.007A1 1 0 1 0 1 2.013a1.007 1.007 0 0 0 1-1.007" class="prefix__cls-3" data-name="Fill 573" transform="translate(31.722 36.241)"/>
            <path id="prefix__Fill_575" d="M1.673 1.007A1.007 1.007 0 0 0 .665 0 .992.992 0 0 0 0 .264c.154.58.327 1.153.513 1.719a.9.9 0 0 0 .152.032 1.007 1.007 0 0 0 1.008-1.008" class="prefix__cls-3" data-name="Fill 575" transform="translate(1.856 39.261)"/>
            <path id="prefix__Fill_577" d="M1.007 2.013A1.007 1.007 0 1 0 0 1.006a1.007 1.007 0 0 0 1.007 1.007" class="prefix__cls-3" data-name="Fill 577" transform="translate(5.543 39.262)"/>
            <path id="prefix__Fill_579" d="M1.007 0a1.007 1.007 0 1 0 1.007 1.007A1.006 1.006 0 0 0 1.007 0" class="prefix__cls-3" data-name="Fill 579" transform="translate(9.57 39.262)"/>
            <path id="prefix__Fill_581" d="M1.007 2.013A1.007 1.007 0 1 0 0 1.006a1.007 1.007 0 0 0 1.007 1.007" class="prefix__cls-3" data-name="Fill 581" transform="translate(13.598 39.262)"/>
            <path id="prefix__Fill_583" d="M1.007 2.013A1.007 1.007 0 1 0 0 1.006a1.006 1.006 0 0 0 1.007 1.007" class="prefix__cls-3" data-name="Fill 583" transform="translate(17.626 39.262)"/>
            <path id="prefix__Fill_585" d="M1.007 2.013A1.007 1.007 0 1 0 0 1.006a1.006 1.006 0 0 0 1.007 1.007" class="prefix__cls-3" data-name="Fill 585" transform="translate(21.653 39.262)"/>
            <path id="prefix__Fill_587" d="M1.007 0a1.007 1.007 0 1 0 1.006 1.007A1.006 1.006 0 0 0 1.007 0" class="prefix__cls-3" data-name="Fill 587" transform="translate(25.681 39.262)"/>
            <path id="prefix__Fill_589" d="M1.008 2.013A1.007 1.007 0 1 0 0 1.006a1.006 1.006 0 0 0 1.008 1.007" class="prefix__cls-3" data-name="Fill 589" transform="translate(29.708 39.262)"/>
            <path id="prefix__Fill_591" d="M1.007 0a1.007 1.007 0 1 0 1.007 1.008A1.007 1.007 0 0 0 1.007 0" class="prefix__cls-3" data-name="Fill 591" transform="translate(3.529 42.282)"/>
            <path id="prefix__Fill_593" d="M1.007 2.014A1.007 1.007 0 1 0 0 1.007a1.007 1.007 0 0 0 1.007 1.007" class="prefix__cls-3" data-name="Fill 593" transform="translate(7.556 42.282)"/>
            <path id="prefix__Fill_595" d="M1.007 2.014A1.007 1.007 0 1 0 0 1.007a1.007 1.007 0 0 0 1.007 1.007" class="prefix__cls-3" data-name="Fill 595" transform="translate(11.584 42.282)"/>
            <path id="prefix__Fill_597" d="M1.007 2.014A1.007 1.007 0 1 0 0 1.007a1.007 1.007 0 0 0 1.007 1.007" class="prefix__cls-3" data-name="Fill 597" transform="translate(15.612 42.282)"/>
            <path id="prefix__Fill_599" d="M1.008 2.014A1.007 1.007 0 1 0 0 1.007a1.007 1.007 0 0 0 1.008 1.007" class="prefix__cls-3" data-name="Fill 599" transform="translate(19.639 42.282)"/>
            <path id="prefix__Fill_601" d="M1.008 2.014A1.007 1.007 0 1 0 0 1.007a1.007 1.007 0 0 0 1.008 1.007" class="prefix__cls-3" data-name="Fill 601" transform="translate(23.666 42.282)"/>
            <path id="prefix__Fill_603" d="M1.008 2.014A1.007 1.007 0 1 0 0 1.007a1.007 1.007 0 0 0 1.008 1.007" class="prefix__cls-3" data-name="Fill 603" transform="translate(27.694 42.282)"/>
            <path id="prefix__Fill_605" d="M1 1.008a1.007 1.007 0 0 1-1 1.006 1.007 1.007 0 0 0 1.01-1.006A1.007 1.007 0 0 0 0 0a1.007 1.007 0 0 1 1 1.008" class="prefix__cls-3" data-name="Fill 605" transform="translate(32.726 42.282)"/>
            <path id="prefix__Fill_607" d="M0 1.007A1 1 0 1 0 1 0a1.007 1.007 0 0 0-1 1.007" class="prefix__cls-3" data-name="Fill 607" transform="translate(31.722 42.283)"/>
            <path id="prefix__Fill_609" d="M1.007 0a1.007 1.007 0 1 0 1.007 1.008A1.007 1.007 0 0 0 1.007 0" class="prefix__cls-3" data-name="Fill 609" transform="translate(5.543 45.303)"/>
            <path id="prefix__Fill_611" d="M1.007 2.014A1.007 1.007 0 1 0 0 1.007a1.007 1.007 0 0 0 1.007 1.007" class="prefix__cls-3" data-name="Fill 611" transform="translate(9.57 45.303)"/>
            <path id="prefix__Fill_613" d="M1.007 2.014A1.007 1.007 0 1 0 0 1.007a1.007 1.007 0 0 0 1.007 1.007" class="prefix__cls-3" data-name="Fill 613" transform="translate(13.598 45.303)"/>
            <path id="prefix__Fill_615" d="M1.007 0a1.007 1.007 0 1 0 1.006 1.008A1.007 1.007 0 0 0 1.007 0" class="prefix__cls-3" data-name="Fill 615" transform="translate(17.626 45.303)"/>
            <path id="prefix__Fill_617" d="M1.007 0a1.007 1.007 0 1 0 1.006 1.008A1.007 1.007 0 0 0 1.007 0" class="prefix__cls-3" data-name="Fill 617" transform="translate(21.653 45.303)"/>
            <path id="prefix__Fill_619" d="M1.007 2.014A1.007 1.007 0 1 0 0 1.007a1.007 1.007 0 0 0 1.007 1.007" class="prefix__cls-3" data-name="Fill 619" transform="translate(25.681 45.303)"/>
            <path id="prefix__Fill_621" d="M1.008 2.014A1.007 1.007 0 1 0 0 1.007a1.007 1.007 0 0 0 1.008 1.007" class="prefix__cls-3" data-name="Fill 621" transform="translate(29.708 45.303)"/>
            <path id="prefix__Fill_623" d="M1.007 0a1.007 1.007 0 1 0 1.007 1.008A1.007 1.007 0 0 0 1.007 0" class="prefix__cls-3" data-name="Fill 623" transform="translate(7.556 48.323)"/>
            <path id="prefix__Fill_625" d="M1.007 0a1.007 1.007 0 1 0 1.007 1.008A1.007 1.007 0 0 0 1.007 0" class="prefix__cls-3" data-name="Fill 625" transform="translate(11.584 48.323)"/>
            <path id="prefix__Fill_627" d="M1.007 2.014A1.007 1.007 0 1 0 0 1.007a1.007 1.007 0 0 0 1.007 1.007" class="prefix__cls-3" data-name="Fill 627" transform="translate(15.612 48.323)"/>
            <path id="prefix__Fill_629" d="M1.008 2.014A1.007 1.007 0 1 0 0 1.007a1.007 1.007 0 0 0 1.008 1.007" class="prefix__cls-3" data-name="Fill 629" transform="translate(19.639 48.323)"/>
            <path id="prefix__Fill_631" d="M1.008 2.014A1.007 1.007 0 1 0 0 1.007a1.007 1.007 0 0 0 1.008 1.007" class="prefix__cls-3" data-name="Fill 631" transform="translate(23.666 48.323)"/>
            <path id="prefix__Fill_633" d="M1.008 0a1.007 1.007 0 1 0 1.006 1.008A1.007 1.007 0 0 0 1.008 0" class="prefix__cls-3" data-name="Fill 633" transform="translate(27.694 48.323)"/>
            <path id="prefix__Fill_635" d="M1 1.008a1.007 1.007 0 0 1-1 1.006 1.007 1.007 0 0 0 1.01-1.006A1.007 1.007 0 0 0 0 0a1.007 1.007 0 0 1 1 1.008" class="prefix__cls-3" data-name="Fill 635" transform="translate(32.726 48.323)"/>
            <path id="prefix__Fill_637" d="M0 1.007A1 1 0 1 0 1 0a1.007 1.007 0 0 0-1 1.007" class="prefix__cls-3" data-name="Fill 637" transform="translate(31.722 48.324)"/>
            <path id="prefix__Fill_639" d="M1.007 0a1.007 1.007 0 1 0 1.007 1.008A1.006 1.006 0 0 0 1.007 0" class="prefix__cls-3" data-name="Fill 639" transform="translate(9.57 51.345)"/>
            <path id="prefix__Fill_641" d="M1.007 0a1.007 1.007 0 1 0 1.007 1.008A1.006 1.006 0 0 0 1.007 0" class="prefix__cls-3" data-name="Fill 641" transform="translate(13.598 51.345)"/>
            <path id="prefix__Fill_643" d="M1.007 2.013A1.007 1.007 0 1 0 0 1.007a1.006 1.006 0 0 0 1.007 1.006" class="prefix__cls-3" data-name="Fill 643" transform="translate(17.626 51.345)"/>
            <path id="prefix__Fill_645" d="M1.007 2.013A1.007 1.007 0 1 0 0 1.007a1.006 1.006 0 0 0 1.007 1.006" class="prefix__cls-3" data-name="Fill 645" transform="translate(21.653 51.345)"/>
            <path id="prefix__Fill_647" d="M1.007 2.013A1.007 1.007 0 1 0 0 1.007a1.006 1.006 0 0 0 1.007 1.006" class="prefix__cls-3" data-name="Fill 647" transform="translate(25.681 51.345)"/>
            <path id="prefix__Fill_649" d="M1.008 2.013A1.007 1.007 0 1 0 0 1.007a1.006 1.006 0 0 0 1.008 1.006" class="prefix__cls-3" data-name="Fill 649" transform="translate(29.708 51.345)"/>
            <path id="prefix__Fill_651" d="M1.982 1.008A1.007 1.007 0 0 0 .974 0 .994.994 0 0 0 0 .848q.646.566 1.321 1.1a1 1 0 0 0 .66-.937" class="prefix__cls-3" data-name="Fill 651" transform="translate(11.616 54.365)"/>
            <path id="prefix__Fill_653" d="M1.007 0a1.007 1.007 0 1 0 1.007 1.008A1.006 1.006 0 0 0 1.007 0" class="prefix__cls-3" data-name="Fill 653" transform="translate(15.612 54.365)"/>
            <path id="prefix__Fill_655" d="M1.008 0a1.007 1.007 0 1 0 1.007 1.008A1.007 1.007 0 0 0 1.008 0" class="prefix__cls-3" data-name="Fill 655" transform="translate(19.639 54.365)"/>
            <path id="prefix__Fill_657" d="M1.008 0a1.007 1.007 0 1 0 1.007 1.008A1.007 1.007 0 0 0 1.008 0" class="prefix__cls-3" data-name="Fill 657" transform="translate(23.666 54.365)"/>
            <path id="prefix__Fill_659" d="M1.008 2.013A1.007 1.007 0 1 0 0 1.007a1.006 1.006 0 0 0 1.008 1.006" class="prefix__cls-3" data-name="Fill 659" transform="translate(27.694 54.365)"/>
            <path id="prefix__Fill_661" d="M1 1.008a1.007 1.007 0 0 1-1 1.006 1.007 1.007 0 0 0 1.01-1.006A1.007 1.007 0 0 0 0 0a1.007 1.007 0 0 1 1 1.008" class="prefix__cls-3" data-name="Fill 661" transform="translate(32.726 54.365)"/>
            <path id="prefix__Fill_663" d="M0 1.007A1 1 0 1 0 1 0a1.007 1.007 0 0 0-1 1.007" class="prefix__cls-3" data-name="Fill 663" transform="translate(31.722 54.365)"/>
            <path id="prefix__Fill_665" d="M.166.007A.983.983 0 0 0 0 .04q.555.385 1.127.746A.992.992 0 0 0 .166.007" class="prefix__cls-3" data-name="Fill 665" transform="translate(14.438 57.379)"/>
            <path id="prefix__Fill_667" d="M1.007 0a1.007 1.007 0 1 0 1.006 1.008A1.007 1.007 0 0 0 1.007 0" class="prefix__cls-3" data-name="Fill 667" transform="translate(17.626 57.386)"/>
            <path id="prefix__Fill_669" d="M1.007 0a1.007 1.007 0 1 0 1.006 1.008A1.007 1.007 0 0 0 1.007 0" class="prefix__cls-3" data-name="Fill 669" transform="translate(21.653 57.386)"/>
            <path id="prefix__Fill_671" d="M1.007 0a1.007 1.007 0 1 0 1.006 1.008A1.007 1.007 0 0 0 1.007 0" class="prefix__cls-3" data-name="Fill 671" transform="translate(25.681 57.386)"/>
            <path id="prefix__Fill_673" d="M1.008 0a1.007 1.007 0 1 0 1.006 1.008A1.007 1.007 0 0 0 1.008 0" class="prefix__cls-3" data-name="Fill 673" transform="translate(29.708 57.386)"/>
            <path id="prefix__Fill_675" d="M.512.027A.984.984 0 0 0 0 .187q.723.307 1.465.579A.994.994 0 0 0 .512.027" class="prefix__cls-3" data-name="Fill 675" transform="translate(20.134 60.379)"/>
            <path id="prefix__Fill_677" d="M2.014 1.008a1.007 1.007 0 1 0-2.014 0 1 1 0 0 0 .1.427q.729.208 1.472.382a.99.99 0 0 0 .439-.809" class="prefix__cls-3" data-name="Fill 677" transform="translate(23.667 60.406)"/>
            <path id="prefix__Fill_679" d="M1.008 0a1.007 1.007 0 1 0 1.006 1.008A1.007 1.007 0 0 0 1.008 0" class="prefix__cls-3" data-name="Fill 679" transform="translate(27.694 60.406)"/>
            <path id="prefix__Fill_681" d="M0 0a1.007 1.007 0 0 1 1 1.008 1.006 1.006 0 0 1-1 1.005 1.007 1.007 0 0 0 1.01-1.005A1.007 1.007 0 0 0 0 0" class="prefix__cls-3" data-name="Fill 681" transform="translate(32.726 60.406)"/>
            <path id="prefix__Fill_683" d="M2.008 1.007A1 1 0 1 0 1 2.013a1.007 1.007 0 0 0 1-1.007" class="prefix__cls-3" data-name="Fill 683" transform="translate(31.722 60.407)"/>
        </g>
        <path id="prefix__Fill_686" d="M1.9 6.267L.728 12.339 2.521 22.8l2.8 6.971 1.466 3.909-1.41 3.394L2.24 39.66 0 46.8l.167 3.823 22.015 1.123 6.665-4.89 2.633-7.027-1.164-8.5-4.788-6.073-8.57-3.12.209-3.585-2.9-3.2-4.033-4.933-1.22-5.056 1.348-3.086L8.6 0z" class="prefix__cls-10" data-name="Fill 686" transform="translate(21.418 20.132)"/>
        <g id="prefix__Group_717" data-name="Group 717" transform="translate(16.646 .586)">
            <path id="prefix__Fill_687" d="M11 11.04c-3.144 3.155-7.5 3.9-9.719 1.671S-.2 6.112 2.946 2.957s7.495-3.9 9.719-1.672 1.479 6.6-1.665 9.755" class="prefix__cls-10" data-name="Fill 687" transform="translate(13.467 8.701)"/>
            <path id="prefix__Stroke_689" d="M11 11.04c-3.144 3.155-7.5 3.9-9.719 1.671S-.2 6.112 2.946 2.957s7.495-3.9 9.719-1.672 1.479 6.6-1.665 9.755z" class="prefix__cls-11" data-name="Stroke 689" transform="translate(13.467 8.701)"/>
            <path id="prefix__Fill_691" d="M27.846 10.664c-1.122 1.94-3.725 2.506-6.152 3.034-1.335.289-1.505.155-2.706.494a14.732 14.732 0 0 0-4.5 2.223c-2.854 2.173-2.172 4.372-5.414 7.585-1.15 1.14-2.933 2.857-5.353 2.844-1.662-.009-3.587-.831-3.715-1.857-.086-.689.688-1.076 1.932-2.469a19.635 19.635 0 0 0 2.5-3.669 30.841 30.841 0 0 0 2.411-5.934c.839-2.464.932-3.177 1.773-5.15a17.574 17.574 0 0 1 1.441-2.957A11.558 11.558 0 0 1 16.281.292a10.429 10.429 0 0 1 7.136.847 8.541 8.541 0 0 1 4.219 4.128c.269.615 1.433 3.283.211 5.4" class="prefix__cls-3" data-name="Fill 691" transform="translate(.351 .484)"/>
            <path id="prefix__Stroke_693" d="M27.846 10.664c-1.122 1.94-3.725 2.506-6.152 3.034-1.335.289-1.505.155-2.706.494a14.732 14.732 0 0 0-4.5 2.223c-2.854 2.173-2.172 4.372-5.414 7.585-1.15 1.14-2.933 2.857-5.353 2.844-1.662-.009-3.587-.831-3.715-1.857-.086-.689.688-1.076 1.932-2.469a19.635 19.635 0 0 0 2.5-3.669 30.841 30.841 0 0 0 2.411-5.934c.839-2.464.932-3.177 1.773-5.15a17.574 17.574 0 0 1 1.441-2.957A11.558 11.558 0 0 1 16.281.292a10.429 10.429 0 0 1 7.136.847 8.541 8.541 0 0 1 4.219 4.128c.264.614 1.433 3.281.21 5.397z" class="prefix__cls-11" data-name="Stroke 693" transform="translate(.351 .484)"/>
            <path id="prefix__Stroke_695" d="M1.522 0A5.46 5.46 0 0 0 .058 2.961a3.886 3.886 0 0 0 .071 1.694 18.748 18.748 0 0 0 3.8 6.774 18.532 18.532 0 0 0 4.183 3.527 3.374 3.374 0 0 1 .035 3.527 3.245 3.245 0 0 1-1.9 1.341 15.521 15.521 0 0 1 12.021 26.391" class="prefix__cls-12" data-name="Stroke 695" transform="translate(13.726 21.946)"/>
            <path id="prefix__Stroke_697" d="M1.962 0a18.377 18.377 0 0 0-.9 4.066c-.7 6.912 1.988 15.984 4.781 19.568a4.66 4.66 0 0 1 .89 3.716 4.414 4.414 0 0 1-1.359 2.305 13.638 13.638 0 0 0-2.06 1.835 12.049 12.049 0 0 0-1.734 2.351 12.19 12.19 0 0 0-1.359 4.046 14.735 14.735 0 0 0-.188 3.528" class="prefix__cls-12" data-name="Stroke 697" transform="translate(4.916 26.581)"/>
            <path id="prefix__Fill_699" d="M6.858 4.584a3.687 3.687 0 0 1-4.192 3.072A3.687 3.687 0 0 1 .1 3.14 3.685 3.685 0 0 1 4.288.069a3.685 3.685 0 0 1 2.57 4.515" class="prefix__cls-10" data-name="Fill 699" transform="translate(23.858 47.318)"/>
            <path id="prefix__Stroke_701" d="M6.858 4.584a3.687 3.687 0 0 1-4.192 3.072A3.687 3.687 0 0 1 .1 3.14 3.685 3.685 0 0 1 4.288.069a3.685 3.685 0 0 1 2.57 4.515z" class="prefix__cls-11" data-name="Stroke 701" transform="translate(23.858 47.318)"/>
            <path id="prefix__Fill_703" d="M15.065 0a6.819 6.819 0 0 1 .763 5.452c-.1.321-1.105 3.378-3.961 4.1a5.5 5.5 0 0 1-3.521-.365 4.774 4.774 0 0 1-2.438-2.028c-.509-.965-.295-1.643-.763-1.84-.644-.27-1.294.911-2.611.99A2.9 2.9 0 0 1 .766 5.76C.021 5.08-.047 4.678.02 4.439c.242-.86 2.43-.312 3.946-1.823.637-.635.616-1.1 1.176-1.3.9-.32 2.014.5 2.819 1.247A2.092 2.092 0 0 0 11.3.572 2.832 2.832 0 0 0 12.495 1a3.291 3.291 0 0 0 2.571-1" class="prefix__cls-10" data-name="Fill 703" transform="translate(14.46 54.066)"/>
            <path id="prefix__Stroke_705" d="M15.065 0a6.819 6.819 0 0 1 .763 5.452c-.1.321-1.105 3.378-3.961 4.1a5.5 5.5 0 0 1-3.521-.365 4.774 4.774 0 0 1-2.438-2.028c-.509-.965-.295-1.643-.763-1.84-.644-.27-1.294.911-2.611.99A2.9 2.9 0 0 1 .766 5.76C.021 5.08-.047 4.678.02 4.439c.242-.86 2.43-.312 3.946-1.823.637-.635.616-1.1 1.176-1.3.9-.32 2.014.5 2.819 1.247A2.092 2.092 0 0 0 11.3.572 2.832 2.832 0 0 0 12.495 1a3.291 3.291 0 0 0 2.57-1z" class="prefix__cls-11" data-name="Stroke 705" transform="translate(14.46 54.066)"/>
            <path id="prefix__Fill_707" d="M5.719 3.208A58.748 58.748 0 0 0 10.658 0a20.647 20.647 0 0 0 4.01 3.5 3.423 3.423 0 0 1 1.245 1.224 3.423 3.423 0 0 1 .063 3.081 3.964 3.964 0 0 1-1.71 1.625 32.827 32.827 0 0 1-4.621 2.491 12.59 12.59 0 0 0-5.53 5.107A27.288 27.288 0 0 1 0 6.12a58.355 58.355 0 0 0 5.719-2.912" class="prefix__cls-10" data-name="Fill 707" transform="translate(6.162 32.331)"/>
            <path id="prefix__Stroke_709" d="M5.719 3.208A58.748 58.748 0 0 0 10.658 0a20.647 20.647 0 0 0 4.01 3.5 3.423 3.423 0 0 1 1.245 1.224 3.423 3.423 0 0 1 .063 3.081 3.964 3.964 0 0 1-1.71 1.625 32.827 32.827 0 0 1-4.621 2.491 12.59 12.59 0 0 0-5.53 5.107A27.288 27.288 0 0 1 0 6.12a58.355 58.355 0 0 0 5.719-2.912z" class="prefix__cls-11" data-name="Stroke 709" transform="translate(6.162 32.331)"/>
            <g id="prefix__Group_714" data-name="Group 714" transform="translate(.793 27.744)">
                <path id="prefix__Fill_711" d="M12.526 4.587c-.652 1.111-1.5 2.638-2.388 4.507A44.461 44.461 0 0 0 7.37 16.08c-1.11 3.835-1.665 5.753-1.23 7.864.205.994 1.918 3.24 5.336 7.692 2.174 2.831 3.137 4 4.857 4.7a7.86 7.86 0 0 0 4.042.7c.613-.1 1.237-.14 1.845-.264.863-.177 1.346-.353 1.626-.089a.693.693 0 0 1 .132.748c-.124.266-.42.291-.879.484-.607.254-1.281.71-1.229.878.067.22 1.168-.126 2.46-.088 1.764.052 4.222.653 4.305 1.494.089.9-2.541 1.99-4.569 2.372a10.717 10.717 0 0 1-4.569-.087c-2.109-.625-3.825-1.688-7.776-5.184a76.7 76.7 0 0 1-6.326-6.063C2.159 27.723.543 25.966.077 24.207c-.341-1.284.468-4.269 2.1-10.188A77.105 77.105 0 0 1 5.656 3.427C6.268 1.991 6.831.817 7.238 0" class="prefix__cls-10" data-name="Fill 711" transform="translate(.693 .55)"/>
                <path id="prefix__Stroke_713" d="M12.526 4.587c-.652 1.111-1.5 2.638-2.388 4.507A44.461 44.461 0 0 0 7.37 16.08c-1.11 3.835-1.665 5.753-1.23 7.864.205.994 1.918 3.24 5.336 7.692 2.174 2.831 3.137 4 4.857 4.7a7.86 7.86 0 0 0 4.042.7c.613-.1 1.237-.14 1.845-.264.863-.177 1.346-.353 1.626-.089a.693.693 0 0 1 .132.748c-.124.266-.42.291-.879.484-.607.254-1.281.71-1.229.878.067.22 1.168-.126 2.46-.088 1.764.052 4.222.653 4.305 1.494.089.9-2.541 1.99-4.569 2.372a10.717 10.717 0 0 1-4.569-.087c-2.109-.625-3.825-1.688-7.776-5.184a76.7 76.7 0 0 1-6.326-6.063C2.159 27.723.543 25.966.077 24.207c-.341-1.284.468-4.269 2.1-10.188A77.105 77.105 0 0 1 5.656 3.427C6.268 1.991 6.831.817 7.238 0" class="prefix__cls-12" data-name="Stroke 713" transform="translate(.693 .55)"/>
            </g>
            <path id="prefix__Fill_715" d="M16.187 7.953c.223 1 .82 3.686-.756 5.858-2.168 2.985-6.6 2.455-7.2 2.376C4.944 15.745.087 13.156 0 8.234A8.092 8.092 0 0 1 7.953 0c5.069-.089 7.606 5.129 8.234 7.952" data-name="Fill 715" transform="translate(14.337 49.02)" style="fill:rgba(218,206,253,.5);mix-blend-mode:multiply;isolation:isolate"/>
        </g>
    </g>
</svg>
