<svg xmlns="http://www.w3.org/2000/svg" width="57.529" height="64.768" viewBox="0 0 57.529 64.768">
    <defs>
        <clipPath id="prefix__clip-path">
            <path id="prefix__Clip_148" d="M.124 0H.6v.72H.124z" class="prefix__cls-1" data-name="Clip 148" transform="translate(.092 .416)"/>
        </clipPath>
        <clipPath id="prefix__clip-path-2">
            <path id="prefix__Clip_297" d="M.012 0h.7v.873h-.7z" class="prefix__cls-1" data-name="Clip 297" transform="translate(.708 .494)"/>
        </clipPath>
        <clipPath id="prefix__clip-path-3">
            <path id="prefix__Clip_352" d="M.122 0H.6v.72H.122z" class="prefix__cls-1" data-name="Clip 352" transform="translate(.09 .577)"/>
        </clipPath>
        <clipPath id="prefix__clip-path-4">
            <path id="prefix__Clip_355" d="M.128 0h.464v1.061H.128z" class="prefix__cls-1" data-name="Clip 355" transform="translate(.095 .688)"/>
        </clipPath>
        <clipPath id="prefix__clip-path-5">
            <path id="prefix__Clip_492" d="M.01 0h.7v.871h-.7z" class="prefix__cls-1" data-name="Clip 492" transform="translate(.71 .343)"/>
        </clipPath>
        <clipPath id="prefix__clip-path-6">
            <path id="prefix__Clip_495" d="M.017 0H.7v1.686H.017z" class="prefix__cls-1" data-name="Clip 495" transform="translate(.703 .372)"/>
        </clipPath>
        <style>
            .prefix__cls-1{fill:none}.prefix__cls-3{fill:#c5eb8c}.prefix__cls-10{fill:#fff}.prefix__cls-11{fill:#2d2d2d}
        </style>
    </defs>
    <g id="prefix__ic_neurology" transform="translate(-.72)">
        <g id="prefix__Group_11" data-name="Group 11" transform="translate(0 6.005)" style="opacity:.4">
            <path id="prefix__Fill_1" d="M.914 1.828A.913.913 0 0 1 .917 0a.914.914 0 1 0 0 1.828" class="prefix__cls-3" data-name="Fill 1" transform="translate(28.788)"/>
            <path id="prefix__Fill_3" d="M.914 1.828A.914.914 0 1 0 0 .914a.914.914 0 0 0 .914.914" class="prefix__cls-3" data-name="Fill 3" transform="translate(32.444)"/>
            <path id="prefix__Fill_5" d="M.914 1.335A.909.909 0 0 0 1.82.459C1.26.287.691.137.117 0A.891.891 0 0 0 0 .421a.914.914 0 0 0 .914.915" class="prefix__cls-3" data-name="Fill 5" transform="translate(36.1 .493)"/>
            <path id="prefix__Fill_7" d="M.914 1.828A.914.914 0 1 0 0 .914a.914.914 0 0 0 .914.914" class="prefix__cls-3" data-name="Fill 7" transform="translate(30.616 2.742)"/>
            <path id="prefix__Fill_9" d="M.914 1.828A.914.914 0 1 0 0 .914a.914.914 0 0 0 .914.914" class="prefix__cls-3" data-name="Fill 9" transform="translate(34.272 2.742)"/>
            <path id="prefix__Fill_11" d="M.914 1.828A.914.914 0 1 0 0 .914a.914.914 0 0 0 .914.914" class="prefix__cls-3" data-name="Fill 11" transform="translate(37.928 2.742)"/>
            <path id="prefix__Fill_13" d="M0 .9a.914.914 0 1 0 1.828 0A.884.884 0 0 0 1.7.454C1.41.3 1.117.148.823 0A.906.906 0 0 0 0 .9" class="prefix__cls-3" data-name="Fill 13" transform="translate(41.584 2.76)"/>
            <path id="prefix__Fill_15" d="M.005.914A.915.915 0 0 1 .917 0a.914.914 0 1 0 0 1.828.914.914 0 0 1-.912-.914" class="prefix__cls-3" data-name="Fill 15" transform="translate(28.789 5.484)"/>
            <path id="prefix__Fill_17" d="M.914 0a.914.914 0 1 0 .914.914A.914.914 0 0 0 .914 0" class="prefix__cls-3" data-name="Fill 17" transform="translate(32.444 5.485)"/>
            <path id="prefix__Fill_19" d="M.914 1.828A.914.914 0 1 0 0 .913a.914.914 0 0 0 .914.915" class="prefix__cls-3" data-name="Fill 19" transform="translate(36.1 5.485)"/>
            <path id="prefix__Fill_21" d="M.914 1.828A.914.914 0 1 0 0 .913a.914.914 0 0 0 .914.915" class="prefix__cls-3" data-name="Fill 21" transform="translate(39.756 5.485)"/>
            <path id="prefix__Fill_23" d="M.914 1.828A.914.914 0 1 0 0 .913a.914.914 0 0 0 .914.915" class="prefix__cls-3" data-name="Fill 23" transform="translate(43.412 5.485)"/>
            <path id="prefix__Fill_25" d="M.914 1.456a.905.905 0 0 0 .668-.3C1.133.755.671.372.2 0a.891.891 0 0 0-.2.541.914.914 0 0 0 .914.915" class="prefix__cls-3" data-name="Fill 25" transform="translate(47.068 5.857)"/>
            <path id="prefix__Fill_27" d="M.914 0a.914.914 0 1 0 .914.914A.914.914 0 0 0 .914 0" class="prefix__cls-3" data-name="Fill 27" transform="translate(30.616 8.226)"/>
            <path id="prefix__Fill_29" d="M.914 0a.914.914 0 1 0 .914.914A.914.914 0 0 0 .914 0" class="prefix__cls-3" data-name="Fill 29" transform="translate(34.272 8.226)"/>
            <path id="prefix__Fill_31" d="M.914 0a.914.914 0 1 0 .914.914A.914.914 0 0 0 .914 0" class="prefix__cls-3" data-name="Fill 31" transform="translate(37.928 8.226)"/>
            <path id="prefix__Fill_33" d="M.914 1.828A.914.914 0 1 0 0 .914a.914.914 0 0 0 .914.914" class="prefix__cls-3" data-name="Fill 33" transform="translate(41.584 8.226)"/>
            <path id="prefix__Fill_35" d="M.914 1.828A.914.914 0 1 0 0 .914a.914.914 0 0 0 .914.914" class="prefix__cls-3" data-name="Fill 35" transform="translate(45.239 8.226)"/>
            <path id="prefix__Fill_37" d="M0 .914a.914.914 0 1 0 1.828 0 .792.792 0 0 0-.019-.1Q1.441.415 1.059.03A.9.9 0 0 0 .914 0 .914.914 0 0 0 0 .914" class="prefix__cls-3" data-name="Fill 37" transform="translate(48.896 8.226)"/>
            <path id="prefix__Fill_39" d="M.005.914A.914.914 0 0 1 .917 0a.914.914 0 1 0 0 1.828.914.914 0 0 1-.912-.914" class="prefix__cls-3" data-name="Fill 39" transform="translate(28.789 10.968)"/>
            <path id="prefix__Fill_41" d="M.914 1.828A.914.914 0 1 0 0 .914a.914.914 0 0 0 .914.914" class="prefix__cls-3" data-name="Fill 41" transform="translate(32.444 10.968)"/>
            <path id="prefix__Fill_43" d="M.914 0a.914.914 0 1 0 .914.914A.914.914 0 0 0 .914 0" class="prefix__cls-3" data-name="Fill 43" transform="translate(36.1 10.968)"/>
            <path id="prefix__Fill_45" d="M.914 0a.914.914 0 1 0 .914.914A.914.914 0 0 0 .914 0" class="prefix__cls-3" data-name="Fill 45" transform="translate(39.756 10.968)"/>
            <path id="prefix__Fill_47" d="M.914 0a.914.914 0 1 0 .914.914A.914.914 0 0 0 .914 0" class="prefix__cls-3" data-name="Fill 47" transform="translate(43.412 10.968)"/>
            <path id="prefix__Fill_49" d="M.914 1.828A.914.914 0 1 0 0 .914a.914.914 0 0 0 .914.914" class="prefix__cls-3" data-name="Fill 49" transform="translate(47.068 10.968)"/>
            <path id="prefix__Fill_51" d="M.914 1.828A.914.914 0 1 0 0 .914a.914.914 0 0 0 .914.914" class="prefix__cls-3" data-name="Fill 51" transform="translate(50.723 10.968)"/>
            <path id="prefix__Fill_53" d="M.914 0a.914.914 0 1 0 .914.914A.915.915 0 0 0 .914 0" class="prefix__cls-3" data-name="Fill 53" transform="translate(30.616 13.71)"/>
            <path id="prefix__Fill_55" d="M.914 0a.914.914 0 1 0 .914.914A.915.915 0 0 0 .914 0" class="prefix__cls-3" data-name="Fill 55" transform="translate(34.272 13.71)"/>
            <path id="prefix__Fill_57" d="M.914 1.828A.914.914 0 1 0 0 .914a.914.914 0 0 0 .914.914" class="prefix__cls-3" data-name="Fill 57" transform="translate(37.928 13.71)"/>
            <path id="prefix__Fill_59" d="M.914 0a.914.914 0 1 0 .914.914A.915.915 0 0 0 .914 0" class="prefix__cls-3" data-name="Fill 59" transform="translate(41.584 13.71)"/>
            <path id="prefix__Fill_61" d="M.914 0a.914.914 0 1 0 .914.914A.914.914 0 0 0 .914 0" class="prefix__cls-3" data-name="Fill 61" transform="translate(45.239 13.71)"/>
            <path id="prefix__Fill_63" d="M.914 1.828A.914.914 0 1 0 0 .914a.914.914 0 0 0 .914.914" class="prefix__cls-3" data-name="Fill 63" transform="translate(48.895 13.71)"/>
            <path id="prefix__Fill_65" d="M.914 1.828A.914.914 0 1 0 0 .914a.915.915 0 0 0 .914.914" class="prefix__cls-3" data-name="Fill 65" transform="translate(52.551 13.71)"/>
            <path id="prefix__Fill_67" d="M.005.914A.914.914 0 0 1 .917 0a.914.914 0 1 0 0 1.828.914.914 0 0 1-.912-.914" class="prefix__cls-3" data-name="Fill 67" transform="translate(28.789 16.452)"/>
            <path id="prefix__Fill_69" d="M.914 0a.914.914 0 1 0 .914.914A.914.914 0 0 0 .914 0" class="prefix__cls-3" data-name="Fill 69" transform="translate(32.444 16.452)"/>
            <path id="prefix__Fill_71" d="M.914 0a.914.914 0 1 0 .914.914A.914.914 0 0 0 .914 0" class="prefix__cls-3" data-name="Fill 71" transform="translate(36.1 16.452)"/>
            <path id="prefix__Fill_73" d="M.914 0a.914.914 0 1 0 .914.914A.914.914 0 0 0 .914 0" class="prefix__cls-3" data-name="Fill 73" transform="translate(39.756 16.452)"/>
            <path id="prefix__Fill_75" d="M.914 1.828A.914.914 0 1 0 0 .913a.914.914 0 0 0 .914.915" class="prefix__cls-3" data-name="Fill 75" transform="translate(43.412 16.452)"/>
            <path id="prefix__Fill_77" d="M.914 0a.914.914 0 1 0 .914.914A.914.914 0 0 0 .914 0" class="prefix__cls-3" data-name="Fill 77" transform="translate(47.068 16.452)"/>
            <path id="prefix__Fill_79" d="M.914 0a.914.914 0 1 0 .914.914A.914.914 0 0 0 .914 0" class="prefix__cls-3" data-name="Fill 79" transform="translate(50.723 16.452)"/>
            <path id="prefix__Fill_81" d="M0 .914a.908.908 0 0 0 1.767.3Q1.534.639 1.276.077A.91.91 0 0 0 0 .914" class="prefix__cls-3" data-name="Fill 81" transform="translate(54.38 16.452)"/>
            <path id="prefix__Fill_83" d="M.914 0a.914.914 0 1 0 .914.914A.914.914 0 0 0 .914 0" class="prefix__cls-3" data-name="Fill 83" transform="translate(30.616 19.194)"/>
            <path id="prefix__Fill_85" d="M.914 1.828A.914.914 0 1 0 0 .913a.914.914 0 0 0 .914.915" class="prefix__cls-3" data-name="Fill 85" transform="translate(34.272 19.194)"/>
            <path id="prefix__Fill_87" d="M.914 0a.914.914 0 1 0 .914.914A.914.914 0 0 0 .914 0" class="prefix__cls-3" data-name="Fill 87" transform="translate(37.928 19.194)"/>
            <path id="prefix__Fill_89" d="M.914 0a.914.914 0 1 0 .914.914A.914.914 0 0 0 .914 0" class="prefix__cls-3" data-name="Fill 89" transform="translate(41.584 19.194)"/>
            <path id="prefix__Fill_91" d="M.914 0a.914.914 0 1 0 .914.914A.914.914 0 0 0 .914 0" class="prefix__cls-3" data-name="Fill 91" transform="translate(45.239 19.194)"/>
            <path id="prefix__Fill_93" d="M.914 0a.914.914 0 1 0 .914.914A.914.914 0 0 0 .914 0" class="prefix__cls-3" data-name="Fill 93" transform="translate(48.895 19.194)"/>
            <path id="prefix__Fill_95" d="M.914 0a.914.914 0 1 0 .914.914A.914.914 0 0 0 .914 0" class="prefix__cls-3" data-name="Fill 95" transform="translate(52.551 19.194)"/>
            <path id="prefix__Fill_97" d="M0 .827a.914.914 0 0 0 .914.914.808.808 0 0 0 .142-.03C.9 1.133.726.563.536 0A.91.91 0 0 0 0 .827" class="prefix__cls-3" data-name="Fill 97" transform="translate(56.208 19.281)"/>
            <path id="prefix__Fill_99" d="M.914 1.828A.913.913 0 0 1 .917 0a.914.914 0 1 0 0 1.828" class="prefix__cls-3" data-name="Fill 99" transform="translate(28.788 21.936)"/>
            <path id="prefix__Fill_101" d="M.914 0a.914.914 0 1 0 .914.914A.914.914 0 0 0 .914 0" class="prefix__cls-3" data-name="Fill 101" transform="translate(32.444 21.936)"/>
            <path id="prefix__Fill_103" d="M.914 0a.914.914 0 1 0 .914.914A.914.914 0 0 0 .914 0" class="prefix__cls-3" data-name="Fill 103" transform="translate(36.1 21.936)"/>
            <path id="prefix__Fill_105" d="M.914 1.828A.914.914 0 1 0 0 .914a.914.914 0 0 0 .914.914" class="prefix__cls-3" data-name="Fill 105" transform="translate(39.756 21.936)"/>
            <path id="prefix__Fill_107" d="M.914 0a.914.914 0 1 0 .914.914A.914.914 0 0 0 .914 0" class="prefix__cls-3" data-name="Fill 107" transform="translate(43.412 21.936)"/>
            <path id="prefix__Fill_109" d="M.914 0a.914.914 0 1 0 .914.914A.914.914 0 0 0 .914 0" class="prefix__cls-3" data-name="Fill 109" transform="translate(47.068 21.936)"/>
            <path id="prefix__Fill_111" d="M.914 1.828A.914.914 0 1 0 0 .914a.914.914 0 0 0 .914.914" class="prefix__cls-3" data-name="Fill 111" transform="translate(50.723 21.936)"/>
            <path id="prefix__Fill_113" d="M.914 1.828A.914.914 0 1 0 0 .914a.914.914 0 0 0 .914.914" class="prefix__cls-3" data-name="Fill 113" transform="translate(54.38 21.936)"/>
            <path id="prefix__Fill_115" d="M.914 0a.914.914 0 1 0 .914.914A.914.914 0 0 0 .914 0" class="prefix__cls-3" data-name="Fill 115" transform="translate(30.616 24.677)"/>
            <path id="prefix__Fill_117" d="M.914 0a.914.914 0 1 0 .914.914A.914.914 0 0 0 .914 0" class="prefix__cls-3" data-name="Fill 117" transform="translate(34.272 24.677)"/>
            <path id="prefix__Fill_119" d="M.914 0a.914.914 0 1 0 .914.914A.914.914 0 0 0 .914 0" class="prefix__cls-3" data-name="Fill 119" transform="translate(37.928 24.677)"/>
            <path id="prefix__Fill_121" d="M.914 1.828A.914.914 0 1 0 0 .914a.915.915 0 0 0 .914.914" class="prefix__cls-3" data-name="Fill 121" transform="translate(41.584 24.677)"/>
            <path id="prefix__Fill_123" d="M.914 1.828A.914.914 0 1 0 0 .914a.915.915 0 0 0 .914.914" class="prefix__cls-3" data-name="Fill 123" transform="translate(45.239 24.677)"/>
            <path id="prefix__Fill_125" d="M.914 0a.914.914 0 1 0 .914.914A.914.914 0 0 0 .914 0" class="prefix__cls-3" data-name="Fill 125" transform="translate(48.895 24.677)"/>
            <path id="prefix__Fill_127" d="M.914 0a.914.914 0 1 0 .914.914A.914.914 0 0 0 .914 0" class="prefix__cls-3" data-name="Fill 127" transform="translate(52.551 24.677)"/>
            <path id="prefix__Fill_129" d="M.914 1.828A.914.914 0 1 0 0 .914a.914.914 0 0 0 .914.914" class="prefix__cls-3" data-name="Fill 129" transform="translate(56.207 24.677)"/>
            <path id="prefix__Fill_131" d="M.005.015A.076.076 0 0 1 0 0v.015A.914.914 0 0 0 .914.93.914.914 0 0 1 .005.015" class="prefix__cls-3" data-name="Fill 131" transform="translate(28.789 28.318)"/>
            <path id="prefix__Fill_133" d="M.914.929a.914.914 0 0 0 .914-.915V0a.913.913 0 0 1-.914.9A.914.914 0 0 1 0 0v.014a.914.914 0 0 0 .914.915" class="prefix__cls-3" data-name="Fill 133" transform="translate(32.444 28.318)"/>
            <path id="prefix__Fill_135" d="M.914.9A.913.913 0 0 1 0 0v.015a.914.914 0 0 0 .914.914.914.914 0 0 0 .914-.914V0a.914.914 0 0 1-.914.9" class="prefix__cls-3" data-name="Fill 135" transform="translate(36.1 28.318)"/>
            <path id="prefix__Fill_137" d="M.914.9A.914.914 0 0 1 0 0v.015a.914.914 0 0 0 .914.914.914.914 0 0 0 .914-.914V0a.913.913 0 0 1-.914.9" class="prefix__cls-3" data-name="Fill 137" transform="translate(39.756 28.318)"/>
            <path id="prefix__Fill_139" d="M1.825 0a.913.913 0 0 1-.911.9A.912.912 0 0 1 0 0v.015a.914.914 0 0 0 1.828 0V0" class="prefix__cls-3" data-name="Fill 139" transform="translate(43.412 28.318)"/>
            <path id="prefix__Fill_141" d="M.914.929a.914.914 0 0 0 .914-.915V0a.913.913 0 0 1-.914.9A.913.913 0 0 1 0 0v.014a.914.914 0 0 0 .914.915" class="prefix__cls-3" data-name="Fill 141" transform="translate(47.068 28.318)"/>
            <path id="prefix__Fill_143" d="M1.825 0a.913.913 0 0 1-.911.9A.912.912 0 0 1 0 0v.015a.914.914 0 0 0 .914.914.913.913 0 0 0 .914-.914V0" class="prefix__cls-3" data-name="Fill 143" transform="translate(50.723 28.318)"/>
            <path id="prefix__Fill_145" d="M.914.9A.913.913 0 0 1 0 0v.015a.914.914 0 0 0 .914.914.914.914 0 0 0 .914-.914V0a.913.913 0 0 1-.914.9" class="prefix__cls-3" data-name="Fill 145" transform="translate(54.38 28.318)"/>
            <g id="prefix__Group_149" data-name="Group 149" transform="translate(57.561 27.825)">
                <path id="prefix__Clip_148-2" d="M.124 0H.6v.72H.124z" class="prefix__cls-1" data-name="Clip 148" transform="translate(.092 .416)"/>
                <g id="prefix__Group_149-2" data-name="Group 149">
                    <path id="prefix__Fill_147" d="M.259.093a.894.894 0 0 0 .2.549V.614a.9.9 0 0 1-.2-.536.151.151 0 0 0 0 .015" class="prefix__cls-3" data-name="Fill 147" transform="translate(.215 .416)"/>
                </g>
            </g>
            <path id="prefix__Fill_150" d="M.775.2L0 .5C.032.5.058.518.091.518A.9.9 0 0 0 .775.2" class="prefix__cls-3" data-name="Fill 150" transform="translate(18.65 1.306)"/>
            <path id="prefix__Fill_152" d="M.914 1.424a.914.914 0 0 0 .915-.915A.89.89 0 0 0 1.653 0Q.827.186.019.419A.9.9 0 0 0 0 .509a.915.915 0 0 0 .914.915" class="prefix__cls-3" data-name="Fill 152" transform="translate(21.482 .405)"/>
            <path id="prefix__Fill_154" d="M.914 1.828A.914.914 0 1 0 0 .914a.915.915 0 0 0 .914.914" class="prefix__cls-3" data-name="Fill 154" transform="translate(25.138)"/>
            <path id="prefix__Fill_156" d="M.911.914A.914.914 0 0 1 0 1.828.915.915 0 0 0 .917.914.914.914 0 0 0 0 0a.914.914 0 0 1 .911.914" class="prefix__cls-3" data-name="Fill 156" transform="translate(29.705)"/>
            <path id="prefix__Fill_158" d="M0 .914A.911.911 0 1 0 .912 0 .914.914 0 0 0 0 .914" class="prefix__cls-3" data-name="Fill 158" transform="translate(28.794 .001)"/>
            <path id="prefix__Fill_160" d="M.549.238L.17.481A.9.9 0 0 0 .549.238" class="prefix__cls-3" data-name="Fill 160" transform="translate(13.376 4.03)"/>
            <path id="prefix__Fill_162" d="M.914 1.828A.914.914 0 1 0 0 .914a.914.914 0 0 0 .914.914" class="prefix__cls-3" data-name="Fill 162" transform="translate(15.998 2.742)"/>
            <path id="prefix__Fill_164" d="M.914 1.828A.914.914 0 1 0 0 .914a.914.914 0 0 0 .914.914" class="prefix__cls-3" data-name="Fill 164" transform="translate(19.654 2.742)"/>
            <path id="prefix__Fill_166" d="M.914 1.828A.914.914 0 1 0 0 .914a.914.914 0 0 0 .914.914" class="prefix__cls-3" data-name="Fill 166" transform="translate(23.31 2.742)"/>
            <path id="prefix__Fill_168" d="M.914 1.828A.914.914 0 1 0 0 .914a.914.914 0 0 0 .914.914" class="prefix__cls-3" data-name="Fill 168" transform="translate(26.966 2.742)"/>
            <path id="prefix__Fill_170" d="M.83 1.648a.914.914 0 0 0 .915-.915A.9.9 0 0 0 1.348 0Q.656.533 0 1.107a.912.912 0 0 0 .83.541" class="prefix__cls-3" data-name="Fill 170" transform="translate(10.598 5.664)"/>
            <path id="prefix__Fill_172" d="M.914 1.828A.914.914 0 1 0 0 .913a.914.914 0 0 0 .914.915" class="prefix__cls-3" data-name="Fill 172" transform="translate(14.17 5.485)"/>
            <path id="prefix__Fill_174" d="M.914 1.828A.914.914 0 1 0 0 .913a.914.914 0 0 0 .914.915" class="prefix__cls-3" data-name="Fill 174" transform="translate(17.826 5.485)"/>
            <path id="prefix__Fill_176" d="M.914 1.828A.914.914 0 1 0 0 .913a.914.914 0 0 0 .914.915" class="prefix__cls-3" data-name="Fill 176" transform="translate(21.482 5.485)"/>
            <path id="prefix__Fill_178" d="M.914 0a.914.914 0 1 0 .914.914A.914.914 0 0 0 .914 0" class="prefix__cls-3" data-name="Fill 178" transform="translate(25.138 5.485)"/>
            <path id="prefix__Fill_180" d="M0 0a.914.914 0 0 1 .911.914.913.913 0 0 1-.911.913A.914.914 0 1 0 0 0" class="prefix__cls-3" data-name="Fill 180" transform="translate(29.706 5.485)"/>
            <path id="prefix__Fill_182" d="M1.823.914a.911.911 0 1 0-.911.914.914.914 0 0 0 .911-.914" class="prefix__cls-3" data-name="Fill 182" transform="translate(28.794 5.484)"/>
            <path id="prefix__Fill_184" d="M.914 1.828A.914.914 0 1 0 0 .914a.914.914 0 0 0 .914.914" class="prefix__cls-3" data-name="Fill 184" transform="translate(8.686 8.226)"/>
            <path id="prefix__Fill_186" d="M.914 1.828A.914.914 0 1 0 0 .914a.914.914 0 0 0 .914.914" class="prefix__cls-3" data-name="Fill 186" transform="translate(12.342 8.226)"/>
            <path id="prefix__Fill_188" d="M.914 0a.914.914 0 1 0 .914.914A.914.914 0 0 0 .914 0" class="prefix__cls-3" data-name="Fill 188" transform="translate(15.998 8.226)"/>
            <path id="prefix__Fill_190" d="M.914 0a.914.914 0 1 0 .914.914A.914.914 0 0 0 .914 0" class="prefix__cls-3" data-name="Fill 190" transform="translate(19.654 8.226)"/>
            <path id="prefix__Fill_192" d="M.914 0a.914.914 0 1 0 .914.914A.914.914 0 0 0 .914 0" class="prefix__cls-3" data-name="Fill 192" transform="translate(23.31 8.226)"/>
            <path id="prefix__Fill_194" d="M.914 0a.914.914 0 1 0 .914.914A.914.914 0 0 0 .914 0" class="prefix__cls-3" data-name="Fill 194" transform="translate(26.966 8.226)"/>
            <path id="prefix__Fill_196" d="M.914 1.828A.914.914 0 1 0 0 .914a.914.914 0 0 0 .914.914" class="prefix__cls-3" data-name="Fill 196" transform="translate(6.858 10.968)"/>
            <path id="prefix__Fill_198" d="M.914 1.828A.914.914 0 1 0 0 .914a.914.914 0 0 0 .914.914" class="prefix__cls-3" data-name="Fill 198" transform="translate(10.515 10.968)"/>
            <path id="prefix__Fill_200" d="M.914 0a.914.914 0 1 0 .914.914A.915.915 0 0 0 .914 0" class="prefix__cls-3" data-name="Fill 200" transform="translate(14.17 10.968)"/>
            <path id="prefix__Fill_202" d="M.914 0a.914.914 0 1 0 .914.914A.914.914 0 0 0 .914 0" class="prefix__cls-3" data-name="Fill 202" transform="translate(17.826 10.968)"/>
            <path id="prefix__Fill_204" d="M.914 0a.914.914 0 1 0 .914.914A.915.915 0 0 0 .914 0" class="prefix__cls-3" data-name="Fill 204" transform="translate(21.482 10.968)"/>
            <path id="prefix__Fill_206" d="M.914 1.828A.914.914 0 1 0 0 .914a.914.914 0 0 0 .914.914" class="prefix__cls-3" data-name="Fill 206" transform="translate(25.138 10.968)"/>
            <path id="prefix__Fill_208" d="M0 0a.914.914 0 0 1 .911.914.913.913 0 0 1-.911.914.914.914 0 0 0 .917-.914A.914.914 0 0 0 0 0" class="prefix__cls-3" data-name="Fill 208" transform="translate(29.706 10.968)"/>
            <path id="prefix__Fill_210" d="M1.823.914a.911.911 0 1 0-.911.914.914.914 0 0 0 .911-.914" class="prefix__cls-3" data-name="Fill 210" transform="translate(28.794 10.968)"/>
            <path id="prefix__Fill_212" d="M.914 1.828A.914.914 0 1 0 0 .914a.914.914 0 0 0 .914.914" class="prefix__cls-3" data-name="Fill 212" transform="translate(5.03 13.71)"/>
            <path id="prefix__Fill_214" d="M.914 0a.914.914 0 1 0 .914.914A.914.914 0 0 0 .914 0" class="prefix__cls-3" data-name="Fill 214" transform="translate(8.686 13.71)"/>
            <path id="prefix__Fill_216" d="M.914 0a.914.914 0 1 0 .914.914A.915.915 0 0 0 .914 0" class="prefix__cls-3" data-name="Fill 216" transform="translate(12.342 13.71)"/>
            <path id="prefix__Fill_218" d="M.914 1.828A.914.914 0 1 0 0 .914a.915.915 0 0 0 .914.914" class="prefix__cls-3" data-name="Fill 218" transform="translate(15.998 13.71)"/>
            <path id="prefix__Fill_220" d="M.914 1.828A.914.914 0 1 0 0 .914a.914.914 0 0 0 .914.914" class="prefix__cls-3" data-name="Fill 220" transform="translate(19.654 13.71)"/>
            <path id="prefix__Fill_222" d="M.914 1.828A.914.914 0 1 0 0 .914a.915.915 0 0 0 .914.914" class="prefix__cls-3" data-name="Fill 222" transform="translate(23.31 13.71)"/>
            <path id="prefix__Fill_224" d="M.914 0a.914.914 0 1 0 .914.914A.914.914 0 0 0 .914 0" class="prefix__cls-3" data-name="Fill 224" transform="translate(26.966 13.71)"/>
            <path id="prefix__Fill_226" d="M.914 1.828A.914.914 0 1 0 0 .913a.914.914 0 0 0 .914.915" class="prefix__cls-3" data-name="Fill 226" transform="translate(3.203 16.452)"/>
            <path id="prefix__Fill_228" d="M.914 0a.914.914 0 1 0 .914.914A.914.914 0 0 0 .914 0" class="prefix__cls-3" data-name="Fill 228" transform="translate(6.858 16.452)"/>
            <path id="prefix__Fill_230" d="M.914 0a.914.914 0 1 0 .914.914A.914.914 0 0 0 .914 0" class="prefix__cls-3" data-name="Fill 230" transform="translate(10.515 16.452)"/>
            <path id="prefix__Fill_232" d="M.914 1.828A.914.914 0 1 0 0 .913a.914.914 0 0 0 .914.915" class="prefix__cls-3" data-name="Fill 232" transform="translate(14.17 16.452)"/>
            <path id="prefix__Fill_234" d="M.914 0a.914.914 0 1 0 .914.914A.914.914 0 0 0 .914 0" class="prefix__cls-3" data-name="Fill 234" transform="translate(17.826 16.452)"/>
            <path id="prefix__Fill_236" d="M.914 0a.914.914 0 1 0 .914.914A.914.914 0 0 0 .914 0" class="prefix__cls-3" data-name="Fill 236" transform="translate(21.482 16.452)"/>
            <path id="prefix__Fill_238" d="M.914 0a.914.914 0 1 0 .914.914A.914.914 0 0 0 .914 0" class="prefix__cls-3" data-name="Fill 238" transform="translate(25.138 16.452)"/>
            <path id="prefix__Fill_240" d="M0 0a.914.914 0 0 1 .911.914.913.913 0 0 1-.911.913A.914.914 0 1 0 0 0" class="prefix__cls-3" data-name="Fill 240" transform="translate(29.706 16.452)"/>
            <path id="prefix__Fill_242" d="M1.823.914a.911.911 0 1 0-.911.914.914.914 0 0 0 .911-.914" class="prefix__cls-3" data-name="Fill 242" transform="translate(28.794 16.452)"/>
            <path id="prefix__Fill_244" d="M1.453.914A.914.914 0 0 0 .539 0C.525 0 .514.007.5.008Q.228.81 0 1.633a.9.9 0 0 0 .539.195.914.914 0 0 0 .914-.914" class="prefix__cls-3" data-name="Fill 244" transform="translate(1.75 19.194)"/>
            <path id="prefix__Fill_246" d="M.914 0a.914.914 0 1 0 .914.914A.914.914 0 0 0 .914 0" class="prefix__cls-3" data-name="Fill 246" transform="translate(5.03 19.194)"/>
            <path id="prefix__Fill_248" d="M.914 1.828A.914.914 0 1 0 0 .913a.914.914 0 0 0 .914.915" class="prefix__cls-3" data-name="Fill 248" transform="translate(8.686 19.194)"/>
            <path id="prefix__Fill_250" d="M.914 1.828A.914.914 0 1 0 0 .913a.914.914 0 0 0 .914.915" class="prefix__cls-3" data-name="Fill 250" transform="translate(12.342 19.194)"/>
            <path id="prefix__Fill_252" d="M.914 0a.914.914 0 1 0 .914.914A.914.914 0 0 0 .914 0" class="prefix__cls-3" data-name="Fill 252" transform="translate(15.998 19.194)"/>
            <path id="prefix__Fill_254" d="M.914 0a.914.914 0 1 0 .914.914A.914.914 0 0 0 .914 0" class="prefix__cls-3" data-name="Fill 254" transform="translate(19.654 19.194)"/>
            <path id="prefix__Fill_256" d="M.914 0a.914.914 0 1 0 .914.914A.914.914 0 0 0 .914 0" class="prefix__cls-3" data-name="Fill 256" transform="translate(23.31 19.194)"/>
            <path id="prefix__Fill_258" d="M.914 1.828A.914.914 0 1 0 0 .913a.914.914 0 0 0 .914.915" class="prefix__cls-3" data-name="Fill 258" transform="translate(26.966 19.194)"/>
            <path id="prefix__Fill_260" d="M.408 0C.352.271.307.544.258.817a.891.891 0 0 0 .2-.551A.885.885 0 0 0 .408 0" class="prefix__cls-3" data-name="Fill 260" transform="translate(.913 22.583)"/>
            <path id="prefix__Fill_262" d="M.914 1.828A.914.914 0 1 0 0 .914a.914.914 0 0 0 .914.914" class="prefix__cls-3" data-name="Fill 262" transform="translate(3.203 21.936)"/>
            <path id="prefix__Fill_264" d="M.914 1.828A.914.914 0 1 0 0 .914a.914.914 0 0 0 .914.914" class="prefix__cls-3" data-name="Fill 264" transform="translate(6.858 21.936)"/>
            <path id="prefix__Fill_266" d="M.914 0a.914.914 0 1 0 .914.914A.914.914 0 0 0 .914 0" class="prefix__cls-3" data-name="Fill 266" transform="translate(10.515 21.936)"/>
            <path id="prefix__Fill_268" d="M.914 0a.914.914 0 1 0 .914.914A.914.914 0 0 0 .914 0" class="prefix__cls-3" data-name="Fill 268" transform="translate(14.17 21.936)"/>
            <path id="prefix__Fill_270" d="M.914 1.828A.914.914 0 1 0 0 .914a.915.915 0 0 0 .914.914" class="prefix__cls-3" data-name="Fill 270" transform="translate(17.826 21.936)"/>
            <path id="prefix__Fill_272" d="M.914 1.828A.914.914 0 1 0 0 .914a.914.914 0 0 0 .914.914" class="prefix__cls-3" data-name="Fill 272" transform="translate(21.482 21.936)"/>
            <path id="prefix__Fill_274" d="M.914 1.828A.914.914 0 1 0 0 .914a.915.915 0 0 0 .914.914" class="prefix__cls-3" data-name="Fill 274" transform="translate(25.138 21.936)"/>
            <path id="prefix__Fill_276" d="M.911.914A.914.914 0 0 1 0 1.828.915.915 0 0 0 .917.914.914.914 0 0 0 0 0a.914.914 0 0 1 .911.914" class="prefix__cls-3" data-name="Fill 276" transform="translate(29.705 21.935)"/>
            <path id="prefix__Fill_278" d="M0 .914A.911.911 0 1 0 .912 0 .915.915 0 0 0 0 .914" class="prefix__cls-3" data-name="Fill 278" transform="translate(28.794 21.936)"/>
            <path id="prefix__Fill_280" d="M.914 1.828A.914.914 0 1 0 0 .914a.915.915 0 0 0 .914.914" class="prefix__cls-3" data-name="Fill 280" transform="translate(1.375 24.677)"/>
            <path id="prefix__Fill_282" d="M.914 1.828A.914.914 0 1 0 0 .914a.914.914 0 0 0 .914.914" class="prefix__cls-3" data-name="Fill 282" transform="translate(5.03 24.677)"/>
            <path id="prefix__Fill_284" d="M.914 0a.914.914 0 1 0 .914.914A.914.914 0 0 0 .914 0" class="prefix__cls-3" data-name="Fill 284" transform="translate(8.686 24.677)"/>
            <path id="prefix__Fill_286" d="M.914 0a.914.914 0 1 0 .914.914A.914.914 0 0 0 .914 0" class="prefix__cls-3" data-name="Fill 286" transform="translate(12.342 24.677)"/>
            <path id="prefix__Fill_288" d="M.914 1.828A.914.914 0 1 0 0 .914a.915.915 0 0 0 .914.914" class="prefix__cls-3" data-name="Fill 288" transform="translate(15.998 24.677)"/>
            <path id="prefix__Fill_290" d="M.914 1.828A.914.914 0 1 0 0 .914a.914.914 0 0 0 .914.914" class="prefix__cls-3" data-name="Fill 290" transform="translate(19.654 24.677)"/>
            <path id="prefix__Fill_292" d="M.914 0a.914.914 0 1 0 .914.914A.914.914 0 0 0 .914 0" class="prefix__cls-3" data-name="Fill 292" transform="translate(23.31 24.677)"/>
            <path id="prefix__Fill_294" d="M.914 0a.914.914 0 1 0 .914.914A.914.914 0 0 0 .914 0" class="prefix__cls-3" data-name="Fill 294" transform="translate(26.966 24.677)"/>
            <g id="prefix__Group_298" data-name="Group 298" transform="translate(0 27.825)">
                <path id="prefix__Clip_297-2" d="M.012 0h.7v.873h-.7z" class="prefix__cls-1" data-name="Clip 297" transform="translate(.708 .494)"/>
                <g id="prefix__Group_298-2" data-name="Group 298">
                    <path id="prefix__Fill_296" d="M.679.015V0a.9.9 0 0 1-.638.844v.029A.9.9 0 0 0 .679.015" class="prefix__cls-3" data-name="Fill 296" transform="translate(.696 .494)"/>
                </g>
            </g>
            <path id="prefix__Fill_299" d="M.914.929a.914.914 0 0 0 .914-.915V0a.913.913 0 0 1-.914.9A.913.913 0 0 1 0 0v.014a.914.914 0 0 0 .914.915" class="prefix__cls-3" data-name="Fill 299" transform="translate(3.203 28.318)"/>
            <path id="prefix__Fill_301" d="M1.825 0a.913.913 0 0 1-.911.9A.912.912 0 0 1 0 0v.015a.914.914 0 0 0 .914.914.913.913 0 0 0 .914-.914V0" class="prefix__cls-3" data-name="Fill 301" transform="translate(6.858 28.318)"/>
            <path id="prefix__Fill_303" d="M.914.9A.913.913 0 0 1 0 0v.015a.914.914 0 0 0 .914.914.914.914 0 0 0 .914-.914V0a.913.913 0 0 1-.914.9" class="prefix__cls-3" data-name="Fill 303" transform="translate(10.515 28.318)"/>
            <path id="prefix__Fill_305" d="M.914.9A.913.913 0 0 1 0 0a.151.151 0 0 0 0 .015.914.914 0 0 0 .914.914.914.914 0 0 0 .915-.914V0a.914.914 0 0 1-.915.9" class="prefix__cls-3" data-name="Fill 305" transform="translate(14.17 28.318)"/>
            <path id="prefix__Fill_307" d="M.914.929a.914.914 0 0 0 .914-.915V0a.914.914 0 0 1-.914.9A.913.913 0 0 1 0 0v.014a.914.914 0 0 0 .914.915" class="prefix__cls-3" data-name="Fill 307" transform="translate(17.826 28.318)"/>
            <path id="prefix__Fill_309" d="M1.825 0a.913.913 0 0 1-.911.9A.913.913 0 0 1 0 0v.015a.914.914 0 0 0 .914.914.913.913 0 0 0 .914-.914V0" class="prefix__cls-3" data-name="Fill 309" transform="translate(21.482 28.318)"/>
            <path id="prefix__Fill_311" d="M.914.9A.913.913 0 0 1 0 0v.015a.914.914 0 0 0 .914.914.914.914 0 0 0 .914-.914V0a.914.914 0 0 1-.914.9" class="prefix__cls-3" data-name="Fill 311" transform="translate(25.138 28.318)"/>
            <path id="prefix__Fill_313" d="M.911.015A.914.914 0 0 1 0 .929.914.914 0 0 0 .917.015V0v.014z" class="prefix__cls-3" data-name="Fill 313" transform="translate(29.705 28.318)"/>
            <path id="prefix__Fill_315" d="M1.823 0a.91.91 0 0 1-.909.886H.909A.91.91 0 0 1 0 0a.914.914 0 0 0 .912.915A.914.914 0 0 0 1.823 0" class="prefix__cls-3" data-name="Fill 315" transform="translate(28.794 28.332)"/>
            <path id="prefix__Fill_317" d="M.005.914A.914.914 0 0 1 .917 0 .915.915 0 0 0 0 .914v.015a.084.084 0 0 1 0-.013" class="prefix__cls-3" data-name="Fill 317" transform="translate(28.789 27.39)"/>
            <path id="prefix__Fill_319" d="M.362.359V.346a.084.084 0 0 0 0 .013.076.076 0 0 0 0 .014V.359" class="prefix__cls-3" data-name="Fill 319" transform="translate(28.434 27.959)"/>
            <path id="prefix__Fill_321" d="M0 0v.014A.911.911 0 0 0 .909.9.913.913 0 0 1 0 0" class="prefix__cls-3" data-name="Fill 321" transform="translate(28.794 28.318)"/>
            <path id="prefix__Fill_323" d="M.914.029a.913.913 0 0 1 .912.9V.915A.914.914 0 0 0 0 .914v.014a.913.913 0 0 1 .911-.9" class="prefix__cls-3" data-name="Fill 323" transform="translate(32.444 27.39)"/>
            <path id="prefix__Fill_325" d="M.911 1.8a.913.913 0 0 0 .912-.9A.911.911 0 0 0 0 .9a.914.914 0 0 0 .911.9" class="prefix__cls-3" data-name="Fill 325" transform="translate(32.447 27.419)"/>
            <path id="prefix__Fill_327" d="M0 .928a.911.911 0 0 1 1.822 0V.914A.914.914 0 1 0 0 .914v.014" class="prefix__cls-3" data-name="Fill 327" transform="translate(36.1 27.39)"/>
            <path id="prefix__Fill_329" d="M.912 0A.913.913 0 0 0 0 .9a.911.911 0 0 0 1.823 0A.913.913 0 0 0 .912 0" class="prefix__cls-3" data-name="Fill 329" transform="translate(36.103 27.419)"/>
            <path id="prefix__Fill_331" d="M.914 0A.914.914 0 0 0 0 .914v.014a.911.911 0 0 1 1.823 0V.914A.914.914 0 0 0 .914 0" class="prefix__cls-3" data-name="Fill 331" transform="translate(39.756 27.39)"/>
            <path id="prefix__Fill_333" d="M.911 0A.913.913 0 0 0 0 .9a.911.911 0 0 0 1.823 0A.913.913 0 0 0 .911 0" class="prefix__cls-3" data-name="Fill 333" transform="translate(39.759 27.419)"/>
            <path id="prefix__Fill_335" d="M.914.029a.913.913 0 0 1 .911.9V.915A.914.914 0 0 0 0 .914v.014a.913.913 0 0 1 .912-.9" class="prefix__cls-3" data-name="Fill 335" transform="translate(43.412 27.39)"/>
            <path id="prefix__Fill_337" d="M.912 1.8a.914.914 0 0 0 .911-.9A.911.911 0 0 0 0 .9a.913.913 0 0 0 .912.9" class="prefix__cls-3" data-name="Fill 337" transform="translate(43.415 27.419)"/>
            <path id="prefix__Fill_339" d="M.914.029a.913.913 0 0 1 .912.9V.915A.914.914 0 0 0 0 .914v.014a.913.913 0 0 1 .911-.9" class="prefix__cls-3" data-name="Fill 339" transform="translate(47.068 27.39)"/>
            <path id="prefix__Fill_341" d="M.911 1.8a.913.913 0 0 0 .912-.9A.911.911 0 0 0 0 .9a.913.913 0 0 0 .911.9" class="prefix__cls-3" data-name="Fill 341" transform="translate(47.071 27.419)"/>
            <path id="prefix__Fill_343" d="M.914.029a.914.914 0 0 1 .912.9V.915A.915.915 0 0 0 0 .914v.014a.912.912 0 0 1 .911-.9" class="prefix__cls-3" data-name="Fill 343" transform="translate(50.723 27.39)"/>
            <path id="prefix__Fill_345" d="M.911 1.8a.914.914 0 0 0 .912-.9A.911.911 0 0 0 0 .9a.913.913 0 0 0 .911.9" class="prefix__cls-3" data-name="Fill 345" transform="translate(50.727 27.419)"/>
            <path id="prefix__Fill_347" d="M.914 0A.914.914 0 0 0 0 .914v.014a.911.911 0 0 1 1.823 0V.914A.914.914 0 0 0 .914 0" class="prefix__cls-3" data-name="Fill 347" transform="translate(54.38 27.39)"/>
            <path id="prefix__Fill_349" d="M.911 0A.913.913 0 0 0 0 .9a.911.911 0 0 0 1.823 0A.913.913 0 0 0 .911 0" class="prefix__cls-3" data-name="Fill 349" transform="translate(54.382 27.419)"/>
            <g id="prefix__Group_353" data-name="Group 353" transform="translate(57.561 27.105)">
                <path id="prefix__Clip_352-2" d="M.122 0H.6v.72H.122z" class="prefix__cls-1" data-name="Clip 352" transform="translate(.09 .577)"/>
                <g id="prefix__Group_353-2" data-name="Group 353">
                    <path id="prefix__Fill_351" d="M.265.636A.894.894 0 0 1 .458.112V.084a.888.888 0 0 0-.2.538.105.105 0 0 0 0 .014" class="prefix__cls-3" data-name="Fill 351" transform="translate(.212 .577)"/>
                </g>
            </g>
            <g id="prefix__Group_356" data-name="Group 356" transform="translate(57.561 27.105)">
                <path id="prefix__Clip_355-2" d="M.128 0h.464v1.061H.128z" class="prefix__cls-1" data-name="Clip 355" transform="translate(.095 .688)"/>
                <g id="prefix__Group_356-2" data-name="Group 356">
                    <path id="prefix__Fill_354" d="M.454 1.061C.456.927.464.8.464.663.464.441.452.222.447 0a.9.9 0 0 0-.192.525.9.9 0 0 0 .2.535" class="prefix__cls-3" data-name="Fill 354" transform="translate(.223 .688)"/>
                </g>
            </g>
            <path id="prefix__Fill_357" d="M.914 1.828A.914.914 0 1 0 0 .914a.914.914 0 0 0 .914.914" class="prefix__cls-3" data-name="Fill 357" transform="translate(30.616 30.132)"/>
            <path id="prefix__Fill_359" d="M.914 1.828A.914.914 0 1 0 0 .914a.915.915 0 0 0 .914.914" class="prefix__cls-3" data-name="Fill 359" transform="translate(34.272 30.132)"/>
            <path id="prefix__Fill_361" d="M.914 0a.914.914 0 1 0 .914.914A.914.914 0 0 0 .914 0" class="prefix__cls-3" data-name="Fill 361" transform="translate(37.928 30.132)"/>
            <path id="prefix__Fill_363" d="M.914 0a.914.914 0 1 0 .914.914A.915.915 0 0 0 .914 0" class="prefix__cls-3" data-name="Fill 363" transform="translate(41.584 30.132)"/>
            <path id="prefix__Fill_365" d="M.914 1.828A.914.914 0 1 0 0 .914a.915.915 0 0 0 .914.914" class="prefix__cls-3" data-name="Fill 365" transform="translate(45.239 30.132)"/>
            <path id="prefix__Fill_367" d="M.914 1.828A.914.914 0 1 0 0 .914a.914.914 0 0 0 .914.914" class="prefix__cls-3" data-name="Fill 367" transform="translate(48.895 30.132)"/>
            <path id="prefix__Fill_369" d="M.914 1.828A.914.914 0 1 0 0 .914a.915.915 0 0 0 .914.914" class="prefix__cls-3" data-name="Fill 369" transform="translate(52.551 30.132)"/>
            <path id="prefix__Fill_371" d="M.914 0a.914.914 0 1 0 .914.914A.915.915 0 0 0 .914 0" class="prefix__cls-3" data-name="Fill 371" transform="translate(56.207 30.132)"/>
            <path id="prefix__Fill_373" d="M.005.914A.914.914 0 0 1 .917 0a.914.914 0 1 0 0 1.828.914.914 0 0 1-.912-.914" class="prefix__cls-3" data-name="Fill 373" transform="translate(28.789 32.874)"/>
            <path id="prefix__Fill_375" d="M.914 0a.914.914 0 1 0 .914.914A.914.914 0 0 0 .914 0" class="prefix__cls-3" data-name="Fill 375" transform="translate(32.444 32.875)"/>
            <path id="prefix__Fill_377" d="M.914 1.828A.914.914 0 1 0 0 .913a.914.914 0 0 0 .914.915" class="prefix__cls-3" data-name="Fill 377" transform="translate(36.1 32.875)"/>
            <path id="prefix__Fill_379" d="M.914 0a.914.914 0 1 0 .914.914A.914.914 0 0 0 .914 0" class="prefix__cls-3" data-name="Fill 379" transform="translate(39.756 32.875)"/>
            <path id="prefix__Fill_381" d="M.914 1.828A.914.914 0 1 0 0 .913a.914.914 0 0 0 .914.915" class="prefix__cls-3" data-name="Fill 381" transform="translate(43.412 32.875)"/>
            <path id="prefix__Fill_383" d="M.914 0a.914.914 0 1 0 .914.914A.914.914 0 0 0 .914 0" class="prefix__cls-3" data-name="Fill 383" transform="translate(47.068 32.875)"/>
            <path id="prefix__Fill_385" d="M.914 0a.914.914 0 1 0 .914.914A.914.914 0 0 0 .914 0" class="prefix__cls-3" data-name="Fill 385" transform="translate(50.723 32.875)"/>
            <path id="prefix__Fill_387" d="M.914 0a.914.914 0 1 0 .914.914A.914.914 0 0 0 .914 0" class="prefix__cls-3" data-name="Fill 387" transform="translate(54.38 32.875)"/>
            <path id="prefix__Fill_389" d="M.914 0a.914.914 0 1 0 .914.914A.914.914 0 0 0 .914 0" class="prefix__cls-3" data-name="Fill 389" transform="translate(30.616 35.616)"/>
            <path id="prefix__Fill_391" d="M.914 1.828A.914.914 0 1 0 0 .913a.914.914 0 0 0 .914.915" class="prefix__cls-3" data-name="Fill 391" transform="translate(34.272 35.616)"/>
            <path id="prefix__Fill_393" d="M.914 1.828A.914.914 0 1 0 0 .913a.914.914 0 0 0 .914.915" class="prefix__cls-3" data-name="Fill 393" transform="translate(37.928 35.616)"/>
            <path id="prefix__Fill_395" d="M.914 1.828A.914.914 0 1 0 0 .913a.914.914 0 0 0 .914.915" class="prefix__cls-3" data-name="Fill 395" transform="translate(41.584 35.616)"/>
            <path id="prefix__Fill_397" d="M.914 0a.914.914 0 1 0 .914.914A.914.914 0 0 0 .914 0" class="prefix__cls-3" data-name="Fill 397" transform="translate(45.239 35.616)"/>
            <path id="prefix__Fill_399" d="M.914 1.828A.914.914 0 1 0 0 .913a.914.914 0 0 0 .914.915" class="prefix__cls-3" data-name="Fill 399" transform="translate(48.895 35.616)"/>
            <path id="prefix__Fill_401" d="M.914 0a.914.914 0 1 0 .914.914A.914.914 0 0 0 .914 0" class="prefix__cls-3" data-name="Fill 401" transform="translate(52.551 35.616)"/>
            <path id="prefix__Fill_403" d="M0 .914a.9.9 0 0 0 .62.855C.806 1.2.98.627 1.13.044A.9.9 0 0 0 .914 0 .914.914 0 0 0 0 .914" class="prefix__cls-3" data-name="Fill 403" transform="translate(56.208 35.616)"/>
            <path id="prefix__Fill_405" d="M.914 1.828A.913.913 0 0 1 .917 0a.914.914 0 1 0 0 1.828" class="prefix__cls-3" data-name="Fill 405" transform="translate(28.788 38.358)"/>
            <path id="prefix__Fill_407" d="M.914 1.828A.914.914 0 1 0 0 .914a.914.914 0 0 0 .914.914" class="prefix__cls-3" data-name="Fill 407" transform="translate(32.444 38.358)"/>
            <path id="prefix__Fill_409" d="M.914 1.828A.914.914 0 1 0 0 .914a.914.914 0 0 0 .914.914" class="prefix__cls-3" data-name="Fill 409" transform="translate(36.1 38.358)"/>
            <path id="prefix__Fill_411" d="M.914 1.828A.914.914 0 1 0 0 .914a.914.914 0 0 0 .914.914" class="prefix__cls-3" data-name="Fill 411" transform="translate(39.756 38.358)"/>
            <path id="prefix__Fill_413" d="M.914 0a.914.914 0 1 0 .914.914A.914.914 0 0 0 .914 0" class="prefix__cls-3" data-name="Fill 413" transform="translate(43.412 38.358)"/>
            <path id="prefix__Fill_415" d="M.914 1.828A.914.914 0 1 0 0 .914a.914.914 0 0 0 .914.914" class="prefix__cls-3" data-name="Fill 415" transform="translate(47.068 38.358)"/>
            <path id="prefix__Fill_417" d="M.914 1.828A.914.914 0 1 0 0 .914a.914.914 0 0 0 .914.914" class="prefix__cls-3" data-name="Fill 417" transform="translate(50.723 38.358)"/>
            <path id="prefix__Fill_419" d="M.914 0a.914.914 0 0 0 0 1.828.892.892 0 0 0 .543-.2c.121-.276.236-.554.348-.834A.9.9 0 0 0 .914 0" class="prefix__cls-3" data-name="Fill 419" transform="translate(54.38 38.358)"/>
            <path id="prefix__Fill_421" d="M.914 1.828A.914.914 0 1 0 0 .914a.914.914 0 0 0 .914.914" class="prefix__cls-3" data-name="Fill 421" transform="translate(30.616 41.1)"/>
            <path id="prefix__Fill_423" d="M.914 0a.914.914 0 1 0 .914.914A.915.915 0 0 0 .914 0" class="prefix__cls-3" data-name="Fill 423" transform="translate(34.272 41.1)"/>
            <path id="prefix__Fill_425" d="M.914 1.828A.914.914 0 1 0 0 .914a.914.914 0 0 0 .914.914" class="prefix__cls-3" data-name="Fill 425" transform="translate(37.928 41.1)"/>
            <path id="prefix__Fill_427" d="M.914 0a.914.914 0 1 0 .914.914A.915.915 0 0 0 .914 0" class="prefix__cls-3" data-name="Fill 427" transform="translate(41.584 41.1)"/>
            <path id="prefix__Fill_429" d="M.914 1.828A.914.914 0 1 0 0 .914a.915.915 0 0 0 .914.914" class="prefix__cls-3" data-name="Fill 429" transform="translate(45.239 41.1)"/>
            <path id="prefix__Fill_431" d="M.914 0a.914.914 0 1 0 .914.914A.915.915 0 0 0 .914 0" class="prefix__cls-3" data-name="Fill 431" transform="translate(48.895 41.1)"/>
            <path id="prefix__Fill_433" d="M.914 0a.914.914 0 1 0 .914.914A.914.914 0 0 0 .914 0" class="prefix__cls-3" data-name="Fill 433" transform="translate(52.551 41.1)"/>
            <path id="prefix__Fill_435" d="M.914 1.828A.913.913 0 0 1 .917 0a.914.914 0 1 0 0 1.828" class="prefix__cls-3" data-name="Fill 435" transform="translate(28.788 43.841)"/>
            <path id="prefix__Fill_437" d="M.914 0a.914.914 0 1 0 .914.914A.914.914 0 0 0 .914 0" class="prefix__cls-3" data-name="Fill 437" transform="translate(32.444 43.841)"/>
            <path id="prefix__Fill_439" d="M.914 1.828A.914.914 0 1 0 0 .914a.914.914 0 0 0 .914.914" class="prefix__cls-3" data-name="Fill 439" transform="translate(36.1 43.841)"/>
            <path id="prefix__Fill_441" d="M.914 1.828A.914.914 0 1 0 0 .914a.914.914 0 0 0 .914.914" class="prefix__cls-3" data-name="Fill 441" transform="translate(39.756 43.841)"/>
            <path id="prefix__Fill_443" d="M.914 1.828A.914.914 0 1 0 0 .914a.914.914 0 0 0 .914.914" class="prefix__cls-3" data-name="Fill 443" transform="translate(43.412 43.841)"/>
            <path id="prefix__Fill_445" d="M.914 0a.914.914 0 1 0 .914.914A.914.914 0 0 0 .914 0" class="prefix__cls-3" data-name="Fill 445" transform="translate(47.068 43.841)"/>
            <path id="prefix__Fill_447" d="M.914 0a.914.914 0 1 0 .914.914A.915.915 0 0 0 .914 0" class="prefix__cls-3" data-name="Fill 447" transform="translate(50.723 43.841)"/>
            <path id="prefix__Fill_449" d="M.914 1.828A.914.914 0 1 0 0 .914a.914.914 0 0 0 .914.914" class="prefix__cls-3" data-name="Fill 449" transform="translate(30.616 46.584)"/>
            <path id="prefix__Fill_451" d="M.914 1.828A.914.914 0 1 0 0 .914a.914.914 0 0 0 .914.914" class="prefix__cls-3" data-name="Fill 451" transform="translate(34.272 46.584)"/>
            <path id="prefix__Fill_453" d="M.914 1.828A.914.914 0 1 0 0 .914a.914.914 0 0 0 .914.914" class="prefix__cls-3" data-name="Fill 453" transform="translate(37.928 46.584)"/>
            <path id="prefix__Fill_455" d="M.914 1.828A.914.914 0 1 0 0 .914a.914.914 0 0 0 .914.914" class="prefix__cls-3" data-name="Fill 455" transform="translate(41.584 46.584)"/>
            <path id="prefix__Fill_457" d="M.914 0a.914.914 0 1 0 .914.914A.914.914 0 0 0 .914 0" class="prefix__cls-3" data-name="Fill 457" transform="translate(45.239 46.584)"/>
            <path id="prefix__Fill_459" d="M.914 0a.914.914 0 1 0 0 1.828.9.9 0 0 0 .614-.246l.059-.062a.9.9 0 0 0 .24-.605A.914.914 0 0 0 .914 0" class="prefix__cls-3" data-name="Fill 459" transform="translate(48.895 46.584)"/>
            <path id="prefix__Fill_461" d="M.914 1.828A.913.913 0 0 1 .917 0a.914.914 0 1 0 0 1.828" class="prefix__cls-3" data-name="Fill 461" transform="translate(28.788 49.326)"/>
            <path id="prefix__Fill_463" d="M.914 1.828A.914.914 0 1 0 0 .914a.914.914 0 0 0 .914.914" class="prefix__cls-3" data-name="Fill 463" transform="translate(32.444 49.326)"/>
            <path id="prefix__Fill_465" d="M.914 0a.914.914 0 1 0 .914.914A.914.914 0 0 0 .914 0" class="prefix__cls-3" data-name="Fill 465" transform="translate(36.1 49.326)"/>
            <path id="prefix__Fill_467" d="M.914 0a.914.914 0 1 0 .914.914A.914.914 0 0 0 .914 0" class="prefix__cls-3" data-name="Fill 467" transform="translate(39.756 49.326)"/>
            <path id="prefix__Fill_469" d="M.914 0a.914.914 0 1 0 .914.914A.914.914 0 0 0 .914 0" class="prefix__cls-3" data-name="Fill 469" transform="translate(43.412 49.326)"/>
            <path id="prefix__Fill_471" d="M.914 0A.914.914 0 0 0 0 .914a.9.9 0 0 0 .348.7C.809 1.245 1.261.868 1.7.473A.9.9 0 0 0 .914 0" class="prefix__cls-3" data-name="Fill 471" transform="translate(47.068 49.326)"/>
            <path id="prefix__Fill_473" d="M.914 0a.914.914 0 1 0 .914.914A.915.915 0 0 0 .914 0" class="prefix__cls-3" data-name="Fill 473" transform="translate(30.616 52.067)"/>
            <path id="prefix__Fill_475" d="M.914 0a.914.914 0 1 0 .914.914A.915.915 0 0 0 .914 0" class="prefix__cls-3" data-name="Fill 475" transform="translate(34.272 52.067)"/>
            <path id="prefix__Fill_477" d="M.914 0a.914.914 0 1 0 .914.914A.914.914 0 0 0 .914 0" class="prefix__cls-3" data-name="Fill 477" transform="translate(37.928 52.067)"/>
            <path id="prefix__Fill_479" d="M.914 0a.914.914 0 1 0 .914.914A.915.915 0 0 0 .914 0" class="prefix__cls-3" data-name="Fill 479" transform="translate(41.584 52.067)"/>
            <path id="prefix__Fill_481" d="M.2.468C.309.4.411.323.516.251A.917.917 0 0 0 .2.468" class="prefix__cls-3" data-name="Fill 481" transform="translate(45.291 51.886)"/>
            <path id="prefix__Fill_483" d="M.005.914A.914.914 0 0 1 .917 0a.914.914 0 0 0 0 1.829.914.914 0 0 1-.912-.915" class="prefix__cls-3" data-name="Fill 483" transform="translate(28.789 54.809)"/>
            <path id="prefix__Fill_485" d="M.914 0a.914.914 0 1 0 .914.914A.914.914 0 0 0 .914 0" class="prefix__cls-3" data-name="Fill 485" transform="translate(32.444 54.809)"/>
            <path id="prefix__Fill_487" d="M.914 0a.911.911 0 0 0-.628 1.573c.5-.124 1-.26 1.492-.409a.871.871 0 0 0 .05-.25A.914.914 0 0 0 .914 0" class="prefix__cls-3" data-name="Fill 487" transform="translate(36.1 54.809)"/>
            <path id="prefix__Fill_489" d="M0 .591C.341.458.68.322 1.015.178A.882.882 0 0 0 .776.129.9.9 0 0 0 0 .591" class="prefix__cls-3" data-name="Fill 489" transform="translate(39.893 54.68)"/>
            <g id="prefix__Group_493" data-name="Group 493" transform="translate(0 27.105)">
                <path id="prefix__Clip_492-2" d="M.01 0h.7v.871h-.7z" class="prefix__cls-1" data-name="Clip 492" transform="translate(.71 .343)"/>
                <g id="prefix__Group_493-2" data-name="Group 493">
                    <path id="prefix__Fill_491" d="M.672.871V.857A.9.9 0 0 0 .046 0v.029a.9.9 0 0 1 .626.842" class="prefix__cls-3" data-name="Fill 491" transform="translate(.7 .343)"/>
                </g>
            </g>
            <g id="prefix__Group_496" data-name="Group 496" transform="translate(0 27.105)">
                <path id="prefix__Clip_495-2" d="M.017 0H.7v1.686H.017z" class="prefix__cls-1" data-name="Clip 495" transform="translate(.703 .372)"/>
                <g id="prefix__Group_496-2" data-name="Group 496">
                    <path id="prefix__Fill_494" d="M.686.842A.9.9 0 0 0 .058 0C.047.326.033.651.033.979c0 .237.012.471.017.707A.9.9 0 0 0 .686.842" class="prefix__cls-3" data-name="Fill 494" transform="translate(.686 .372)"/>
                </g>
            </g>
            <path id="prefix__Fill_497" d="M.914.029a.913.913 0 0 1 .912.9V.915A.914.914 0 0 0 0 .914v.014a.913.913 0 0 1 .911-.9" class="prefix__cls-3" data-name="Fill 497" transform="translate(3.203 27.39)"/>
            <path id="prefix__Fill_499" d="M.911 1.8a.913.913 0 0 0 .912-.9A.911.911 0 0 0 0 .9a.913.913 0 0 0 .911.9" class="prefix__cls-3" data-name="Fill 499" transform="translate(3.206 27.419)"/>
            <path id="prefix__Fill_501" d="M.914.029a.914.914 0 0 1 .912.9V.915A.915.915 0 0 0 0 .914v.014a.912.912 0 0 1 .911-.9" class="prefix__cls-3" data-name="Fill 501" transform="translate(6.858 27.39)"/>
            <path id="prefix__Fill_503" d="M.911 1.8a.914.914 0 0 0 .912-.9A.911.911 0 0 0 0 .9a.913.913 0 0 0 .911.9" class="prefix__cls-3" data-name="Fill 503" transform="translate(6.862 27.419)"/>
            <path id="prefix__Fill_505" d="M0 .928a.911.911 0 0 1 1.822 0V.914A.914.914 0 0 0 0 .914v.014" class="prefix__cls-3" data-name="Fill 505" transform="translate(10.515 27.39)"/>
            <path id="prefix__Fill_507" d="M.911 0A.913.913 0 0 0 0 .9a.911.911 0 0 0 1.823 0A.913.913 0 0 0 .911 0" class="prefix__cls-3" data-name="Fill 507" transform="translate(10.517 27.419)"/>
            <path id="prefix__Fill_509" d="M0 .928a.911.911 0 0 1 1.822 0V.914A.914.914 0 0 0 0 .914a.105.105 0 0 0 0 .014" class="prefix__cls-3" data-name="Fill 509" transform="translate(14.17 27.39)"/>
            <path id="prefix__Fill_511" d="M.911 0A.912.912 0 0 0 0 .9a.911.911 0 0 0 1.823 0A.914.914 0 0 0 .911 0" class="prefix__cls-3" data-name="Fill 511" transform="translate(14.173 27.419)"/>
            <path id="prefix__Fill_513" d="M.914.029a.914.914 0 0 1 .912.9V.915A.914.914 0 0 0 0 .914v.014a.913.913 0 0 1 .911-.9" class="prefix__cls-3" data-name="Fill 513" transform="translate(17.826 27.39)"/>
            <path id="prefix__Fill_515" d="M.911 1.8a.914.914 0 0 0 .912-.9A.911.911 0 0 0 0 .9a.913.913 0 0 0 .911.9" class="prefix__cls-3" data-name="Fill 515" transform="translate(17.829 27.419)"/>
            <path id="prefix__Fill_517" d="M.914.029a.914.914 0 0 1 .912.9V.915A.915.915 0 0 0 0 .914v.014a.914.914 0 0 1 .912-.9" class="prefix__cls-3" data-name="Fill 517" transform="translate(21.482 27.39)"/>
            <path id="prefix__Fill_519" d="M.912 1.8a.914.914 0 0 0 .911-.9A.912.912 0 0 0 0 .9a.914.914 0 0 0 .912.9" class="prefix__cls-3" data-name="Fill 519" transform="translate(21.484 27.419)"/>
            <path id="prefix__Fill_521" d="M.914 0A.914.914 0 0 0 0 .914v.014a.911.911 0 0 1 1.823 0V.914A.915.915 0 0 0 .914 0" class="prefix__cls-3" data-name="Fill 521" transform="translate(25.138 27.39)"/>
            <path id="prefix__Fill_523" d="M.911 0A.912.912 0 0 0 0 .9a.911.911 0 0 0 1.823 0A.914.914 0 0 0 .911 0" class="prefix__cls-3" data-name="Fill 523" transform="translate(25.141 27.419)"/>
            <path id="prefix__Fill_525" d="M0 0a.914.914 0 0 1 .911.914V.913A.914.914 0 0 0 0 0" class="prefix__cls-3" data-name="Fill 525" transform="translate(29.706 27.39)"/>
            <path id="prefix__Fill_527" d="M.357.359V.346v.013" class="prefix__cls-3" data-name="Fill 527" transform="translate(30.257 27.959)"/>
            <path id="prefix__Fill_529" d="M0 .9A.912.912 0 0 0 .911.014V0A.913.913 0 0 1 0 .9" class="prefix__cls-3" data-name="Fill 529" transform="translate(29.706 28.318)"/>
            <path id="prefix__Fill_531" d="M0 .914A.91.91 0 0 1 .909.029h.005a.91.91 0 0 1 .908.886A.911.911 0 1 0 0 .914" class="prefix__cls-3" data-name="Fill 531" transform="translate(28.794 27.391)"/>
            <path id="prefix__Fill_533" d="M.912 0A.912.912 0 0 0 0 .886V.9A.913.913 0 0 1 .912 0" class="prefix__cls-3" data-name="Fill 533" transform="translate(28.794 27.419)"/>
            <path id="prefix__Fill_535" d="M0 0a.913.913 0 0 1 .908.9V.887A.912.912 0 0 0 0 0" class="prefix__cls-3" data-name="Fill 535" transform="translate(29.706 27.419)"/>
            <path id="prefix__Fill_537" d="M.909 0A.913.913 0 0 0 0 .9a.909.909 0 0 0 1.817 0A.913.913 0 0 0 .909 0" class="prefix__cls-3" data-name="Fill 537" transform="translate(28.796 27.42)"/>
            <path id="prefix__Fill_539" d="M.914 0a.914.914 0 1 0 .914.914A.914.914 0 0 0 .914 0" class="prefix__cls-3" data-name="Fill 539" transform="translate(1.375 30.132)"/>
            <path id="prefix__Fill_541" d="M.914 1.828A.914.914 0 1 0 0 .914a.914.914 0 0 0 .914.914" class="prefix__cls-3" data-name="Fill 541" transform="translate(5.03 30.132)"/>
            <path id="prefix__Fill_543" d="M.914 1.828A.914.914 0 1 0 0 .914a.915.915 0 0 0 .914.914" class="prefix__cls-3" data-name="Fill 543" transform="translate(8.686 30.132)"/>
            <path id="prefix__Fill_545" d="M.914 0a.914.914 0 1 0 .914.914A.915.915 0 0 0 .914 0" class="prefix__cls-3" data-name="Fill 545" transform="translate(12.342 30.132)"/>
            <path id="prefix__Fill_547" d="M.914 0a.914.914 0 1 0 .914.914A.914.914 0 0 0 .914 0" class="prefix__cls-3" data-name="Fill 547" transform="translate(15.998 30.132)"/>
            <path id="prefix__Fill_549" d="M.914 1.828A.914.914 0 1 0 0 .914a.914.914 0 0 0 .914.914" class="prefix__cls-3" data-name="Fill 549" transform="translate(19.654 30.132)"/>
            <path id="prefix__Fill_551" d="M.914 1.828A.914.914 0 1 0 0 .914a.915.915 0 0 0 .914.914" class="prefix__cls-3" data-name="Fill 551" transform="translate(23.31 30.132)"/>
            <path id="prefix__Fill_553" d="M.914 1.828A.914.914 0 1 0 0 .914a.914.914 0 0 0 .914.914" class="prefix__cls-3" data-name="Fill 553" transform="translate(26.966 30.132)"/>
            <path id="prefix__Fill_555" d="M.225 0C.281.344.34.686.408 1.026A.91.91 0 0 0 .495.648.912.912 0 0 0 .225 0" class="prefix__cls-3" data-name="Fill 555" transform="translate(.88 33.14)"/>
            <path id="prefix__Fill_557" d="M.914 1.828A.914.914 0 1 0 0 .913a.914.914 0 0 0 .914.915" class="prefix__cls-3" data-name="Fill 557" transform="translate(3.203 32.875)"/>
            <path id="prefix__Fill_559" d="M.914 0a.914.914 0 1 0 .914.914A.914.914 0 0 0 .914 0" class="prefix__cls-3" data-name="Fill 559" transform="translate(6.858 32.875)"/>
            <path id="prefix__Fill_561" d="M.914 1.828A.914.914 0 1 0 0 .913a.914.914 0 0 0 .914.915" class="prefix__cls-3" data-name="Fill 561" transform="translate(10.515 32.875)"/>
            <path id="prefix__Fill_563" d="M.914 0a.914.914 0 1 0 .914.914A.914.914 0 0 0 .914 0" class="prefix__cls-3" data-name="Fill 563" transform="translate(14.17 32.875)"/>
            <path id="prefix__Fill_565" d="M.914 0a.914.914 0 1 0 .914.914A.914.914 0 0 0 .914 0" class="prefix__cls-3" data-name="Fill 565" transform="translate(17.826 32.875)"/>
            <path id="prefix__Fill_567" d="M.914 1.828A.914.914 0 1 0 0 .913a.914.914 0 0 0 .914.915" class="prefix__cls-3" data-name="Fill 567" transform="translate(21.482 32.875)"/>
            <path id="prefix__Fill_569" d="M.914 1.828A.914.914 0 1 0 0 .913a.914.914 0 0 0 .914.915" class="prefix__cls-3" data-name="Fill 569" transform="translate(25.138 32.875)"/>
            <path id="prefix__Fill_571" d="M0 0a.914.914 0 0 1 .911.914.913.913 0 0 1-.911.913A.914.914 0 1 0 0 0" class="prefix__cls-3" data-name="Fill 571" transform="translate(29.706 32.875)"/>
            <path id="prefix__Fill_573" d="M1.823.914a.911.911 0 1 0-.911.914.914.914 0 0 0 .911-.914" class="prefix__cls-3" data-name="Fill 573" transform="translate(28.794 32.874)"/>
            <path id="prefix__Fill_575" d="M1.518.914A.914.914 0 0 0 .6 0a.9.9 0 0 0-.6.24C.14.766.3 1.286.465 1.8a.835.835 0 0 0 .135.028.914.914 0 0 0 .918-.914" class="prefix__cls-3" data-name="Fill 575" transform="translate(1.685 35.616)"/>
            <path id="prefix__Fill_577" d="M.914 1.828A.914.914 0 1 0 0 .913a.914.914 0 0 0 .914.915" class="prefix__cls-3" data-name="Fill 577" transform="translate(5.03 35.616)"/>
            <path id="prefix__Fill_579" d="M.914 0a.914.914 0 1 0 .914.914A.914.914 0 0 0 .914 0" class="prefix__cls-3" data-name="Fill 579" transform="translate(8.686 35.616)"/>
            <path id="prefix__Fill_581" d="M.914 1.828A.914.914 0 1 0 0 .913a.914.914 0 0 0 .914.915" class="prefix__cls-3" data-name="Fill 581" transform="translate(12.342 35.616)"/>
            <path id="prefix__Fill_583" d="M.914 1.828A.914.914 0 1 0 0 .913a.914.914 0 0 0 .914.915" class="prefix__cls-3" data-name="Fill 583" transform="translate(15.998 35.616)"/>
            <path id="prefix__Fill_585" d="M.914 1.828A.914.914 0 1 0 0 .913a.914.914 0 0 0 .914.915" class="prefix__cls-3" data-name="Fill 585" transform="translate(19.654 35.616)"/>
            <path id="prefix__Fill_587" d="M.914 0a.914.914 0 1 0 .914.914A.914.914 0 0 0 .914 0" class="prefix__cls-3" data-name="Fill 587" transform="translate(23.31 35.616)"/>
            <path id="prefix__Fill_589" d="M.914 1.828A.914.914 0 1 0 0 .913a.914.914 0 0 0 .914.915" class="prefix__cls-3" data-name="Fill 589" transform="translate(26.966 35.616)"/>
            <path id="prefix__Fill_591" d="M.914 0a.914.914 0 1 0 .914.914A.914.914 0 0 0 .914 0" class="prefix__cls-3" data-name="Fill 591" transform="translate(3.203 38.358)"/>
            <path id="prefix__Fill_593" d="M.914 1.828A.914.914 0 1 0 0 .914a.914.914 0 0 0 .914.914" class="prefix__cls-3" data-name="Fill 593" transform="translate(6.858 38.358)"/>
            <path id="prefix__Fill_595" d="M.914 1.828A.914.914 0 1 0 0 .914a.914.914 0 0 0 .914.914" class="prefix__cls-3" data-name="Fill 595" transform="translate(10.515 38.358)"/>
            <path id="prefix__Fill_597" d="M.914 1.828A.914.914 0 1 0 0 .914a.914.914 0 0 0 .914.914" class="prefix__cls-3" data-name="Fill 597" transform="translate(14.17 38.358)"/>
            <path id="prefix__Fill_599" d="M.914 1.828A.914.914 0 1 0 0 .914a.915.915 0 0 0 .914.914" class="prefix__cls-3" data-name="Fill 599" transform="translate(17.826 38.358)"/>
            <path id="prefix__Fill_601" d="M.914 1.828A.914.914 0 1 0 0 .914a.914.914 0 0 0 .914.914" class="prefix__cls-3" data-name="Fill 601" transform="translate(21.482 38.358)"/>
            <path id="prefix__Fill_603" d="M.914 1.828A.914.914 0 1 0 0 .914a.915.915 0 0 0 .914.914" class="prefix__cls-3" data-name="Fill 603" transform="translate(25.138 38.358)"/>
            <path id="prefix__Fill_605" d="M.911.914A.914.914 0 0 1 0 1.828.915.915 0 0 0 .917.914.914.914 0 0 0 0 0a.914.914 0 0 1 .911.914" class="prefix__cls-3" data-name="Fill 605" transform="translate(29.705 38.358)"/>
            <path id="prefix__Fill_607" d="M0 .914A.911.911 0 1 0 .912 0 .914.914 0 0 0 0 .914" class="prefix__cls-3" data-name="Fill 607" transform="translate(28.794 38.358)"/>
            <path id="prefix__Fill_609" d="M.914 0a.914.914 0 1 0 .914.914A.915.915 0 0 0 .914 0" class="prefix__cls-3" data-name="Fill 609" transform="translate(5.03 41.1)"/>
            <path id="prefix__Fill_611" d="M.914 1.828A.914.914 0 1 0 0 .914a.915.915 0 0 0 .914.914" class="prefix__cls-3" data-name="Fill 611" transform="translate(8.686 41.1)"/>
            <path id="prefix__Fill_613" d="M.914 1.828A.914.914 0 1 0 0 .914a.914.914 0 0 0 .914.914" class="prefix__cls-3" data-name="Fill 613" transform="translate(12.342 41.1)"/>
            <path id="prefix__Fill_615" d="M.914 0a.914.914 0 1 0 .914.914A.914.914 0 0 0 .914 0" class="prefix__cls-3" data-name="Fill 615" transform="translate(15.998 41.1)"/>
            <path id="prefix__Fill_617" d="M.914 0a.914.914 0 1 0 .914.914A.914.914 0 0 0 .914 0" class="prefix__cls-3" data-name="Fill 617" transform="translate(19.654 41.1)"/>
            <path id="prefix__Fill_619" d="M.914 1.828A.914.914 0 1 0 0 .914a.915.915 0 0 0 .914.914" class="prefix__cls-3" data-name="Fill 619" transform="translate(23.31 41.1)"/>
            <path id="prefix__Fill_621" d="M.914 1.828A.914.914 0 1 0 0 .914a.914.914 0 0 0 .914.914" class="prefix__cls-3" data-name="Fill 621" transform="translate(26.966 41.1)"/>
            <path id="prefix__Fill_623" d="M.914 0a.914.914 0 1 0 .914.914A.915.915 0 0 0 .914 0" class="prefix__cls-3" data-name="Fill 623" transform="translate(6.858 43.841)"/>
            <path id="prefix__Fill_625" d="M.914 0a.914.914 0 1 0 .914.914A.914.914 0 0 0 .914 0" class="prefix__cls-3" data-name="Fill 625" transform="translate(10.515 43.841)"/>
            <path id="prefix__Fill_627" d="M.914 1.828A.914.914 0 1 0 0 .914a.914.914 0 0 0 .914.914" class="prefix__cls-3" data-name="Fill 627" transform="translate(14.17 43.841)"/>
            <path id="prefix__Fill_629" d="M.914 1.828A.914.914 0 1 0 0 .914a.914.914 0 0 0 .914.914" class="prefix__cls-3" data-name="Fill 629" transform="translate(17.826 43.841)"/>
            <path id="prefix__Fill_631" d="M.914 1.828A.914.914 0 1 0 0 .914a.914.914 0 0 0 .914.914" class="prefix__cls-3" data-name="Fill 631" transform="translate(21.482 43.841)"/>
            <path id="prefix__Fill_633" d="M.914 0a.914.914 0 1 0 .914.914A.914.914 0 0 0 .914 0" class="prefix__cls-3" data-name="Fill 633" transform="translate(25.138 43.841)"/>
            <path id="prefix__Fill_635" d="M.911.914A.914.914 0 0 1 0 1.828.914.914 0 0 0 .917.914.915.915 0 0 0 0 0a.914.914 0 0 1 .911.914" class="prefix__cls-3" data-name="Fill 635" transform="translate(29.705 43.841)"/>
            <path id="prefix__Fill_637" d="M0 .914A.911.911 0 1 0 .912 0 .914.914 0 0 0 0 .914" class="prefix__cls-3" data-name="Fill 637" transform="translate(28.794 43.842)"/>
            <path id="prefix__Fill_639" d="M.914 0a.914.914 0 1 0 .914.914A.914.914 0 0 0 .914 0" class="prefix__cls-3" data-name="Fill 639" transform="translate(8.686 46.584)"/>
            <path id="prefix__Fill_641" d="M.914 0a.914.914 0 1 0 .914.914A.914.914 0 0 0 .914 0" class="prefix__cls-3" data-name="Fill 641" transform="translate(12.342 46.584)"/>
            <path id="prefix__Fill_643" d="M.914 1.828A.914.914 0 1 0 0 .914a.914.914 0 0 0 .914.914" class="prefix__cls-3" data-name="Fill 643" transform="translate(15.998 46.584)"/>
            <path id="prefix__Fill_645" d="M.914 1.828A.914.914 0 1 0 0 .914a.914.914 0 0 0 .914.914" class="prefix__cls-3" data-name="Fill 645" transform="translate(19.654 46.584)"/>
            <path id="prefix__Fill_647" d="M.914 1.828A.914.914 0 1 0 0 .914a.914.914 0 0 0 .914.914" class="prefix__cls-3" data-name="Fill 647" transform="translate(23.31 46.584)"/>
            <path id="prefix__Fill_649" d="M.914 1.828A.914.914 0 1 0 0 .914a.914.914 0 0 0 .914.914" class="prefix__cls-3" data-name="Fill 649" transform="translate(26.966 46.584)"/>
            <path id="prefix__Fill_651" d="M1.8.914A.914.914 0 0 0 .884 0 .9.9 0 0 0 0 .77q.586.514 1.2 1a.909.909 0 0 0 .6-.85" class="prefix__cls-3" data-name="Fill 651" transform="translate(10.544 49.325)"/>
            <path id="prefix__Fill_653" d="M.914 0a.914.914 0 1 0 .914.914A.914.914 0 0 0 .914 0" class="prefix__cls-3" data-name="Fill 653" transform="translate(14.17 49.326)"/>
            <path id="prefix__Fill_655" d="M.914 0a.914.914 0 1 0 .914.914A.914.914 0 0 0 .914 0" class="prefix__cls-3" data-name="Fill 655" transform="translate(17.826 49.326)"/>
            <path id="prefix__Fill_657" d="M.914 0a.914.914 0 1 0 .914.914A.914.914 0 0 0 .914 0" class="prefix__cls-3" data-name="Fill 657" transform="translate(21.482 49.326)"/>
            <path id="prefix__Fill_659" d="M.914 1.828A.914.914 0 1 0 0 .914a.914.914 0 0 0 .914.914" class="prefix__cls-3" data-name="Fill 659" transform="translate(25.138 49.326)"/>
            <path id="prefix__Fill_661" d="M.911.914A.914.914 0 0 1 0 1.828.914.914 0 0 0 .917.914.914.914 0 0 0 0 0a.913.913 0 0 1 .911.914" class="prefix__cls-3" data-name="Fill 661" transform="translate(29.705 49.325)"/>
            <path id="prefix__Fill_663" d="M0 .914A.911.911 0 1 0 .912 0 .914.914 0 0 0 0 .914" class="prefix__cls-3" data-name="Fill 663" transform="translate(28.794 49.326)"/>
            <path id="prefix__Fill_665" d="M.151.006A.892.892 0 0 0 0 .036q.5.35 1.023.677A.9.9 0 0 0 .151.006" class="prefix__cls-3" data-name="Fill 665" transform="translate(13.106 52.061)"/>
            <path id="prefix__Fill_667" d="M.914 0a.914.914 0 1 0 .914.914A.914.914 0 0 0 .914 0" class="prefix__cls-3" data-name="Fill 667" transform="translate(15.998 52.067)"/>
            <path id="prefix__Fill_669" d="M.914 0a.914.914 0 1 0 .914.914A.914.914 0 0 0 .914 0" class="prefix__cls-3" data-name="Fill 669" transform="translate(19.654 52.067)"/>
            <path id="prefix__Fill_671" d="M.914 0a.914.914 0 1 0 .914.914A.914.914 0 0 0 .914 0" class="prefix__cls-3" data-name="Fill 671" transform="translate(23.31 52.067)"/>
            <path id="prefix__Fill_673" d="M.914 0a.914.914 0 1 0 .914.914A.914.914 0 0 0 .914 0" class="prefix__cls-3" data-name="Fill 673" transform="translate(26.966 52.067)"/>
            <path id="prefix__Fill_675" d="M.465.024A.893.893 0 0 0 0 .17Q.657.448 1.33.7A.9.9 0 0 0 .465.024" class="prefix__cls-3" data-name="Fill 675" transform="translate(18.275 54.785)"/>
            <path id="prefix__Fill_677" d="M1.828.914A.914.914 0 1 0 0 .914a.9.9 0 0 0 .094.386q.662.189 1.336.347a.9.9 0 0 0 .4-.735" class="prefix__cls-3" data-name="Fill 677" transform="translate(21.482 54.809)"/>
            <path id="prefix__Fill_679" d="M.914 0a.914.914 0 1 0 .914.914A.914.914 0 0 0 .914 0" class="prefix__cls-3" data-name="Fill 679" transform="translate(25.138 54.809)"/>
            <path id="prefix__Fill_681" d="M0 0a.914.914 0 0 1 .911.914.913.913 0 0 1-.911.914.914.914 0 0 0 .917-.914A.914.914 0 0 0 0 0" class="prefix__cls-3" data-name="Fill 681" transform="translate(29.706 54.809)"/>
            <path id="prefix__Fill_683" d="M1.823.914a.911.911 0 1 0-.911.914.914.914 0 0 0 .911-.914" class="prefix__cls-3" data-name="Fill 683" transform="translate(28.794 54.809)"/>
        </g>
        <path id="prefix__Fill_685" d="M12.493 7.663L6.519 18.705c-.783-.258-5.5-1.881-6.378-5.7A5.543 5.543 0 0 1 0 11.585L7.665 0z" class="prefix__cls-10" data-name="Fill 685" transform="translate(22.835 27.563)"/>
        <path id="prefix__Fill_687" d="M.252 19.18a.271.271 0 0 1-.067-.009.252.252 0 0 1-.176-.309 7.982 7.982 0 0 1 2.626-4.478 2.58 2.58 0 0 1 .191-.184c.067-.06.157-.142.33-.307a45.691 45.691 0 0 0 4.226-4.645A36.814 36.814 0 0 0 10 5.48 41.191 41.191 0 0 0 12.725.153a.253.253 0 0 1 .33-.134.251.251 0 0 1 .133.33 41.643 41.643 0 0 1-2.758 5.393 37.55 37.55 0 0 1-2.653 3.82 46.313 46.313 0 0 1-4.275 4.7c-.177.17-.27.254-.339.316s-.112.1-.2.189A7.539 7.539 0 0 0 .5 18.995a.253.253 0 0 1-.243.185" class="prefix__cls-11" data-name="Fill 687" transform="translate(16.084 28.561)"/>
        <path id="prefix__Fill_689" d="M.09 16.926c.829 9.04 7.158 16.124 14.136 15.821s11.961-7.877 11.131-16.916S18.2-.294 11.222.009-.739 7.886.09 16.926" class="prefix__cls-10" data-name="Fill 689" transform="translate(22.389 5.929)"/>
        <path id="prefix__Fill_691" d="M14.051 33.26a12.431 12.431 0 0 1-9.267-4.667A20.219 20.219 0 0 1 .092 17.2C-.384 12.01 1 7.131 3.9 3.816A10.534 10.534 0 0 1 11.463.009C11.608 0 11.755 0 11.9 0a12.434 12.434 0 0 1 9.274 4.666 20.218 20.218 0 0 1 4.686 11.393c.477 5.19-.911 10.069-3.807 13.385a10.53 10.53 0 0 1-7.564 3.807c-.152.006-.299.009-.438.009zM11.9.5c-.145 0-.286 0-.418.009a10.041 10.041 0 0 0-7.203 3.638C1.474 7.358.13 12.1.593 17.155a19.738 19.738 0 0 0 4.532 11.067 11.948 11.948 0 0 0 8.921 4.535c.142 0 .279 0 .421-.009a10.042 10.042 0 0 0 7.207-3.635c2.805-3.212 4.148-7.953 3.684-13.007a19.741 19.741 0 0 0-4.525-11.069A11.947 11.947 0 0 0 11.9.5z" class="prefix__cls-11" data-name="Fill 691" transform="translate(22.137 5.677)"/>
        <path id="prefix__Fill_693" d="M30.185 6.929c1.581 6.409-9.2 15.7-15.489 13.509-1.986-.693-3.46-2.51-4.526-1.841s-1.132 3.392-.021 5.18c1.053 1.7 2.442 1.445 3.226 2.817 1.276 2.234-.238 6.668-2.5 7.306-3.05.863-8.007-5.039-9.871-10.711A17.794 17.794 0 0 1 .9 11.757C3.75 3.44 11.891.848 12.608.644A18.835 18.835 0 0 1 25.363 1.8c3.758 2.023 4.581 4.149 4.822 5.127" class="prefix__cls-3" data-name="Fill 693" transform="translate(15.333 .253)"/>
        <path id="prefix__Fill_695" d="M10.512 34.487c-1.525 0-3.411-1.244-5.311-3.5a23.42 23.42 0 0 1-4.183-7.467 17.88 17.88 0 0 1-.1-11.592C3.873 3.289 12.427.758 12.79.654A17.287 17.287 0 0 1 17.521 0a20.015 20.015 0 0 1 8.2 1.825c2.758 1.484 4.474 3.315 4.962 5.3.862 3.494-1.773 7.417-4.527 9.924C23.2 19.73 19.867 21.27 17 21.27a6.458 6.458 0 0 1-2.136-.342 10.6 10.6 0 0 1-2.155-1.14l-.009-.008a4.094 4.094 0 0 0-1.759-.824.693.693 0 0 0-.382.107c-.885.556-1.02 3.1.059 4.835a4.031 4.031 0 0 0 1.7 1.483 3.49 3.49 0 0 1 1.535 1.341 5.888 5.888 0 0 1-.06 4.877A4.465 4.465 0 0 1 11.2 34.4a2.527 2.527 0 0 1-.688.087zM17.524.5a16.8 16.8 0 0 0-4.6.635A18.408 18.408 0 0 0 8.107 3.5a17.031 17.031 0 0 0-6.714 8.59A17.385 17.385 0 0 0 1.5 23.363a22.669 22.669 0 0 0 4.144 7.379c1.761 2.06 3.537 3.242 4.873 3.242a2 2 0 0 0 .545-.073 4.038 4.038 0 0 0 2.258-2.5 5.379 5.379 0 0 0 .089-4.436 3 3 0 0 0-1.338-1.148l-.01-.005a4.508 4.508 0 0 1-1.873-1.655c-1.163-1.873-1.11-4.766.1-5.527a1.183 1.183 0 0 1 .646-.187 4.316 4.316 0 0 1 2.031.9l.009.006a10.259 10.259 0 0 0 2.058 1.094 5.916 5.916 0 0 0 1.949.312c3.2 0 6.661-2.114 8.835-4.092 3.378-3.074 5.055-6.689 4.378-9.432-.453-1.838-2.077-3.555-4.7-4.965A19.461 19.461 0 0 0 17.524.5z" class="prefix__cls-11" data-name="Fill 695" transform="translate(15.082)"/>
        <path id="prefix__Fill_697" d="M15.074 2.472l5.742 18.424-15.752.08L0 16.988l1.316-8.375 1.835-6.22C3.5 2.117 7.813-1.217 12.2.478a7.642 7.642 0 0 1 2.871 1.994" class="prefix__cls-10" data-name="Fill 697" transform="translate(16.695 43.222)"/>
        <path id="prefix__Fill_699" d="M17.257 2.178A3.991 3.991 0 0 0 11.313.786a5.057 5.057 0 0 0-3.679.281 4.886 4.886 0 0 0-1.545 1.182A5.907 5.907 0 0 0 .871 8.126 4.033 4.033 0 0 0 0 10a4.456 4.456 0 0 0 1.459 3.5 4.211 4.211 0 0 0 2.454.981 2.049 2.049 0 0 0 .55.519 2.481 2.481 0 0 0 1.24.349c.351.027.54.048.666.208.219.274.109.768 0 1.246-.122.551-.251 1.12.174 1.437.241.182.56.147 1.268.07a7.043 7.043 0 0 0 .832-.119A1.53 1.53 0 0 0 9 18.064c.6-.309.729-.922.871-1.571a6.114 6.114 0 0 1 .261-.949 4.422 4.422 0 0 1 1.938-2.1 4.169 4.169 0 0 0 .729-.05c.071-.011.168-.03.286-.058a4.878 4.878 0 0 0 1.618-.728 4.758 4.758 0 0 0 1.364-1.343 5.8 5.8 0 0 0 4.553-1.916 4.248 4.248 0 0 0 1.12-3.4c-.288-1.907-2.125-3.449-4.483-3.776" class="prefix__cls-10" data-name="Fill 699" transform="translate(17.957 4.806)"/>
        <path id="prefix__Fill_701" d="M.586 9.429c-.17 0-.3-.006-.38-.013A.221.221 0 0 1 0 9.179a.21.21 0 0 1 .237-.205 5.629 5.629 0 0 0 4.59-1.822A4.028 4.028 0 0 0 5.9 3.99C5.624 2.185 3.824.725 1.52.442a.224.224 0 0 1-.194-.249A.23.23 0 0 1 1.574 0c2.5.308 4.459 1.921 4.761 3.924a4.46 4.46 0 0 1-1.163 3.511A5.954 5.954 0 0 1 .586 9.429" class="prefix__cls-11" data-name="Fill 701" transform="translate(33.89 6.679)"/>
        <path id="prefix__Fill_703" d="M7.643 4.663h-.01a.223.223 0 0 1-.212-.232A3.833 3.833 0 0 0 4.959.665 3.817 3.817 0 0 0 .413 2.331.222.222 0 1 1 .032 2.1 4.257 4.257 0 0 1 5.11.248a4.281 4.281 0 0 1 2.755 4.2.223.223 0 0 1-.222.212" class="prefix__cls-11" data-name="Fill 703" transform="translate(28.108 4.378)"/>
        <path id="prefix__Fill_705" d="M.222 3.662a.2.2 0 0 1-.079-.015.22.22 0 0 1-.128-.287A5.306 5.306 0 0 1 2.611.52 5.3 5.3 0 0 1 6.563.269.223.223 0 1 1 6.42.69a4.925 4.925 0 0 0-3.615.228A4.866 4.866 0 0 0 .43 3.519a.222.222 0 0 1-.207.142" class="prefix__cls-11" data-name="Fill 705" transform="translate(22.812 4.983)"/>
        <path id="prefix__Fill_707" d="M3.509 4.625a1.851 1.851 0 0 1-.617-.1 2.039 2.039 0 0 1-1.311-1.7.223.223 0 0 1 .195-.247.213.213 0 0 1 .247.195A1.594 1.594 0 0 0 3.039 4.1 1.548 1.548 0 0 0 4.9 3.353 1.877 1.877 0 0 0 4.516 1.6 2.612 2.612 0 0 0 2.146.473 2.479 2.479 0 0 0 .424 1.826a.223.223 0 1 1-.4-.188A2.941 2.941 0 0 1 2.073.035a3.08 3.08 0 0 1 2.809 1.313A2.272 2.272 0 0 1 5.3 3.542a2 2 0 0 1-1.791 1.083" class="prefix__cls-11" data-name="Fill 707" transform="translate(21.687 14.22)"/>
        <path id="prefix__Fill_709" d="M3.443 8.3A5.5 5.5 0 0 1 .08 7.015a.222.222 0 0 1 .286-.34 4.863 4.863 0 0 0 3.7 1.135 4.514 4.514 0 0 0 1.792-.742 3.8 3.8 0 0 0 1.714-2.295 3.55 3.55 0 0 0-.548-2.641A3.3 3.3 0 0 0 5.053.522c-.978-.228-2.323.067-2.531.77a1.084 1.084 0 0 0 .171.827.222.222 0 0 1-.385.221A1.507 1.507 0 0 1 2.1 1.165C2.379.209 3.945-.194 5.153.089A3.7 3.7 0 0 1 7.4 1.9a3.978 3.978 0 0 1 .607 2.969 4.208 4.208 0 0 1-1.9 2.568 4.964 4.964 0 0 1-1.974.815 4.345 4.345 0 0 1-.692.055" class="prefix__cls-11" data-name="Fill 709" transform="translate(26.695 10.117)"/>
        <path id="prefix__Fill_711" d="M.224 6.493A.222.222 0 0 1 0 6.275a6.271 6.271 0 0 1 1.6-4.294A6.28 6.28 0 0 1 5.524 0a.231.231 0 0 1 .245.2.223.223 0 0 1-.2.245A5.715 5.715 0 0 0 .446 6.266a.223.223 0 0 1-.217.227z" class="prefix__cls-11" data-name="Fill 711" transform="translate(18.311 6.755)"/>
        <path id="prefix__Fill_713" d="M4.16 7.951h-.01a4.392 4.392 0 0 1-2.638-1.02A4.608 4.608 0 0 1 0 3.3a4 4 0 0 1 1.166-2.23A4.433 4.433 0 0 1 5.1.117a.222.222 0 0 1-.11.431 4.059 4.059 0 0 0-3.518.844A3.554 3.554 0 0 0 .445 3.354 4.154 4.154 0 0 0 1.8 6.593a3.942 3.942 0 0 0 2.369.914.222.222 0 0 1-.01.444" class="prefix__cls-11" data-name="Fill 713" transform="translate(17.388 11.578)"/>
        <path id="prefix__Fill_715" d="M3.922 6.416a.731.731 0 0 1-.464-.116c-.391-.293-.271-.835-.142-1.41.119-.533.242-1.084-.024-1.418-.164-.205-.394-.232-.787-.263a2.556 2.556 0 0 1-1.265-.352A3.258 3.258 0 0 1 0 .245.222.222 0 0 1 .2 0a.213.213 0 0 1 .243.2A2.859 2.859 0 0 0 1.48 2.481a2.133 2.133 0 0 0 1.06.283 1.391 1.391 0 0 1 1.1.429 2.09 2.09 0 0 1 .11 1.793c-.092.411-.187.837-.025.958a2.848 2.848 0 0 0 .94-.035 3.329 3.329 0 0 0 1.066-.2c.4-.207.5-.684.635-1.287a7.055 7.055 0 0 1 .3-1.093A5.239 5.239 0 0 1 8.975.812a.222.222 0 1 1 .23.381 4.8 4.8 0 0 0-2.12 2.3 6.508 6.508 0 0 0-.285 1.02c-.144.661-.28 1.285-.865 1.589a3.464 3.464 0 0 1-1.216.248c-.347.039-.6.067-.8.067" class="prefix__cls-11" data-name="Fill 715" transform="translate(20.828 17.231)"/>
        <path id="prefix__Fill_717" d="M3.937 1.833a.223.223 0 0 1-.209-.147A1.843 1.843 0 0 0 2.026.444h-.047A1.806 1.806 0 0 0 .422 1.475a.225.225 0 0 1-.3.1.223.223 0 0 1-.1-.3A2.247 2.247 0 0 1 1.966 0a2.246 2.246 0 0 1 2.18 1.535.222.222 0 0 1-.135.283.231.231 0 0 1-.075.013" class="prefix__cls-11" data-name="Fill 717" transform="translate(29.273 7.115)"/>
        <path id="prefix__Fill_719" d="M1.962 1.716a1.9 1.9 0 0 1-.23-.014A2.113 2.113 0 0 1 .013.3.222.222 0 0 1 .432.148a1.666 1.666 0 0 0 1.35 1.113 1.664 1.664 0 0 0 1.73-1.1.222.222 0 1 1 .414.158 2.126 2.126 0 0 1-1.964 1.397" class="prefix__cls-11" data-name="Fill 719" transform="translate(34.417 10.02)"/>
        <path id="prefix__Fill_721" d="M1.416 3.817a2.893 2.893 0 0 1-1.293-.306.223.223 0 0 1 .2-.4 2.421 2.421 0 0 0 2.587-.258A2.406 2.406 0 0 0 3.719.284.222.222 0 1 1 4.146.16a2.844 2.844 0 0 1-2.73 3.657" class="prefix__cls-11" data-name="Fill 721" transform="translate(22.582 7.36)"/>
        <path id="prefix__Fill_723" d="M1.2 2.391a.219.219 0 0 1-.064-.009 1.644 1.644 0 0 1-1.05-.994A1.613 1.613 0 0 1 .187.117a.222.222 0 0 1 .392.209 1.179 1.179 0 0 0-.073.914 1.213 1.213 0 0 0 .76.716.222.222 0 0 1-.064.435" class="prefix__cls-11" data-name="Fill 723" transform="translate(24.656 10.51)"/>
        <path id="prefix__Fill_725" d="M1.566 1.335a1.681 1.681 0 0 1-.948-.291 1.678 1.678 0 0 1-.6-.737.222.222 0 0 1 .119-.291.225.225 0 0 1 .29.12 1.235 1.235 0 0 0 .44.542 1.25 1.25 0 0 0 .755.212h.012a.222.222 0 0 1 .011.444h-.079" class="prefix__cls-11" data-name="Fill 725" transform="translate(27.961 9.585)"/>
        <path id="prefix__Fill_727" d="M2.157 2.371A2.3 2.3 0 0 1 .013.821.222.222 0 0 1 .148.538a.219.219 0 0 1 .284.136 1.85 1.85 0 0 0 1.841 1.248A1.854 1.854 0 0 0 3.964.205.211.211 0 0 1 4.2 0a.222.222 0 0 1 .2.239 2.3 2.3 0 0 1-2.1 2.127c-.049 0-.1.005-.146.005" class="prefix__cls-11" data-name="Fill 727" transform="translate(27.567 13.211)"/>
        <path id="prefix__Fill_729" d="M21.546 24.066a30.405 30.405 0 0 1-3.27-9.292c-.753-4.367-.269-7.675-2.792-10.647a11.825 11.825 0 0 0-2.751-2.313A12.552 12.552 0 0 0 6.871 0 13.432 13.432 0 0 0 4.2 2.373a15.128 15.128 0 0 0-3.011 6.061C-.5 14.481.052 21.6.232 23.568" class="prefix__cls-10" data-name="Fill 729" transform="translate(14.609 40.451)"/>
        <path id="prefix__Fill_731" d="M21.8 24.574a.253.253 0 0 1-.222-.132 30.947 30.947 0 0 1-3.3-9.368c-.205-1.191-.317-2.287-.426-3.346-.291-2.834-.52-5.073-2.309-7.181a11.754 11.754 0 0 0-2.692-2.262A12.3 12.3 0 0 0 7.2.513a13.19 13.19 0 0 0-2.554 2.281 15.46 15.46 0 0 0-2.96 5.965C.106 14.411.5 21.162.738 23.8a.252.252 0 1 1-.5.046c-.3-3.313-.579-9.7.966-15.225a15.954 15.954 0 0 1 3.06-6.157A13.726 13.726 0 0 1 6.986.047L7.056 0l.085.005a12.8 12.8 0 0 1 5.98 1.851 12.048 12.048 0 0 1 2.811 2.364c1.89 2.228 2.138 4.651 2.426 7.456.108 1.05.219 2.138.422 3.311a30.434 30.434 0 0 0 3.244 9.213.251.251 0 0 1-.222.371" class="prefix__cls-11" data-name="Fill 731" transform="translate(14.354 40.194)"/>
        <path id="prefix__Fill_733" d="M3.749 0C3.04.9 2.31 1.9 1.585 3.01.991 3.919.466 4.8 0 5.642" class="prefix__cls-10" data-name="Fill 733" transform="translate(30.154 38.517)"/>
        <path id="prefix__Fill_735" d="M.252 6.146a.252.252 0 0 1-.221-.373c.491-.889 1.028-1.779 1.6-2.648C2.3 2.088 3.035 1.069 3.8.1a.251.251 0 1 1 .4.307c-.76.962-1.483 1.969-2.152 2.993C1.487 4.258.957 5.138.473 6.015a.251.251 0 0 1-.221.13" class="prefix__cls-11" data-name="Fill 735" transform="translate(29.902 38.265)"/>
        <path id="prefix__Fill_737" d="M14.694 7.219c.2.907.745 3.346-.686 5.317-1.968 2.71-5.994 2.229-6.532 2.156-2.987-.4-7.4-2.75-7.474-7.218A7.347 7.347 0 0 1 7.219 0c4.6-.081 6.9 4.656 7.474 7.218" data-name="Fill 737" transform="translate(24.461 11.345)" style="fill:rgba(218,206,253,.5);mix-blend-mode:multiply;isolation:isolate"/>
    </g>
</svg>
