<svg xmlns="http://www.w3.org/2000/svg" width="63.379" height="70.045" viewBox="0 0 63.379 70.045">
    <defs>
        <clipPath id="prefix__clip-path">
            <path id="prefix__Clip_148" d="M.137 0h.519v.793H.137z" class="prefix__cls-1" data-name="Clip 148" transform="translate(.101 .647)"/>
        </clipPath>
        <clipPath id="prefix__clip-path-2">
            <path id="prefix__Clip_297" d="M.013 0H.78v.962H.013z" class="prefix__cls-1" data-name="Clip 297" transform="translate(.78 .733)"/>
        </clipPath>
        <clipPath id="prefix__clip-path-3">
            <path id="prefix__Clip_352" d="M.135 0h.522v.793H.135z" class="prefix__cls-1" data-name="Clip 352" transform="translate(.1 .033)"/>
        </clipPath>
        <clipPath id="prefix__clip-path-4">
            <path id="prefix__Clip_355" d="M.141 0h.511v1.168H.141z" class="prefix__cls-1" data-name="Clip 355" transform="translate(.105 .155)"/>
        </clipPath>
        <clipPath id="prefix__clip-path-5">
            <path id="prefix__Clip_492" d="M.011 0h.771v.959H.011z" class="prefix__cls-1" data-name="Clip 492" transform="translate(.782 .567)"/>
        </clipPath>
        <clipPath id="prefix__clip-path-6">
            <path id="prefix__Clip_495" d="M.018 0h.756v1.857H.018z" class="prefix__cls-1" data-name="Clip 495" transform="translate(.774 .599)"/>
        </clipPath>
        <style>
            .prefix__cls-1{fill:none}.prefix__cls-2{fill:#c5eb8c}.prefix__cls-10{fill:#fff}.prefix__cls-11{fill:#2d2d2d}
        </style>
    </defs>
    <g id="prefix__ic_cardiac_issue" transform="translate(-.793)">
        <path id="prefix__Fill_1" d="M1.007 2.014A1.006 1.006 0 0 1 1.01 0a1.007 1.007 0 0 0 0 2.014" class="prefix__cls-2" data-name="Fill 1" transform="translate(31.716 5.496)"/>
        <g id="prefix__Group_13" data-name="Group 13" transform="translate(0 5.495)" style="opacity:.4">
            <path id="prefix__Fill_3" d="M1.008 2.014A1.007 1.007 0 1 0 0 1.007a1.007 1.007 0 0 0 1.008 1.007" class="prefix__cls-2" data-name="Fill 3" transform="translate(35.744)"/>
            <path id="prefix__Fill_5" d="M1.007 1.471a1 1 0 0 0 1-.965C1.388.316.76.151.128 0A.972.972 0 0 0 0 .464a1.007 1.007 0 0 0 1.007 1.007" class="prefix__cls-2" data-name="Fill 5" transform="translate(39.772 .543)"/>
            <path id="prefix__Fill_7" d="M1.008 2.014A1.007 1.007 0 1 0 0 1.007a1.007 1.007 0 0 0 1.008 1.007" class="prefix__cls-2" data-name="Fill 7" transform="translate(33.73 3.021)"/>
            <path id="prefix__Fill_9" d="M1.008 2.014A1.007 1.007 0 1 0 0 1.007a1.007 1.007 0 0 0 1.008 1.007" class="prefix__cls-2" data-name="Fill 9" transform="translate(37.757 3.021)"/>
            <path id="prefix__Fill_11" d="M1.008 2.014A1.007 1.007 0 1 0 0 1.007a1.007 1.007 0 0 0 1.008 1.007" class="prefix__cls-2" data-name="Fill 11" transform="translate(41.785 3.021)"/>
            <path id="prefix__Fill_13" d="M0 .987a1.007 1.007 0 1 0 2.014 0A.973.973 0 0 0 1.871.5C1.554.327 1.23.163.907 0A1 1 0 0 0 0 .987" class="prefix__cls-2" data-name="Fill 13" transform="translate(45.813 3.041)"/>
            <path id="prefix__Fill_15" d="M.006 1.007A1.008 1.008 0 0 1 1.01 0a1.007 1.007 0 0 0 0 2.014 1.007 1.007 0 0 1-1-1.007" class="prefix__cls-2" data-name="Fill 15" transform="translate(31.717 6.042)"/>
            <path id="prefix__Fill_17" d="M1.008 0a1.007 1.007 0 1 0 1.006 1.007A1.007 1.007 0 0 0 1.008 0" class="prefix__cls-2" data-name="Fill 17" transform="translate(35.744 6.042)"/>
            <path id="prefix__Fill_19" d="M1.007 2.013A1.007 1.007 0 1 0 0 1.006a1.007 1.007 0 0 0 1.007 1.007" class="prefix__cls-2" data-name="Fill 19" transform="translate(39.772 6.042)"/>
            <path id="prefix__Fill_21" d="M1.008 2.013A1.007 1.007 0 1 0 0 1.006a1.007 1.007 0 0 0 1.008 1.007" class="prefix__cls-2" data-name="Fill 21" transform="translate(43.799 6.042)"/>
            <path id="prefix__Fill_23" d="M1.007 2.013A1.007 1.007 0 1 0 0 1.006a1.007 1.007 0 0 0 1.007 1.007" class="prefix__cls-2" data-name="Fill 23" transform="translate(47.827 6.042)"/>
            <path id="prefix__Fill_25" d="M1.008 1.6a1 1 0 0 0 .736-.329C1.249.832.739.41.219 0A.977.977 0 0 0 0 .6a1.007 1.007 0 0 0 1.008 1" class="prefix__cls-2" data-name="Fill 25" transform="translate(51.854 6.452)"/>
            <path id="prefix__Fill_27" d="M1.008 0a1.007 1.007 0 1 0 1.007 1.008A1.007 1.007 0 0 0 1.008 0" class="prefix__cls-2" data-name="Fill 27" transform="translate(33.73 9.063)"/>
            <path id="prefix__Fill_29" d="M1.008 0a1.007 1.007 0 1 0 1.007 1.008A1.007 1.007 0 0 0 1.008 0" class="prefix__cls-2" data-name="Fill 29" transform="translate(37.757 9.063)"/>
            <path id="prefix__Fill_31" d="M1.008 0a1.007 1.007 0 1 0 1.006 1.008A1.007 1.007 0 0 0 1.008 0" class="prefix__cls-2" data-name="Fill 31" transform="translate(41.785 9.063)"/>
            <path id="prefix__Fill_33" d="M1.008 2.013A1.007 1.007 0 1 0 0 1.007a1.007 1.007 0 0 0 1.008 1.006" class="prefix__cls-2" data-name="Fill 33" transform="translate(45.813 9.063)"/>
            <path id="prefix__Fill_35" d="M1.008 2.013A1.007 1.007 0 1 0 0 1.007a1.007 1.007 0 0 0 1.008 1.006" class="prefix__cls-2" data-name="Fill 35" transform="translate(49.84 9.063)"/>
            <path id="prefix__Fill_37" d="M0 1.008a1.007 1.007 0 0 0 2.014 0A1.043 1.043 0 0 0 1.992.9c-.27-.3-.545-.584-.825-.868A.979.979 0 0 0 1.008 0 1.007 1.007 0 0 0 0 1.008" class="prefix__cls-2" data-name="Fill 37" transform="translate(53.868 9.062)"/>
            <path id="prefix__Fill_39" d="M.006 1.008A1.007 1.007 0 0 1 1.01 0a1.007 1.007 0 0 0 0 2.014 1.007 1.007 0 0 1-1-1.007" class="prefix__cls-2" data-name="Fill 39" transform="translate(31.717 12.083)"/>
            <path id="prefix__Fill_41" d="M1.008 2.013A1.007 1.007 0 1 0 0 1.007a1.007 1.007 0 0 0 1.008 1.006" class="prefix__cls-2" data-name="Fill 41" transform="translate(35.744 12.083)"/>
            <path id="prefix__Fill_43" d="M1.007 0a1.007 1.007 0 1 0 1.007 1.008A1.007 1.007 0 0 0 1.007 0" class="prefix__cls-2" data-name="Fill 43" transform="translate(39.772 12.083)"/>
            <path id="prefix__Fill_45" d="M1.008 0a1.007 1.007 0 1 0 1.006 1.008A1.007 1.007 0 0 0 1.008 0" class="prefix__cls-2" data-name="Fill 45" transform="translate(43.799 12.083)"/>
            <path id="prefix__Fill_47" d="M1.007 0a1.007 1.007 0 1 0 1.007 1.008A1.007 1.007 0 0 0 1.007 0" class="prefix__cls-2" data-name="Fill 47" transform="translate(47.827 12.083)"/>
            <path id="prefix__Fill_49" d="M1.008 2.013A1.007 1.007 0 1 0 0 1.007a1.007 1.007 0 0 0 1.008 1.006" class="prefix__cls-2" data-name="Fill 49" transform="translate(51.854 12.083)"/>
            <path id="prefix__Fill_51" d="M1.007 2.013A1.007 1.007 0 1 0 0 1.007a1.007 1.007 0 0 0 1.007 1.006" class="prefix__cls-2" data-name="Fill 51" transform="translate(55.882 12.083)"/>
            <path id="prefix__Fill_53" d="M1.008 0a1.007 1.007 0 1 0 1.007 1.008A1.008 1.008 0 0 0 1.008 0" class="prefix__cls-2" data-name="Fill 53" transform="translate(33.73 15.104)"/>
            <path id="prefix__Fill_55" d="M1.008 0a1.007 1.007 0 1 0 1.007 1.008A1.007 1.007 0 0 0 1.008 0" class="prefix__cls-2" data-name="Fill 55" transform="translate(37.757 15.104)"/>
            <path id="prefix__Fill_57" d="M1.008 2.014A1.007 1.007 0 1 0 0 1.007a1.007 1.007 0 0 0 1.008 1.007" class="prefix__cls-2" data-name="Fill 57" transform="translate(41.785 15.104)"/>
            <path id="prefix__Fill_59" d="M1.008 0a1.007 1.007 0 1 0 1.007 1.008A1.007 1.007 0 0 0 1.008 0" class="prefix__cls-2" data-name="Fill 59" transform="translate(45.813 15.104)"/>
            <path id="prefix__Fill_61" d="M1.008 0a1.007 1.007 0 1 0 1.006 1.008A1.008 1.008 0 0 0 1.008 0" class="prefix__cls-2" data-name="Fill 61" transform="translate(49.84 15.104)"/>
            <path id="prefix__Fill_63" d="M1.008 2.014A1.007 1.007 0 1 0 0 1.007a1.008 1.008 0 0 0 1.008 1.007" class="prefix__cls-2" data-name="Fill 63" transform="translate(53.868 15.104)"/>
            <path id="prefix__Fill_65" d="M1.008 2.014A1.007 1.007 0 1 0 0 1.007a1.007 1.007 0 0 0 1.008 1.007" class="prefix__cls-2" data-name="Fill 65" transform="translate(57.896 15.104)"/>
            <path id="prefix__Fill_67" d="M.006 1.007A1.007 1.007 0 0 1 1.01 0a1.007 1.007 0 0 0 0 2.014 1.007 1.007 0 0 1-1-1.007" class="prefix__cls-2" data-name="Fill 67" transform="translate(31.717 18.125)"/>
            <path id="prefix__Fill_69" d="M1.008 0a1.007 1.007 0 1 0 1.006 1.007A1.007 1.007 0 0 0 1.008 0" class="prefix__cls-2" data-name="Fill 69" transform="translate(35.744 18.125)"/>
            <path id="prefix__Fill_71" d="M1.007 0a1.007 1.007 0 1 0 1.007 1.007A1.007 1.007 0 0 0 1.007 0" class="prefix__cls-2" data-name="Fill 71" transform="translate(39.772 18.125)"/>
            <path id="prefix__Fill_73" d="M1.008 0a1.007 1.007 0 1 0 1.006 1.007A1.007 1.007 0 0 0 1.008 0" class="prefix__cls-2" data-name="Fill 73" transform="translate(43.799 18.125)"/>
            <path id="prefix__Fill_75" d="M1.007 2.013A1.007 1.007 0 1 0 0 1.006a1.007 1.007 0 0 0 1.007 1.007" class="prefix__cls-2" data-name="Fill 75" transform="translate(47.827 18.125)"/>
            <path id="prefix__Fill_77" d="M1.008 0a1.007 1.007 0 1 0 1.007 1.007A1.007 1.007 0 0 0 1.008 0" class="prefix__cls-2" data-name="Fill 77" transform="translate(51.854 18.125)"/>
            <path id="prefix__Fill_79" d="M1.007 0a1.007 1.007 0 1 0 1.007 1.007A1.007 1.007 0 0 0 1.007 0" class="prefix__cls-2" data-name="Fill 79" transform="translate(55.882 18.125)"/>
            <path id="prefix__Fill_81" d="M0 1.007a1 1 0 0 0 1.948.33Q1.691.7 1.407.085A1 1 0 0 0 0 1.007" class="prefix__cls-2" data-name="Fill 81" transform="translate(59.909 18.125)"/>
            <path id="prefix__Fill_83" d="M1.008 0a1.007 1.007 0 1 0 1.007 1.007A1.007 1.007 0 0 0 1.008 0" class="prefix__cls-2" data-name="Fill 83" transform="translate(33.73 21.146)"/>
            <path id="prefix__Fill_85" d="M1.008 2.013A1.007 1.007 0 1 0 0 1.006a1.007 1.007 0 0 0 1.008 1.007" class="prefix__cls-2" data-name="Fill 85" transform="translate(37.757 21.146)"/>
            <path id="prefix__Fill_87" d="M1.008 0a1.007 1.007 0 1 0 1.006 1.007A1.007 1.007 0 0 0 1.008 0" class="prefix__cls-2" data-name="Fill 87" transform="translate(41.785 21.146)"/>
            <path id="prefix__Fill_89" d="M1.008 0a1.007 1.007 0 1 0 1.007 1.007A1.007 1.007 0 0 0 1.008 0" class="prefix__cls-2" data-name="Fill 89" transform="translate(45.813 21.146)"/>
            <path id="prefix__Fill_91" d="M1.008 0a1.007 1.007 0 1 0 1.006 1.007A1.007 1.007 0 0 0 1.008 0" class="prefix__cls-2" data-name="Fill 91" transform="translate(49.84 21.146)"/>
            <path id="prefix__Fill_93" d="M1.008 0a1.007 1.007 0 1 0 1.007 1.007A1.007 1.007 0 0 0 1.008 0" class="prefix__cls-2" data-name="Fill 93" transform="translate(53.868 21.146)"/>
            <path id="prefix__Fill_95" d="M1.008 0a1.007 1.007 0 1 0 1.006 1.007A1.007 1.007 0 0 0 1.008 0" class="prefix__cls-2" data-name="Fill 95" transform="translate(57.896 21.146)"/>
            <path id="prefix__Fill_97" d="M0 .911a1.007 1.007 0 0 0 1.008 1.007.89.89 0 0 0 .157-.032C.993 1.248.8.621.591 0A1 1 0 0 0 0 .911" class="prefix__cls-2" data-name="Fill 97" transform="translate(61.924 21.241)"/>
            <path id="prefix__Fill_99" d="M1.007 2.014A1.006 1.006 0 0 1 1.01 0a1.007 1.007 0 0 0 0 2.014" class="prefix__cls-2" data-name="Fill 99" transform="translate(31.716 24.166)"/>
            <path id="prefix__Fill_101" d="M1.008 0a1.007 1.007 0 1 0 1.006 1.008A1.007 1.007 0 0 0 1.008 0" class="prefix__cls-2" data-name="Fill 101" transform="translate(35.744 24.166)"/>
            <path id="prefix__Fill_103" d="M1.007 0a1.007 1.007 0 1 0 1.007 1.008A1.007 1.007 0 0 0 1.007 0" class="prefix__cls-2" data-name="Fill 103" transform="translate(39.772 24.166)"/>
            <path id="prefix__Fill_105" d="M1.008 2.014A1.007 1.007 0 1 0 0 1.007a1.007 1.007 0 0 0 1.008 1.007" class="prefix__cls-2" data-name="Fill 105" transform="translate(43.799 24.166)"/>
            <path id="prefix__Fill_107" d="M1.007 0a1.007 1.007 0 1 0 1.007 1.008A1.007 1.007 0 0 0 1.007 0" class="prefix__cls-2" data-name="Fill 107" transform="translate(47.827 24.166)"/>
            <path id="prefix__Fill_109" d="M1.008 0a1.007 1.007 0 1 0 1.007 1.008A1.007 1.007 0 0 0 1.008 0" class="prefix__cls-2" data-name="Fill 109" transform="translate(51.854 24.166)"/>
            <path id="prefix__Fill_111" d="M1.007 2.014A1.007 1.007 0 1 0 0 1.007a1.008 1.008 0 0 0 1.007 1.007" class="prefix__cls-2" data-name="Fill 111" transform="translate(55.882 24.166)"/>
            <path id="prefix__Fill_113" d="M1.008 2.014A1.007 1.007 0 1 0 0 1.007a1.007 1.007 0 0 0 1.008 1.007" class="prefix__cls-2" data-name="Fill 113" transform="translate(59.909 24.166)"/>
            <path id="prefix__Fill_115" d="M1.008 0a1.007 1.007 0 1 0 1.007 1.008A1.007 1.007 0 0 0 1.008 0" class="prefix__cls-2" data-name="Fill 115" transform="translate(33.73 27.187)"/>
            <path id="prefix__Fill_117" d="M1.008 0a1.007 1.007 0 1 0 1.007 1.008A1.007 1.007 0 0 0 1.008 0" class="prefix__cls-2" data-name="Fill 117" transform="translate(37.757 27.187)"/>
            <path id="prefix__Fill_119" d="M1.008 0a1.007 1.007 0 1 0 1.006 1.008A1.007 1.007 0 0 0 1.008 0" class="prefix__cls-2" data-name="Fill 119" transform="translate(41.785 27.187)"/>
            <path id="prefix__Fill_121" d="M1.008 2.014A1.007 1.007 0 1 0 0 1.007a1.008 1.008 0 0 0 1.008 1.007" class="prefix__cls-2" data-name="Fill 121" transform="translate(45.813 27.187)"/>
            <path id="prefix__Fill_123" d="M1.008 2.014A1.007 1.007 0 1 0 0 1.007a1.007 1.007 0 0 0 1.008 1.007" class="prefix__cls-2" data-name="Fill 123" transform="translate(49.84 27.187)"/>
            <path id="prefix__Fill_125" d="M1.008 0a1.007 1.007 0 1 0 1.007 1.008A1.007 1.007 0 0 0 1.008 0" class="prefix__cls-2" data-name="Fill 125" transform="translate(53.868 27.187)"/>
            <path id="prefix__Fill_127" d="M1.008 0a1.007 1.007 0 1 0 1.006 1.008A1.007 1.007 0 0 0 1.008 0" class="prefix__cls-2" data-name="Fill 127" transform="translate(57.896 27.187)"/>
            <path id="prefix__Fill_129" d="M1.008 2.014A1.007 1.007 0 1 0 0 1.007a1.008 1.008 0 0 0 1.008 1.007" class="prefix__cls-2" data-name="Fill 129" transform="translate(61.923 27.187)"/>
            <path id="prefix__Fill_131" d="M.006.017C.006.01 0 .006 0 0v.017a1.007 1.007 0 0 0 1.007 1.007 1.007 1.007 0 0 1-1-1.007" class="prefix__cls-2" data-name="Fill 131" transform="translate(31.717 31.198)"/>
            <path id="prefix__Fill_133" d="M1.008 1.023A1.007 1.007 0 0 0 2.014.016V0a1.006 1.006 0 0 1-1 .992A1.006 1.006 0 0 1 0 0v.016a1.007 1.007 0 0 0 1.008 1.007" class="prefix__cls-2" data-name="Fill 133" transform="translate(35.744 31.198)"/>
            <path id="prefix__Fill_135" d="M1.007.992A1.006 1.006 0 0 1 0 0v.017a1.007 1.007 0 0 0 1.007 1.006A1.007 1.007 0 0 0 2.014.017V0a1.006 1.006 0 0 1-1 .992" class="prefix__cls-2" data-name="Fill 135" transform="translate(39.772 31.198)"/>
            <path id="prefix__Fill_137" d="M1.008.992A1.006 1.006 0 0 1 0 0v.017a1.007 1.007 0 0 0 1.008 1.006A1.007 1.007 0 0 0 2.014.017V0a1.006 1.006 0 0 1-1 .992" class="prefix__cls-2" data-name="Fill 137" transform="translate(43.799 31.198)"/>
            <path id="prefix__Fill_139" d="M2.01 0a1.006 1.006 0 0 1-1 .992A1 1 0 0 1 0 0v.017a1.006 1.006 0 0 0 1.006 1.006A1.006 1.006 0 0 0 2.013.017V0" class="prefix__cls-2" data-name="Fill 139" transform="translate(47.827 31.198)"/>
            <path id="prefix__Fill_141" d="M1.008 1.023A1.007 1.007 0 0 0 2.015.016V0a1.007 1.007 0 0 1-1 .992A1 1 0 0 1 0 0v.016a1.007 1.007 0 0 0 1.008 1.007" class="prefix__cls-2" data-name="Fill 141" transform="translate(51.854 31.198)"/>
            <path id="prefix__Fill_143" d="M2.01 0a1.006 1.006 0 0 1-1 .992A1 1 0 0 1 0 0v.017a1.006 1.006 0 0 0 1.006 1.006A1.007 1.007 0 0 0 2.013.017V0" class="prefix__cls-2" data-name="Fill 143" transform="translate(55.883 31.198)"/>
            <path id="prefix__Fill_145" d="M1.008.992A1.007 1.007 0 0 1 0 0v.017a1.007 1.007 0 0 0 1.008 1.006A1.007 1.007 0 0 0 2.015.017V0a1.007 1.007 0 0 1-1 .992" class="prefix__cls-2" data-name="Fill 145" transform="translate(59.909 31.198)"/>
            <g id="prefix__Group_149" data-name="Group 149" transform="translate(63.415 30.465)">
                <path id="prefix__Clip_148-2" d="M.137 0h.519v.793H.137z" class="prefix__cls-1" data-name="Clip 148" transform="translate(.101 .647)"/>
                <g id="prefix__Group_149-2" data-name="Group 149">
                    <path id="prefix__Fill_147" d="M.285.1a.988.988 0 0 0 .221.6V.669A.984.984 0 0 1 .288.086C.288.092.285.1.285.1" class="prefix__cls-2" data-name="Fill 147" transform="translate(.238 .647)"/>
                </g>
            </g>
            <path id="prefix__Fill_150" d="M.854.218C.567.325.283.44 0 .555a1.012 1.012 0 0 0 .1.02.99.99 0 0 0 .754-.357" class="prefix__cls-2" data-name="Fill 150" transform="translate(20.546 1.439)"/>
            <path id="prefix__Fill_152" d="M1.007 1.569A1.008 1.008 0 0 0 2.014.561.976.976 0 0 0 1.819 0Q.91.2.021.462A.813.813 0 0 0 0 .561a1.007 1.007 0 0 0 1.007 1.008" class="prefix__cls-2" data-name="Fill 152" transform="translate(23.667 .446)"/>
            <path id="prefix__Fill_154" d="M1.008 2.014A1.007 1.007 0 1 0 0 1.007a1.007 1.007 0 0 0 1.008 1.007" class="prefix__cls-2" data-name="Fill 154" transform="translate(27.694)"/>
            <path id="prefix__Fill_156" d="M1 1.008a1.007 1.007 0 0 1-1 1.006 1.008 1.008 0 0 0 1.011-1.006A1.008 1.008 0 0 0 0 0a1.007 1.007 0 0 1 1 1.008" class="prefix__cls-2" data-name="Fill 156" transform="translate(32.726)"/>
            <path id="prefix__Fill_158" d="M0 1.007A1 1 0 1 0 1 0a1.007 1.007 0 0 0-1 1.007" class="prefix__cls-2" data-name="Fill 158" transform="translate(31.722 .001)"/>
            <path id="prefix__Fill_160" d="M.6.263C.466.352.324.439.188.53A1 1 0 0 0 .6.263" class="prefix__cls-2" data-name="Fill 160" transform="translate(14.737 4.44)"/>
            <path id="prefix__Fill_162" d="M1.008 2.014A1.007 1.007 0 1 0 0 1.007a1.007 1.007 0 0 0 1.008 1.007" class="prefix__cls-2" data-name="Fill 162" transform="translate(17.625 3.021)"/>
            <path id="prefix__Fill_164" d="M1.007 2.014A1.007 1.007 0 1 0 0 1.007a1.007 1.007 0 0 0 1.007 1.007" class="prefix__cls-2" data-name="Fill 164" transform="translate(21.653 3.021)"/>
            <path id="prefix__Fill_166" d="M1.008 2.014A1.007 1.007 0 1 0 0 1.007a1.007 1.007 0 0 0 1.008 1.007" class="prefix__cls-2" data-name="Fill 166" transform="translate(25.681 3.021)"/>
            <path id="prefix__Fill_168" d="M1.007 2.014A1.007 1.007 0 1 0 0 1.007a1.007 1.007 0 0 0 1.007 1.007" class="prefix__cls-2" data-name="Fill 168" transform="translate(29.708 3.021)"/>
            <path id="prefix__Fill_170" d="M.915 1.815A1.007 1.007 0 0 0 1.922.808.99.99 0 0 0 1.485 0Q.723.587 0 1.219a1 1 0 0 0 .915.6" class="prefix__cls-2" data-name="Fill 170" transform="translate(11.676 6.24)"/>
            <path id="prefix__Fill_172" d="M1.007 2.013A1.007 1.007 0 1 0 0 1.006a1.007 1.007 0 0 0 1.007 1.007" class="prefix__cls-2" data-name="Fill 172" transform="translate(15.612 6.042)"/>
            <path id="prefix__Fill_174" d="M1.008 2.013A1.007 1.007 0 1 0 0 1.006a1.007 1.007 0 0 0 1.008 1.007" class="prefix__cls-2" data-name="Fill 174" transform="translate(19.639 6.042)"/>
            <path id="prefix__Fill_176" d="M1.007 2.013A1.007 1.007 0 1 0 0 1.006a1.007 1.007 0 0 0 1.007 1.007" class="prefix__cls-2" data-name="Fill 176" transform="translate(23.667 6.042)"/>
            <path id="prefix__Fill_178" d="M1.008 0a1.007 1.007 0 1 0 1.007 1.007A1.007 1.007 0 0 0 1.008 0" class="prefix__cls-2" data-name="Fill 178" transform="translate(27.694 6.042)"/>
            <path id="prefix__Fill_180" d="M0 0a1.007 1.007 0 0 1 1 1.007 1.006 1.006 0 0 1-1 1.006A1.007 1.007 0 1 0 0 0" class="prefix__cls-2" data-name="Fill 180" transform="translate(32.726 6.042)"/>
            <path id="prefix__Fill_182" d="M2.008 1.007A1 1 0 1 0 1 2.013a1.007 1.007 0 0 0 1-1.007" class="prefix__cls-2" data-name="Fill 182" transform="translate(31.722 6.042)"/>
            <path id="prefix__Fill_184" d="M1.008 2.013A1.007 1.007 0 1 0 0 1.007a1.007 1.007 0 0 0 1.008 1.006" class="prefix__cls-2" data-name="Fill 184" transform="translate(9.57 9.063)"/>
            <path id="prefix__Fill_186" d="M1.008 2.013A1.007 1.007 0 1 0 0 1.007a1.007 1.007 0 0 0 1.008 1.006" class="prefix__cls-2" data-name="Fill 186" transform="translate(13.598 9.063)"/>
            <path id="prefix__Fill_188" d="M1.008 0a1.007 1.007 0 1 0 1.006 1.008A1.007 1.007 0 0 0 1.008 0" class="prefix__cls-2" data-name="Fill 188" transform="translate(17.625 9.063)"/>
            <path id="prefix__Fill_190" d="M1.007 0a1.007 1.007 0 1 0 1.007 1.008A1.007 1.007 0 0 0 1.007 0" class="prefix__cls-2" data-name="Fill 190" transform="translate(21.653 9.063)"/>
            <path id="prefix__Fill_192" d="M1.008 0a1.007 1.007 0 1 0 1.006 1.008A1.007 1.007 0 0 0 1.008 0" class="prefix__cls-2" data-name="Fill 192" transform="translate(25.681 9.063)"/>
            <path id="prefix__Fill_194" d="M1.007 0a1.007 1.007 0 1 0 1.007 1.008A1.007 1.007 0 0 0 1.007 0" class="prefix__cls-2" data-name="Fill 194" transform="translate(29.708 9.063)"/>
            <path id="prefix__Fill_196" d="M1.007 2.013A1.007 1.007 0 1 0 0 1.007a1.007 1.007 0 0 0 1.007 1.006" class="prefix__cls-2" data-name="Fill 196" transform="translate(7.556 12.083)"/>
            <path id="prefix__Fill_198" d="M1.008 2.013A1.007 1.007 0 1 0 0 1.007a1.007 1.007 0 0 0 1.008 1.006" class="prefix__cls-2" data-name="Fill 198" transform="translate(11.583 12.083)"/>
            <path id="prefix__Fill_200" d="M1.007 0a1.007 1.007 0 1 0 1.007 1.008A1.007 1.007 0 0 0 1.007 0" class="prefix__cls-2" data-name="Fill 200" transform="translate(15.612 12.083)"/>
            <path id="prefix__Fill_202" d="M1.008 0a1.007 1.007 0 1 0 1.007 1.008A1.008 1.008 0 0 0 1.008 0" class="prefix__cls-2" data-name="Fill 202" transform="translate(19.639 12.083)"/>
            <path id="prefix__Fill_204" d="M1.007 0a1.007 1.007 0 1 0 1.007 1.008A1.007 1.007 0 0 0 1.007 0" class="prefix__cls-2" data-name="Fill 204" transform="translate(23.667 12.083)"/>
            <path id="prefix__Fill_206" d="M1.008 2.013A1.007 1.007 0 1 0 0 1.007a1.007 1.007 0 0 0 1.008 1.006" class="prefix__cls-2" data-name="Fill 206" transform="translate(27.694 12.083)"/>
            <path id="prefix__Fill_208" d="M0 0a1.007 1.007 0 0 1 1 1.008 1.006 1.006 0 0 1-1 1.005 1.007 1.007 0 0 0 1.011-1.005A1.008 1.008 0 0 0 0 0" class="prefix__cls-2" data-name="Fill 208" transform="translate(32.726 12.083)"/>
            <path id="prefix__Fill_210" d="M2.008 1.007A1 1 0 1 0 1 2.013a1.007 1.007 0 0 0 1-1.007" class="prefix__cls-2" data-name="Fill 210" transform="translate(31.722 12.084)"/>
            <path id="prefix__Fill_212" d="M1.008 2.014A1.007 1.007 0 1 0 0 1.007a1.008 1.008 0 0 0 1.008 1.007" class="prefix__cls-2" data-name="Fill 212" transform="translate(5.542 15.104)"/>
            <path id="prefix__Fill_214" d="M1.008 0a1.007 1.007 0 1 0 1.006 1.008A1.007 1.007 0 0 0 1.008 0" class="prefix__cls-2" data-name="Fill 214" transform="translate(9.57 15.104)"/>
            <path id="prefix__Fill_216" d="M1.008 0a1.007 1.007 0 1 0 1.007 1.008A1.007 1.007 0 0 0 1.008 0" class="prefix__cls-2" data-name="Fill 216" transform="translate(13.598 15.104)"/>
            <path id="prefix__Fill_218" d="M1.008 2.014A1.007 1.007 0 1 0 0 1.007a1.007 1.007 0 0 0 1.008 1.007" class="prefix__cls-2" data-name="Fill 218" transform="translate(17.625 15.104)"/>
            <path id="prefix__Fill_220" d="M1.007 2.014A1.007 1.007 0 1 0 0 1.007a1.007 1.007 0 0 0 1.007 1.007" class="prefix__cls-2" data-name="Fill 220" transform="translate(21.653 15.104)"/>
            <path id="prefix__Fill_222" d="M1.008 2.014A1.007 1.007 0 1 0 0 1.007a1.007 1.007 0 0 0 1.008 1.007" class="prefix__cls-2" data-name="Fill 222" transform="translate(25.681 15.104)"/>
            <path id="prefix__Fill_224" d="M1.007 0a1.007 1.007 0 1 0 1.007 1.008A1.007 1.007 0 0 0 1.007 0" class="prefix__cls-2" data-name="Fill 224" transform="translate(29.708 15.104)"/>
            <path id="prefix__Fill_226" d="M1.008 2.013A1.007 1.007 0 1 0 0 1.006a1.007 1.007 0 0 0 1.008 1.007" class="prefix__cls-2" data-name="Fill 226" transform="translate(3.528 18.125)"/>
            <path id="prefix__Fill_228" d="M1.007 0a1.007 1.007 0 1 0 1.007 1.007A1.007 1.007 0 0 0 1.007 0" class="prefix__cls-2" data-name="Fill 228" transform="translate(7.556 18.125)"/>
            <path id="prefix__Fill_230" d="M1.008 0a1.007 1.007 0 1 0 1.007 1.007A1.007 1.007 0 0 0 1.008 0" class="prefix__cls-2" data-name="Fill 230" transform="translate(11.583 18.125)"/>
            <path id="prefix__Fill_232" d="M1.007 2.013A1.007 1.007 0 1 0 0 1.006a1.007 1.007 0 0 0 1.007 1.007" class="prefix__cls-2" data-name="Fill 232" transform="translate(15.612 18.125)"/>
            <path id="prefix__Fill_234" d="M1.008 0a1.007 1.007 0 1 0 1.007 1.007A1.007 1.007 0 0 0 1.008 0" class="prefix__cls-2" data-name="Fill 234" transform="translate(19.639 18.125)"/>
            <path id="prefix__Fill_236" d="M1.007 0a1.007 1.007 0 1 0 1.007 1.007A1.007 1.007 0 0 0 1.007 0" class="prefix__cls-2" data-name="Fill 236" transform="translate(23.667 18.125)"/>
            <path id="prefix__Fill_238" d="M1.008 0a1.007 1.007 0 1 0 1.007 1.007A1.007 1.007 0 0 0 1.008 0" class="prefix__cls-2" data-name="Fill 238" transform="translate(27.694 18.125)"/>
            <path id="prefix__Fill_240" d="M0 0a1.007 1.007 0 0 1 1 1.007 1.006 1.006 0 0 1-1 1.006A1.007 1.007 0 1 0 0 0" class="prefix__cls-2" data-name="Fill 240" transform="translate(32.726 18.125)"/>
            <path id="prefix__Fill_242" d="M2.008 1.007A1 1 0 1 0 1 2.013a1.007 1.007 0 0 0 1-1.007" class="prefix__cls-2" data-name="Fill 242" transform="translate(31.722 18.125)"/>
            <path id="prefix__Fill_244" d="M1.6 1.007A1.007 1.007 0 0 0 .594 0C.579 0 .566.008.551.009Q.251.892 0 1.8a.99.99 0 0 0 .594.215A1.007 1.007 0 0 0 1.6 1.007" class="prefix__cls-2" data-name="Fill 244" transform="translate(1.928 21.145)"/>
            <path id="prefix__Fill_246" d="M1.008 0a1.007 1.007 0 1 0 1.007 1.007A1.007 1.007 0 0 0 1.008 0" class="prefix__cls-2" data-name="Fill 246" transform="translate(5.542 21.146)"/>
            <path id="prefix__Fill_248" d="M1.008 2.013A1.007 1.007 0 1 0 0 1.006a1.007 1.007 0 0 0 1.008 1.007" class="prefix__cls-2" data-name="Fill 248" transform="translate(9.57 21.146)"/>
            <path id="prefix__Fill_250" d="M1.008 2.013A1.007 1.007 0 1 0 0 1.006a1.007 1.007 0 0 0 1.008 1.007" class="prefix__cls-2" data-name="Fill 250" transform="translate(13.598 21.146)"/>
            <path id="prefix__Fill_252" d="M1.008 0a1.007 1.007 0 1 0 1.006 1.007A1.007 1.007 0 0 0 1.008 0" class="prefix__cls-2" data-name="Fill 252" transform="translate(17.625 21.146)"/>
            <path id="prefix__Fill_254" d="M1.007 0a1.007 1.007 0 1 0 1.007 1.007A1.007 1.007 0 0 0 1.007 0" class="prefix__cls-2" data-name="Fill 254" transform="translate(21.653 21.146)"/>
            <path id="prefix__Fill_256" d="M1.008 0a1.007 1.007 0 1 0 1.006 1.007A1.007 1.007 0 0 0 1.008 0" class="prefix__cls-2" data-name="Fill 256" transform="translate(25.681 21.146)"/>
            <path id="prefix__Fill_258" d="M1.007 2.013A1.007 1.007 0 1 0 0 1.006a1.007 1.007 0 0 0 1.007 1.007" class="prefix__cls-2" data-name="Fill 258" transform="translate(29.708 21.146)"/>
            <path id="prefix__Fill_260" d="M.449 0C.388.3.337.6.285.9A.99.99 0 0 0 .508.293 1 1 0 0 0 .449 0" class="prefix__cls-2" data-name="Fill 260" transform="translate(1.007 24.88)"/>
            <path id="prefix__Fill_262" d="M1.008 2.014A1.007 1.007 0 1 0 0 1.007a1.007 1.007 0 0 0 1.008 1.007" class="prefix__cls-2" data-name="Fill 262" transform="translate(3.528 24.166)"/>
            <path id="prefix__Fill_264" d="M1.007 2.014A1.007 1.007 0 1 0 0 1.007a1.008 1.008 0 0 0 1.007 1.007" class="prefix__cls-2" data-name="Fill 264" transform="translate(7.556 24.166)"/>
            <path id="prefix__Fill_266" d="M1.008 0a1.007 1.007 0 1 0 1.007 1.008A1.007 1.007 0 0 0 1.008 0" class="prefix__cls-2" data-name="Fill 266" transform="translate(11.583 24.166)"/>
            <path id="prefix__Fill_268" d="M1.007 0a1.007 1.007 0 1 0 1.007 1.008A1.007 1.007 0 0 0 1.007 0" class="prefix__cls-2" data-name="Fill 268" transform="translate(15.612 24.166)"/>
            <path id="prefix__Fill_270" d="M1.008 2.014A1.007 1.007 0 1 0 0 1.007a1.007 1.007 0 0 0 1.008 1.007" class="prefix__cls-2" data-name="Fill 270" transform="translate(19.639 24.166)"/>
            <path id="prefix__Fill_272" d="M1.007 2.014A1.007 1.007 0 1 0 0 1.007a1.008 1.008 0 0 0 1.007 1.007" class="prefix__cls-2" data-name="Fill 272" transform="translate(23.667 24.166)"/>
            <path id="prefix__Fill_274" d="M1.008 2.014A1.007 1.007 0 1 0 0 1.007a1.007 1.007 0 0 0 1.008 1.007" class="prefix__cls-2" data-name="Fill 274" transform="translate(27.694 24.166)"/>
            <path id="prefix__Fill_276" d="M1 1.008a1.007 1.007 0 0 1-1 1.006 1.008 1.008 0 0 0 1.011-1.006A1.008 1.008 0 0 0 0 0a1.007 1.007 0 0 1 1 1.008" class="prefix__cls-2" data-name="Fill 276" transform="translate(32.726 24.166)"/>
            <path id="prefix__Fill_278" d="M0 1.007A1 1 0 1 0 1 0a1.008 1.008 0 0 0-1 1.007" class="prefix__cls-2" data-name="Fill 278" transform="translate(31.722 24.167)"/>
            <path id="prefix__Fill_280" d="M1.008 2.014A1.007 1.007 0 1 0 0 1.007a1.007 1.007 0 0 0 1.008 1.007" class="prefix__cls-2" data-name="Fill 280" transform="translate(1.515 27.187)"/>
            <path id="prefix__Fill_282" d="M1.008 2.014A1.007 1.007 0 1 0 0 1.007a1.008 1.008 0 0 0 1.008 1.007" class="prefix__cls-2" data-name="Fill 282" transform="translate(5.542 27.187)"/>
            <path id="prefix__Fill_284" d="M1.008 0a1.007 1.007 0 1 0 1.006 1.008A1.007 1.007 0 0 0 1.008 0" class="prefix__cls-2" data-name="Fill 284" transform="translate(9.57 27.187)"/>
            <path id="prefix__Fill_286" d="M1.008 0a1.007 1.007 0 1 0 1.007 1.008A1.007 1.007 0 0 0 1.008 0" class="prefix__cls-2" data-name="Fill 286" transform="translate(13.598 27.187)"/>
            <path id="prefix__Fill_288" d="M1.008 2.014A1.007 1.007 0 1 0 0 1.007a1.007 1.007 0 0 0 1.008 1.007" class="prefix__cls-2" data-name="Fill 288" transform="translate(17.625 27.187)"/>
            <path id="prefix__Fill_290" d="M1.007 2.014A1.007 1.007 0 1 0 0 1.007a1.007 1.007 0 0 0 1.007 1.007" class="prefix__cls-2" data-name="Fill 290" transform="translate(21.653 27.187)"/>
            <path id="prefix__Fill_292" d="M1.008 0a1.007 1.007 0 1 0 1.006 1.008A1.007 1.007 0 0 0 1.008 0" class="prefix__cls-2" data-name="Fill 292" transform="translate(25.681 27.187)"/>
            <path id="prefix__Fill_294" d="M1.007 0a1.007 1.007 0 1 0 1.007 1.008A1.007 1.007 0 0 0 1.007 0" class="prefix__cls-2" data-name="Fill 294" transform="translate(29.708 27.187)"/>
            <g id="prefix__Group_298" data-name="Group 298" transform="translate(0 30.465)">
                <path id="prefix__Clip_297-2" d="M.013 0H.78v.962H.013z" class="prefix__cls-1" data-name="Clip 297" transform="translate(.78 .733)"/>
                <g id="prefix__Group_298-2" data-name="Group 298">
                    <path id="prefix__Fill_296" d="M.748.017V0a.993.993 0 0 1-.7.93v.032a1 1 0 0 0 .7-.945" class="prefix__cls-2" data-name="Fill 296" transform="translate(.767 .733)"/>
                </g>
            </g>
            <path id="prefix__Fill_299" d="M1.008 1.023A1.007 1.007 0 0 0 2.015.016V0a1.007 1.007 0 0 1-1 .992A1 1 0 0 1 0 0v.016a1.007 1.007 0 0 0 1.008 1.007" class="prefix__cls-2" data-name="Fill 299" transform="translate(3.528 31.198)"/>
            <path id="prefix__Fill_301" d="M2.01 0a1.006 1.006 0 0 1-1 .992A1 1 0 0 1 0 0v.017a1.006 1.006 0 0 0 1.006 1.006A1.007 1.007 0 0 0 2.013.017V0" class="prefix__cls-2" data-name="Fill 301" transform="translate(7.557 31.198)"/>
            <path id="prefix__Fill_303" d="M1.008.992A1.007 1.007 0 0 1 0 0v.017a1.007 1.007 0 0 0 1.008 1.006A1.007 1.007 0 0 0 2.015.017V0a1.007 1.007 0 0 1-1 .992" class="prefix__cls-2" data-name="Fill 303" transform="translate(11.583 31.198)"/>
            <path id="prefix__Fill_305" d="M1.007.992A1 1 0 0 1 0 0v.017a1.007 1.007 0 0 0 1.007 1.006A1.007 1.007 0 0 0 2.014.017V0a1.007 1.007 0 0 1-1 .992" class="prefix__cls-2" data-name="Fill 305" transform="translate(15.612 31.198)"/>
            <path id="prefix__Fill_307" d="M1.008 1.023A1.007 1.007 0 0 0 2.015.016V0a1.007 1.007 0 0 1-1 .992A1.007 1.007 0 0 1 0 0v.016a1.007 1.007 0 0 0 1.008 1.007" class="prefix__cls-2" data-name="Fill 307" transform="translate(19.639 31.198)"/>
            <path id="prefix__Fill_309" d="M2.009 0a1 1 0 0 1-1 .992A1 1 0 0 1 0 0v.017a1.006 1.006 0 0 0 1.006 1.006A1.007 1.007 0 0 0 2.013.017a.166.166 0 0 0 0-.017" class="prefix__cls-2" data-name="Fill 309" transform="translate(23.668 31.198)"/>
            <path id="prefix__Fill_311" d="M1.008.992A1.007 1.007 0 0 1 0 0v.017a1.007 1.007 0 0 0 1.008 1.006A1.007 1.007 0 0 0 2.015.017V0a1.007 1.007 0 0 1-1 .992" class="prefix__cls-2" data-name="Fill 311" transform="translate(27.694 31.198)"/>
            <path id="prefix__Fill_313" d="M1 .017a1.007 1.007 0 0 1-1 1.006A1.008 1.008 0 0 0 1.011.017a.166.166 0 0 0 0-.017v.015z" class="prefix__cls-2" data-name="Fill 313" transform="translate(32.726 31.198)"/>
            <path id="prefix__Fill_315" d="M2.008 0a1 1 0 0 1-1 .977H1A1 1 0 0 1 0 0a1.007 1.007 0 0 0 1 1.008A1.007 1.007 0 0 0 2.008 0" class="prefix__cls-2" data-name="Fill 315" transform="translate(31.722 31.213)"/>
            <path id="prefix__Fill_317" d="M.006 1.008A1.007 1.007 0 0 1 1.01 0 1.008 1.008 0 0 0 0 1.008v.002" class="prefix__cls-2" data-name="Fill 317" transform="translate(31.717 30.175)"/>
            <path id="prefix__Fill_319" d="M.4.4a.092.092 0 0 1 0-.018V.411A.1.1 0 0 1 .4.4" class="prefix__cls-2" data-name="Fill 319" transform="translate(31.326 30.802)"/>
            <path id="prefix__Fill_321" d="M0 0a.1.1 0 0 0 0 .015 1 1 0 0 0 1 .977A1 1 0 0 1 0 0" class="prefix__cls-2" data-name="Fill 321" transform="translate(31.723 31.198)"/>
            <path id="prefix__Fill_323" d="M1.008.032a1.006 1.006 0 0 1 1 .991v-.016a1.007 1.007 0 0 0-2.008 0v.016a1 1 0 0 1 1-.991" class="prefix__cls-2" data-name="Fill 323" transform="translate(35.744 30.176)"/>
            <path id="prefix__Fill_325" d="M1 1.982A1.006 1.006 0 0 0 2 .99a1 1 0 0 0-2 .001 1.006 1.006 0 0 0 1 .992" class="prefix__cls-2" data-name="Fill 325" transform="translate(35.747 30.207)"/>
            <path id="prefix__Fill_327" d="M0 1.023a1 1 0 0 1 2.007 0v-.016a1.007 1.007 0 1 0-2.007 0v.016" class="prefix__cls-2" data-name="Fill 327" transform="translate(39.772 30.176)"/>
            <path id="prefix__Fill_329" d="M1 0a1.006 1.006 0 0 0-1 .991 1 1 0 0 0 2.008 0A1.006 1.006 0 0 0 1 0" class="prefix__cls-2" data-name="Fill 329" transform="translate(39.775 30.207)"/>
            <path id="prefix__Fill_331" d="M1.008 0A1.007 1.007 0 0 0 0 1.008v.015a1 1 0 0 1 2.008 0v-.015a1.007 1.007 0 0 0-1-1.008" class="prefix__cls-2" data-name="Fill 331" transform="translate(43.799 30.176)"/>
            <path id="prefix__Fill_333" d="M1 0a1 1 0 0 0-1 .991 1 1 0 0 0 2.008 0A1.006 1.006 0 0 0 1 0" class="prefix__cls-2" data-name="Fill 333" transform="translate(43.802 30.207)"/>
            <path id="prefix__Fill_335" d="M1.007.032a1.006 1.006 0 0 1 1 .991v-.016a1.007 1.007 0 0 0-2.007 0v.016a1.006 1.006 0 0 1 1-.991" class="prefix__cls-2" data-name="Fill 335" transform="translate(47.827 30.176)"/>
            <path id="prefix__Fill_337" d="M1 1.982A1.006 1.006 0 0 0 2 .99a1 1 0 0 0-2 .001 1.006 1.006 0 0 0 1 .992" class="prefix__cls-2" data-name="Fill 337" transform="translate(47.83 30.207)"/>
            <path id="prefix__Fill_339" d="M1.008.032a1.006 1.006 0 0 1 1 .991v-.016a1.008 1.008 0 0 0-2.008 0 .116.116 0 0 0 0 .016 1 1 0 0 1 1-.991" class="prefix__cls-2" data-name="Fill 339" transform="translate(51.854 30.176)"/>
            <path id="prefix__Fill_341" d="M1 1.982A1.007 1.007 0 0 0 2 .99a1 1 0 0 0-2 .001 1 1 0 0 0 1 .992" class="prefix__cls-2" data-name="Fill 341" transform="translate(51.858 30.207)"/>
            <path id="prefix__Fill_343" d="M1.007.032a1.006 1.006 0 0 1 1 .991v-.016a1.007 1.007 0 0 0-2.007 0v.016a1.006 1.006 0 0 1 1-.991" class="prefix__cls-2" data-name="Fill 343" transform="translate(55.882 30.176)"/>
            <path id="prefix__Fill_345" d="M1 1.982A1.007 1.007 0 0 0 2 .99a1 1 0 0 0-2 .001 1.006 1.006 0 0 0 1 .992" class="prefix__cls-2" data-name="Fill 345" transform="translate(55.885 30.207)"/>
            <path id="prefix__Fill_347" d="M1.008 0A1.008 1.008 0 0 0 0 1.008v.015a1 1 0 0 1 2.009 0v-.015A1.007 1.007 0 0 0 1.008 0" class="prefix__cls-2" data-name="Fill 347" transform="translate(59.909 30.176)"/>
            <path id="prefix__Fill_349" d="M1 0a1.006 1.006 0 0 0-1 .991 1 1 0 0 0 2.009 0A1.006 1.006 0 0 0 1 0" class="prefix__cls-2" data-name="Fill 349" transform="translate(59.912 30.207)"/>
            <g id="prefix__Group_353" data-name="Group 353" transform="translate(63.415 30.465)">
                <path id="prefix__Clip_352-2" d="M.135 0h.522v.793H.135z" class="prefix__cls-1" data-name="Clip 352" transform="translate(.1 .033)"/>
                <g id="prefix__Group_353-2" data-name="Group 353">
                    <path id="prefix__Fill_351" d="M.292.7A.977.977 0 0 1 .5.123V.092a.978.978 0 0 0-.211.593L.292.7" class="prefix__cls-2" data-name="Fill 351" transform="translate(.235 .033)"/>
                </g>
            </g>
            <g id="prefix__Group_356" data-name="Group 356" transform="translate(63.415 30.465)">
                <path id="prefix__Clip_355-2" d="M.141 0h.511v1.168H.141z" class="prefix__cls-1" data-name="Clip 355" transform="translate(.105 .155)"/>
                <g id="prefix__Group_356-2" data-name="Group 356">
                    <path id="prefix__Fill_354" d="M.5 1.168C.5 1.022.512.877.512.73.512.486.5.244.493 0a.984.984 0 0 0-.212.579.983.983 0 0 0 .22.59" class="prefix__cls-2" data-name="Fill 354" transform="translate(.246 .155)"/>
                </g>
            </g>
            <path id="prefix__Fill_357" d="M1.008 2.014A1.007 1.007 0 1 0 0 1.007a1.008 1.008 0 0 0 1.008 1.007" class="prefix__cls-2" data-name="Fill 357" transform="translate(33.73 33.196)"/>
            <path id="prefix__Fill_359" d="M1.008 2.014A1.007 1.007 0 1 0 0 1.007a1.008 1.008 0 0 0 1.008 1.007" class="prefix__cls-2" data-name="Fill 359" transform="translate(37.757 33.196)"/>
            <path id="prefix__Fill_361" d="M1.008 0a1.007 1.007 0 1 0 1.006 1.008A1.008 1.008 0 0 0 1.008 0" class="prefix__cls-2" data-name="Fill 361" transform="translate(41.785 33.196)"/>
            <path id="prefix__Fill_363" d="M1.008 0a1.007 1.007 0 1 0 1.007 1.008A1.007 1.007 0 0 0 1.008 0" class="prefix__cls-2" data-name="Fill 363" transform="translate(45.813 33.196)"/>
            <path id="prefix__Fill_365" d="M1.008 2.014A1.007 1.007 0 1 0 0 1.007a1.007 1.007 0 0 0 1.008 1.007" class="prefix__cls-2" data-name="Fill 365" transform="translate(49.84 33.196)"/>
            <path id="prefix__Fill_367" d="M1.008 2.014A1.007 1.007 0 1 0 0 1.007a1.008 1.008 0 0 0 1.008 1.007" class="prefix__cls-2" data-name="Fill 367" transform="translate(53.868 33.196)"/>
            <path id="prefix__Fill_369" d="M1.008 2.014A1.007 1.007 0 1 0 0 1.007a1.007 1.007 0 0 0 1.008 1.007" class="prefix__cls-2" data-name="Fill 369" transform="translate(57.896 33.196)"/>
            <path id="prefix__Fill_371" d="M1.008 0a1.007 1.007 0 1 0 1.007 1.008A1.007 1.007 0 0 0 1.008 0" class="prefix__cls-2" data-name="Fill 371" transform="translate(61.923 33.196)"/>
            <path id="prefix__Fill_373" d="M.006 1.007A1.007 1.007 0 0 1 1.01 0a1.007 1.007 0 0 0 0 2.014 1.007 1.007 0 0 1-1-1.007" class="prefix__cls-2" data-name="Fill 373" transform="translate(31.717 36.217)"/>
            <path id="prefix__Fill_375" d="M1.008 0a1.007 1.007 0 1 0 1.006 1.007A1.007 1.007 0 0 0 1.008 0" class="prefix__cls-2" data-name="Fill 375" transform="translate(35.744 36.218)"/>
            <path id="prefix__Fill_377" d="M1.007 2.013A1.007 1.007 0 1 0 0 1.006a1.007 1.007 0 0 0 1.007 1.007" class="prefix__cls-2" data-name="Fill 377" transform="translate(39.772 36.218)"/>
            <path id="prefix__Fill_379" d="M1.008 0a1.007 1.007 0 1 0 1.006 1.007A1.007 1.007 0 0 0 1.008 0" class="prefix__cls-2" data-name="Fill 379" transform="translate(43.799 36.218)"/>
            <path id="prefix__Fill_381" d="M1.007 2.013A1.007 1.007 0 1 0 0 1.006a1.007 1.007 0 0 0 1.007 1.007" class="prefix__cls-2" data-name="Fill 381" transform="translate(47.827 36.218)"/>
            <path id="prefix__Fill_383" d="M1.008 0a1.007 1.007 0 1 0 1.007 1.007A1.007 1.007 0 0 0 1.008 0" class="prefix__cls-2" data-name="Fill 383" transform="translate(51.854 36.218)"/>
            <path id="prefix__Fill_385" d="M1.007 0a1.007 1.007 0 1 0 1.007 1.007A1.007 1.007 0 0 0 1.007 0" class="prefix__cls-2" data-name="Fill 385" transform="translate(55.882 36.218)"/>
            <path id="prefix__Fill_387" d="M1.008 0a1.007 1.007 0 1 0 1.007 1.007A1.007 1.007 0 0 0 1.008 0" class="prefix__cls-2" data-name="Fill 387" transform="translate(59.909 36.218)"/>
            <path id="prefix__Fill_389" d="M1.008 0a1.007 1.007 0 1 0 1.007 1.007A1.007 1.007 0 0 0 1.008 0" class="prefix__cls-2" data-name="Fill 389" transform="translate(33.73 39.238)"/>
            <path id="prefix__Fill_391" d="M1.008 2.013A1.007 1.007 0 1 0 0 1.006a1.007 1.007 0 0 0 1.008 1.007" class="prefix__cls-2" data-name="Fill 391" transform="translate(37.757 39.238)"/>
            <path id="prefix__Fill_393" d="M1.008 2.013A1.007 1.007 0 1 0 0 1.006a1.007 1.007 0 0 0 1.008 1.007" class="prefix__cls-2" data-name="Fill 393" transform="translate(41.785 39.238)"/>
            <path id="prefix__Fill_395" d="M1.008 2.013A1.007 1.007 0 1 0 0 1.006a1.007 1.007 0 0 0 1.008 1.007" class="prefix__cls-2" data-name="Fill 395" transform="translate(45.813 39.238)"/>
            <path id="prefix__Fill_397" d="M1.008 0a1.007 1.007 0 1 0 1.006 1.007A1.007 1.007 0 0 0 1.008 0" class="prefix__cls-2" data-name="Fill 397" transform="translate(49.84 39.238)"/>
            <path id="prefix__Fill_399" d="M1.008 2.013A1.007 1.007 0 1 0 0 1.006a1.007 1.007 0 0 0 1.008 1.007" class="prefix__cls-2" data-name="Fill 399" transform="translate(53.868 39.238)"/>
            <path id="prefix__Fill_401" d="M1.008 0a1.007 1.007 0 1 0 1.006 1.007A1.007 1.007 0 0 0 1.008 0" class="prefix__cls-2" data-name="Fill 401" transform="translate(57.896 39.238)"/>
            <path id="prefix__Fill_403" d="M0 1.007a1 1 0 0 0 .683.942c.2-.626.4-1.257.562-1.9A.99.99 0 0 0 1.008 0 1.007 1.007 0 0 0 0 1.007" class="prefix__cls-2" data-name="Fill 403" transform="translate(61.924 39.238)"/>
            <path id="prefix__Fill_405" d="M1.007 2.014A1.006 1.006 0 0 1 1.01 0a1.007 1.007 0 0 0 0 2.014" class="prefix__cls-2" data-name="Fill 405" transform="translate(31.716 42.259)"/>
            <path id="prefix__Fill_407" d="M1.008 2.014A1.007 1.007 0 1 0 0 1.007a1.007 1.007 0 0 0 1.008 1.007" class="prefix__cls-2" data-name="Fill 407" transform="translate(35.744 42.259)"/>
            <path id="prefix__Fill_409" d="M1.007 2.014A1.007 1.007 0 1 0 0 1.007a1.007 1.007 0 0 0 1.007 1.007" class="prefix__cls-2" data-name="Fill 409" transform="translate(39.772 42.259)"/>
            <path id="prefix__Fill_411" d="M1.008 2.014A1.007 1.007 0 1 0 0 1.007a1.007 1.007 0 0 0 1.008 1.007" class="prefix__cls-2" data-name="Fill 411" transform="translate(43.799 42.259)"/>
            <path id="prefix__Fill_413" d="M1.007 0a1.007 1.007 0 1 0 1.007 1.008A1.007 1.007 0 0 0 1.007 0" class="prefix__cls-2" data-name="Fill 413" transform="translate(47.827 42.259)"/>
            <path id="prefix__Fill_415" d="M1.008 2.014A1.007 1.007 0 1 0 0 1.007a1.007 1.007 0 0 0 1.008 1.007" class="prefix__cls-2" data-name="Fill 415" transform="translate(51.854 42.259)"/>
            <path id="prefix__Fill_417" d="M1.007 2.014A1.007 1.007 0 1 0 0 1.007a1.008 1.008 0 0 0 1.007 1.007" class="prefix__cls-2" data-name="Fill 417" transform="translate(55.882 42.259)"/>
            <path id="prefix__Fill_419" d="M1.008 0a1.007 1.007 0 1 0 0 2.014.983.983 0 0 0 .6-.218c.133-.3.259-.61.383-.919A.994.994 0 0 0 1.008 0" class="prefix__cls-2" data-name="Fill 419" transform="translate(59.909 42.259)"/>
            <path id="prefix__Fill_421" d="M1.008 2.014A1.007 1.007 0 1 0 0 1.007a1.008 1.008 0 0 0 1.008 1.007" class="prefix__cls-2" data-name="Fill 421" transform="translate(33.73 45.279)"/>
            <path id="prefix__Fill_423" d="M1.008 0a1.007 1.007 0 1 0 1.007 1.008A1.007 1.007 0 0 0 1.008 0" class="prefix__cls-2" data-name="Fill 423" transform="translate(37.757 45.279)"/>
            <path id="prefix__Fill_425" d="M1.008 2.014A1.007 1.007 0 1 0 0 1.007a1.007 1.007 0 0 0 1.008 1.007" class="prefix__cls-2" data-name="Fill 425" transform="translate(41.785 45.279)"/>
            <path id="prefix__Fill_427" d="M1.008 0a1.007 1.007 0 1 0 1.007 1.008A1.007 1.007 0 0 0 1.008 0" class="prefix__cls-2" data-name="Fill 427" transform="translate(45.813 45.279)"/>
            <path id="prefix__Fill_429" d="M1.008 2.014A1.007 1.007 0 1 0 0 1.007a1.007 1.007 0 0 0 1.008 1.007" class="prefix__cls-2" data-name="Fill 429" transform="translate(49.84 45.279)"/>
            <path id="prefix__Fill_431" d="M1.008 0a1.007 1.007 0 1 0 1.007 1.008A1.007 1.007 0 0 0 1.008 0" class="prefix__cls-2" data-name="Fill 431" transform="translate(53.868 45.279)"/>
            <path id="prefix__Fill_433" d="M1.008 0a1.007 1.007 0 1 0 1.006 1.008A1.008 1.008 0 0 0 1.008 0" class="prefix__cls-2" data-name="Fill 433" transform="translate(57.896 45.279)"/>
            <path id="prefix__Fill_435" d="M1.007 2.014A1.006 1.006 0 0 1 1.01 0a1.007 1.007 0 0 0 0 2.014" class="prefix__cls-2" data-name="Fill 435" transform="translate(31.716 48.3)"/>
            <path id="prefix__Fill_437" d="M1.008 0a1.007 1.007 0 1 0 1.006 1.008A1.007 1.007 0 0 0 1.008 0" class="prefix__cls-2" data-name="Fill 437" transform="translate(35.744 48.3)"/>
            <path id="prefix__Fill_439" d="M1.007 2.014A1.007 1.007 0 1 0 0 1.007a1.007 1.007 0 0 0 1.007 1.007" class="prefix__cls-2" data-name="Fill 439" transform="translate(39.772 48.3)"/>
            <path id="prefix__Fill_441" d="M1.008 2.014A1.007 1.007 0 1 0 0 1.007a1.007 1.007 0 0 0 1.008 1.007" class="prefix__cls-2" data-name="Fill 441" transform="translate(43.799 48.3)"/>
            <path id="prefix__Fill_443" d="M1.007 2.014A1.007 1.007 0 1 0 0 1.007a1.007 1.007 0 0 0 1.007 1.007" class="prefix__cls-2" data-name="Fill 443" transform="translate(47.827 48.3)"/>
            <path id="prefix__Fill_445" d="M1.008 0a1.007 1.007 0 1 0 1.007 1.008A1.008 1.008 0 0 0 1.008 0" class="prefix__cls-2" data-name="Fill 445" transform="translate(51.854 48.3)"/>
            <path id="prefix__Fill_447" d="M1.007 0a1.007 1.007 0 1 0 1.007 1.008A1.007 1.007 0 0 0 1.007 0" class="prefix__cls-2" data-name="Fill 447" transform="translate(55.882 48.3)"/>
            <path id="prefix__Fill_449" d="M1.008 2.013A1.007 1.007 0 1 0 0 1.007a1.007 1.007 0 0 0 1.008 1.006" class="prefix__cls-2" data-name="Fill 449" transform="translate(33.73 51.321)"/>
            <path id="prefix__Fill_451" d="M1.008 2.013A1.007 1.007 0 1 0 0 1.007a1.007 1.007 0 0 0 1.008 1.006" class="prefix__cls-2" data-name="Fill 451" transform="translate(37.757 51.321)"/>
            <path id="prefix__Fill_453" d="M1.008 2.013A1.007 1.007 0 1 0 0 1.007a1.007 1.007 0 0 0 1.008 1.006" class="prefix__cls-2" data-name="Fill 453" transform="translate(41.785 51.321)"/>
            <path id="prefix__Fill_455" d="M1.008 2.013A1.007 1.007 0 1 0 0 1.007a1.007 1.007 0 0 0 1.008 1.006" class="prefix__cls-2" data-name="Fill 455" transform="translate(45.813 51.321)"/>
            <path id="prefix__Fill_457" d="M1.008 0a1.007 1.007 0 1 0 1.006 1.008A1.007 1.007 0 0 0 1.008 0" class="prefix__cls-2" data-name="Fill 457" transform="translate(49.84 51.321)"/>
            <path id="prefix__Fill_459" d="M1.008 0a1.007 1.007 0 1 0 .677 1.742l.065-.068a1 1 0 0 0 .266-.667A1.007 1.007 0 0 0 1.008 0" class="prefix__cls-2" data-name="Fill 459" transform="translate(53.868 51.321)"/>
            <path id="prefix__Fill_461" d="M1.007 2.013A1.006 1.006 0 0 1 1.01 0a1.007 1.007 0 1 0 0 2.013" class="prefix__cls-2" data-name="Fill 461" transform="translate(31.716 54.342)"/>
            <path id="prefix__Fill_463" d="M1.008 2.013A1.007 1.007 0 1 0 0 1.007a1.007 1.007 0 0 0 1.008 1.006" class="prefix__cls-2" data-name="Fill 463" transform="translate(35.744 54.342)"/>
            <path id="prefix__Fill_465" d="M1.007 0a1.007 1.007 0 1 0 1.007 1.008A1.007 1.007 0 0 0 1.007 0" class="prefix__cls-2" data-name="Fill 465" transform="translate(39.772 54.342)"/>
            <path id="prefix__Fill_467" d="M1.008 0a1.007 1.007 0 1 0 1.006 1.008A1.007 1.007 0 0 0 1.008 0" class="prefix__cls-2" data-name="Fill 467" transform="translate(43.799 54.342)"/>
            <path id="prefix__Fill_469" d="M1.007 0a1.007 1.007 0 1 0 1.007 1.008A1.007 1.007 0 0 0 1.007 0" class="prefix__cls-2" data-name="Fill 469" transform="translate(47.827 54.342)"/>
            <path id="prefix__Fill_471" d="M1.008 0A1.007 1.007 0 0 0 0 1.008a.989.989 0 0 0 .384.77C.892 1.372 1.39.956 1.872.521A1 1 0 0 0 1.008 0" class="prefix__cls-2" data-name="Fill 471" transform="translate(51.854 54.342)"/>
            <path id="prefix__Fill_473" d="M1.008 0a1.007 1.007 0 1 0 1.007 1.008A1.008 1.008 0 0 0 1.008 0" class="prefix__cls-2" data-name="Fill 473" transform="translate(33.73 57.362)"/>
            <path id="prefix__Fill_475" d="M1.008 0a1.007 1.007 0 1 0 1.007 1.008A1.007 1.007 0 0 0 1.008 0" class="prefix__cls-2" data-name="Fill 475" transform="translate(37.757 57.362)"/>
            <path id="prefix__Fill_477" d="M1.008 0a1.007 1.007 0 1 0 1.006 1.008A1.008 1.008 0 0 0 1.008 0" class="prefix__cls-2" data-name="Fill 477" transform="translate(41.785 57.362)"/>
            <path id="prefix__Fill_479" d="M1.008 0a1.007 1.007 0 1 0 1.007 1.008A1.007 1.007 0 0 0 1.008 0" class="prefix__cls-2" data-name="Fill 479" transform="translate(45.813 57.362)"/>
            <path id="prefix__Fill_481" d="M.225.516C.341.437.453.356.568.277a1.014 1.014 0 0 0-.343.239" class="prefix__cls-2" data-name="Fill 481" transform="translate(49.897 57.163)"/>
            <path id="prefix__Fill_483" d="M.006 1.008A1.007 1.007 0 0 1 1.01 0a1.008 1.008 0 0 0 0 2.015 1.007 1.007 0 0 1-1-1.007" class="prefix__cls-2" data-name="Fill 483" transform="translate(31.717 60.382)"/>
            <path id="prefix__Fill_485" d="M1.008 0a1.007 1.007 0 1 0 1.006 1.008A1.007 1.007 0 0 0 1.008 0" class="prefix__cls-2" data-name="Fill 485" transform="translate(35.744 60.383)"/>
            <path id="prefix__Fill_487" d="M1.007 0a1 1 0 0 0-.692 1.733c.553-.137 1.1-.286 1.644-.451a.986.986 0 0 0 .055-.274A1.007 1.007 0 0 0 1.007 0" class="prefix__cls-2" data-name="Fill 487" transform="translate(39.772 60.383)"/>
            <path id="prefix__Fill_489" d="M0 .651C.376.5.749.355 1.118.2A.96.96 0 0 0 .856.142.992.992 0 0 0 0 .651" class="prefix__cls-2" data-name="Fill 489" transform="translate(43.951 60.241)"/>
            <g id="prefix__Group_493" data-name="Group 493" transform="translate(0 29.672)">
                <path id="prefix__Clip_492-2" d="M.011 0h.771v.959H.011z" class="prefix__cls-1" data-name="Clip 492" transform="translate(.782 .567)"/>
                <g id="prefix__Group_493-2" data-name="Group 493">
                    <path id="prefix__Fill_491" d="M.74.959V.943A1 1 0 0 0 .049 0v.032A1 1 0 0 1 .74.959" class="prefix__cls-2" data-name="Fill 491" transform="translate(.771 .567)"/>
                </g>
            </g>
            <g id="prefix__Group_496" data-name="Group 496" transform="translate(0 29.672)">
                <path id="prefix__Clip_495-2" d="M.018 0h.756v1.857H.018z" class="prefix__cls-1" data-name="Clip 495" transform="translate(.774 .599)"/>
                <g id="prefix__Group_496-2" data-name="Group 496">
                    <path id="prefix__Fill_494" d="M.756.927A1 1 0 0 0 .065 0C.052.359.037.717.037 1.079c0 .262.013.519.02.778a.993.993 0 0 0 .7-.93" class="prefix__cls-2" data-name="Fill 494" transform="translate(.756 .599)"/>
                </g>
            </g>
            <path id="prefix__Fill_497" d="M1.008.032a1.006 1.006 0 0 1 1 .991v-.016a1.008 1.008 0 0 0-2.008 0 .116.116 0 0 0 0 .016 1 1 0 0 1 1-.991" class="prefix__cls-2" data-name="Fill 497" transform="translate(3.528 30.176)"/>
            <path id="prefix__Fill_499" d="M1 1.982A1.007 1.007 0 0 0 2 .99a1 1 0 0 0-2 .001 1 1 0 0 0 1 .992" class="prefix__cls-2" data-name="Fill 499" transform="translate(3.532 30.207)"/>
            <path id="prefix__Fill_501" d="M1.007.032a1.006 1.006 0 0 1 1 .991v-.016a1.007 1.007 0 0 0-2.007 0v.016a1.006 1.006 0 0 1 1-.991" class="prefix__cls-2" data-name="Fill 501" transform="translate(7.556 30.176)"/>
            <path id="prefix__Fill_503" d="M1 1.982A1.007 1.007 0 0 0 2 .99a1 1 0 0 0-2 .001 1.006 1.006 0 0 0 1 .992" class="prefix__cls-2" data-name="Fill 503" transform="translate(7.56 30.207)"/>
            <path id="prefix__Fill_505" d="M0 1.023a1 1 0 0 1 2.008 0v-.016a1.007 1.007 0 0 0-2.008 0v.016" class="prefix__cls-2" data-name="Fill 505" transform="translate(11.584 30.176)"/>
            <path id="prefix__Fill_507" d="M1 0a1.006 1.006 0 0 0-1 .991 1 1 0 0 0 2.009 0A1.006 1.006 0 0 0 1 0" class="prefix__cls-2" data-name="Fill 507" transform="translate(11.586 30.207)"/>
            <path id="prefix__Fill_509" d="M0 1.023a1 1 0 0 1 2.007 0v-.016a1.007 1.007 0 1 0-2.007 0v.016" class="prefix__cls-2" data-name="Fill 509" transform="translate(15.612 30.176)"/>
            <path id="prefix__Fill_511" d="M1 0a1 1 0 0 0-1 .991 1 1 0 0 0 2.008 0A1.006 1.006 0 0 0 1 0" class="prefix__cls-2" data-name="Fill 511" transform="translate(15.615 30.207)"/>
            <path id="prefix__Fill_513" d="M1.008.032a1.006 1.006 0 0 1 1 .991v-.016a1.008 1.008 0 0 0-2.008 0v.016a1.006 1.006 0 0 1 1-.991" class="prefix__cls-2" data-name="Fill 513" transform="translate(19.639 30.176)"/>
            <path id="prefix__Fill_515" d="M1 1.982A1.007 1.007 0 0 0 2 .99a1 1 0 0 0-2 .001 1.007 1.007 0 0 0 1 .992" class="prefix__cls-2" data-name="Fill 515" transform="translate(19.642 30.207)"/>
            <path id="prefix__Fill_517" d="M1.007.032a1 1 0 0 1 1 .991.116.116 0 0 0 0-.016 1.007 1.007 0 0 0-2.007 0v.016a1 1 0 0 1 1-.991" class="prefix__cls-2" data-name="Fill 517" transform="translate(23.667 30.176)"/>
            <path id="prefix__Fill_519" d="M1 1.982A1 1 0 0 0 2 .99a1 1 0 0 0-2 .001 1 1 0 0 0 1 .992" class="prefix__cls-2" data-name="Fill 519" transform="translate(23.67 30.207)"/>
            <path id="prefix__Fill_521" d="M1.008 0A1.008 1.008 0 0 0 0 1.008v.015a1 1 0 0 1 2.009 0v-.015A1.007 1.007 0 0 0 1.008 0" class="prefix__cls-2" data-name="Fill 521" transform="translate(27.694 30.176)"/>
            <path id="prefix__Fill_523" d="M1 0a1.006 1.006 0 0 0-1 .991 1 1 0 0 0 2.009 0A1.006 1.006 0 0 0 1 0" class="prefix__cls-2" data-name="Fill 523" transform="translate(27.697 30.207)"/>
            <path id="prefix__Fill_525" d="M0 0a1.007 1.007 0 0 1 1 1.008v.014a.143.143 0 0 0 0-.015A1.008 1.008 0 0 0 0 0" class="prefix__cls-2" data-name="Fill 525" transform="translate(32.726 30.176)"/>
            <path id="prefix__Fill_527" d="M.394.4S.4.406.4.411V.4.382v.014" class="prefix__cls-2" data-name="Fill 527" transform="translate(33.333 30.802)"/>
            <path id="prefix__Fill_529" d="M0 .991a1 1 0 0 0 1-.976V0a1 1 0 0 1-1 .991" class="prefix__cls-2" data-name="Fill 529" transform="translate(32.726 31.198)"/>
            <path id="prefix__Fill_531" d="M0 1.007a1 1 0 0 1 1-.975h.006a1 1 0 0 1 1 .977A1 1 0 1 0 0 1.007" class="prefix__cls-2" data-name="Fill 531" transform="translate(31.722 30.176)"/>
            <path id="prefix__Fill_533" d="M1 0a1 1 0 0 0-1 .977.092.092 0 0 0 0 .014A1 1 0 0 1 1 0" class="prefix__cls-2" data-name="Fill 533" transform="translate(31.723 30.207)"/>
            <path id="prefix__Fill_535" d="M0 0a1.006 1.006 0 0 1 1 .99V.976A1 1 0 0 0 0 0" class="prefix__cls-2" data-name="Fill 535" transform="translate(32.726 30.207)"/>
            <path id="prefix__Fill_537" d="M1 0a1 1 0 0 0-1 .99 1 1 0 0 0 2 0A1.006 1.006 0 0 0 1 0" class="prefix__cls-2" data-name="Fill 537" transform="translate(31.726 30.208)"/>
            <path id="prefix__Fill_539" d="M1.008 0a1.007 1.007 0 1 0 1.006 1.008A1.008 1.008 0 0 0 1.008 0" class="prefix__cls-2" data-name="Fill 539" transform="translate(1.515 33.196)"/>
            <path id="prefix__Fill_541" d="M1.008 2.014A1.007 1.007 0 1 0 0 1.007a1.008 1.008 0 0 0 1.008 1.007" class="prefix__cls-2" data-name="Fill 541" transform="translate(5.542 33.196)"/>
            <path id="prefix__Fill_543" d="M1.008 2.014A1.007 1.007 0 1 0 0 1.007a1.007 1.007 0 0 0 1.008 1.007" class="prefix__cls-2" data-name="Fill 543" transform="translate(9.57 33.196)"/>
            <path id="prefix__Fill_545" d="M1.008 0a1.007 1.007 0 1 0 1.007 1.008A1.007 1.007 0 0 0 1.008 0" class="prefix__cls-2" data-name="Fill 545" transform="translate(13.598 33.196)"/>
            <path id="prefix__Fill_547" d="M1.008 0a1.007 1.007 0 1 0 1.006 1.008A1.007 1.007 0 0 0 1.008 0" class="prefix__cls-2" data-name="Fill 547" transform="translate(17.625 33.196)"/>
            <path id="prefix__Fill_549" d="M1.007 2.014A1.007 1.007 0 1 0 0 1.007a1.007 1.007 0 0 0 1.007 1.007" class="prefix__cls-2" data-name="Fill 549" transform="translate(21.653 33.196)"/>
            <path id="prefix__Fill_551" d="M1.008 2.014A1.007 1.007 0 1 0 0 1.007a1.007 1.007 0 0 0 1.008 1.007" class="prefix__cls-2" data-name="Fill 551" transform="translate(25.681 33.196)"/>
            <path id="prefix__Fill_553" d="M1.007 2.014A1.007 1.007 0 1 0 0 1.007a1.007 1.007 0 0 0 1.007 1.007" class="prefix__cls-2" data-name="Fill 553" transform="translate(29.708 33.196)"/>
            <path id="prefix__Fill_555" d="M.248 0C.31.379.374.756.45 1.13a1 1 0 0 0 .1-.417A1 1 0 0 0 .248 0" class="prefix__cls-2" data-name="Fill 555" transform="translate(.97 36.51)"/>
            <path id="prefix__Fill_557" d="M1.008 2.013A1.007 1.007 0 1 0 0 1.006a1.007 1.007 0 0 0 1.008 1.007" class="prefix__cls-2" data-name="Fill 557" transform="translate(3.528 36.218)"/>
            <path id="prefix__Fill_559" d="M1.007 0a1.007 1.007 0 1 0 1.007 1.007A1.007 1.007 0 0 0 1.007 0" class="prefix__cls-2" data-name="Fill 559" transform="translate(7.556 36.218)"/>
            <path id="prefix__Fill_561" d="M1.008 2.013A1.007 1.007 0 1 0 0 1.006a1.007 1.007 0 0 0 1.008 1.007" class="prefix__cls-2" data-name="Fill 561" transform="translate(11.583 36.218)"/>
            <path id="prefix__Fill_563" d="M1.007 0a1.007 1.007 0 1 0 1.007 1.007A1.007 1.007 0 0 0 1.007 0" class="prefix__cls-2" data-name="Fill 563" transform="translate(15.612 36.218)"/>
            <path id="prefix__Fill_565" d="M1.008 0a1.007 1.007 0 1 0 1.007 1.007A1.007 1.007 0 0 0 1.008 0" class="prefix__cls-2" data-name="Fill 565" transform="translate(19.639 36.218)"/>
            <path id="prefix__Fill_567" d="M1.007 2.013A1.007 1.007 0 1 0 0 1.006a1.007 1.007 0 0 0 1.007 1.007" class="prefix__cls-2" data-name="Fill 567" transform="translate(23.667 36.218)"/>
            <path id="prefix__Fill_569" d="M1.008 2.013A1.007 1.007 0 1 0 0 1.006a1.007 1.007 0 0 0 1.008 1.007" class="prefix__cls-2" data-name="Fill 569" transform="translate(27.694 36.218)"/>
            <path id="prefix__Fill_571" d="M0 0a1.007 1.007 0 0 1 1 1.007 1.006 1.006 0 0 1-1 1.006A1.007 1.007 0 1 0 0 0" class="prefix__cls-2" data-name="Fill 571" transform="translate(32.726 36.218)"/>
            <path id="prefix__Fill_573" d="M2.008 1.007A1 1 0 1 0 1 2.013a1.007 1.007 0 0 0 1-1.007" class="prefix__cls-2" data-name="Fill 573" transform="translate(31.722 36.217)"/>
            <path id="prefix__Fill_575" d="M1.672 1.007A1.007 1.007 0 0 0 .665 0 .988.988 0 0 0 0 .264c.154.58.327 1.153.512 1.719a.92.92 0 0 0 .153.032 1.007 1.007 0 0 0 1.007-1.008" class="prefix__cls-2" data-name="Fill 575" transform="translate(1.857 39.238)"/>
            <path id="prefix__Fill_577" d="M1.008 2.013A1.007 1.007 0 1 0 0 1.006a1.007 1.007 0 0 0 1.008 1.007" class="prefix__cls-2" data-name="Fill 577" transform="translate(5.542 39.238)"/>
            <path id="prefix__Fill_579" d="M1.008 0a1.007 1.007 0 1 0 1.006 1.007A1.007 1.007 0 0 0 1.008 0" class="prefix__cls-2" data-name="Fill 579" transform="translate(9.57 39.238)"/>
            <path id="prefix__Fill_581" d="M1.008 2.013A1.007 1.007 0 1 0 0 1.006a1.007 1.007 0 0 0 1.008 1.007" class="prefix__cls-2" data-name="Fill 581" transform="translate(13.598 39.238)"/>
            <path id="prefix__Fill_583" d="M1.008 2.013A1.007 1.007 0 1 0 0 1.006a1.007 1.007 0 0 0 1.008 1.007" class="prefix__cls-2" data-name="Fill 583" transform="translate(17.625 39.238)"/>
            <path id="prefix__Fill_585" d="M1.007 2.013A1.007 1.007 0 1 0 0 1.006a1.007 1.007 0 0 0 1.007 1.007" class="prefix__cls-2" data-name="Fill 585" transform="translate(21.653 39.238)"/>
            <path id="prefix__Fill_587" d="M1.008 0a1.007 1.007 0 1 0 1.006 1.007A1.007 1.007 0 0 0 1.008 0" class="prefix__cls-2" data-name="Fill 587" transform="translate(25.681 39.238)"/>
            <path id="prefix__Fill_589" d="M1.007 2.013A1.007 1.007 0 1 0 0 1.006a1.007 1.007 0 0 0 1.007 1.007" class="prefix__cls-2" data-name="Fill 589" transform="translate(29.708 39.238)"/>
            <path id="prefix__Fill_591" d="M1.008 0a1.007 1.007 0 1 0 1.007 1.008A1.007 1.007 0 0 0 1.008 0" class="prefix__cls-2" data-name="Fill 591" transform="translate(3.528 42.259)"/>
            <path id="prefix__Fill_593" d="M1.007 2.014A1.007 1.007 0 1 0 0 1.007a1.008 1.008 0 0 0 1.007 1.007" class="prefix__cls-2" data-name="Fill 593" transform="translate(7.556 42.259)"/>
            <path id="prefix__Fill_595" d="M1.008 2.014A1.007 1.007 0 1 0 0 1.007a1.007 1.007 0 0 0 1.008 1.007" class="prefix__cls-2" data-name="Fill 595" transform="translate(11.583 42.259)"/>
            <path id="prefix__Fill_597" d="M1.007 2.014A1.007 1.007 0 1 0 0 1.007a1.008 1.008 0 0 0 1.007 1.007" class="prefix__cls-2" data-name="Fill 597" transform="translate(15.612 42.259)"/>
            <path id="prefix__Fill_599" d="M1.008 2.014A1.007 1.007 0 1 0 0 1.007a1.007 1.007 0 0 0 1.008 1.007" class="prefix__cls-2" data-name="Fill 599" transform="translate(19.639 42.259)"/>
            <path id="prefix__Fill_601" d="M1.007 2.014A1.007 1.007 0 1 0 0 1.007a1.008 1.008 0 0 0 1.007 1.007" class="prefix__cls-2" data-name="Fill 601" transform="translate(23.667 42.259)"/>
            <path id="prefix__Fill_603" d="M1.008 2.014A1.007 1.007 0 1 0 0 1.007a1.007 1.007 0 0 0 1.008 1.007" class="prefix__cls-2" data-name="Fill 603" transform="translate(27.694 42.259)"/>
            <path id="prefix__Fill_605" d="M1 1.008a1.007 1.007 0 0 1-1 1.006 1.008 1.008 0 0 0 1.011-1.006A1.008 1.008 0 0 0 0 0a1.007 1.007 0 0 1 1 1.008" class="prefix__cls-2" data-name="Fill 605" transform="translate(32.726 42.258)"/>
            <path id="prefix__Fill_607" d="M0 1.007A1 1 0 1 0 1 0a1.007 1.007 0 0 0-1 1.007" class="prefix__cls-2" data-name="Fill 607" transform="translate(31.722 42.259)"/>
            <path id="prefix__Fill_609" d="M1.008 0a1.007 1.007 0 1 0 1.007 1.008A1.007 1.007 0 0 0 1.008 0" class="prefix__cls-2" data-name="Fill 609" transform="translate(5.542 45.279)"/>
            <path id="prefix__Fill_611" d="M1.008 2.014A1.007 1.007 0 1 0 0 1.007a1.007 1.007 0 0 0 1.008 1.007" class="prefix__cls-2" data-name="Fill 611" transform="translate(9.57 45.279)"/>
            <path id="prefix__Fill_613" d="M1.008 2.014A1.007 1.007 0 1 0 0 1.007a1.008 1.008 0 0 0 1.008 1.007" class="prefix__cls-2" data-name="Fill 613" transform="translate(13.598 45.279)"/>
            <path id="prefix__Fill_615" d="M1.008 0a1.007 1.007 0 1 0 1.006 1.008A1.007 1.007 0 0 0 1.008 0" class="prefix__cls-2" data-name="Fill 615" transform="translate(17.625 45.279)"/>
            <path id="prefix__Fill_617" d="M1.007 0a1.007 1.007 0 1 0 1.007 1.008A1.007 1.007 0 0 0 1.007 0" class="prefix__cls-2" data-name="Fill 617" transform="translate(21.653 45.279)"/>
            <path id="prefix__Fill_619" d="M1.008 2.014A1.007 1.007 0 1 0 0 1.007a1.007 1.007 0 0 0 1.008 1.007" class="prefix__cls-2" data-name="Fill 619" transform="translate(25.681 45.279)"/>
            <path id="prefix__Fill_621" d="M1.007 2.014A1.007 1.007 0 1 0 0 1.007a1.007 1.007 0 0 0 1.007 1.007" class="prefix__cls-2" data-name="Fill 621" transform="translate(29.708 45.279)"/>
            <path id="prefix__Fill_623" d="M1.007 0a1.007 1.007 0 1 0 1.007 1.008A1.007 1.007 0 0 0 1.007 0" class="prefix__cls-2" data-name="Fill 623" transform="translate(7.556 48.3)"/>
            <path id="prefix__Fill_625" d="M1.008 0a1.007 1.007 0 1 0 1.007 1.008A1.008 1.008 0 0 0 1.008 0" class="prefix__cls-2" data-name="Fill 625" transform="translate(11.583 48.3)"/>
            <path id="prefix__Fill_627" d="M1.007 2.014A1.007 1.007 0 1 0 0 1.007a1.007 1.007 0 0 0 1.007 1.007" class="prefix__cls-2" data-name="Fill 627" transform="translate(15.612 48.3)"/>
            <path id="prefix__Fill_629" d="M1.008 2.014A1.007 1.007 0 1 0 0 1.007a1.007 1.007 0 0 0 1.008 1.007" class="prefix__cls-2" data-name="Fill 629" transform="translate(19.639 48.3)"/>
            <path id="prefix__Fill_631" d="M1.007 2.014A1.007 1.007 0 1 0 0 1.007a1.007 1.007 0 0 0 1.007 1.007" class="prefix__cls-2" data-name="Fill 631" transform="translate(23.667 48.3)"/>
            <path id="prefix__Fill_633" d="M1.008 0a1.007 1.007 0 1 0 1.007 1.008A1.008 1.008 0 0 0 1.008 0" class="prefix__cls-2" data-name="Fill 633" transform="translate(27.694 48.3)"/>
            <path id="prefix__Fill_635" d="M1 1.008a1.007 1.007 0 0 1-1 1.006 1.008 1.008 0 0 0 1.011-1.006A1.008 1.008 0 0 0 0 0a1.007 1.007 0 0 1 1 1.008" class="prefix__cls-2" data-name="Fill 635" transform="translate(32.726 48.299)"/>
            <path id="prefix__Fill_637" d="M0 1.007A1 1 0 1 0 1 0a1.007 1.007 0 0 0-1 1.007" class="prefix__cls-2" data-name="Fill 637" transform="translate(31.722 48.3)"/>
            <path id="prefix__Fill_639" d="M1.008 0a1.007 1.007 0 1 0 1.006 1.008A1.007 1.007 0 0 0 1.008 0" class="prefix__cls-2" data-name="Fill 639" transform="translate(9.57 51.321)"/>
            <path id="prefix__Fill_641" d="M1.008 0a1.007 1.007 0 1 0 1.007 1.008A1.007 1.007 0 0 0 1.008 0" class="prefix__cls-2" data-name="Fill 641" transform="translate(13.598 51.321)"/>
            <path id="prefix__Fill_643" d="M1.008 2.013A1.007 1.007 0 1 0 0 1.007a1.007 1.007 0 0 0 1.008 1.006" class="prefix__cls-2" data-name="Fill 643" transform="translate(17.625 51.321)"/>
            <path id="prefix__Fill_645" d="M1.007 2.013A1.007 1.007 0 1 0 0 1.007a1.007 1.007 0 0 0 1.007 1.006" class="prefix__cls-2" data-name="Fill 645" transform="translate(21.653 51.321)"/>
            <path id="prefix__Fill_647" d="M1.008 2.013A1.007 1.007 0 1 0 0 1.007a1.007 1.007 0 0 0 1.008 1.006" class="prefix__cls-2" data-name="Fill 647" transform="translate(25.681 51.321)"/>
            <path id="prefix__Fill_649" d="M1.007 2.013A1.007 1.007 0 1 0 0 1.007a1.007 1.007 0 0 0 1.007 1.006" class="prefix__cls-2" data-name="Fill 649" transform="translate(29.708 51.321)"/>
            <path id="prefix__Fill_651" d="M1.982 1.008A1.007 1.007 0 0 0 .974 0 1 1 0 0 0 0 .848q.646.566 1.322 1.1a1 1 0 0 0 .66-.937" class="prefix__cls-2" data-name="Fill 651" transform="translate(11.616 54.341)"/>
            <path id="prefix__Fill_653" d="M1.007 0a1.007 1.007 0 1 0 1.007 1.008A1.007 1.007 0 0 0 1.007 0" class="prefix__cls-2" data-name="Fill 653" transform="translate(15.612 54.342)"/>
            <path id="prefix__Fill_655" d="M1.008 0a1.007 1.007 0 1 0 1.007 1.008A1.007 1.007 0 0 0 1.008 0" class="prefix__cls-2" data-name="Fill 655" transform="translate(19.639 54.342)"/>
            <path id="prefix__Fill_657" d="M1.007 0a1.007 1.007 0 1 0 1.007 1.008A1.007 1.007 0 0 0 1.007 0" class="prefix__cls-2" data-name="Fill 657" transform="translate(23.667 54.342)"/>
            <path id="prefix__Fill_659" d="M1.008 2.013A1.007 1.007 0 1 0 0 1.007a1.007 1.007 0 0 0 1.008 1.006" class="prefix__cls-2" data-name="Fill 659" transform="translate(27.694 54.342)"/>
            <path id="prefix__Fill_661" d="M1 1.008a1.007 1.007 0 0 1-1 1.006 1.008 1.008 0 0 0 1.011-1.006A1.008 1.008 0 0 0 0 0a1.006 1.006 0 0 1 1 1.008" class="prefix__cls-2" data-name="Fill 661" transform="translate(32.726 54.341)"/>
            <path id="prefix__Fill_663" d="M0 1.007A1 1 0 1 0 1 0a1.007 1.007 0 0 0-1 1.007" class="prefix__cls-2" data-name="Fill 663" transform="translate(31.722 54.342)"/>
            <path id="prefix__Fill_665" d="M.166.007A.952.952 0 0 0 0 .04q.555.385 1.127.746A.992.992 0 0 0 .166.007" class="prefix__cls-2" data-name="Fill 665" transform="translate(14.439 57.356)"/>
            <path id="prefix__Fill_667" d="M1.008 0a1.007 1.007 0 1 0 1.006 1.008A1.007 1.007 0 0 0 1.008 0" class="prefix__cls-2" data-name="Fill 667" transform="translate(17.625 57.362)"/>
            <path id="prefix__Fill_669" d="M1.007 0a1.007 1.007 0 1 0 1.007 1.008A1.007 1.007 0 0 0 1.007 0" class="prefix__cls-2" data-name="Fill 669" transform="translate(21.653 57.362)"/>
            <path id="prefix__Fill_671" d="M1.008 0a1.007 1.007 0 1 0 1.006 1.008A1.007 1.007 0 0 0 1.008 0" class="prefix__cls-2" data-name="Fill 671" transform="translate(25.681 57.362)"/>
            <path id="prefix__Fill_673" d="M1.007 0a1.007 1.007 0 1 0 1.007 1.008A1.007 1.007 0 0 0 1.007 0" class="prefix__cls-2" data-name="Fill 673" transform="translate(29.708 57.362)"/>
            <path id="prefix__Fill_675" d="M.512.027A.984.984 0 0 0 0 .187q.723.307 1.465.579A.994.994 0 0 0 .512.027" class="prefix__cls-2" data-name="Fill 675" transform="translate(20.134 60.356)"/>
            <path id="prefix__Fill_677" d="M2.013 1.008a1.007 1.007 0 1 0-2.013 0 1 1 0 0 0 .1.427q.729.208 1.472.382a.99.99 0 0 0 .439-.809" class="prefix__cls-2" data-name="Fill 677" transform="translate(23.668 60.382)"/>
            <path id="prefix__Fill_679" d="M1.008 0a1.007 1.007 0 1 0 1.007 1.008A1.008 1.008 0 0 0 1.008 0" class="prefix__cls-2" data-name="Fill 679" transform="translate(27.694 60.383)"/>
            <path id="prefix__Fill_681" d="M0 0a1.007 1.007 0 0 1 1 1.008 1.006 1.006 0 0 1-1 1.005 1.008 1.008 0 0 0 1.011-1.005A1.008 1.008 0 0 0 0 0" class="prefix__cls-2" data-name="Fill 681" transform="translate(32.726 60.383)"/>
            <path id="prefix__Fill_683" d="M2.008 1.007A1 1 0 1 0 1 2.013a1.007 1.007 0 0 0 1-1.007" class="prefix__cls-2" data-name="Fill 683" transform="translate(31.722 60.383)"/>
        </g>
        <path id="prefix__Fill_685" d="M1.285 2.7L0 5.4c1.21.671 2.551 1.342 4.02 1.977a45.74 45.74 0 0 0 7.118 2.406l1.078-6.846L5.7 0z" class="prefix__cls-10" data-name="Fill 685" transform="translate(12.62 36.327)"/>
        <path id="prefix__Fill_687" d="M3.418.744A2.234 2.234 0 0 0 .393.468 1.8 1.8 0 0 0 .182 2.4a2.594 2.594 0 0 0 1.257 1.1 8.983 8.983 0 0 1 2.912 2.7" class="prefix__cls-10" data-name="Fill 687" transform="translate(19.992 16.19)"/>
        <path id="prefix__Fill_689" d="M4.4 6.632a8.856 8.856 0 0 0-2.82-2.62l-.107-.059A2.651 2.651 0 0 1 .208 2.786 2.081 2.081 0 0 1 .468.548a2.517 2.517 0 0 1 3.417.265l-.381.4A1.96 1.96 0 0 0 .87.931a1.534 1.534 0 0 0-.16 1.62 2.144 2.144 0 0 0 1.03.916l.11.061a9.385 9.385 0 0 1 3 2.781z" class="prefix__cls-11" data-name="Fill 689" transform="translate(19.716 15.919)"/>
        <path id="prefix__Fill_691" d="M12.586 0A67.534 67.534 0 0 0 0 12.323a20.936 20.936 0 0 1 1.713 3.065 20.8 20.8 0 0 1 1.054 2.866l5.8.593c-.122 3.647-.35 7.475-.713 11.467-.457 5.007-1.078 9.732-1.8 14.146l28.808-.044c-.191-1.583-.464-4.032-.713-7.051-.19-2.3-.27-3.776-.461-6.789-.133-2.09-.334-5.138-.606-8.9a1.313 1.313 0 0 1 .066-.824 1.291 1.291 0 0 1 .363-.478 11.186 11.186 0 0 0 7.118-2.487 10.138 10.138 0 0 0 1.944-2.208q-.543-.54-1.088-1.088-1.493-1.5-2.932-3L29 1.91z" class="prefix__cls-10" data-name="Fill 691" transform="translate(14.145 25.585)"/>
        <path id="prefix__Fill_693" d="M.2 1.019C1.622-.109 3.158-.255 3.788.358c.568.552.319 1.639.283 1.791-.225.935-.881 1.4-1.753 2.231A18.854 18.854 0 0 0 0 7.08" class="prefix__cls-10" data-name="Fill 693" transform="translate(43.584 15.2)"/>
        <path id="prefix__Fill_695" d="M.452 7.514L0 7.194a19.174 19.174 0 0 1 2.352-2.74c.147-.141.289-.272.423-.4a3.4 3.4 0 0 0 1.252-1.7c.026-.11.245-1.087-.207-1.527C3.309.333 1.931.452.6 1.511l-.349-.436C1.68-.055 3.416-.336 4.208.433a2.282 2.282 0 0 1 .358 2.055 3.9 3.9 0 0 1-1.414 1.977c-.132.122-.271.25-.415.39A18.671 18.671 0 0 0 .452 7.514" class="prefix__cls-11" data-name="Fill 695" transform="translate(43.359 14.925)"/>
        <path id="prefix__Fill_697" d="M20.527 12.811c0 7.075-4.6 12.811-10.263 12.811S0 19.886 0 12.811 4.6 0 10.264 0s10.263 5.735 10.263 12.811" class="prefix__cls-10" data-name="Fill 697" transform="translate(23.652 5.033)"/>
        <path id="prefix__Fill_699" d="M10.54 26.176C4.728 26.176 0 20.3 0 13.088S4.728 0 10.54 0s10.541 5.871 10.541 13.088-4.729 13.088-10.541 13.088zm0-25.621C5.034.554.554 6.177.554 13.088s4.48 12.533 9.986 12.533S20.526 20 20.526 13.088 16.046.554 10.54.554z" class="prefix__cls-11" data-name="Fill 699" transform="translate(23.375 4.756)"/>
        <path id="prefix__Fill_701" d="M2.59 16.738c1.216.433 1.9-.682 4.156-1.074 2.38-.415 2.881.606 5.315.22a10.19 10.19 0 0 0 3.958-1.654c3.226-1.993 3.949-4.2 4.976-3.94 1.463.377.817 5.076 1.951 5.29.825.155 2.4-2.082 2.629-4.491.434-4.617-4.265-8.121-4.919-8.6A14.375 14.375 0 0 0 10.053.207C8.5.473 4.465 1.163 1.94 4.7a9.837 9.837 0 0 0-1.216 9.476c.39.87.767 2.171 1.866 2.562" class="prefix__cls-2" data-name="Fill 701" transform="translate(20.978 .279)"/>
        <path id="prefix__Fill_703" d="M3.414 17.394a1.9 1.9 0 0 1-.64-.115 3.605 3.605 0 0 1-1.855-2.307c-.056-.135-.114-.274-.172-.4a10.075 10.075 0 0 1 1.244-9.755C4.586 1.183 8.726.479 10.284.213A15.6 15.6 0 0 1 12.875 0 13.97 13.97 0 0 1 21.1 2.55c.917.663 5.469 4.206 5.034 8.846a6.986 6.986 0 0 1-2.1 4.462 1.234 1.234 0 0 1-.72.287.742.742 0 0 1-.135-.012c-.73-.138-.876-1.273-1.045-2.588v-.005c-.146-1.135-.329-2.547-.922-2.7a.377.377 0 0 0-.093-.012c-.307 0-.66.364-1.256 1.007a15.46 15.46 0 0 1-3.414 2.911 10.512 10.512 0 0 1-4.06 1.692 7.082 7.082 0 0 1-1.105.092 7.467 7.467 0 0 1-1.664-.213 6.719 6.719 0 0 0-1.494-.2 6.078 6.078 0 0 0-1.049.1 8.309 8.309 0 0 0-2.2.735h-.006a3.533 3.533 0 0 1-1.457.442zM12.878.554a15.14 15.14 0 0 0-2.5.206c-1.5.256-5.475.934-7.934 4.378a9.515 9.515 0 0 0-1.19 9.2c.059.129.116.266.177.411v.006c.332.8.708 1.7 1.527 2a1.339 1.339 0 0 0 .456.083 3.056 3.056 0 0 0 1.222-.393h.005a8.857 8.857 0 0 1 2.333-.774 6.6 6.6 0 0 1 1.139-.1 7.249 7.249 0 0 1 1.609.208h.007a6.886 6.886 0 0 0 1.544.2 6.505 6.505 0 0 0 1.02-.086 9.933 9.933 0 0 0 3.854-1.614 15 15 0 0 0 3.3-2.816l.01-.01c.634-.684 1.092-1.178 1.637-1.178a1 1 0 0 1 .246.032c.96.246 1.15 1.732 1.335 3.169.111.867.264 2.054.6 2.117h.031a.693.693 0 0 0 .386-.176 6.473 6.473 0 0 0 1.885-4.071C25.982 7.011 21.644 3.631 20.77 3A13.421 13.421 0 0 0 12.878.554z" class="prefix__cls-11" data-name="Fill 703" transform="translate(20.701)"/>
        <path id="prefix__Fill_705" d="M.527 3.413a8.727 8.727 0 0 0-.243-1.627C.09 1.014-.124.623.087.31A.729.729 0 0 1 .916.046c.373.178.322.833.415 1.508a5.755 5.755 0 0 0 1.093 2.6" class="prefix__cls-10" data-name="Fill 705" transform="translate(35.447 38.164)"/>
        <path id="prefix__Fill_707" d="M2.663 4.629a.236.236 0 0 1-.193-.1 6.072 6.072 0 0 1-1.136-2.705c-.022-.162-.037-.322-.05-.476C1.249.951 1.216.576 1.053.5a.506.506 0 0 0-.53.183c-.093.136-.037.345.086.767.044.152.094.323.143.518A9.04 9.04 0 0 1 1 3.637a.238.238 0 0 1-.224.25.233.233 0 0 1-.25-.224 8.513 8.513 0 0 0-.234-1.582c-.048-.187-.1-.353-.139-.5C.01 1.094-.093.743.129.414A.963.963 0 0 1 1.257.069c.408.2.453.7.5 1.237.013.146.027.3.048.453a5.6 5.6 0 0 0 1.051 2.494.238.238 0 0 1-.193.377" class="prefix__cls-11" data-name="Fill 707" transform="translate(35.209 37.927)"/>
        <path id="prefix__Fill_709" d="M2.024 7.008a5.37 5.37 0 0 0-.5-3.568C.862 2.28-.13 1.824.014 1.028.125.409.869-.116 1.271.022c.5.173.142 1.256.954 2.061.41.405.662.335 1.156.7a3.539 3.539 0 0 1 1.256 2.253" class="prefix__cls-10" data-name="Fill 709" transform="translate(32.594 38.79)"/>
        <path id="prefix__Fill_711" d="M2.262 7.484h-.035a.238.238 0 0 1-.2-.27A5.25 5.25 0 0 0 1.552 3.8a6.055 6.055 0 0 0-.83-1.084c-.435-.481-.811-.9-.7-1.488A1.627 1.627 0 0 1 .8.174a.964.964 0 0 1 .786-.138c.358.124.425.488.5.872a2.146 2.146 0 0 0 .544 1.244 1.5 1.5 0 0 0 .528.34 2.8 2.8 0 0 1 .6.342 3.851 3.851 0 0 1 1.347 2.39.239.239 0 0 1-.185.282.242.242 0 0 1-.281-.185 3.4 3.4 0 0 0-1.163-2.106 2.382 2.382 0 0 0-.51-.288A1.964 1.964 0 0 1 2.3 2.49a2.6 2.6 0 0 1-.682-1.5C1.567.739 1.525.519 1.43.485a.543.543 0 0 0-.39.1 1.165 1.165 0 0 0-.554.723c-.062.345.171.623.589 1.085a6.482 6.482 0 0 1 .891 1.168 5.715 5.715 0 0 1 .534 3.72.239.239 0 0 1-.235.2" class="prefix__cls-11" data-name="Fill 711" transform="translate(32.355 38.552)"/>
        <path id="prefix__Fill_713" d="M0 6.529C1.606 4.768 1.9 3.417 1.828 2.47 1.777 1.784 1.513 1 1.979.46A1.853 1.853 0 0 1 3.436.007C3.523.014 4.555.1 4.743.661c.091.27-.107.375-.3 1.156a4.215 4.215 0 0 0-.153 1.156 3.265 3.265 0 0 0 .356 1.363" class="prefix__cls-10" data-name="Fill 713" transform="translate(36.609 37.599)"/>
        <path id="prefix__Fill_715" d="M.238 7a.234.234 0 0 1-.16-.062.239.239 0 0 1-.016-.336 5.407 5.407 0 0 0 1.767-3.88c-.011-.149-.033-.3-.055-.457A2.064 2.064 0 0 1 2.037.541 2.05 2.05 0 0 1 3.689.007C3.9.022 4.975.133 5.206.822a.8.8 0 0 1-.074.614 4.475 4.475 0 0 0-.223.675A3.973 3.973 0 0 0 4.765 3.2 3.045 3.045 0 0 0 5.1 4.467a.238.238 0 0 1-.426.212 3.513 3.513 0 0 1-.384-1.462A4.458 4.458 0 0 1 4.448 2a5.014 5.014 0 0 1 .243-.74c.078-.193.085-.222.064-.283C4.639.626 3.923.5 3.656.481A1.6 1.6 0 0 0 2.4.853 1.675 1.675 0 0 0 2.245 2.2c.023.164.045.327.056.487A5.84 5.84 0 0 1 .414 6.926.239.239 0 0 1 .238 7" class="prefix__cls-11" data-name="Fill 715" transform="translate(36.371 37.362)"/>
        <path id="prefix__Fill_717" d="M0 3.38C3.81 2.166 4.8 1.232 4.938.579c.023-.11.072-.458.3-.553.39-.161 1.252.434 1.357 1.1.145.933-1.281 1.341-1.758 2.764a3.76 3.76 0 0 0 .25 2.663" class="prefix__cls-10" data-name="Fill 717" transform="translate(37.268 40.295)"/>
        <path id="prefix__Fill_719" d="M4.942 6.891a3.9 3.9 0 0 1-.258-2.833 4.105 4.105 0 0 1 1.132-1.62c.43-.428.671-.686.617-1.032a1.308 1.308 0 0 0-.646-.821A.561.561 0 0 0 5.4.484c-.06.025-.111.142-.151.346C5.037 1.855 3.416 2.8.143 3.845L0 3.392C3.745 2.2 4.664 1.306 4.776.769c.039-.2.117-.589.445-.725a.94.94 0 0 1 .8.126A1.765 1.765 0 0 1 6.9 1.333c.093.6-.318 1.01-.752 1.442A3.676 3.676 0 0 0 5.134 4.21a3.452 3.452 0 0 0 .244 2.49z" class="prefix__cls-11" data-name="Fill 719" transform="translate(37.197 40.057)"/>
        <path id="prefix__Fill_721" d="M7.662 3.718a5.834 5.834 0 0 0-1.106-1.96A4.222 4.222 0 0 0 3.591 0C1.935.006.606 1.63.174 3.065a5.236 5.236 0 0 0 .7 4.071 7.347 7.347 0 0 0 3.32 2.964c1.139.6 2.913 1.539 4.172.8.493-.288.748-.8 1.256-1.809a6.313 6.313 0 0 0 .954-2.965c-.013-1.516-.9-3.447-2.311-3.718a2.113 2.113 0 0 0-1.156.126" class="prefix__cls-10" data-name="Fill 721" transform="translate(33.539 43.889)"/>
        <path id="prefix__Fill_723" d="M7.533 11.653a7.5 7.5 0 0 1-3.207-1.1A7.546 7.546 0 0 1 .907 7.489a5.456 5.456 0 0 1-.723-4.254C.653 1.672 2.089.007 3.828 0h.01a4.444 4.444 0 0 1 3.133 1.838 6 6 0 0 1 .486.65 2.4 2.4 0 0 1 .7-.108 2.06 2.06 0 0 1 .392.037c1.527.293 2.489 2.279 2.5 3.95a6.453 6.453 0 0 1-.976 3.068c-.532 1.059-.8 1.59-1.353 1.914a2.33 2.33 0 0 1-1.187.304zM3.829.475c-1.51.007-2.77 1.5-3.19 2.9a5.035 5.035 0 0 0 .682 3.885 7.124 7.124 0 0 0 3.215 2.87h.006a7.158 7.158 0 0 0 2.99 1.048 1.862 1.862 0 0 0 .951-.238c.434-.254.678-.741 1.164-1.711a6.146 6.146 0 0 0 .93-2.857c-.014-1.489-.868-3.246-2.12-3.487a1.544 1.544 0 0 0-.3-.029 1.9 1.9 0 0 0-.449.057 6.2 6.2 0 0 1 .417.97.238.238 0 0 1-.15.3.233.233 0 0 1-.076.013.235.235 0 0 1-.225-.163 5.764 5.764 0 0 0-.49-1.083.232.232 0 0 1-.06-.087.225.225 0 0 1-.006-.023 5.709 5.709 0 0 0-.5-.688A4.048 4.048 0 0 0 3.838.475z" class="prefix__cls-11" data-name="Fill 723" transform="translate(33.301 43.651)"/>
        <path id="prefix__Fill_725" d="M5.863 20.272l-.122-.542c7.551-1.711 9.207-3.372 9.266-4.464.039-.655-.49-1.129-1.8-2.235a44.513 44.513 0 0 1-4.422-4.2c-1.023-1.11-1.543-1.778-2-2.367a16.81 16.81 0 0 0-1.9-2.128A23.359 23.359 0 0 0 0 .486L.269 0a23.8 23.8 0 0 1 5 3.94 17.418 17.418 0 0 1 1.957 2.186c.451.581.963 1.239 1.971 2.332a44.239 44.239 0 0 0 4.372 4.149c1.321 1.118 2.048 1.734 1.992 2.69-.1 1.891-3.275 3.519-9.7 4.976" class="prefix__cls-11" data-name="Fill 725" transform="translate(41.413 26.163)"/>
        <path id="prefix__Fill_727" d="M10.719 19.7C3.535 18.009.029 16.282 0 14.417c-.007-.774.554-1.262 1.573-2.148a36.358 36.358 0 0 0 3.18-3.063A23 23 0 0 0 6.81 6.674a17.341 17.341 0 0 1 1.512-1.886A21.063 21.063 0 0 1 14.433 0l.247.5a20.538 20.538 0 0 0-5.95 4.667A16.9 16.9 0 0 0 7.262 7a23.89 23.89 0 0 1-2.1 2.585 36.821 36.821 0 0 1-3.224 3.1c-.953.83-1.388 1.209-1.384 1.724.017 1.065 1.816 2.756 10.291 4.75z" class="prefix__cls-11" data-name="Fill 727" transform="translate(11.687 26.095)"/>
        <path id="prefix__Fill_729" d="M.278 30.575H.241A.277.277 0 0 1 0 30.261c.671-4.983 1.29-9.953 1.844-14.772A52.788 52.788 0 0 0 2.3 8.107 48.022 48.022 0 0 0 1.535.328a.278.278 0 0 1 .223-.323.273.273 0 0 1 .323.224 48.522 48.522 0 0 1 .77 7.871 53.047 53.047 0 0 1-.451 7.453c-.553 4.823-1.174 9.8-1.845 14.782a.277.277 0 0 1-.275.24" class="prefix__cls-11" data-name="Fill 729" transform="translate(19.853 39.125)"/>
        <path id="prefix__Fill_731" d="M2.862 29.9a.277.277 0 0 1-.27-.215 89.414 89.414 0 0 1-2-12.914c-.15-1.911-.22-3.652-.327-6.286C.124 7.023.036 3.606 0 .281A.277.277 0 0 1 .274 0a.277.277 0 0 1 .28.274c.036 3.321.124 6.731.263 10.14.109 2.676.179 4.412.329 6.317a89.05 89.05 0 0 0 1.986 12.834.276.276 0 0 1-.208.332.239.239 0 0 1-.062.007" class="prefix__cls-11" data-name="Fill 731" transform="translate(46.608 39.542)"/>
        <path id="prefix__Fill_733" d="M3.049 0A19.187 19.187 0 0 0 .985 4.394C.316 6.468-.239 8.192.105 10.105c.7 3.849 4.626 6.175 7.561 7.912a25.177 25.177 0 0 0 4.218 1.99 36.138 36.138 0 0 0 4.287 2.006 23.145 23.145 0 0 0 2.739.92 14.863 14.863 0 0 0 3.777.614c3.605-.133 6.8-4.442 6.239-5.271-.642-.955-6.592 2.216-7.2 1.141-.107-.185.017-.563.263-1.317.424-1.3.9-1.762.7-2.021-.212-.28-1.014-.058-1.493.176a4.665 4.665 0 0 0-1.32 1.145 13.446 13.446 0 0 1-1.417 1.34c-1.1.732-3.345-.648-8.071-4.208-4.1-3.088-4.873-3.9-4.911-5.084-.03-.929.516-1.849 1.608-3.689A28.857 28.857 0 0 1 9.637 2.12q-.81-.2-1.673-.449c-.246-.07-.853-.248-1.771-.551C5.387.856 4.32.488 3.049 0" class="prefix__cls-10" data-name="Fill 733" transform="translate(11.699 43.158)"/>
        <path id="prefix__Fill_735" d="M22.779 24.17a16.143 16.143 0 0 1-3.657-.625 23.441 23.441 0 0 1-2.756-.924l-.02-.008a36.475 36.475 0 0 1-4.319-2.021A25.073 25.073 0 0 1 7.8 18.6C4.858 16.854.827 14.467.11 10.495-.248 8.514.328 6.726 1 4.656v-.007A19.428 19.428 0 0 1 3.092.192L3.213 0l.211.081C4.464.48 5.518.856 6.556 1.2c.953.314 1.548.487 1.76.547.536.156 1.08.3 1.663.446l.428.106-.28.34a28.7 28.7 0 0 0-2.527 3.6l-.007.011C6.536 8.034 6 8.93 6.033 9.777c.033 1.069.841 1.889 4.8 4.872 3.65 2.751 6 4.343 7.213 4.343a.949.949 0 0 0 .538-.145 13.533 13.533 0 0 0 1.361-1.293l.009-.009.259-.27a3.784 3.784 0 0 1 1.137-.928 3.361 3.361 0 0 1 1.237-.335.707.707 0 0 1 .6.242c.213.28.062.594-.146 1.028a9.4 9.4 0 0 0-.514 1.247 4.023 4.023 0 0 0-.285 1.1c.037.064.141.1.309.1a14.6 14.6 0 0 0 3.022-.775l.043-.014a12.212 12.212 0 0 1 3.072-.773.828.828 0 0 1 .747.3c.195.289.133.75-.182 1.371-.859 1.686-3.447 4.228-6.277 4.333-.066-.003-.131-.001-.197-.001zM3.44.681A18.907 18.907 0 0 0 1.525 4.82C.853 6.9.322 8.55.655 10.4c.672 3.722 4.574 6.033 7.423 7.719a25.02 25.02 0 0 0 4.172 1.968 36.9 36.9 0 0 0 4.298 2.013h.012a22.639 22.639 0 0 0 2.7.905 15.7 15.7 0 0 0 3.521.61h.177c2.495-.092 4.972-2.4 5.8-4.03.266-.522.246-.766.218-.81s-.119-.073-.254-.073a14.545 14.545 0 0 0-2.931.762 12.716 12.716 0 0 1-3.206.8.859.859 0 0 1-.824-.367c-.167-.29-.041-.677.235-1.524a10.127 10.127 0 0 1 .547-1.33v-.009a1.972 1.972 0 0 0 .189-.471.2.2 0 0 0-.083-.012 2.854 2.854 0 0 0-1.057.3 3.254 3.254 0 0 0-.977.813l-.263.275a12.537 12.537 0 0 1-1.462 1.377 1.471 1.471 0 0 1-.838.24c-1.384 0-3.63-1.5-7.554-4.457-4.18-3.151-4.978-3.992-5.02-5.3C5.444 8.786 6 7.841 7.12 5.959v-.005a29.579 29.579 0 0 1 2.3-3.332c-.442-.114-.867-.23-1.261-.344-.222-.063-.84-.244-1.78-.554-.96-.315-1.95-.666-2.943-1.043z" class="prefix__cls-11" data-name="Fill 735" transform="translate(11.422 42.818)"/>
        <path id="prefix__Fill_737" d="M12.491 1.77a66.5 66.5 0 0 1 4.382 7 1.352 1.352 0 0 1 .089 1.055c-.152.338-.55.625-1.581.79a6.13 6.13 0 0 1-4.092-.348c-2.369-1.29-2.066-4.01-4.102-4.444-.587-.124-1.317-.05-1.45.264-.237.56 1.563 1.594 1.384 1.976-.3.664-5.854-2.129-6.92-.79-.642.808.319 3.15 1.977 4.416s2.85.562 7.491 1.558c2.587.556 2.4.81 4.218 1.056 2.061.278 5.876.793 7.248-1.143.681-.96.5-2.152.132-4.525a19.6 19.6 0 0 0-1.405-4.657A31.484 31.484 0 0 0 17.912 0q-.767.328-1.612.639a31.816 31.816 0 0 1-3.809 1.131" class="prefix__cls-10" data-name="Fill 737" transform="translate(35.876 44.145)"/>
        <path id="prefix__Fill_739" d="M17.383 15.209a24.432 24.432 0 0 1-3.238-.277h-.018a9.2 9.2 0 0 1-1.938-.445 20.5 20.5 0 0 0-2.3-.614 31.917 31.917 0 0 0-4.273-.622 5.5 5.5 0 0 1-3.327-.988A6.094 6.094 0 0 1 .02 8.635a1.56 1.56 0 0 1 .242-1.182 1.569 1.569 0 0 1 1.309-.473 14.522 14.522 0 0 1 3.624.786 13.145 13.145 0 0 0 1.85.477A6.075 6.075 0 0 0 6.6 7.8c-.514-.483-1.045-.983-.841-1.466.188-.441.871-.489 1.156-.489a3.027 3.027 0 0 1 .607.061c1.161.248 1.635 1.14 2.137 2.085v.007a5.063 5.063 0 0 0 2.041 2.375 4.351 4.351 0 0 0 2.131.5 11.122 11.122 0 0 0 1.78-.185c1.178-.189 1.326-.521 1.375-.63a1.094 1.094 0 0 0-.091-.833 64.774 64.774 0 0 0-4.354-6.946l-.234-.337.4-.093A31.517 31.517 0 0 0 16.484.731C17.01.539 17.546.326 18.079.1l.227-.1.123.213A32.077 32.077 0 0 1 20.4 4.226a20 20 0 0 1 1.423 4.719c.377 2.448.566 3.676-.18 4.729-.737 1.033-2.129 1.535-4.26 1.535zM1.545 7.531a1.061 1.061 0 0 0-.85.267 1.062 1.062 0 0 0-.124.769 5.466 5.466 0 0 0 2.053 3.253 5.027 5.027 0 0 0 3.03.875h.012a32.655 32.655 0 0 1 4.334.634 20.936 20.936 0 0 1 2.35.626h.005a8.734 8.734 0 0 0 1.841.424 24.253 24.253 0 0 0 3.2.275c1.9 0 3.171-.439 3.784-1.3s.439-2.021.086-4.316v-.007a19.245 19.245 0 0 0-1.385-4.585v-.01A31.228 31.228 0 0 0 18.071.7c-.451.189-.921.374-1.4.549A32.3 32.3 0 0 1 13.228 2.3a60.339 60.339 0 0 1 4.179 6.712 1.591 1.591 0 0 1 .086 1.276c-.221.495-.774.788-1.791.951a11.5 11.5 0 0 1-1.866.191 4.9 4.9 0 0 1-2.4-.57 5.579 5.579 0 0 1-2.261-2.6v-.006c-.477-.9-.854-1.612-1.764-1.805a2.32 2.32 0 0 0-.488-.053.971.971 0 0 0-.649.153c-.027.153.508.655.709.844.464.436.83.78.668 1.136a.5.5 0 0 1-.523.267 9.381 9.381 0 0 1-2.092-.5l-.02-.006a14.667 14.667 0 0 0-3.471-.759z" class="prefix__cls-11" data-name="Fill 739" transform="translate(35.599 43.792)"/>
        <path id="prefix__Fill_741" d="M0 0a15.01 15.01 0 0 1 2.921.513 15.013 15.013 0 0 1 2.946 1.176" class="prefix__cls-10" data-name="Fill 741" transform="translate(38.121 34.647)"/>
        <path id="prefix__Fill_743" d="M6.144 2.243a.278.278 0 0 1-.129-.032 14.732 14.732 0 0 0-2.893-1.154A14.732 14.732 0 0 0 .256.553.277.277 0 1 1 .3 0a15.259 15.259 0 0 1 2.973.523 15.261 15.261 0 0 1 3 1.2.277.277 0 0 1-.129.522" class="prefix__cls-11" data-name="Fill 743" transform="translate(37.844 34.37)"/>
        <path id="prefix__Fill_745" d="M0 0a10.358 10.358 0 0 1 2.052.278 10.469 10.469 0 0 1 2.089.739" class="prefix__cls-10" data-name="Fill 745" transform="translate(39.117 33.244)"/>
        <path id="prefix__Fill_747" d="M4.418 1.571a.277.277 0 0 1-.12-.027A10.237 10.237 0 0 0 2.265.825a10.087 10.087 0 0 0-2-.271A.277.277 0 0 1 0 .266.26.26 0 0 1 .287 0a10.7 10.7 0 0 1 2.106.285 10.783 10.783 0 0 1 2.144.759.277.277 0 0 1-.12.527" class="prefix__cls-11" data-name="Fill 747" transform="translate(38.84 32.967)"/>
        <path id="prefix__Fill_749" d="M16.187 7.953c.223 1 .82 3.686-.755 5.858-2.168 2.984-6.6 2.455-7.2 2.376C4.944 15.744.087 13.156 0 8.234A8.093 8.093 0 0 1 7.953 0c5.07-.089 7.606 5.129 8.234 7.952" data-name="Fill 749" transform="translate(26.206 36.948)" style="fill:rgba(218,206,253,.5);mix-blend-mode:multiply;isolation:isolate"/>
    </g>
</svg>
